<svg xmlns="http://www.w3.org/2000/svg" width="180" height="110" viewBox="0 0 180 110"><path d="M124.382 63.056c28.839-22.454 39.345-29.457 39.345-37.388 0-7.726-6.798-10.3-15.244-10.3-5.459 0-9.063.927-11.947 2.472v9.99h-11.639V5.584C131.385 2.7 139.522.743 149.616.743c13.493 0 28.324 5.768 28.324 21.012 0 13.596-9.476 21.217-35.843 41.61h26.161V51.212H180v25.543h-55.618V63.057zM39.471 74.502l-.532-.532 13.539-13.534.527.532-13.534 13.534zM44.84 79.872l-.532-.532 13.539-13.534.527.532L44.84 79.872z"/><path d="M105.361 65.87c-14.474 14.475-37.942 14.475-52.416 0-14.475-14.474-14.475-37.942 0-52.416 14.474-14.475 37.942-14.475 52.416 0 14.474 14.474 14.475 37.941.001 52.415h-.001m-9.179-43.236c-9.405-9.404-24.653-9.404-34.057 0-9.404 9.405-9.404 24.653 0 34.057 9.405 9.404 24.652 9.404 34.056 0 9.405-9.404 9.405-24.652 0-34.057"/><path fill="#dce6e6" d="M9.347 98.02l26.82-26.82 11.448 11.448-26.82 26.82z"/><path d="M8.816 98.019l27.348-27.348 11.981 11.981L20.797 110 8.816 98.019zm27.352-26.288L9.88 98.019l10.917 10.917 26.288-26.288-10.917-10.917z"/></svg>