<svg xmlns="http://www.w3.org/2000/svg" width="400" height="80" viewBox="0 0 400 80"><path d="M93.104 42.345s1.069-.617-.179-1.371a19.89 19.89 0 01-4-3.551 2.092 2.092 0 01.134-2.191c.61-.844 5.188-3.037 5.188-3.037a2.583 2.583 0 013.1-.054c2.3 1.693 3.683 2.611 4.883 4.4a1.822 1.822 0 01-.1 2.526c-1.288 1.641-1.65 1.573-2.688 3.491a1.844 1.844 0 00-.015 1.256c.238.43.522.832.847 1.2a17.437 17.437 0 013.065 4.762c2.953 4.151-2.2 11.3 1.206 15.482 3.856 4.737 9.436 4.607 13.033 4.592 5.46.388 13.148-2.089 14.244-1.953-.205 1.77-6.967 5.14-6.967 5.14-.665.304-1.31.651-1.93 1.038-1.722 1.036-3.518 2.606-5.6 2.423 0 0-3.089-.006-6.842-.423-5.243-.583-9.781-1.9-11.937-5.825a19.65 19.65 0 01-1.9-13.835s.9-3.939-.624-5.608c-1.715-1.884-6.188-3.277-6.6-3.592s-.307-1.293.213-1.731c1-.837 1.509-1.576 3.468-3.139M245.805 63.032c-.359-.613-.949-1.858-1.731-3.377-.759-1.33.529-.548 3.486-3.486 1.454-.567-.847.868.181 3.38.575 1.057 1.4 1.394 1.919 1.919.809.742 1.253.742 2.742-.091a6.5 6.5 0 001.149-1.912c.283-.96.651-1.893 1.1-2.787.148-.7.4-1.034.655-1.9-.063-.761.549-1.14.74-2.006a4.393 4.393 0 011.518-3.23 15.36 15.36 0 012.7-1.509 14.184 14.184 0 002.41-1.932 8.129 8.129 0 001.985-3.44c.315-2.385-.634-2.364-1.309-2.385-2.449-.027-3.821.844-4.914.72-.236-3.107-.215-6.505-1.188-6.3a16.224 16.224 0 00-4.113 2.193 6.783 6.783 0 00-1.775 2.9c-1.1 2.535.3 5.447-2.322 7.115-2.723 1.33-5.172 3.461-7.345 4.286-.169-3.618 1.52-7.474 1.013-18.6-.212-1.457-.971-1.309-1.436-.992a12.105 12.105 0 00-4.127 3.5c-1.506 6.518-3.083 10.767-2.1 21.162a22.158 22.158 0 00-7.31 6.945c-.06.781.209 1.552.742 2.126 1.1 1.027 1.507 1.267 3.6 1.13.48-.068 1.029-.205 1.3-.274 1.269-.447 3.13-1.337 3.13-1.337 1.428-1.2 1.736 1.405 3.792 3.565 5.484 8.018 19.316 3.7 19.316 3.7 3.273-.675 3.315-2.153 3.941-3.422 1.992-3.608 2.181-5.824 2.119-6.437-3.99.909-7.705 3.062-11.348 3.421-6.216.992-6.808-.93-8.518-2.639M311.299 59.087c.193-2.426-.892-3.8-1.234-4.8-2.008-4.656-6.438-8.724-6.716-9.252-.377-.737-1.959-2.049-2.592-1.754-.384.632 2.869 7.231 4.236 11.693 1.638 6.205-.685 8.086-4.318 10.074-9.862 4.109-9.183-2.124-9.183-2.124a43.695 43.695 0 011.3-5.962c.911-3.534-.241-4.212-.625-6s-1.922-2.871-4.515-2.913a13.352 13.352 0 00-5.415.754c.529-2.971 5.546-6.9 6.473-8.779.293-1.492 1.378-3.842 1.683-5.546a5.114 5.114 0 00-3.563.548c-3.77 3.188-5.989 6.727-8.054 9.835a61.042 61.042 0 00-5.241 12.406c-1.165 2.706-1.542 11.411-.814 14.561 1.683-.1 3.22-1.069 5.186-4.12.428-1.446-.091-2.869.384-5.492.134-.938.306-1.344.5-2.794a8.68 8.68 0 01.776-2.807c1.065-1.567.308-1.27 3.153-2.878 2.442-1.985 3.507.163 3.7.959.6 1.8-.343 4.867-.343 4.867-1.659 7.107-2.54 8.123.755 10.829 1.27.5 3.439 2.152 5.428 1.881 4.656.226 5.5-.293 6.7-1.059a32.372 32.372 0 006.788-3.8c2.011-1.92 3.21-2.645 4.314-4.014a7.65 7.65 0 001.234-4.318M169.614 53.879c-1.136 2.914-4.476 6.812-5.01 6.969s-2.853-1.247-4.754-2.029l-4.3-1.552s-1.919-.65-1.507.447a42.843 42.843 0 002.561 5.421 55.14 55.14 0 014.395 13.014 43.267 43.267 0 01-6.922-.274s-.584-9.146-10.968-22.856c-.48-.925-1.234-.275-1.371.137-1.446 1.548-2.364 6.306-2.364 6.306a37.305 37.305 0 01-6.682 3.221s-.685.514-.754-1.2a29.108 29.108 0 017.093-15.112 1.909 1.909 0 00.137-2.193 67.394 67.394 0 00-6.528-9.09l4.9-4.1a25.279 25.279 0 016.6 4.073 6.665 6.665 0 004.167 1.337c2.882.189 5.764-.37 8.366-1.623a10.415 10.415 0 014.073-.6c.772.067 1.1.286 1.114 1.8 0 .071.078 2.37.078 2.37l1.911.286c2.942.318 5.391 3.182 6.012 4.773a11.532 11.532 0 01.826 6.234c-.1 1.47-.467 2.909-1.082 4.247m-18.648-1.171a5.68 5.68 0 002.056.925 56.294 56.294 0 008.4-.447c1.576-.342 2.373-.96 2.5-2.021a4.55 4.55 0 00-.959-3.051 13.65 13.65 0 00-2.331-3.015c-.463-.315-2.32-1.6-5.722-.48a34.444 34.444 0 00-6.751 3.324s2.638 4.6 2.809 4.763m-3.1-11.7c1.114-.748.35-.858.064-.843a6.133 6.133 0 01-2.529-.987c-.955-.763-.733.3-.733.3.509.669.335.843.636 1.511 1.449.97 1.92.156 2.561.015m.064-.843s-1.623-.557-2.529-.987M221.513 64.377c-.278-1.692-.25-3.772-3.3-7.683-3.468-4-6.206-2.893-8.35-2.581a2.33 2.33 0 01-2.608-.444 20.448 20.448 0 00-6.159-4.134s-1.721-.084 1.165-1.609c2.331-1.3.722-4.773-1.915-7.1-1.082-.886-2.163-1.5-4.882-.664-5.853 1.553-10.765 3.495-10.931 3.856s.416 1.664 1.692 3.218c0 0 1.11 1.968 2.664 2.191 1.3.112 2.275-.112 3.384-.029 1.165-.082.777.389.416.472 0 0-4.487 2.233-6.159 3.246-1.831 1.11-1.387 2.635-.194 3.525s1.887 1.218 3.966.47c1.333-.611 9.267-2.581 11.228 3.2 0 0 1.313 2.847.064 2.6a6.1 6.1 0 01-3.19 0c-1.333-.359-3.606-.526-4.19-1.054-.582-.5-1.331.222-.971.916a27.531 27.531 0 004.939 5.715 4.175 4.175 0 004.938.749 25.498 25.498 0 004.078-3.531c3.107-2.967 3.245-6.159 2.745-7.463-.3-.916.084-.722.417-.583a4.15 4.15 0 012.3 2.275c1.664 3.08 2.3 4.275 2.3 4.275 3.994 1.33 6.547.165 6.547.165"/><path d="M173.295 64.129a14.995 14.995 0 002.553-1.8 7.622 7.622 0 012.5-1.775 10.565 10.565 0 001.747-1.221c.278-.25.555-.278.777-.056 0 1.249.8 1.527 1.165 2 .207.539 1.043.212 2.258.8 1.841-.169 2.43-1.05 3.373-.745 1.055.278 2.025-.72 2.886-.8.433-.026.867-.026 1.3 0 .942-.045 1.217.491.416 1.47a7.015 7.015 0 01-2.026 1.759 33.412 33.412 0 01-5.8 3.375 6.577 6.577 0 01-3.384.5c-1.359.084-3.5.222-4.384-.166a10.098 10.098 0 01-3.218-.889c-.5-.166-.86.056-1.331-.11.222-.388.056-.777 0-1.193a5.01 5.01 0 001.165-1.137M211.111 43.819a4.023 4.023 0 011.3.028c.666.444 1.443.832 1.943 1.221a7.483 7.483 0 011.692 2.247c.513.398.742 1.062.583 1.692.082.861-1.1 1.069-1.831 1.083a2.297 2.297 0 01-2.109-.888 17.353 17.353 0 01-2.219-2.664 1.868 1.868 0 01-.665-1.694.726.726 0 01.61-.97c.228-.047.461-.066.694-.056M216.616 42.224a2.817 2.817 0 011.929.528c.4.161.7.674 1 .9.486.4.565.382.614.839.186.5.875.339 1.009 1.909.075.479.624.943.588 1.482-.036.329.292.649-.518.9a3.598 3.598 0 00-1.8.5c-1.161.181-1.28.135-1.525-.9.027-.737-.321-.727-.265-1.33.1-.494-.359-.406-.483-.879a6.038 6.038 0 00-.572-1.687c-.465-.55-.465-1.117-.722-1.29a1.893 1.893 0 01-.138-1c.294.045.592.055.888.027M227.618 4.949c-.021.123 0 .248-.124.371.063 0 .124.063.063.124a.225.225 0 00-.063.186c.063.063.063.246.186.186a2.39 2.39 0 011.608.186c.063.061.124.061.186.124.5.186 1.052.308 1.177.8a.484.484 0 01-.31.68h-.124l-.31.308h-.184a1.22 1.22 0 01-.805.373c-.061.06-.123.06-.184.123h-.248c-.061.063-.124.063-.186.124-.247 0-.433.123-.68.123a.918.918 0 00-.371.308c0 .187-.247.435-.061.435a6.25 6.25 0 001.793-.373 6.697 6.697 0 011.114-.063c.341-.028.683.037.99.187.494.681 1.051 1.3 1.608 1.979a.918.918 0 01.371.308.679.679 0 01-.5.928c-.061.31-.37.373-.494.558a1.353 1.353 0 01-.247.37v.126a2.654 2.654 0 00-.5.928c0 .06-.123.06-.123.123 0 .123-.063.186-.063.31 0 .06-.061.06-.124.06-.164.194-.27.43-.308.681-.061.123-.31.186-.371.31-.124.308-.371.308-.557.555-.061 0-.247.126-.371.063a1.808 1.808 0 00-.5-.247c-.123-.126-.123-.371-.247-.371a2.298 2.298 0 00-1.422.308c-.928.31-1.793.555-2.722.928-.423.122-.86.185-1.3.186a.225.225 0 00-.186-.063 11.199 11.199 0 01-.99-.8c-.061-.06 0-.247 0-.31-.247-.433-.618-.618-.928-.988a9.405 9.405 0 01-1.237-2.66c-.248-.555.123-1.114.247-1.669.349.193.663.443.928.741a17.56 17.56 0 013.959-1.3.131.131 0 00.14-.119c-.061-.433-.061-.865-.123-1.3a9.696 9.696 0 01-3.156-1.177c-.247-.124-.247-.37-.31-.618.44.143.911.165 1.362.063.618-.187 1.3-.25 1.979-.433a.134.134 0 00.124-.126c0-.68.123-1.421.061-2.1 0-.063-.061-.063-.124-.123.063 0 .063-.063.063-.123l-.066-.063a.6.6 0 01.557-.373c.564.115 1.122.261 1.671.435.371 0 .494.433.433.8m2.66 4.765c-.466-.014-.93.07-1.362.246a10.02 10.02 0 00-1.112.555.854.854 0 00-.618.5l.061.063c0 .247-.186.555 0 .62.31.123.68.123.99.246.158.139.284.309.371.5.061.123-.061.247-.061.373-.191.25-.449.442-.743.555a.462.462 0 00-.31.063c-.061.06-.061.183-.124.246 0 .187.063.373 0 .5a.942.942 0 00-.184.805.921.921 0 00.928-.435.365.365 0 01.246.063c.063.063.124-.063.124-.063.124 0 .31.126.433.063.323-.398.555-.862.681-1.359.063-.064.063-.124.124-.187a9.862 9.862 0 01.494-1.546 1.852 1.852 0 00.063-1.792m-5.2 1.546c-.248-.187-.557-.063-.805 0-.443.115-.877.26-1.3.433-.31.186-.618.308-.742.678s.247.618.494.868a15.398 15.398 0 001.546-.558c.187-.061.31-.061.5-.124.124-.06.371-.123.371-.186a.677.677 0 000-.493c-.061-.186.061-.5-.061-.618m.061 2.783l-.061.06c-.061 0-.124 0-.124-.06l-.061.06c-.124 0-.186.063-.31-.06-.061-.063-.061.06-.123.06s-.187.063-.248-.06l-.061.06a.234.234 0 01-.186-.06c-.061-.063-.124 0-.124.06-.186-.123-.433 0-.618-.06.186.618.31 1.174.433 1.793.681.186 1.238-.31 1.918-.433.063-.063-.034-.131-.061-.187-.186-.371-.124-.864-.371-1.174"/><path d="M227.618 4.949c-.021.123 0 .248-.124.371.063 0 .124.063.063.124a.225.225 0 00-.063.186c.063.063.063.246.186.186a2.39 2.39 0 011.608.186c.063.061.124.061.186.124.5.186 1.052.308 1.177.8a.484.484 0 01-.31.68h-.124l-.31.308h-.184a1.22 1.22 0 01-.805.373c-.061.06-.123.06-.184.123h-.248c-.061.063-.124.063-.186.124-.247 0-.433.123-.68.123a.918.918 0 00-.371.308c0 .187-.247.435-.061.435a6.25 6.25 0 001.793-.373 6.697 6.697 0 011.114-.063c.341-.028.683.037.99.187.494.681 1.051 1.3 1.608 1.979a.918.918 0 01.371.308.679.679 0 01-.5.928c-.061.31-.37.373-.494.558a1.353 1.353 0 01-.247.37v.126a2.654 2.654 0 00-.5.928c0 .06-.123.06-.123.123 0 .123-.063.186-.063.31 0 .06-.061.06-.124.06-.164.194-.27.43-.308.681-.061.123-.31.186-.371.31-.124.308-.371.308-.557.555-.061 0-.247.126-.371.063a1.808 1.808 0 00-.5-.247c-.123-.126-.123-.371-.247-.371a2.298 2.298 0 00-1.422.308c-.928.31-1.793.555-2.722.928-.423.122-.86.185-1.3.186a.225.225 0 00-.186-.063 11.199 11.199 0 01-.99-.8c-.061-.06 0-.247 0-.31-.247-.433-.618-.618-.928-.988a9.405 9.405 0 01-1.237-2.66c-.248-.555.123-1.114.247-1.669.349.193.663.443.928.741a17.56 17.56 0 013.959-1.3.131.131 0 00.14-.119c-.061-.433-.061-.865-.123-1.3a9.696 9.696 0 01-3.156-1.177c-.247-.124-.247-.37-.31-.618.44.143.911.165 1.362.063.618-.187 1.3-.25 1.979-.433a.134.134 0 00.124-.126c0-.68.123-1.421.061-2.1 0-.063-.061-.063-.124-.123.063 0 .063-.063.063-.123l-.066-.063a.6.6 0 01.557-.373c.564.115 1.122.261 1.671.435.37-.002.493.431.432.801zm2.66 4.765c-.466-.014-.93.07-1.362.246a10.02 10.02 0 00-1.112.555.854.854 0 00-.618.5l.061.063c0 .247-.186.555 0 .62.31.123.68.123.99.246.158.139.284.309.371.5.061.123-.061.247-.061.373-.191.25-.449.442-.743.555a.462.462 0 00-.31.063c-.061.06-.061.183-.124.246 0 .187.063.373 0 .5a.942.942 0 00-.184.805.921.921 0 00.928-.435.365.365 0 01.246.063c.063.063.124-.063.124-.063.124 0 .31.126.433.063.323-.398.555-.862.681-1.359.063-.064.063-.124.124-.187a9.862 9.862 0 01.494-1.546 1.851 1.851 0 00.062-1.808zm-5.2 1.546c-.248-.187-.557-.063-.805 0-.443.115-.877.26-1.3.433-.31.186-.618.308-.742.678s.247.618.494.868a15.398 15.398 0 001.546-.558c.187-.061.31-.061.5-.124.124-.06.371-.123.371-.186a.677.677 0 000-.493c-.06-.185.063-.492-.06-.618h-.004zm.061 2.783l-.061.06c-.061 0-.124 0-.124-.06l-.061.06c-.124 0-.186.063-.31-.06-.061-.063-.061.06-.123.06s-.187.063-.248-.06l-.061.06a.234.234 0 01-.186-.06c-.061-.063-.124 0-.124.06-.186-.123-.433 0-.618-.06.186.618.31 1.174.433 1.793.681.186 1.238-.31 1.918-.433.063-.063-.034-.131-.061-.187-.184-.37-.123-.863-.365-1.173h-.009z" fill="none" stroke="#231815" stroke-width=".45"/><path d="M236.834 17.319v.126c-.061.124-.186.247-.247.247-.248 0-.5.247-.743.063l-.063.06c-.246-.06-.494-.06-.68-.123a6.7 6.7 0 00-5.01-.063c.433.928-.061 1.919 0 2.846 0 1.238.371 2.412.371 3.65a1.83 1.83 0 01-.247.494v.124c-.186.186-.31.5-.557.681v.123a4.379 4.379 0 01-2.042 1.486 1.036 1.036 0 01-.8-.31h-.123a5.92 5.92 0 00-.742-.558A7.639 7.639 0 01223.662 24a5.506 5.506 0 01-.68-3.834c0-.063-.063-.063-.124-.063a1.128 1.128 0 01-.557.248 4.308 4.308 0 01-.928.433c-.061.063-.186.123-.247.186-.3.097-.59.221-.867.37-.232.188-.48.355-.741.5a2.532 2.532 0 01-.557.31 4.954 4.954 0 01-1.114.618c-.388.242-.86.309-1.3.186-.123 0-.308-.186-.433-.308-.061 0-.124-.063-.186-.063-.31-.184-.061-.557-.123-.8-.063-.063 0-.187-.124-.187.061-.063.061-.248.186-.248.433 0 .68-.308 1.051-.433 0 .063 0 .124.063.124 3.442-1.501 7-2.722 10.638-3.65a.133.133 0 00.124-.123v-.123c-.061-.126-.124-.187-.186-.31s-.186-.126-.247-.248a2.11 2.11 0 011.485.186h.184c.192.153.438.22.681.186a24.738 24.738 0 014.207-.557c.186-.061.37-.247.557-.247.396.033.788.095 1.175.186.061.061.123.061.184.124.366.04.712.191.991.431 0 .124.186.124.186.187-.063.063-.063.186-.124.246m-9.03 1.982a3.058 3.058 0 000-1.054 5.064 5.064 0 00-.928.248c-.186.061-.31.187-.5.247-.123 0-.186.123-.31.063 0 .123-.186 0-.186.123-.123-.063-.184.124-.308.063 0 .124-.186 0-.186.124-.124-.063-.247.06-.308.06-.31.31-.744.248-1.052.5.31.203.642.371.99.5.186.063.433.123.62.186.52.227.969.59 1.3 1.051a.75.75 0 01-.124.991c-.123.06-.31.06-.433.123-.186.061-.31-.123-.5-.063-.246.25-.494-.06-.741-.186h-.248c-.123-.06-.123-.184-.184-.31a6.624 6.624 0 00-.991-.864c-.123-.187-.247.063-.31.246a3.493 3.493 0 00-.184 1.364 2.89 2.89 0 001.918 2.039 6.817 6.817 0 001.916.248c-.061-.063.063-.123.063-.186.371-.433.818-.745.865-1.3a31.842 31.842 0 00-.184-4.2"/><path d="M236.834 17.319v.126c-.061.124-.186.247-.247.247-.248 0-.5.247-.743.063l-.063.06c-.246-.06-.494-.06-.68-.123a6.7 6.7 0 00-5.01-.063c.433.928-.061 1.919 0 2.846 0 1.238.371 2.412.371 3.65a1.83 1.83 0 01-.247.494v.124c-.186.186-.31.5-.557.681v.123a4.379 4.379 0 01-2.042 1.486 1.036 1.036 0 01-.8-.31h-.123a5.92 5.92 0 00-.742-.558A7.639 7.639 0 01223.662 24a5.506 5.506 0 01-.68-3.834c0-.063-.063-.063-.124-.063a1.128 1.128 0 01-.557.248 4.308 4.308 0 01-.928.433c-.061.063-.186.123-.247.186-.3.097-.59.221-.867.37-.232.188-.48.355-.741.5a2.532 2.532 0 01-.557.31 4.954 4.954 0 01-1.114.618c-.388.242-.86.309-1.3.186-.123 0-.308-.186-.433-.308-.061 0-.124-.063-.186-.063-.31-.184-.061-.557-.123-.8-.063-.063 0-.187-.124-.187.061-.063.061-.248.186-.248.433 0 .68-.308 1.051-.433 0 .063 0 .124.063.124 3.442-1.501 7-2.722 10.638-3.65a.133.133 0 00.124-.123v-.123c-.061-.126-.124-.187-.186-.31s-.186-.126-.247-.248a2.11 2.11 0 011.485.186h.184c.192.153.438.22.681.186a24.738 24.738 0 014.207-.557c.186-.061.37-.247.557-.247.396.033.788.095 1.175.186.061.061.123.061.184.124.366.04.712.191.991.431 0 .124.186.124.186.187-.065.055-.065.178-.126.238zm-9.03 1.982a3.058 3.058 0 000-1.054 5.064 5.064 0 00-.928.248c-.186.061-.31.187-.5.247-.123 0-.186.123-.31.063 0 .123-.186 0-.186.123-.123-.063-.184.124-.308.063 0 .124-.186 0-.186.124-.124-.063-.247.06-.308.06-.31.31-.744.248-1.052.5.31.203.642.371.99.5.186.063.433.123.62.186.52.227.969.59 1.3 1.051a.75.75 0 01-.124.991c-.123.06-.31.06-.433.123-.186.061-.31-.123-.5-.063-.246.25-.494-.06-.741-.186h-.248c-.123-.06-.123-.184-.184-.31a6.624 6.624 0 00-.991-.864c-.123-.187-.247.063-.31.246a3.493 3.493 0 00-.184 1.364 2.89 2.89 0 001.918 2.039 6.817 6.817 0 001.916.248c-.061-.063.063-.123.063-.186.371-.433.818-.745.865-1.3a31.872 31.872 0 00-.179-4.213z" fill="none" stroke="#231815" stroke-width=".45"/><path d="M257.083 19.067c-.018.436.019.873.11 1.3a.228.228 0 00-.054.124c.083.429.139.864.167 1.3l-.056.061c.11.373 0 .805.222 1.175l-.054.063c.062.137.099.283.11.433l-.056.063c.146.398.24.814.278 1.237l-.054.061a.25.25 0 01.054.186 2.16 2.16 0 01-.222.867c-.056.061-.11.184-.222.247-.056.063-.056.186-.113.247-.222.124-.278.31-.444.434a1.34 1.34 0 01-.835.123c-.113-.061-.223-.123-.335-.186h-.167a1.009 1.009 0 00-.278-.247h-.112c0-.186-.167-.186-.222-.186a9.52 9.52 0 01-2.506-1.487c.321.032.637.094.946.186.365.081.742.103 1.114.063.259.031.52.031.779 0 .11-.063.167-.248.278-.371v-.187c.134-.223.193-.482.167-.741a16.864 16.864 0 00-.222-2.352c0-2.226-.113-4.514.054-6.741-.167-.247-.5-.124-.724-.186a1.43 1.43 0 00-.722-.061 7.176 7.176 0 01-1.616-.124l-.332-.186c-.167-.063-.167.186-.225.31l.057.061c-.057.186-.278.31-.389.123l-.057.063c-.278-.186-.613-.247-.89-.433a3.72 3.72 0 01-.89-2.289 7.697 7.697 0 01.389-2.97c.048-.437.122-.871.222-1.3h.113c.343.308.642.662.889 1.051a27.989 27.989 0 012.507-1.793c.278-.186.613-.247.945-.433.113-.063.279 0 .391-.063a.89.89 0 01.779.186 3.752 3.752 0 011.56 1.732c.086.324.142.656.167.99l-.057.061.057.063c-.058.668-.17 1.33-.335 1.979a2.276 2.276 0 00-.112.867c0 .123-.11.308-.056.433a.243.243 0 01.056.186l-.056.061c.044.052.064.12.056.187-.071.219-.09.452-.056.68.056 1.359-.112 2.722-.054 4.082 0 .061.054.247-.057.308.112.061.057.187.057.248l-.057.061c.071.133.11.282.112.433m-1.724-9.153c.054-.618.11-1.175.166-1.793a.723.723 0 00-.112-.5c-.054.124-.167.124-.222.186-1.114.433-2.283.433-3.285 1.175a1.895 1.895 0 00-.389.557c-.112.31.057.62.057.928.5-.247.889-.742 1.445-.991.442-.102.907-.01 1.276.253.335.186.724.742.389 1.114-.11.247-.444.247-.667.308-.278.124-.447.433-.667.681-.057 0-.112.061-.169.061-.278.308-.555.742-.945.8-.057 0-.057-.061-.057-.124.263-.399.504-.812.724-1.237a2.512 2.512 0 00-1.334.31 5.735 5.735 0 00.166 1.671c.334-.061.611-.124.946-.187.279-.061.557-.184.889-.247.201-.05.407-.071.614-.061.403.045.797.149 1.17.308 0-.433-.095-.925-.056-1.359.056-.62-.057-1.238.056-1.856"/><path d="M257.083 19.067c-.018.436.019.873.11 1.3a.228.228 0 00-.054.124c.083.429.139.864.167 1.3l-.056.061c.11.373 0 .805.222 1.175l-.054.063c.062.137.099.283.11.433l-.056.063c.146.398.24.814.278 1.237l-.054.061a.25.25 0 01.054.186 2.16 2.16 0 01-.222.867c-.056.061-.11.184-.222.247-.056.063-.056.186-.113.247-.222.124-.278.31-.444.434a1.34 1.34 0 01-.835.123c-.113-.061-.223-.123-.335-.186h-.167a1.009 1.009 0 00-.278-.247h-.112c0-.186-.167-.186-.222-.186a9.52 9.52 0 01-2.506-1.487c.321.032.637.094.946.186.365.081.742.103 1.114.063.259.031.52.031.779 0 .11-.063.167-.248.278-.371v-.187c.134-.223.193-.482.167-.741a16.864 16.864 0 00-.222-2.352c0-2.226-.113-4.514.054-6.741-.167-.247-.5-.124-.724-.186a1.43 1.43 0 00-.722-.061 7.176 7.176 0 01-1.616-.124l-.332-.186c-.167-.063-.167.186-.225.31l.057.061c-.057.186-.278.31-.389.123l-.057.063c-.278-.186-.613-.247-.89-.433a3.72 3.72 0 01-.89-2.289 7.697 7.697 0 01.389-2.97c.048-.437.122-.871.222-1.3h.113c.343.308.642.662.889 1.051a27.989 27.989 0 012.507-1.793c.278-.186.613-.247.945-.433.113-.063.279 0 .391-.063a.89.89 0 01.779.186 3.752 3.752 0 011.56 1.732c.086.324.142.656.167.99l-.057.061.057.063c-.058.668-.17 1.33-.335 1.979a2.276 2.276 0 00-.112.867c0 .123-.11.308-.056.433a.243.243 0 01.056.186l-.056.061c.044.052.064.12.056.187-.071.219-.09.452-.056.68.056 1.359-.112 2.722-.054 4.082 0 .061.054.247-.057.308.112.061.057.187.057.248l-.057.061a.938.938 0 01.113.434zm-1.725-9.154c.054-.618.11-1.175.166-1.793a.723.723 0 00-.112-.5c-.054.124-.167.124-.222.186-1.114.433-2.283.433-3.285 1.175a1.895 1.895 0 00-.389.557c-.112.31.057.62.057.928.5-.247.889-.742 1.445-.991.442-.102.907-.01 1.276.253.335.186.724.742.389 1.114-.11.247-.444.247-.667.308-.278.124-.447.433-.667.681-.057 0-.112.061-.169.061-.278.308-.555.742-.945.8-.057 0-.057-.061-.057-.124.263-.399.504-.812.724-1.237a2.512 2.512 0 00-1.334.31 5.735 5.735 0 00.166 1.671c.334-.061.611-.124.946-.187.279-.061.557-.184.889-.247.201-.05.407-.071.614-.061.403.045.797.149 1.17.308 0-.433-.095-.925-.056-1.359.061-.616-.052-1.235.061-1.853z" fill="none" stroke="#231815" stroke-width=".45"/><path d="M242.276 20.304a2.284 2.284 0 000 .618c.082.471.082.953 0 1.424a.598.598 0 00.054.433c.279.494.5 1.237-.054 1.422-.223.123-.5-.123-.724-.308h-.166c-.279-.187-.391-.558-.669-.681 0-.742 0-1.424-.056-2.165-.056-.618-.056-1.237-.056-1.856.028-.557.028-1.114 0-1.671.056-2.349.279-4.639.389-6.988-.007-.343.07-.683.223-.99.056-.063.167.061.222.061.223.123.223.494.5.557.286-.319.603-.609.945-.867.756-.54 1.58-.977 2.451-1.3.054-.063.166 0 .222 0s.056-.063.112-.063q.056.063.11.063.057-.063.113-.063l.054.063c0-.063.056-.063.112-.063a4.728 4.728 0 011.895 1.553c.054.063 0 .247 0 .371l-.167.186v.243a.955.955 0 00-.167.68c0 .126-.167 0-.167.126a3.676 3.676 0 01-.222.741v.187c-.167.184-.167.37-.278.555a.19.19 0 00.11.063 23.667 23.667 0 002.338-1.733c-.045.17-.1.337-.165.5-.67.742-1.17 1.608-1.894 2.289-.054.061-.167.061-.222.123-.225.373-.557.5-.78.867-.11.124-.334.186-.444.371a.861.861 0 01-.167.247 4.388 4.388 0 01-.613.5.866.866 0 00-.389.247.194.194 0 00-.167.061c-.278-.124-.557 0-.78-.061-.222-.124-.222-.557-.444-.742-.057-.061-.167-.061-.223-.123a.249.249 0 01.056-.187.449.449 0 01.056-.618c.054-.061-.056-.247 0-.371a4.88 4.88 0 00.946-1.669.126.126 0 00-.112-.124 1.464 1.464 0 01-.89-.494c.11-.434.557-.434.78-.744h1.057c.056 0 .056.126.112.126.167 0 .389.184.389 0a9.7 9.7 0 00.056-1.795c0-.061-.056-.061-.112-.061a.733.733 0 01-.334.123 9.18 9.18 0 00-1.281-.123 1.645 1.645 0 00-.723.371 2.44 2.44 0 00-.836 1.168c.223.31.389.618.611.99.112.186.279.31.389.494 0 .124.167.247 0 .373.113.123.057.308.057.433-.057.061-.112.186-.167.247a2.28 2.28 0 01-.334.867c-.056.061.054.184-.056.246l.056.063a8.163 8.163 0 00-.334 1.608c-.057.063-.057.124-.113.186-.056.373-.11.618-.166.991a.238.238 0 00.056.184c-.056 0-.056.061-.056.124l.056.061c-.167.186.054.31 0 .5-.046.348-.065.7-.056 1.051a5.844 5.844 0 000 .99c0 .061.056.061.056.124m2.338-7.114v.124a2.813 2.813 0 00-.445.928 5.353 5.353 0 001.5-.867c-.056-.371.11-.8-.112-1.114-.167-.184-.5.124-.669.373v.123c-.11.123-.166.31-.278.433"/><path d="M242.276 20.304a2.284 2.284 0 000 .618c.082.471.082.953 0 1.424a.598.598 0 00.054.433c.279.494.5 1.237-.054 1.422-.223.123-.5-.123-.724-.308h-.166c-.279-.187-.391-.558-.669-.681 0-.742 0-1.424-.056-2.165-.056-.618-.056-1.237-.056-1.856.028-.557.028-1.114 0-1.671.056-2.349.279-4.639.389-6.988-.007-.343.07-.683.223-.99.056-.063.167.061.222.061.223.123.223.494.5.557.286-.319.603-.609.945-.867.756-.54 1.58-.977 2.451-1.3.054-.063.166 0 .222 0s.056-.063.112-.063q.056.063.11.063.057-.063.113-.063l.054.063c0-.063.056-.063.112-.063a4.728 4.728 0 011.895 1.553c.054.063 0 .247 0 .371l-.167.186v.243a.955.955 0 00-.167.68c0 .126-.167 0-.167.126a3.676 3.676 0 01-.222.741v.187c-.167.184-.167.37-.278.555a.19.19 0 00.11.063 23.667 23.667 0 002.338-1.733c-.045.17-.1.337-.165.5-.67.742-1.17 1.608-1.894 2.289-.054.061-.167.061-.222.123-.225.373-.557.5-.78.867-.11.124-.334.186-.444.371a.861.861 0 01-.167.247 4.388 4.388 0 01-.613.5.866.866 0 00-.389.247.194.194 0 00-.167.061c-.278-.124-.557 0-.78-.061-.222-.124-.222-.557-.444-.742-.057-.061-.167-.061-.223-.123a.249.249 0 01.056-.187.449.449 0 01.056-.618c.054-.061-.056-.247 0-.371a4.88 4.88 0 00.946-1.669.126.126 0 00-.112-.124 1.464 1.464 0 01-.89-.494c.11-.434.557-.434.78-.744h1.057c.056 0 .056.126.112.126.167 0 .389.184.389 0a9.7 9.7 0 00.056-1.795c0-.061-.056-.061-.112-.061a.733.733 0 01-.334.123 9.18 9.18 0 00-1.281-.123 1.645 1.645 0 00-.723.371 2.44 2.44 0 00-.836 1.168c.223.31.389.618.611.99.112.186.279.31.389.494 0 .124.167.247 0 .373.113.123.057.308.057.433-.057.061-.112.186-.167.247a2.28 2.28 0 01-.334.867c-.056.061.054.184-.056.246l.056.063a8.163 8.163 0 00-.334 1.608c-.057.063-.057.124-.113.186-.056.373-.11.618-.166.991a.238.238 0 00.056.184c-.056 0-.056.061-.056.124l.056.061c-.167.186.054.31 0 .5-.046.348-.065.7-.056 1.051a5.844 5.844 0 000 .99c0 .05.057.05.057.113zm2.338-7.114v.124a2.813 2.813 0 00-.445.928 5.353 5.353 0 001.5-.867c-.056-.371.11-.8-.112-1.114-.167-.184-.5.124-.669.373v.123c-.107.126-.163.311-.275.433h0z" fill="none" stroke="#231815" stroke-width=".45"/><path d="M274.289 12.011c-.073.049-.186.061-.246.124 0 .061 0 .124.06.124.373.061.744.123 1.114.186.17.051.337.112.5.184.246.248.433.371.681.618-.031.35-.031.702 0 1.052 0 .124.184.063.247.063.246-.063.433-.187.681-.248.321-.118.631-.263.927-.433.247-.124.184-.434.31-.618.618.123 1.237 0 1.856.123.06.061.183.124.246.187h.124c.295.214.564.463.8.741.063.123.063.31.124.5.061.247-.247.371-.433.433-.063 0-.063.061-.063.123a3.01 3.01 0 01-1.608.618c-.063.063-.186 0-.248 0a1.4 1.4 0 01-.865.063 6.603 6.603 0 01-1.855-.371c-.373.247-.247.742-.31 1.114 0 .061-.123.061-.123.123-.063.187.06.373.06.5-.06.123-.06.31-.123.433-.061.063 0 .186-.123.186.061 0 .061.061.061.124-.308.433-.434.927-.867 1.175h-.123c-.187.124-.31.308-.5.247a1.909 1.909 0 00-1.3-.247 4.159 4.159 0 00-1.237.124c-.354.1-.647.348-.805.68a18.083 18.083 0 00-.433 1.979c-.063.124.061.186.061.248s-.061.061-.061.123c.131.403.392.752.742.991.123.061.186-.124.246-.187a8.224 8.224 0 013.156-2.844c.107-.121.232-.225.37-.31 1.177-.618 2.847-1.916 3.961-.618.262.253.509.52.741.8.048.11.111.214.186.308.25.158.462.37.62.62.123.186-.063.371-.063.618-.061.063-.187.186-.247.247v.124c-.31.247-.433.62-.742.8-.308.31-.557.68-.927.99-.063.063 0 .124.06.124a3.2 3.2 0 011.609 1.051.66.66 0 01-.186.99 1.594 1.594 0 01-1.3.063c-.308-.063-.678.061-.988 0a2.971 2.971 0 00-.741-.063 3.163 3.163 0 00-1.047-.182.224.224 0 01-.184.061c-.186-.061-.248-.248-.371-.371 0-.061-.063-.186-.063-.247a2.36 2.36 0 01-.555-.805c-.063-.246.123-.555 0-.8a.225.225 0 00.063-.186c1.051-1.051 2.348-1.855 3.091-3.216 0-.061-.124-.124-.186-.186h-.124c-.558.37-.991.8-1.546 1.175h-.126c-.06.061-.184.123-.246.186h-.124c-.186.123-.308.31-.5.371a3.225 3.225 0 00-1.979 1.485 2.646 2.646 0 00-.248.618.793.793 0 00-.06.741.763.763 0 01-.186 1.052 1.288 1.288 0 01-.805.186c-.123-.061-.247 0-.37-.061-.31-.187-.435-.557-.744-.805-.123-.061-.247-.061-.37-.184a.23.23 0 00-.063-.187c.063 0 .063-.061.063-.123-.123-.186 0-.308-.063-.5a2.868 2.868 0 01-.186-.68 3.758 3.758 0 01.186-2.846c.186-1.609 1.856-2.289 3.156-2.846.146-.942.228-1.893.247-2.846a6.89 6.89 0 00.248-1.916c-.063-.124-.186-.187-.248-.31-.061-.061.123-.123.063-.247 0-.061-.063-.061-.124-.061a7.521 7.521 0 00-2.29 2.35c-.123.184-.31.31-.433.494 0 .061-.06.124-.06.186-.344.386-.654.8-.928 1.238-.063.061-.186.123-.186.184s-.063.124-.063.187c-.061.123-.187.123-.247.247a6.688 6.688 0 01-.5.928 34.545 34.545 0 00-2.227 3.031c0 .061-.06.184-.06.246a7.742 7.742 0 00-.805 1.362c-.123.184-.186.494-.308.68a5.878 5.878 0 01-1.238 1.237h-.123c-.5-.247-.681-.68-.991-1.114v-.123a1.378 1.378 0 01-.308-.68c.063-.371.557-.187.8-.248.433-.123.618-.557.928-.865.618-.867 1.051-1.795 1.609-2.723.308-.433.493-.8.8-1.237.122-.106.226-.232.308-.371.164-.322.35-.632.558-.928.68-.927 1.3-1.793 1.979-2.659a9.955 9.955 0 01-1.424-.247c-.06-.061-.123-.061-.186-.124-.928-.31-2.165-.865-2.1-2.04a8.3 8.3 0 00.991.557c.308.061.618.061.927.123a2.77 2.77 0 00.99-.186c1.3-.557 2.6-1.175 3.834-1.793.618-.557 1.362-.991 1.982-1.609.06-.061 0-.123-.063-.123a7.27 7.27 0 00-1.114-.31c-.63.18-1.27.325-1.916.433-.063.063-.126.063-.187.124a1.624 1.624 0 00-.741.186 3.14 3.14 0 00-.991.308c-.123.063-.308 0-.5 0 .433-.618 1.238-.8 1.795-1.3h.124c.433-.371.928-.557 1.3-.928-.308-.557-1.174-.867-1.051-1.546 0-.061.25-.123.373-.186.678-.433 1.424.124 2.1.063.685.418 1.333.895 1.936 1.424.06 0 .123.063.186.063.177.158.324.346.433.557.06.186-.063.371 0 .557v.308l-.063.061c.232.176.51.284.8.31.063 0 .063.124.124.124.123 0 .248.123.371.123 0 .187.247.248.186.434a2.488 2.488 0 01-1.175.928c-.659.441-1.28.938-1.856 1.484-.123.063-.186.124-.31.186-.213.111-.42.235-.618.371"/><path d="M274.289 12.011c-.073.049-.186.061-.246.124 0 .061 0 .124.06.124.373.061.744.123 1.114.186.17.051.337.112.5.184.246.248.433.371.681.618-.031.35-.031.702 0 1.052 0 .124.184.063.247.063.246-.063.433-.187.681-.248.321-.118.631-.263.927-.433.247-.124.184-.434.31-.618.618.123 1.237 0 1.856.123.06.061.183.124.246.187h.124c.295.214.564.463.8.741.063.123.063.31.124.5.061.247-.247.371-.433.433-.063 0-.063.061-.063.123a3.01 3.01 0 01-1.608.618c-.063.063-.186 0-.248 0a1.4 1.4 0 01-.865.063 6.603 6.603 0 01-1.855-.371c-.373.247-.247.742-.31 1.114 0 .061-.123.061-.123.123-.063.187.06.373.06.5-.06.123-.06.31-.123.433-.061.063 0 .186-.123.186.061 0 .061.061.061.124-.308.433-.434.927-.867 1.175h-.123c-.187.124-.31.308-.5.247a1.909 1.909 0 00-1.3-.247 4.159 4.159 0 00-1.237.124c-.354.1-.647.348-.805.68a18.083 18.083 0 00-.433 1.979c-.063.124.061.186.061.248s-.061.061-.061.123c.131.403.392.752.742.991.123.061.186-.124.246-.187a8.224 8.224 0 013.156-2.844c.107-.121.232-.225.37-.31 1.177-.618 2.847-1.916 3.961-.618.262.253.509.52.741.8.048.11.111.214.186.308.25.158.462.37.62.62.123.186-.063.371-.063.618-.061.063-.187.186-.247.247v.124c-.31.247-.433.62-.742.8-.308.31-.557.68-.927.99-.063.063 0 .124.06.124a3.2 3.2 0 011.609 1.051.66.66 0 01-.186.99 1.594 1.594 0 01-1.3.063c-.308-.063-.678.061-.988 0a2.971 2.971 0 00-.741-.063 3.163 3.163 0 00-1.047-.182.224.224 0 01-.184.061c-.186-.061-.248-.248-.371-.371 0-.061-.063-.186-.063-.247a2.36 2.36 0 01-.555-.805c-.063-.246.123-.555 0-.8a.225.225 0 00.063-.186c1.051-1.051 2.348-1.855 3.091-3.216 0-.061-.124-.124-.186-.186h-.124c-.558.37-.991.8-1.546 1.175h-.126c-.06.061-.184.123-.246.186h-.124c-.186.123-.308.31-.5.371a3.225 3.225 0 00-1.979 1.485 2.646 2.646 0 00-.248.618.793.793 0 00-.06.741.763.763 0 01-.186 1.052 1.288 1.288 0 01-.805.186c-.123-.061-.247 0-.37-.061-.31-.187-.435-.557-.744-.805-.123-.061-.247-.061-.37-.184a.23.23 0 00-.063-.187c.063 0 .063-.061.063-.123-.123-.186 0-.308-.063-.5a2.868 2.868 0 01-.186-.68 3.758 3.758 0 01.186-2.846c.186-1.609 1.856-2.289 3.156-2.846.146-.942.228-1.893.247-2.846a6.89 6.89 0 00.248-1.916c-.063-.124-.186-.187-.248-.31-.061-.061.123-.123.063-.247 0-.061-.063-.061-.124-.061a7.521 7.521 0 00-2.29 2.35c-.123.184-.31.31-.433.494 0 .061-.06.124-.06.186-.344.386-.654.8-.928 1.238-.063.061-.186.123-.186.184s-.063.124-.063.187c-.061.123-.187.123-.247.247a6.688 6.688 0 01-.5.928 34.545 34.545 0 00-2.227 3.031c0 .061-.06.184-.06.246a7.742 7.742 0 00-.805 1.362c-.123.184-.186.494-.308.68a5.878 5.878 0 01-1.238 1.237h-.123c-.5-.247-.681-.68-.991-1.114v-.123a1.378 1.378 0 01-.308-.68c.063-.371.557-.187.8-.248.433-.123.618-.557.928-.865.618-.867 1.051-1.795 1.609-2.723.308-.433.493-.8.8-1.237.122-.106.226-.232.308-.371.164-.322.35-.632.558-.928.68-.927 1.3-1.793 1.979-2.659a9.955 9.955 0 01-1.424-.247c-.06-.061-.123-.061-.186-.124-.928-.31-2.165-.865-2.1-2.04a8.3 8.3 0 00.991.557c.308.061.618.061.927.123a2.77 2.77 0 00.99-.186c1.3-.557 2.6-1.175 3.834-1.793.618-.557 1.362-.991 1.982-1.609.06-.061 0-.123-.063-.123a7.27 7.27 0 00-1.114-.31c-.63.18-1.27.325-1.916.433-.063.063-.126.063-.187.124a1.624 1.624 0 00-.741.186 3.14 3.14 0 00-.991.308c-.123.063-.308 0-.5 0 .433-.618 1.238-.8 1.795-1.3h.124c.433-.371.928-.557 1.3-.928-.308-.557-1.174-.867-1.051-1.546 0-.061.25-.123.373-.186.678-.433 1.424.124 2.1.063.685.418 1.333.895 1.936 1.424.06 0 .123.063.186.063.177.158.324.346.433.557.06.186-.063.371 0 .557v.308l-.063.061c.232.176.51.284.8.31.063 0 .063.124.124.124.123 0 .248.123.371.123 0 .187.247.248.186.434a2.488 2.488 0 01-1.175.928c-.659.441-1.28.938-1.856 1.484-.123.063-.186.124-.31.186a5.957 5.957 0 00-.615.365z" fill="none" stroke="#231815" stroke-width=".45"/><path d="M139.703 10.539c.137.331.544.773-.067.939-.137.054-.205.165-.341.221-.689.312-1.393.588-2.11.828a24.364 24.364 0 00-4.353 2.981c-.953.883-1.566 1.821-2.451 2.761v.11c-.067 0-.135 0-.135.054v.166c-.2.166-.137.387-.272.607-.068.056-.068.11-.135.166-.274.733-.48 1.491-.613 2.262a.239.239 0 00-.068.166c0 .939-.748 2.1.476 2.595.38.12.79.101 1.157-.054a23.535 23.535 0 003.675-1.6c.443-.243.854-.54 1.224-.883.81-.79 1.54-1.66 2.177-2.595 1.565-2.153 3.266-3.975 4.83-6.128a.489.489 0 00.068-.441c.135 0 .135-.056.2-.11v-.11c.2-.166.409-.056.613-.166a.287.287 0 01.2.056c.137-.112.272-.056.409-.056.883.11.476.994.748 1.491 0 .938-.272 1.821-.341 2.759a4.763 4.763 0 00.409 2.54c.153.179.337.329.544.441.369.066.733.159 1.089.276a3.239 3.239 0 011.565.883c.2.331-.272.441-.613.607v.11c-.2 0-.135.166-.272.221a.25.25 0 01-.135-.054c-.26.1-.545.119-.816.054a2.343 2.343 0 01-.749-.221.877.877 0 00-.544.056 11.02 11.02 0 00-1.224.5l-.068-.056c-.272.11-.476.332-.816.332a23.723 23.723 0 00-2.518 1.711c-.067.054-.2.054-.272.11a24.403 24.403 0 013.883-3.153 5.559 5.559 0 01-1.837-1.766 3.482 3.482 0 01-.272-.773 2.942 2.942 0 010-.773 3.37 3.37 0 010-1.435c0-.11.068-.276-.068-.387a10.953 10.953 0 00-2.04 2.484v.165a.502.502 0 01-.272.222c.068 0 .068.054.068.11-.205.387-.546.772-.749 1.158a1.035 1.035 0 01-.272.276v.11c-.067 0-.135 0-.135.056-.068.331-.341.5-.477.772-.272.276-.339.553-.68.773v.11c-.068.11-.137.166-.2.276-1.361 1.436-3.4 2.043-5.171 2.981-.953.276-2.042.717-2.994.331a2.566 2.566 0 01-1.77-.828 3.411 3.411 0 01-.885-1.657 7.09 7.09 0 01-.135-2.925 12.999 12.999 0 015.784-8.5 4.335 4.335 0 01-1.778-1.322 1.732 1.732 0 01-.408-1.1l.068.054c.135 0 .067-.11.067-.166.2.056.341 0 .544.056.272.056.476.11.749.166.611.11 1.224.165 1.837.221a46.663 46.663 0 004.762-.5c.068 0 .068.11.137.11.613-.056.883.441 1.224.773.231.127.42.319.544.551M163.749 14.072c-.408.5-.748.883-1.089 1.324-.272.332-.409.609-.613.883a.694.694 0 01-.135.332v.165c0 .056-.137.056-.137.11a1.382 1.382 0 01-.135.5c0 .11-.205.276-.341.387l.068.056c-.038.194-.107.38-.205.551-.135.11-.2.276-.339.332-.068 0-.137.054-.205.054-.224.15-.48.245-.748.276a4.279 4.279 0 01-2.585-.828c-.681.054-.681.828-1.157 1.158a17.446 17.446 0 01-1.292 2.43c.067.607-.341 1.158-.137 1.766.477.262 1.028.36 1.566.276.543-.054 1.156-.11 1.7-.165 1.194-.166 2.401-.221 3.606-.166.2.054.476.054.68.11.068.056.137.056.205.11a3.955 3.955 0 012.244 1.324.498.498 0 010 .442c-.067.165-.272.275-.476.387a3.87 3.87 0 01-1.157.221.247.247 0 00-.135-.056c-.137.11-.341.056-.476.056-.068 0-.068-.056-.137-.056q-.068.056-.135.056a1.443 1.443 0 00-.681-.056c-1.5.11-3.062.332-4.558.332a11.518 11.518 0 01-1.361-.166 3.917 3.917 0 01-.885-.387c-.408-.276-.816-.5-1.156-.773-.068-.11-.274-.221-.341-.331a1.188 1.188 0 00-.341-.441h-.137a2.265 2.265 0 00-.272-.387 3.984 3.984 0 01-.272-.829 2.47 2.47 0 01.068-.994c.137-.5.137-.938.272-1.435.027-.196.096-.383.2-.551a13.338 13.338 0 012.11-3.037v-.11c.272-.276.476-.553.748-.828-.476-.939-.748-1.877-1.157-2.816a25.97 25.97 0 00-1.429-2.7 7.804 7.804 0 00-2.109-1.545c0-.056.272 0 .272-.11l-.068-.056.068-.054-.068-.056c.249-.028.5-.028.749 0 .203-.028.408-.028.611 0 .137.056.341.056.477.11a8.944 8.944 0 012.857 1.767 22.089 22.089 0 012.246 3.2 30.55 30.55 0 015.585-3.26 1.16 1.16 0 01.613 0c.272.221.2.553.272.883.2.663-.2 1.27-.341 1.933 0 .054-.135.054-.135.11a.896.896 0 01-.272.551M182.982 18.196c.012-.286.059-.569.14-.844.208-.677.278-1.352.416-2.028.07-.452-.138-.844.07-1.3-.208-.677.138-1.3-.07-1.971-.07-.282-.07-.62-.138-.9a3.152 3.152 0 00-.348-1.128l-.208-.338a4.14 4.14 0 00-.763-1.41.943.943 0 00-.765-.225l.07.057a1.58 1.58 0 01-.555.113c.345.118.345.343.345.574a8.149 8.149 0 01-.14 2.592c-.278 1.8-.555 3.491-.971 5.294a11.748 11.748 0 01-.486 1.634c-.417.9-.833 1.8-1.319 2.7-.278.675-.9 1.3-1.181 1.969-.21.322-.395.66-.553 1.011-.068.056-.138.167-.208.225a15.404 15.404 0 01-1.319 2.254v.225a9.427 9.427 0 00-1.389 1.407c0 .057 0 .114.07.057a3.78 3.78 0 01.971-.733h.138a4.01 4.01 0 01.557-.449c.164.009.329-.01.486-.057a8.105 8.105 0 011.179-.789h.14c.138-.17.416-.281.555-.452a12.887 12.887 0 011.8-2.026c.46-.51.878-1.056 1.249-1.634.417-.167.555-.564.833-.844.07-.167.14-.282.209-.449v-.17c.206-.409.438-.805.694-1.184.278-.336.278-.787.486-1.182m-6.387-3.043c-.177.144-.208.452-.348.62-.208.338-.278.734-.486 1.072v.167c-.07.057-.14.17-.208.225v.114a.365.365 0 00-.14.338.135.135 0 01-.138.113 6.745 6.745 0 00-1.181.282.659.659 0 01-.555-.17c-.208-.057-.486 0-.694-.112a2.266 2.266 0 01-.9-.62 3.127 3.127 0 01-.348-.675 4.917 4.917 0 01.9-2.874 3.23 3.23 0 00.278-.846 30.006 30.006 0 001.326-5.347.714.714 0 00-.138-.507c.338-.013.673.064.971.225a4.578 4.578 0 011.874 2.139c.208.677.208 1.407.416 2.085a10.825 10.825 0 001.736-1.633c.07.167-.07.392-.07.562-.068.169-.068.282-.138.451-.07.056-.07.113-.14.169v.166a8.055 8.055 0 00-.624 1.015s-.14 0-.14.054c-.1.247-.24.476-.416.677v.174a1.183 1.183 0 00-.278.336 5.937 5.937 0 01-.348 1.578c-.07.057-.138.17-.208.225M203.86 10.182c0-.07 0-.138-.064-.138l.064-.068a.685.685 0 01.2-.688c.066.138.2 0 .261.138l.066-.068c.261 0 .521.343.782.068l-.066-.068.066-.07c.13 0 .2.138.261.138.2-.068.455-.207.65-.068a.227.227 0 00.2-.07c.2-.137.456.207.652 0 0 .07.13.07.13.07.181-.859.2-1.745.056-2.611-.325 0-.586.276-.911.413-.782.275-1.5.55-2.28.825-.847.275-1.759 0-2.671.207-.064.068-.2.068-.26.137-.2.276-.522.345-.586.688 0 .07.2.138.26.207h.131c.341.334.646.703.911 1.1.131.345.066.756.2 1.17.066.207-.064.343-.13.55 0 .207.066.343-.066.55l.066.068a.365.365 0 01-.13.275l.064.07c.066.207-.2.412 0 .618-.13.379-.13.791 0 1.17.456-.345.652-.963 1.107-1.306a3.29 3.29 0 00.588-.756c.064-.413.14-.761.2-1.17.016-.469.104-.933.26-1.375m1.043 5.089c.037-.271.177-.518.391-.688v-.142c.066-.137.2 0 .261-.068.13-.137.13-.343.2-.55.391-.655.718-1.346.977-2.063.066-.207.131-.482.066-.55a1.99 1.99 0 00-.913-.07c-.134.748-.33 1.484-.586 2.2v.138a.673.673 0 01-.26.343h-.131c-.2.138-.325.275-.521.413h-.131c-.391.412-.846.618-1.237 1.031a1.836 1.836 0 00-1.108.756c-.13.205.066.48-.064.687-.066.138-.2.138-.327.343h-.13c-.2-.068-.327-.343-.456-.412-.325-.068-.521.275-.716.482h-.131c-.325.413-.847.55-1.238.893l.066.07-.066.068c.066.137.066.412.131.343a41.45 41.45 0 016.188-2.681c0-.275-.261-.345-.261-.55m-.325 5.362l-.066-.068.066-.068c-.706.159-1.426.251-2.149.275.13.413.13.825.26 1.238 0 .068-.066.068-.066.137 0 .138.131.207.066.345a2.336 2.336 0 001.172-.345c.129-.171.239-.355.327-.55a5.96 5.96 0 00.391-.963m-11.938-1.993c-.261.137-.521.343-.847.55-.455.275-.782.688-1.237.963-.261.068-.456.275-.717.343.066.207.261.275.391.413h.2c.2.068.327.343.522.275.586-.345 1.172-.688 1.759-1.1a.45.45 0 010-.137 8.64 8.64 0 00-.066-1.306m2.151.962c-.456.207-.913.482-.717 1.1h.13c.064-.172.152-.334.261-.482.134-.193.244-.401.327-.62m-2.085 6.258a8.842 8.842 0 01-3.518 2.406c-.325-.343-.846-.412-1.237-.618-.066-.068-.131-.138-.066-.207l.066-.068c-.066-.068-.066-.207-.2-.275.13-.068.064-.345.13-.413a13.773 13.773 0 011.756-1.237c.456-.275.717-.687 1.108-.962a8.452 8.452 0 001.954-1.858c.325-.482.13-1.031.066-1.581 0-.068-.066-.137-.131-.068-.13.138-.325.207-.456.343a8.78 8.78 0 00-1.107 1.513 1.893 1.893 0 01-.652.825c-.064.07-.2-.068-.26.07a2.535 2.535 0 00-.717-.756v-.138c-.13-.207-.325-.412-.261-.688-.02-.304.025-.609.134-.894.106-.142.174-.307.2-.482 0-.068-.066-.138-.131-.068-.2.137-.325.275-.521.413a.473.473 0 01-.642-.188l-.01-.019a1.413 1.413 0 00-.26-.413v-.137c-.066-.07-.066-.207-.2-.276l.064-.068c-.064-.207-.2-.343-.2-.55-.064-.137.261-.137.261-.343h.13c.391-.345.782-.62 1.108-.963 0 .137.2.207.13.343 0 .068.066.068.13.068a6.691 6.691 0 011.043-.412c.782-.343 1.563-.825 2.346-1.17.086-.313.108-.64.064-.962a.246.246 0 01-.064-.138c.13-.275 0-.482 0-.756l.064-.068a.265.265 0 01-.064-.207c-.066-.138-.261-.138-.392-.207-.455-.137-1.041 0-1.5-.207-.325.275-.456.688-.716.963v.141c-.131.207-.261.343-.391.55-.2.343-.588.412-.783.756a10.222 10.222 0 01-1.759 2.338c-.13.068-.325.138-.456-.068l-.064.068a1.006 1.006 0 01-.131-.413c0-.068-.13-.068-.13-.137v-.207a1.861 1.861 0 01.13-1.926c.261.276.2.756.522.963.391-.55.782-1.031 1.172-1.581v-.137c.2-.207.261-.482.456-.688a1.25 1.25 0 00.391-.62c.395-.711.829-1.4 1.3-2.063v-.135c.066 0 .131 0 .131-.068.064-.207.2-.345.26-.551.113-.153.244-.291.391-.412.261-.55.586-.963.847-1.513a21.04 21.04 0 011.574-2.89c0-.07 0-.276.066-.345.261-.207.521-.55.847-.275 0-.068.064-.068.13-.068.327.207.717.137 1.043.343s.717.275.977.62c.065.201.065.417 0 .618-.064.138-.325.207-.521.275-.131.138-.327.207-.391.343a8.44 8.44 0 01-.522.826c-.064.137.2.137.327.207h.521c.586-.207 1.172.205 1.759.275.099.018.19.065.261.137.325.275.456.688.847.756 0 .068 0 .138.064.138.2-.551-.2-1.1-.064-1.651 0-.068.064-.068.064-.137l-.064-.07.064-.068c-.064 0-.13-.068-.064-.137a.438.438 0 00.064-.276c.222.081.44.173.652.276a14.695 14.695 0 011.694-1.1 4.083 4.083 0 011.3-.893 13.376 13.376 0 013.257-1.238c.194-.034.392-.034.586 0 .2 0 .391-.068.521 0 .066.068.131.068.2.138.451.065.865.284 1.174.618.064 0 .2.068.26.068.261.343.652.482.913.895v.137c.066.07.13.207.2.275-.066 0-.13 0-.13.068.064.138.064.276-.066.345.13.275-.066.62-.131.893l.066.07c-.2.412-.2.825-.391 1.237 0 0-.13 0-.13.07.011.208-.012.417-.066.618a6.721 6.721 0 00-.325.756 1.418 1.418 0 00-.131.756.265.265 0 00-.064.207 17.308 17.308 0 00-.586 1.719c0 .068-.2.137-.2.205s-.066.138-.066.207-.13.138-.2.207v.137c-.131 0-.131.07-.2.138a.49.49 0 00.261.138c.2-.138.455 0 .586-.207.455.275.911.068 1.368.207.292.144.597.259.911.343.261.618.977.688 1.368 1.1.066.138.066.275.131.413a.262.262 0 01-.066.207c.132.307.132.655 0 .962 0 .138.131.345-.066.482l.066.07-.066.068.066.068c0 .068-.13.068-.13.138 0 .207-.066.412-.066.618-.13.688-.2 1.376-.325 2.131l.064.07c-.2.137.066.343 0 .482-.13.205.066.343 0 .482a3.236 3.236 0 00-.2.755s.131.07.066.138c-.13.068 0 .275-.13.343l.064.068c-.13.551-.521.826-.782 1.308v.137c-.13.138-.13.343-.26.55 0 0-.131 0-.131.07a2.938 2.938 0 01-.847 1.168v.138a.142.142 0 01-.13.137.38.38 0 01-.261-.068c-.13 0-.2.207-.325.275-.261.137-.586-.138-.847 0-.064 0 0-.207-.13-.207-.066 0-.066.068-.131.138-.13-.207-.13-.413-.389-.482-.2-.068.194 0 .064-.138l-.2-.205v-.138a5.364 5.364 0 00-.911-.825h-.131c-.064 0-.064-.138-.13-.138a1.138 1.138 0 01-.977-.756l.066-.068c-.131-.137-.392-.207-.327-.482.066.068.2.207.327.138.064-.07.064-.138.2-.207a1.818 1.818 0 00-.456-.55 2.46 2.46 0 01-1.368.275h-.327c-.26 0-.391.343-.65.343-.066 0-.066-.137-.131-.137h-.13a8.915 8.915 0 01-.847-1.308 7.349 7.349 0 01-.456-1.718 5.517 5.517 0 01.131-1.788c0-.07.13-.138.2-.207.064-.275.064-.55.325-.688.261.275.522.481.782.756.06.104.083.226.066.345.003.072.059.13.13.137a13.91 13.91 0 002.345-.963c.333-.131.61-.374.783-.687.391 0 .846-.07 1.107.205.2.276.391.413.586.688 0 .07.066.138.066.207a.701.701 0 01.26.482c0 .068-.13.068-.13.137 0 .207-.13.276-.13.482l.064.068c-.325.483-.911.758-1.107 1.308.261.137.586.137.782.412.222.399.17.894-.13 1.238a.49.49 0 01-.327.138c-.523.012-1.046.058-1.563.137-.064.07-.261.138-.261.207.382.494.872.895 1.433 1.17a2.232 2.232 0 011.629.205 5.804 5.804 0 001.629-3.439c.197-1.597.264-3.207.2-4.814-.325-.756-1.172-.756-1.888-.688-.464.083-.921.198-1.369.345l-.586.205a14.663 14.663 0 01-3.778 1.033c-.2.068-.456.137-.652.205a2.067 2.067 0 00-.65.07 3.712 3.712 0 01-1.174.55.144.144 0 00-.13.137c0 .138.13.207.13.276.066.962.131 1.993.2 2.956-.022.462.023.925.131 1.375a5.93 5.93 0 01.066 2.133.539.539 0 01-.131.275v.137c-.2.07-.2.207-.2.345-.13-.207-.325.068-.456 0a3.132 3.132 0 01-.977-.895c-.2-.275 0-.618-.13-.893 0-.138-.066-.275.066-.413l-.066-.068.066-.07-.066-.068c.066 0 .066-.068.066-.137l-.066-.068c.066 0 .066-.07.066-.138-.131-.138-.066-.275-.066-.413.066-1.443.2-2.888.391-4.4.024-.424.112-.841.261-1.238.064.07.2.207.325.138a23.075 23.075 0 001.817-1.79 12.675 12.675 0 01-1.366-4.949c0-.068 0-.205-.066-.205-.13.137-.066.412-.261.55s-.455.068-.65.068a1.835 1.835 0 01-.847-.137c-.391-.276-.716-.482-1.108-.756a3.531 3.531 0 00-1.563-.688c-.066-.068-.2.068-.261.137v.131c-.064.138-.26.207-.391.343a5.938 5.938 0 01-1.107 1.448 9.212 9.212 0 00-1.043 1.238c-.066.068 0 .137.066.137a7.987 7.987 0 012.475-1.031 1.907 1.907 0 011.5.207c.261.138.717.55.522.963l.064.068c-.13.068-.13.207-.2.345-.167.191-.4.313-.652.343a1.477 1.477 0 01-1.043.343c-.2.275-.26.825.131.963.2.068.391-.068.521 0 .261.177.546.316.847.413a.487.487 0 01.456.275.789.789 0 010 .55h-.2c-.066 0-.066.068-.066.137a5.452 5.452 0 00-.977.345c-.261.068-.521.207-.782.275-.261.137-.2.412-.327.618l.066.068c0 .07-.13.138-.13.138.13.275-.2.618.064.895.225-.135.471-.23.728-.281.066-.068.2-.137.261-.205a6.66 6.66 0 011.172.068c.325.068.325.413.13.618a1.918 1.918 0 00-.586.688c-.597.91-1.25 1.783-1.954 2.613 0 .07-.131.138-.066.275s.2.068.261.068c.336-.083.663-.198.977-.343.586-.412.716-1.168 1.172-1.788.066-.068.131 0 .131.07a.366.366 0 01-.131.275c-.066.275.131.55.066.893-.066.138.066.343.13.55 0 .07.066.07.131.07-.066.137 0 .343-.066.48-.2.207-.586.275-.847.413a6.333 6.333 0 00-1.368.688c-.316.213-.621.442-.913.687-.2.275-.521.413-.716.688"/></svg>