<?xml version="1.0" encoding="UTF-8"?><svg id="a" xmlns="http://www.w3.org/2000/svg" width="170" height="124" viewBox="0 0 170 124"><g id="b"><path id="c" d="M152.147,65.481c.071.084.11.19.11.3q0,.166-.47,1.438c-.5,1.34-.852,2.731-1.051,4.147.028.293-.187.552-.48.579-.007,0-.013.001-.02.002-.609.126-1.23.182-1.852.166-.277,0-.415-.056-.5-.221-.432-1.294-.738-2.628-.913-3.981-.192-1.346-.284-2.704-.276-4.064.08-3.905.534-7.793,1.355-11.611.138-.713.238-1.433.3-2.157,1.023.101,2.023.371,2.958.8.415.221.581.415.581.664-.01.191-.078.374-.194.525-1.133,1.935-2.184,7.907-2.184,12.33,0,.663.028,1.714.111,3.041.664-1.714.968-2.488,1.576-3.815.166.682.487,1.316.94,1.852M156.782,58.205c-1.327,0-1.6-.056-1.686-.359-.116-.582-.171-1.175-.166-1.769,0-.221,0-.442.028-.94.746.055,1.189.083,2.1.083,1.493,0,2.433-.028,3.871-.138-.028-3.511-.055-3.953-.332-5.253,1.098-.003,2.192.117,3.263.359.415.111.58.249.58.526-.01.144-.047.285-.11.415-.36,1.181-.519,2.415-.47,3.649,1.023-.139,1.908-.332,3.566-.719.086-.04.181-.059.276-.055.166,0,.249.083.3.277.086.623.132,1.251.138,1.88,0,.691-.027.8-.3.912-1.307.382-2.651.623-4.009.719,0,1.908.166,5.059.359,6.856,1.461.591,2.852,1.342,4.147,2.239.774.553.94.747.94.94-.224.745-.591,1.44-1.078,2.046-.332.47-.5.608-.691.608s-.193,0-.829-.608c-.751-.712-1.576-1.343-2.46-1.88v.221c0,2.433-2.018,4.036-5.087,4.036-3.124,0-5.169-1.659-5.169-4.147s2.1-4.341,4.893-4.341c.768-.018,1.535.028,2.295.138q-.111-2.156-.194-5.861c-1.189.083-3.069.166-4.174.166M159.05,66.333c-1.382,0-2.294.636-2.294,1.6,0,.885.857,1.437,2.184,1.437,1.465,0,2.239-.664,2.239-1.935,0-.387-.027-.691-.027-.691-.667-.273-1.38-.413-2.1-.415" fill="#fff" stroke-width="0"/><path id="d" d="M20.678,108.242c-.913-.089-1.83-.127-2.747-.117h-7.54c-.868-.012-1.736.027-2.6.117v-2.279c-1.686,1.117-3.465,2.085-5.319,2.893-.377-1.032-.931-1.992-1.636-2.835,2.607-1.001,5.042-2.401,7.218-4.15,1.703-1.266,3.151-2.843,4.267-4.647h3.478c1.325,1.902,2.966,3.562,4.851,4.91,2.134,1.623,4.524,2.877,7.072,3.712-.741.922-1.306,1.973-1.666,3.1-1.875-.824-3.675-1.812-5.377-2.952v2.248ZM25.032,112.684c-.263.292-.877.993-1.227,1.432l-5.407,6.839c-.731.935-1.2,1.607-1.783,2.484l-3.215-1.783c.769-.715,1.482-1.486,2.134-2.309l4.618-5.67H7.527c-1.111,0-2.25.059-3.478.175v-3.186c1.165.12,2.336.179,3.507.175h12.8c.967.043,1.935-.006,2.893-.146l1.783,1.989ZM18.132,105.436c.7,0,1.052,0,1.636-.029-2.165-1.467-4.071-3.284-5.64-5.377-1.557,2.062-3.42,3.875-5.523,5.377.613.029.935.029,1.636.029h7.891Z" fill="#fff" stroke-width="0"/><path id="e" d="M37.102,108.125c0-.547-.03-1.093-.088-1.636.651.064,1.304.093,1.958.088h6.166v-3.653h-5.9c-1.279,2.053-2.843,3.913-4.647,5.524-.571-.922-1.258-1.767-2.046-2.513,2.399-1.825,4.282-4.242,5.465-7.014.301-.654.527-1.341.673-2.046l3.331.672c-.087.175-.5,1.052-1.227,2.6h13.123c.967.024,1.934-.024,2.893-.146v3.069c-.96-.117-1.926-.166-2.893-.146h-5.669v3.653h4.469c.966.015,1.932-.024,2.893-.117v2.952c-.932-.093-1.869-.131-2.806-.117h-4.559v4.588h6.459c1.036.013,2.072-.045,3.1-.175v3.185c-1.028-.127-2.064-.185-3.1-.175h-6.459v3.478c-.036,1.007.023,2.014.175,3.01h-3.449c.138-1.007.197-2.023.175-3.039v-3.449h-9.439c-1.026-.009-2.051.049-3.069.175v-3.185c1.018.129,2.043.187,3.069.175h1.4l.002-5.758ZM45.138,109.294h-5.085v4.588h5.085v-4.588Z" fill="#fff" stroke-width="0"/><path id="f" d="M76.241,101.353h-7.732l-.248,3.851c-.031.621-.093,1.335-.186,2.081.912-.989,2.195-1.552,3.54-1.553,3.882,0,6.241,2.981,6.241,7.949,0,5.466-2.639,8.757-6.987,8.757-1.815.042-3.567-.666-4.844-1.957-.838-.892-1.436-1.981-1.739-3.167l3.447-1.335c.127.829.446,1.617.932,2.3.521.689,1.336,1.092,2.2,1.087,2.111,0,3.261-1.957,3.261-5.62,0-3.2-1.087-4.907-3.105-4.907-1.491,0-2.36.807-3.229,2.888l-2.826-.5.745-12.98h10.527l.003,3.106Z" fill="#fff" stroke-width="0"/><path id="g" d="M94.22,118.837c-.889,2.268-3.125,3.716-5.558,3.6-4.751,0-6.863-3.851-6.863-12.514-.124-2.851.309-5.698,1.273-8.384.804-2.347,3.082-3.864,5.558-3.7,2.919,0,4.751,1.3,5.838,4.192.794,2.583,1.151,5.28,1.056,7.98,0,4.1-.4,6.832-1.3,8.819M91.057,117.184c.536-2.193.766-4.451.683-6.707,0-3.509-.373-6.614-.963-7.981-.287-.924-1.143-1.554-2.111-1.553-1.056,0-1.677.5-2.174,1.708-.685,2.284-.979,4.667-.869,7.049,0,7.049.807,9.626,3.012,9.626,1.18,0,1.987-.714,2.422-2.143" fill="#fff" stroke-width="0"/><path id="h" d="M122.441,98.13c.985.02,1.971-.019,2.952-.117-.088,1.081-.117,1.7-.117,3.185v18.587c0,2.367-.847,2.922-4.472,2.922-.614,0-1.812-.029-3.068-.088-.114-1.062-.401-2.099-.848-3.069,1.358.172,2.724.269,4.092.292,1.169,0,1.315-.058,1.315-.672v-18.321h-15.806v3.185c0,7.306-.351,11.485-1.169,14.35-.459,1.712-1.19,3.34-2.163,4.822-.71-.948-1.557-1.785-2.513-2.484.906-1.252,1.553-2.673,1.9-4.179.672-2.63.964-6.926.964-13.648.037-1.628-.012-3.257-.146-4.88.991.094,1.986.133,2.981.117l16.098-.002ZM112.855,105.553h-2.718c-.722-.01-1.443.02-2.162.088v-2.659c.717.09,1.439.129,2.162.117h2.689c.025-.568-.004-1.137-.087-1.7h3.127c-.08.563-.119,1.131-.117,1.7h2.806c.713.01,1.426-.029,2.133-.117v2.659c-.709-.067-1.421-.096-2.133-.088h-2.806v1.929h3.448c.849.02,1.699-.019,2.543-.117v2.776c-.844-.094-1.694-.133-2.543-.117h-9.644c-.839-.017-1.679.022-2.513.117v-2.776c.843.1,1.693.139,2.542.117h3.273v-1.929ZM119.898,117.097c-.011.615.018,1.23.087,1.841-.672-.029-1.315-.058-2.1-.058h-6.666v1.666h-3.04c.116-.734.165-1.478.146-2.221v-5.026c.016-.626-.024-1.252-.117-1.871,1.023.058,1.11.058,2.075.058h7.54c.721.019,1.444,0,2.163-.058-.068.65-.097,1.304-.087,1.958v3.711ZM111.189,116.337h5.845v-2.4h-5.845v2.4Z" fill="#fff" stroke-width="0"/><path id="i" d="M137.431,108.125c0-.547-.03-1.093-.088-1.636.651.064,1.304.093,1.958.088h6.166v-3.653h-5.9c-1.279,2.053-2.843,3.913-4.647,5.524-.571-.922-1.258-1.767-2.046-2.513,2.399-1.825,4.282-4.242,5.465-7.014.301-.654.527-1.341.673-2.046l3.331.672c-.087.175-.5,1.052-1.227,2.6h13.122c.967.024,1.934-.024,2.893-.146v3.069c-.96-.117-1.926-.166-2.893-.146h-5.669v3.653h4.472c.966.015,1.932-.024,2.893-.117v2.952c-.932-.092-1.869-.131-2.806-.117h-4.559v4.588h6.459c1.036.013,2.072-.045,3.1-.175v3.185c-1.028-.127-2.064-.185-3.1-.175h-6.459v3.478c-.036,1.007.023,2.014.175,3.01h-3.456c.138-1.007.197-2.023.175-3.039v-3.449h-9.439c-1.026-.009-2.051.049-3.069.175v-3.185c1.018.129,2.043.187,3.069.175h1.4l.007-5.758ZM145.467,109.294h-5.085v4.588h5.085v-4.588Z" fill="#fff" stroke-width="0"/><path id="j" d="M169.754,119.231c0,1.275-1.034,2.309-2.309,2.309-1.275,0-2.309-1.034-2.309-2.309,0-1.275,1.034-2.309,2.309-2.309h0c1.27-.005,2.304,1.021,2.309,2.291v.018M168.731,115.14h-2.6l-.789-16.57h4.208l-.819,16.57Z" fill="#fff" stroke-width="0"/><path id="k" d="M5.635,10.988c-1.32.167-2.65.25-3.981.249-.857,0-1-.359-1.189-2.82h1.078c1.368-.005,2.734-.088,4.092-.249v-.58c.021-1.575-.108-3.149-.387-4.7,1.181.006,2.357.136,3.511.387.242.036.413.257.387.5-.004.196-.062.387-.166.553-.345,1.099-.485,2.251-.415,3.4.912-.166,2.377-.525,3.483-.857.062-.021.128-.031.194-.028.193-.013.367.113.415.3.158.682.258,1.375.3,2.074-.001.226-.145.427-.359.5-.332.138-2.35.553-4.119.857v3.566c2.145-.803,4.403-1.26,6.691-1.354,2.998-.222,5.608,2.029,5.829,5.027.018.25.02.501.004.751.129,2.022-.843,3.956-2.543,5.059-1.047.552-2.217.827-3.4.8-.95.067-1.905-.035-2.82-.3-.3-.166-.332-.249-.388-.912-.056-.772-.243-1.53-.553-2.239,1.005.388,2.074.585,3.152.581,2.156,0,3.373-1.106,3.373-3.069.138-1.557-1.013-2.932-2.571-3.069-.146-.013-.293-.014-.439-.005-2.193.109-4.343.644-6.331,1.576q0,.111.028,1.189.027,1.825.027,2.212c.028.5.028,1,.028,1.244,0,2.239-.857,3.317-2.682,3.317-1.835-.053-3.549-.925-4.672-2.377-.435-.572-.669-1.272-.664-1.991,0-1.8,1.6-3.428,5.087-5.225v-4.367ZM5.635,18.397c-1.6.968-2.267,1.6-2.267,2.184,0,.636.913,1.327,1.742,1.327.387,0,.525-.249.525-.885v-2.626ZM21.061,12.121c-1.43-1.507-3.204-2.645-5.17-3.317-.221-.083-.332-.193-.332-.332.253-.609.609-1.17,1.051-1.659.3-.415.332-.442.608-.442.704.171,1.39.412,2.046.719,1.742.8,4.009,2.516,4.009,3.041,0,.5-1.382,2.239-1.8,2.239-.138,0-.249-.055-.415-.249" fill="#fff" stroke-width="0"/><path id="l" d="M32.151,11.926c-.174.043-.342.108-.5.194-.105.074-.231.112-.359.11-.581,0-1.023-1.078-1.355-3.124.174.021.35.03.525.028,1.978-.098,3.946-.338,5.889-.719.497-1.824.794-3.697.885-5.585.002-.157-.007-.314-.027-.47,1.057.105,2.098.337,3.1.691.442.166.664.415.664.691-.005.162-.063.317-.166.442q-.415.746-1.272,3.787c.624-.08,1.251-.126,1.88-.138.931-.053,1.857.178,2.654.663,1.106.8,1.659,2.433,1.659,4.949,0,4.119-.746,7.631-2.018,9.372-.83,1.198-2.222,1.88-3.677,1.8-.75.038-1.5-.064-2.212-.3q-.221-.138-.3-1.161c-.08-.745-.276-1.472-.581-2.156.849.359,1.76.547,2.682.553,1.327,0,1.88-.636,2.488-2.848.449-1.761.663-3.574.636-5.391,0-2.156-.525-2.931-1.991-2.931-.648.006-1.295.062-1.935.166-.083.3-.11.332-.221.718-.945,3.269-2.147,6.458-3.594,9.538-1.465,3.013-1.825,3.622-2.184,3.622-.636-.205-1.233-.514-1.769-.913-.636-.387-.8-.553-.8-.774q0-.138,1.133-1.935c1.809-3.032,3.22-6.284,4.2-9.676-2.046.442-3.18.719-3.428.8M46.257,8.829c0-.194.249-.442,1.05-1.078.553-.415.83-.581,1.023-.581.166,0,.3.083.664.442,1.638,1.599,3.002,3.458,4.036,5.5.199.365.347.756.442,1.161,0,.276-.083.359-.968,1.078-.407.365-.888.638-1.41.8-.194,0-.276-.083-.47-.553-.468-1.197-1.051-2.345-1.742-3.428-.706-1.1-1.541-2.112-2.488-3.013-.079-.094-.128-.21-.138-.332" fill="#fff" stroke-width="0"/><path id="m" d="M61.678,3.687v-.387c1.153.14,2.28.448,3.345.913.166.052.27.215.249.387-.018.159-.075.31-.166.442-.373.826-.624,1.702-.747,2.6-.553,2.608-.821,5.268-.8,7.934-.012,1.293.062,2.586.221,3.87l1.465-2.958c.131.526.377,1.017.719,1.438.221.276.249.359.249.581s0,.221-.525,1.382c-.553,1.191-.962,2.444-1.216,3.732-.083.442-.166.581-.3.636-.557.162-1.134.245-1.714.249-.387,0-.525-.083-.608-.332-.792-2.769-1.201-5.634-1.216-8.515.065-3.055.332-6.103.8-9.123.14-.841.223-1.691.249-2.543l-.005-.306ZM71.105,11.511c-1.548,0-1.991-.055-2.129-.249-.278-.77-.4-1.587-.359-2.405v-.415c1.129.118,2.264.173,3.4.166,1.078,0,1.686-.027,2.792-.11.052-1.842-.143-3.683-.58-5.474h.746c.926-.01,1.852.064,2.765.221.233.016.413.209.415.442-.008.141-.036.281-.083.415-.164.556-.238,1.135-.221,1.714,0,.415.027,1.714.027,2.046v.276c1.091-.145,2.164-.395,3.207-.746.108-.032.219-.051.332-.056.166,0,.249.083.3.249.146.654.22,1.321.221,1.991,0,.442-.083.636-.3.718-1.209.311-2.438.542-3.677.691.027.774.027,1.189.027,1.631,0,4.064-.5,6.967-1.6,9.151-1,1.963-3.152,4.258-4.036,4.258-.249,0-.36-.056-.664-.332-.616-.618-1.349-1.106-2.156-1.437,1.695-.841,3.101-2.17,4.036-3.815.99-2.039,1.474-4.286,1.41-6.552,0-.193,0-.664-.027-1.327-.028-.276-.028-.691-.055-1.244-1,.083-3.235.193-3.788.193M81.475,5.788c-.237.154-.499.267-.774.332-.166,0-.221-.055-.3-.276-.387-.934-.888-1.816-1.493-2.626-.388-.47-.388-.5-.388-.581,0-.194.968-.857,1.272-.857.166,0,.553.387,1.023,1.051.572.687,1.029,1.462,1.354,2.295,0,.166-.166.332-.691.663M82.418.564c.194,0,.525.359,1.106,1.161.507.626.9,1.337,1.161,2.1,0,.166-.249.387-.719.663-.202.134-.427.228-.664.277q-.193,0-.553-.774c-.358-.785-.803-1.527-1.327-2.212-.221-.3-.249-.359-.249-.442.301-.407.746-.684,1.244-.774" fill="#fff" stroke-width="0"/><path id="n" d="M102.128,2.831c.142,1.287.48,2.546,1,3.732,2.158-.535,4.26-1.276,6.276-2.212.106-.045.218-.073.332-.083.276,0,.47.5.884,2.294.027.138.027.166.056.276.019.034.028.072.027.111,0,.193-.111.3-.387.415-1.94.777-3.936,1.406-5.971,1.88,1.259,2.495,3.146,4.619,5.474,6.165.129.062.214.189.221.332-.225.821-.59,1.597-1.078,2.295-.249.359-.415.5-.664.5-.193,0-.249-.028-.608-.3-.92-.576-1.916-1.023-2.958-1.327-1.151-.324-2.343-.483-3.539-.47-3.263,0-4.921.912-4.921,2.682.022,1.023.687,1.921,1.659,2.24,2.068.763,4.267,1.103,6.469,1,.74.009,1.479-.037,2.212-.138-.477.933-.848,1.916-1.106,2.931-.138.415-.359.525-1.106.525-1.876-.006-3.747-.201-5.584-.581-3.677-.912-5.778-2.986-5.778-5.75.002-1.33.517-2.607,1.438-3.566,1.656-1.391,3.787-2.085,5.944-1.935,1.467-.048,2.927.216,4.285.774-1.367-1.378-2.505-2.964-3.373-4.7-1.686.3-3.1.5-4.727.664-.968.083-3.1.221-3.511.221-.387,0-.5-.083-.636-.553-.22-.862-.368-1.74-.443-2.626.912.028,1.355.056,1.852.056,2.073-.034,4.141-.201,6.193-.5-.249-.553-.719-1.742-1-2.488-.253-.789-.588-1.549-1-2.267,1.106-.195,2.223-.315,3.345-.359.525,0,.719.138.719.47l.004.292Z" fill="#fff" stroke-width="0"/><path id="o" d="M127.232,11.954q-.056-1.355-.083-3.069c-.202.02-.405.03-.608.028-1.724.015-3.446-.133-5.142-.442-.276-.083-.332-.138-.332-.415.021-.817.114-1.632.276-2.433,1.686.322,3.398.49,5.115.5.138,0,.387,0,.691-.028v-1.824c0-.968-.028-1.41-.083-2.378,1.003.028,2.002.139,2.986.332.553.111.719.249.719.553,0,.138-.028.193-.221.636-.273.799-.386,1.645-.332,2.488,1.451-.157,2.885-.444,4.285-.857.044-.018.091-.028.138-.028.194,0,.194.028.5.912.178.493.308,1.003.387,1.521,0,.193-.083.3-.359.387-1.652.431-3.334.736-5.032.912,0,1.963,0,2.046.028,3.014,1.774-.21,3.513-.657,5.169-1.327.086-.046.18-.074.277-.083.166,0,.221.083.5.747.247.557.423,1.142.525,1.742,0,.138-.11.249-.3.332-1.958.664-3.976,1.136-6.026,1.41.055,1.05.11,1.631.276,3.787,1.174.316,2.306.77,3.373,1.354,1.157.56,2.243,1.256,3.234,2.074.187.108.302.309.3.525-.168.54-.43,1.045-.774,1.493-.608.912-.912,1.272-1.106,1.272-.095,0-.185-.041-.249-.111-1.329-1.345-2.882-2.449-4.589-3.262.016,1.043-.405,2.046-1.161,2.765-1.26,1.021-2.861,1.525-4.479,1.41-3.4,0-5.5-1.493-5.5-3.9-.001-1.046.429-2.046,1.189-2.765,1.347-1.09,3.054-1.633,4.783-1.521.647.006,1.294.052,1.935.138-.138-1.8-.193-2.433-.221-3.014-.636.028-1,.028-1.327.028-1.865,0-3.722-.232-5.529-.691-.276-.083-.387-.221-.387-.442.073-.821.212-1.634.415-2.433,1.95.444,3.944.667,5.944.664h.8-.005ZM125.324,20.386c-1.769,0-2.737.525-2.737,1.465,0,.829.8,1.272,2.35,1.272,1.8,0,2.626-.636,2.626-2.018v-.47c-.73-.193-1.484-.276-2.239-.249" fill="#fff" stroke-width="0"/><path id="p" d="M149.544,9.241c-.669.152-1.325.356-1.963.608-.226.106-.47.171-.719.193-.608,0-1.161-1.134-1.659-3.511,1.837-.091,3.665-.304,5.474-.636,3.318-.5,7.52-1.133,9.731-1.41,2.489-.332,4.479-.663,5.529-.885.134-.042.274-.061.414-.055.36,0,.5.166.747.857.215.578.345,1.184.387,1.8,0,.332-.11.442-.5.442-.546.002-1.092.049-1.631.138-4.672.774-8.4,4.866-8.4,9.178,0,3.234,2.543,5.363,6.856,5.75.388.027.526.166.526.5-.048.898-.226,1.784-.53,2.631-.114.291-.407.471-.718.442-.695-.064-1.381-.203-2.046-.415-4.7-1.382-7.16-4.368-7.16-8.6-.007-2.271.764-4.476,2.184-6.248.842-1.046,1.862-1.935,3.014-2.626-3.622.608-7.437,1.327-9.539,1.852M163.696,9.965c1.113.814,2.045,1.849,2.737,3.041,0,.139-.166.3-.664.747-.525.442-.552.442-.774.525q-.138.055-.193.055c-.11,0-.138-.028-.636-.8-.518-.8-1.121-1.542-1.8-2.211-.06-.064-.107-.139-.139-.221.055-.138.083-.221.11-.221.208-.208.43-.402.664-.581.165-.077.323-.169.47-.276.016-.032.047-.054.083-.056h.138l.004-.002ZM168.424,11.873c-.415.3-.664.47-.8.47-.11,0-.165-.056-.3-.277-.595-.962-1.31-1.845-2.128-2.626-.054-.064-.092-.14-.111-.221,0-.138.166-.3.553-.581.25-.209.542-.36.857-.442.193,0,.525.249,1.105.829.642.598,1.167,1.31,1.548,2.1,0,.166-.193.359-.718.747" fill="#fff" stroke-width="0"/><path id="q" d="M58.839,45.635l1.115-2.327h-5.6l1.16,2.327v24.521l-1.126,2.334h5.564l-1.115-2.334.002-24.521Z" fill="#fff" stroke-width="0"/><path id="r" d="M22.485,51.47c1.388-3.667,4.336-6.525,8.044-7.8,4.014-1.564,8.468-1.564,12.482,0,3.702,1.284,6.647,4.139,8.045,7.8,1.638,4.164,1.638,8.793,0,12.957-.697,1.816-1.78,3.459-3.175,4.814-1.383,1.329-3.048,2.331-4.87,2.931-4.031,1.471-8.451,1.471-12.482,0-1.824-.603-3.492-1.604-4.881-2.931-1.388-1.359-2.467-3.001-3.163-4.814-1.639-4.164-1.639-8.793,0-12.957M47.29,51.813c-.499-1.577-1.32-3.034-2.412-4.276-.996-1.102-2.235-1.958-3.618-2.5-2.857-1.273-6.121-1.273-8.978,0-1.383.542-2.622,1.398-3.618,2.5-1.1,1.237-1.923,2.695-2.412,4.276-1.29,3.99-1.29,8.285,0,12.275.49,1.582,1.312,3.041,2.412,4.279.996,1.102,2.235,1.958,3.618,2.5,2.858,1.27,6.12,1.27,8.978,0,1.383-.542,2.621-1.398,3.618-2.5,1.092-1.244,1.913-2.701,2.412-4.279,1.275-3.992,1.275-8.283,0-12.275" fill="#fff" stroke-width="0"/><path id="s" d="M12.791,43.308l1.65,2.327v24.16c-.002,1.244-.17,2.482-.5,3.681-2.569,7.52-13.025,7.773-13.025,7.773h-.107s-.562,0-.562.319c-.002.192.152.35.344.352.005,0,.009,0,.014,0h0c.006,0,.056.007.072.007h0c15.353.716,17.185-8.872,17.356-12.222v-24.07l1.7-2.327h-6.942Z" fill="#fff" stroke-width="0"/><path id="t" d="M87.104,72.49l-.011-26.472.728-2.656h-3.323l.728,2.664v19.153l-20.72-22.063c-.111-.081-.251-.113-.387-.088-.056.008-.109.026-.159.052,0,.008-.011.015-.023.021-.083.063-.14.155-.159.258v25.836l-.728,3.29h3.641l-.717-3.285v-18.721l21.13,22.011Z" fill="#fff" stroke-width="0"/><path id="u" d="M95.16,60.563v-14.527l.853-2.728h-5.12l.865,2.728v15.177c0,13.647,12.858,11.635,12.858,11.635,8.8-.663,10.173-7.313,10.343-10.25h.011v-16.63l.74-2.66h-3.323l.751,2.66v15.365c0,9.99-8.659,9.509-8.659,9.509-5.371,0-7.692-2.617-8.67-5.2-.45-1.656-.669-3.367-.649-5.083" fill="#fff" stroke-width="0"/><path id="v" d="M130.104,56.74l-4.449-1.948c-1.685-.581-3.09-1.774-3.937-3.342-.541-1.305-.524-2.775.046-4.068.057-.128.124-.251.2-.368.102-.186.216-.366.341-.538.467-.621,1.07-1.126,1.764-1.475,4.961-2.369,8.17,2.537,8.17,2.537l.6-3.76c-1.571-.514-3.192-.858-4.836-1.028-.906-.093-1.821-.062-2.719.093-3.908.661-6.783,4.024-6.827,7.988.07,2.304,1.198,4.446,3.056,5.809,1.577,1.134,3.309,2.036,5.143,2.676.307.115.6.229.865.353,1.013.47,3.618,1.935,3.8,4.543.011.13.011.261,0,.391-.364,6.826-6.451,6.522-6.451,6.522-3.846.3-6.338-3.3-6.338-3.3l-.193,3.9c2.207.804,4.554,1.157,6.9,1.039,8.466-.184,9.069-8.41,9.069-8.41.487-3.198-1.236-6.324-4.2-7.62" fill="#fff" stroke-width="0"/></g></svg>