<?xml version="1.0" encoding="UTF-8"?><svg id="a" xmlns="http://www.w3.org/2000/svg" width="750" height="66" viewBox="0 0 750 66"><g id="b"><path id="c" d="M471.381,37.907c.102.119.157.27.155.426q0,.232-.658,2.011c-.7,1.874-1.193,3.819-1.47,5.8.038.41-.264.772-.674.81-.009,0-.018.001-.026.002-.852.177-1.722.255-2.592.233-.387,0-.58-.077-.7-.31-.605-1.811-1.033-3.677-1.277-5.571-.269-1.884-.398-3.784-.387-5.687,0-4.449.5-8.666,1.9-16.248.196-.997.338-2.004.426-3.017,1.432.142,2.831.521,4.139,1.122.58.309.812.58.812.928-.014.267-.109.523-.271.735-1.586,2.708-3.056,11.064-3.056,17.254,0,.928.039,2.4.155,4.255.928-2.4,1.354-3.481,2.2-5.338.232.954.682,1.841,1.315,2.592M477.873,27.73c-1.857,0-2.244-.077-2.36-.5-.162-.815-.239-1.645-.232-2.476,0-.309,0-.619.039-1.315,1.044.077,1.663.117,2.94.117,2.089,0,3.4-.039,5.415-.193-.039-4.913-.077-5.532-.464-7.35,1.536-.005,3.067.162,4.565.5.58.155.812.348.812.735-.014.202-.067.399-.154.581-.504,1.653-.727,3.379-.658,5.106,1.432-.193,2.669-.464,4.991-1.005.121-.056.253-.082.386-.077.232,0,.348.116.425.387.121.872.185,1.751.193,2.631,0,.967-.039,1.122-.426,1.276-.619.31-2.321.58-5.609,1.006,0,2.669.232,7.079.5,9.594,2.043.827,3.988,1.878,5.8,3.133,1.083.774,1.315,1.045,1.315,1.316-.31,1.042-.819,2.015-1.497,2.865-.464.657-.7.851-.967.851s-.271,0-1.161-.851c-1.051-.997-2.205-1.879-3.443-2.631v.31c0,3.4-2.824,5.648-7.118,5.648-4.371,0-7.234-2.321-7.234-5.8s2.94-6.074,6.847-6.074c1.074-.025,2.148.04,3.211.194q-.155-3.017-.271-8.2c-1.663.116-4.294.232-5.841.232M481.053,39.106c-1.934,0-3.211.889-3.211,2.243,0,1.238,1.2,2.012,3.056,2.012,2.05,0,3.133-.929,3.133-2.708,0-.542-.039-.967-.039-.967-.933-.381-1.932-.578-2.94-.58" fill="#00a44f" stroke-width="0"/><path id="d" d="M471.381,37.907c.102.119.157.27.155.426q0,.232-.658,2.011c-.7,1.874-1.193,3.819-1.47,5.8.038.41-.264.772-.674.81-.009,0-.018.001-.026.002-.852.177-1.722.255-2.592.233-.387,0-.58-.077-.7-.31-.605-1.811-1.033-3.677-1.277-5.571-.269-1.884-.398-3.784-.387-5.687,0-4.449.5-8.666,1.9-16.248.196-.997.338-2.004.426-3.017,1.432.142,2.831.521,4.139,1.122.58.309.812.58.812.928-.014.267-.109.523-.271.735-1.586,2.708-3.056,11.064-3.056,17.254,0,.928.039,2.4.155,4.255.928-2.4,1.354-3.481,2.2-5.338.234.956.687,1.844,1.324,2.595ZM477.881,27.733c-1.857,0-2.244-.077-2.36-.5-.162-.815-.239-1.645-.232-2.476,0-.309,0-.619.039-1.315,1.044.077,1.663.117,2.94.117,2.089,0,3.4-.039,5.415-.193-.039-4.913-.077-5.532-.464-7.35,1.536-.005,3.067.162,4.565.5.58.155.812.348.812.735-.014.202-.067.399-.154.581-.504,1.653-.727,3.379-.658,5.106,1.432-.193,2.669-.464,4.991-1.005.121-.056.253-.082.386-.077.232,0,.348.116.425.387.121.872.185,1.751.193,2.631,0,.967-.039,1.122-.426,1.276-.619.31-2.321.58-5.609,1.006,0,2.669.232,7.079.5,9.594,2.043.827,3.988,1.878,5.8,3.133,1.083.774,1.315,1.045,1.315,1.316-.313,1.042-.825,2.014-1.506,2.862-.464.657-.7.851-.967.851s-.271,0-1.161-.851c-1.051-.997-2.205-1.879-3.443-2.631v.31c0,3.4-2.824,5.648-7.118,5.648-4.371,0-7.234-2.321-7.234-5.8s2.94-6.074,6.847-6.074c1.074-.025,2.148.04,3.211.194q-.155-3.017-.271-8.2c-1.659.108-4.289.224-5.837.224h0ZM481.053,39.106c-1.934,0-3.211.889-3.211,2.243,0,1.238,1.2,2.012,3.056,2.012,2.05,0,3.133-.929,3.133-2.708,0-.542-.039-.967-.039-.967-.933-.381-1.931-.578-2.939-.58Z" fill="none" stroke="#00a44f" stroke-linecap="round" stroke-linejoin="round" stroke-width="10"/><path id="e" d="M530.611,28.738c-1.208-.117-2.422-.168-3.636-.154h-9.981c-1.15-.016-2.299.035-3.443.154v-3.017c-2.231,1.479-4.587,2.761-7.041,3.83-.499-1.368-1.232-2.638-2.166-3.755,3.451-1.325,6.674-3.178,9.555-5.494,2.863-2.359,4.681-4.332,5.648-6.15h4.6c1.753,2.517,3.925,4.716,6.421,6.5,2.825,2.148,5.989,3.808,9.362,4.913-.98,1.22-1.728,2.61-2.205,4.1-2.483-1.091-4.865-2.398-7.118-3.907l.004,2.98ZM536.376,34.619c-.348.387-1.161,1.315-1.625,1.9l-7.157,9.052c-.967,1.238-1.586,2.128-2.36,3.288l-4.256-2.359c1.017-.946,1.961-1.968,2.824-3.056l6.112-7.505h-16.712c-1.47,0-2.978.078-4.6.233v-4.223c1.542.159,3.092.237,4.642.232h16.944c1.28.057,2.562-.008,3.83-.193l2.358,2.631ZM527.246,25.025c.929,0,1.393,0,2.167-.039-2.866-1.942-5.389-4.348-7.466-7.118-2.062,2.73-4.527,5.13-7.312,7.118.813.039,1.238.039,2.167.039h10.444Z" fill="#00a44f" stroke-width="0"/><path id="f" d="M530.611,28.738c-1.208-.117-2.422-.168-3.636-.154h-9.981c-1.15-.016-2.299.035-3.443.154v-3.017c-2.231,1.479-4.587,2.761-7.041,3.83-.499-1.368-1.232-2.638-2.166-3.755,3.451-1.325,6.674-3.178,9.555-5.494,2.863-2.359,4.681-4.332,5.648-6.15h4.6c1.753,2.517,3.925,4.716,6.421,6.5,2.825,2.148,5.989,3.808,9.362,4.913-.98,1.22-1.728,2.61-2.205,4.1-2.483-1.091-4.865-2.398-7.118-3.907l.004,2.98ZM536.376,34.619c-.348.387-1.161,1.315-1.625,1.9l-7.157,9.052c-.967,1.238-1.586,2.128-2.36,3.288l-4.256-2.359c1.017-.946,1.961-1.968,2.824-3.056l6.112-7.505h-16.712c-1.47,0-2.978.078-4.6.233v-4.223c1.542.159,3.092.237,4.642.232h16.944c1.28.057,2.562-.008,3.83-.193l2.358,2.631ZM527.246,25.025c.929,0,1.393,0,2.167-.039-2.866-1.942-5.389-4.348-7.466-7.118-2.062,2.73-4.527,5.13-7.312,7.118.813.039,1.238.039,2.167.039h10.444Z" fill="none" stroke="#00a44f" stroke-linecap="round" stroke-linejoin="round" stroke-width="10"/><path id="g" d="M556.225,28.58c0-.724-.039-1.447-.116-2.167.861.085,1.727.123,2.592.116h8.163v-4.832h-7.814c-1.692,2.717-3.764,5.179-6.151,7.312-.755-1.221-1.666-2.339-2.708-3.327,3.791-3.211,5.687-5.648,7.234-9.285.399-.866.697-1.774.89-2.708l4.41.889c-.116.233-.658,1.393-1.625,3.443h17.37c1.28.032,2.56-.033,3.83-.193v4.062c-1.27-.155-2.55-.22-3.83-.194h-7.5v4.836h5.919c1.279.02,2.557-.032,3.83-.155v3.907c-1.234-.122-2.474-.174-3.714-.155h-6.035v6.074h8.55c1.37.017,2.74-.06,4.1-.232v4.217c-1.36-.168-2.73-.246-4.1-.232h-8.55v4.6c-.047,1.332.031,2.666.232,3.984h-4.565c.184-1.333.261-2.678.233-4.023v-4.56h-12.5c-1.358-.013-2.715.065-4.062.232v-4.216c1.347.171,2.704.248,4.062.232h1.857l-.002-7.625ZM566.865,30.127h-6.731v6.074h6.731v-6.074Z" fill="#00a44f" stroke-width="0"/><path id="h" d="M556.225,28.58c0-.724-.039-1.447-.116-2.167.861.085,1.727.123,2.592.116h8.163v-4.832h-7.814c-1.692,2.717-3.764,5.179-6.151,7.312-.755-1.221-1.666-2.339-2.708-3.327,3.791-3.211,5.687-5.648,7.234-9.285.399-.866.697-1.774.89-2.708l4.41.889c-.116.233-.658,1.393-1.625,3.443h17.37c1.28.032,2.56-.033,3.83-.193v4.062c-1.27-.155-2.55-.22-3.83-.194h-7.5v4.836h5.919c1.279.02,2.557-.032,3.83-.155v3.907c-1.234-.122-2.474-.174-3.714-.155h-6.035v6.074h8.55c1.37.017,2.74-.06,4.1-.232v4.217c-1.36-.168-2.73-.246-4.1-.232h-8.55v4.6c-.047,1.332.031,2.666.232,3.984h-4.565c.184-1.333.261-2.678.233-4.023v-4.56h-12.5c-1.358-.013-2.715.065-4.062.232v-4.216c1.347.171,2.704.248,4.062.232h1.857l-.002-7.625ZM566.865,30.127h-6.731v6.074h6.731v-6.074Z" fill="none" stroke="#00a44f" stroke-linecap="round" stroke-linejoin="round" stroke-width="10"/><path id="i" d="M610.507,19.887h-10l-.321,4.98c-.04.8-.12,1.726-.241,2.69,1.179-1.278,2.839-2.006,4.578-2.007,5.02,0,8.072,3.855,8.072,10.28,0,7.068-3.414,11.324-9.036,11.324-2.347.054-4.613-.861-6.265-2.53-1.084-1.155-1.857-2.565-2.248-4.1l4.457-1.727c.163,1.071.574,2.088,1.2,2.972.674.893,1.732,1.415,2.851,1.406,2.731,0,4.216-2.53,4.216-7.268,0-4.137-1.405-6.345-4.016-6.345-1.927,0-3.052,1.044-4.176,3.735l-3.654-.643.964-16.786h13.613l.006,4.019Z" fill="#00a44f" stroke-width="0"/><path id="j" d="M610.507,19.887h-10l-.321,4.98c-.04.8-.12,1.726-.241,2.69,1.179-1.278,2.839-2.006,4.578-2.007,5.02,0,8.072,3.855,8.072,10.28,0,7.068-3.414,11.324-9.036,11.324-2.347.054-4.613-.861-6.265-2.53-1.084-1.155-1.857-2.565-2.248-4.1l4.457-1.727c.163,1.071.574,2.088,1.2,2.972.674.893,1.732,1.415,2.851,1.406,2.731,0,4.216-2.53,4.216-7.268,0-4.137-1.405-6.345-4.016-6.345-1.927,0-3.052,1.044-4.176,3.735l-3.654-.643.964-16.786h13.613l.006,4.019Z" fill="none" stroke="#00a44f" stroke-linecap="round" stroke-linejoin="round" stroke-width="10"/><path id="k" d="M633.757,42.496c-1.149,2.934-4.041,4.808-7.188,4.658-6.144,0-8.875-4.979-8.875-16.183,0-4.618.563-8.393,1.647-10.842,1.446-3.293,3.654-4.779,7.188-4.779,3.775,0,6.144,1.687,7.55,5.421,1.027,3.34,1.488,6.829,1.365,10.321,0,5.3-.522,8.835-1.687,11.405M629.657,40.369c.693-2.837.991-5.756.884-8.674,0-4.538-.482-8.554-1.245-10.32-.371-1.196-1.479-2.01-2.731-2.008-1.366,0-2.168.643-2.811,2.209-.723,1.686-1.125,5.1-1.125,9.116,0,9.116,1.044,12.449,3.9,12.449,1.526,0,2.57-.923,3.132-2.77" fill="#00a44f" stroke-width="0"/><path id="l" d="M633.757,42.496c-1.149,2.934-4.041,4.808-7.188,4.658-6.144,0-8.875-4.979-8.875-16.183,0-4.618.563-8.393,1.647-10.842,1.446-3.293,3.654-4.779,7.188-4.779,3.775,0,6.144,1.687,7.55,5.421,1.027,3.34,1.488,6.829,1.365,10.321,0,5.299-.522,8.834-1.687,11.404ZM629.657,40.368c.693-2.837.991-5.756.884-8.674,0-4.538-.482-8.554-1.245-10.32-.371-1.196-1.479-2.01-2.731-2.008-1.366,0-2.168.643-2.811,2.209-.723,1.686-1.125,5.1-1.125,9.116,0,9.116,1.044,12.449,3.9,12.449,1.526-.001,2.569-.926,3.128-2.773h0Z" fill="none" stroke="#00a44f" stroke-linecap="round" stroke-linejoin="round" stroke-width="10"/><path id="m" d="M674.395,15.353c1.305.026,2.609-.025,3.908-.154-.117,1.431-.155,2.243-.155,4.217v24.6c0,3.134-1.122,3.869-5.919,3.869-.812,0-2.4-.039-4.062-.117-.149-1.405-.527-2.777-1.118-4.06,1.797.227,3.605.356,5.416.386,1.547,0,1.74-.077,1.74-.889v-24.253h-20.929v4.216c0,9.672-.464,15.2-1.547,18.995-.608,2.267-1.574,4.422-2.863,6.383-.94-1.255-2.061-2.363-3.327-3.288,1.199-1.657,2.052-3.539,2.51-5.532.89-3.482,1.277-9.169,1.277-18.066.048-2.155-.017-4.312-.194-6.46,1.312.124,2.629.175,3.946.154h21.317ZM661.706,25.179h-3.6c-.956-.013-1.911.026-2.863.117v-3.521c.949.12,1.906.171,2.863.155h3.559c.033-.75-.006-1.501-.116-2.244h4.14c-.106.743-.158,1.493-.155,2.244h3.714c.944.014,1.887-.038,2.824-.155v3.521c-.939-.089-1.881-.128-2.824-.117h-3.714v2.553h4.565c1.124.026,2.249-.026,3.366-.155v3.675c-1.118-.124-2.242-.176-3.366-.155h-12.766c-1.111-.022-2.223.03-3.327.155v-3.674c1.117.133,2.242.185,3.366.155h4.333v-2.554ZM671.029,40.46c-.014.814.024,1.628.116,2.437-.89-.038-1.741-.077-2.785-.077h-8.82v2.205h-4.024c.154-.972.219-1.956.194-2.94v-6.654c.021-.828-.031-1.657-.155-2.476,1.354.078,1.47.078,2.747.078h9.981c.955.025,1.91-.001,2.862-.078-.091.861-.129,1.726-.116,2.592v4.913ZM659.502,39.455h7.737v-3.173h-7.737v3.173Z" fill="#00a44f" stroke-width="0"/><path id="n" d="M674.395,15.353c1.305.026,2.609-.025,3.908-.154-.117,1.431-.155,2.243-.155,4.217v24.6c0,3.134-1.122,3.869-5.919,3.869-.812,0-2.4-.039-4.062-.117-.149-1.405-.527-2.777-1.118-4.06,1.797.227,3.605.356,5.416.386,1.547,0,1.74-.077,1.74-.889v-24.253h-20.929v4.216c0,9.672-.464,15.2-1.547,18.995-.608,2.267-1.574,4.422-2.863,6.383-.94-1.255-2.061-2.363-3.327-3.288,1.199-1.657,2.052-3.539,2.51-5.532.89-3.482,1.277-9.169,1.277-18.066.048-2.155-.017-4.312-.194-6.46,1.312.124,2.629.175,3.946.154h21.317ZM661.706,25.179h-3.6c-.956-.013-1.911.026-2.863.117v-3.521c.949.12,1.906.171,2.863.155h3.559c.033-.75-.006-1.501-.116-2.244h4.14c-.106.743-.158,1.493-.155,2.244h3.714c.944.014,1.887-.038,2.824-.155v3.521c-.939-.089-1.881-.128-2.824-.117h-3.714v2.553h4.565c1.124.026,2.249-.026,3.366-.155v3.675c-1.118-.124-2.242-.176-3.366-.155h-12.766c-1.111-.022-2.223.03-3.327.155v-3.674c1.117.133,2.242.185,3.366.155h4.333v-2.554ZM671.029,40.46c-.014.814.024,1.628.116,2.437-.89-.038-1.741-.077-2.785-.077h-8.82v2.205h-4.024c.154-.972.219-1.956.194-2.94v-6.654c.021-.828-.031-1.657-.155-2.476,1.354.078,1.47.078,2.747.078h9.981c.955.025,1.91-.001,2.862-.078-.091.861-.129,1.726-.116,2.592v4.913ZM659.502,39.455h7.737v-3.173h-7.737v3.173Z" fill="none" stroke="#00a44f" stroke-linecap="round" stroke-linejoin="round" stroke-width="10"/><path id="o" d="M697.338,28.58c0-.724-.039-1.447-.117-2.167.861.085,1.727.123,2.592.116h8.163v-4.832h-7.816c-1.692,2.717-3.764,5.179-6.151,7.312-.755-1.221-1.666-2.339-2.708-3.327,3.791-3.211,5.687-5.648,7.234-9.285.398-.866.697-1.774.89-2.708l4.41.889c-.116.233-.658,1.393-1.624,3.443h17.369c1.28.032,2.56-.033,3.83-.193v4.062c-1.27-.155-2.55-.22-3.83-.194h-7.505v4.836h5.919c1.279.02,2.557-.032,3.83-.155v3.907c-1.234-.122-2.474-.174-3.714-.155h-6.035v6.074h8.55c1.37.017,2.74-.06,4.1-.232v4.217c-1.36-.168-2.73-.246-4.1-.232h-8.55v4.6c-.047,1.332.031,2.666.232,3.984h-4.565c.183-1.333.26-2.678.232-4.023v-4.56h-12.5c-1.358-.013-2.715.065-4.062.232v-4.216c1.347.171,2.704.248,4.062.232h1.857l.007-7.625ZM707.975,30.127h-6.731v6.074h6.731v-6.074Z" fill="#00a44f" stroke-width="0"/><path id="p" d="M697.338,28.58c0-.724-.039-1.447-.117-2.167.861.085,1.727.123,2.592.116h8.163v-4.832h-7.816c-1.692,2.717-3.764,5.179-6.151,7.312-.755-1.221-1.666-2.339-2.708-3.327,3.791-3.211,5.687-5.648,7.234-9.285.398-.866.697-1.774.89-2.708l4.41.889c-.116.233-.658,1.393-1.624,3.443h17.369c1.28.032,2.56-.033,3.83-.193v4.062c-1.27-.155-2.55-.22-3.83-.194h-7.505v4.836h5.919c1.279.02,2.557-.032,3.83-.155v3.907c-1.234-.122-2.474-.174-3.714-.155h-6.035v6.074h8.55c1.37.017,2.74-.06,4.1-.232v4.217c-1.36-.168-2.73-.246-4.1-.232h-8.55v4.6c-.047,1.332.031,2.666.232,3.984h-4.565c.183-1.333.26-2.678.232-4.023v-4.56h-12.5c-1.358-.013-2.715.065-4.062.232v-4.216c1.347.171,2.704.248,4.062.232h1.857l.007-7.625ZM707.975,30.127h-6.731v6.074h6.731v-6.074Z" fill="none" stroke="#00a44f" stroke-linecap="round" stroke-linejoin="round" stroke-width="10"/><path id="q" d="M744.77,43.285c0,1.688-1.369,3.056-3.057,3.055s-3.056-1.369-3.055-3.057c0-1.687,1.369-3.055,3.056-3.055,1.678-.009,3.047,1.344,3.056,3.022,0,.012,0,.023,0,.035M743.416,37.869h-3.443l-1.045-21.935h5.571l-1.083,21.935Z" fill="#00a44f" stroke-width="0"/><path id="r" d="M744.77,43.285c0,1.688-1.369,3.056-3.057,3.055s-3.056-1.369-3.055-3.057c0-1.687,1.369-3.055,3.056-3.055,1.678-.009,3.047,1.344,3.056,3.022,0,.012,0,.023,0,.035ZM743.416,37.869h-3.443l-1.045-21.935h5.571l-1.083,21.935Z" fill="none" stroke="#00a44f" stroke-linecap="round" stroke-linejoin="round" stroke-width="10"/><path id="s" d="M12.464,28.484c-1.848.233-3.709.349-5.571.348-1.2,0-1.393-.5-1.664-3.947h1.509c1.914-.007,3.826-.123,5.726-.348v-.812c.03-2.205-.152-4.407-.542-6.577,1.652.009,3.299.191,4.913.542.339.05.578.359.541.7-.006.274-.086.541-.232.773-.348.736-.542,2.128-.58,4.758,1.276-.232,3.327-.735,4.874-1.2.087-.031.179-.047.272-.045.272-.021.519.16.58.426.223.953.365,1.923.426,2.9,0,.316-.201.597-.5.7-.464.193-3.288.774-5.764,1.2v4.991c3-1.125,6.16-1.767,9.362-1.9,4.952,0,8.163,3.172,8.163,8.085,0,3.172-1.277,5.725-3.559,7.079-1.464.773-3.102,1.16-4.758,1.122-1.33.091-2.666-.053-3.946-.426-.426-.232-.464-.348-.542-1.276-.078-1.081-.34-2.141-.774-3.134,1.407.542,2.902.818,4.41.812,3.018,0,4.72-1.548,4.72-4.294.184-2.18-1.435-4.097-3.616-4.28-.201-.017-.403-.018-.604-.005-3.068.151-6.077.899-8.859,2.2q0,.155.039,1.664.039,2.553.039,3.095c.039.7.039,1.393.039,1.741,0,3.133-1.2,4.642-3.753,4.642-2.568-.074-4.967-1.295-6.538-3.327-.609-.8-.935-1.78-.929-2.785,0-2.515,2.244-4.8,7.118-7.312v-6.11ZM12.464,38.851c-2.243,1.354-3.172,2.244-3.172,3.056,0,.89,1.277,1.857,2.437,1.857.542,0,.735-.348.735-1.238v-3.675ZM34.05,30.069c-2.001-2.109-4.483-3.702-7.234-4.642-.31-.117-.465-.272-.465-.465.354-.852.851-1.637,1.47-2.321.426-.58.464-.62.851-.62.985.239,1.944.576,2.862,1.006,2.437,1.122,5.609,3.521,5.609,4.256,0,.7-1.934,3.133-2.514,3.133-.194,0-.349-.077-.581-.348" fill="#00a44f" stroke-width="0"/><path id="t" d="M12.464,28.484c-1.848.233-3.709.349-5.571.348-1.2,0-1.393-.5-1.664-3.947h1.509c1.914-.007,3.826-.123,5.726-.348v-.812c.03-2.205-.152-4.407-.542-6.577,1.652.009,3.299.191,4.913.542.339.05.578.359.541.7-.006.274-.086.541-.232.773-.348.736-.542,2.128-.58,4.758,1.276-.232,3.327-.735,4.874-1.2.087-.031.179-.047.272-.045.272-.021.519.16.58.426.223.953.365,1.923.426,2.9,0,.316-.201.597-.5.7-.464.193-3.288.774-5.764,1.2v4.991c3-1.125,6.16-1.767,9.362-1.9,4.952,0,8.163,3.172,8.163,8.085,0,3.172-1.277,5.725-3.559,7.079-1.464.773-3.102,1.16-4.758,1.122-1.33.091-2.666-.053-3.946-.426-.426-.232-.464-.348-.542-1.276-.078-1.081-.34-2.141-.774-3.134,1.407.542,2.902.818,4.41.812,3.018,0,4.72-1.548,4.72-4.294.184-2.18-1.435-4.097-3.616-4.28-.201-.017-.403-.018-.604-.005-3.068.151-6.077.899-8.859,2.2q0,.155.039,1.664.039,2.553.039,3.095c.039.7.039,1.393.039,1.741,0,3.133-1.2,4.642-3.753,4.642-2.568-.074-4.967-1.295-6.538-3.327-.609-.8-.935-1.78-.929-2.785,0-2.515,2.244-4.8,7.118-7.312v-6.11ZM12.464,38.851c-2.243,1.354-3.172,2.244-3.172,3.056,0,.89,1.277,1.857,2.437,1.857.542,0,.735-.348.735-1.238v-3.675ZM34.05,30.069c-2.001-2.109-4.483-3.702-7.234-4.642-.31-.117-.465-.272-.465-.465.354-.852.851-1.637,1.47-2.321.426-.58.464-.62.851-.62.985.239,1.944.576,2.862,1.006,2.437,1.122,5.609,3.521,5.609,4.256,0,.7-1.934,3.133-2.514,3.133-.191.002-.346-.076-.578-.347h0Z" fill="none" stroke="#00a44f" stroke-linecap="round" stroke-linejoin="round" stroke-width="10"/><path id="u" d="M49.566,29.799c-.244.059-.479.15-.7.27-.146.103-.321.157-.5.155-.813,0-1.431-1.509-1.9-4.372.244.029.489.042.735.039,2.767-.137,5.521-.473,8.24-1.006.695-2.552,1.11-5.172,1.238-7.814.002-.22-.011-.439-.039-.657,1.478.147,2.933.472,4.333.967.619.232.929.58.929.967-.007.226-.089.444-.233.619q-.58,1.044-1.779,5.3c.873-.112,1.751-.177,2.631-.193,1.304-.075,2.599.249,3.714.929,1.548,1.122,2.321,3.4,2.321,6.924,0,5.765-1.045,10.677-2.824,13.115-1.162,1.675-3.11,2.626-5.145,2.514-1.051.052-2.102-.092-3.1-.426q-.31-.193-.426-1.624c-.108-1.042-.38-2.06-.804-3.018,1.188.502,2.463.765,3.753.774,1.857,0,2.63-.89,3.481-3.985.628-2.464.927-5.001.89-7.544,0-3.018-.735-4.1-2.786-4.1-.907.009-1.813.086-2.708.232-.116.426-.155.465-.31,1.006-1.322,4.575-3.004,9.037-5.029,13.347-2.05,4.216-2.553,5.068-3.056,5.068-.89-.287-1.726-.718-2.476-1.277-.89-.542-1.122-.774-1.122-1.083q0-.193,1.586-2.708c2.532-4.243,4.509-8.793,5.881-13.54-2.863.619-4.449,1.005-4.8,1.122M69.291,25.467c0-.271.348-.619,1.47-1.509.774-.58,1.161-.812,1.431-.812.232,0,.426.116.929.619,2.292,2.239,4.201,4.841,5.648,7.7.278.511.486,1.058.618,1.625,0,.386-.116.5-1.354,1.508-.57.511-1.243.894-1.974,1.122-.27,0-.386-.117-.658-.774-.654-1.676-1.47-3.283-2.437-4.8-.988-1.54-2.156-2.955-3.481-4.217-.111-.131-.178-.293-.193-.464" fill="#00a44f" stroke-width="0"/><path id="v" d="M49.566,29.799c-.244.059-.479.15-.7.27-.146.103-.321.157-.5.155-.813,0-1.431-1.509-1.9-4.372.244.029.489.042.735.039,2.767-.137,5.521-.473,8.24-1.006.695-2.552,1.11-5.172,1.238-7.814.002-.22-.011-.439-.039-.657,1.478.147,2.933.472,4.333.967.619.232.929.58.929.967-.007.226-.089.444-.233.619q-.58,1.044-1.779,5.3c.873-.112,1.751-.177,2.631-.193,1.304-.075,2.599.249,3.714.929,1.548,1.122,2.321,3.4,2.321,6.924,0,5.765-1.045,10.677-2.824,13.115-1.162,1.675-3.11,2.626-5.145,2.514-1.051.052-2.102-.092-3.1-.426q-.31-.193-.426-1.624c-.108-1.042-.38-2.06-.804-3.018,1.188.502,2.463.765,3.753.774,1.857,0,2.63-.89,3.481-3.985.628-2.464.927-5.001.89-7.544,0-3.018-.735-4.1-2.786-4.1-.907.009-1.813.086-2.708.232-.116.426-.155.465-.31,1.006-1.322,4.575-3.004,9.037-5.029,13.347-2.05,4.216-2.553,5.068-3.056,5.068-.89-.287-1.726-.718-2.476-1.277-.89-.542-1.122-.774-1.122-1.083q0-.193,1.586-2.708c2.532-4.243,4.509-8.793,5.881-13.54-2.861.618-4.447,1.005-4.795,1.121ZM69.296,25.466c0-.271.348-.619,1.47-1.509.774-.58,1.161-.812,1.431-.812.232,0,.426.116.929.619,2.292,2.239,4.201,4.841,5.648,7.7.278.511.486,1.058.618,1.625,0,.386-.116.5-1.354,1.508-.57.511-1.243.894-1.974,1.122-.27,0-.386-.117-.658-.774-.654-1.676-1.47-3.283-2.437-4.8-.988-1.54-2.156-2.955-3.481-4.217-.111-.13-.178-.292-.193-.462h0Z" fill="none" stroke="#00a44f" stroke-linecap="round" stroke-linejoin="round" stroke-width="10"/><path id="w" d="M90.884,18.27v-.542c1.614.196,3.191.626,4.681,1.277.232.072.379.301.348.542-.026.222-.105.435-.232.619-.348.619-.464,1.083-1.045,3.637-.775,3.649-1.152,7.372-1.125,11.102-.016,1.81.088,3.619.31,5.416l2.05-4.14c.184.736.527,1.423,1.006,2.012.31.387.348.5.348.813s0,.309-.735,1.934c-.774,1.666-1.344,3.42-1.7,5.222-.116.619-.232.812-.426.89-.78.226-1.588.343-2.4.348-.542,0-.735-.116-.851-.464-1.108-3.875-1.68-7.884-1.7-11.915.091-4.276.466-8.541,1.122-12.767.196-1.177.312-2.366.348-3.559v-.425ZM104.075,29.218c-2.166,0-2.785-.077-2.978-.348-.388-1.078-.558-2.222-.5-3.366v-.579c1.581.165,3.17.242,4.759.231,1.509,0,2.359-.038,3.907-.154-.116-4.024-.348-6.421-.812-7.66h1.045c1.296-.014,2.591.09,3.868.31.326.023.579.292.581.619-.012.198-.051.393-.116.58-.23.778-.335,1.589-.31,2.4,0,.58.039,2.4.039,2.862v.387c1.526-.203,3.028-.553,4.487-1.045.151-.045.307-.071.464-.077.232,0,.348.116.425.348.204.915.308,1.849.31,2.786,0,.619-.116.889-.426,1.006-1.692.435-3.411.758-5.146.967.039,1.083.039,1.664.039,2.282,0,5.687-.7,9.749-2.243,12.8-1.393,2.747-4.41,5.958-5.648,5.958-.349,0-.5-.077-.928-.464-.862-.865-1.888-1.549-3.018-2.012,2.372-1.177,4.339-3.036,5.648-5.338,1.385-2.853,2.062-5.998,1.973-9.169,0-.271,0-.928-.039-1.857-.039-.387-.039-.967-.077-1.74-1.393.116-4.526.27-5.3.27M118.587,21.208c-.332.216-.698.373-1.083.464-.232,0-.31-.077-.426-.386-.541-1.307-1.243-2.541-2.089-3.675-.542-.658-.542-.7-.542-.812,0-.271,1.354-1.2,1.78-1.2.232,0,.774.542,1.431,1.47.802.961,1.444,2.045,1.9,3.211,0,.233-.233.464-.968.929M119.906,13.897c.271,0,.735.5,1.547,1.624.71.877,1.26,1.872,1.625,2.94,0,.233-.348.542-1.006.929-.282.187-.597.319-.929.387q-.27,0-.774-1.083c-.5-1.1-1.123-2.14-1.857-3.1-.31-.426-.348-.5-.348-.619.421-.57,1.044-.957,1.741-1.083" fill="#00a44f" stroke-width="0"/><path id="x" d="M90.884,18.27v-.542c1.614.196,3.191.626,4.681,1.277.232.072.379.301.348.542-.026.222-.105.435-.232.619-.348.619-.464,1.083-1.045,3.637-.775,3.649-1.152,7.372-1.125,11.102-.016,1.81.088,3.619.31,5.416l2.05-4.14c.184.736.527,1.423,1.006,2.012.31.387.348.5.348.813s0,.309-.735,1.934c-.774,1.666-1.344,3.42-1.7,5.222-.116.619-.232.812-.426.89-.78.226-1.588.343-2.4.348-.542,0-.735-.116-.851-.464-1.108-3.875-1.68-7.884-1.7-11.915.091-4.276.466-8.541,1.122-12.767.196-1.177.312-2.366.348-3.559v-.425ZM104.075,29.218c-2.166,0-2.785-.077-2.978-.348-.388-1.078-.558-2.222-.5-3.366v-.579c1.581.165,3.17.242,4.759.231,1.509,0,2.359-.038,3.907-.154-.116-4.024-.348-6.421-.812-7.66h1.045c1.296-.014,2.591.09,3.868.31.326.023.579.292.581.619-.012.198-.051.393-.116.58-.23.778-.335,1.589-.31,2.4,0,.58.039,2.4.039,2.862v.387c1.526-.203,3.028-.553,4.487-1.045.151-.045.307-.071.464-.077.232,0,.348.116.425.348.204.915.308,1.849.31,2.786,0,.619-.116.889-.426,1.006-1.692.435-3.411.758-5.146.967.039,1.083.039,1.664.039,2.282,0,5.687-.7,9.749-2.243,12.8-1.393,2.747-4.41,5.958-5.648,5.958-.349,0-.5-.077-.928-.464-.862-.865-1.888-1.549-3.018-2.012,2.372-1.177,4.339-3.036,5.648-5.338,1.385-2.853,2.062-5.998,1.973-9.169,0-.271,0-.928-.039-1.857-.039-.387-.039-.967-.077-1.74-1.396.118-4.529.273-5.304.273ZM118.582,21.211c-.332.216-.698.373-1.083.464-.232,0-.31-.077-.426-.386-.541-1.307-1.243-2.541-2.089-3.675-.542-.658-.542-.7-.542-.812,0-.271,1.354-1.2,1.78-1.2.232,0,.774.542,1.431,1.47.802.961,1.444,2.045,1.9,3.211-.003.231-.236.462-.971.927h0ZM119.898,13.899c.271,0,.735.5,1.547,1.624.71.877,1.26,1.872,1.625,2.94,0,.233-.348.542-1.006.929-.282.187-.597.319-.929.387q-.27,0-.774-1.083c-.5-1.1-1.123-2.14-1.857-3.1-.31-.426-.348-.5-.348-.619.422-.568,1.045-.954,1.742-1.078Z" fill="none" stroke="#00a44f" stroke-linecap="round" stroke-linejoin="round" stroke-width="10"/><path id="y" d="M147.484,17.071c.197,1.801.667,3.563,1.393,5.223,3.019-.749,5.96-1.785,8.781-3.095.148-.063.305-.102.465-.117.387,0,.657.7,1.238,3.211.039.194.039.232.077.387.027.047.041.101.039.155,0,.271-.154.426-.541.58-2.715,1.088-5.509,1.967-8.357,2.631,2.012,3.753,4.874,7,7.66,8.627.18.086.299.264.31.464-.315,1.149-.826,2.235-1.509,3.211-.348.5-.58.7-.928.7-.271,0-.348-.038-.851-.426-1.288-.806-2.681-1.431-4.139-1.857-1.611-.454-3.278-.675-4.952-.658-4.565,0-6.886,1.277-6.886,3.752,0,1.393.735,2.36,2.321,3.134,1.818.889,5.145,1.392,9.053,1.392,1.035.013,2.07-.052,3.095-.193-.667,1.305-1.186,2.68-1.547,4.1-.194.58-.5.735-1.548.735-2.625-.008-5.243-.28-7.814-.812-5.147-1.279-8.087-4.18-8.087-8.049.002-1.86.723-3.648,2.011-4.99,1.78-1.741,4.643-2.709,8.318-2.709,2.054-.067,4.099.302,6,1.083-1.912-1.928-3.506-4.147-4.72-6.576-2.359.426-4.333.7-6.615.929-1.354.116-4.333.31-4.913.31-.542,0-.7-.116-.89-.773-.308-1.206-.515-2.436-.619-3.676,1.276.039,1.9.077,2.592.077,2.9-.048,5.795-.282,8.665-.7-.348-.774-1.006-2.437-1.393-3.481-.351-1.103-.818-2.167-1.392-3.172,1.547-.272,3.111-.439,4.681-.5.735,0,1.006.193,1.006.658l-.004.425Z" fill="#00a44f" stroke-width="0"/><path id="z" d="M147.484,17.071c.197,1.801.667,3.563,1.393,5.223,3.019-.749,5.96-1.785,8.781-3.095.148-.063.305-.102.465-.117.387,0,.657.7,1.238,3.211.039.194.039.232.077.387.027.047.041.101.039.155,0,.271-.154.426-.541.58-2.715,1.088-5.509,1.967-8.357,2.631,2.012,3.753,4.874,7,7.66,8.627.18.086.299.264.31.464-.315,1.149-.826,2.235-1.509,3.211-.348.5-.58.7-.928.7-.271,0-.348-.038-.851-.426-1.288-.806-2.681-1.431-4.139-1.857-1.611-.454-3.278-.675-4.952-.658-4.565,0-6.886,1.277-6.886,3.752,0,1.393.735,2.36,2.321,3.134,1.818.889,5.145,1.392,9.053,1.392,1.035.013,2.07-.052,3.095-.193-.667,1.305-1.186,2.68-1.547,4.1-.194.58-.5.735-1.548.735-2.625-.008-5.243-.28-7.814-.812-5.147-1.279-8.087-4.18-8.087-8.049.002-1.86.723-3.648,2.011-4.99,1.78-1.741,4.643-2.709,8.318-2.709,2.054-.067,4.099.302,6,1.083-1.912-1.928-3.506-4.147-4.72-6.576-2.359.426-4.333.7-6.615.929-1.354.116-4.333.31-4.913.31-.542,0-.7-.116-.89-.773-.308-1.206-.515-2.436-.619-3.676,1.276.039,1.9.077,2.592.077,2.9-.048,5.795-.282,8.665-.7-.348-.774-1.006-2.437-1.393-3.481-.351-1.103-.818-2.167-1.392-3.172,1.547-.272,3.111-.439,4.681-.5.735,0,1.006.193,1.006.658l-.004.425Z" fill="none" stroke="#00a44f" stroke-linecap="round" stroke-linejoin="round" stroke-width="10"/><path id="aa" d="M183.387,29.836q-.077-1.9-.116-4.293c-.283.028-.567.041-.851.038-2.414.022-4.825-.186-7.2-.619-.387-.116-.464-.193-.464-.58.03-1.144.159-2.283.387-3.405,2.359.451,4.755.686,7.157.7.193,0,.542,0,.967-.038v-2.557c0-1.354-.039-1.973-.116-3.327,1.403.039,2.801.194,4.178.465.774.154,1.006.348,1.006.774,0,.193-.039.27-.31.89-.271.657-.31.812-.465,3.481,2.032-.22,4.04-.621,6-1.2.061-.025.127-.038.193-.039.271,0,.271.039.7,1.277.25.69.431,1.403.541,2.128,0,.271-.116.425-.5.542-2.311.604-4.665,1.031-7.041,1.276,0,2.747,0,2.863.039,4.217,2.484-.294,4.917-.919,7.235-1.857.12-.065.251-.104.387-.117.232,0,.31.117.7,1.045.345.779.592,1.597.735,2.437,0,.193-.155.348-.426.464-2.744.93-5.572,1.591-8.444,1.974.077,1.47.154,2.283.387,5.3,1.643.443,3.227,1.081,4.719,1.9,1.619.782,3.139,1.756,4.527,2.9.264.15.427.431.425.735-.234.755-.601,1.462-1.083,2.089-.851,1.277-1.277,1.78-1.547,1.78-.133,0-.259-.057-.348-.155-1.86-1.883-4.033-3.428-6.422-4.565.023,1.46-.566,2.863-1.625,3.868-1.315,1.277-3.52,1.974-6.267,1.974-4.758,0-7.7-2.089-7.7-5.455-.001-1.464.6-2.863,1.663-3.869,1.509-1.393,3.791-2.127,6.693-2.127.906.008,1.81.073,2.708.193-.193-2.514-.271-3.4-.31-4.217-.89.039-1.392.039-1.857.039-2.609,0-5.208-.325-7.737-.967-.387-.117-.542-.31-.542-.619.103-1.147.297-2.284.581-3.4,2.729.621,5.519.932,8.317.928h1.122l.004-.008ZM180.718,41.636c-2.476,0-3.83.735-3.83,2.05,0,1.161,1.122,1.779,3.289,1.779,2.514,0,3.675-.889,3.675-2.823v-.658c-1.022-.269-2.078-.386-3.134-.348" fill="#00a44f" stroke-width="0"/><path id="ab" d="M183.387,29.836q-.077-1.9-.116-4.293c-.283.028-.567.041-.851.038-2.414.022-4.825-.186-7.2-.619-.387-.116-.464-.193-.464-.58.03-1.144.159-2.283.387-3.405,2.359.451,4.755.686,7.157.7.193,0,.542,0,.967-.038v-2.557c0-1.354-.039-1.973-.116-3.327,1.403.039,2.801.194,4.178.465.774.154,1.006.348,1.006.774,0,.193-.039.27-.31.89-.271.657-.31.812-.465,3.481,2.032-.22,4.04-.621,6-1.2.061-.025.127-.038.193-.039.271,0,.271.039.7,1.277.25.69.431,1.403.541,2.128,0,.271-.116.425-.5.542-2.311.604-4.665,1.031-7.041,1.276,0,2.747,0,2.863.039,4.217,2.484-.294,4.917-.919,7.235-1.857.12-.065.251-.104.387-.117.232,0,.31.117.7,1.045.345.779.592,1.597.735,2.437,0,.193-.155.348-.426.464-2.744.93-5.572,1.591-8.444,1.974.077,1.47.154,2.283.387,5.3,1.643.443,3.227,1.081,4.719,1.9,1.619.782,3.139,1.756,4.527,2.9.264.15.427.431.425.735-.234.755-.601,1.462-1.083,2.089-.851,1.277-1.277,1.78-1.547,1.78-.133,0-.259-.057-.348-.155-1.86-1.883-4.033-3.428-6.422-4.565.023,1.46-.566,2.863-1.625,3.868-1.315,1.277-3.52,1.974-6.267,1.974-4.758,0-7.7-2.089-7.7-5.455-.001-1.464.6-2.863,1.663-3.869,1.509-1.393,3.791-2.127,6.693-2.127.906.008,1.81.073,2.708.193-.193-2.514-.271-3.4-.31-4.217-.89.039-1.392.039-1.857.039-2.609,0-5.208-.325-7.737-.967-.387-.117-.542-.31-.542-.619.103-1.147.297-2.284.581-3.4,2.729.621,5.519.932,8.317.928h1.122l.004-.008ZM180.718,41.636c-2.476,0-3.83.735-3.83,2.05,0,1.161,1.122,1.779,3.289,1.779,2.514,0,3.675-.889,3.675-2.823v-.658c-1.022-.269-2.078-.386-3.134-.348Z" fill="none" stroke="#00a44f" stroke-linecap="round" stroke-linejoin="round" stroke-width="10"/><path id="ac" d="M215.384,26.046c-.936.213-1.854.498-2.747.851-.316.149-.657.241-1.005.271-.852,0-1.625-1.586-2.321-4.913,2.57-.128,5.129-.425,7.66-.889,4.643-.7,10.522-1.587,13.617-1.974,3.481-.464,6.267-.929,7.737-1.238.187-.059.384-.085.58-.077.5,0,.7.232,1.045,1.2.301.808.483,1.655.541,2.515,0,.464-.154.619-.7.619-.765.004-1.528.068-2.283.193-6.538,1.083-11.76,6.808-11.76,12.843,0,4.527,3.559,7.5,9.594,8.047.541.039.735.232.735.7-.065,1.254-.313,2.492-.735,3.675-.161.407-.57.659-1.006.619-.973-.09-1.932-.285-2.863-.581-6.577-1.934-10.02-6.112-10.02-12.031-.01-3.178,1.069-6.263,3.056-8.743,1.178-1.464,2.606-2.708,4.217-3.675-5.068.851-10.406,1.857-13.346,2.592M235.187,27.056c.542,0,3.83,3.675,3.83,4.255,0,.194-.232.426-.929,1.045-.735.619-.774.619-1.083.736q-.193.077-.271.077c-.155,0-.193-.039-.89-1.121-.723-1.122-1.566-2.161-2.515-3.1-.083-.09-.149-.195-.193-.31.077-.193.116-.31.155-.31.291-.291.602-.562.929-.812.231-.107.451-.237.657-.387.022-.045.067-.075.117-.077h.193v.004ZM241.802,29.725c-.58.426-.929.658-1.121.658-.155,0-.233-.077-.426-.387-.832-1.347-1.834-2.582-2.979-3.675-.075-.09-.128-.196-.155-.31,0-.193.232-.426.774-.812.349-.292.759-.504,1.2-.619.27,0,.735.348,1.548,1.16.899.837,1.634,1.834,2.167,2.94,0,.232-.271.5-1.006,1.045" fill="#00a44f" stroke-width="0"/><path id="ad" d="M215.384,26.046c-.936.213-1.854.498-2.747.851-.316.149-.657.241-1.005.271-.852,0-1.625-1.586-2.321-4.913,2.57-.128,5.129-.425,7.66-.889,4.643-.7,10.522-1.587,13.617-1.974,3.481-.464,6.267-.929,7.737-1.238.187-.059.384-.085.58-.077.5,0,.7.232,1.045,1.2.301.808.483,1.655.541,2.515,0,.464-.154.619-.7.619-.765.004-1.528.068-2.283.193-6.538,1.083-11.76,6.808-11.76,12.843,0,4.527,3.559,7.5,9.594,8.047.541.039.735.232.735.7-.065,1.254-.313,2.492-.735,3.675-.161.407-.57.659-1.006.619-.973-.09-1.932-.285-2.863-.581-6.577-1.934-10.02-6.112-10.02-12.031-.01-3.178,1.069-6.263,3.056-8.743,1.178-1.464,2.606-2.708,4.217-3.675-5.065.85-10.403,1.85-13.342,2.588ZM235.191,27.052c.542,0,3.83,3.675,3.83,4.255,0,.194-.232.426-.929,1.045-.735.619-.774.619-1.083.736q-.193.077-.271.077c-.155,0-.193-.039-.89-1.121-.723-1.122-1.566-2.161-2.515-3.1-.083-.09-.149-.195-.193-.31.077-.193.116-.31.155-.31.291-.291.602-.562.929-.812.231-.107.451-.237.657-.387.022-.045.067-.075.117-.077h.193v.004ZM241.806,29.721c-.58.426-.929.658-1.121.658-.155,0-.233-.077-.426-.387-.832-1.347-1.834-2.582-2.979-3.675-.075-.09-.128-.196-.155-.31,0-.193.232-.426.774-.812.349-.292.759-.504,1.2-.619.27,0,.735.348,1.548,1.16.899.837,1.634,1.834,2.167,2.94-.003.232-.274.504-1.009,1.045h0Z" fill="none" stroke="#00a44f" stroke-linecap="round" stroke-linejoin="round" stroke-width="10"/><path id="ae" d="M334.479,9.59l1.57-3.282h-7.9l1.637,3.282v34.581l-1.589,3.291h7.852l-1.57-3.291V9.59Z" fill="#00a44f" stroke-width="0"/><path id="af" d="M334.479,9.59l1.57-3.282h-7.9l1.637,3.282v34.581l-1.589,3.291h7.852l-1.57-3.291V9.59" fill="none" stroke="#00a44f" stroke-linecap="round" stroke-linejoin="round" stroke-width="10"/><path id="ag" d="M283.205,17.82c1.959-5.171,6.117-9.202,11.346-11,5.661-2.206,11.944-2.206,17.605,0,5.222,1.81,9.375,5.837,11.346,11,2.311,5.872,2.311,12.402,0,18.274-.982,2.561-2.51,4.878-4.477,6.79-1.951,1.875-4.299,3.288-6.869,4.134-2.837.999-5.819,1.525-8.826,1.557-2.992-.034-5.958-.56-8.779-1.557-2.573-.85-4.925-2.262-6.885-4.134-1.957-1.917-3.479-4.233-4.461-6.79-2.311-5.872-2.311-12.402,0-18.274M318.19,18.303c-.703-2.224-1.861-4.278-3.4-6.031-1.404-1.555-3.15-2.763-5.1-3.529-4.03-1.796-8.632-1.796-12.662,0-1.95.765-3.696,1.974-5.1,3.529-1.551,1.744-2.71,3.801-3.4,6.031-.922,2.793-1.383,5.717-1.364,8.658-.02,2.94.441,5.864,1.364,8.655.69,2.231,1.849,4.289,3.4,6.036,1.404,1.555,3.15,2.763,5.1,3.53,4.031,1.791,8.631,1.791,12.662,0,1.95-.767,3.696-1.975,5.1-3.53,1.539-1.755,2.697-3.81,3.4-6.036.917-2.792,1.372-5.716,1.348-8.655.024-2.94-.432-5.864-1.348-8.658" fill="#00a44f" stroke-width="0"/><path id="ah" d="M283.205,17.82c1.959-5.171,6.117-9.202,11.346-11,5.661-2.206,11.944-2.206,17.605,0,5.222,1.81,9.375,5.837,11.346,11,2.311,5.872,2.311,12.402,0,18.274-.982,2.561-2.51,4.878-4.477,6.79-1.951,1.875-4.299,3.288-6.869,4.134-2.837.999-5.819,1.525-8.826,1.557-2.992-.034-5.958-.56-8.779-1.557-2.573-.85-4.925-2.262-6.885-4.134-1.957-1.917-3.479-4.233-4.461-6.79-2.311-5.872-2.311-12.402,0-18.274M318.19,18.303c-.703-2.224-1.861-4.278-3.4-6.031-1.404-1.555-3.15-2.763-5.1-3.529-4.03-1.796-8.632-1.796-12.662,0-1.95.765-3.696,1.974-5.1,3.529-1.551,1.744-2.71,3.801-3.4,6.031-.922,2.793-1.383,5.717-1.364,8.658-.02,2.94.441,5.864,1.364,8.655.69,2.231,1.849,4.289,3.4,6.036,1.404,1.555,3.15,2.763,5.1,3.53,4.031,1.791,8.631,1.791,12.662,0,1.95-.767,3.696-1.975,5.1-3.53,1.539-1.755,2.697-3.81,3.4-6.036.917-2.792,1.372-5.716,1.348-8.655.024-2.94-.432-5.864-1.348-8.658" fill="none" stroke="#00a44f" stroke-linecap="round" stroke-linejoin="round" stroke-width="10"/><path id="ai" d="M269.531,6.308l2.327,3.282v34.081c-.003,1.754-.241,3.5-.706,5.192-3.624,10.606-18.371,10.962-18.371,10.962-.053,0-.151.007-.151.007,0,0-.792,0-.792.451-.006.271.209.494.48.5.008,0,.017,0,.025,0h.006c.008,0,.079.01.1.01h0c21.654,1.009,24.238-12.513,24.479-17.238V9.59l2.391-3.282h-9.788Z" fill="#00a44f" stroke-width="0"/><path id="aj" d="M269.531,6.308l2.327,3.282v34.081c-.003,1.754-.241,3.5-.706,5.192-3.624,10.606-18.371,10.962-18.371,10.962-.053,0-.151.007-.151.007,0,0-.792,0-.792.451-.006.271.209.494.48.5.008,0,.017,0,.025,0h.006c.008,0,.079.01.1.01h0c21.654,1.009,24.238-12.513,24.479-17.238V9.59l2.391-3.282h-9.79" fill="none" stroke="#00a44f" stroke-linecap="round" stroke-linejoin="round" stroke-width="10"/><path id="ak" d="M374.344,47.465l-.016-37.336,1.027-3.746h-4.687l1.027,3.757v27.014l-29.22-31.118c-.157-.115-.355-.16-.546-.123-.079.011-.155.036-.225.074,0,.011-.016.021-.032.029-.117.09-.197.219-.225.364v36.44l-1.027,4.64h5.136l-1.011-4.633v-26.406l29.799,31.044Z" fill="#00a44f" stroke-width="0"/><path id="al" d="M374.344,47.465l-.016-37.336,1.027-3.746h-4.687l1.027,3.757v27.014l-29.22-31.118c-.157-.115-.355-.16-.546-.123-.079.011-.155.036-.225.074,0,.011-.016.021-.032.029-.117.09-.197.219-.225.364v36.44l-1.027,4.64h5.136l-1.011-4.633v-26.406l29.8,31.044" fill="none" stroke="#00a44f" stroke-linecap="round" stroke-linejoin="round" stroke-width="10"/><path id="am" d="M385.706,30.644V10.156l1.2-3.848h-7.222l1.22,3.848v21.406c.004,19.248,18.138,16.409,18.138,16.409,12.406-.935,14.347-10.314,14.588-14.456h.016V10.06l1.044-3.752h-4.687l1.059,3.752v21.67c0,14.09-12.213,13.412-12.213,13.412-7.575,0-10.849-3.691-12.229-7.33-.635-2.336-.943-4.749-.915-7.169" fill="#00a44f" stroke-width="0"/><path id="an" d="M385.706,30.644V10.156l1.2-3.848h-7.222l1.22,3.848v21.406c.004,19.248,18.138,16.409,18.138,16.409,12.406-.935,14.347-10.314,14.588-14.456h.016V10.06l1.044-3.752h-4.687l1.059,3.752v21.67c0,14.09-12.213,13.412-12.213,13.412-7.575,0-10.849-3.691-12.229-7.33-.635-2.336-.943-4.749-.915-7.169" fill="none" stroke="#00a44f" stroke-linecap="round" stroke-linejoin="round" stroke-width="10"/><path id="ao" d="M434.99,25.248l-6.275-2.747c-2.377-.819-4.359-2.502-5.553-4.714-.763-1.841-.739-3.914.064-5.737.082-.18.179-.354.289-.519.144-.263.305-.516.481-.759.658-.876,1.51-1.587,2.488-2.08,7-3.341,11.523,3.579,11.523,3.579l.851-5.3c-2.216-.725-4.502-1.211-6.821-1.451-1.278-.131-2.569-.087-3.835.132-5.512.932-9.567,5.676-9.629,11.266.098,3.246,1.684,6.266,4.3,8.189,2.224,1.6,4.667,2.872,7.254,3.775.433.162.851.323,1.22.5,1.428.663,5.1,2.73,5.36,6.408.016.184.016.368,0,.552-.513,9.627-9.1,9.2-9.1,9.2-5.425.429-8.939-4.647-8.939-4.647l-.272,5.5c3.111,1.132,6.418,1.629,9.725,1.462,11.94-.26,12.791-11.862,12.791-11.862.786-8.25-5.922-10.747-5.922-10.747" fill="#00a44f" stroke-width="0"/><path id="ap" d="M434.99,25.248l-6.275-2.747c-2.377-.819-4.359-2.502-5.553-4.714-.763-1.841-.739-3.914.064-5.737.082-.18.179-.354.289-.519.144-.263.305-.516.481-.759.658-.876,1.51-1.587,2.488-2.08,7-3.341,11.523,3.579,11.523,3.579l.851-5.3c-2.216-.725-4.502-1.211-6.821-1.451-1.278-.131-2.569-.087-3.835.132-5.512.932-9.567,5.676-9.629,11.266.098,3.246,1.684,6.266,4.3,8.189,2.224,1.6,4.667,2.872,7.254,3.775.433.162.851.323,1.22.5,1.428.663,5.1,2.73,5.36,6.408.016.184.016.368,0,.552-.513,9.627-9.1,9.2-9.1,9.2-5.425.429-8.939-4.647-8.939-4.647l-.272,5.5c3.111,1.132,6.418,1.629,9.725,1.462,11.94-.26,12.791-11.862,12.791-11.862.786-8.25-5.922-10.747-5.922-10.747" fill="none" stroke="#00a44f" stroke-linecap="round" stroke-linejoin="round" stroke-width="10"/><path id="aq" d="M471.381,37.907c.102.119.157.27.155.426q0,.232-.658,2.011c-.7,1.874-1.193,3.819-1.47,5.8.038.41-.264.772-.674.81-.009,0-.018.001-.026.002-.852.177-1.722.255-2.592.233-.387,0-.58-.077-.7-.31-.605-1.811-1.033-3.677-1.277-5.571-.269-1.884-.398-3.784-.387-5.687,0-4.449.5-8.666,1.9-16.248.196-.997.338-2.004.426-3.017,1.432.142,2.831.521,4.139,1.122.58.309.812.58.812.928-.014.267-.109.523-.271.735-1.586,2.708-3.056,11.064-3.056,17.254,0,.928.039,2.4.155,4.255.928-2.4,1.354-3.481,2.2-5.338.232.954.682,1.841,1.315,2.592M477.873,27.73c-1.857,0-2.244-.077-2.36-.5-.162-.815-.239-1.645-.232-2.476,0-.309,0-.619.039-1.315,1.044.077,1.663.117,2.94.117,2.089,0,3.4-.039,5.415-.193-.039-4.913-.077-5.532-.464-7.35,1.536-.005,3.067.162,4.565.5.58.155.812.348.812.735-.014.202-.067.399-.154.581-.504,1.653-.727,3.379-.658,5.106,1.432-.193,2.669-.464,4.991-1.005.121-.056.253-.082.386-.077.232,0,.348.116.425.387.121.872.185,1.751.193,2.631,0,.967-.039,1.122-.426,1.276-.619.31-2.321.58-5.609,1.006,0,2.669.232,7.079.5,9.594,2.043.827,3.988,1.878,5.8,3.133,1.083.774,1.315,1.045,1.315,1.316-.31,1.042-.819,2.015-1.497,2.865-.464.657-.7.851-.967.851s-.271,0-1.161-.851c-1.051-.997-2.205-1.879-3.443-2.631v.31c0,3.4-2.824,5.648-7.118,5.648-4.371,0-7.234-2.321-7.234-5.8s2.94-6.074,6.847-6.074c1.074-.025,2.148.04,3.211.194q-.155-3.017-.271-8.2c-1.663.116-4.294.232-5.841.232M481.053,39.106c-1.934,0-3.211.889-3.211,2.243,0,1.238,1.2,2.012,3.056,2.012,2.05,0,3.133-.929,3.133-2.708,0-.542-.039-.967-.039-.967-.933-.381-1.932-.578-2.94-.58" fill="#fff" stroke-width="0"/><path id="ar" d="M530.611,28.738c-1.208-.117-2.422-.168-3.636-.154h-9.981c-1.15-.016-2.299.035-3.443.154v-3.017c-2.231,1.479-4.587,2.761-7.041,3.83-.499-1.368-1.232-2.638-2.166-3.755,3.451-1.325,6.674-3.178,9.555-5.494,2.863-2.359,4.681-4.332,5.648-6.15h4.6c1.753,2.517,3.925,4.716,6.421,6.5,2.825,2.148,5.989,3.808,9.362,4.913-.98,1.22-1.728,2.61-2.205,4.1-2.483-1.091-4.865-2.398-7.118-3.907l.004,2.98ZM536.376,34.619c-.348.387-1.161,1.315-1.625,1.9l-7.157,9.052c-.967,1.238-1.586,2.128-2.36,3.288l-4.256-2.359c1.017-.946,1.961-1.968,2.824-3.056l6.112-7.505h-16.712c-1.47,0-2.978.078-4.6.233v-4.223c1.542.159,3.092.237,4.642.232h16.944c1.28.057,2.562-.008,3.83-.193l2.358,2.631ZM527.246,25.025c.929,0,1.393,0,2.167-.039-2.866-1.942-5.389-4.348-7.466-7.118-2.062,2.73-4.527,5.13-7.312,7.118.813.039,1.238.039,2.167.039h10.444Z" fill="#fff" stroke-width="0"/><path id="as" d="M556.224,28.58c0-.724-.038-1.447-.116-2.167.861.085,1.727.123,2.592.116h8.163v-4.832h-7.814c-1.693,2.717-3.764,5.179-6.151,7.312-.755-1.221-1.666-2.339-2.708-3.327,3.792-3.211,5.687-5.648,7.234-9.285.398-.866.697-1.775.89-2.708l4.41.889c-.116.233-.658,1.393-1.624,3.443h17.37c1.28.032,2.56-.033,3.83-.193v4.062c-1.27-.155-2.55-.22-3.83-.194h-7.505v4.836h5.919c1.279.02,2.557-.032,3.83-.155v3.907c-1.234-.122-2.474-.174-3.714-.155h-6.035v6.074h8.55c1.37.017,2.74-.06,4.1-.232v4.217c-1.36-.168-2.73-.246-4.1-.232h-8.55v4.6c-.047,1.332.031,2.666.232,3.984h-4.565c.183-1.333.26-2.678.232-4.023v-4.56h-12.5c-1.358-.013-2.715.065-4.062.232v-4.216c1.347.171,2.704.248,4.062.232h1.857l.003-7.625ZM566.862,30.127h-6.731v6.074h6.731v-6.074Z" fill="#fff" stroke-width="0"/><path id="at" d="M610.506,19.887h-10l-.321,4.98c-.04.8-.121,1.726-.241,2.69,1.179-1.278,2.839-2.006,4.578-2.007,5.02,0,8.072,3.855,8.072,10.28,0,7.068-3.414,11.324-9.036,11.324-2.347.054-4.613-.861-6.265-2.53-1.084-1.155-1.857-2.565-2.248-4.1l4.457-1.727c.163,1.071.574,2.088,1.2,2.972.674.893,1.732,1.415,2.851,1.406,2.731,0,4.216-2.53,4.216-7.268,0-4.137-1.406-6.345-4.016-6.345-1.928,0-3.052,1.044-4.176,3.735l-3.654-.643.964-16.786h13.613l.006,4.019Z" fill="#fff" stroke-width="0"/><path id="au" d="M633.757,42.496c-1.149,2.934-4.041,4.808-7.188,4.658-6.144,0-8.875-4.979-8.875-16.183,0-4.618.563-8.393,1.647-10.842,1.446-3.293,3.654-4.779,7.188-4.779,3.775,0,6.144,1.687,7.55,5.421,1.027,3.34,1.488,6.829,1.365,10.321,0,5.3-.522,8.835-1.687,11.405M629.657,40.369c.693-2.837.991-5.756.884-8.674,0-4.538-.482-8.554-1.245-10.32-.371-1.196-1.479-2.01-2.731-2.008-1.366,0-2.168.643-2.811,2.209-.723,1.686-1.125,5.1-1.125,9.116,0,9.116,1.044,12.449,3.9,12.449,1.526,0,2.57-.923,3.132-2.77" fill="#fff" stroke-width="0"/><path id="av" d="M674.395,15.353c1.304.026,2.609-.025,3.907-.154-.116,1.431-.155,2.243-.155,4.217v24.6c0,3.134-1.122,3.869-5.919,3.869-.813,0-2.4-.039-4.062-.117-.149-1.405-.527-2.776-1.117-4.06,1.797.227,3.605.356,5.416.386,1.547,0,1.741-.077,1.741-.889v-24.253h-20.929v4.216c0,9.672-.464,15.2-1.547,18.995-.608,2.267-1.574,4.422-2.862,6.383-.94-1.255-2.061-2.363-3.327-3.288,1.198-1.658,2.05-3.539,2.508-5.532.89-3.482,1.277-9.169,1.277-18.066.048-2.155-.016-4.312-.193-6.46,1.312.124,2.629.176,3.946.154h21.316ZM661.706,25.179h-3.6c-.956-.013-1.911.026-2.863.117v-3.521c.949.12,1.906.171,2.863.155h3.559c.033-.75-.006-1.501-.116-2.244h4.139c-.105.743-.157,1.493-.154,2.244h3.714c.944.014,1.887-.038,2.824-.155v3.521c-.939-.089-1.881-.128-2.824-.117h-3.714v2.553h4.565c1.124.026,2.248-.026,3.365-.155v3.675c-1.117-.124-2.241-.176-3.365-.155h-12.766c-1.111-.022-2.223.03-3.327.155v-3.674c1.117.133,2.242.185,3.366.155h4.333v-2.554ZM671.029,40.46c-.014.814.025,1.628.117,2.437-.89-.038-1.741-.077-2.786-.077h-8.82v2.205h-4.024c.153-.972.218-1.956.193-2.94v-6.654c.021-.828-.031-1.657-.155-2.476,1.354.078,1.47.078,2.746.078h9.981c.955.025,1.911-.001,2.863-.078-.091.861-.13,1.726-.117,2.592l.002,4.913ZM659.502,39.455h7.737v-3.173h-7.737v3.173Z" fill="#fff" stroke-width="0"/><path id="aw" d="M697.338,28.58c0-.724-.039-1.447-.116-2.167.861.085,1.727.123,2.592.116h8.163v-4.832h-7.817c-1.692,2.717-3.764,5.179-6.151,7.312-.756-1.221-1.666-2.339-2.708-3.327,3.791-3.211,5.687-5.648,7.234-9.285.398-.866.697-1.775.89-2.708l4.41.889c-.116.233-.658,1.393-1.625,3.443h17.37c1.28.032,2.56-.033,3.83-.193v4.062c-1.27-.155-2.55-.22-3.83-.194h-7.505v4.836h5.919c1.279.02,2.557-.032,3.83-.155v3.907c-1.234-.122-2.474-.174-3.714-.155h-6.035v6.074h8.55c1.37.017,2.74-.06,4.1-.232v4.217c-1.36-.168-2.73-.246-4.1-.232h-8.55v4.6c-.047,1.332.031,2.666.232,3.984h-4.565c.184-1.333.261-2.678.233-4.023v-4.56h-12.5c-1.358-.012-2.715.065-4.062.232v-4.216c1.347.171,2.704.248,4.062.232h1.857l.006-7.625ZM707.977,30.127h-6.731v6.074h6.731v-6.074Z" fill="#fff" stroke-width="0"/><path id="ax" d="M744.77,43.285c0,1.688-1.369,3.056-3.057,3.055s-3.056-1.369-3.055-3.057c0-1.687,1.369-3.055,3.056-3.055,1.678-.009,3.047,1.344,3.056,3.022,0,.012,0,.023,0,.035M743.416,37.869h-3.443l-1.045-21.935h5.571l-1.083,21.935Z" fill="#fff" stroke-width="0"/><path id="ay" d="M12.463,28.484c-1.848.233-3.709.349-5.571.348-1.2,0-1.393-.5-1.664-3.947h1.509c1.914-.007,3.826-.123,5.726-.348v-.812c.03-2.205-.152-4.407-.542-6.577,1.652.009,3.299.191,4.913.542.339.05.578.359.541.7-.006.274-.086.541-.232.773-.348.736-.542,2.128-.58,4.758,1.276-.232,3.327-.735,4.874-1.2.087-.031.179-.047.272-.045.272-.021.519.16.58.426.223.953.365,1.923.426,2.9,0,.316-.201.597-.5.7-.464.193-3.288.774-5.764,1.2v4.991c3-1.125,6.16-1.767,9.362-1.9,4.952,0,8.163,3.172,8.163,8.085,0,3.172-1.277,5.725-3.559,7.079-1.464.773-3.102,1.16-4.758,1.122-1.33.091-2.666-.053-3.946-.426-.426-.232-.464-.348-.542-1.276-.078-1.081-.34-2.141-.774-3.134,1.407.542,2.902.818,4.41.812,3.018,0,4.72-1.548,4.72-4.294.184-2.18-1.435-4.097-3.616-4.28-.201-.017-.403-.018-.604-.005-3.068.151-6.077.899-8.859,2.2q0,.155.039,1.664.039,2.553.039,3.095c.039.7.039,1.393.039,1.741,0,3.133-1.2,4.642-3.753,4.642-2.568-.074-4.967-1.295-6.538-3.327-.609-.8-.935-1.78-.929-2.785,0-2.515,2.244-4.8,7.118-7.312v-6.11ZM12.463,38.851c-2.243,1.354-3.172,2.244-3.172,3.056,0,.89,1.277,1.857,2.437,1.857.542,0,.735-.348.735-1.238v-3.675ZM34.05,30.069c-2.001-2.109-4.483-3.702-7.234-4.642-.31-.117-.465-.272-.465-.465.354-.852.851-1.637,1.47-2.321.426-.58.464-.62.851-.62.984.24,1.941.578,2.858,1.008,2.437,1.122,5.609,3.521,5.609,4.256,0,.7-1.934,3.133-2.514,3.133-.194,0-.349-.077-.581-.348" fill="#fff" stroke-width="0"/><path id="az" d="M49.566,29.799c-.244.059-.479.15-.7.27-.146.103-.321.157-.5.155-.813,0-1.431-1.509-1.9-4.372.244.029.489.042.735.039,2.767-.137,5.521-.473,8.24-1.006.695-2.552,1.11-5.172,1.238-7.814.002-.22-.011-.439-.039-.657,1.478.147,2.933.472,4.333.967.619.232.929.58.929.967-.007.226-.089.444-.233.619q-.58,1.044-1.779,5.3c.873-.112,1.751-.177,2.631-.193,1.304-.075,2.599.249,3.714.929,1.548,1.122,2.321,3.4,2.321,6.924,0,5.765-1.045,10.677-2.824,13.115-1.162,1.675-3.11,2.626-5.145,2.514-1.051.052-2.102-.092-3.1-.426q-.31-.193-.426-1.624c-.108-1.042-.38-2.06-.804-3.018,1.188.502,2.463.765,3.753.774,1.857,0,2.63-.89,3.481-3.985.628-2.464.927-5.001.89-7.544,0-3.018-.735-4.1-2.786-4.1-.907.009-1.813.086-2.708.232-.116.426-.155.465-.31,1.006-1.322,4.575-3.004,9.037-5.029,13.347-2.05,4.216-2.553,5.068-3.056,5.068-.89-.287-1.726-.718-2.476-1.277-.89-.542-1.122-.774-1.122-1.083q0-.193,1.586-2.708c2.532-4.243,4.509-8.793,5.881-13.54-2.863.619-4.449,1.005-4.8,1.122M69.291,25.467c0-.271.348-.619,1.47-1.509.774-.58,1.161-.812,1.431-.812.232,0,.426.116.929.619,2.292,2.239,4.201,4.841,5.648,7.7.278.511.486,1.058.618,1.625,0,.386-.116.5-1.354,1.508-.57.511-1.243.894-1.974,1.122-.27,0-.386-.117-.658-.774-.654-1.676-1.47-3.283-2.437-4.8-.988-1.54-2.156-2.955-3.481-4.217-.111-.131-.178-.293-.193-.464" fill="#fff" stroke-width="0"/><path id="ba" d="M90.884,18.27v-.542c1.614.196,3.191.626,4.681,1.277.232.072.379.301.348.542-.026.222-.105.435-.232.619-.348.619-.464,1.083-1.045,3.637-.775,3.649-1.152,7.372-1.125,11.102-.016,1.81.088,3.619.31,5.416l2.05-4.14c.184.736.527,1.423,1.006,2.012.31.387.348.5.348.813s0,.309-.735,1.934c-.774,1.666-1.344,3.42-1.7,5.222-.116.619-.232.812-.426.89-.78.226-1.588.343-2.4.348-.542,0-.735-.116-.851-.464-1.108-3.875-1.68-7.884-1.7-11.915.091-4.276.466-8.541,1.122-12.767.196-1.177.312-2.366.348-3.559v-.425ZM104.075,29.218c-2.166,0-2.785-.077-2.978-.348-.388-1.078-.558-2.222-.5-3.366v-.579c1.581.165,3.17.242,4.759.231,1.509,0,2.359-.038,3.907-.154-.116-4.024-.348-6.421-.812-7.66h1.045c1.296-.014,2.591.09,3.868.31.326.023.579.292.581.619-.012.198-.051.393-.116.58-.23.778-.335,1.589-.31,2.4,0,.58.039,2.4.039,2.862v.387c1.526-.203,3.028-.553,4.487-1.045.151-.045.307-.071.464-.077.232,0,.348.116.425.348.204.915.308,1.849.31,2.786,0,.619-.116.889-.426,1.006-1.692.435-3.411.758-5.146.967.039,1.083.039,1.664.039,2.282,0,5.687-.7,9.749-2.243,12.8-1.393,2.747-4.41,5.958-5.648,5.958-.349,0-.5-.077-.928-.464-.862-.865-1.888-1.549-3.018-2.012,2.372-1.177,4.339-3.036,5.648-5.338,1.385-2.853,2.062-5.998,1.973-9.169,0-.271,0-.928-.039-1.857-.039-.387-.039-.967-.077-1.74-1.393.116-4.526.27-5.3.27M118.587,21.208c-.332.216-.698.373-1.083.464-.232,0-.31-.077-.426-.386-.541-1.307-1.243-2.541-2.089-3.675-.542-.658-.542-.7-.542-.812,0-.271,1.354-1.2,1.78-1.2.232,0,.774.542,1.431,1.47.802.961,1.444,2.045,1.9,3.211,0,.233-.233.464-.968.929M119.906,13.897c.271,0,.735.5,1.547,1.624.71.877,1.26,1.872,1.625,2.94,0,.233-.348.542-1.006.929-.282.187-.597.319-.929.387q-.27,0-.774-1.083c-.5-1.1-1.123-2.14-1.857-3.1-.31-.426-.348-.5-.348-.619.421-.57,1.044-.957,1.741-1.083" fill="#fff" stroke-width="0"/><path id="bb" d="M147.484,17.071c.197,1.801.667,3.563,1.393,5.223,3.019-.749,5.96-1.785,8.781-3.095.148-.063.305-.102.465-.117.387,0,.657.7,1.238,3.211.039.194.039.232.077.387.027.047.041.101.039.155,0,.271-.154.426-.541.58-2.715,1.088-5.509,1.967-8.357,2.631,2.012,3.753,4.874,7,7.66,8.627.18.086.299.264.31.464-.315,1.149-.826,2.235-1.509,3.211-.348.5-.58.7-.928.7-.271,0-.348-.038-.851-.426-1.288-.806-2.681-1.431-4.139-1.857-1.611-.454-3.278-.675-4.952-.658-4.565,0-6.886,1.277-6.886,3.752,0,1.393.735,2.36,2.321,3.134,1.818.889,5.145,1.392,9.053,1.392,1.035.013,2.07-.052,3.095-.193-.667,1.305-1.186,2.68-1.547,4.1-.194.58-.5.735-1.548.735-2.625-.008-5.243-.28-7.814-.812-5.147-1.279-8.087-4.18-8.087-8.049.002-1.86.723-3.648,2.011-4.99,1.78-1.741,4.643-2.709,8.318-2.709,2.054-.067,4.099.302,6,1.083-1.912-1.928-3.506-4.147-4.72-6.576-2.359.426-4.333.7-6.615.929-1.354.116-4.333.31-4.913.31-.542,0-.7-.116-.89-.773-.308-1.206-.515-2.436-.619-3.676,1.276.039,1.9.077,2.592.077,2.9-.048,5.795-.282,8.665-.7-.348-.774-1.006-2.437-1.393-3.481-.351-1.103-.818-2.167-1.392-3.172,1.547-.272,3.111-.439,4.681-.5.735,0,1.006.193,1.006.658l-.004.425Z" fill="#fff" stroke-width="0"/><path id="bc" d="M183.386,29.836q-.077-1.9-.116-4.293c-.283.028-.567.041-.851.038-2.414.022-4.825-.186-7.2-.619-.387-.116-.464-.193-.464-.58.03-1.144.159-2.283.387-3.405,2.359.451,4.755.686,7.157.7.193,0,.542,0,.967-.038v-2.557c0-1.354-.039-1.973-.116-3.327,1.403.039,2.801.194,4.178.465.774.154,1.006.348,1.006.774,0,.193-.039.27-.31.89-.271.657-.309.812-.465,3.481,2.032-.22,4.04-.621,6-1.2.061-.025.127-.038.193-.039.271,0,.271.039.7,1.277.25.69.431,1.403.541,2.128,0,.271-.116.425-.5.542-2.311.604-4.665,1.031-7.041,1.276,0,2.747,0,2.863.039,4.217,2.484-.294,4.917-.919,7.235-1.857.12-.065.251-.104.387-.117.232,0,.309.117.7,1.045.345.779.592,1.597.735,2.437,0,.193-.155.348-.426.464-2.744.93-5.571,1.591-8.443,1.974.077,1.47.154,2.283.387,5.3,1.643.443,3.227,1.081,4.719,1.9,1.619.782,3.139,1.756,4.527,2.9.264.15.427.431.425.735-.234.755-.601,1.462-1.083,2.089-.851,1.277-1.277,1.78-1.547,1.78-.133,0-.259-.057-.348-.155-1.859-1.883-4.033-3.428-6.422-4.565.023,1.46-.566,2.863-1.625,3.868-1.315,1.277-3.52,1.974-6.267,1.974-4.758,0-7.7-2.089-7.7-5.455-.001-1.464.6-2.863,1.663-3.869,1.509-1.393,3.791-2.127,6.693-2.127.906.008,1.81.073,2.708.193-.193-2.514-.271-3.4-.31-4.217-.89.039-1.392.039-1.857.039-2.609,0-5.208-.325-7.737-.967-.387-.117-.542-.31-.542-.619.103-1.147.297-2.284.581-3.4,2.729.621,5.519.932,8.317.928h1.122l.003-.008ZM180.717,41.636c-2.476,0-3.83.735-3.83,2.05,0,1.161,1.122,1.779,3.288,1.779,2.514,0,3.675-.889,3.675-2.823v-.658c-1.022-.269-2.078-.386-3.134-.348" fill="#fff" stroke-width="0"/><path id="bd" d="M215.384,26.046c-.936.213-1.854.498-2.747.851-.316.149-.657.241-1.005.271-.852,0-1.625-1.586-2.321-4.913,2.57-.128,5.129-.425,7.66-.889,4.643-.7,10.522-1.587,13.617-1.974,3.481-.464,6.267-.929,7.737-1.238.187-.059.384-.085.58-.077.5,0,.7.232,1.045,1.2.301.808.483,1.655.541,2.515,0,.464-.154.619-.7.619-.765.004-1.528.068-2.283.193-6.538,1.083-11.76,6.808-11.76,12.843,0,4.527,3.559,7.5,9.594,8.047.541.039.735.232.735.7-.065,1.254-.313,2.492-.735,3.675-.161.407-.57.659-1.006.619-.973-.09-1.932-.285-2.863-.581-6.577-1.934-10.02-6.112-10.02-12.031-.01-3.178,1.069-6.263,3.056-8.743,1.178-1.464,2.606-2.708,4.217-3.675-5.068.851-10.406,1.857-13.346,2.592M235.187,27.056c.542,0,3.83,3.675,3.83,4.255,0,.194-.232.426-.929,1.045-.735.619-.774.619-1.083.736q-.193.077-.271.077c-.155,0-.193-.039-.89-1.121-.723-1.122-1.566-2.161-2.515-3.1-.083-.09-.149-.195-.193-.31.077-.193.116-.31.155-.31.291-.291.602-.562.929-.812.231-.107.451-.237.657-.387.022-.045.067-.075.117-.077h.193v.004ZM241.802,29.725c-.58.426-.929.658-1.121.658-.155,0-.233-.077-.426-.387-.832-1.347-1.834-2.582-2.979-3.675-.075-.09-.128-.196-.155-.31,0-.193.232-.426.774-.812.349-.292.759-.504,1.2-.619.27,0,.735.348,1.548,1.16.899.837,1.634,1.834,2.167,2.94,0,.232-.271.5-1.006,1.045" fill="#fff" stroke-width="0"/><path id="be" d="M334.479,9.59l1.57-3.282h-7.9l1.637,3.282v34.581l-1.589,3.291h7.852l-1.57-3.291V9.59Z" fill="#fff" stroke-width="0"/><path id="bf" d="M283.205,17.82c1.959-5.171,6.117-9.202,11.346-11,5.661-2.206,11.944-2.206,17.605,0,5.222,1.81,9.375,5.837,11.346,11,2.311,5.872,2.311,12.402,0,18.274-.982,2.561-2.51,4.878-4.477,6.79-1.951,1.875-4.299,3.288-6.869,4.134-2.837.999-5.819,1.525-8.826,1.557-2.992-.034-5.958-.56-8.779-1.557-2.573-.85-4.925-2.262-6.885-4.134-1.957-1.917-3.479-4.233-4.461-6.79-2.311-5.872-2.311-12.402,0-18.274M318.19,18.303c-.703-2.224-1.861-4.278-3.4-6.031-1.404-1.555-3.15-2.763-5.1-3.529-4.03-1.796-8.632-1.796-12.662,0-1.95.765-3.696,1.974-5.1,3.529-1.551,1.744-2.71,3.801-3.4,6.031-.922,2.793-1.383,5.717-1.364,8.658-.02,2.94.441,5.864,1.364,8.655.69,2.231,1.849,4.289,3.4,6.036,1.404,1.555,3.15,2.763,5.1,3.53,4.031,1.791,8.631,1.791,12.662,0,1.95-.767,3.696-1.975,5.1-3.53,1.539-1.755,2.697-3.81,3.4-6.036.917-2.792,1.372-5.716,1.348-8.655.024-2.94-.432-5.864-1.348-8.658" fill="#fff" stroke-width="0"/><path id="bg" d="M269.531,6.308l2.327,3.282v34.081c-.003,1.754-.241,3.5-.706,5.192-3.624,10.606-18.37,10.962-18.37,10.962-.053,0-.151.007-.151.007,0,0-.793,0-.793.451-.006.271.209.494.48.5.008,0,.017,0,.025,0h.006c.008,0,.079.01.1.01h0c21.654,1.009,24.238-12.513,24.479-17.238V9.59l2.391-3.282h-9.788Z" fill="#fff" stroke-width="0"/><path id="bh" d="M374.344,47.465l-.016-37.336,1.027-3.746h-4.687l1.027,3.757v27.014l-29.22-31.118c-.157-.115-.355-.16-.546-.123-.079.011-.155.036-.225.074,0,.011-.016.021-.032.029-.117.09-.197.219-.224.364v36.44l-1.027,4.64h5.136l-1.011-4.633v-26.406l29.798,31.044Z" fill="#fff" stroke-width="0"/><path id="bi" d="M385.706,30.644V10.156l1.2-3.848h-7.222l1.22,3.848v21.406c.004,19.248,18.138,16.409,18.138,16.409,12.406-.935,14.347-10.314,14.588-14.456h.016V10.06l1.044-3.752h-4.687l1.059,3.752v21.67c0,14.09-12.213,13.412-12.213,13.412-7.575,0-10.849-3.691-12.229-7.33-.635-2.336-.943-4.749-.915-7.169" fill="#fff" stroke-width="0"/><path id="bj" d="M434.99,25.248l-6.275-2.747c-2.377-.819-4.359-2.502-5.553-4.714-.763-1.841-.739-3.914.064-5.737.082-.18.179-.354.289-.519.144-.263.305-.516.481-.759.658-.876,1.51-1.587,2.488-2.08,7-3.341,11.523,3.579,11.523,3.579l.851-5.3c-2.216-.725-4.502-1.211-6.821-1.451-1.278-.131-2.569-.087-3.835.132-5.512.932-9.567,5.676-9.629,11.266.098,3.246,1.684,6.266,4.3,8.189,2.224,1.6,4.667,2.871,7.254,3.775.433.162.851.323,1.22.5,1.428.663,5.1,2.73,5.36,6.408.016.184.016.368,0,.552-.513,9.627-9.1,9.2-9.1,9.2-5.425.429-8.939-4.647-8.939-4.647l-.273,5.5c3.112,1.132,6.42,1.629,9.727,1.462,11.94-.26,12.791-11.862,12.791-11.862.787-8.25-5.922-10.747-5.922-10.747" fill="#fff" stroke-width="0"/></g></svg>