<?xml version="1.0" encoding="UTF-8"?><svg id="a" xmlns="http://www.w3.org/2000/svg" width="550" height="66" viewBox="0 0 550 66"><g id="b"><g id="c"><path id="d" d="M36.428,20.588c4.78,6.059,4.92,6.278,6.885,10.459,2.145,4.523,3.613,9.337,4.358,14.287.211,1.3.492,1.66,1.124,1.66,2.006-.401,3.946-1.081,5.763-2.02,1.476-.794,1.827-1.154,1.827-1.877,0-1.515-1.476-6.639-3.022-10.463-2.218-5.498-5.435-10.538-9.489-14.865-.562-.505-.914-.722-1.336-.722-.843,0-3.162,1.3-6.114,3.536M.724,23.469c0,10.1.773,17.391,2.389,23.164,2.531,8.876,6.607,13.349,12.018,13.349,3.725,0,7.239-2.236,9.98-6.349,1.406-2.093,2.46-4.547,2.46-5.7-.028-.551-.224-1.08-.562-1.516-1.968-2.6-2.461-3.68-3.8-7.36-2.6,8.01-4.99,11.473-7.872,11.473-1.9,0-3.514-1.948-4.569-5.339-1.406-4.4-1.968-10.175-1.968-19.411,0-6.567.281-9.309,1.195-11.762.196-.352.293-.751.281-1.154,0-.794-.562-1.227-2.249-1.877-2.429-.837-4.953-1.369-7.514-1.584.141,1.587.211,4.4.211,6.494v7.572Z" fill="#00a44f" stroke-width="0"/><path id="e" d="M64.042,19.867c1.617,5.556,4.006,9.958,5.342,9.958.422,0,.773-.144,2.038-.866,1.158-.67,2.355-1.272,3.584-1.8,10.684-5.051,19.961-7.505,28.324-7.505,6.888,0,11.386,4.4,11.386,11.185,0,6.061-3.3,11.04-9.277,14.071-5.482,2.814-11.175,4.257-21.647,5.556,1.86,1.889,3.34,4.119,4.357,6.567.257.698.946,1.14,1.687,1.083,1.755-.098,3.496-.363,5.2-.794,5.332-.945,10.494-2.671,15.322-5.123,8.434-4.474,13.283-12.268,13.283-21.5.16-4.787-1.554-9.448-4.779-12.989-3.725-3.753-9.277-5.7-16.376-5.7-6.607,0-12.651,1.083-24.318,4.474-7.661,2.165-10.894,2.959-14.127,3.391" fill="#00a44f" stroke-width="0"/><path id="f" d="M150.308,35.164c-1.222-.169-2.409-.535-3.514-1.083-.94-.351-1.577-1.233-1.616-2.236.068-.609.26-1.199.562-1.732q.421-.649.421-.938c0-.361-.211-.577-1.476-1.66-1.617-1.371-2.109-1.732-2.531-1.732-.302-.02-.594.116-.773.36-1.827,1.715-2.825,4.135-2.741,6.639,0,5.123,3.8,8.66,10.754,10.174-.112,1.006-.159,2.019-.141,3.031,0,11.834,5.693,17.679,17.079,17.679,12.159,0,20.171-6.71,20.171-16.886-.08-4.692-1.795-9.209-4.85-12.772-1.406-1.8-2.108-2.309-3.162-2.309-.64.043-1.276.139-1.9.289-1.851.411-3.731.676-5.623.793h-.632c3.374,2.742,4.709,4.33,6.115,7.072,1.06,2,1.615,4.23,1.616,6.494,0,6.206-4.427,9.886-11.808,9.886-6.606,0-9.629-3.031-9.629-9.67,0-.577,0-1.443.071-2.742,2.459.144,4.357.216,5.622.216,1.526.076,3.057.003,4.569-.216.422-.217.492-.577.492-1.877.098-1.794-.068-3.593-.492-5.339-.211-.361-.562-.505-1.265-.505l-3.936.072c-1.362.008-2.723-.064-4.077-.217q.633-3.9,2.109-11.329c1.968.072,3.022.144,4.358.144,2.952,0,3.866-.144,4.076-.5.281-.505.492-3.1.492-6.278,0-.938-.211-1.227-.843-1.227h-.206c-.633,0-1.9,0-3.584.072h-.492c-.563,0-1.476,0-2.179-.072,1.476-7.072,1.546-7.288,2.6-9.525.252-.395.419-.837.492-1.3.07-.577-.211-1.01-.984-1.443-2.677-1.348-5.546-2.273-8.506-2.743-.057,4.678-.552,9.34-1.476,13.926-4.174-.844-8.155-2.459-11.737-4.762-1.968,4.041-2.531,5.484-2.531,6.278,0,.65.281,1.011,1.546,1.877,2.6,1.876,6.4,3.391,11.386,4.4l-1.827,11.691Z" fill="#00a44f" stroke-width="0"/><path id="g" d="M219.643,29.392c-5.9,3.608-8.575,5.989-11.035,9.742-1.843,2.7-2.823,5.895-2.811,9.164-.18,3.967,1.641,7.76,4.85,10.1,3.725,2.6,9.7,3.824,18.7,3.824,5.143.008,10.282-.281,15.392-.866.775-.11,1.314-.827,1.205-1.602-.003-.02-.006-.039-.01-.058-.076-2.298-.31-4.589-.7-6.855-.171-.516-.652-.864-1.195-.866-.308.023-.613.072-.913.145-5.449,1.009-10.976,1.54-16.517,1.587-9.067,0-12.651-1.8-12.651-6.206,0-4.474,3.866-8.443,12.44-12.773,5.286-2.577,10.761-4.748,16.376-6.494,1.195-.361,1.687-.866,1.687-1.66,0-1.01-1.406-3.68-3.163-6.134-1.054-1.371-1.687-1.876-2.319-1.876-.352,0-.492.072-1.406.794-3.374,2.67-9.559,5.989-11.245,5.989-.774,0-1.195-.5-1.617-1.876-.935-3.877-1.43-7.846-1.476-11.834-.019-1.662.217-3.317.7-4.907.116-.4.187-.811.211-1.227,0-.793-.492-1.3-1.546-1.587-2.936-.597-5.93-.863-8.926-.794.71,2.494,1.134,5.06,1.266,7.649.843,8.876,1.124,10.824,2.038,14,.359,1.79,1.296,3.413,2.665,4.621" fill="#00a44f" stroke-width="0"/><path id="h" d="M277.908,65.615c.492,0,1.054-.434,3.726-2.959,2.037-1.877,2.179-2.021,2.179-2.67,0-1.01-3.936-5.845-7.45-9.164-3.092-3.031-7.309-6.206-8.223-6.206-.492,0-.844.289-2.109,1.444-3.092,2.959-3.233,3.175-3.233,3.68,0,.433.281.722.844,1.154,4.99,3.32,10.612,9.237,13.073,13.711" fill="#00a44f" stroke-width="0"/></g><g id="i"><path id="j" d="M334.701,64.534c-.351-2.486-.515-4.995-.492-7.505v-11.401c0-1.3-.071-2.237-.211-6.422,2.7,4.663,6.17,8.835,10.262,12.34,4.209,3.934,8.911,7.305,13.988,10.029,1.232-2.63,2.741-5.122,4.5-7.433-11.175-4.979-18.766-11.185-25.232-20.638h15.178c2.724-.031,5.447.114,8.153.433v-8.082c-2.704.337-5.429.482-8.153.433h-18.485v-9.6h14.759c2.699-.066,5.4.054,8.083.36v-7.937c-2.702.354-5.428.499-8.153.433h-14.689v-4.185c-.06-1.667.058-3.336.351-4.979h-8.293c.275,1.645.393,3.312.352,4.979v4.185h-13.354c-2.701.045-5.402-.1-8.083-.433v7.937c2.707-.296,5.43-.416,8.153-.36h13.284v9.6h-17.08c-2.678.062-5.356-.083-8.012-.433v8.082c2.659-.307,5.335-.452,8.012-.433h13.709c-2.391,3.612-5.198,6.93-8.364,9.886-4.567,4.415-9.812,8.069-15.536,10.824,1.811,2.147,3.368,4.496,4.639,7,4.846-2.839,9.33-6.255,13.354-10.174,3.678-3.394,6.871-7.28,9.488-11.546-.21,3.391-.21,4.185-.21,6.494v11.113c.044,2.487-.121,4.973-.492,7.433" fill="#00a44f" stroke-width="0"/><path id="k" d="M410.55,64.606c-.349-2.341-.513-4.705-.492-7.072v-9.814c0-1.587-.071-3.031-.211-6.566,2.47,3.954,5.473,7.547,8.926,10.679,4.5,4.185,8.575,6.927,15.252,10.464,1.21-2.612,2.745-5.061,4.568-7.288-11.035-4.618-18.414-10.247-24.248-18.329h14.83c2.724-.033,5.447.111,8.152.433v-7.866c-2.58.397-5.192.542-7.8.433h-7.028c2.262-3.68,4.213-7.542,5.833-11.546l-7.1-2.381c-1.593,4.896-3.788,9.575-6.535,13.93h-4.639v-15.01h16.517c2.512-.063,5.025.058,7.52.361v-7.721c-2.656.35-5.334.495-8.012.433h-16.025v-1.876c-.043-1.811.075-3.622.352-5.412h-8.154c.266,1.767.384,3.553.351,5.34v1.948h-14.895c-2.631.03-5.26-.114-7.872-.433v7.721c2.496-.287,5.009-.408,7.521-.361h15.251v15.01h-10.828l5.342-2.454c-1.492-4.161-3.375-8.172-5.623-11.978l-6.325,2.959c2.146,3.624,3.889,7.471,5.2,11.473h-5.834c-2.632.083-5.265-.062-7.872-.433v7.866c2.635-.308,5.287-.452,7.94-.433h13.705c-1.765,2.688-3.841,5.158-6.185,7.36-4.831,4.639-10.416,8.421-16.517,11.185,1.814,2.13,3.349,4.482,4.569,7,4.089-2.205,7.929-4.842,11.456-7.865,4.47-3.657,8.254-8.079,11.175-13.061-.141,2.814-.211,4.257-.211,6.494v9.742c.032,2.367-.132,4.732-.491,7.072" fill="#00a44f" stroke-width="0"/><path id="l" d="M450.809,35.02c.853,1.764,1.993,3.374,3.374,4.763,1.827,1.876,3.092,2.887,3.866,2.887.492,0,.844-.289,1.336-1.155.855-1.393,1.844-2.699,2.952-3.9,3.3-3.968,5.342-6.494,7.59-9.309,3.163-4.041,3.3-4.113,4.639-4.113q1.265,0,5.834,5.124c6.255,6.927,13.143,13.422,18.133,17.03,5.342,3.969,8.294,5.845,9.137,5.845.562,0,.843-.289,1.827-1.732,1.757-2.526,3.374-5.629,3.374-6.422,0-.577-.211-.794-1.827-1.587-5.175-2.658-10.072-5.824-14.619-9.453-5.31-4.238-10.227-8.948-14.689-14.071-2.882-3.175-4.428-4.041-7.38-4.041-2.882,0-4.357.866-7.31,4.257-7.73,8.948-11.6,12.773-16.235,15.875" fill="#00a44f" stroke-width="0"/><path id="m" d="M537.608,41.154c-6.755-.198-12.391,5.118-12.589,11.873s5.118,12.391,11.873,12.589c6.755.198,12.391-5.118,12.589-11.873.004-.131.006-.262.005-.394.069-6.64-5.238-12.089-11.878-12.195M537.608,59.988c-3.647.114-6.695-2.75-6.809-6.397-.114-3.647,2.75-6.695,6.397-6.809,3.647-.114,6.695,2.75,6.809,6.397.002.057.003.113.003.17.064,3.6-2.8,6.571-6.4,6.639" fill="#00a44f" stroke-width="0"/></g></g></svg>