<?xml version="1.0" encoding="UTF-8"?><svg id="a" xmlns="http://www.w3.org/2000/svg" width="80" height="62" viewBox="0 0 80 62"><path id="b" d="m49.77,17.698c-9.718,0-16.383,7.275-16.383,21.761s6.665,22.161,16.383,22.161,16.383-7.676,16.383-22.161-6.663-21.761-16.383-21.761m10.04,26.666c-.112,2.736-1.202,5.341-3.073,7.341l-.009.006c-2.1,1.819-4.792,2.806-7.57,2.776-5.879,0-10.662-4.3-10.662-9.581v-1.216c.002-1.59,1.29-2.878,2.88-2.88h1.738c1.564.002,2.841,1.25,2.88,2.813.036.459.074.964.088,1.115.047.397.161.784.335,1.144.633.895,1.645,1.447,2.74,1.495,1.723.026,3.141-1.349,3.167-3.072,0-.064,0-.129-.003-.193v-15.531c.001-1.59,1.289-2.878,2.878-2.881h1.738c1.591,0,2.88,1.289,2.88,2.88h0s-.007,15.784-.007,15.784Z" fill="#00a44f" stroke-width="0"/><path id="c" d="m9.344.619v7.847c0,1.522-.7,2.218-1.8,2.218-1.079,0-1.795-.734-1.795-2.275h-3.152c0,3.648,1.952,5.262,4.929,5.262s4.983-1.63,4.983-5.352V.619h-3.165Z" stroke-width="0"/><path id="d" d="m40.369.617v6.453l-4.058-6.453h-2.945v12.837h3.085v-6.73l4.215,6.73h2.787V.617h-3.084Z" stroke-width="0"/><path id="e" d="m51.954.617v7.847c0,1.522-.7,2.22-1.794,2.22-1.079,0-1.795-.734-1.795-2.275V.616h-3.153v7.757c0,3.648,1.952,5.3,4.929,5.3s4.983-1.633,4.983-5.355V.618h-3.17Z" stroke-width="0"/><path id="f" d="m61.831,5.604c-1.551-.606-1.934-.9-1.934-1.468v-.018c0-.475.4-.842,1.114-.842,1.051.062,2.051.475,2.839,1.173l1.585-2.457c-1.209-1.04-2.76-1.596-4.355-1.561-2.666,0-4.355,1.633-4.355,3.961v.056c0,2.328,1.619,3.208,3.92,4.034,1.427.532,1.792.843,1.792,1.356v.018c0,.551-.435.936-1.27.936-1.242-.07-2.417-.585-3.31-1.45l-1.673,2.4c1.354,1.24,3.13,1.915,4.965,1.889,2.612,0,4.443-1.54,4.443-4.034v-.036c0-2.182-1.445-3.172-3.763-3.961" stroke-width="0"/><rect id="g" x="28.349" y=".617" width="3.137" height="12.837" stroke-width="0"/><path id="h" d="m20.518.38c-3.677.002-6.657,2.984-6.655,6.661.002,3.677,2.984,6.657,6.661,6.655,3.676-.002,6.655-2.982,6.655-6.658,0-3.678-2.982-6.659-6.66-6.658h-.001m0,10.338c-2.032.13-3.785-1.412-3.915-3.445s1.412-3.785,3.445-3.915,3.785,1.412,3.914,3.445c.005.078.008.157.008.236.062,1.969-1.483,3.615-3.452,3.679" stroke-width="0"/><path id="i" d="m17.724,33.585c-1.296-.032-2.586.194-3.794.667l.507-6.125h14.418v-9.583H5.078l-1.013,21.7,4.679,3.193c2.4-1.6,3.416-2,5.566-2,3.161,0,5.438,1.862,5.438,5.458,0,3.727-2.151,5.458-5.945,5.458-2.909,0-5.69-1.731-8.095-3.994l-4.8,7.19c3.774,3.977,9.064,6.156,14.544,5.989,8.158,0,15.176-5.458,15.176-14.91,0-8.919-5.942-13.046-12.9-13.046" fill="#00a44f" stroke-width="0"/><path id="j" d="m76.811,52.584c-.769.005-1.504.317-2.042.867v-3.326h-2.517v10.349h2.517v-4.251c0-.716.385-1.1.928-1.1s.887.385.887,1.1v4.251h2.515v-5.332c0-1.572-.842-2.558-2.288-2.558" stroke-width="0"/><path id="k" d="m69.377,52.917v-2.1h-2.5v2.1h-.772v2.015h.772v5.547h2.5v-5.546h1.516v-2.015h-1.516Z" stroke-width="0"/></svg>