<svg xmlns="http://www.w3.org/2000/svg" width="406" height="148" viewBox="0 0 406 148"><path d="M65.182 61.808h-8.129a3.2 3.2 0 01-3.2-3.2V4.6a3.2 3.2 0 013.2-3.2h8.129a3.2 3.2 0 013.2 3.2v54.006a3.2 3.2 0 01-3.2 3.2M264.286 146.601h-8.129a3.2 3.2 0 01-3.2-3.2V89.393a3.2 3.2 0 013.2-3.2h8.129a3.2 3.2 0 013.2 3.2v54.006a3.2 3.2 0 01-3.2 3.2M123.817 4.6v5.677a3.2 3.2 0 01-3.2 3.2h-11.358a1.2 1.2 0 00-1.2 1.2v43.928a3.2 3.2 0 01-3.2 3.2h-8.134a3.2 3.2 0 01-3.2-3.2V14.681a1.2 1.2 0 00-1.2-1.2H80.968a3.2 3.2 0 01-3.2-3.2V4.604a3.2 3.2 0 013.2-3.2h39.647a3.2 3.2 0 013.2 3.2M159.753 4.6v5.677a3.2 3.2 0 01-3.2 3.2h-10.157a1.2 1.2 0 00-1.2 1.2v8.629a1.2 1.2 0 001.2 1.2h7.878a3.2 3.2 0 013.2 3.2v5.677a3.2 3.2 0 01-3.2 3.2h-7.878a1.2 1.2 0 00-1.2 1.2v10.73a1.2 1.2 0 001.2 1.2h10.155a3.2 3.2 0 013.2 3.2v5.677a3.2 3.2 0 01-3.2 3.2h-22.687a3.2 3.2 0 01-3.2-3.2v-54a3.2 3.2 0 013.2-3.2h22.687a3.2 3.2 0 013.2 3.2M134.175 89.393v5.677a3.2 3.2 0 01-3.2 3.2h-10.157a1.2 1.2 0 00-1.2 1.2v8.629a1.2 1.2 0 001.2 1.2h7.878a3.2 3.2 0 013.2 3.2v5.677a3.2 3.2 0 01-3.2 3.2h-7.878a1.2 1.2 0 00-1.2 1.2v10.73a1.2 1.2 0 001.2 1.2h10.155a3.2 3.2 0 013.2 3.2v5.677a3.2 3.2 0 01-3.2 3.2h-22.687a3.2 3.2 0 01-3.2-3.2v-53.99a3.2 3.2 0 013.2-3.2h22.687a3.2 3.2 0 013.2 3.2M354.082 89.393v5.677a3.2 3.2 0 01-3.2 3.2h-10.157a1.2 1.2 0 00-1.2 1.2v8.629a1.2 1.2 0 001.2 1.2h7.878a3.2 3.2 0 013.2 3.2v5.677a3.2 3.2 0 01-3.2 3.2h-7.878a1.2 1.2 0 00-1.2 1.2v10.73a1.2 1.2 0 001.2 1.2h10.155a3.2 3.2 0 013.2 3.2v5.677a3.2 3.2 0 01-3.2 3.2h-22.687a3.2 3.2 0 01-3.2-3.2v-53.99a3.2 3.2 0 013.2-3.2h22.687a3.2 3.2 0 013.2 3.2M198.641 31.376L213.67 3.098a3.201 3.201 0 012.828-1.7h8.443a3.2 3.2 0 013.2 3.2v54.005a3.2 3.2 0 01-3.2 3.2h-7.253a3.2 3.2 0 01-3.2-3.2v-29.29a.4.4 0 00-.756-.183l-10.783 20.957a3.2 3.2 0 01-2.847 1.738h-3.877a3.201 3.201 0 01-2.854-1.75L182.849 29.41a.4.4 0 00-.757.182v29.011a3.2 3.2 0 01-3.2 3.2h-7.253a3.2 3.2 0 01-3.2-3.2V4.601a3.2 3.2 0 013.2-3.2H180a3.2 3.2 0 012.825 1.69l15.113 28.287a.4.4 0 00.707 0M274.218 16.235a3.231 3.231 0 01-4.256-.365c-2.13-2.347-4.882-3.266-9.147-3.266-4.815 0-6.917 2.189-6.917 5.253 0 3.59 3.152 5.6 10.769 7.792 13.133 3.765 18.124 8.668 18.124 19 0 10.944-7.354 18.036-21.1 18.036-9.43 0-16.237-1.984-21.569-7.045a3.208 3.208 0 01.384-4.939l5.6-3.927a3.159 3.159 0 013.95.219c2.678 2.487 5.955 3.609 10.413 3.609 5.6 0 7.792-2.364 7.792-5.253 0-3.5-2.451-5.253-11.382-8.142-12.256-3.94-17.51-9.543-17.51-19.262 0-9.98 6.566-17.422 21.275-17.422 8.151 0 14.985 2.32 19.494 7.068a3.193 3.193 0 01-.5 4.773l-5.42 3.871zM86.164 101.028a3.231 3.231 0 01-4.256-.365c-2.13-2.347-4.882-3.266-9.147-3.266-4.815 0-6.917 2.189-6.917 5.253 0 3.59 3.152 5.6 10.769 7.792 13.133 3.765 18.124 8.668 18.124 19 0 10.944-7.354 18.036-21.1 18.036-9.43 0-16.237-1.984-21.569-7.045a3.208 3.208 0 01.384-4.939l5.6-3.927a3.159 3.159 0 013.95.219c2.678 2.487 5.955 3.609 10.413 3.609 5.6 0 7.792-2.364 7.792-5.253 0-3.5-2.451-5.253-11.382-8.142-12.257-3.94-17.51-9.543-17.51-19.262 0-9.98 6.566-17.422 21.275-17.422 8.151 0 14.985 2.32 19.494 7.068a3.193 3.193 0 01-.5 4.773l-5.42 3.871zM311.19 29.262a1.2 1.2 0 00.2-1.647c-2.933-4-4.819-8.133-4.819-13.172 0-8.493 7.441-13.921 17.422-13.921 10.944 0 17.248 5.6 17.248 12.169 0 6.287-5.471 11.246-11.244 15.761a1.2 1.2 0 00-.16 1.745l7.9 8.87a.4.4 0 00.7-.175 21.58 21.58 0 00.332-2.414 3.17 3.17 0 013.179-2.862h7.407a3.194 3.194 0 013.2 3.447 30.549 30.549 0 01-4.327 13.377.388.388 0 00.04.467l4.99 5.559a3.2 3.2 0 01-2.383 5.342h-7.428a3.2 3.2 0 01-2.369-1.048l-1.463-1.609a.386.386 0 00-.482-.077 30.716 30.716 0 01-15.226 3.61c-13.833 0-21.712-8.231-21.712-16.81 0-7.352 4.052-12.522 9-16.612m18.457 18.9l-9.2-10.119a1.208 1.208 0 00-1.835.059 8.701 8.701 0 00-2.235 5.322c0 4.29 3.327 7.179 8.317 7.179a18.943 18.943 0 004.382-.474 1.2 1.2 0 00.571-1.967m-7.76-28.2a1.218 1.218 0 001.827.37c2.818-2.224 4.745-4.373 4.745-6.935 0-2.1-1.664-3.5-4.2-3.5-2.277 0-4.027 1.226-4.027 4.553a12.159 12.159 0 001.657 5.514M177.648 144.689l-8.911-20.222a1.2 1.2 0 00-1.1-.717h-5.545a1.2 1.2 0 00-1.2 1.2v18.447a3.2 3.2 0 01-3.2 3.2h-8.129a3.2 3.2 0 01-3.2-3.2V89.393a3.2 3.2 0 013.2-3.2h19.562c13.92 0 22.851 6.39 22.851 19 0 7.724-3.366 13.009-9.272 15.854a.394.394 0 00-.19.524l9.734 20.455a3.2 3.2 0 01-2.891 4.579h-8.776a3.201 3.201 0 01-2.93-1.912m-10.277-33.021c5.866 0 10.068-.789 10.068-6.479 0-5.778-4.2-6.916-10.068-6.916h-3.277a3.2 3.2 0 00-3.2 3.2v6.991a3.2 3.2 0 003.2 3.2l3.277.004zM213.125 88.683l7.185 31.6a.4.4 0 00.781 0l7.185-31.6a3.2 3.2 0 013.123-2.492h8.544a3.2 3.2 0 013.084 4.065l-15.106 54a3.2 3.2 0 01-3.084 2.34h-8.273a3.2 3.2 0 01-3.085-2.34l-15.1-54a3.2 3.2 0 013.084-4.065h8.544a3.2 3.2 0 013.123 2.492M305.43 104.835a2.016 2.016 0 01-1.978-1.721c-.5-3.136-1.893-5.721-5.236-5.721-4.553 0-6.391 4.378-6.391 14.271v9.455c0 9.456 1.751 14.271 6.391 14.271 3.37 0 4.6-2.01 5.2-5.736a2.006 2.006 0 011.971-1.705h8.261a3.212 3.212 0 013.121 3.93c-2.474 10.8-8.575 15.594-18.555 15.594-11.819 0-20.925-8.318-20.925-26.354v-9.455c0-18.211 9.106-26.353 20.925-26.353 9.072 0 15.908 5.1 18.512 15.548a3.212 3.212 0 01-3.116 3.976h-8.18z" fill="#ea8e9e"/><path d="M54.777 58.604c.008.077-.791-2.753-2-2.608l-.226.027a.914.914 0 00-.644-.231c-.834.1-1.309 1.925-2.371 2.052-.38.045-.692.005-.919.032-3.567.425-4.643 3.015-7.493 4.279-.921 1.956-3.031 2.978-3.876 4.923-2.5 2.3-4.823 4.729-7.31 7.1-1.893 2.84-5.076 4.529-6.8 7.505-2.579.307-3.97 1.55-6.05 2.182-1.435.864-1.917 3.921-3.586 4.121.226 1.9-1.228 2.609-.994 4.581.016.231.069.459.157.673-1.257 1.074-1.995 2.623-3.676 3.362-.831 2.714-3.718 3.674-4.812 6.113-1.366.163-1.4 2.473-2.576 2.922a3.532 3.532 0 00-1.526 3.338c.036.3.691 1.917 1.829 1.781.455-.054.183-.4.713-.469.379-.045.843-.023 1.223-.068.606-.072 2.563-2.384 3.441-3.411.467-.6.274-1.571.653-1.616.152-.018.389.031.54.013.3-.037 1.043-1.586 1.3-2 1.444-.787 1.284-2.769 3.332-3.012.731 1.6 1.928 2.616 2.725 4.138.97.205 1.83.76 2.418 1.558a2.86 2.86 0 00.37-.122c1.213-.144 2.5 1.01 3.795.856.433-.345.752-.812.918-1.34-.2-1.671-2.536-.622-3.1-1.476a12.45 12.45 0 01-4.16-6.506 8.662 8.662 0 013.875-4.926 9.323 9.323 0 012.495-3.6c1.011-1.2 1.344-2.931 3.288-3.392 1.072-.051 1.465.671 2.528.545.181-.015.358-.062.522-.14.153 1.291 1.426.985 2.037 1.6.682 1.844 4.019 3.371 5.826 5.616.628 2.7 2.393 3.946 3.356 6.218l.651 5.462a7.915 7.915 0 00-.455 3.285c.061.54.28 1.05.63 1.466.203.037.412.037.615 0 1.139-.135 1.8-1.06 2.4-1.134.227-.027.541.015.767-.014.3-.035.522-.138.486-.441a.827.827 0 00-.121-.37c.308-.314.429-.766.32-1.192-.073-.609-.306-1.274-.378-1.88-.1-.834.211-2.1.04-3.543-.353-2.96 1.275-7.384 2.086-10.252.8-2.943 1.041-6.125 2.44-7.292l-.263-2.2c2.061-4.016 2.6-9.158 4.324-13.439l-.054-.456c-.371-3.112 1.634-5.659 1.282-8.617m-4.789 6.956c-.155.635-.766 1.323-.675 2.083.172 1.441-1.031 2.969-1.127 4.75a8.478 8.478 0 00-.917 4.57 7.272 7.272 0 00-1.26 4.923c-.829.79-.639 2.384-1.477 3.1.137 2.445-.923 3.882-1.125 6.059.011 1.384-1.328 1.775-1.148 3.291.015.181.063.359.141.523-1.148.06-2.326-2.724-3.094-4.018-.667-1.074-2.012-1.377-2.478-2.706-3.081-1.324-4.836-4.425-8.015-5.276-.226-1.9 2.639-2.392 2.521-3.378l-.036-.3c1.472-.56 1.925-1.923 3.389-2.557.662-1.543 2.675-2.09 3.243-3.773l.379-.045c1.754-.133 1.689-1.972 2.763-2.639a21.78 21.78 0 003.01-2.512c.906-.8 2.444-1.446 2.652-2.932 1.15-.675 2.743-.864 3.281-2.159l.076-.01c.228-.027.255.2.349.343-.678.772-.323 1.808-.452 2.669M145.325 66.103a12.603 12.603 0 00-1.545-4.6c-3.282-.208-2.969 2.413-2.583 5.093 1.111.4 3.409.724 4.128-.492" fill="#e2474e"/><path d="M364.886 64.674c-1.137 1.067-2.914 1.21-4.243 1.768-4.5 1.8-8.3 4.578-12.293 6.715a17.114 17.114 0 00-2.982 1.752c-.763.29-1.78 1.807-2.741.992-.63-1.389.948-.978.758-2.017.183-.688.44-1.317.69-2.011.418-1.514.477-3.248 1.776-4.069-.4-1.08.367-1.371-.035-2.52 1.337-.492 1.5-1.907 1.526-3.372 2.009-2.1 2.544-5.421 4.547-7.588 1.422-2.561 3.725-4.43 4.186-7.81-.818-.168-.6-1.721-1.76-1.384-1.6-.074-1.317 1.22-2.041 1.838a4.577 4.577 0 00-1.634 2.454c-1.377 1.827-2.629 4.169-4.126 5.543a7.916 7.916 0 01-.84.766 25.913 25.913 0 00-2.367 1.876c-.232.295-.61.471-.84.765a7.1 7.1 0 00-.848.7 3.577 3.577 0 01-1.782 1.208 24.688 24.688 0 01-6.612 3.646 2.085 2.085 0 01-2.452.623c-.267-1.7 1.142-2.129 1.527-3.371.677-1.01 2.107-3.508 2.784-4.52 1.128-2.261 3.435-3.533 4.047-6.2a19.072 19.072 0 00-1.471-1.752 3.46 3.46 0 00-2.74.992c-.131.016-.134.548-.256.629-.248.163-.612 1.005-.86 1.166s-.5.857-1.166.8a4.058 4.058 0 01-1.019 2.048c-.123.081-.54-.069-.656.08-.057.072-.075.473-.191.619a2.618 2.618 0 01-.9.773c.114.539-.677 2.056-1.224 2.928-.658.579-1.43 1.273-1.874 1.76-2.272 2.133-5.263 5.482-8.885 6.31a9.576 9.576 0 01-5.387-.02c-.516-1.535.73-1.684.949-2.641.8-1.69 1.823-2.544 2.326-4.464.287-.327.557-.67.807-1.027.159-.351-.082-1.253.509-1.324-.156-1.309-1.48-1.817-1.4-3.356-.628-.789-.964-1.944-1.582-2.669-.465-1.672-.511-3.728-2.064-3.94-1.5-.289-1.087.926-1.367 1.358-.47.521-2.412 2.083-2.391 2.811-1.109.73-3.8 5.5-4.532 6.588-.775.757-2.27 3.261-3.151 4.23-.019-.014.126.063.351.186a7.668 7.668 0 00-2.026 1.941c-1.8 1.079-3.541 2.084-5.341 3.163-.927.576-2.069 1.043-3 1.619-.922.641-1.738.473-2.749.925a8.924 8.924 0 00-1.868.49c-.267-.567-1.878.421-1.683-.73-.606-1.191.615-1.535 1.019-2.049a5.591 5.591 0 011.713-1.8 6.666 6.666 0 011.866-2.749c-.146-1.777 1.551-2.045 1.12-3.989-.521-.469-.646-1.517-1.473-1.752-3.708.11-3.383 3.395-5.837 4.551.156 1.31-.707 1.879-1.276 2.678.04 1.458-.725 2.28-.832 3.623-1-.014-.75.951-1.464 1.1-.519.43-1.19.63-1.86.554.182.975-1.194 1.139-1.745 1.536-.3.237-.478.457-.846.7-.364.31-.911.175-.84.765-1.762.277-3.271 2.117-5.3 1.23-.084-2.384.947-3.769 1.228-5.863.9-.241.85-1.231 1.387-1.759s.63-1.406 1.384-1.761a36.284 36.284 0 002.4-3.81c2.01-.97 2.987-2.815 4.633-4.074 1.025-.322 1.446-1.236 2.3-1.869a18.7 18.7 0 003-1.619c2.071.085 3.013-1.49 4.68-.892.105 1.45-1.84 2.413-.465 3.911.452-.121 1.2-.009 1.207-.477-.055-.457.754-.356.546-.994.886-.371 1.192-1.139 1.648-1.793.473-2.714-.784-4.892-3.131-5.077-2.772.73-4.435 2.39-7.271 3.127-.522 1.192-2.072 1.577-3.248 2.315-.977.715-1.3 1.949-2.927 2.21a8.196 8.196 0 01-2.514 2.891c-1.483 2.037-3.4 3.795-4.741 5.949-.142.2-.264.408-.389.618-2.2 1.5-4.59 2.909-6.869 4.3-2.665 1.049-5.522 2.188-8.2 3.171-1.366-.3-2.315 1.205-3.146.374.1-1.406 1.069-2.188 1.827-3.076a39.314 39.314 0 013.008-7.669c.122-.081-.121-.45-.071-.59a40.37 40.37 0 001.806-3.8c.3-.834 1.042-1.853.583-2.928a12.932 12.932 0 01-1.433-1.424c-1.746.407-2.916 1.743-4.134 2.686-1.4 1.1-2.642 2.374-4.1 3.48-2.771 1.859-6.107 5.647-8.648 7.743-.74.55-1.437 1.156-2.084 1.813a2.456 2.456 0 00-.151-.293c.009.066-2.17 1.855-3.052 2.822-.462.435-.963.925-1.484 1.429-.179.105-.363.2-.551.286.022 0 .049.068.078.166-1.947 1.849-4.266 3.82-6.928 4.429a9.567 9.567 0 01-5.387-.021c-.516-1.535.729-1.683.949-2.641.8-1.689 1.823-2.543 2.324-4.463.289-.327.559-.67.81-1.027.158-.351-.082-1.253.508-1.324-.157-1.309-1.482-1.817-1.4-3.356-.628-.789-.965-1.944-1.582-2.669-.466-1.672-.512-3.728-2.064-3.94-1.5-.289-1.087.925-1.367 1.357-.471.522-2.413 2.084-2.391 2.812-1.109.729-3.8 5.5-4.532 6.588-.774.757-2.27 3.26-3.151 4.229l.032.017c-.126.071-.259.147-.357.193a15.681 15.681 0 00-2.325 1.674c-2.512 2.36-7.431 5.139-10.88 5.75l-.655.078a9.37 9.37 0 01-3.653-1.1c1.444-.7 2.09-1.975 3.534-2.681.292-.9 1.179-1.27 1.681-2.061s1-2.245 1.86-2.812c-.077-2.319 2.013-5.424 1.708-7.981.454-.653.19-1.75.4-2.241.1-.277.246-.162.185-.686-.085-1.253-.25-2.1-1.253-2.708-2.171.191-2.949 1.48-5.267 1.556a14.349 14.349 0 01-4.373 3.446c-.74 1.616-2.414 2.615-2.925 4.47-.877.438-1.088 1.46-1.306 2.417-.431.242-.834 1.43-1.125 2.524a8.703 8.703 0 01-1.514.528c-4.932 2.115-10.311 2.159-12.076-2.615-.593-2.19 1.284-2.614.132-4.47a2.84 2.84 0 00-3.552-.242 13.031 13.031 0 00-1.08 4.317c-.589.07-.331.57-.546 1-.638 1.339-1.74 2.134-2.116 3.441-.283.965-1.671 1.6-1.634 2.456.078.654-.924 1.173-1.1 1.393-.116.146-.077.474-.258.628-1.4 1.1-2.355 2.541-3.688 3.631a22.93 22.93 0 00-2.407 1.55c-1.385.1-.951 1.508-2.7 1.318-1.168-1.988.676-3.8.272-6.08 1.055-1.191 1.167-3.6 2-4.426.058-.074-.127-.517-.07-.59.365-.842.943-1.574 1.308-2.417s.509-1.854 1.315-2.348c.191-.622.669-1.077.729-1.684.254-1.226-.9-.822-.815-1.828-2.39.017-1.921 2.289-3.872 2.653a7.8 7.8 0 01-2.037 4.1c.35 1.07-.169 1.458-.318 2.137-1.315.487-2.35 1.557-3.505 2.04-1.036.787-.926 1.705-2.175 2.385-1.587 1.186-3.073 2.1-4.668 3.215a15.507 15.507 0 01-5.706 2.873c-.765.822-2.6 2.171-4.012 1.475.028-2 1.744-2.666 2.366-4.137 1.332-1.088 2.457-4.479 4.017-5.329 1.136-1.067 1.229-3.072 2.8-3.857.313-1.832 2.24-2.394 2.333-4.4-.775-.374-.5-2-1.8-1.713-1.218-.186-.9.773-1.462 1.1a15.217 15.217 0 01-1.417 1.5c-.184.686-1.1.795-1.058 1.721-.624.34-1.314.688-1.425 1.432-.872.898-1.629 1.9-2.254 2.984-.041-.229-.077-.452-.134-.7-1.893.291-2.751 1.457-3.918 2.261-.436.251-1.259 1.148-1.76 1.406a9.47 9.47 0 01-1.467 1.637 6.708 6.708 0 01-2.218 1.46c-2.576 2.369-3.656 2.231-6.892 4.078-.7.284-.658.612-1.5.779-.469.521-1.572.187-2.2.527-.728.02-1.2 1.671-1.822.883.608-.473.117-1.811 1.019-2.051.446-.748.797-1.549 1.045-2.384.916-1.24 2.819-4.789 3.067-6.613.828-.3.484-1.52 1.385-1.762-.213-1.236 1.259-1.146.98-2.375a3.745 3.745 0 001.011-4.906c-1.675-.664-4.205.966-5.257 1.623-1.285 1.483-3.617 2.559-5 3.786-.3.236-.569.8-.874 1.035a15.638 15.638 0 01-2.3 1.87c-.55.4-.749.953-1.5.844-.233.824-1.119 1.195-1.346 2.086-.883-.16-.388.644-.978.715-.475-.076-.639 1.339-.944.445l.328-.039c-.039-.328.4-.514-.078-.654.629-1.407 1.057-7.3-.182-8.221-1.6-.074-2.341-.12-2.667 1.049-.2.69-.592 4.732-.793 6.717l-.008-.041c-1.893.29-2.751 1.456-3.918 2.26-.435.252-1.259 1.147-1.76 1.407a9.47 9.47 0 01-1.467 1.637 6.683 6.683 0 01-2.219 1.459c-2.576 2.368-3.655 2.232-6.891 4.079-.7.282-.659.61-1.5.778-.469.521-1.572.188-2.2.528-.728.019-1.2 1.67-1.822.881.609-.472.117-1.81 1.019-2.049.445-.749.796-1.55 1.045-2.384.916-1.241 2.819-4.791 3.066-6.613.829-.3.485-1.52 1.386-1.762-.213-1.237 1.259-1.146.98-2.376a3.744 3.744 0 001.01-4.9c-1.674-.665-4.2.967-5.256 1.622-1.285 1.483-3.617 2.559-5 3.786-.3.236-.57.8-.875 1.035a15.592 15.592 0 01-2.3 1.871c-.55.4-.75.953-1.495.842-.233.825-1.12 1.2-1.346 2.088-.883-.161-.388.645-.978.714-.475-.076-.639 1.339-.944.445l.328-.039c-.039-.328.4-.512-.078-.655.63-1.406 1.057-7.3-.183-8.221-1.6-.074-2.34-.118-2.666 1.049-.234.827-.758 6.472-.887 7.618-.521 2.321-2.771 6.31-3.527 8.328a9.015 9.015 0 01-1.6 2.716c-.408 1.047-1.189 1.738-.871 3.3.991 1.077 1.261-.018 2.922-.017.666-.545 1.113-1.263 1.713-1.8.959-.313.672-1.608 1.714-1.8 1.258-1.148 1.515-2.906 2.847-3.995a11.157 11.157 0 011.731-2.2c1.756-2 6.95-6.942 9.462-8.172-.615 1.536-2.186 5.642-2.732 6.638a3.16 3.16 0 01-.577.735c-.058.072.128.516.07.588-.215.426-.643.742-.8 1.094-.198.429-.368.871-.507 1.323-.1.276-.509.193-.551.4-.215.426.078.656-.218.957-.123.081.128.517.078.656a6.884 6.884 0 00-.538 3.853c1.621 1.335 3.952.261 5.779-.023 2.369-1.878 5.36-2.434 7.582-4.425 1.07-1.06 1.691-.868 2.688-1.983 1.676-1 1.876-1.554 2.943-2.079a27.27 27.27 0 004.867-3.771c.023-.178.464-.46.93-.654-.783 1.7-1.647 3.4-2.063 4.511a9.02 9.02 0 01-1.6 2.717c-.408 1.046-1.188 1.737-.87 3.294.993 1.079 1.261-.017 2.922-.016.667-.546 1.112-1.263 1.713-1.8.959-.313.672-1.608 1.714-1.8 1.259-1.146 1.515-2.906 2.846-3.995a11.334 11.334 0 011.732-2.2c1.756-2 6.95-6.942 9.462-8.172-.615 1.536-2.186 5.644-2.731 6.64a3.213 3.213 0 01-.578.734c-.058.072.128.515.07.589-.215.424-.642.741-.8 1.092-.198.429-.367.871-.507 1.323-.1.278-.509.193-.55.4-.216.424.078.656-.219.957-.123.08.128.515.078.656a6.88 6.88 0 00-.538 3.852c1.622 1.335 3.952.26 5.779-.023 2.37-1.879 5.36-2.434 7.582-4.427 1.071-1.058 1.691-.867 2.688-1.983 1.676-.995 1.875-1.552 2.943-2.078a32.468 32.468 0 003.315-2.358 22.793 22.793 0 00-1.915 4.051 5.003 5.003 0 00.146 2.909c.061 1.054 1.166.858 1.465 1.685 1.337-.491 3.08-.366 4.687-.824.123-.081.716-.683.839-.763.632-.275 1.292.242 1.534-.516 1.618-.924 3.676-1.5 5.147-2.541.019-.4 1.933-1.626 2.119-1.183.558-1.462 3.4-1.6 4.133-2.686.454-.651 1.464-1.1 1.845-1.816.017-.011.031-.023.047-.035a11.98 11.98 0 01-.381 1.139c.465 1.673-.327 2.83.484 4.064-.9 1.37.664 2.778 1.109 3.722 2.125.545 3.23-.782 5.334-.967.219-.957 1.4-1.1 2.007-1.57.719-.466 1.414-.97 2.08-1.509 1.34-1.024 2.225-2.527 3.727-3.3-.117-.983.959-1.444 1.346-2.089.52-.659.689-1.477 1.347-2.086 1.119-1.2 1.433-3.03 3.066-3.824.42.42.888.789 1.394 1.1.36.223.9.824 1.394 1.1.425.215 1 .012 1.349.17-.064.008.293.23.3.3.865.562 2.183.471 3.032.9a32.682 32.682 0 006.209-.874 6.554 6.554 0 001.742-.481c.172.918.415 1.82.728 2.7.009 1.2.745 2.9 2.276 2.92a17.157 17.157 0 0010.707 1.181c4.871-.921 12.971-7.141 13.771-8.831.046-.178.063-.362.05-.545l.252.139c1.771-.742 6.283-9.189 8.128-9.875a10.71 10.71 0 011.475 4.011c-1.739 2.135-2.45 4.546-3.97 6.854-.056 1.2-.551 2.059-.25 3.485.677.65 1.276 1.777 2.129 1.674.336.027.227.24.367.289a3.59 3.59 0 001.611.142 28.307 28.307 0 006-.383 23.99 23.99 0 007.774-5.1c.189-.127.382-.265.563-.4a.397.397 0 01.026-.112l.319-.28c.313-.1.734-.112.822-.409.575-.2.489-.924 1.5-.779a3.827 3.827 0 00.321 2.688 8.096 8.096 0 013.411 1.853c1.384-.1 2.658.548 3.91.466 3.979-.075 7.626-2.372 11.12-3.185a16.674 16.674 0 014.212-2.03c.949-.381 1.124-.6 1.821-.884a21.386 21.386 0 002.061-1.11 2.9 2.9 0 00.944-.444c.75-.527 1.142-1.24 2.011-1.81a5.829 5.829 0 01-.858 2 6.054 6.054 0 002.323 6.1 1.723 1.723 0 011.612.141 12.977 12.977 0 003.955-1.4c.9-.773 2.569-1.305 2.988-1.688a15.667 15.667 0 012.96-1.947c.7-.217.858-1.165 1.79-1.144.836-.232.47 1.141 1.065 1.136.16.779 1.3.31 1.46 1.089.548.135 1.8-.545 1.875.109 2.114-.65 3.7-.708 5.967-1.243.761-1.42 2.832-1.334 3.811-2.581.8-.029.887-.372 1.495-.844.551-.4 1.272-.483 1.832-.814 1.043-.725 1.793-1.676 2.837-2.4s.727-1.151 1.779-1.807c.986-.65 2.035-2.436 3.081-3.159-.073.033-.27-.263-.486-.643 1.969-2.758 4.3-6.487 5.5-6.934a10.714 10.714 0 011.475 4.012c-1.739 2.135-2.449 4.545-3.969 6.853-.057 1.2-.552 2.06-.25 3.486.676.65 1.276 1.776 2.128 1.673.336.029.228.241.367.291a3.61 3.61 0 001.612.14 28.242 28.242 0 006-.383c3.156-1.113 5.549-3.15 7.855-5.174a4.746 4.746 0 00.348 3.732c1.543.679 4.075.177 6.368-.1.378-.177.535-.527 1.207-.476a19.326 19.326 0 012.382-1.214c.622-.34 1.857-1.152 2.111-1.248.328-.039.106-.213.3-.3.739-.489 1.7-.8 2.374-1.28.737-.488 1.194-1.672 2.34-1.544-.111.747.073 1.721-.69 2.011-.478.455.217 1.835-.692 2.011.11.916-.726 1.149-.764 1.95-.979 3.508-2.1 6.9-3.226 10.288a24.322 24.322 0 01-3.537 2.682c-.368.243-.844.167-1.206.475-.247.163-.242.76-.48.989-.37.242-.968.248-1.272.483-.271.248-.554.481-.848.7-.608.471-1.143 1-1.743 1.536-1.818 1.479-3.278 3.182-5.192 4.408-.788 1.756-2.578 2.9-3.347 4.254-.6 1.068-1.248 1.81-1.868 2.748-1.454 1.171-1.377 3.488-3.346 4.253-.089.943-.461 1.717-.621 2.6a4.791 4.791 0 00-1.923 2.823c-.392 1.176-1.511 1.84-1.526 3.371-1.37 1.892-1.633 4.713-2.987 6.737.079 1.786-.655 2.87-.787 4.548.16 2.488.903 4.904 2.17 7.052 2.089.814 4.668-.424 6.842-1.147 1.027-.854 1.461-2.235 3.215-2.577a5.745 5.745 0 01.691-2.01c2-1.1 2.745-3.185 4.235-4.625a8.69 8.69 0 00.389-2.307c1.035-.255 1.267-1.081 2.081-1.509-.3-1.959 1.6-2.185 1.38-4.022 1.074.073.853-1.23 1.125-1.728 0 0 .23-.293.224-.359a4.566 4.566 0 00.794-1.69c1.219-2.6 2.43-5.275 3.492-8.059.8-1.093.576-2.993 1.815-3.741.279-1.56 1.072-2.719 1.352-4.28a13.749 13.749 0 001.417-4.289c1-1.05.907-2.967 1.774-4.067 2.145-1.519 4.332-3.243 6.756-4.66 2.5-1.361 4.932-3.246 7.42-4.671.051-.672 1.7-.2 1.83-.819a17.254 17.254 0 014.2-2.1 39.358 39.358 0 016.432-2.36c1.607-.458 2.995-1.087 2.482-3.155-1.722-1.058-2.508.7-5.046.6M188.304 77.435a5.767 5.767 0 01-2.478.96c-.332-3.348 2.172-7.436 3.1-9.739 1.675-1 2.489-3.089 4.265-4.364.493-.326 1.377-.164 2.157-.855.263-.032.31.362.4.551a5.934 5.934 0 01-.938 3.3c-.953 2.041-2.97 6.867-4.747 8.675a13.686 13.686 0 01-1.754 1.47m61.483-12.007c-.009 1.6-2.513 5.684-3.393 6.653a4.383 4.383 0 01-2.26 2.793c-2.714.658-3.9-.93-5.628-2.053a90.563 90.563 0 007.573-7.283c2.3-.806 2.336-3.269 4.559-4.133.018-.4.47-.521.48-.987.509-.194.621.191.733.577-.582.135-.658.61-.506 1.324-.748.422-.744 2.68-1.558 3.109m84.933 24.442c-1.178 1.271-1.109 3.523-2.288 4.793-.032 1.4-.932 2.769-1.454 3.963-.517 1.256-.9 2.5-1.487 3.7-.522 1.191-1.258 2.276-1.789 3.4-.587 1.2-.686 2.608-1.853 3.411a20.239 20.239 0 01-2.3 4.727c-.446.719-1.226 1.408-1.674 2.128-.28.432-.254 1.757-1.345 2.086-.526 1.726-2.583 2.3-3.029 4.149-1.927.562-2.6 2.173-5.121 2.207-1.513-1.547-1.22-4.109-1.108-6.515a36.632 36.632 0 012.357-6.993 59.386 59.386 0 002.763-6.378c.631-.276.75-.953 1.088-1.459.347-.442.98-.715 1.1-1.393.693-.881.945-2.108 1.931-2.756a50.571 50.571 0 016.71-7.845 33.799 33.799 0 015.19-4.406 16.863 16.863 0 012.657-2.245c.671.052.756-.356 1.206-.476.262-.031.309.361.406.616a19.916 19.916 0 00-1.962 5.284M402.877 18.535c-3.118 3.961-5.713 8.39-8.676 12.533-2.259 2.794-3.573 6.273-5.979 8.954-.411.447.057 1.587-.73 1.681-.551.4-.383 1.243-1.088 1.459a11.865 11.865 0 01-1.2 3.335c-.449 1.249-1.427 1.963-.576 3.524.864.561 2.8.065 3.114-.638.582-.135-.638-1.451.1-1.939 1.158-2 2.184-3.983 3.423-5.859s2.828-3.592 3.5-5.8c1.033-.256 1.154-1.468 1.674-2.126.512-.727 1.1-1.4 1.609-2.121 1.023-1.451 1.819-3.141 3.348-4.254.172-1.348 1.362-1.956 1.526-3.372 1.1-1.328 2.51-2.359 3.028-4.149-.757-.773-1.283-1.84-3.071-1.229M379.679 59.245c-.826 1.429-2.839 4.061-.9 5.824l1.573-.188c.618-.936.872-2.163 1.931-2.755 1.139.064 1.1-.8 2.085-.914.3-3.092-2.668-2.87-4.688-1.967" fill="#e2474e"/></svg>