<svg xmlns="http://www.w3.org/2000/svg" width="182" height="112" viewBox="0 0 182 112"><path d="M5.515 10.489a29.265 29.265 0 01-3.683.23c-.792 0-.92-.333-1.1-2.609h1a33.51 33.51 0 003.786-.23v-.537c.02-1.457-.1-2.913-.358-4.348 1.093.005 2.182.125 3.249.358a.421.421 0 01.358.46 1.005 1.005 0 01-.154.511 8.71 8.71 0 00-.383 3.147 34.05 34.05 0 003.223-.794.5.5 0 01.18-.025.366.366 0 01.384.282c.147.63.241 1.272.281 1.918a.49.49 0 01-.333.461c-.306.128-2.174.511-3.81.792v3.3a19.989 19.989 0 016.19-1.253 5.035 5.035 0 015.4 5.346 5.187 5.187 0 01-2.354 4.681 6.415 6.415 0 01-3.146.742 7.515 7.515 0 01-2.609-.281c-.281-.153-.307-.23-.358-.844a6.342 6.342 0 00-.511-2.072c.93.359 1.918.541 2.915.538 1.995 0 3.121-1.024 3.121-2.839a2.619 2.619 0 00-2.788-2.839 15.651 15.651 0 00-5.857 1.457q0 .1.025 1.1.025 1.688.025 2.047c.025.461.025.92.025 1.151 0 2.072-.793 3.07-2.481 3.07a5.67 5.67 0 01-4.323-2.2 3.003 3.003 0 01-.614-1.842c0-1.662 1.484-3.171 4.706-4.834l-.006-4.044zm0 6.855c-1.484.895-2.1 1.484-2.1 2.02 0 .589.844 1.228 1.611 1.228.358 0 .486-.229.486-.818l.003-2.43zm14.273-5.806a11.896 11.896 0 00-4.783-3.07c-.2-.077-.306-.179-.306-.306a5.324 5.324 0 01.971-1.535c.282-.384.307-.409.563-.409a10.07 10.07 0 011.892.665c1.612.742 3.709 2.328 3.709 2.814 0 .461-1.278 2.072-1.662 2.072-.128 0-.23-.052-.384-.23M31.352 11.359c-.161.04-.316.1-.461.18a.57.57 0 01-.332.1c-.538 0-.947-1-1.254-2.891.161.019.324.027.486.025 1.83-.09 3.651-.313 5.449-.665.459-1.688.734-3.42.818-5.167a3.164 3.164 0 00-.025-.435c.977.097 1.939.312 2.865.64.41.153.614.384.614.639a.673.673 0 01-.153.409q-.384.691-1.177 3.5a15.8 15.8 0 011.739-.128 4.249 4.249 0 012.456.613c1.024.743 1.535 2.252 1.535 4.58 0 3.811-.691 7.059-1.867 8.671a3.882 3.882 0 01-3.4 1.663 5.594 5.594 0 01-2.046-.282q-.2-.128-.282-1.074a6.61 6.61 0 00-.537-2 6.485 6.485 0 002.481.511c1.228 0 1.739-.587 2.3-2.634.415-1.629.613-3.306.589-4.987 0-2-.486-2.711-1.842-2.711-.6.005-1.199.057-1.791.153-.077.281-.1.306-.2.665a59.607 59.607 0 01-3.325 8.825c-1.355 2.788-1.687 3.351-2.02 3.351a5.656 5.656 0 01-1.637-.844c-.589-.358-.742-.511-.742-.715q0-.128 1.048-1.791a38.077 38.077 0 003.888-8.953c-1.892.41-2.942.666-3.172.742m13.045-2.865c0-.179.23-.409.972-1 .511-.384.767-.537.946-.537.154 0 .282.076.615.409a19.292 19.292 0 013.734 5.09c.184.338.321.7.409 1.075 0 .256-.077.333-.9 1a3.507 3.507 0 01-1.3.742c-.179 0-.256-.076-.434-.511a18.326 18.326 0 00-1.611-3.172 15.182 15.182 0 00-2.3-2.787.554.554 0 01-.128-.307M60.638 3.737v-.358c1.067.13 2.11.414 3.095.844.153.048.25.199.23.358a.906.906 0 01-.153.41 8.7 8.7 0 00-.691 2.4 34.172 34.172 0 00-.742 7.342 27.3 27.3 0 00.205 3.581l1.356-2.737c.122.486.349.94.665 1.329.205.256.23.333.23.538s0 .2-.486 1.279a15.149 15.149 0 00-1.125 3.453c-.076.409-.153.537-.281.589a5.793 5.793 0 01-1.586.23c-.358 0-.486-.077-.563-.307a29.239 29.239 0 01-1.125-7.878c.061-2.827.309-5.646.742-8.44.13-.778.206-1.564.23-2.353v-.28zm8.723 7.239c-1.433 0-1.842-.051-1.97-.23a5.694 5.694 0 01-.333-2.225v-.384a28.51 28.51 0 003.147.153c1 0 1.561-.025 2.583-.1a19.062 19.062 0 00-.538-5.064h.691c.857-.011 1.713.056 2.558.2a.412.412 0 01.384.409 1.446 1.446 0 01-.077.385 5.053 5.053 0 00-.2 1.585c0 .384.025 1.586.025 1.893v.256a15.802 15.802 0 002.967-.691c.1-.029.202-.046.306-.051.154 0 .23.077.282.23.133.605.2 1.223.2 1.842 0 .409-.076.587-.281.665a26.173 26.173 0 01-3.4.639c.026.716.026 1.1.026 1.509 0 3.761-.461 6.447-1.484 8.467-.921 1.816-2.916 3.939-3.735 3.939-.23 0-.332-.051-.614-.306a6.047 6.047 0 00-1.995-1.33 8.799 8.799 0 003.735-3.53 13.049 13.049 0 001.3-6.062c0-.179 0-.614-.025-1.228-.025-.256-.025-.639-.052-1.151-.92.076-2.992.179-3.5.179m9.592-5.295a2.253 2.253 0 01-.716.307c-.153 0-.2-.052-.281-.256a11.312 11.312 0 00-1.381-2.43c-.358-.435-.358-.461-.358-.538 0-.179.9-.793 1.176-.793.153 0 .511.358.947.972a7.71 7.71 0 011.253 2.123c0 .153-.153.308-.639.614m.87-4.834c.179 0 .486.333 1.023 1.075.47.58.834 1.238 1.075 1.944 0 .153-.23.357-.666.614a1.734 1.734 0 01-.613.256q-.18 0-.513-.716a10.542 10.542 0 00-1.228-2.047c-.2-.281-.23-.333-.23-.409a1.838 1.838 0 011.152-.716M99.057 2.944c.13 1.191.441 2.355.921 3.453a32.206 32.206 0 005.806-2.046c.097-.041.201-.067.306-.077.256 0 .435.461.819 2.123.025.128.025.153.051.256a.196.196 0 01.025.1c0 .18-.1.281-.358.384a38.034 38.034 0 01-5.525 1.739 14.914 14.914 0 005.066 5.7.363.363 0 01.2.308 6.856 6.856 0 01-1 2.123c-.23.333-.383.461-.614.461-.179 0-.23-.025-.562-.281a10.92 10.92 0 00-2.738-1.228 11.607 11.607 0 00-3.273-.435c-3.019 0-4.553.844-4.553 2.481a2.23 2.23 0 001.534 2.072 15.219 15.219 0 005.986.921 13.87 13.87 0 002.047-.128 12.88 12.88 0 00-1.024 2.711c-.128.384-.332.486-1.023.486a25.778 25.778 0 01-5.167-.538c-3.4-.844-5.346-2.762-5.346-5.32a4.78 4.78 0 011.329-3.3 7.717 7.717 0 015.5-1.79 9.6 9.6 0 013.965.715 16.887 16.887 0 01-3.12-4.348 54.012 54.012 0 01-4.373.614c-.9.077-2.866.2-3.249.2-.358 0-.461-.077-.589-.511-.203-.797-.34-1.61-.409-2.43.844.025 1.253.051 1.714.051a45.022 45.022 0 005.729-.46 49.046 49.046 0 01-.92-2.3 10.786 10.786 0 00-.921-2.1 22.966 22.966 0 013.095-.333c.487 0 .666.128.666.435l.005.292zM124.918 11.385q-.051-1.254-.076-2.839a5.29 5.29 0 01-.563.025 25.309 25.309 0 01-4.758-.409c-.256-.077-.307-.128-.307-.385.02-.756.106-1.509.256-2.251 1.56.298 3.144.452 4.732.461.128 0 .358 0 .64-.025V4.278c0-.895-.026-1.3-.077-2.2.928.025 1.852.128 2.762.307.512.1.666.23.666.511 0 .128-.025.179-.205.589a5.91 5.91 0 00-.306 2.3c1.343-.145 2.67-.41 3.965-.792a.351.351 0 01.128-.025c.179 0 .179.025.461.844.165.456.285.927.358 1.406 0 .179-.077.281-.333.358a31.158 31.158 0 01-4.656.844c0 1.815 0 1.892.025 2.787a18.608 18.608 0 004.783-1.228.683.683 0 01.256-.076c.153 0 .2.076.461.69.228.515.391 1.056.486 1.611 0 .128-.1.23-.282.307a29.551 29.551 0 01-5.576 1.3c.052.972.1 1.51.256 3.5a14.17 14.17 0 013.121 1.253 14.894 14.894 0 012.992 1.919.553.553 0 01.281.486 4.422 4.422 0 01-.716 1.381c-.562.844-.843 1.176-1.023 1.176a.315.315 0 01-.23-.1 15.064 15.064 0 00-4.246-3.019 3.455 3.455 0 01-1.075 2.558 5.912 5.912 0 01-4.143 1.3c-3.147 0-5.091-1.381-5.091-3.606a3.52 3.52 0 011.1-2.558 6.378 6.378 0 014.425-1.406c.599.005 1.197.048 1.791.128-.129-1.663-.18-2.251-.205-2.788-.589.026-.921.026-1.228.026a20.77 20.77 0 01-5.116-.64c-.256-.076-.358-.2-.358-.409.068-.759.197-1.512.385-2.251a24.58 24.58 0 005.5.614h.742l-.002.01zm-1.765 7.8c-1.637 0-2.533.486-2.533 1.356 0 .767.742 1.176 2.175 1.176 1.662 0 2.43-.587 2.43-1.866v-.435a7.099 7.099 0 00-2.072-.23M146.916 8.878c-.619.142-1.226.33-1.816.563a1.972 1.972 0 01-.665.179c-.562 0-1.075-1.048-1.534-3.248a38.666 38.666 0 005.065-.589c3.069-.461 6.957-1.048 9-1.3 2.3-.307 4.143-.614 5.115-.819.124-.039.254-.056.384-.051.333 0 .461.153.691.793.199.534.32 1.094.358 1.663 0 .306-.1.409-.461.409a9.418 9.418 0 00-1.509.128c-4.323.716-7.776 4.5-7.776 8.492 0 2.992 2.353 4.962 6.343 5.32.358.025.486.153.486.461a8.545 8.545 0 01-.486 2.429.65.65 0 01-.665.41 8.942 8.942 0 01-1.894-.384c-4.348-1.28-6.624-4.042-6.624-7.955a9.197 9.197 0 012.02-5.781 10.53 10.53 0 012.789-2.43c-3.351.563-6.881 1.228-8.825 1.714m13.1.666a9.23 9.23 0 012.533 2.814c0 .128-.153.281-.614.69-.486.409-.511.409-.716.486q-.128.051-.179.051c-.1 0-.128-.025-.589-.742a12.192 12.192 0 00-1.664-2.05.639.639 0 01-.128-.2c.051-.128.076-.2.1-.2.193-.192.398-.371.614-.537a2.64 2.64 0 00.435-.256.089.089 0 01.076-.051h.128l.004-.005zm4.375 1.765c-.384.281-.614.435-.742.435-.1 0-.153-.052-.281-.257a12.344 12.344 0 00-1.97-2.429.503.503 0 01-.1-.2c0-.128.153-.281.511-.537.231-.193.501-.333.792-.41.18 0 .486.23 1.024.768a6.52 6.52 0 011.432 1.943c0 .154-.179.333-.665.691M174.796 17.959c.461-.409.589-.511.767-.511a10.926 10.926 0 012.994 2.2 12.287 12.287 0 012.711 3.248c0 .23-.052.281-.794.947-.972.895-1.176 1.048-1.356 1.048-.153 0-.307-.1-.434-.358a16.47 16.47 0 00-4.758-4.859c-.2-.154-.306-.256-.306-.41 0-.179.051-.256 1.176-1.3M142.702 60.664a.425.425 0 01.1.281q0 .154-.434 1.329a18.148 18.148 0 00-.971 3.832.492.492 0 01-.444.536l-.017.001a7.51 7.51 0 01-1.712.153c-.256 0-.384-.051-.46-.2a19.418 19.418 0 01-.843-3.68 25.369 25.369 0 01-.256-3.755 56.575 56.575 0 011.252-10.733c.129-.659.223-1.324.281-1.993a8.58 8.58 0 012.734.741c.384.2.537.384.537.614a.873.873 0 01-.179.485c-1.047 1.789-2.018 7.309-2.018 11.4 0 .614.025 1.585.1 2.812.614-1.585.895-2.3 1.457-3.527.153.63.45 1.217.869 1.712m4.293-6.72c-1.227 0-1.482-.051-1.559-.332a8.025 8.025 0 01-.153-1.636c0-.2 0-.409.025-.869.69.051 1.1.076 1.942.076 1.38 0 2.249-.025 3.578-.128a19.955 19.955 0 00-.307-4.855c1.016-.007 2.029.1 3.021.321.384.1.537.229.537.485a1.026 1.026 0 01-.1.384 10.16 10.16 0 00-.434 3.373c.946-.128 1.763-.306 3.3-.665a.56.56 0 01.255-.051c.154 0 .23.077.282.256.08.576.122 1.156.128 1.737 0 .639-.026.742-.282.843a17.606 17.606 0 01-3.7.665c0 1.764.153 4.677.332 6.338a19.67 19.67 0 013.833 2.07c.715.511.869.69.869.869a5.596 5.596 0 01-1 1.891c-.306.434-.461.562-.639.562s-.179 0-.766-.562a13.378 13.378 0 00-2.275-1.738v.205c0 2.249-1.865 3.73-4.7 3.73-2.888 0-4.779-1.533-4.779-3.833s1.942-4.012 4.523-4.012c.709-.017 1.419.026 2.121.128q-.1-1.993-.179-5.417a67.32 67.32 0 01-3.859.153m2.1 7.513c-1.277 0-2.121.587-2.121 1.482 0 .818.791 1.328 2.018 1.328 1.355 0 2.07-.613 2.07-1.788 0-.358-.025-.639-.025-.639a5.152 5.152 0 00-1.942-.384" fill="#4c4948"/><path d="M17.076 56.971c-.358.563-.461.666-.666.666q-.179 0-1.278-.742a16.95 16.95 0 00-3.863-1.766c-.409-.153-.537-.256-.537-.434.141-.446.348-.869.614-1.254.1-.2.2-.357.256-.486.281-.511.409-.665.614-.665 1.294.314 2.548.777 3.735 1.381a20.98 20.98 0 011.943 1.1.475.475 0 01.128.307 6.221 6.221 0 01-.946 1.892m13.173-2.915c.081.177.124.368.128.562 0 .333-.128.537-.614 1.075a36.886 36.886 0 01-6.906 6.037 43.23 43.23 0 01-7.264 3.914 3.688 3.688 0 00-1.254.691c-.23.179-.306.229-.434.229-.486 0-1.356-1.406-2.123-3.427a25.528 25.528 0 008.364-3.428 36.124 36.124 0 005.628-4.247 24.733 24.733 0 003.683-4.349 9.776 9.776 0 00.793 2.943m-10.717-2.098c-.333.41-.461.513-.639.513a.571.571 0 01-.385-.205 16.07 16.07 0 00-4.732-2.993c-.256-.1-.358-.2-.358-.357a.68.68 0 01.153-.385c1.228-1.867 1.28-1.943 1.561-1.943a14.459 14.459 0 014.092 1.995c1.228.819 1.51 1.048 1.51 1.3a6.376 6.376 0 01-1.2 2.072m8.467-1.687a11.369 11.369 0 00-1.894-2.585c-.128-.127-.153-.179-.153-.229 0-.154.153-.333.589-.64.409-.281.562-.384.716-.384.2 0 .46.2 1.1.9a6.933 6.933 0 011.406 1.943c0 .282-1.151 1.2-1.509 1.2-.1 0-.153-.051-.256-.2m3.581-1.919c-.2.171-.436.293-.691.358-.076 0-.128-.025-.256-.23a12.623 12.623 0 00-1.918-2.506.278.278 0 01-.128-.18c0-.23 1.023-.947 1.329-.947.205 0 .563.281 1.075.844a6.758 6.758 0 011.356 1.893c0 .179-.2.358-.767.767M48.188 60.092c-.639-.025-1.177-.025-1.586-.025-3.07 0-5.832.076-6.778.179a8.203 8.203 0 01-.716.077c-.358 0-.409-.153-.563-2.814 1.2.1 2.814.153 6.063.153.562 0 2.967 0 3.581-.025v-2.635h-2.123c-2.354 0-4.425.026-5.628.1-.538.026-.87.052-1 .052a1.68 1.68 0 00-.538.051 1.494 1.494 0 01-.306.025c-.23 0-.333-.076-.384-.23a20.448 20.448 0 01-.23-2.532 72.87 72.87 0 007.75.179c2.865 0 3.837-.025 5.192-.076-.076 1.509-.076 3.172-.076 6.625 0 1.842.051 5.781.1 6.906 0 .051.026.128.026.153a.412.412 0 01-.205.41 7.191 7.191 0 01-1.663.128c-.946 0-.946-.026-.946-.666v-.716c-.9-.025-1.561-.025-2.021-.025-3.99 0-6.932.1-7.75.23a.442.442 0 01-.153.025c-.41 0-.435-.153-.589-2.789 1.151.1 3.044.154 6.062.154.538 0 3.863-.025 4.477-.025l.004-2.889zM70.344 58.509c0 3.223.051 5.6.153 7.342v.179c0 .282-.076.384-.332.41a15.7 15.7 0 01-2.252.128c-.793 0-.87-.052-.87-.486v-.128c.1-1.3.153-4.221.153-7.444v-3.376a41.59 41.59 0 01-4.067 2.4 11.395 11.395 0 01-3.07 1.356.663.663 0 01-.537-.281 9.559 9.559 0 00-2.149-1.867 35.322 35.322 0 007.419-3.53 34.844 34.844 0 007.418-6.191 6.6 6.6 0 00.844-1.2c1.611 1.074 2.763 2.148 2.763 2.634 0 .153-.1.281-.41.409a6.74 6.74 0 00-1.842 1.382 48.281 48.281 0 01-3.223 2.634l.002 5.629zM102.994 53.389c0 1.177-.025 1.33-.358 1.33h-.128c-.895-.052-1.177-.052-7.725-.052-.434 4.093-1.356 6.6-3.325 9.183a10.612 10.612 0 01-2.916 2.711 1.096 1.096 0 01-.537.2.753.753 0 01-.538-.23 6.648 6.648 0 00-2.379-1.33c4.348-2.66 6.062-5.448 6.523-10.513-4.758.025-7.367.1-8.057.2a.618.618 0 01-.205.026.363.363 0 01-.384-.333 10.196 10.196 0 01-.358-2.839c1.3.179 2.788.23 9.157.23v-1.139a20.033 20.033 0 00-.332-4.553c1.122.007 2.243.091 3.354.253.384.077.537.2.537.461 0 .153 0 .179-.179.639a8.365 8.365 0 00-.179 2.123c0 .614 0 .666-.026 2.2 3.5-.025 6.267-.153 7.444-.281a.642.642 0 01.2-.025c.332 0 .409.23.409 1.125v.614h.002zM124.869 61.114c1.637 1.484 2.634 2.558 2.634 2.839 0 .23-.332.639-1.125 1.407-.587.562-.844.742-1.023.742a.633.633 0 01-.384-.18q-.281-.332-1.458-1.662a33.597 33.597 0 00-5.544-4.857 39.714 39.714 0 01-5.807 4.937c-.96.734-2.02 1.328-3.146 1.766-.256 0-.282-.026-.9-.716a9.977 9.977 0 00-1.586-1.381 27.419 27.419 0 007.546-5.039 31.192 31.192 0 006.42-8.16q-8.645.051-10.053.205c-.306.025-.357.025-.409.025a.44.44 0 01-.486-.409 17.775 17.775 0 01-.179-2.943c2.711.271 5.435.382 8.159.333 1.51 0 3.095-.051 3.939-.153.317-.026.629-.104.921-.23a.556.556 0 01.306-.051c.435 0 .9.358 1.51 1.176.371.436.633.953.767 1.51 0 .306-.077.409-.742 1.023a7.998 7.998 0 00-1.381 1.919 37.269 37.269 0 01-2.916 4.067 35.04 35.04 0 014.937 3.837" fill="#00a44f"/><path d="M27.1 97.854a22.111 22.111 0 00-2.4-.1h-6.6c-.76-.012-1.521.022-2.277.1v-1.995a30.408 30.408 0 01-4.654 2.532 8.35 8.35 0 00-1.433-2.481 23.566 23.566 0 006.318-3.632 14.724 14.724 0 003.735-4.067h3.043a17.79 17.79 0 004.247 4.3 21.05 21.05 0 006.19 3.248 8.455 8.455 0 00-1.458 2.711 30.598 30.598 0 01-4.706-2.584l-.005 1.968zm3.811 3.888a38.5 38.5 0 00-1.075 1.253l-4.732 5.985a32.511 32.511 0 00-1.561 2.175l-2.814-1.561a18.217 18.217 0 001.868-2.02l4.041-4.962H15.59a32 32 0 00-3.044.153v-2.788c1.02.106 2.045.157 3.07.154h11.2c.846.037 1.694-.006 2.532-.128l1.563 1.739zm-6.037-6.344c.614 0 .921 0 1.433-.025a20.674 20.674 0 01-4.938-4.706 22.268 22.268 0 01-4.834 4.706c.538.025.819.025 1.433.025h6.906zM44.008 97.751c0-.479-.025-.957-.076-1.433.57.056 1.142.082 1.714.077h5.4v-3.2h-5.167a22.242 22.242 0 01-4.067 4.834 11.049 11.049 0 00-1.791-2.2 15.205 15.205 0 004.783-6.139 8.29 8.29 0 00.589-1.79l2.915.589c-.076.153-.434.92-1.073 2.276H58.72c.846.021 1.692-.022 2.532-.128v2.686a17.854 17.854 0 00-2.532-.128h-4.962v3.2h3.913c.846.014 1.691-.019 2.533-.1v2.583a21.424 21.424 0 00-2.456-.1h-3.99v4.016h5.653c.906.011 1.812-.04 2.711-.154v2.788a20.468 20.468 0 00-2.711-.153h-5.653v3.04c-.031.881.02 1.763.153 2.634h-3.018c.121-.882.173-1.771.154-2.661v-3.018h-8.262a20.433 20.433 0 00-2.686.153v-2.788a19.45 19.45 0 002.686.154h1.227l-.004-5.038zm7.035 1.023h-4.45v4.016h4.451v-4.016z" fill="#4c4948"/><path d="M82.483 92.219h-6.37l-.2 3.172c-.025.511-.077 1.1-.154 1.714a3.97 3.97 0 012.916-1.28c3.2 0 5.142 2.456 5.142 6.548 0 4.5-2.175 7.214-5.755 7.214a5.435 5.435 0 01-3.99-1.611 5.976 5.976 0 01-1.433-2.609l2.839-1.1a4.44 4.44 0 00.767 1.892c.43.569 1.103.901 1.816.895 1.739 0 2.686-1.611 2.686-4.629 0-2.635-.895-4.042-2.558-4.042-1.228 0-1.944.665-2.66 2.379l-2.328-.409.614-10.692h8.671l-.003 2.558zM100.467 106.621a4.678 4.678 0 01-4.582 2.971c-3.914 0-5.653-3.172-5.653-10.309a18.097 18.097 0 011.049-6.906 4.522 4.522 0 014.578-3.043 4.68 4.68 0 014.809 3.453c.654 2.127.948 4.349.87 6.573 0 3.377-.333 5.628-1.075 7.264m-2.609-1.356a20.15 20.15 0 00.563-5.525c.095-2.22-.174-4.44-.794-6.573a1.818 1.818 0 00-1.738-1.278c-.87 0-1.381.409-1.791 1.406a17.407 17.407 0 00-.715 5.806c0 5.806.665 7.929 2.481 7.929.971 0 1.636-.588 1.995-1.765M126.763 88.946c.862.018 1.725-.016 2.583-.1-.077.947-.1 1.484-.1 2.788v16.268c0 2.071-.742 2.557-3.914 2.557-.537 0-1.585-.025-2.686-.076-.1-.93-.35-1.837-.741-2.686 1.188.151 2.383.236 3.58.256 1.024 0 1.152-.051 1.152-.589V91.325h-13.84v2.789c0 6.395-.307 10.052-1.024 12.559a14.546 14.546 0 01-1.892 4.22 10.453 10.453 0 00-2.2-2.175 10.094 10.094 0 001.663-3.657c.587-2.3.844-6.063.844-11.945a41.153 41.153 0 00-.128-4.272c.867.081 1.738.115 2.609.1l14.094.002zm-8.39 6.5h-2.378a17.881 17.881 0 00-1.894.076v-2.328a13.32 13.32 0 001.894.1h2.353a7.755 7.755 0 00-.077-1.484h2.737c-.068.492-.102.988-.1 1.484h2.456c.624.01 1.248-.023 1.867-.1v2.328a17.91 17.91 0 00-1.867-.076h-2.456v1.687h3.012c.743.018 1.487-.015 2.225-.1v2.43a17.408 17.408 0 00-2.225-.1h-8.44c-.735-.015-1.47.018-2.2.1v-2.43c.738.087 1.482.121 2.225.1h2.865l.003-1.687zm6.164 10.1c-.01.538.016 1.076.077 1.611-.589-.026-1.152-.052-1.842-.052h-5.832v1.461h-2.659a10.72 10.72 0 00.128-1.944v-4.4a9.35 9.35 0 00-.1-1.638c.9.052.972.052 1.816.052h6.6c.631.016 1.263 0 1.893-.052a14.22 14.22 0 00-.077 1.714l-.004 3.248zm-7.623-.666h5.116v-2.1h-5.116v2.1zM140.755 97.694c0-.479-.026-.957-.077-1.433.57.056 1.142.082 1.714.077h5.4v-3.2h-5.167a22.242 22.242 0 01-4.067 4.834 11.044 11.044 0 00-1.79-2.2 15.218 15.218 0 004.782-6.139 8.236 8.236 0 00.589-1.79l2.916.589c-.077.153-.435.92-1.075 2.276h11.485c.846.021 1.693-.022 2.533-.128v2.686a17.868 17.868 0 00-2.533-.128h-4.962v3.2h3.914c.846.014 1.691-.019 2.533-.1v2.583a21.424 21.424 0 00-2.456-.1h-3.991v4.016h5.653c.906.011 1.812-.04 2.711-.154v2.788a20.468 20.468 0 00-2.711-.153h-5.653v3.044c-.031.881.02 1.763.153 2.634h-3.018c.121-.882.172-1.771.153-2.661v-3.023h-8.262a20.433 20.433 0 00-2.686.153v-2.788a19.45 19.45 0 002.686.154h1.228l-.002-5.037zm7.034 1.018h-4.451v4.016h4.451v-4.016z" fill="#00a44f"/></svg>