<svg xmlns="http://www.w3.org/2000/svg" width="510" height="55" viewBox="0 0 510 55"><path d="M1.627 13.228c0-1.75-.059-4.1-.181-5.432 2.198.18 4.367.626 6.458 1.328 1.448.542 1.931.906 1.931 1.568.011.338-.073.673-.242.966-.786 2.051-1.026 4.344-1.026 9.837 0 7.723.482 12.55 1.69 16.232.9 2.837 2.293 4.466 3.922 4.466 2.474 0 4.526-2.9 6.758-9.6a18.027 18.027 0 003.259 6.155c.289.362.458.805.483 1.267a11.338 11.338 0 01-2.112 4.768c-2.354 3.438-5.371 5.31-8.57 5.31-4.646 0-8.146-3.742-10.318-11.165-1.389-4.827-2.053-10.922-2.053-19.37v-6.33zm35.906.965c.444.048.854.263 1.147.6a40.063 40.063 0 018.146 12.432c1.328 3.2 2.6 7.482 2.6 8.749 0 .6-.3.906-1.57 1.57a19.204 19.204 0 01-4.947 1.69c-.544 0-.786-.3-.966-1.389a41.925 41.925 0 00-3.741-11.947c-1.69-3.5-1.811-3.682-5.914-8.75 2.534-1.87 4.525-2.957 5.25-2.957" fill="#00a44f"/><path d="M13.999 50.168c-4.715 0-8.21-3.773-10.389-11.214-1.4-4.877-2.054-11.038-2.054-19.39v-6.338c0-1.656-.056-4.061-.181-5.424l-.008-.088.088.01c2.204.18 4.378.627 6.474 1.333 1.517.568 1.978.95 1.978 1.635.01.348-.075.691-.246.994-.782 2.045-1.021 4.338-1.021 9.808 0 7.861.49 12.558 1.686 16.211.909 2.848 2.277 4.416 3.854 4.416 2.426 0 4.49-2.944 6.69-9.546l.066-.194.07.19a17.872 17.872 0 003.248 6.136c.301.373.476.833.5 1.312a11.402 11.402 0 01-2.125 4.808c-2.355 3.445-5.421 5.341-8.627 5.341M1.53 7.877c.118 1.381.173 3.725.173 5.349v6.338c0 8.339.651 14.488 2.05 19.35 2.157 7.373 5.606 11.11 10.25 11.11 3.158 0 6.179-1.874 8.509-5.278a11.263 11.263 0 002.1-4.726 2.137 2.137 0 00-.469-1.226 17.798 17.798 0 01-3.2-5.981c-2.227 6.621-4.254 9.451-6.762 9.451-1.645 0-3.062-1.6-3.99-4.517-1.2-3.667-1.694-8.376-1.694-16.254 0-5.491.242-7.8 1.032-9.861.163-.286.245-.612.235-.941 0-.61-.44-.96-1.883-1.5a26.861 26.861 0 00-6.352-1.314m41.376 31.43c-.6 0-.853-.352-1.037-1.448a41.658 41.658 0 00-3.734-11.93c-1.691-3.5-1.8-3.667-5.906-8.736l-.046-.059.061-.043c2.445-1.8 4.523-2.971 5.293-2.971.462.05.888.271 1.194.621a39.892 39.892 0 018.158 12.458c1.338 3.221 2.6 7.486 2.6 8.778 0 .635-.317.955-1.608 1.632a19.021 19.021 0 01-4.982 1.7m-10.51-22.147c4.067 5.024 4.182 5.2 5.875 8.706a41.789 41.789 0 013.747 11.968c.189 1.128.438 1.328.894 1.328a19.333 19.333 0 004.915-1.682c1.245-.653 1.531-.934 1.531-1.506 0-1.254-1.283-5.574-2.59-8.721a39.74 39.74 0 00-8.13-12.408c-.5-.435-.774-.582-1.1-.582-.736 0-2.752 1.136-5.147 2.9M71.741 13.709c10.018-2.837 15.206-3.741 20.878-3.741 6.1 0 10.862 1.629 14.061 4.766a15.139 15.139 0 014.1 10.862c0 7.725-4.165 14.242-11.4 17.982a48.096 48.096 0 01-13.155 4.285c-1.465.361-2.96.583-4.466.664a1.431 1.431 0 01-1.45-.906 17.216 17.216 0 00-3.741-5.491c8.992-1.086 13.88-2.293 18.586-4.646 5.13-2.534 7.966-6.7 7.966-11.768 0-5.672-3.862-9.354-9.776-9.354-7.181 0-15.147 2.053-24.318 6.277a29.614 29.614 0 00-3.078 1.509c-1.086.6-1.387.723-1.749.723-1.147 0-3.2-3.68-4.587-8.326 2.776-.363 5.552-1.026 12.13-2.837" fill="#00a44f"/><path d="M81.756 48.6a1.5 1.5 0 01-1.51-.942 17.313 17.313 0 00-3.73-5.475l-.1-.1.144-.018c9.037-1.093 13.894-2.307 18.562-4.64 5.112-2.526 7.926-6.682 7.926-11.7 0-5.638-3.81-9.282-9.7-9.282-7.184 0-15.128 2.05-24.29 6.269a29.37 29.37 0 00-3.07 1.506c-1.086.6-1.4.734-1.787.734-1.206 0-3.251-3.682-4.654-8.379l-.024-.082.083-.011c2.688-.35 5.406-.986 12.118-2.834 9.886-2.8 15.16-3.744 20.9-3.744 6.125 0 10.872 1.611 14.11 4.787a15.212 15.212 0 014.125 10.914c0 7.712-4.171 14.29-11.443 18.046a48.12 48.12 0 01-13.174 4.291 24.289 24.289 0 01-4.48.666m-5.037-6.414a17.337 17.337 0 013.653 5.4c.219.563.782.915 1.384.866a24.073 24.073 0 004.451-.662 47.935 47.935 0 0013.138-4.278c7.222-3.731 11.365-10.262 11.365-17.918a15.07 15.07 0 00-4.082-10.811c-3.21-3.149-7.923-4.746-14.01-4.746-5.723 0-10.987.944-20.859 3.738-6.651 1.83-9.387 2.472-12.056 2.827 1.341 4.45 3.392 8.2 4.493 8.2.352 0 .658-.128 1.715-.715a29.591 29.591 0 013.077-1.521c9.179-4.227 17.144-6.282 24.349-6.282 5.982 0 9.848 3.7 9.848 9.426 0 5.078-2.843 9.28-8.006 11.83-4.658 2.33-9.5 3.547-18.466 4.637M138.867 19.562a25.844 25.844 0 01-9.776-3.682c-1.086-.723-1.328-1.026-1.328-1.568 0-.664.483-1.87 2.173-5.251a29.868 29.868 0 0010.078 3.984 61.345 61.345 0 001.267-11.646 25.382 25.382 0 017.3 2.293c.664.362.906.723.845 1.206a2.784 2.784 0 01-.422 1.086c-.9 1.87-.965 2.051-2.232 7.965.6.061 1.387.061 1.87.061h.422c1.448-.061 2.534-.061 3.077-.061h.182c.542 0 .723.242.723 1.027a19.953 19.953 0 01-.422 5.25c-.181.3-.965.422-3.5.422-1.147 0-2.053-.061-3.742-.122q-1.267 6.216-1.81 9.475c1.162.127 2.331.188 3.5.181l3.379-.061c.6 0 .906.122 1.086.422.364 1.459.507 2.965.422 4.466 0 1.086-.059 1.389-.422 1.57a20.829 20.829 0 01-3.922.181c-1.086 0-2.715-.061-4.827-.181-.061 1.086-.061 1.81-.061 2.293 0 5.552 2.6 8.086 8.267 8.086 6.336 0 10.138-3.078 10.138-8.267a11.38 11.38 0 00-1.387-5.432c-1.208-2.293-2.354-3.621-5.251-5.914h.544a31.913 31.913 0 004.827-.664c.535-.125 1.08-.206 1.629-.242.906 0 1.509.424 2.717 1.931a16.608 16.608 0 014.163 10.682c0 8.509-6.88 14.12-17.32 14.12-9.774 0-14.662-4.888-14.662-14.784-.016-.846.024-1.693.12-2.534-5.974-1.267-9.232-4.224-9.232-8.509a7.187 7.187 0 012.354-5.552.771.771 0 01.664-.3c.362 0 .784.3 2.171 1.448 1.086.906 1.267 1.086 1.267 1.387q0 .242-.362.786a3.722 3.722 0 00-.483 1.448 2.086 2.086 0 001.389 1.87c.951.459 1.969.765 3.016.906l1.571-9.776z" fill="#00a44f"/><path d="M151.056 53.245c-4.89 0-8.608-1.245-11.05-3.7s-3.686-6.214-3.686-11.155c-.015-.827.023-1.655.114-2.477-6.035-1.3-9.226-4.258-9.226-8.566a7.23 7.23 0 012.374-5.6.835.835 0 01.715-.323c.389 0 .822.312 2.218 1.466 1.1.915 1.294 1.1 1.294 1.443 0 .262-.008.274-.374.824a3.628 3.628 0 00-.47 1.408 2.023 2.023 0 001.346 1.806 9.722 9.722 0 002.928.883l1.546-9.632a25.845 25.845 0 01-9.734-3.68c-1.091-.728-1.358-1.046-1.358-1.627 0-.7.53-1.981 2.179-5.282l.037-.072.067.043a29.658 29.658 0 009.982 3.958 61.052 61.052 0 001.251-11.563v-.085l.083.016a25.647 25.647 0 017.325 2.3c.682.373.946.755.88 1.278a2.83 2.83 0 01-.429 1.109c-.909 1.88-.976 2.109-2.21 7.87.589.051 1.331.051 1.782.051h.422c1.448-.059 2.549-.059 3.078-.059h.181c.6 0 .8.277.8 1.1a19.593 19.593 0 01-.432 5.285c-.184.306-.784.459-3.563.459-.784 0-1.472-.029-2.342-.066-.4-.016-.832-.035-1.341-.053-1.245 6.106-1.256 6.165-1.784 9.334a29.98 29.98 0 003.416.174l3.378-.061c.63 0 .952.13 1.149.458a14.61 14.61 0 01.434 4.5c0 1.086-.061 1.434-.462 1.634a19.975 19.975 0 01-3.955.189c-1.088 0-2.69-.059-4.76-.178-.056 1.045-.056 1.749-.056 2.218 0 5.542 2.528 8.014 8.2 8.014 6.3 0 10.066-3.064 10.066-8.2a11.25 11.25 0 00-1.379-5.4c-1.224-2.326-2.4-3.648-5.23-5.89l-.163-.13h.75a31.74 31.74 0 004.814-.661 9.914 9.914 0 011.643-.243c.934 0 1.557.438 2.771 1.957a16.745 16.745 0 014.179 10.726 12.848 12.848 0 01-4.771 10.307c-3.117 2.542-7.48 3.885-12.619 3.885m-20.758-31.68a.695.695 0 00-.606.274 7.106 7.106 0 00-2.339 5.507c0 4.248 3.173 7.166 9.176 8.438l.064.014-.008.064a19.027 19.027 0 00-.12 2.526c0 4.9 1.227 8.619 3.645 11.053s6.1 3.661 10.947 3.661c10.477 0 17.246-5.515 17.246-14.05a16.6 16.6 0 00-4.147-10.635c-1.182-1.477-1.778-1.9-2.659-1.9a9.801 9.801 0 00-1.616.24 32.125 32.125 0 01-4.842.664h-.336a16.409 16.409 0 015.107 5.81 11.403 11.403 0 011.4 5.464c0 5.221-3.816 8.339-10.21 8.339-5.69 0-8.339-2.592-8.339-8.158 0-.482 0-1.208.061-2.3v-.072h.072c2.1.12 3.725.181 4.822.181 1.303.076 2.61.017 3.9-.176.312-.157.378-.41.378-1.5a15.297 15.297 0 00-.411-4.426c-.168-.282-.456-.39-1.026-.39l-3.387.068h-.027a30.681 30.681 0 01-3.482-.181l-.077-.008.013-.077q.542-3.259 1.811-9.475l.011-.061h.061c.536.019.992.038 1.4.054.869.037 1.554.066 2.336.066 2.338 0 3.269-.106 3.438-.387a20.55 20.55 0 00.413-5.213c0-.816-.2-.954-.653-.954h-.181c-.528 0-1.629 0-3.075.059h-.426c-.475 0-1.27 0-1.877-.061l-.08-.008.016-.078c1.254-5.854 1.317-6.077 2.238-7.981.209-.32.351-.679.416-1.056.058-.464-.184-.8-.808-1.142a25.373 25.373 0 00-7.2-2.272 61.115 61.115 0 01-1.267 11.576l-.014.07-.07-.014a29.79 29.79 0 01-10.034-3.95c-1.611 3.226-2.13 4.48-2.13 5.147 0 .491.179.765 1.294 1.509a25.784 25.784 0 009.75 3.67l.069.014-1.592 9.918-.075-.016a10.045 10.045 0 01-3.034-.91 2.16 2.16 0 01-1.427-1.936c.06-.523.227-1.028.491-1.483q.354-.53.354-.749c0-.262-.152-.424-1.242-1.333-1.342-1.109-1.786-1.432-2.126-1.432M198.155 20.649c-.784-2.654-1.026-4.285-1.75-11.707a27.962 27.962 0 00-1.086-6.4 35.389 35.389 0 017.664.664c.906.242 1.328.664 1.328 1.328a4.58 4.58 0 01-.181 1.026 13.251 13.251 0 00-.6 4.1c.04 3.338.465 6.66 1.267 9.9.362 1.147.723 1.57 1.387 1.57 1.448 0 6.758-2.776 9.656-5.01.784-.6.9-.662 1.206-.662.542 0 1.086.422 1.992 1.568 1.507 2.051 2.715 4.285 2.715 5.13 0 .664-.422 1.086-1.45 1.387a101.317 101.317 0 00-14.059 5.432c-7.362 3.621-10.682 6.939-10.682 10.68 0 3.682 3.078 5.19 10.862 5.19 4.756-.039 9.5-.484 14.181-1.328a4.95 4.95 0 01.784-.12c.461-.002.873.288 1.027.723.335 1.895.535 3.81.6 5.733a1.19 1.19 0 01-1.026 1.389c-4.388.488-8.801.729-13.216.723-7.725 0-12.853-1.026-16.051-3.2a9.803 9.803 0 01-4.165-8.448 13.254 13.254 0 012.414-7.664c2.112-3.138 4.4-5.128 9.474-8.146a6.966 6.966 0 01-2.293-3.862" fill="#00a44f"/><path d="M208.774 52.04c-7.754 0-12.867-1.021-16.091-3.211a9.827 9.827 0 01-4.2-8.507 13.4 13.4 0 012.426-7.7c2.126-3.16 4.421-5.139 9.413-8.118a7 7 0 01-2.242-3.83c-.782-2.646-1.027-4.29-1.752-11.72a27.914 27.914 0 00-1.083-6.382l-.029-.094h.1a34.87 34.87 0 017.682.666c.942.253 1.381.7 1.381 1.4a4.682 4.682 0 01-.182 1.043 13.094 13.094 0 00-.6 4.085c.04 3.329.464 6.643 1.264 9.875.354 1.122.7 1.518 1.32 1.518 1.4 0 6.7-2.754 9.611-4.994.782-.6.923-.678 1.25-.678.574 0 1.13.434 2.048 1.6 1.584 2.152 2.731 4.328 2.731 5.174 0 .7-.462 1.152-1.5 1.456a101.911 101.911 0 00-14.05 5.427c-7.357 3.619-10.638 6.893-10.638 10.616 0 3.635 3.126 5.117 10.789 5.117a82.939 82.939 0 0014.17-1.326c.263-.062.531-.103.8-.122.489-.002.926.304 1.09.765.341 1.905.545 3.831.611 5.765a1.258 1.258 0 01-1.032 1.449l-.045.007c-4.395.493-8.814.736-13.237.728m-13.36-49.421c.594 2.058.95 4.178 1.061 6.317.725 7.418.97 9.058 1.749 11.693a6.878 6.878 0 002.272 3.829l.072.066-.083.05c-5.03 2.994-7.328 4.968-9.451 8.125a13.262 13.262 0 00-2.4 7.624 9.69 9.69 0 004.133 8.389c3.2 2.173 8.286 3.186 16.01 3.186 4.41.009 8.817-.232 13.2-.723a1.118 1.118 0 00.97-1.317 40.707 40.707 0 00-.6-5.712 1.007 1.007 0 00-.957-.674 4.983 4.983 0 00-.768.118 82.979 82.979 0 01-14.2 1.33c-7.765 0-10.933-1.523-10.933-5.261 0-3.786 3.306-7.1 10.72-10.746a101.821 101.821 0 0114.074-5.435c.978-.288 1.4-.683 1.4-1.318 0-.806-1.162-2.994-2.7-5.088-.875-1.107-1.418-1.539-1.934-1.539-.275 0-.376.045-1.163.65-2.984 2.3-8.242 5.022-9.7 5.022-.7 0-1.08-.424-1.458-1.619a43.411 43.411 0 01-1.27-9.918 13.248 13.248 0 01.606-4.123c.096-.326.156-.661.178-1 0-.627-.4-1.027-1.274-1.259a34.52 34.52 0 00-7.549-.659M250.23 38.45c1.086-.966 1.389-1.206 1.811-1.206.784 0 4.4 2.654 7.059 5.189 3.018 2.776 6.4 6.819 6.4 7.664 0 .542-.12.664-1.87 2.232-2.293 2.112-2.776 2.475-3.2 2.475-.362 0-.725-.242-1.026-.845-2.112-3.742-6.941-8.69-11.224-11.466-.483-.362-.725-.6-.725-.966 0-.422.122-.6 2.776-3.077" fill="#00a44f"/><path d="M260.429 54.876c-.3 0-.725-.154-1.091-.885-2.12-3.758-6.936-8.675-11.2-11.438-.514-.384-.757-.635-.757-1.026 0-.462.155-.667 2.8-3.13 1.069-.95 1.4-1.224 1.858-1.224.8 0 4.458 2.677 7.11 5.208 3.059 2.814 6.419 6.853 6.419 7.717 0 .574-.134.707-1.894 2.286-2.277 2.1-2.792 2.493-3.246 2.493m-10.149-16.376c-2.667 2.486-2.752 2.638-2.752 3.024 0 .33.224.555.7.909 4.275 2.77 9.11 7.709 11.243 11.486.264.53.6.81.963.81.4 0 .933-.413 3.149-2.456 1.762-1.579 1.848-1.68 1.848-2.179 0-.818-3.4-4.872-6.373-7.611-2.582-2.466-6.253-5.171-7.013-5.171-.389 0-.661.211-1.762 1.189M329.1 7.855a46.663 46.663 0 007-.362v6.64a51.883 51.883 0 00-6.939-.3h-12.672v8.026h15.87c2.339.041 4.678-.08 7-.362v6.758a55.866 55.866 0 00-7-.362h-13.035c5.552 7.9 12.069 13.094 21.664 17.258a34.189 34.189 0 00-3.862 6.216 57.148 57.148 0 01-12.008-8.389 40.195 40.195 0 01-8.811-10.318c.122 3.5.182 4.285.182 5.371v9.534c-.02 2.099.121 4.197.422 6.275h-7.363c.319-2.056.46-4.136.422-6.216v-9.291c0-1.931 0-2.6.182-5.43a45.895 45.895 0 01-8.147 9.654 59.524 59.524 0 01-11.466 8.509 30.475 30.475 0 00-3.982-5.853 51.115 51.115 0 0013.336-9.053 46.565 46.565 0 007.181-8.266h-11.766a57.92 57.92 0 00-6.88.362v-6.763c2.281.292 4.581.413 6.88.362h14.662v-8.022h-11.4a55.856 55.856 0 00-7 .3v-6.64c2.302.279 4.62.4 6.939.362h11.466v-3.5a21.348 21.348 0 00-.3-4.163h7.12a19.239 19.239 0 00-.3 4.163v3.5H329.1z" fill="#00a44f"/><path d="M316.991 53.906h-7.53l.014-.083c.318-2.053.459-4.129.421-6.206v-9.293c0-1.877 0-2.552.163-5.162a46.011 46.011 0 01-8.008 9.44 59.535 59.535 0 01-11.478 8.518l-.064.037-.035-.066a30.48 30.48 0 00-3.974-5.842l-.059-.072.083-.038a50.917 50.917 0 0013.318-9.04 46.616 46.616 0 007.091-8.142h-11.626a57.973 57.973 0 00-6.87.36l-.08.01v-6.92l.082.01c2.277.293 4.573.414 6.869.363H309.9v-7.874h-11.334a56.295 56.295 0 00-6.992.3l-.08.01v-6.8l.08.008c2.299.281 4.615.402 6.931.363h11.394V4.358a21.361 21.361 0 00-.3-4.149l-.016-.086h7.294l-.016.086a19.169 19.169 0 00-.3 4.149v3.429h12.54a46.65 46.65 0 006.989-.363l.083-.011v6.8l-.082-.011a52.438 52.438 0 00-6.931-.3h-12.6v7.882h15.8a50.55 50.55 0 006.99-.363l.082-.01v6.923l-.08-.013a56.321 56.321 0 00-6.992-.36h-12.9c5.538 7.845 11.992 12.97 21.555 17.122l.083.034-.054.074a34.225 34.225 0 00-3.856 6.206l-.034.066-.066-.035a56.956 56.956 0 01-12.021-8.4 40.237 40.237 0 01-8.682-10.11c.043 1.256.078 2.146.106 2.824.043 1.086.065 1.629.065 2.283v9.534a40.93 40.93 0 00.422 6.266l.013.081zm-7.36-.146h7.194a41.214 41.214 0 01-.411-6.2v-9.534c0-.651-.021-1.194-.064-2.278-.03-.725-.069-1.69-.117-3.09l-.009-.266.142.224a40.274 40.274 0 008.8 10.3 56.746 56.746 0 0011.925 8.35 33.867 33.867 0 013.781-6.086c-9.59-4.176-16.056-9.338-21.611-17.248l-.08-.114h13.173a57.065 57.065 0 016.928.352v-6.594c-2.299.272-4.613.39-6.928.352h-15.938v-8.17h12.744c2.294-.05 4.588.047 6.869.29v-6.47c-2.298.283-4.613.4-6.928.35h-12.685V4.355a19.627 19.627 0 01.286-4.093h-6.947c.225 1.352.321 2.723.288 4.093v3.573h-11.538a51.157 51.157 0 01-6.867-.352v6.475a56.637 56.637 0 016.928-.293h11.477v8.17h-14.736a46.64 46.64 0 01-6.807-.352v6.594c2.26-.25 4.533-.368 6.807-.352h11.906l-.078.114a46.891 46.891 0 01-7.192 8.278 50.973 50.973 0 01-13.272 9.026 30.221 30.221 0 013.9 5.726 59.372 59.372 0 0011.389-8.461 45.441 45.441 0 008.134-9.642l.15-.232-.018.277c-.181 2.834-.181 3.486-.181 5.424v9.293c.037 2.056-.1 4.111-.41 6.144M361.576 30.545a56.705 56.705 0 00-6.819.362v-6.578c2.238.311 4.499.432 6.758.362h5.01a47.826 47.826 0 00-4.466-9.594l5.43-2.474a57.788 57.788 0 014.827 10.016l-4.586 2.051h9.293V12.14h-13.094a50.112 50.112 0 00-6.458.3V5.984c2.242.267 4.5.387 6.758.362h12.794V4.717a25.97 25.97 0 00-.3-4.466h7a25.2 25.2 0 00-.3 4.525v1.57h13.756a45.863 45.863 0 006.88-.362v6.456a45.688 45.688 0 00-6.458-.3h-14.18v12.55h3.982a51.415 51.415 0 005.613-11.645l6.094 1.99a64.366 64.366 0 01-5.008 9.654h6.034c2.24.092 4.483-.029 6.7-.362v6.578a55.118 55.118 0 00-7-.362h-12.735c5.01 6.758 11.346 11.466 20.819 15.328a28.544 28.544 0 00-3.922 6.094 55.49 55.49 0 01-13.094-8.75 42.67 42.67 0 01-7.664-8.931c.12 2.957.181 4.165.181 5.491v8.208a36.706 36.706 0 00.422 5.914h-7.242c.309-1.956.45-3.934.422-5.914v-8.147c0-1.87.061-3.077.181-5.43a41.01 41.01 0 01-9.6 10.922 55.816 55.816 0 01-9.835 6.578 27.51 27.51 0 00-3.923-5.853 50.743 50.743 0 0014.181-9.354 34.447 34.447 0 005.31-6.155h-11.761z" fill="#00a44f"/><path d="M383.926 53.97h-7.41l.013-.083c.307-1.951.448-3.925.422-5.9V39.84c0-1.819.058-3.048.166-5.152a41.212 41.212 0 01-9.462 10.7 56.271 56.271 0 01-9.85 6.586l-.062.034-.034-.062a27.626 27.626 0 00-3.914-5.842l-.062-.074.088-.038a50.89 50.89 0 0014.162-9.341 33.938 33.938 0 005.218-6.03h-11.625a56.762 56.762 0 00-6.81.362l-.08.01v-6.742l.083.013a40.38 40.38 0 006.747.362h4.91a47.742 47.742 0 00-4.424-9.486l-.042-.069.066-.042 5.488-2.5.034.056a58.085 58.085 0 014.832 10.026l.027.066-.064.027-4.278 1.915h8.885V12.212h-13.024a50.318 50.318 0 00-6.448.3l-.08.01V5.903l.08.01a51.97 51.97 0 006.75.362h12.722V4.718c.03-1.491-.07-2.981-.3-4.454l-.011-.083h7.168l-.015.083a24.907 24.907 0 00-.3 4.515v1.5h13.687a46.121 46.121 0 006.869-.36l.083-.013v6.623l-.082-.011a44.809 44.809 0 00-6.448-.3h-14.108v12.408h3.872a51.64 51.64 0 005.582-11.6l.024-.067.067.022 6.17 2.016-.03.072a64.262 64.262 0 01-4.947 9.555h5.906c2.235.09 4.473-.031 6.685-.362l.086-.016v6.746l-.082-.01a55.341 55.341 0 00-6.99-.362h-12.59c5 6.706 11.4 11.4 20.7 15.189l.091.037-.064.075a28.476 28.476 0 00-3.914 6.083l-.032.064-.064-.034a55.41 55.41 0 01-13.11-8.76 42.735 42.735 0 01-7.533-8.733l.04 1c.086 2.077.13 3.118.13 4.243v8.206a36.985 36.985 0 00.422 5.9l.014.08zm-7.242-.144h7.073a37.083 37.083 0 01-.411-5.842v-8.206c0-1.122-.043-2.163-.13-4.237l-.061-1.509.142.213a42.787 42.787 0 007.651 8.918 55.109 55.109 0 0013.016 8.706 28.383 28.383 0 013.835-5.968c-9.338-3.819-15.742-8.546-20.758-15.314l-.085-.115h12.875a56.072 56.072 0 016.928.352v-6.408a36.451 36.451 0 01-6.627.347h-6.162l.067-.11a64.309 64.309 0 004.973-9.573l-5.954-1.946a51.747 51.747 0 01-5.6 11.6l-.021.034h-4.094v-12.7h14.253a45.263 45.263 0 016.386.291V6.068a46.66 46.66 0 01-6.808.35h-13.83v-1.64c-.035-1.49.062-2.981.29-4.454h-6.826a26.16 26.16 0 01.29 4.394v1.7h-12.864a52.227 52.227 0 01-6.686-.352v6.294a50.61 50.61 0 016.384-.293h13.166v12.7h-9.365l-.029-.138 4.523-2.024a57.937 57.937 0 00-4.763-9.888l-5.3 2.414a47.895 47.895 0 014.43 9.539l.035.1h-5.11a40.95 40.95 0 01-6.686-.35v6.409c2.24-.251 4.492-.37 6.746-.354h11.909l-.083.115a34.381 34.381 0 01-5.32 6.165 51.011 51.011 0 01-14.112 9.328 27.46 27.46 0 013.835 5.73 56.12 56.12 0 009.76-6.536 41.03 41.03 0 009.579-10.906l.134.042c-.117 2.277-.182 3.531-.182 5.427v8.147a35.157 35.157 0 01-.41 5.842M434.157 15.882c2.534-2.837 3.8-3.56 6.275-3.56 2.534 0 3.862.723 6.338 3.379a95.536 95.536 0 0012.611 11.766 75.4 75.4 0 0012.552 7.906c1.387.664 1.568.845 1.568 1.328 0 .664-1.387 3.258-2.9 5.37-.845 1.208-1.086 1.45-1.57 1.45-.723 0-3.258-1.57-7.845-4.888a112.245 112.245 0 01-15.568-14.242q-3.923-4.285-5.01-4.285c-1.145 0-1.265.061-3.982 3.44a448.686 448.686 0 01-6.517 7.784 21.087 21.087 0 00-2.534 3.259c-.422.723-.725.965-1.147.965-.662 0-1.749-.845-3.318-2.413a14.808 14.808 0 01-2.9-3.984c3.982-2.594 7.3-5.792 13.939-13.275" fill="#00a44f"/><path d="M469.036 43.591c-.749 0-3.33-1.6-7.886-4.9a112.833 112.833 0 01-15.581-14.251q-3.9-4.261-4.955-4.261c-1.094 0-1.184 0-3.926 3.413-2.067 2.518-3.8 4.6-6.518 7.786a21.041 21.041 0 00-2.526 3.246c-.432.741-.749 1-1.21 1-.646 0-1.686-.75-3.37-2.435a14.82 14.82 0 01-2.909-4l-.034-.058.058-.037c3.92-2.555 7.174-5.654 13.925-13.264 2.544-2.848 3.846-3.584 6.33-3.584 2.526 0 3.9.731 6.389 3.4a94.95 94.95 0 0012.6 11.76 75.183 75.183 0 0012.538 7.9c1.384.661 1.61.856 1.61 1.392 0 .686-1.414 3.317-2.91 5.411-.826 1.179-1.093 1.478-1.627 1.478M440.612 20.03q1.119 0 5.063 4.307a112.628 112.628 0 0015.557 14.232c4.47 3.235 7.1 4.875 7.8 4.875.44 0 .666-.213 1.51-1.419 1.454-2.037 2.883-4.677 2.883-5.328 0-.432-.141-.6-1.528-1.262a75.384 75.384 0 01-12.565-7.914 95.348 95.348 0 01-12.612-11.766c-2.485-2.667-3.776-3.357-6.283-3.357-2.461 0-3.682.694-6.222 3.536-6.728 7.584-9.989 10.694-13.9 13.251a14.657 14.657 0 002.851 3.909c1.656 1.654 2.664 2.392 3.269 2.392.4 0 .685-.243 1.085-.93a20.94 20.94 0 012.542-3.269c2.72-3.186 4.45-5.266 6.515-7.784 2.682-3.336 2.832-3.466 4.038-3.466M508.562 44.485c0 5.633-4.567 10.2-10.2 10.2s-10.2-4.567-10.2-10.2c0-5.633 4.567-10.2 10.2-10.2 5.625.021 10.179 4.575 10.2 10.2m-15.69 0a5.49 5.49 0 1010.982 0 5.49 5.49 0 00-5.491-5.491 5.525 5.525 0 00-5.491 5.491" fill="#00a44f"/><path d="M498.363 54.817c-5.689.017-10.313-4.582-10.33-10.27s4.582-10.313 10.27-10.33c5.688-.017 10.313 4.581 10.33 10.269.01 5.686-4.584 10.307-10.27 10.331m0-20.458c-5.61-.017-10.171 4.516-10.188 10.126s4.516 10.171 10.126 10.188 10.171-4.516 10.188-10.126v-.062c-.006-5.59-4.536-10.12-10.126-10.126m0 15.75a5.595 5.595 0 115.563-5.625 5.6 5.6 0 01-5.563 5.625m0-11.043a5.45 5.45 0 105.419 5.481v-.062a5.424 5.424 0 00-5.419-5.419" fill="#00a44f"/></svg>