<svg xmlns="http://www.w3.org/2000/svg" width="464" height="100" viewBox="0 0 464 100"><path d="M102.555 15.273a44.26 44.26 0 01-5.578.349c-1.2 0-1.394-.5-1.666-3.95h1.51a50.625 50.625 0 005.733-.349v-.813a34.597 34.597 0 00-.542-6.584 23.67 23.67 0 014.92.542c.34.05.579.359.542.7a1.528 1.528 0 01-.234.774c-.349.736-.542 2.131-.581 4.765 1.278-.232 3.331-.736 4.88-1.2a.763.763 0 01.272-.038.555.555 0 01.581.427c.223.953.365 1.923.426 2.9a.744.744 0 01-.5.7c-.464.194-3.291.774-5.77 1.2v5a30.282 30.282 0 019.373-1.9c4.957 0 8.173 3.176 8.173 8.094 0 3.176-1.278 5.733-3.565 7.088a9.726 9.726 0 01-4.763 1.123 11.361 11.361 0 01-3.95-.426c-.426-.232-.466-.349-.542-1.278a9.595 9.595 0 00-.774-3.138c1.408.543 2.905.819 4.414.814 3.021 0 4.726-1.55 4.726-4.3a3.965 3.965 0 00-4.222-4.3 23.693 23.693 0 00-8.869 2.206q0 .155.038 1.666.038 2.557.038 3.1c.038.7.038 1.394.038 1.742 0 3.138-1.2 4.648-3.757 4.648a8.585 8.585 0 01-6.546-3.331 4.551 4.551 0 01-.93-2.789c0-2.517 2.246-4.8 7.126-7.32v-6.122zm0 10.381c-2.246 1.355-3.176 2.246-3.176 3.059 0 .891 1.278 1.859 2.44 1.859.542 0 .736-.347.736-1.238v-3.68zm21.613-8.792a18.025 18.025 0 00-7.243-4.648c-.31-.117-.464-.27-.464-.464.353-.853.85-1.64 1.47-2.325.427-.581.466-.619.853-.619.987.239 1.947.576 2.866 1.006 2.442 1.123 5.616 3.525 5.616 4.261 0 .7-1.936 3.138-2.517 3.138-.194 0-.349-.078-.581-.349M141.676 16.592c-.244.06-.479.151-.7.272a.85.85 0 01-.5.155c-.814 0-1.434-1.512-1.9-4.378.244.028.49.041.736.038a57.81 57.81 0 008.251-1.006 36.54 36.54 0 001.238-7.824c.002-.22-.01-.44-.038-.659 1.48.148 2.936.473 4.338.97.621.232.93.581.93.968a1.024 1.024 0 01-.232.619q-.581 1.046-1.782 5.307a23.927 23.927 0 012.634-.194 6.435 6.435 0 013.718.928c1.55 1.125 2.325 3.41 2.325 6.934 0 5.771-1.046 10.69-2.827 13.13a5.878 5.878 0 01-5.152 2.518 8.472 8.472 0 01-3.1-.427q-.31-.194-.427-1.626a10.037 10.037 0 00-.813-3.022 9.8 9.8 0 003.757.774c1.859 0 2.634-.89 3.486-3.989.629-2.467.928-5.006.891-7.552 0-3.022-.736-4.106-2.789-4.106-.909.008-1.815.086-2.712.232-.117.426-.155.464-.31 1.006a90.239 90.239 0 01-5.035 13.363c-2.051 4.222-2.555 5.074-3.059 5.074a8.515 8.515 0 01-2.478-1.278c-.891-.542-1.123-.774-1.123-1.083q0-.194 1.587-2.712a57.671 57.671 0 005.888-13.557c-2.866.621-4.454 1.008-4.8 1.123m19.754-4.338c0-.27.349-.619 1.472-1.51.774-.581 1.162-.813 1.432-.813.234 0 .427.115.931.619a29.217 29.217 0 015.654 7.707c.278.512.486 1.059.619 1.627 0 .387-.117.5-1.355 1.51a5.328 5.328 0 01-1.976 1.123c-.27 0-.387-.115-.658-.774a27.77 27.77 0 00-2.44-4.8 22.989 22.989 0 00-3.486-4.221.826.826 0 01-.194-.466M186.023 5.049v-.542c1.616.197 3.194.627 4.686 1.278a.5.5 0 01.349.542 1.366 1.366 0 01-.232.621c-.349.619-.466 1.083-1.046 3.64a51.78 51.78 0 00-1.123 11.117 41.292 41.292 0 00.31 5.422l2.053-4.144a5.177 5.177 0 001.006 2.013c.31.387.349.5.349.814s0 .309-.736 1.936a22.959 22.959 0 00-1.7 5.229c-.115.619-.232.813-.426.891a8.783 8.783 0 01-2.4.349c-.542 0-.736-.117-.853-.466a44.251 44.251 0 01-1.7-11.93c.092-4.28.467-8.55 1.123-12.781a26.6 26.6 0 00.349-3.563l-.009-.426zm13.208 10.962c-2.17 0-2.789-.077-2.982-.349a8.629 8.629 0 01-.5-3.37v-.581c1.583.165 3.174.243 4.765.232 1.51 0 2.363-.038 3.912-.155-.117-4.027-.349-6.429-.814-7.669h1.046a21.49 21.49 0 013.874.31.623.623 0 01.581.619 2.142 2.142 0 01-.117.582 7.672 7.672 0 00-.309 2.4c0 .581.038 2.4.038 2.867v.387a23.967 23.967 0 004.493-1.046c.151-.044.307-.07.464-.077.234 0 .349.117.427.349.204.916.307 1.851.309 2.789 0 .619-.115.89-.426 1.006a39.69 39.69 0 01-5.152.968c.04 1.085.04 1.666.04 2.285 0 5.694-.7 9.762-2.246 12.821-1.4 2.75-4.416 5.965-5.656 5.965-.349 0-.5-.077-.93-.464a9.16 9.16 0 00-3.021-2.014 13.318 13.318 0 005.656-5.346 19.76 19.76 0 001.974-9.179c0-.27 0-.93-.038-1.859-.038-.387-.038-.968-.078-1.742-1.394.115-4.531.27-5.306.27m14.525-8.018a3.439 3.439 0 01-1.085.466c-.232 0-.31-.078-.426-.387a17.072 17.072 0 00-2.091-3.68c-.542-.659-.542-.7-.542-.814 0-.27 1.355-1.2 1.781-1.2.232 0 .774.542 1.434 1.472a11.668 11.668 0 011.9 3.214c0 .232-.232.466-.968.93m1.317-7.32c.27 0 .736.5 1.549 1.627a9.617 9.617 0 011.627 2.944c0 .232-.349.541-1.008.93a2.661 2.661 0 01-.928.387q-.272 0-.776-1.085c-.5-1.1-1.124-2.14-1.859-3.1-.309-.426-.349-.5-.349-.619A2.784 2.784 0 01215.08.672M244.199 3.848a17.904 17.904 0 001.4 5.229 48.73 48.73 0 008.792-3.1c.148-.063.304-.102.464-.117.387 0 .659.7 1.24 3.214.038.194.038.232.077.387a.3.3 0 01.038.155c0 .272-.155.426-.543.581a57.627 57.627 0 01-8.366 2.634c2.014 3.757 4.882 7.011 7.67 8.637a.547.547 0 01.309.466 10.39 10.39 0 01-1.51 3.214c-.349.5-.581.7-.93.7-.27 0-.349-.038-.851-.426a16.557 16.557 0 00-4.146-1.859 17.558 17.558 0 00-4.957-.659c-4.571 0-6.894 1.278-6.894 3.757 0 1.4.736 2.363 2.323 3.138 1.821.891 5.152 1.4 9.064 1.4a21.003 21.003 0 003.1-.194 19.55 19.55 0 00-1.55 4.106c-.194.581-.5.736-1.549.736a39.1 39.1 0 01-7.824-.814c-5.152-1.278-8.094-4.182-8.094-8.056a7.234 7.234 0 012.013-5c1.782-1.742 4.648-2.71 8.328-2.71a14.541 14.541 0 016 1.083 25.576 25.576 0 01-4.725-6.584c-2.363.427-4.338.7-6.622.93-1.357.117-4.339.31-4.92.31-.542 0-.7-.117-.891-.774a22.465 22.465 0 01-.619-3.68c1.278.038 1.9.077 2.6.077a68.086 68.086 0 008.675-.7c-.347-.774-1.006-2.442-1.394-3.486a16.382 16.382 0 00-1.4-3.176 34.595 34.595 0 014.686-.5c.738 0 1.008.194 1.008.659l-.002.422zM283.359 16.634q-.077-1.9-.115-4.3a7.83 7.83 0 01-.853.038 38.288 38.288 0 01-7.2-.619c-.387-.117-.464-.194-.464-.582.03-1.145.16-2.285.387-3.408 2.362.452 4.76.686 7.165.7.194 0 .542 0 .97-.038V5.868c0-1.355-.04-1.974-.117-3.331 1.405.038 2.803.194 4.182.466.776.155 1.008.349 1.008.774 0 .194-.038.27-.31.891-.27.658-.31.813-.464 3.485 2.032-.22 4.04-.621 6-1.2a.51.51 0 01.193-.038c.27 0 .27.038.7 1.278.25.691.431 1.404.542 2.13 0 .27-.117.426-.5.542a47.225 47.225 0 01-7.05 1.278c0 2.749 0 2.866.038 4.221a28.162 28.162 0 007.243-1.859 1.05 1.05 0 01.387-.115c.232 0 .31.115.7 1.045.345.78.592 1.599.736 2.44 0 .194-.155.349-.427.466a44.714 44.714 0 01-8.443 1.974c.078 1.472.155 2.286.387 5.307a21.42 21.42 0 014.726 1.9 22.544 22.544 0 014.531 2.906c.265.15.428.432.425.736a6.69 6.69 0 01-1.085 2.091c-.851 1.278-1.277 1.781-1.549 1.781a.473.473 0 01-.349-.154 22.824 22.824 0 00-6.429-4.571 5.23 5.23 0 01-1.627 3.874c-1.317 1.278-3.525 1.974-6.274 1.974-4.765 0-7.709-2.091-7.709-5.461a5.321 5.321 0 011.666-3.874c1.51-1.394 3.8-2.13 6.7-2.13.907.008 1.813.073 2.712.194-.2-2.518-.272-3.408-.311-4.222-.891.04-1.4.04-1.859.04-2.613 0-5.215-.327-7.747-.97-.387-.115-.543-.309-.543-.619.103-1.15.298-2.289.582-3.408 2.732.622 5.525.934 8.326.93h1.123l-.004-.005zm-2.672 11.813c-2.478 0-3.835.736-3.835 2.053 0 1.162 1.123 1.781 3.293 1.781 2.517 0 3.68-.89 3.68-2.826v-.659a10.748 10.748 0 00-3.138-.349M316.671 12.834c-.937.215-1.856.5-2.75.853-.317.149-.657.24-1.006.27-.851 0-1.627-1.587-2.323-4.918a58.632 58.632 0 007.669-.891c4.648-.7 10.534-1.587 13.634-1.974 3.485-.466 6.274-.93 7.746-1.24.188-.059.384-.085.581-.077.5 0 .7.232 1.046 1.2.302.809.485 1.657.543 2.518 0 .464-.155.619-.7.619-.766.003-1.53.068-2.285.194-6.546 1.085-11.774 6.816-11.774 12.859 0 4.531 3.563 7.514 9.6 8.056.542.038.736.232.736.7a12.918 12.918 0 01-.736 3.678.984.984 0 01-1.006.621 13.544 13.544 0 01-2.867-.581c-6.584-1.938-10.03-6.12-10.03-12.046a13.926 13.926 0 013.059-8.754 15.968 15.968 0 014.222-3.68c-5.074.853-10.419 1.859-13.363 2.6m19.83 1.008c.542 0 3.835 3.68 3.835 4.261 0 .194-.232.426-.93 1.045-.736.619-.774.619-1.085.736q-.194.077-.27.077c-.155 0-.194-.038-.891-1.123a18.42 18.42 0 00-2.517-3.1.954.954 0 01-.194-.31c.077-.194.115-.31.154-.31a9.58 9.58 0 01.93-.813c.231-.108.452-.237.659-.387a.135.135 0 01.115-.077h.194zm6.624 2.672c-.581.426-.93.659-1.123.659-.155 0-.232-.078-.426-.389a18.71 18.71 0 00-2.982-3.678.756.756 0 01-.155-.31c0-.194.232-.426.774-.813.35-.292.759-.504 1.2-.621.272 0 .736.349 1.55 1.163a9.856 9.856 0 012.168 2.942c0 .234-.27.5-1.006 1.046M358.885 26.584c.7-.619.891-.774 1.161-.774.5 0 2.827 1.7 4.533 3.331 1.936 1.781 4.106 4.376 4.106 4.918 0 .349-.078.426-1.2 1.434-1.472 1.355-1.781 1.587-2.053 1.587-.232 0-.464-.155-.658-.542a24.962 24.962 0 00-7.2-7.358c-.31-.234-.464-.387-.464-.621 0-.27.077-.387 1.781-1.974M263.999 79.186a33.52 33.52 0 00-3.64-.155h-9.994a28.983 28.983 0 00-3.448.155v-3.021a45.93 45.93 0 01-7.048 3.834 12.665 12.665 0 00-2.17-3.757 35.673 35.673 0 009.566-5.5c2.867-2.363 4.688-4.339 5.656-6.158h4.608a26.927 26.927 0 006.431 6.507c2.83 2.149 6 3.81 9.377 4.914a12.798 12.798 0 00-2.208 4.106 46.175 46.175 0 01-7.126-3.912l-.004 2.987zm5.771 5.888a52.74 52.74 0 00-1.627 1.9l-7.165 9.062a48.798 48.798 0 00-2.363 3.293l-4.261-2.363a27.665 27.665 0 002.829-3.059l6.118-7.514H246.57c-1.472 0-2.982.077-4.609.232v-4.22a44 44 0 004.648.234h16.965a20.403 20.403 0 003.834-.194l2.362 2.629zm-9.141-9.606c.93 0 1.4 0 2.17-.038a31.289 31.289 0 01-7.477-7.126 33.681 33.681 0 01-7.32 7.126c.814.038 1.24.038 2.17.038h10.457zM289.602 79.03c0-.725-.038-1.449-.115-2.17.864.086 1.732.125 2.6.117h8.173v-4.842h-7.825a33.643 33.643 0 01-6.158 7.32 16.706 16.706 0 00-2.712-3.331c3.8-3.214 5.694-5.654 7.243-9.3.399-.867.698-1.776.891-2.71l4.414.891c-.115.232-.658 1.394-1.626 3.446h17.39a25.455 25.455 0 003.834-.194v4.073a26.992 26.992 0 00-3.834-.194h-7.514v4.842h5.925c1.28.02 2.561-.032 3.835-.155v3.907a32.277 32.277 0 00-3.718-.155h-6.042v6.082h8.56a29.669 29.669 0 004.106-.234v4.222a30.964 30.964 0 00-4.106-.232h-8.56v4.61a21.472 21.472 0 00.232 3.989h-4.571c.184-1.335.262-2.682.234-4.029v-4.57h-12.51a30.717 30.717 0 00-4.067.232V86.43c1.349.172 2.708.25 4.067.234h1.858l-.004-7.634zm10.653 1.549h-6.74v6.082h6.739v-6.082z" fill="#4c4948"/><path d="M347.861 70.654h-9.645l-.309 4.8a35.237 35.237 0 01-.234 2.6 6.014 6.014 0 014.416-1.938c4.842 0 7.786 3.718 7.786 9.915 0 6.818-3.293 10.923-8.715 10.923a8.233 8.233 0 01-6.042-2.44 9.036 9.036 0 01-2.17-3.95l4.3-1.666a6.714 6.714 0 001.162 2.866 3.413 3.413 0 002.75 1.355c2.634 0 4.067-2.44 4.067-7.01 0-3.99-1.355-6.12-3.874-6.12-1.859 0-2.944 1.006-4.027 3.6l-3.525-.619.93-16.19h13.13v3.874zM375.092 92.46a7.082 7.082 0 01-6.933 4.493c-5.926 0-8.56-4.8-8.56-15.61 0-4.453.542-8.094 1.589-10.458 1.394-3.176 3.523-4.608 6.933-4.608 3.64 0 5.925 1.626 7.282 5.229a30.276 30.276 0 011.317 9.954c0 5.114-.5 8.522-1.627 11m-3.95-2.053c.669-2.736.956-5.551.853-8.366 0-4.376-.466-8.25-1.2-9.954a2.755 2.755 0 00-2.634-1.936c-1.317 0-2.091.619-2.712 2.13-.7 1.627-1.083 4.918-1.083 8.792 0 8.792 1.006 12.006 3.757 12.006 1.471 0 2.478-.891 3.021-2.672M414.912 65.697a32.967 32.967 0 003.912-.155c-.117 1.434-.155 2.246-.155 4.222v24.634c0 3.136-1.123 3.872-5.926 3.872-.813 0-2.4-.038-4.067-.115a13.053 13.053 0 00-1.122-4.067c1.799.228 3.608.357 5.421.387 1.55 0 1.744-.077 1.744-.891V69.299h-20.954v4.222c0 9.683-.466 15.221-1.55 19.018a22.011 22.011 0 01-2.866 6.39 15.805 15.805 0 00-3.331-3.293 15.29 15.29 0 002.518-5.538c.89-3.486 1.278-9.181 1.278-18.088a62.35 62.35 0 00-.194-6.469 35.92 35.92 0 003.95.155h21.342zm-12.7 9.838h-3.6a26.903 26.903 0 00-2.867.115v-3.525c.951.12 1.909.172 2.867.155h3.563a11.718 11.718 0 00-.117-2.246h4.144a15.924 15.924 0 00-.155 2.246h3.71c.945.014 1.889-.037 2.827-.155v3.525a26.95 26.95 0 00-2.827-.115h-3.718v2.555h4.571a24.162 24.162 0 003.37-.155v3.68a26.35 26.35 0 00-3.37-.155h-12.778a25.214 25.214 0 00-3.331.155v-3.68c1.118.134 2.244.185 3.37.155h4.338l.003-2.555zm9.334 15.3c-.015.815.025 1.63.117 2.44a58.498 58.498 0 00-2.789-.078h-8.832v2.208h-4.027c.154-.973.219-1.959.194-2.944V85.8c.021-.83-.031-1.659-.155-2.48 1.355.078 1.472.078 2.75.078h9.992c.956.025 1.913 0 2.867-.078a21.297 21.297 0 00-.117 2.6v4.915zm-11.542-1.008h7.747v-3.176h-7.747v3.176zM436.098 78.943c0-.725-.039-1.449-.117-2.17.864.086 1.732.125 2.6.117h8.173v-4.842h-7.824a33.643 33.643 0 01-6.158 7.32 16.696 16.696 0 00-2.71-3.331c3.8-3.214 5.693-5.654 7.242-9.3.399-.866.698-1.776.891-2.71l4.416.891c-.117.232-.659 1.394-1.627 3.446h17.386a25.475 25.475 0 003.835-.194v4.067a27.006 27.006 0 00-3.835-.194h-7.514v4.842h5.926c1.28.02 2.561-.032 3.835-.155v3.912a32.277 32.277 0 00-3.718-.155h-6.043v6.082h8.56a29.669 29.669 0 004.106-.234v4.222a30.964 30.964 0 00-4.106-.232h-8.56v4.61a21.472 21.472 0 00.232 3.989h-4.57c.183-1.335.261-2.682.232-4.029v-4.57h-12.51a30.717 30.717 0 00-4.067.232v-4.222c1.349.172 2.708.25 4.067.234h1.859v-7.626zm10.651 1.549h-6.739v6.082h6.739v-6.082z" fill="#00a44f"/><path d="M200.309 88.393c.102.119.157.27.155.426q0 .234-.658 2.013a27.432 27.432 0 00-1.47 5.8.745.745 0 01-.673.811l-.027.002c-.852.176-1.722.254-2.592.232-.387 0-.581-.077-.7-.309a29.486 29.486 0 01-1.277-5.573 38.359 38.359 0 01-.387-5.686c0-4.451.5-8.669 1.9-16.253a28.42 28.42 0 00.426-3.018c1.432.142 2.831.522 4.139 1.122.581.31.813.581.813.93a1.324 1.324 0 01-.27.734c-1.586 2.709-3.056 11.067-3.056 17.258 0 .93.038 2.4.154 4.258.93-2.4 1.355-3.483 2.206-5.341a6.319 6.319 0 001.315 2.592m6.5-10.176c-1.858 0-2.245-.077-2.36-.5a12.115 12.115 0 01-.232-2.477c0-.31 0-.619.038-1.315 1.045.077 1.664.115 2.941.115 2.09 0 3.4-.038 5.418-.194-.04-4.914-.078-5.533-.466-7.352a20.385 20.385 0 014.566.5c.581.155.813.347.813.734a1.587 1.587 0 01-.155.581 15.38 15.38 0 00-.658 5.107c1.432-.194 2.67-.464 4.992-1.006a.842.842 0 01.386-.077c.234 0 .349.117.427.387.121.872.185 1.75.194 2.63 0 .968-.04 1.123-.427 1.277-.618.31-2.322.581-5.609 1.006 0 2.67.232 7.082.5 9.6a29.796 29.796 0 015.8 3.134c1.083.774 1.315 1.045 1.315 1.315a8.475 8.475 0 01-1.509 2.864c-.464.658-.7.851-.968.851s-.27 0-1.16-.851a20.293 20.293 0 00-3.445-2.632v.31c0 3.4-2.824 5.648-7.118 5.648-4.373 0-7.237-2.322-7.237-5.8s2.941-6.075 6.85-6.075c1.074-.025 2.148.04 3.211.194q-.155-3.018-.27-8.2c-1.664.117-4.3.232-5.843.232m3.173 11.376c-1.934 0-3.211.89-3.211 2.245 0 1.238 1.2 2.011 3.056 2.011 2.051 0 3.134-.928 3.134-2.707 0-.542-.038-.968-.038-.968a7.807 7.807 0 00-2.941-.581" fill="#4c4948"/><path d="M10.084 82.799c-.542.853-.7 1.008-1.008 1.008q-.27 0-1.936-1.123a25.698 25.698 0 00-5.85-2.674c-.619-.232-.813-.387-.813-.658a7.166 7.166 0 01.93-1.9c.155-.309.31-.541.387-.736.426-.774.619-1.006.93-1.006a25.99 25.99 0 015.656 2.091 31.758 31.758 0 012.942 1.666.717.717 0 01.194.466 9.433 9.433 0 01-1.432 2.866m19.947-4.414c.122.267.188.557.194.851 0 .5-.194.813-.93 1.627a55.854 55.854 0 01-10.458 9.141 65.49 65.49 0 01-11 5.926 5.57 5.57 0 00-1.9 1.046c-.349.27-.464.347-.658.347-.736 0-2.053-2.13-3.214-5.189a38.628 38.628 0 0012.666-5.19 54.65 54.65 0 008.522-6.43 37.432 37.432 0 005.578-6.586 14.796 14.796 0 001.2 4.456m-16.229-3.178c-.5.621-.7.776-.968.776a.863.863 0 01-.582-.31 24.373 24.373 0 00-7.165-4.533c-.387-.154-.542-.309-.542-.541a1.03 1.03 0 01.232-.582c1.859-2.827 1.938-2.942 2.363-2.942.774 0 3.989 1.549 6.2 3.021 1.859 1.24 2.286 1.587 2.286 1.974a9.639 9.639 0 01-1.821 3.138m12.821-2.555a17.276 17.276 0 00-2.867-3.914c-.194-.192-.232-.27-.232-.347 0-.234.232-.5.891-.97.619-.426.851-.581 1.085-.581.309 0 .7.31 1.666 1.357a10.488 10.488 0 012.13 2.942c0 .427-1.742 1.821-2.285 1.821-.155 0-.232-.077-.387-.309m5.422-2.906a2.6 2.6 0 01-1.046.542c-.115 0-.194-.038-.387-.349a19.106 19.106 0 00-2.9-3.8.426.426 0 01-.194-.272c0-.349 1.549-1.434 2.013-1.434.311 0 .853.426 1.627 1.278.845.829 1.54 1.8 2.053 2.867 0 .27-.309.542-1.162 1.162M57.194 87.524c-.968-.038-1.782-.038-2.4-.038-4.648 0-8.83.115-10.264.27-.581.078-.968.117-1.085.117-.542 0-.619-.232-.853-4.261 1.821.155 4.261.232 9.181.232.851 0 4.493 0 5.422-.038v-3.99h-3.214c-3.565 0-6.7.04-8.522.155-.814.04-1.317.078-1.51.078a2.564 2.564 0 00-.814.077 2.254 2.254 0 01-.464.038c-.349 0-.5-.115-.581-.349a30.773 30.773 0 01-.349-3.834c1.974.232 4.106.27 11.736.27 4.338 0 5.81-.038 7.862-.115-.115 2.285-.115 4.8-.115 10.032 0 2.789.077 8.754.154 10.458 0 .077.04.194.04.232a.623.623 0 01-.31.621c-.829.162-1.674.228-2.518.194-1.432 0-1.432-.04-1.432-1.008v-1.087c-1.357-.038-2.363-.038-3.061-.038-6.042 0-10.5.155-11.736.349a.68.68 0 01-.232.038c-.621 0-.659-.232-.891-4.222 1.742.155 4.61.234 9.179.234.814 0 5.85-.038 6.779-.038l-.002-4.377zM90.743 85.123c0 4.88.077 8.483.232 11.117v.27c0 .427-.115.581-.5.621a23.85 23.85 0 01-3.41.194c-1.2 0-1.317-.078-1.317-.736v-.194c.155-1.976.232-6.392.232-11.272v-5.112a63.038 63.038 0 01-6.158 3.64c-2.789 1.472-4.144 2.053-4.648 2.053a1.001 1.001 0 01-.813-.426 14.453 14.453 0 00-3.254-2.827 53.484 53.484 0 0011.234-5.346 52.757 52.757 0 0011.232-9.374 10.01 10.01 0 001.278-1.819c2.44 1.626 4.184 3.253 4.184 3.989 0 .232-.155.426-.621.619-.7.31-.968.5-2.789 2.093a73.693 73.693 0 01-4.88 3.989l-.002 8.521zM140.183 77.376c0 1.782-.038 2.014-.542 2.014h-.194c-1.355-.078-1.782-.078-11.7-.078-.658 6.2-2.053 9.994-5.035 13.906a16.077 16.077 0 01-4.416 4.106 1.653 1.653 0 01-.813.31 1.142 1.142 0 01-.814-.349 10.067 10.067 0 00-3.6-2.014c6.584-4.027 9.179-8.25 9.877-15.918-7.2.038-11.155.154-12.2.309a.954.954 0 01-.31.04.55.55 0 01-.581-.5 15.452 15.452 0 01-.542-4.3c1.974.27 4.222.349 13.866.349v-1.744a30.293 30.293 0 00-.5-6.894c1.698.011 3.394.141 5.074.387.581.117.813.31.813.7 0 .232 0 .27-.27.968a12.617 12.617 0 00-.27 3.214c0 .93 0 1.008-.04 3.331 5.307-.038 9.49-.232 11.272-.426a.984.984 0 01.31-.038c.5 0 .619.349.619 1.7v.93l-.004-.003zM173.311 89.075c2.478 2.246 3.989 3.874 3.989 4.3 0 .349-.5.968-1.7 2.131-.89.851-1.278 1.123-1.549 1.123a.957.957 0 01-.581-.272q-.426-.5-2.208-2.517a50.867 50.867 0 00-8.4-7.36 60.147 60.147 0 01-8.794 7.475 19.463 19.463 0 01-4.763 2.674c-.387 0-.427-.04-1.357-1.085a15.12 15.12 0 00-2.4-2.091 41.533 41.533 0 0011.427-7.63 47.255 47.255 0 009.722-12.357q-13.091.077-15.222.31c-.464.038-.541.038-.619.038a.664.664 0 01-.733-.587l-.003-.032a27 27 0 01-.27-4.456c4.105.409 8.23.576 12.355.5 2.286 0 4.686-.077 5.965-.232a4.425 4.425 0 001.4-.349.843.843 0 01.464-.077c.659 0 1.357.542 2.286 1.781.561.66.959 1.443 1.162 2.286 0 .464-.117.619-1.123 1.549a12.112 12.112 0 00-2.091 2.906 56.183 56.183 0 01-4.416 6.158 53.11 53.11 0 017.475 5.81" fill="#00a44f"/></svg>