<svg xmlns="http://www.w3.org/2000/svg" width="770" height="70" viewBox="0 0 770 70"><path d="M31.88 47.983c0 4.611.261 14.618.261 15.228 0 1.827-.522 2.175-2.524 2.175H19.525c-2 0-2.523-.348-2.523-2.175 0-.609.261-10.616.261-15.228V20.138c0-1.566-.261-2.175-1.044-2.175a3.9 3.9 0 00-1.392.349 107.024 107.024 0 00-7.918 3.133 3.914 3.914 0 01-1.653.521c-.783 0-1.131-.609-1.566-1.914L.643 11.437a4.676 4.676 0 01-.348-1.654c0-.782.521-1.131 2-1.566a155.934 155.934 0 0016.446-5.916 11.558 11.558 0 015.134-1.049h5.743c2 0 2.524.348 2.524 2.175 0 .609-.261 10.615-.261 15.228v29.328zM73.771 47.983c0 4.611.261 14.618.261 15.228 0 1.827-.522 2.175-2.524 2.175H61.42c-2 0-2.523-.348-2.523-2.175 0-.609.261-10.616.261-15.228V20.138c0-1.566-.261-2.175-1.044-2.175a3.9 3.9 0 00-1.392.349 107.024 107.024 0 00-7.918 3.133 3.914 3.914 0 01-1.653.521c-.783 0-1.131-.609-1.566-1.914l-3.046-8.614a4.688 4.688 0 01-.348-1.653c0-.783.521-1.131 2-1.566a155.558 155.558 0 0016.441-5.918 11.558 11.558 0 015.134-1.049h5.743c2 0 2.524.348 2.524 2.175 0 .609-.261 10.615-.261 15.228v29.328zM98.957 56.25c0 5.394-3.393 9.658-9.4 9.658a8.136 8.136 0 01-8.527-8.353c0-5.047 3.219-9.4 9.484-9.4 4.873 0 8.44 3.306 8.44 8.093M134.147 52.856c4.525 0 13.922-.174 14.532-.174 1.827 0 2.175.521 2.175 2.523v7.656c0 2-.348 2.523-2.175 2.523-.609 0-10.007-.174-14.532-.174h-12.442c-4.612 0-14.792.174-15.4.174-1.827 0-2.175-.522-2.175-2.523v-3.74c0-2.262.261-2.871 2.175-4.09 1.741-1.218 3.133-2.262 4.786-3.655 16.62-14.1 24.1-21.666 24.1-28.8 0-4.786-3.133-8.092-9.4-8.092-4.96 0-9.484 2.784-12.356 6.091-.783.871-1.218 1.305-1.74 1.305s-.957-.435-1.74-1.218l-6.439-6.874c-.7-.783-1.044-1.305-1.044-1.914 0-.523.348-1.045 1.131-1.828A33.13 33.13 0 01126.925.561c14.966 0 23.494 8.527 23.494 19.665 0 11.573-8.962 21.231-20.275 30.976-.7.609-.957.957-.957 1.218s.523.435 1.567.435h3.393zM176.148 56.873c0 2.17.123 6.879.123 7.166 0 .861-.245 1.024-1.187 1.024h-4.832c-.942 0-1.187-.163-1.187-1.024 0-.286.123-5 .123-7.166v-14.29c0-1.024-.2-1.228-1.228-1.228h-.86c-1.474 0-5.241.082-5.528.082-.859 0-1.024-.246-1.024-1.188V35.99c0-.942.164-1.188 1.024-1.188.287 0 4.422.082 6.347.082h9.5c1.924 0 6.06-.082 6.347-.082.86 0 1.024.246 1.024 1.188v4.258c0 .942-.164 1.188-1.024 1.188-.286 0-4.053-.082-5.528-.082h-.86c-1.024 0-1.228.2-1.228 1.228l-.002 14.291zM196.845 56.873c0 2.17.123 6.879.123 7.166 0 .861-.245 1.024-1.187 1.024h-4.832c-.942 0-1.187-.163-1.187-1.024 0-.286.123-5 .123-7.166v-13.8c0-2.17-.123-6.879-.123-7.166 0-.86.245-1.024 1.187-1.024h4.832c.942 0 1.187.164 1.187 1.024 0 .287-.123 5-.123 7.166v1.556c0 1.024.205 1.228 1.229 1.228h9.827c1.024 0 1.229-.2 1.229-1.228v-1.556c0-2.17-.123-6.879-.123-7.166 0-.86.246-1.024 1.187-1.024h4.832c.942 0 1.187.164 1.187 1.024 0 .287-.122 5-.122 7.166v13.8c0 2.17.122 6.879.122 7.166 0 .861-.245 1.024-1.187 1.024h-4.832c-.941 0-1.187-.163-1.187-1.024 0-.286.123-5 .123-7.166v-3.4c0-1.024-.205-1.228-1.229-1.228h-9.827c-1.024 0-1.229.2-1.229 1.228v3.4zM247.393 55.031c0 6.633-5.487 10.606-13.431 10.606s-12.53-4.014-12.53-10.524v-12.04c0-2.17-.123-6.879-.123-7.166 0-.86.246-1.024 1.187-1.024h4.832c.942 0 1.188.164 1.188 1.024 0 .287-.123 5-.123 7.166v10.77c0 3.4 2.171 5.323 5.856 5.323 3.727 0 6.306-1.883 6.306-5.364V43.073c0-2.17-.123-6.879-.123-7.166 0-.86.246-1.024 1.188-1.024h4.709c.942 0 1.187.164 1.187 1.024 0 .287-.123 5-.123 7.166v11.958zM272.01 55.154a.645.645 0 00.665-.624V54.131a.69.69 0 00-.712-.665h-.005c-1.074 0-2.1.1-3.173.1-1.484 0-2.559-.308-2.559-2 0-.716.1-1.638.1-2.866v-9.617c0-1.28-.1-2.15-.1-2.866 0-1.638.973-2 2.457-2 1.074 0 2.15.051 3.275.051a.819.819 0 00.87-.819v-.2a.842.842 0 00-.819-.819h-.614c-1.74 0-3.481.1-5.221.1-1.229 0-1.331-.41-1.331-1.792v-2.046c0-1.382.1-1.791 1.331-1.791 1.433 0 2.866.1 4.247.1h.87a1.488 1.488 0 001.536-1.433c0-.409-.1-2.047-.154-2.457a2.092 2.092 0 01-.051-.511c0-.614.409-.717.973-.717.716 0 5.118.359 6.04.461.46.051 1.484.154 1.484.767a1.1 1.1 0 01-.614.871c-.47.364-.721.943-.666 1.535a1.452 1.452 0 001.587 1.484h.87c1.484 0 2.968-.1 4.5-.1 1.228 0 1.331.409 1.331 1.843v1.948c0 1.433-.1 1.843-1.331 1.843-1.74 0-3.48-.1-5.221-.1h-.973a.842.842 0 00-.818.819v.256a.81.81 0 00.851.769l.019-.001c1.074 0 2.2-.051 3.275-.051 1.33 0 2.508.154 2.508 2 0 .87-.1 1.791-.1 2.866v9.623c0 1.074.1 2 .1 2.866 0 1.638-1.024 2-2.456 2-1.075 0-2.15-.1-3.225-.1h-.409a.656.656 0 00-.716.665v.345a.645.645 0 00.624.665h1.218c1.74 0 3.429-.1 5.118-.1 1.177 0 1.331.409 1.331 1.484v1.331c0 .154 0 .512.2.512.256 0 .307-.512.41-.819 1.28-4.76 1.331-12.028 1.331-17.811v-8.042c0-2-.1-3.992-.1-5.988 0-1.843.819-2.457 2.61-2.457 1.587 0 3.173.154 4.76.154h4.249c1.586 0 3.173-.154 4.759-.154 1.792 0 2.611.563 2.611 2.457 0 2-.1 3.991-.1 5.988v25.95c0 1.434.051 2.867.051 4.249 0 2.3-.051 3.941-1.279 5.118-1.382 1.279-5.17 1.433-7.063 1.433-1.792 0-2.508-.563-2.918-2.3a14.866 14.866 0 01-.461-3.685c0-1.228.051-1.792 1.28-1.792.563 0 1.126.051 1.689.051 1.894 0 1.894-1.126 1.894-2v-5.834a1.431 1.431 0 00-1.429-1.433h-2.205c-1.689 0-1.791 1.023-1.893 2.1a39.157 39.157 0 01-4.2 13.563c-.41.665-.717 1.28-1.587 1.28-1.484 0-5.119-1.792-5.119-3.122a4.42 4.42 0 01.717-1.484c.445-.68.79-1.421 1.024-2.2 0-.564-.2-.665-4.913-.665h-1.024a1.427 1.427 0 00-1.536 1.433c0 1.484.1 2.969.1 4.453 0 1.382-.564 1.484-2.2 1.484h-2.866c-1.637 0-2.2-.1-2.2-1.484 0-1.484.1-2.969.1-4.453a1.425 1.425 0 00-1.536-1.433h-.709c-1.587 0-3.225.1-4.862.1-1.228 0-1.331-.46-1.331-1.945v-2.104c0-1.484.1-1.945 1.331-1.945 1.689 0 3.429.1 5.118.1l1.385.007zm7.422-14.638a.676.676 0 00-.665-.665h-4.863a.635.635 0 00-.615.653v.165a.636.636 0 00.604.665h4.875a.716.716 0 00.665-.665l-.002-.153zm0 6.6a.676.676 0 00-.665-.665h-4.863a.633.633 0 00-.614.655v.163a.636.636 0 00.604.665h4.875a.679.679 0 00.665-.665l-.002-.153zm20.984-13.052a1.4 1.4 0 001.434-1.365v-1.243a1.431 1.431 0 00-1.429-1.433H298.116a1.465 1.465 0 00-1.433 1.433v1.178a1.4 1.4 0 001.366 1.433h.067l2.3-.003zm-2.3 6.808a1.411 1.411 0 00-1.433 1.33v1.228c0 .819.665 1.483 1.484 1.484h2.252a1.431 1.431 0 001.434-1.428v-1.179a1.4 1.4 0 00-1.366-1.433h-.068l-2.303-.002zM347.856 54.678c0 3.8.215 12.04.215 12.541 0 1.505-.43 1.792-2.078 1.792h-8.308c-1.649 0-2.078-.287-2.078-1.792 0-.5.215-8.743.215-12.541V31.746c0-1.29-.215-1.791-.859-1.791a3.233 3.233 0 00-1.147.286 88.577 88.577 0 00-6.521 2.58 3.202 3.202 0 01-1.362.43c-.645 0-.931-.5-1.29-1.577l-2.508-7.094a3.839 3.839 0 01-.287-1.362c0-.645.43-.931 1.649-1.29a128.084 128.084 0 0013.544-4.873 9.507 9.507 0 014.228-.86h4.729c1.648 0 2.078.286 2.078 1.791 0 .5-.215 8.743-.215 12.541l-.005 24.151zM404.504 41.349c0 17.772-10.605 28.091-23.935 28.091-12.9 0-22.86-9.029-22.86-26.012 0-15.264 8.1-27.662 23.935-27.662 12.613 0 22.86 8.6 22.86 25.583m-34.54 2.437c0 9.6 3.941 14.547 10.606 14.547 7.023 0 11.753-6.593 11.753-16.554 0-9.6-4.228-14.261-10.678-14.261-8.313 0-11.681 7.6-11.681 16.268M425.508 57.713c-.41 0-.717.154-.717.614 0 .768.051 1.536.051 2.3 0 1.126-.307 1.228-2.047 1.228h-3.531c-1.024 0-1.536-.1-1.536-1.177 0-2.2.1-4.4.1-6.6V32.992c0-1.587-.051-3.225-.051-4.812 0-1.638.563-2.355 2.252-2.355 1.28 0 2.559.1 3.838.1h3.327c1.279 0 2.559-.1 3.838-.1 1.536 0 2.3.512 2.3 2.406 0 1.586-.1 3.173-.1 4.76v19.3c0 2.2.1 4.4.1 6.6 0 1.074-.358 1.177-1.74 1.177h-2.968c-1.228 0-1.638-.1-1.638-1.177v-.564a.59.59 0 00-.565-.614h-.913zm.614-19.245a.972.972 0 00.973-.971v-3.943a.972.972 0 00-.97-.972h-.413a.972.972 0 00-.972.97v3.943c0 .537.434.972.971.973h.411zm-.41 6.142a.985.985 0 00-.973.995v4.482c-.022.542.4 1 .942 1.022H426.121a.985.985 0 00.974-.994v-4.482a1.016 1.016 0 00-.973-1.024h-.41zm28.407-17.044c1.842 0 3.737-.1 5.528-.1 1.177 0 1.279.461 1.279 1.689v2.406c0 1.586-.1 2.047-1.227 2.047-1.894 0-3.737-.154-5.579-.154h-1.381a1.246 1.246 0 00-1.229 1.229v.767a.985.985 0 00.994.974h1.566c2.2 0 4.452-.1 6.653-.1 1.535 0 1.689.409 1.689 2v2.457c0 1.587-.154 2.047-1.638 2.047-.665 0-1.331-.051-2-.051-.153 0-.46.051-.46.307 0 .051.051.1.051.154 0 .358-.46.461-.716.614-.461.205-.615.512-.615 1.178a1.03 1.03 0 001.075.972c.768 0 1.587-.051 2.355-.051 1.382 0 1.484.512 1.484 2.047v1.587c0 3.02-.1 3.122-1.535 3.122-.46 0-1.125-.051-2-.051a1.44 1.44 0 00-1.433 1.586v5.161c0 1.126.1 2.252.1 3.378 0 5.169-4.095 5.476-8.241 5.476-3.122 0-3.838-.2-4.247-1.842a15.74 15.74 0 01-.41-3.48v-.205c0-.307-.154-.767-.563-.767a1.206 1.206 0 00-.665.255 4.553 4.553 0 01-1.842.819c-.717 0-1.536-1.382-2.917-3.429a25.334 25.334 0 00-1.946-2.662c-.2-.255-.46-.46-.46-.767 0-.717 2.252-2.456 2.866-2.866.154-.1.41-.205.41-.41s-.205-.255-.358-.255c-.564 0-1.127.051-1.689.051-1.382 0-1.485-.564-1.485-2.3v-2.41c0-1.586.154-2.047 1.485-2.047 1.842 0 3.634.1 5.425.1h6.5a1.008 1.008 0 001.073-.939c.002-.028.003-.057.002-.085a12.957 12.957 0 00-.154-1.484.81.81 0 00-.921-.819h-6.193c-2.252 0-4.453.1-6.654.1-1.535 0-1.74-.409-1.74-1.944v-2.504c0-1.638.154-2.047 1.74-2.047 2.2 0 4.4.1 6.654.1h.1a1.225 1.225 0 001.33-1.28v-.358a1.237 1.237 0 00-1.33-1.331c-1.536 0-3.071.154-4.657.154-1.177 0-1.28-.409-1.28-2v-2.247c0-1.382.1-1.893 1.331-1.893 1.792 0 3.071.153 3.993.153 1.433 0 1.945-.358 1.945-2.2.001-.788-.05-1.574-.154-2.355 0-.1-.051-.308-.051-.409 0-.614.563-.665 1.024-.665 1.024 0 5.323.358 6.449.46.358.052 1.126.1 1.126.665 0 .307-.307.512-.562.665-.461.358-.512.973-.512 2.355 0 .717.41 1.433 1.689 1.433h.928zm-4.095 26.411a1.431 1.431 0 00-1.429-1.433h-5.327c-.563 0-1.228.051-1.228.665.049.32.213.611.461.819.665.87 3.276 4.453 3.276 5.374 0 .307-.205.512-.205.819 0 .563.512.614 1.228.614h1.434c1.74 0 1.791-.255 1.791-3.122v-3.736zM506.09 40.054c1.74 0 3.532-.153 4.249-.153 1.791 0 2.61.717 3.633 2a5.853 5.853 0 011.433 2.866c0 1.842-7.472 9.827-9.212 9.827-1.587 0-4.914-3.481-4.914-4.5 0-.359.256-.563.717-.87a24.641 24.641 0 002-1.587c.164-.134.288-.311.358-.511 0-.307-.308-.358-.819-.358h-5.067a1.4 1.4 0 00-1.433 1.366v8.248c0 1.024.051 2.1.051 3.174a9.099 9.099 0 01-1.28 5.425c-1.893 2.611-5.988 3.174-9.212 3.174-.922 0-2.456 0-2.969-1.074a15.395 15.395 0 01-.973-5.067c0-.922.205-1.894 1.382-1.894.394.008.788.041 1.178.1.563.051 1.945.1 2.508.1 1.382 0 1.587-.409 1.587-1.945V48.192a1.4 1.4 0 00-1.366-1.433h-10.257c-2 0-3.993.1-6.04.1-1.126 0-1.279-.46-1.279-1.894v-3.173c0-1.33.1-1.893 1.228-1.893 2.047 0 4.095.153 6.091.153h10.185c.615 0 .922-.1.922-.46 0-.409-.41-.614-.666-.767a52.146 52.146 0 00-5.066-3.174c-1.076-.563-1.485-.716-1.485-1.279 0-.871 1.433-2.508 2.047-3.122.154-.155.256-.256.256-.461 0-.409-.46-.461-.767-.461-1.689 0-3.429.154-5.119.154-1.28 0-1.433-.512-1.433-2.1v-3.02c0-1.433.1-2 1.382-2 1.893 0 3.788.1 5.732.1h16.021c1.586 0 3.122-.051 4.657-.051 1.485 0 1.894.409 2.867 1.587.613.716 2 2.609 2 3.531 0 1.126-3.071 3.378-4.555 4.453a58.518 58.518 0 01-5.272 3.43c-.358.2-.767.46-.767.921a.971.971 0 00.511.82c1.023.767 1.023.973 1.074 1.331a.962.962 0 001.024.562l4.858.008zm-17.145-9.724c-.512 0-.614.051-.614.307a20.873 20.873 0 002.251 1.484c.53.45 1.2.704 1.895.717 1.125 0 3.429-1.689 3.429-2.149 0-.358-.358-.358-1.178-.358h-5.783zM537.078 40.875a12.027 12.027 0 00-1.485 2.046c0 .2.256.41.614.41a1.58 1.58 0 00.512-.051c.717-.1 1.688.051 1.688-.665a2.448 2.448 0 00-.358-1.024 2.804 2.804 0 01-.307-.921c0-1.177 3.788-2.662 4.4-2.662.1 0 .409.051.564.051 1.074 0 1.433-.768 1.893-1.637a2.45 2.45 0 01.256-.512 56.615 56.615 0 004.658-12.949c.153-.717.2-1.024.818-1.024 1.586.241 3.158.565 4.709.972 2.047.461 2.559.768 2.559 1.228s-.409.564-.767.717c-.665.256-.768.614-1.126 1.792-.154.512-.307 1.075-.563 1.843a6.06 6.06 0 00-.307 1.382c0 .87.87 1.024 1.587 1.024h4.248c1.893 0 3.378-.1 4.453-.1 3.481 0 3.531.665 3.531 5.067 0 7.371-.46 17.761-1.944 24.875-.461 2.3-.922 4.556-2.969 5.989-1.945 1.382-5.937 1.791-8.292 1.791-1.484 0-2.866-.154-3.378-1.74a14.625 14.625 0 01-.614-4.453c0-1.126.1-1.74 1.382-1.74.512 0 1.843.153 2.151.2.511.051 1.791.051 2.3.051 1.536 0 2.662 0 3.122-3.992.512-4.4 1.024-12.284 1.024-16.686 0-2.1-.358-2.3-2.764-2.3h-5.374c-1.793 0-2.253.921-2.969 2.3-.871 1.74-1.228 2.355-1.945 2.355a8.513 8.513 0 01-2.712-.717 1.95 1.95 0 00-.512-.153.361.361 0 00-.358.41c.169.592.374 1.173.614 1.74a22.857 22.857 0 011.586 4.709c0 1.28-4.3 2.457-4.759 2.457-.665 0-.82-.564-.973-.922a1.415 1.415 0 00-1.382-1.074c-1.127 0-1.433.819-1.433 1.791v8.088c0 2.609.1 5.221.1 7.831 0 1.382-.46 1.536-2.149 1.536h-3.122c-1.587 0-2.2-.1-2.2-1.484 0-2.611.155-5.273.155-7.882v-3.637c0-.409-.052-.511-.256-.511-.512 0-.564.717-.614 1.075a83.573 83.573 0 01-1.586 8.8c-.154.665-.256 1.637-1.076 1.637-.768 0-4.555-.973-4.555-2.047.111-.624.265-1.239.461-1.842a52.717 52.717 0 001.688-9.008c.052-.717 0-1.382.768-1.382.916.129 1.822.317 2.713.563.604.18 1.219.316 1.842.409a.58.58 0 00.615-.543c.001-.024.002-.047 0-.071 0-1.382-.411-1.843-2-1.843-.409 0-1.689.154-2.2.2a.94.94 0 00-.87.614.874.874 0 01-.819.614c-.461 0-.665-.2-.87-1.586-.051-.512-.818-4.248-.922-4.709a4.749 4.749 0 01-.2-1.177c0-.512.563-.512 1.177-.512h1.126a3.887 3.887 0 002.15-.41 6.158 6.158 0 001.74-2.815c0-.563-.768-1.28-1.28-1.792a1.6 1.6 0 01-.307-.256 44.043 44.043 0 00-3.941-3.122c-.256-.2-.716-.409-.716-.767a6.962 6.962 0 011.23-2.499c.205-.358.358-.665.512-.921.307-.512.973-1.893 1.689-1.893a.912.912 0 01.511.2c.127.073.265.125.409.154.461 0 .665-.614 1.433-2.559.512-1.228 1.127-3.02 1.587-4.555.153-.564.307-.871.767-.871 1.325.398 2.624.877 3.891 1.433.226.073.448.158.664.256.973.358 1.74.563 1.74 1.126s-.41.614-.717.717a1.199 1.199 0 00-1.024.717c-.92 1.74-1.74 3.48-2.712 5.221a5.096 5.096 0 01-.461.767 3.33 3.33 0 00-.614 1.382c0 .614.614 1.331 1.024 1.331s1.024-1.075 1.382-1.74c.084-.09.152-.194.2-.307.665-1.28 1.331-2.559 1.946-3.787.358-.665.46-1.024 1.024-1.024a36.38 36.38 0 014.247 1.893c.358.154.615.307.768.358.717.308 1.894.717 1.894 1.434 0 .614-.615.614-1.127.717a1.334 1.334 0 00-.818.562 286.448 286.448 0 01-5.681 8.037m3.224 11a12.295 12.295 0 012.713-.665 1.03 1.03 0 01.92.46 46.578 46.578 0 011.894 4.965c.4 1.155.724 2.335.972 3.532 0 1.075-4.146 2.1-4.555 2.1-.768 0-.973-.717-1.127-1.587a45.158 45.158 0 00-2-6.807 2.137 2.137 0 01-.205-.819c0-.614.511-.87 1.382-1.177m13.614-9.06a35.113 35.113 0 011.945 4.2c.358.921 2.15 5.221 2.15 5.989 0 1.433-4.76 2.764-5.323 2.764-.82 0-.972-.819-1.178-1.433-.972-2.662-2.3-6.041-3.531-8.548a2.694 2.694 0 01-.307-.819c0-1.228 4.658-2.917 5.22-2.917.512 0 .768.358 1.024.767M601.999 28.999a27.393 27.393 0 003.531-.153 10.75 10.75 0 011.28-.1c1.586 0 4.4 3.839 4.4 4.555a6 6 0 01-.769 1.586 94.763 94.763 0 01-7.113 11.055 1.4 1.4 0 00-.41.973c-.003.47.281.895.716 1.074a106.13 106.13 0 019.316 7.269c.511.461 2.3 2.047 2.661 2.508.199.14.314.371.307.614 0 1.433-4.3 5.937-5.732 5.937-.768 0-1.434-.82-2-1.485a.922.922 0 00-.256-.358 55.048 55.048 0 00-9.008-8.24 4.111 4.111 0 00-1.69-.87 1.796 1.796 0 00-1.279.615 58.663 58.663 0 01-8.035 6.141c-1.126.717-6.091 3.634-7.115 3.634-.921 0-2.815-2.815-3.377-3.634a7.911 7.911 0 01-1.28-2.764c0-.768.717-1.075 1.331-1.28 7.933-2.815 16.429-9.725 21.036-16.788.36-.446.605-.973.716-1.535 0-.871-.87-.973-1.739-.973h-7.781c-2.3 0-4.657.1-7.012.1-1.28 0-1.381-.614-1.381-2.456v-3.43c0-1.791.1-2.149 1.331-2.149 2.355 0 4.708.153 7.063.153h12.289zM653.56 30.689c.962.014 1.922-.071 2.866-.255.147-.058.303-.091.461-.1 1.126 0 3.275 3.173 3.275 4.248a.9.9 0 01-.2.614 18.72 18.72 0 00-1.178 2.508 86.778 86.778 0 01-4.453 9.008c-.27.356-.43.782-.46 1.228.037.579.365 1.099.871 1.382.563.409 2.661 1.946 2.661 2.611 0 .921-3.48 5.425-4.759 5.425a1.13 1.13 0 01-.819-.461c-.511-.511-2.1-2.1-2.764-2.1-.432.035-.826.26-1.075.614a42.322 42.322 0 01-9.264 7.524c-1.535.972-6.756 3.736-8.445 3.736-1.178 0-2.406-1.535-3.071-2.354-.512-.665-2-2.559-2-3.225 0-.563.615-.768 1.792-1.075.256-.1.512-.153.819-.256 6.552-1.893 14.485-7.882 14.485-9.315a1.06 1.06 0 00-.666-.921 35.536 35.536 0 00-4.2-2.1c-.461-.205-1.535-.665-1.535-1.229 0-.818 2.815-5.477 4.4-5.477.716 0 4.708 2.2 5.579 2.713.31.194.66.316 1.023.358.87 0 1.28-.818 1.74-1.791a14.491 14.491 0 001.28-3.276c0-.87-1.127-.972-1.792-.972h-6.96c-1.433 0-1.843.1-2.559 1.075a79.217 79.217 0 01-6.04 7.113c-.614.615-1.74 1.792-2.61 1.792-.614 0-2.253-.972-3.634-2-1.279-.922-2.354-1.946-2.354-2.355 0-.512.614-.922.972-1.177 5.426-3.941 11.568-12.284 13.819-18.631.154-.461.409-1.279.973-1.279a46.677 46.677 0 015.937 2.406c.921.358 1.638.716 1.945.869.205.1.358.205.358.358 0 .256-.1.358-.564.564-.818.307-1.023.717-1.535 1.638a4.157 4.157 0 00-.819 1.74c0 .614.461.767.972.818l7.528.007zM701.592 40.567c3.02 0 6.3-.205 6.757-.205 1.331 0 1.535.564 1.535 2.047v2.457c0 2.815-.051 3.685-1.689 3.685-2 0-4.35-.154-6.6-.154h-23.544c-2.253 0-4.659.154-6.551.154-1.74 0-1.74-.973-1.74-3.685v-2.35c0-1.535.153-2.15 1.484-2.15.717 0 3.583.205 6.808.205l23.54-.004zM734.625 59.965c0 1.689.051 3.378.051 5.119 0 2.456-.153 2.661-3.481 2.661h-2.3c-2.047 0-2.661-.256-2.661-1.587 0-2.047.1-4.044.1-6.091V30.536c0-2.1-.1-4.76-.1-6.348 0-.665.1-.972.818-.972 2.643.204 5.274.545 7.882 1.024.307.1.563.307.563.614a.892.892 0 01-.306.615 2.661 2.661 0 00-.564 1.842v9.93c0 .256.051.717.614.717.308 0 .615-.2.87-.2a5.296 5.296 0 011.894.818c1.637 1.024 3.737 2.662 4.4 3.173a60.749 60.749 0 014.708 4.146c.211.223.338.513.358.819 0 1.024-3.737 5.169-4.913 5.169-.46 0-.972-.512-1.28-.819-.87-.818-5.066-4.606-5.886-4.606-.716 0-.767.717-.767 1.228v12.279zM769.705 59.812a5.034 5.034 0 01-5.323 5.272 4.454 4.454 0 01-4.76-4.5c0-3.02 1.894-5.476 5.273-5.476a4.628 4.628 0 014.811 4.709m-6.91-7.933c-1.331 0-1.536-.2-1.587-1.536l-.511-12.13c-.2-3.173-.614-10.237-.614-11.261 0-.87.307-1.075 1.433-1.075h6.244c1.126 0 1.433.205 1.433 1.075 0 1.024-.41 8.036-.614 11.875l-.461 11.516c-.051 1.331-.256 1.536-1.587 1.536h-3.736z" fill="#df3d8e"/></svg>