<svg xmlns="http://www.w3.org/2000/svg" width="215" height="130" viewBox="0 0 215 130"><g fill="#df3d8e"><path d="M48.895 30.131c0 2.88.163 9.131.163 9.512 0 1.141-.326 1.359-1.576 1.359h-6.3c-1.25 0-1.576-.217-1.576-1.359 0-.381.163-6.631.163-9.512V12.74c0-.978-.163-1.359-.652-1.359a2.43 2.43 0 00-.87.218 64.985 64.985 0 00-4.946 1.957c-.316.184-.67.295-1.035.324-.489 0-.707-.381-.978-1.2l-1.905-5.377a2.927 2.927 0 01-.217-1.032c0-.489.326-.707 1.25-.978a97.15 97.15 0 0010.272-3.7A7.22 7.22 0 0143.895.94h3.587c1.25 0 1.576.217 1.576 1.359 0 .381-.163 6.631-.163 9.512v18.32zM75.067 30.131c0 2.88.163 9.131.163 9.512 0 1.141-.326 1.359-1.576 1.359h-6.3c-1.26 0-1.587-.218-1.587-1.362 0-.381.163-6.631.163-9.512V12.74c0-.978-.163-1.359-.652-1.359a2.43 2.43 0 00-.87.218 64.985 64.985 0 00-4.946 1.957 2.455 2.455 0 01-1.033.326c-.489 0-.707-.381-.978-1.2l-1.9-5.381a2.928 2.928 0 01-.217-1.033c0-.489.326-.707 1.25-.978a97.15 97.15 0 0010.272-3.7 7.215 7.215 0 013.206-.65h3.587c1.25 0 1.576.217 1.576 1.359 0 .381-.163 6.631-.163 9.512l.005 18.32zM90.794 35.295c0 3.37-2.12 6.033-5.87 6.033a5.08 5.08 0 01-5.327-5.218 5.571 5.571 0 015.924-5.87 4.97 4.97 0 015.264 4.656c.008.133.011.266.008.399M112.775 33.175c2.826 0 8.7-.109 9.077-.109 1.141 0 1.359.326 1.359 1.576v4.783c0 1.25-.217 1.576-1.359 1.576-.381 0-6.251-.109-9.077-.109h-7.772c-2.881 0-9.24.109-9.621.109-1.141 0-1.359-.326-1.359-1.576v-2.336a2.3 2.3 0 011.359-2.555 39.314 39.314 0 002.989-2.283c10.381-8.8 15.056-13.534 15.056-17.991 0-2.989-1.957-5.055-5.87-5.055a10.612 10.612 0 00-7.718 3.8c-.489.544-.761.815-1.087.815s-.6-.271-1.087-.761l-4.022-4.294c-.435-.489-.652-.815-.652-1.2 0-.326.217-.652.706-1.142A20.695 20.695 0 01108.263.51c9.348 0 14.675 5.326 14.675 12.283 0 7.229-5.6 13.262-12.664 19.349-.435.38-.6.6-.6.761s.326.272.978.272h2.123zM139.015 35.684c0 1.356.077 4.3.077 4.476 0 .538-.153.639-.742.639h-3.018c-.588 0-.742-.1-.742-.639 0-.179.077-3.12.077-4.476v-8.926c0-.639-.128-.767-.767-.767h-.537c-.921 0-3.274.051-3.453.051-.537 0-.639-.154-.639-.742v-2.66c0-.588.1-.742.639-.742.179 0 2.762.051 3.964.051h5.934c1.2 0 3.785-.051 3.964-.051.537 0 .639.154.639.742v2.66c0 .589-.1.742-.639.742-.179 0-2.532-.051-3.453-.051h-.537c-.639 0-.767.128-.767.767v8.926zM151.939 35.685c0 1.356.077 4.3.077 4.476 0 .538-.153.639-.741.639h-3.018c-.588 0-.741-.1-.741-.639 0-.179.077-3.12.077-4.476v-8.62c0-1.356-.077-4.3-.077-4.476 0-.537.153-.639.741-.639h3.015c.589 0 .741.1.741.639 0 .179-.077 3.12-.077 4.476v.972c0 .639.128.767.768.767h6.138c.639 0 .768-.128.768-.767v-.972c0-1.356-.077-4.3-.077-4.476 0-.537.153-.639.741-.639h3.018c.588 0 .741.1.741.639 0 .179-.076 3.12-.076 4.476v8.62c0 1.356.076 4.3.076 4.476 0 .538-.153.639-.741.639h-3.02c-.588 0-.741-.1-.741-.639 0-.179.077-3.12.077-4.476v-2.123c0-.639-.128-.767-.768-.767h-6.138c-.639 0-.768.128-.768.767l.005 2.123zM183.511 34.534c0 4.144-3.427 6.625-8.389 6.625s-7.827-2.507-7.827-6.574v-7.52c0-1.356-.077-4.3-.077-4.476 0-.537.154-.639.742-.639h3.018c.589 0 .742.1.742.639 0 .179-.077 3.12-.077 4.476v6.727c0 2.123 1.356 3.325 3.658 3.325 2.328 0 3.939-1.176 3.939-3.351v-6.7c0-1.356-.077-4.3-.077-4.476 0-.537.154-.639.742-.639h2.941c.589 0 .742.1.742.639 0 .179-.077 3.12-.077 4.476v7.468z"/><g><path d="M42.256 77.641a.463.463 0 00.478-.448V76.906a.5.5 0 00-.515-.478c-.772 0-1.507.074-2.279.074-1.066 0-1.838-.221-1.838-1.434 0-.514.074-1.176.074-2.058v-6.912c0-.919-.074-1.545-.074-2.059 0-1.176.7-1.433 1.765-1.433.772 0 1.544.036 2.353.036a.589.589 0 00.624-.552l.001-.036v-.147a.6.6 0 00-.588-.588h-.441c-1.25 0-2.5.074-3.75.074-.883 0-.956-.294-.956-1.287v-1.471c0-.992.074-1.286.956-1.286 1.029 0 2.058.074 3.051.074h.625a1.07 1.07 0 001.1-1.029c0-.294-.073-1.471-.11-1.765a1.51 1.51 0 01-.037-.367c0-.441.294-.515.7-.515.514 0 3.676.258 4.338.331.33.037 1.066.11 1.066.551a.786.786 0 01-.441.625 1.252 1.252 0 00-.478 1.1 1.043 1.043 0 001.14 1.066h.625c1.066 0 2.132-.074 3.235-.074.882 0 .956.294.956 1.324v1.4c0 1.029-.073 1.324-.956 1.324-1.25 0-2.5-.074-3.75-.074h-.7a.6.6 0 00-.588.588v.184a.583.583 0 00.613.552h.012c.772 0 1.581-.036 2.353-.036.955 0 1.8.11 1.8 1.433 0 .625-.073 1.286-.073 2.059v6.911c0 .772.073 1.433.073 2.058 0 1.176-.735 1.434-1.764 1.434-.772 0-1.544-.074-2.316-.074h-.294a.471.471 0 00-.512.428l-.002.05v.257a.463.463 0 00.448.478h.875c1.25 0 2.463-.073 3.676-.073.846 0 .956.294.956 1.066v.956c0 .11 0 .368.147.368.184 0 .221-.368.294-.588.919-3.419.956-8.639.956-12.793v-5.773c0-1.434-.074-2.867-.074-4.3 0-1.324.588-1.765 1.875-1.765 1.14 0 2.279.11 3.419.11h3.052c1.139 0 2.279-.11 3.418-.11 1.287 0 1.875.4 1.875 1.765 0 1.433-.074 2.867-.074 4.3v18.638c0 1.03.037 2.059.037 3.052 0 1.654-.037 2.83-.919 3.676-.993.919-3.713 1.029-5.073 1.029a1.788 1.788 0 01-2.1-1.654 10.643 10.643 0 01-.331-2.647c0-.882.037-1.287.919-1.287.4 0 .808.037 1.213.037 1.36 0 1.36-.808 1.36-1.433v-4.191c0-.568-.459-1.028-1.027-1.029H61.07c-1.213 0-1.286.735-1.36 1.507a28.105 28.105 0 01-3.014 9.742c-.294.478-.515.919-1.14.919-1.066 0-3.676-1.287-3.676-2.243.103-.384.278-.746.515-1.066a6.113 6.113 0 00.735-1.58c0-.4-.147-.478-3.529-.478h-.735a1.025 1.025 0 00-1.1 1.029c0 1.066.074 2.133.074 3.2 0 .993-.4 1.066-1.581 1.066H44.2c-1.176 0-1.581-.073-1.581-1.066 0-1.066.073-2.132.073-3.2a1.025 1.025 0 00-1.016-1.032c-.028 0-.056 0-.084.003h-.514c-1.14 0-2.316.073-3.492.073-.882 0-.956-.33-.956-1.4v-1.504c0-1.066.074-1.4.956-1.4 1.213 0 2.463.073 3.676.073l.994.003zm5.331-10.514a.486.486 0 00-.478-.478h-3.493a.456.456 0 00-.441.47v.118a.457.457 0 00.433.478h3.501a.514.514 0 00.478-.478v-.11zm0 4.742a.486.486 0 00-.478-.478h-3.493a.456.456 0 00-.441.47v.118a.457.457 0 00.433.478h3.501a.487.487 0 00.478-.478v-.11zm15.072-9.375a1 1 0 001.03-.969V60.619c0-.568-.459-1.028-1.027-1.029H61.005a1.052 1.052 0 00-1.029 1.029v.846a1 1 0 00.97 1.029H62.659zm-1.654 4.89a1.013 1.013 0 00-1.029.955v.882c0 .589.477 1.065 1.066 1.066h1.617a1.028 1.028 0 001.03-1.026v-.848a1 1 0 00-.97-1.029h-1.714zM96.732 77.299c0 2.728.154 8.647.154 9.007 0 1.081-.309 1.287-1.492 1.287h-5.97c-1.184 0-1.493-.206-1.493-1.287 0-.36.154-6.279.154-9.007v-16.47c0-.926-.154-1.286-.617-1.286a2.33 2.33 0 00-.824.206 63.732 63.732 0 00-4.684 1.853 2.305 2.305 0 01-.978.309c-.463 0-.669-.36-.926-1.132l-1.8-5.095a2.761 2.761 0 01-.206-.978c0-.463.309-.669 1.184-.926a92.169 92.169 0 009.728-3.5 6.824 6.824 0 013.037-.618h3.4c1.184 0 1.492.206 1.492 1.286 0 .361-.154 6.279-.154 9.007l-.005 17.344zM137.42 67.726c0 12.765-7.617 20.176-17.191 20.176-9.265 0-16.419-6.485-16.419-18.683 0-10.964 5.816-19.868 17.191-19.868 9.059 0 16.419 6.176 16.419 18.375m-24.809 1.75c0 6.9 2.831 10.448 7.618 10.448 5.044 0 8.441-4.735 8.441-11.89 0-6.9-3.037-10.243-7.669-10.243-5.971 0-8.39 5.456-8.39 11.684M152.505 79.48c-.294 0-.515.11-.515.441 0 .552.037 1.1.037 1.655 0 .808-.221.882-1.471.882h-2.536c-.735 0-1.1-.074-1.1-.846 0-1.58.073-3.162.073-4.742V61.724c0-1.14-.037-2.316-.037-3.456 0-1.176.4-1.691 1.618-1.691.919 0 1.838.074 2.757.074h2.39c.919 0 1.838-.074 2.757-.074 1.1 0 1.654.368 1.654 1.728 0 1.139-.073 2.279-.073 3.419v13.859c0 1.58.073 3.161.073 4.742 0 .772-.257.845-1.25.845h-2.132c-.882 0-1.176-.074-1.176-.845v-.4a.424.424 0 00-.406-.441h-.035l-.628-.004zm.441-13.822a.7.7 0 00.7-.7v-2.83a.7.7 0 00-.7-.7h-.294a.7.7 0 00-.7.7v2.831a.7.7 0 00.7.7h.294zm-.294 4.411a.708.708 0 00-.701.713v3.222a.705.705 0 00.676.734h.318a.708.708 0 00.701-.713v-3.222a.73.73 0 00-.7-.735h-.294zm20.4-12.242c1.323 0 2.684-.074 3.97-.074.845 0 .918.331.918 1.213v1.729c0 1.139-.073 1.47-.882 1.47-1.361 0-2.684-.11-4.007-.11h-.993a.9.9 0 00-.883.883v.551c.004.39.323.704.713.701h1.122c1.581 0 3.2-.074 4.779-.074 1.1 0 1.213.294 1.213 1.433v1.765c0 1.14-.111 1.47-1.176 1.47-.478 0-.956-.036-1.434-.036-.11 0-.331.036-.331.221 0 .036.036.073.036.11 0 .257-.331.331-.514.441-.331.147-.441.368-.441.846a.74.74 0 00.772.7c.552 0 1.14-.037 1.691-.037.993 0 1.066.368 1.066 1.471v1.136c0 2.169-.073 2.243-1.1 2.243-.33 0-.808-.037-1.434-.037a1.034 1.034 0 00-1.029 1.139v3.713c0 .809.073 1.617.073 2.426 0 3.713-2.941 3.933-5.919 3.933-2.242 0-2.757-.147-3.051-1.323a11.312 11.312 0 01-.294-2.5v-.147c0-.221-.11-.551-.4-.551a.868.868 0 00-.478.183 3.252 3.252 0 01-1.323.588c-.515 0-1.1-.993-2.1-2.463a18.192 18.192 0 00-1.4-1.912c-.147-.183-.331-.33-.331-.551 0-.515 1.618-1.764 2.059-2.058.11-.074.294-.147.294-.294s-.147-.183-.257-.183c-.4 0-.809.037-1.213.037-.993 0-1.067-.4-1.067-1.655v-1.728c0-1.139.111-1.471 1.067-1.471 1.323 0 2.61.074 3.9.074h4.669a.724.724 0 00.771-.674c.001-.02.002-.04.001-.061a9.303 9.303 0 00-.111-1.066.58.58 0 00-.661-.588h-4.448c-1.618 0-3.2.073-4.779.073-1.1 0-1.25-.294-1.25-1.4v-1.8c0-1.176.111-1.471 1.25-1.471 1.581 0 3.162.074 4.779.074h.073a.88.88 0 00.956-.919v-.257a.888.888 0 00-.956-.956c-1.1 0-2.206.11-3.345.11-.846 0-.919-.294-.919-1.433v-1.617c0-.993.074-1.36.956-1.36 1.287 0 2.206.11 2.868.11 1.029 0 1.4-.257 1.4-1.58a12.76 12.76 0 00-.11-1.691c0-.074-.037-.221-.037-.294 0-.441.4-.478.735-.478.735 0 3.823.257 4.632.331.257.037.808.074.808.478 0 .221-.221.368-.4.478-.331.257-.368.7-.368 1.691 0 .515.294 1.029 1.213 1.029h.657zm-2.941 18.969c0-.568-.459-1.028-1.027-1.029h-3.825c-.4 0-.882.037-.882.478.035.23.153.439.331.588.478.625 2.353 3.2 2.353 3.86 0 .22-.147.368-.147.588 0 .4.368.441.882.441h1.03c1.25 0 1.286-.183 1.286-2.242v-2.684z"/></g><g><path d="M25.659 109.049c1.25 0 2.537-.11 3.052-.11a2.96 2.96 0 012.61 1.434c.528.577.884 1.29 1.029 2.058 0 1.323-5.367 7.058-6.616 7.058-1.14 0-3.53-2.5-3.53-3.235 0-.258.184-.4.515-.625.497-.355.976-.736 1.434-1.14a.82.82 0 00.257-.367c0-.221-.221-.257-.588-.257h-3.639a1 1 0 00-1.03.969V120.776c0 .735.037 1.507.037 2.279a6.541 6.541 0 01-.919 3.9c-1.359 1.875-4.3 2.279-6.616 2.279-.662 0-1.764 0-2.132-.772a11.047 11.047 0 01-.7-3.64c0-.662.147-1.36.993-1.36.283.006.566.031.846.074.4.036 1.4.073 1.8.073.993 0 1.14-.294 1.14-1.4v-7.314a1 1 0 00-.97-1.029H5.257c-1.434 0-2.868.074-4.338.074-.809 0-.919-.331-.919-1.36v-2.281c0-.955.073-1.36.882-1.36 1.471 0 2.941.11 4.375.11h7.315c.442 0 .662-.073.662-.33 0-.294-.294-.441-.478-.551a37.395 37.395 0 00-3.639-2.28c-.773-.4-1.067-.514-1.067-.919 0-.625 1.029-1.8 1.471-2.242.111-.111.184-.184.184-.331 0-.294-.331-.331-.551-.331-1.213 0-2.463.11-3.677.11-.919 0-1.029-.368-1.029-1.507v-2.169c0-1.029.073-1.434.992-1.434 1.36 0 2.721.074 4.117.074h11.507c1.139 0 2.243-.037 3.345-.037 1.067 0 1.36.294 2.059 1.14a6.272 6.272 0 011.433 2.536c0 .808-2.206 2.426-3.272 3.2a42.228 42.228 0 01-3.786 2.463c-.257.147-.551.331-.551.661.01.247.149.471.367.589.735.551.735.7.772.956a.692.692 0 00.735.4l3.493.002zm-12.315-6.985c-.368 0-.441.037-.441.221.515.39 1.056.746 1.617 1.066.381.323.862.505 1.361.515a4.037 4.037 0 002.463-1.544c0-.257-.257-.257-.846-.257h-4.154zM47.917 109.638a8.656 8.656 0 00-1.067 1.47c0 .147.184.295.441.295.124.008.248-.005.368-.037.515-.074 1.212.037 1.212-.478a1.758 1.758 0 00-.257-.735 2.013 2.013 0 01-.221-.662c0-.845 2.721-1.912 3.162-1.912.074 0 .294.037.4.037.772 0 1.029-.551 1.36-1.176.047-.129.108-.253.184-.368a40.662 40.662 0 003.346-9.3c.11-.515.146-.735.588-.735a32.72 32.72 0 013.382.7c1.471.331 1.838.552 1.838.882s-.294.4-.551.515c-.478.184-.551.441-.809 1.287-.111.368-.221.772-.4 1.324a4.324 4.324 0 00-.221.993c0 .625.625.735 1.14.735h3.051c1.36 0 2.427-.074 3.2-.074 2.5 0 2.536.478 2.536 3.639a99.574 99.574 0 01-1.4 17.866c-.331 1.654-.662 3.272-2.132 4.3-1.4.993-4.264 1.286-5.955 1.286-1.066 0-2.058-.11-2.427-1.25a10.506 10.506 0 01-.441-3.2c0-.809.074-1.25.992-1.25.368 0 1.324.11 1.545.147.367.037 1.286.037 1.654.037 1.1 0 1.912 0 2.242-2.867.368-3.162.735-8.823.735-11.985 0-1.507-.257-1.654-1.985-1.654h-3.86c-1.287 0-1.618.662-2.133 1.654-.625 1.25-.882 1.691-1.4 1.691a6.126 6.126 0 01-1.948-.515 1.433 1.433 0 00-.368-.11.259.259 0 00-.257.294c.122.425.269.843.441 1.25a16.42 16.42 0 011.139 3.382c0 .919-3.088 1.765-3.418 1.765-.478 0-.589-.4-.7-.662a1.016 1.016 0 00-.993-.772c-.809 0-1.029.588-1.029 1.286v5.809c0 1.874.073 3.75.073 5.624 0 .993-.33 1.1-1.544 1.1h-2.231c-1.14 0-1.581-.073-1.581-1.066 0-1.875.111-3.787.111-5.661v-2.607c0-.294-.038-.367-.184-.367-.368 0-.4.515-.441.772a60.251 60.251 0 01-1.139 6.323c-.111.478-.184 1.176-.772 1.176-.551 0-3.272-.7-3.272-1.471.08-.448.19-.89.331-1.323a37.818 37.818 0 001.212-6.47c.037-.515 0-.993.552-.993.657.091 1.308.225 1.948.4.433.129.876.227 1.323.294a.417.417 0 00.442-.441c0-.993-.295-1.324-1.434-1.324-.294 0-1.213.11-1.581.147a.674.674 0 00-.625.441.63.63 0 01-.588.441c-.331 0-.478-.147-.625-1.139-.037-.368-.588-3.051-.662-3.382a3.41 3.41 0 01-.147-.845c0-.368.4-.368.845-.368h.809a2.8 2.8 0 001.544-.295 4.424 4.424 0 001.25-2.022c0-.4-.552-.92-.919-1.287a1.18 1.18 0 01-.221-.184c-.9-.801-1.845-1.55-2.83-2.243-.184-.147-.514-.294-.514-.551a5 5 0 01.882-1.8c.147-.257.257-.478.368-.662.221-.368.7-1.36 1.213-1.36a.65.65 0 01.367.147c.091.053.191.09.294.11.331 0 .478-.441 1.029-1.838.368-.882.81-2.169 1.14-3.272.11-.4.221-.625.551-.625.952.286 1.885.63 2.795 1.029.162.052.322.114.477.184.7.257 1.25.4 1.25.809s-.294.441-.515.515a.86.86 0 00-.735.515c-.661 1.25-1.25 2.5-1.948 3.75a3.708 3.708 0 01-.331.551 2.4 2.4 0 00-.441.993c0 .441.441.956.735.956s.735-.772.993-1.25a.749.749 0 00.147-.221c.478-.919.956-1.838 1.4-2.72.257-.478.331-.735.735-.735 1.045.388 2.064.842 3.051 1.36.257.111.442.221.551.257.515.221 1.361.515 1.361 1.03 0 .441-.442.441-.81.515a.957.957 0 00-.588.4 205.702 205.702 0 01-4.08 5.772m2.316 7.9a8.833 8.833 0 011.948-.478.74.74 0 01.661.33 33.38 33.38 0 011.361 3.566c.288.83.522 1.677.7 2.537 0 .772-2.978 1.507-3.272 1.507-.552 0-.7-.515-.809-1.14a32.483 32.483 0 00-1.433-4.889 1.518 1.518 0 01-.147-.588c0-.441.367-.625.993-.846m9.778-6.507c.533.973 1 1.98 1.4 3.015a33.986 33.986 0 011.544 4.3c0 1.029-3.419 1.985-3.823 1.985-.589 0-.7-.588-.846-1.029-.7-1.912-1.654-4.339-2.536-6.14a1.937 1.937 0 01-.221-.588c0-.882 3.346-2.1 3.75-2.1.368 0 .552.257.735.551M94.546 101.108c.847.018 1.694-.019 2.536-.11.305-.043.612-.068.92-.074 1.139 0 3.162 2.757 3.162 3.272a4.303 4.303 0 01-.552 1.139 67.97 67.97 0 01-5.109 7.94 1.005 1.005 0 00-.294.7.83.83 0 00.515.772 76.312 76.312 0 016.691 5.221c.367.331 1.654 1.47 1.911 1.8a.523.523 0 01.22.441c0 1.029-3.087 4.264-4.117 4.264-.551 0-1.03-.589-1.433-1.067a.673.673 0 00-.184-.257 39.48 39.48 0 00-6.47-5.918 2.96 2.96 0 00-1.214-.625 1.292 1.292 0 00-.919.442 42.071 42.071 0 01-5.771 4.411c-.809.515-4.375 2.61-5.11 2.61-.662 0-2.022-2.022-2.426-2.61a5.685 5.685 0 01-.919-1.985c0-.552.515-.772.956-.919a32.87 32.87 0 0015.109-12.058c.258-.32.434-.697.514-1.1 0-.625-.625-.7-1.249-.7h-5.588c-1.654 0-3.345.073-5.036.073-.92 0-.992-.441-.992-1.764v-2.464c0-1.286.073-1.544.956-1.544 1.691 0 3.381.11 5.073.11h8.819zM131.579 102.322c.69.01 1.38-.051 2.058-.183.106-.042.217-.067.331-.074.809 0 2.352 2.279 2.352 3.051a.644.644 0 01-.147.441c-.326.578-.609 1.18-.846 1.8a62.086 62.086 0 01-3.2 6.47 1.643 1.643 0 00-.331.882c.026.415.262.789.625.992.4.294 1.911 1.4 1.911 1.875 0 .661-2.5 3.9-3.418 3.9a.81.81 0 01-.589-.331c-.367-.367-1.507-1.507-1.985-1.507-.31.025-.593.187-.772.441a30.41 30.41 0 01-6.654 5.4c-1.1.7-4.852 2.683-6.065 2.683-.846 0-1.728-1.1-2.206-1.691a7.94 7.94 0 01-1.434-2.316c0-.4.441-.551 1.287-.772.184-.073.368-.11.589-.184 4.706-1.36 10.4-5.661 10.4-6.69a.76.76 0 00-.478-.662 25.534 25.534 0 00-3.015-1.507c-.331-.147-1.1-.478-1.1-.883 0-.588 2.022-3.934 3.162-3.934a23.504 23.504 0 014.007 1.949c.223.139.474.227.735.257.625 0 .919-.588 1.25-1.286.401-.744.709-1.534.919-2.353 0-.625-.809-.7-1.287-.7h-5c-1.029 0-1.323.073-1.838.772a56.789 56.789 0 01-4.338 5.109c-.441.442-1.25 1.287-1.875 1.287a7.519 7.519 0 01-2.61-1.433c-.919-.662-1.691-1.4-1.691-1.691 0-.368.441-.662.7-.846a32.882 32.882 0 009.926-13.382c.111-.331.294-.919.7-.919a33.576 33.576 0 014.264 1.728c.662.257 1.177.514 1.4.624.147.074.257.147.257.257 0 .184-.073.257-.4.4-.588.221-.735.515-1.1 1.176a2.99 2.99 0 00-.588 1.25c0 .441.331.551.7.588l5.394.012zM166.077 109.416c2.169 0 4.522-.147 4.853-.147.956 0 1.1.4 1.1 1.471v1.765c0 2.022-.037 2.647-1.213 2.647-1.434 0-3.124-.11-4.742-.11h-16.91c-1.618 0-3.346.11-4.706.11-1.25 0-1.25-.7-1.25-2.647v-1.692c0-1.1.11-1.544 1.066-1.544.515 0 2.573.147 4.89.147h16.912zM189.804 123.35c0 1.213.037 2.426.037 3.676 0 1.764-.11 1.911-2.5 1.911h-1.654c-1.471 0-1.911-.184-1.911-1.14 0-1.471.073-2.9.073-4.375v-21.21c0-1.508-.073-3.419-.073-4.559 0-.478.073-.7.588-.7 1.899.146 3.788.391 5.661.735.22.074.4.22.4.441a.64.64 0 01-.22.442 1.913 1.913 0 00-.4 1.323v7.132c0 .184.037.515.441.515.221 0 .442-.147.625-.147.488.105.95.305 1.361.588 1.176.735 2.684 1.912 3.162 2.279a43.663 43.663 0 013.382 2.978c.151.16.242.368.257.588 0 .735-2.684 3.713-3.529 3.713-.33 0-.7-.368-.919-.588-.625-.588-3.639-3.308-4.228-3.308-.514 0-.551.515-.551.882l-.002 8.824zM215 123.239a3.616 3.616 0 01-3.823 3.787 3.2 3.2 0 01-3.419-3.235 3.664 3.664 0 013.787-3.933 3.324 3.324 0 013.456 3.382m-4.963-5.7c-.956 0-1.1-.147-1.14-1.1l-.367-8.712c-.147-2.279-.441-7.353-.441-8.088 0-.625.22-.772 1.029-.772h4.485c.808 0 1.029.147 1.029.772 0 .735-.294 5.772-.441 8.529l-.331 8.271c-.036.956-.184 1.1-1.14 1.1h-2.683z"/></g></g></svg>