<svg xmlns="http://www.w3.org/2000/svg" width="220" height="155" viewBox="0 0 220 155"><path d="M211.839 2c0-1.11.89-2 2-2a2 2 0 110 4c-1.11 0-2-.89-2-2zM203.819 2a2 2 0 012-2c1.11 0 2 .89 2 2 0 1.11-.89 2-2 2a2 2 0 01-2-2zM195.809 2a2 2 0 012-2c1.11 0 2 .89 2 2 0 1.11-.89 2-2 2a2 2 0 01-2-2zM187.799 2c0-1.11.89-2 2-2a2 2 0 110 4c-1.11 0-2-.89-2-2zM179.78 2c0-1.11.899-2 2-2 1.109 0 2.01.89 2.01 2 0 1.11-.9 2-2.01 2-1.101 0-2-.89-2-2zM171.769 2a2 2 0 012-2c1.11 0 2 .89 2 2 0 1.11-.89 2-2 2a2 2 0 01-2-2zM163.759 2c0-1.11.89-2 2-2a2 2 0 110 4c-1.11 0-2-.89-2-2zM155.75 2c0-1.11.889-2 2-2a2 2 0 110 4c-1.11 0-2-.89-2-2zM147.729 2a2 2 0 012-2c1.11 0 2 .89 2 2 0 1.11-.89 2-2 2a2 2 0 01-2-2zM139.719 2c0-1.11.89-2 2-2 1.11 0 2 .89 2 2 0 1.11-.89 2-2 2-1.11 0-2-.89-2-2zM131.71 2c0-1.11.889-2 2-2a2 2 0 110 4c-1.11 0-2-.89-2-2zM123.689 2a2 2 0 012-2c1.11 0 2 .89 2 2 0 1.11-.89 2-2 2a2 2 0 01-2-2zM115.679 2a2 2 0 012-2c1.11 0 2 .89 2 2 0 1.11-.89 2-2 2a2 2 0 01-2-2zM107.669 2c0-1.11.891-2 2-2a2 2 0 110 4c-1.11 0-2-.89-2-2zM99.659 2c0-1.11.89-2 2-2a2 2 0 110 4c-1.11 0-2-.89-2-2zM91.639 2a2 2 0 012-2c1.11 0 2 .89 2 2 0 1.11-.89 2-2 2a2 2 0 01-2-2zM83.629 2c0-1.11.891-2 2-2a2 2 0 110 4c-1.11 0-2-.89-2-2zM75.619 2c0-1.11.89-2 2-2a2 2 0 110 4c-1.11 0-2-.89-2-2zM67.599 2a2 2 0 012-2c1.11 0 2 .89 2 2 0 1.11-.89 2-2 2a2 2 0 01-2-2zM59.589 2a2 2 0 012-2c1.11 0 2 .89 2 2 0 1.11-.89 2-2 2a2 2 0 01-2-2zM51.579 2c0-1.11.89-2 2-2a2 2 0 110 4c-1.11 0-2-.89-2-2zM43.56 2a2 2 0 012-2c1.11 0 2.01.89 2.01 2 0 1.11-.9 2-2.01 2a2 2 0 01-2-2zM35.549 2a2 2 0 012-2c1.11 0 2 .89 2 2 0 1.11-.89 2-2 2a2 2 0 01-2-2zM27.54 2c0-1.11.889-2 2-2a2 2 0 110 4c-1.11 0-2-.89-2-2zM19.529 2c0-1.11.89-2 2-2a2 2 0 110 4c-1.11 0-2-.89-2-2zM11.509 2a2 2 0 012-2c1.11 0 2 .89 2 2 0 1.11-.89 2-2 2a2 2 0 01-2-2zM3.5 2c0-1.11.899-2 2-2 1.109 0 2 .89 2 2 0 1.11-.89 2-2 2a2 2 0 01-2-2zM72.461 34.785c0 .324-.057.408-.352.408-.1 0-.747-.028-1.2-.028h-1.67c-.352 0-.423-.071-.423-.423v-12.3c0-.352.071-.422.423-.422h1.673c.45 0 1.1-.028 1.2-.028.3 0 .352.084.352.409v.52c0 .338-.043.408-.339.408-.182 0-.76-.014-1.21-.014h-.411c-.338 0-.394.056-.394.38v9.785c0 .338.057.394.394.394h.408c.45 0 1.028-.014 1.21-.014.3 0 .339.07.339.408v.517zM82.555 32.422c-.141.042-.155.07-.267.366-.028.07-.056.155-.1.253a13.414 13.414 0 01-.689 1.533c-.056.1-.127.212-.253.212-.211 0-1.041-.3-1.041-.521.029-.115.076-.225.141-.324a9.261 9.261 0 00.915-2.054c.028-.1.056-.155.155-.155.253.059.502.134.746.225.394.127.562.169.562.309 0 .113-.084.127-.168.155m2.293-2.589c0 .324.028.661.028 1 0 .45-.07.7-.576.7-.253 0-.492-.014-.746-.014h-1.436c-.253 0-.492.014-.732.014-.45 0-.577-.183-.577-.647 0-.352.014-.7.014-1.055v-5.54c0-.352-.014-.7-.014-1.055 0-.423.1-.661.549-.661.253 0 .507.028.76.028h1.435c.253 0 .492-.028.746-.028.478 0 .576.239.576.675 0 .352-.028.689-.028 1.041v5.542zm-2.336-5.936a.372.372 0 00-.393.351v.52a.4.4 0 00.394.394h.675a.394.394 0 00.394-.392v-.494c-.028-.239-.141-.379-.394-.379h-.675zm0 2.462a.372.372 0 00-.393.351v.535a.4.4 0 00.394.394h.675a.394.394 0 00.394-.392v-.509a.38.38 0 00-.383-.379h-.686zm0 2.49a.394.394 0 00-.394.392v.622a.373.373 0 00.366.38H83.188c.253 0 .366-.141.394-.379v-.62a.385.385 0 00-.376-.394H82.513zm1.618 5.22c-.225 0-.408-.478-.507-.7a8.533 8.533 0 01-.45-1.2c0-.254.817-.436.957-.436.183 0 .226.182.282.338.084.225.31.7.422.915a.183.183 0 00.169.113.199.199 0 00.168-.127 15.664 15.664 0 00.957-5.965v-2.35c0-.422-.014-.845-.014-1.266 0-.563.211-.7.746-.7.422 0 .844.028 1.266.028h2.687c.563 0 1.126-.042 1.688-.042.366 0 .338.155.338.7s.028.689-.324.689c-.563 0-1.14-.028-1.7-.028h-2.9c-.282 0-.394.113-.394.394v1.365c0 .281.112.394.394.394h2.631c.267 0 .549-.015.83-.015a.773.773 0 01.718.31.984.984 0 01.3.633 5.907 5.907 0 01-.155.943 11.662 11.662 0 01-1.266 3.236.715.715 0 00-.085.3c0 .116.045.228.127.31a13.456 13.456 0 001.8 1.772c.141.113.239.183.239.31-.148.41-.474.731-.886.872a.713.713 0 01-.45-.24 16.032 16.032 0 01-1.534-1.561.327.327 0 00-.239-.141.335.335 0 00-.239.127c-.31.352-1.857 1.8-2.265 1.8-.267 0-.844-.689-.844-.886 0-.141.253-.3.465-.437a9.437 9.437 0 001.871-1.646.508.508 0 00.127-.31.598.598 0 00-.084-.3 9.92 9.92 0 01-1.126-3.5c-.014-.1-.056-.239-.169-.239s-.154.127-.154.211a17.757 17.757 0 01-.591 4.488c-.112.38-.844 2.49-1.224 2.49a2.041 2.041 0 01-.971-.577c-.056-.071-.126-.169-.225-.169a.268.268 0 00-.1.029 1.05 1.05 0 01-.282.07m5.3-6.6c-.239 0-.38.113-.352.366.109.76.342 1.497.69 2.181a.22.22 0 00.182.127.191.191 0 00.169-.113 8.97 8.97 0 00.787-2.364c0-.211-.183-.2-.549-.2l-.927.003zM101.451 30.283a4.661 4.661 0 01-2.251 3.726 5.644 5.644 0 01-1.941.844c-.423 0-.831-.745-.831-.957s.338-.253.492-.31c1.717-.591 3-1.506 3.166-3.433a2.67 2.67 0 00.014-.31c.014-.31.014-.436.267-.436.359.033.716.084 1.069.154.113.014.45.056.45.211 0 .127-.2.2-.3.253a.315.315 0 00-.141.253m2.293-6.767h2.955c.548 0 1.1-.028 1.66-.028.337 0 .323.141.323.647s.014.647-.323.647c-.563 0-1.112-.028-1.66-.028h-2.948c-.282 0-.394.113-.394.38v.2c0 .281.112.394.394.394h2.054c.464 0 .942-.028 1.407-.028.31 0 .281.168.281.633 0 .507.015.661-.281.661-.465 0-.943-.028-1.407-.028h-6.388c-.478 0-.943.028-1.407.028-.3 0-.3-.127-.3-.661 0-.492 0-.633.3-.633.464 0 .929.028 1.407.028h2.068c.267 0 .38-.113.38-.394v-.2c0-.267-.113-.38-.38-.38h-2.912c-.549 0-1.111.028-1.66.028-.338 0-.324-.141-.324-.647s-.014-.647.324-.647c.562 0 1.111.028 1.66.028h2.913c.253 0 .366-.1.38-.366 0-.197-.014-.395-.043-.59a.417.417 0 01-.014-.127c0-.155.112-.2.253-.2.183 0 1.027.084 1.252.1.127.014.365.028.365.183 0 .1-.084.141-.182.211-.141.113-.127.253-.141.422.014.267.126.366.394.366m3.192 5.914c0-.267-.113-.379-.379-.379h-7.906c-.267 0-.394.113-.394.379v.253c0 .183.042.436.042.605 0 .338-.239.31-.745.31-.577 0-.774.014-.774-.324 0-.168.029-.408.029-.6v-.549c0-.309-.029-.6-.029-.759 0-.492.352-.577 1.028-.577.337 0 .759.028 1.252.028h7.091c.507 0 1.013-.028 1.506-.028.393 0 .773.113.773.577 0 .2-.028.45-.028.759v.563c0 .2.028.394.028.605 0 .324-.168.324-.76.324-.549 0-.759 0-.759-.31 0-.127.028-.423.028-.605l-.003-.272zm-.619 3.855c.507 0 .8-.056.971-1.182.028-.2.028-.38.268-.38.279.027.553.088.816.183.24.084.338.14.338.323a4.35 4.35 0 01-.577 1.843c-.379.577-.886.577-1.506.577h-2.109c-.746 0-1.28-.225-1.28-1.069 0-.267.014-.52.014-.788v-1.87c.014-.385 0-.77-.042-1.153 0-.043-.014-.085-.014-.127 0-.155.113-.182.239-.182.211 0 .957.07 1.2.1.127.014.38.014.38.182 0 .084-.085.127-.141.183-.155.127-.168.38-.168.661v2.068c0 .549.126.633.689.633l.922-.002zM115.465 32.309c-.141.014-.169.014-.267.2a11.333 11.333 0 01-1.52 2.138c-.084.1-.2.225-.338.225-.267 0-.985-.366-.985-.661 0-.1.1-.183.155-.24a8.904 8.904 0 001.632-2.336c.042-.07.084-.182.183-.182a5.16 5.16 0 011.041.464c.084.028.267.127.267.24s-.084.14-.169.155m-1.773-2.533v-4.28c0-.267-.113-.38-.38-.38h-.267c-.352 0-.338-.155-.338-.619 0-.492-.014-.633.338-.633h.267a.33.33 0 00.38-.38 6.257 6.257 0 00-.056-.886c0-.042-.014-.1-.014-.141 0-.155.1-.183.239-.183s.985.071 1.154.1c.127.014.338.014.338.183 0 .1-.07.126-.169.211-.155.1-.169.31-.169.577v.183c.028.267.141.366.394.366h1.055c.281 0 .38-.113.394-.394s-.028-.591-.056-.872c0-.042-.014-.1-.014-.141 0-.155.1-.2.239-.2.2 0 .915.07 1.14.1.127.015.352.015.352.2 0 .084-.07.127-.169.2-.169.127-.155.31-.155.7 0 .268.1.38.365.38h.24c.352 0 .338.155.338.633 0 .45.014.619-.324.619h-.239c-.268 0-.38.113-.38.38v4.277c0 .268.1.38.365.38.127 0 .268-.014.394-.014.352 0 .352.14.352.619 0 .464.015.619-.337.619-.465 0-.915-.042-1.365-.042h-3.461c-.45 0-.9.042-1.35.042-.352 0-.352-.155-.352-.619s0-.619.352-.619c.155 0 .365.014.534.028.268-.014.366-.126.366-.394m1.323-4.165c0 .217.175.393.392.394h1.057a.393.393 0 00.394-.394v-.126a.4.4 0 00-.394-.394h-1.056a.4.4 0 00-.394.394v.126zm0 2.054a.4.4 0 00.394.394h1.055a.4.4 0 00.394-.394v-.157a.374.374 0 00-.365-.381h-1.085a.372.372 0 00-.393.351v.186zm1.843 1.9a.4.4 0 00-.394-.394h-1.056a.4.4 0 00-.394.394v.226a.4.4 0 00.394.394h1.055a.4.4 0 00.394-.394v-.226zm.774 2.2c.3.436.661.928 1 1.351a.348.348 0 01.113.2c0 .253-.661.675-.9.675-.324 0-.788-.788-.971-1.083a3.793 3.793 0 01-.464-.859c0-.267.7-.59.9-.59.141 0 .2.126.324.31m3.771-1.66c-.282 0-.394.1-.422.365a11.716 11.716 0 01-.817 3.461c-.239.535-.408.943-.633.943-.268 0-1.055-.338-1.055-.647.039-.129.095-.252.169-.365 1.069-1.773 1.125-4.179 1.125-6.191v-2.981c0-.45-.028-.915-.028-1.379s.183-.633.633-.633c.352 0 .689.028 1.027.028h1.393c.337 0 .675-.028 1.013-.028.549 0 .647.2.647.83 0 .281-.028.675-.028 1.182v7.443c0 .366.042.718.042 1.083 0 1.52-.773 1.674-2.1 1.674-.492 0-.7-.07-.8-.478a3.284 3.284 0 01-.1-.732c0-.2.071-.338.3-.338.113 0 .492.042.689.042.675 0 .648-.324.648-.886V30.48c0-.267-.113-.379-.394-.379l-1.309.011zm.082-3.051c-.282 0-.394.113-.394.394v.056c0 .3 0 .6-.014.914.014.268.126.366.394.366h1.238c.282 0 .394-.113.394-.394v-.943c0-.281-.113-.394-.394-.394h-1.224zm1.224-1.323a.393.393 0 00.394-.394v-.929a.393.393 0 00-.394-.394h-1.224a.4.4 0 00-.394.394v.929a.4.4 0 00.394.394h1.224zM130.295 32.281c0 .689.043 1.379.043 2.083 0 .436-.141.45-.732.45s-.732-.015-.732-.45c0-.69.028-1.379.028-2.083v-7.626c0-.436-.014-.872-.014-1.309 0-.549.211-.718.746-.718.352 0 .7.029 1.069.029h1.547c.352 0 .7-.029 1.07-.029.521 0 .746.155.746.7 0 .422-.015.844-.015 1.266v.8c0 .394.015.788.015 1.2 0 .549-.225.689-.746.689-.352 0-.718-.015-1.07-.015h-1.561c-.281 0-.394.113-.394.38v4.633zm.338-8.54a.326.326 0 00-.338.314v.124a.326.326 0 00.314.338h1.712a.325.325 0 00.338-.311v-.127a.325.325 0 00-.311-.338H130.633zm-.338 2.139a.325.325 0 00.312.337H132.32a.325.325 0 00.338-.312v-.153a.326.326 0 00-.314-.338h-1.712a.326.326 0 00-.338.314v.151zm3.461 7.176c-.168 0-.253.07-.253.253.015.436-.056.436-.689.436-.521 0-.689 0-.689-.31 0-.352.028-.718.028-1.069v-2.491c0-.281-.014-.562-.014-.844 0-.478.3-.563.7-.563.3 0 .591.015.9.015h1.773c.3 0 .591-.015.886-.015.408 0 .718.085.718.563 0 .282-.014.563-.014.844v2.488c0 .351.029.717.029 1.069 0 .31-.169.31-.69.31s-.689 0-.689-.3v-.14c0-.183-.084-.253-.253-.253l-1.743.007zm1.745-2.758a.251.251 0 00.267-.234v-.189a.244.244 0 00-.267-.267h-1.759a.258.258 0 00-.267.249v.173a.277.277 0 00.267.268h1.759zm-2.026 1.309a.325.325 0 00.313.337h1.656a.313.313 0 00.325-.301V31.563a.3.3 0 00-.324-.324h-1.632a.313.313 0 00-.336.29v.078zm3.672-4.32c-.352 0-.7.028-1.055.028-.521 0-.76-.141-.76-.7 0-.394.028-.788.028-1.182v-.82c0-.408-.028-.816-.028-1.224 0-.563.182-.746.746-.746.365 0 .717.028 1.069.028h1.506c.352 0 .7-.028 1.055-.028.535 0 .76.141.76.718 0 .436-.028.872-.028 1.308v7.345c0 .394.028.773.028 1.167 0 1.351-.773 1.618-1.984 1.618-.548 0-.858 0-.858-1.069 0-.225.042-.365.281-.365.127 0 .437.042.689.042.408 0 .45-.24.45-.535V27.68c0-.281-.113-.394-.38-.394h-1.519zm-.056-3.532a.318.318 0 00-.338.297v.154a.307.307 0 00.338.324h1.632a.3.3 0 00.324-.324v-.113a.314.314 0 00-.289-.337H137.091zm-.338 2.139a.31.31 0 00.338.338h1.632a.307.307 0 00.324-.338v-.113a.314.314 0 00-.289-.337H137.091a.318.318 0 00-.338.297v.154zM148.029 33.857c.183 0 .76.014 1.21.014h.408c.338 0 .394-.056.394-.394v-9.778c0-.324-.056-.38-.394-.38h-.408c-.45 0-1.027.014-1.21.014-.3 0-.338-.071-.338-.408v-.521c0-.323.056-.408.352-.408.1 0 .746.028 1.2.028h1.674c.352 0 .422.07.422.422v12.3c0 .352-.07.422-.422.422h-1.678c-.45 0-1.1.029-1.2.029-.3 0-.352-.084-.352-.409v-.52c0-.338.042-.409.338-.409M15.814 65.26c0 1.944.11 6.162.11 6.419 0 .77-.22.917-1.063.917h-4.254c-.844 0-1.064-.147-1.064-.917 0-.257.11-4.475.11-6.419V53.523c0-.66-.11-.917-.44-.917a1.657 1.657 0 00-.587.146c-1.247.44-2.347.88-3.337 1.32-.214.125-.453.2-.7.22-.33 0-.477-.257-.66-.807l-1.284-3.631a1.98 1.98 0 01-.147-.7c0-.33.22-.477.844-.66A65.487 65.487 0 0010.274 46a4.877 4.877 0 012.164-.44h2.421c.844 0 1.063.146 1.063.917 0 .257-.11 4.474-.11 6.418l.002 12.365zM33.895 65.26c0 1.944.11 6.162.11 6.419 0 .77-.22.917-1.063.917h-4.254c-.844 0-1.064-.147-1.064-.917 0-.257.11-4.475.11-6.419V53.523c0-.66-.11-.917-.44-.917a1.657 1.657 0 00-.587.146c-1.247.44-2.347.88-3.337 1.32-.214.125-.453.2-.7.22-.33 0-.477-.257-.66-.807l-1.284-3.631a1.98 1.98 0 01-.147-.7c0-.33.22-.477.844-.66A65.487 65.487 0 0028.355 46a4.877 4.877 0 012.164-.44h2.421c.844 0 1.063.146 1.063.917 0 .257-.11 4.474-.11 6.418l.002 12.365zM50.068 68.992a3.8 3.8 0 01-3.961 4.071 3.428 3.428 0 01-3.594-3.521 3.759 3.759 0 014-3.961 3.352 3.352 0 013.558 3.411M65.252 65.26c0 1.944.11 6.162.11 6.419 0 .77-.219.917-1.063.917h-4.254c-.844 0-1.064-.147-1.064-.917 0-.257.11-4.475.11-6.419V53.523c0-.66-.11-.917-.44-.917a1.657 1.657 0 00-.587.146c-1.247.44-2.347.88-3.337 1.32-.214.125-.453.2-.7.22-.33 0-.477-.257-.66-.807l-1.284-3.631a1.98 1.98 0 01-.147-.7c0-.33.22-.477.844-.66A65.487 65.487 0 0059.712 46a4.874 4.874 0 012.164-.44h2.421c.844 0 1.063.146 1.063.917 0 .257-.11 4.474-.11 6.418l.002 12.365zM93.712 58.44c0 9.1-5.428 14.377-12.25 14.377-6.6 0-11.7-4.621-11.7-13.314 0-7.812 4.145-14.157 12.25-14.157 6.456 0 11.7 4.4 11.7 13.094m-17.678 1.247c0 4.915 2.017 7.446 5.428 7.446 3.595 0 6.015-3.374 6.015-8.472 0-4.915-2.164-7.3-5.465-7.3-4.254 0-5.978 3.888-5.978 8.325M102.267 68.174c0 1.143.065 3.625.065 3.776 0 .453-.13.539-.626.539h-2.481c-.5 0-.626-.086-.626-.539 0-.151.064-2.633.064-3.776v-7.336c0-1.143-.064-3.539-.064-3.69 0-.453.151-.6.6-.6.151 0 2.05.043 3.042.043h1.726c1.014 0 3.193-.043 3.344-.043.453 0 .539.129.539.626v2.222c0 .5-.086.626-.539.626-.151 0-2.331-.043-3.344-.043h-1.057c-.54 0-.647.108-.647.647v1.4c0 .5.086.583.583.583h.626c1.014 0 3.194-.044 3.345-.044.453 0 .539.129.539.626v2.05c0 .5-.086.626-.539.626-.151 0-2.331-.043-3.345-.043h-.561c-.54 0-.647.108-.647.647l.003 1.703zM114.133 68.174c0 1.143.065 3.625.065 3.776 0 .453-.13.539-.626.539h-2.481c-.5 0-.626-.086-.626-.539 0-.151.064-2.633.064-3.776v-7.336c0-1.143-.064-3.539-.064-3.69 0-.453.151-.6.6-.6.151 0 2.05.043 3.042.043h2.611c2.934 0 5.308 1.165 5.308 4.531a5.266 5.266 0 01-2.244 4.424c-.259.194-.367.323-.367.474.027.165.093.32.194.453l.712 1.079a274.518 274.518 0 002.956 4.4.87.87 0 01.173.367c0 .129-.151.173-.453.173h-3.021a.864.864 0 01-.971-.561 139.663 139.663 0 00-2.179-3.5l-.669-1.014a.913.913 0 00-.992-.54h-.41c-.539 0-.626.087-.626.626l.004.671zm0-4.984c0 .539.107.647.647.647h1.208a2.064 2.064 0 002.352-2.244c0-1.317-.756-1.792-1.921-1.792h-1.64c-.54 0-.647.108-.647.648v2.741zM126.041 72.489c-.5 0-.626-.087-.626-.539 0-.151.065-2.633.065-3.776v-7.272c0-1.144-.065-3.625-.065-3.776 0-.453.129-.539.626-.539h2.546c.5 0 .626.086.626.539 0 .151-.065 2.632-.065 3.776v7.272c0 1.143.065 3.625.065 3.776 0 .453-.13.539-.626.539h-2.546zM150.878 65.26c0 1.944.11 6.162.11 6.419 0 .77-.219.917-1.063.917h-4.254c-.844 0-1.064-.147-1.064-.917 0-.257.11-4.475.11-6.419V53.523c0-.66-.11-.917-.44-.917a1.657 1.657 0 00-.587.146c-1.247.44-2.347.88-3.337 1.32-.214.125-.453.2-.7.22-.33 0-.477-.257-.66-.807l-1.284-3.631a1.98 1.98 0 01-.147-.7c0-.33.22-.477.844-.66A65.487 65.487 0 00145.338 46a4.874 4.874 0 012.164-.44h2.419c.844 0 1.063.146 1.063.917 0 .257-.11 4.474-.11 6.418l.004 12.365zM170.426 65.26c0 1.944.11 6.162.11 6.419 0 .77-.22.917-1.063.917h-4.254c-.844 0-1.064-.147-1.064-.917 0-.257.11-4.475.11-6.419V53.523c0-.66-.11-.917-.44-.917a1.657 1.657 0 00-.587.146c-1.247.44-2.347.88-3.337 1.32-.214.125-.453.2-.7.22-.33 0-.477-.257-.66-.807l-1.284-3.631a1.98 1.98 0 01-.147-.7c0-.33.22-.477.844-.66A65.487 65.487 0 00164.886 46a4.877 4.877 0 012.164-.44h2.421c.844 0 1.063.146 1.063.917 0 .257-.11 4.474-.11 6.418l.002 12.365zM187.082 67.764c0 3.064-2.2 4.876-6.042 4.876a11.287 11.287 0 01-5.027-1.187c-.3-.173-.432-.28-.432-.475.014-.151.058-.297.129-.431l.971-2.093c.13-.28.216-.431.346-.431a.978.978 0 01.431.216 6.883 6.883 0 003.819 1.208c1.295 0 2.093-.5 2.093-1.316 0-.949-1.317-1.51-3.086-2.179-2.028-.777-4.38-1.964-4.38-4.747 0-3.043 2.395-4.769 6.085-4.769 1.481.003 2.944.319 4.294.928.3.151.453.259.453.453a1.27 1.27 0 01-.108.41l-.885 2.287c-.129.3-.216.453-.367.453a.84.84 0 01-.41-.194 6.873 6.873 0 00-3.323-.928c-1.489 0-2.028.561-2.028 1.208 0 .8 1.144 1.316 2.482 1.834 2.308.906 4.984 2.028 4.984 4.876M193.141 69.641a.566.566 0 00-.626.454c-.151.41-.324.82-.647 1.791-.194.518-.3.6-.863.6h-2.719c-.345 0-.5-.043-.5-.216a.912.912 0 01.129-.367c.8-1.791 1.229-2.762 1.6-3.625l3.172-7.444c.409-.992.927-2.179 1.488-3.647.216-.518.324-.6.885-.6h1.7c.561 0 .669.086.885.6a79.451 79.451 0 001.467 3.582l3.172 7.423c.41.949.841 1.921 1.64 3.711a.943.943 0 01.129.367c0 .173-.151.216-.5.216h-2.934c-.561 0-.669-.086-.863-.6-.324-.971-.5-1.381-.648-1.791-.129-.367-.237-.454-.625-.454h-5.342zm.971-3.539a.972.972 0 00-.087.367c0 .194.151.237.5.237h2.589c.345 0 .5-.043.5-.237a.971.971 0 00-.086-.367l-1.472-3.667c-.066-.173-.151-.259-.238-.259s-.173.087-.237.259l-1.469 3.667zM212.947 68.174c0 1.143.065 3.625.065 3.776 0 .453-.13.539-.626.539h-2.546c-.5 0-.626-.086-.626-.539 0-.151.065-2.633.065-3.776v-7.53c0-.539-.108-.648-.647-.648h-.45c-.776 0-2.762.044-2.913.044-.453 0-.539-.129-.539-.626V57.17c0-.5.086-.626.539-.626.151 0 2.33.043 3.344.043h5.006c1.014 0 3.193-.043 3.345-.043.453 0 .539.129.539.626v2.244c0 .5-.087.626-.539.626-.151 0-2.136-.044-2.913-.044h-.453c-.54 0-.647.108-.647.648l-.004 7.53zM45.654 99.426c0 1.6.091 5.075.091 5.286 0 .635-.181.756-.876.756h-3.5c-.695 0-.876-.121-.876-.756 0-.212.091-3.685.091-5.286v-9.664c0-.544-.091-.756-.363-.756-.167.01-.331.051-.483.121a37.918 37.918 0 00-2.749 1.087 1.353 1.353 0 01-.574.182c-.272 0-.393-.212-.544-.665l-1.057-2.99a1.616 1.616 0 01-.121-.574c0-.272.182-.393.7-.545a53.99 53.99 0 005.709-2.053 4.008 4.008 0 011.782-.363h1.994c.7 0 .876.121.876.755 0 .212-.091 3.685-.091 5.287l-.009 10.178zM70.301 93.807c0 7.491-4.471 11.841-10.09 11.841-5.437 0-9.636-3.806-9.636-10.965 0-6.434 3.414-11.66 10.09-11.66 5.316 0 9.636 3.625 9.636 10.784m-14.563 1.027c0 4.048 1.662 6.132 4.471 6.132 2.961 0 4.955-2.779 4.955-6.978 0-4.048-1.783-6.011-4.5-6.011-3.5 0-4.924 3.2-4.924 6.857M79.921 102.278c-.173 0-.3.065-.3.259 0 .324.022.647.022.971 0 .475-.13.518-.864.518h-1.488c-.432 0-.648-.043-.648-.5 0-.927.043-1.855.043-2.783v-8.89c0-.669-.021-1.36-.021-2.028 0-.69.237-.992.949-.992.539 0 1.079.043 1.619.043h1.4c.539 0 1.079-.043 1.619-.043.647 0 .971.216.971 1.014 0 .669-.043 1.338-.043 2.007v8.134c0 .928.043 1.856.043 2.784 0 .454-.151.5-.734.5h-1.251c-.518 0-.691-.043-.691-.5v-.237a.25.25 0 00-.239-.259h-.02l-.367.002zm.259-8.112a.41.41 0 00.41-.41v-1.662a.41.41 0 00-.41-.41h-.173a.41.41 0 00-.41.41v1.662c0 .226.184.41.41.41h.173zm-.173 2.589a.415.415 0 00-.41.42v1.888a.416.416 0 00.399.431h.184a.415.415 0 00.41-.42v-1.888a.428.428 0 00-.41-.431h-.173zm11.976-7.185c.777 0 1.575-.043 2.33-.043.5 0 .54.194.54.712v1.014c0 .668-.043.863-.518.863-.8 0-1.575-.064-2.352-.064H91.4a.525.525 0 00-.517.518v.324c.003.229.19.413.42.41h.659c.928 0 1.877-.043 2.8-.043.648 0 .712.173.712.841v1.036c0 .669-.065.863-.691.863-.28 0-.56-.022-.841-.022-.065 0-.194.022-.194.129 0 .022.022.043.022.065 0 .151-.194.194-.3.259-.194.086-.259.216-.259.5a.434.434 0 00.453.41c.323 0 .668-.022.992-.022.583 0 .626.216.626.863v.669c0 1.273-.043 1.316-.647 1.316-.194 0-.475-.022-.842-.022a.607.607 0 00-.6.668v2.18c0 .475.044.949.044 1.424 0 2.18-1.726 2.308-3.474 2.308-1.316 0-1.618-.086-1.791-.777a6.646 6.646 0 01-.173-1.467v-.086c0-.129-.065-.324-.237-.324a.516.516 0 00-.281.108c-.23.172-.495.29-.777.345-.3 0-.647-.583-1.23-1.445a10.848 10.848 0 00-.82-1.122c-.086-.108-.194-.194-.194-.323 0-.3.949-1.036 1.208-1.209.065-.043.173-.086.173-.172s-.086-.108-.151-.108c-.237 0-.475.022-.712.022-.583 0-.626-.237-.626-.971v-1.018c0-.669.065-.863.626-.863.777 0 1.532.043 2.287.043h2.74a.425.425 0 00.452-.396v-.035a5.699 5.699 0 00-.065-.626.34.34 0 00-.334-.348c-.018 0-.036 0-.054.003h-2.61c-.95 0-1.878.043-2.805.043-.648 0-.734-.173-.734-.82v-1.062c0-.691.065-.863.734-.863.928 0 1.855.043 2.805.043h.043a.517.517 0 00.561-.539v-.151a.521.521 0 00-.561-.561c-.647 0-1.294.064-1.964.064-.5 0-.539-.172-.539-.841v-.95c0-.583.043-.8.561-.8.755 0 1.295.065 1.683.065.6 0 .82-.151.82-.928 0-.332-.021-.663-.065-.992 0-.043-.021-.129-.021-.173 0-.259.237-.28.431-.28.432 0 2.244.151 2.718.194.151.022.475.043.475.28 0 .129-.13.216-.237.28-.194.151-.216.41-.216.993 0 .3.172.6.712.6l.387.011zm-1.727 11.133a.6.6 0 00-.6-.6h-2.244c-.237 0-.518.022-.518.28.021.135.09.257.194.345a9.402 9.402 0 011.381 2.266c0 .129-.086.216-.086.345 0 .237.216.259.518.259h.6c.733 0 .755-.108.755-1.317v-1.578zM116.664 96.841a.828.828 0 01-.216.454 5.498 5.498 0 01-4.358 2.5 6.681 6.681 0 01-3.345-1.057 5.931 5.931 0 00-2.762-1.079 2.454 2.454 0 00-1.985 1.122c-.173.237-.281.367-.41.367s-.259-.086-.453-.259l-1.273-1.1c-.237-.194-.345-.345-.345-.5a.936.936 0 01.216-.454 5.354 5.354 0 014.337-2.524 6.663 6.663 0 013.41 1.122 5.6 5.6 0 002.7 1.036 2.387 2.387 0 002.006-1.143c.173-.238.281-.367.41-.367.107 0 .237.086.432.259l1.316 1.122c.216.194.324.346.324.5M132.051 101.117c1.571 0 4.833-.06 5.045-.06.634 0 .755.181.755.876v2.658c0 .7-.121.876-.755.876-.212 0-3.474-.061-5.045-.061h-4.32c-1.6 0-5.136.061-5.347.061-.635 0-.755-.181-.755-.876v-1.3a1.283 1.283 0 01.755-1.42c.6-.423 1.087-.785 1.661-1.269 5.769-4.893 8.367-7.522 8.367-10 0-1.662-1.087-2.809-3.262-2.809a5.902 5.902 0 00-4.289 2.114c-.272.3-.422.453-.6.453s-.333-.151-.6-.423l-2.236-2.387c-.242-.272-.362-.453-.362-.664 0-.182.121-.363.393-.635a11.5 11.5 0 018.1-3.292c5.2 0 8.156 2.96 8.156 6.827 0 4.018-3.111 7.371-7.038 10.753-.242.212-.333.333-.333.424s.182.151.544.151l1.166.003zM169.298 102.278c-.173 0-.3.065-.3.259 0 .324.022.647.022.971 0 .475-.13.518-.864.518h-1.488c-.432 0-.648-.043-.648-.5 0-.927.043-1.855.043-2.783v-8.89c0-.669-.021-1.36-.021-2.028 0-.69.237-.992.949-.992.539 0 1.079.043 1.619.043h1.4c.539 0 1.079-.043 1.619-.043.647 0 .971.216.971 1.014 0 .669-.043 1.338-.043 2.007v8.134c0 .928.043 1.856.043 2.784 0 .454-.151.5-.734.5h-1.251c-.518 0-.691-.043-.691-.5v-.237a.25.25 0 00-.239-.259h-.02l-.367.002zm.259-8.112a.41.41 0 00.41-.41v-1.662a.41.41 0 00-.41-.41h-.173a.41.41 0 00-.41.41v1.662c0 .226.184.41.41.41h.173zm-.173 2.589a.415.415 0 00-.41.42v1.888a.416.416 0 00.399.431h.184a.415.415 0 00.41-.42v-1.888a.428.428 0 00-.41-.431h-.173zm11.976-7.185c.777 0 1.575-.043 2.33-.043.5 0 .54.194.54.712v1.014c0 .668-.043.863-.518.863-.8 0-1.575-.064-2.352-.064h-.583a.525.525 0 00-.517.518v.324a.414.414 0 00.418.41h.66c.928 0 1.877-.043 2.8-.043.648 0 .712.173.712.841v1.036c0 .669-.065.863-.691.863-.281 0-.561-.022-.841-.022-.065 0-.194.022-.194.129 0 .022.021.043.021.065 0 .151-.194.194-.3.259-.194.086-.259.216-.259.5a.434.434 0 00.453.41c.323 0 .668-.022.992-.022.582 0 .626.216.626.863v.669c0 1.273-.043 1.316-.647 1.316-.194 0-.475-.022-.842-.022a.607.607 0 00-.6.668v2.18c0 .475.044.949.044 1.424 0 2.18-1.726 2.308-3.474 2.308-1.316 0-1.618-.086-1.791-.777a6.646 6.646 0 01-.173-1.467v-.086c0-.129-.065-.324-.237-.324a.516.516 0 00-.281.108c-.23.172-.495.29-.777.345-.3 0-.647-.583-1.23-1.445a10.848 10.848 0 00-.82-1.122c-.086-.108-.194-.194-.194-.323 0-.3.949-1.036 1.208-1.209.065-.043.173-.086.173-.172s-.086-.108-.151-.108c-.237 0-.475.022-.712.022-.583 0-.626-.237-.626-.971v-1.018c0-.669.065-.863.626-.863.777 0 1.532.043 2.287.043h2.74a.425.425 0 00.452-.396v-.035a5.699 5.699 0 00-.065-.626.339.339 0 00-.331-.348c-.019 0-.038 0-.057.003h-2.611c-.95 0-1.877.043-2.805.043-.648 0-.734-.173-.734-.82v-1.062c0-.691.065-.863.734-.863.928 0 1.855.043 2.805.043h.043a.517.517 0 00.561-.539v-.151a.521.521 0 00-.561-.561c-.647 0-1.295.064-1.964.064-.5 0-.539-.172-.539-.841v-.95c0-.583.043-.8.561-.8.755 0 1.295.065 1.683.065.6 0 .82-.151.82-.928 0-.332-.021-.663-.065-.992 0-.043-.022-.129-.022-.173 0-.259.237-.28.432-.28.432 0 2.244.151 2.718.194.151.022.475.043.475.28 0 .129-.13.216-.237.28-.194.151-.216.41-.216.993 0 .3.172.6.712.6l.39.011zm-1.728 11.133a.6.6 0 00-.6-.6h-2.244c-.237 0-.518.022-.518.28.021.135.09.257.194.345a9.402 9.402 0 011.381 2.266c0 .129-.086.216-.086.345 0 .237.216.259.518.259h.6c.733 0 .755-.108.755-1.317v-1.578zM160.301 93.807c0 7.491-4.471 11.841-10.09 11.841-5.437 0-9.636-3.806-9.636-10.965 0-6.434 3.414-11.66 10.09-11.66 5.316 0 9.636 3.625 9.636 10.784m-14.563 1.027c0 4.048 1.662 6.132 4.471 6.132 2.961 0 4.955-2.779 4.955-6.978 0-4.048-1.783-6.011-4.5-6.011-3.5 0-4.924 3.2-4.924 6.857M62.499 125.084a11.26 11.26 0 013.161-7.686c.182-.2.382-.4.549-.4.333 0 .931.533.931.8a.628.628 0 01-.233.4c-3.804 3.693-3.893 9.771-.2 13.575.066.068.132.134.2.2.123.094.206.23.233.382 0 .316-.632.815-.914.815-.166 0-.283-.116-.533-.365a11.25 11.25 0 01-3.194-7.72M78.087 131.09H73.01c-.267 0-.383.116-.383.383v.166c0 .466-.166.466-.948.466-.715 0-.948 0-.948-.449 0-.7.05-1.4.05-2.08v-8.368c0-.533-.033-1.049-.033-1.58 0-.665.266-.865.916-.865.482 0 .964.033 1.464.033h4.857c.483 0 .965-.033 1.448-.033.632 0 .915.166.915.848 0 .533-.034 1.065-.034 1.6v8.333c0 .7.05 1.381.05 2.08 0 .466-.2.449-.948.449s-.948 0-.948-.449a.447.447 0 01.017-.15c-.017-.266-.134-.383-.4-.383m-.033-7.087a.476.476 0 00.466-.466v-2.662a.476.476 0 00-.466-.466h-5.007a.476.476 0 00-.466.466v2.661a.476.476 0 00.466.466h5.007zm-5.473 4.974c.006.255.211.46.466.466h5.007a.476.476 0 00.466-.466v-2.934a.474.474 0 00-.466-.465h-5.007a.475.475 0 00-.466.465v2.934zM86.936 128.911c-.3 0-.432.116-.45.432 0 .233.017.466.017.715 0 .417-.184.4-.849.4-.648 0-.814 0-.814-.415 0-.6.033-1.2.033-1.814v-6.987c0-.466-.017-.948-.017-1.414 0-.5.1-.783.665-.783.283 0 .583.017.882.017h1.514c.3 0 .582-.017.881-.017.549 0 .665.25.665.783 0 .466-.016.948-.016 1.414v6.325c0 .616.033 1.232.033 1.847 0 .383-.183.383-.766.383-.7 0-.748-.017-.764-.516 0-.266-.134-.366-.382-.366l-.632-.004zm.582-5.723a.464.464 0 00.466-.462v-1.667a.476.476 0 00-.466-.466h-.582a.477.477 0 00-.466.466v1.663c0 .257.207.465.464.466h.584zm-.582 1.448a.477.477 0 00-.466.466v1.813c.006.255.211.46.466.466h.582a.476.476 0 00.466-.466v-1.814a.476.476 0 00-.466-.466h-.582zm8.152-5.457c0 .333.133.466.466.466h.582c.6 0 1.181-.05 1.781-.05.383 0 .383.166.383.749s0 .732-.366.732c-.6 0-1.2-.033-1.8-.033h-.582c-.333 0-.466.133-.466.466v.7c0 .316.133.466.466.466h.981c.665 0 1.347-.05 2.013-.05.466 0 .449.183.449.782 0 .582.017.766-.432.766-.682 0-1.364-.034-2.029-.034h-4.192c-.683 0-1.348.034-2.03.034-.449 0-.433-.184-.433-.766 0-.6-.016-.782.449-.782.666 0 1.348.05 2.014.05h.615a.407.407 0 00.466-.466v-.7c0-.333-.15-.466-.466-.466h-.117c-.6 0-1.2.033-1.8.033-.366 0-.366-.166-.366-.732 0-.582 0-.749.383-.749.6 0 1.181.05 1.78.05h.117c.316 0 .466-.133.466-.466a7.686 7.686 0 00-.066-1.232c0-.049-.017-.116-.017-.149 0-.183.15-.216.3-.216.233 0 1.2.082 1.463.116.117.016.383.033.383.2 0 .116-.117.166-.217.233-.166.116-.182.316-.182.615l.004.433zm2.162 6.62c.4 0 .782-.033 1.181-.033.416 0 .416.2.416.8 0 .582 0 .782-.4.782s-.8-.017-1.2-.033c-.316.016-.432.15-.432.466v2.063c0 .349.017.716.017 1.065 0 1.513-1.431 1.58-2.579 1.58-.7 0-1.13.082-1.13-1.3 0-.2.033-.432.282-.432.067 0 .482.034.866.034.914 0 .931-.2.931-1.181v-1.83c0-.333-.134-.466-.466-.466h-2.413c-.566 0-1.114.033-1.68.033-.4 0-.4-.183-.4-.782s-.016-.8.4-.8c.566 0 1.131.033 1.68.033h2.413c.332 0 .432-.116.466-.432a5.595 5.595 0 00-.067-.731v-.134c0-.182.15-.216.282-.216.316 0 1.1.067 1.415.1.133.017.432.017.432.183 0 .1-.133.15-.249.217-.183.083-.217.2-.2.582a.38.38 0 00.432.432m-4.858 4.808c-.183 0-.432-.365-.749-.848-.1-.133-.2-.265-.3-.416a6.157 6.157 0 00-.483-.665.457.457 0 01-.133-.25c0-.25.782-.832 1.031-.832.316 0 .848.815 1.031 1.065.266.346.484.727.649 1.131 0 .367-.8.815-1.049.815M110.107 122.323c.006.098.054.19.132.25.383.316.5.4.451.632a.833.833 0 01-.017.084.176.176 0 00.2.2h2.413c.549 0 1.148-.033 1.4-.033a1.445 1.445 0 011.281 1.2c0 .483-2.512 2.812-2.962 2.812-.4 0-1.081-.782-1.081-1.048 0-.15.134-.216.748-.615.117-.084.715-.516.715-.649 0-.15-.232-.116-.316-.116h-2.912c-.332 0-.466.132-.466.466v3.626c0 .416.034.832.034 1.248 0 1.813-1.663 2.03-3.111 2.03-.25 0-.632 0-.782-.25a2.965 2.965 0 01-.25-1.148c0-.25.083-.448.349-.448.112.002.223.013.333.033.183.016.482.033.665.033 1.083 0 1.032-.283 1.032-1.3v-3.83c0-.333-.15-.466-.466-.466h-3.71c-.632 0-1.282.033-1.929.033-.383 0-.383-.2-.383-.8 0-.633 0-.815.383-.815.647 0 1.3.033 1.929.033h4.525c.083 0 .183-.033.183-.15a.172.172 0 00-.066-.134 25.848 25.848 0 00-2.346-1.679c-.149-.083-.383-.2-.383-.383 0-.3.649-1.031.965-1.031a6.912 6.912 0 011.614.965c.109.088.243.14.383.15a.856.856 0 00.349-.1c.249-.149 1.765-1 1.765-1.214 0-.167-.249-.134-.383-.134h-4.542c-.632 0-1.247.033-1.879.033-.416 0-.4-.183-.4-.832 0-.665 0-.815.4-.815.632 0 1.247.05 1.879.05h5.474c.466 0 .932-.034 1.381-.034a.811.811 0 01.7.35c.231.23.397.517.482.832 0 .582-3.012 2.379-3.594 2.712-.1.066-.183.132-.183.249M123.413 124.252a.505.505 0 00-.049-.166 1.897 1.897 0 01-.216-.5c0-.3.781-.615 1.015-.615.183 0 .266.166.333.3.366.732.566 1.148.832 1.747.162.322.285.663.366 1.015 0 .366-.932.582-1.048.582-.233 0-.283-.25-.366-.449a.465.465 0 00-.466-.349 3.022 3.022 0 00-.482.067c-.316.05-.416.217-.416.516v3.361c0 .7.032 1.414.032 2.129 0 .516-.149.532-.865.532-.7 0-.865-.017-.865-.532 0-.715.051-1.414.051-2.129v-3.147a.367.367 0 00-.383-.416c-.017 0-.417.05-.45.05-.333.051-.549.051-1.014.1-.15.017-.167.05-.233.184-.051.1-.116.2-.233.2-.184 0-.234-.234-.35-.816a13.967 13.967 0 00-.15-.7 1.015 1.015 0 01-.033-.233c0-.183.2-.166.715-.183.183 0 .367-.017.549-.017a.728.728 0 00.649-.349c.116-.183.233-.349.349-.532a.606.606 0 00.116-.3.59.59 0 00-.184-.383 24.435 24.435 0 00-1.846-1.647c-.1-.083-.216-.15-.216-.282 0-.25.249-.5.365-.715.083-.15.25-.417.449-.417.1 0 .2.1.266.166a.503.503 0 00.217.084c.116 0 .182-.084.249-.184.397-.813.736-1.652 1.016-2.512.033-.1.066-.216.2-.216.41.127.811.283 1.2.466.116.051.316.116.316.266s-.166.166-.283.2a.3.3 0 00-.233.183c-.432.9-.765 1.6-1.28 2.479a.447.447 0 00-.083.249.483.483 0 00.149.333l.3.3a.35.35 0 00.249.116.36.36 0 00.283-.166c.449-.764.782-1.381 1.164-2.178.066-.134.1-.267.25-.267.292.099.576.221.848.366.1.05.183.1.233.116.15.067.532.217.532.4 0 .15-.116.167-.216.183a.4.4 0 00-.333.2c-.466.8-1.781 2.779-2.346 3.56a.223.223 0 00-.05.133c0 .133.1.183.216.183.3-.017.583-.05.882-.083.066-.017.3-.051.3-.283m-2.661 3.145c.116.033.233.1.233.233 0 .1-.1.149-.182.182-.184.067-.2.15-.233.333-.1.6-.516 2.295-.7 2.878-.067.183-.132.432-.365.432-.2 0-1.049-.2-1.049-.5.056-.269.14-.531.25-.782.275-.92.481-1.86.615-2.811.017-.134.05-.267.217-.267.149 0 1.014.25 1.214.3m3.939 2.909c-.25 0-.3-.233-.349-.432-.133-.482-.566-1.681-.749-2.147a.77.77 0 01-.1-.316c0-.332.849-.482.949-.482a.313.313 0 01.3.183c.05.084.566 1.364.632 1.548.142.363.258.735.349 1.114 0 .333-.915.533-1.031.533m1.6-6.521c-.083.133-.2.283-.366.283-.316 0-1.214-.366-1.214-.665.029-.119.08-.232.15-.333a17.937 17.937 0 002.18-5.289c.033-.134.066-.25.249-.25.348.059.692.137 1.031.233.367.083.682.166.682.349 0 .116-.134.166-.217.2-.2.083-.216.166-.4.7-.083.267-.2.665-.416 1.248a.377.377 0 00-.033.132c0 .267.249.267.332.283h2.23c.482 0 .948-.033 1.414-.033.832 0 .8.532.8 1.231a47.835 47.835 0 01-.632 8.184 2.565 2.565 0 01-1.031 1.88 5.454 5.454 0 01-2.362.466c-.766 0-.882-.15-1-.532a3.881 3.881 0 01-.116-.865c0-.283.067-.432.366-.432.266 0 .682.066 1.114.066.632 0 1.231 0 1.481-1.114.333-2.208.506-4.438.516-6.671 0-.665-.166-.6-1.3-.6h-2.2a.6.6 0 00-.632.382c-.2.383-.4.783-.631 1.148m1.9 4.408c-.249 0-.316-.233-.382-.416a24.48 24.48 0 00-1.2-2.595.875.875 0 01-.134-.349c0-.316.932-.682 1.149-.682a.387.387 0 01.332.233c.249.449.5.948.715 1.414.276.551.505 1.124.683 1.714 0 .415-1.015.681-1.165.681M141.264 119.782h.866c.515 0 1.032-.033 1.448-.033.3 0 .3.182.3.782 0 .566 0 .749-.3.749-.317 0-.933-.033-1.448-.033h-.866c-.316 0-.466.132-.466.466v.449c0 .333.15.466.466.466h.832c.6 0 1.2-.033 1.8-.033.45 0 .432.2.432.782 0 .566.017.782-.415.782-.616 0-1.214-.05-1.815-.05h-.832a.407.407 0 00-.466.466v.466c0 .332.15.465.466.465h.466c.416 0 .831-.033 1.248-.033.5 0 .9.066.9.665 0 .316-.034.7-.034 1.181v1.663c0 .316.034.615.034.932 0 1.3-.715 1.5-1.847 1.5-.683 0-.882-.2-.882-1.1 0-.2 0-.482.232-.482.068 0 .283.017.451.017.448 0 .432-.216.432-.783v-1.653c0-.332-.134-.466-.466-.466h-.534c-.316 0-.466.134-.466.466v1.98c0 .848.051 1.7.051 2.562 0 .466-.149.482-.815.482s-.816-.017-.816-.5c0-.849.033-1.7.033-2.546v-1.98c0-.332-.132-.466-.449-.466h-.5c-.317 0-.45.134-.45.466v1.864c0 .549.017 1.115.017 1.663 0 .5-.15.5-.8.5-.632 0-.8.017-.8-.482 0-.566.015-1.115.015-1.68v-1.93c0-.483-.015-.882-.015-1.214 0-.582.365-.665.864-.665.416 0 .832.033 1.248.033h.415c.317 0 .449-.133.449-.465v-.466c0-.316-.132-.466-.449-.466h-.9c-.6 0-1.2.05-1.813.05-.433 0-.416-.233-.416-.782 0-.582-.017-.782.433-.782.6 0 1.2.033 1.8.033h.9c.317 0 .449-.133.449-.466v-.449c0-.333-.132-.466-.449-.466h-.748a.522.522 0 00-.6.4c-.151.365-.2.649-.5.649-.234 0-1.1-.266-1.1-.532.034-.157.09-.308.168-.449.416-1.016.685-2.086.8-3.177.016-.1.016-.25.216-.25.066 0 .765.116.865.15.465.1.681.15.681.316 0 .134-.132.184-.232.233-.132.067-.132.166-.249.766 0 .033-.017.083-.017.116 0 .233.183.316.382.316h.332c.317 0 .449-.134.449-.466v-.45c0-.311-.016-.622-.048-.931 0-.051-.018-.116-.018-.167 0-.2.15-.216.3-.216.234 0 1.031.05 1.3.083.149 0 .4.017.4.216 0 .1-.083.133-.184.216-.166.133-.182.316-.182.682v.5c0 .034-.018.067-.018.1.033.316.167.432.466.432m3.844 1.214a8.633 8.633 0 00-.05-1.148.441.441 0 01-.017-.149c0-.183.15-.2.283-.2.2 0 1.247.084 1.463.1.116.016.267.049.267.2 0 .117-.151.184-.234.25-.166.116-.182.266-.182.849v5.688c0 .649.033 1.282.033 1.93 0 .483-.151.5-.8.5s-.8-.017-.8-.482c0-.649.034-1.3.034-1.947l.003-5.591zm2.978-1.947a7.284 7.284 0 00-.049-1.065.375.375 0 01-.018-.133c0-.2.151-.216.3-.216.3 0 1.082.05 1.431.067.134.016.417.016.417.216 0 .116-.133.183-.234.25-.166.132-.184.332-.184 1v10.146c0 .4.034.8.034 1.181 0 1.73-1.265 1.913-2.695 1.913-.549 0-.965-.017-.965-1.264 0-.25.016-.532.349-.532.2 0 .449.05.848.05.765 0 .765-.233.765-1.214v-10.399zM157.15 125.084a11.26 11.26 0 01-3.161 7.686c-.182.2-.382.4-.549.4-.332 0-.931-.532-.931-.8a.628.628 0 01.233-.4c3.804-3.693 3.893-9.771.2-13.575a9.429 9.429 0 00-.2-.2.616.616 0 01-.233-.382c0-.316.632-.816.915-.816.166 0 .282.116.532.366a11.252 11.252 0 013.194 7.719M211.839 153c0-1.109.89-2 2-2a2 2 0 012 2 1.999 1.999 0 11-4 0zM203.819 153a2 2 0 012-2c1.11 0 2 .891 2 2 0 1.101-.89 2-2 2-1.1 0-2-.899-2-2zM195.809 153a2 2 0 012-2c1.11 0 2 .891 2 2 0 1.101-.89 2-2 2-1.1 0-2-.899-2-2zM187.799 153c0-1.109.89-2 2-2a2 2 0 012 2 1.999 1.999 0 11-4 0zM179.78 153a2 2 0 012-2c1.109 0 2.01.891 2.01 2a2.005 2.005 0 01-4.01 0zM171.769 153a2 2 0 012-2c1.11 0 2 .891 2 2 0 1.101-.89 2-2 2-1.1 0-2-.899-2-2zM163.759 153c0-1.109.89-2 2-2a2 2 0 012 2 1.999 1.999 0 11-4 0zM155.75 153c0-1.109.89-2 2-2a2 2 0 012 2 1.999 1.999 0 11-4 0zM147.729 153a2 2 0 012-2c1.11 0 2 .891 2 2 0 1.101-.89 2-2 2-1.1 0-2-.899-2-2zM139.719 153c0-1.109.89-2 2-2 1.11 0 2 .891 2 2a1.999 1.999 0 11-4 0zM131.71 153c0-1.109.89-2 2-2a2 2 0 012 2 1.999 1.999 0 11-4 0zM123.689 153a2 2 0 012-2c1.11 0 2 .891 2 2 0 1.101-.89 2-2 2-1.1 0-2-.899-2-2zM115.679 153a2 2 0 012-2c1.11 0 2 .891 2 2 0 1.101-.89 2-2 2-1.1 0-2-.899-2-2zM107.669 153c0-1.109.89-2 2-2a2 2 0 012 2 1.999 1.999 0 11-4 0zM99.659 153c0-1.109.89-2 2-2a2 2 0 012 2 1.999 1.999 0 11-4 0zM91.639 153a2 2 0 012-2c1.11 0 2 .891 2 2 0 1.101-.89 2-2 2-1.1 0-2-.899-2-2zM83.629 153c0-1.109.89-2 2-2a2 2 0 012 2 1.999 1.999 0 11-4 0zM75.619 153c0-1.109.89-2 2-2a2 2 0 012 2 1.999 1.999 0 11-4 0zM67.599 153a2 2 0 012-2c1.11 0 2 .891 2 2 0 1.101-.89 2-2 2-1.1 0-2-.899-2-2zM59.589 153a2 2 0 012-2c1.11 0 2 .891 2 2 0 1.101-.89 2-2 2-1.1 0-2-.899-2-2zM51.579 153c0-1.109.89-2 2-2a2 2 0 012 2 1.999 1.999 0 11-4 0zM43.56 153a2 2 0 012-2c1.11 0 2.01.891 2.01 2a2.005 2.005 0 01-4.01 0zM35.549 153a2 2 0 012-2c1.11 0 2 .891 2 2 0 1.101-.89 2-2 2-1.1 0-2-.899-2-2zM27.54 153c0-1.109.89-2 2-2a2 2 0 012 2 1.999 1.999 0 11-4 0zM19.529 153c0-1.109.89-2 2-2a2 2 0 012 2 1.999 1.999 0 11-4 0zM11.509 153a2 2 0 012-2c1.11 0 2 .891 2 2 0 1.101-.89 2-2 2-1.1 0-2-.899-2-2zM3.5 153a2 2 0 012-2c1.11 0 2 .891 2 2 0 1.101-.89 2-2 2-1.1 0-2-.899-2-2z" fill="#00a44f"/></svg>