<svg xmlns="http://www.w3.org/2000/svg" width="800" height="76" viewBox="0 0 800 76"><g fill="#00a44f"><path d="M4.94 4.54c-.13 0-.26-.02-.39-.04a2.211 2.211 0 01-.72-.3c-.11-.07-.21-.16-.31-.25a2.016 2.016 0 01-.43-2.18c.05-.12.11-.24.19-.34.07-.11.15-.22.24-.31.1-.09.2-.17.31-.25.11-.07.22-.13.34-.18s.25-.09.38-.11c.26-.06.52-.06.78 0 .13.02.25.06.37.11s.24.11.35.18c.11.08.21.16.3.25.1.09.18.2.25.31.07.1.14.22.19.34s.08.25.11.37a1.983 1.983 0 01-.55 1.81c-.09.09-.19.18-.3.25-.11.07-.23.13-.35.18-.12.05-.24.09-.37.12-.13.02-.26.04-.39.04zM793.41 2.64c0-1.11.89-2 2-2a2 2 0 012 2 2 2 0 11-4 0zm-8.01 0c0-1.11.89-2 2-2a2 2 0 012 2 2 2 0 11-4 0zm-8.021 0c0-1.11.9-2 2.01-2 1.101 0 2 .89 2 2 0 1.1-.899 2-2 2-1.109 0-2.01-.9-2.01-2zm-8.01 0a2 2 0 114 0c0 1.1-.9 2-2 2-1.101 0-2-.9-2-2zm-8.01 0c0-1.11.89-2 2-2a2 2 0 012 2 2 2 0 11-4 0zm-8.011 0c0-1.11.891-2 2-2 1.101 0 2 .89 2 2a2 2 0 01-4 0zm-8.02 0a2 2 0 012-2c1.11 0 2 .89 2 2a2 2 0 01-2 2c-1.1 0-2-.9-2-2zm-8.01 0c0-1.11.89-2 2-2a2 2 0 012 2 2 2 0 11-4 0zm-8.011 0c0-1.11.891-2 2-2 1.101 0 2 .89 2 2a2 2 0 01-4 0zm-8.02 0a2 2 0 012-2c1.11 0 2 .89 2 2a2 2 0 01-2 2c-1.1 0-2-.9-2-2zm-8.01 0c0-1.11.899-2 2-2 1.109 0 2 .89 2 2a2 2 0 01-2 2c-1.101 0-2-.9-2-2zm-8.011 0c0-1.11.891-2 2-2 1.101 0 2 .89 2 2a2 2 0 01-4 0zm-8.01 0c0-1.11.891-2 2-2 1.101 0 2 .89 2 2a2 2 0 01-4 0zm-8.02 0c0-1.11.899-2 2-2 1.109 0 2 .89 2 2a2 2 0 01-2 2c-1.101 0-2-.9-2-2zm-8.01 0c0-1.11.89-2 2-2 1.109 0 2 .89 2 2a2 2 0 11-4 0zm-8.011 0c0-1.11.891-2 2-2 1.101 0 2 .89 2 2a2 2 0 01-4 0zm-8.02 0c0-1.11.899-2 2-2 1.109 0 2 .89 2 2a2 2 0 01-2 2c-1.101 0-2-.9-2-2zm-8.01 0c0-1.11.89-2 2-2 1.109 0 2 .89 2 2a2 2 0 11-4 0zm-8.011 0c0-1.11.891-2 2-2 1.101 0 2 .89 2 2a2 2 0 01-4 0zm-8.02 0c0-1.11.899-2 2-2 1.109 0 2 .89 2 2a2 2 0 01-2 2c-1.101 0-2-.9-2-2zm-8.01 0c0-1.11.899-2 2-2 1.109 0 2 .89 2 2a2 2 0 01-2 2c-1.101 0-2-.9-2-2zm-8.011 0c0-1.11.891-2 2-2 1.101 0 2 .89 2 2a2 2 0 01-4 0zm-8.01 0c0-1.11.89-2 2-2 1.101 0 2 .89 2 2a2 2 0 11-4 0zm-8.02 0c0-1.11.899-2 2-2 1.109 0 2 .89 2 2a2 2 0 01-2 2c-1.101 0-2-.9-2-2zm-8.011 0c0-1.11.891-2 2-2 1.101 0 2 .89 2 2a2 2 0 01-4 0zm-8.01 0c0-1.11.891-2 2-2 1.101 0 2 .89 2 2a2 2 0 01-4 0zm-8.02 0c0-1.11.899-2 2-2 1.109 0 2 .89 2 2a2 2 0 01-2 2c-1.101 0-2-.9-2-2zm-8.011 0c0-1.11.891-2 2-2 1.101 0 2 .89 2 2a2 2 0 01-4 0zm-8.01 0c0-1.11.891-2 2-2 1.101 0 2 .89 2 2a2 2 0 01-4 0zm-8.02 0c0-1.11.899-2 2.01-2a2 2 0 012 2c0 1.1-.9 2-2 2-1.11 0-2.01-.9-2.01-2zm-8.011 0a2 2 0 012-2c1.11 0 2 .89 2 2a2 2 0 01-2 2c-1.1 0-2-.9-2-2zm-8.01 0c0-1.11.891-2 2-2 1.101 0 2 .89 2 2a2 2 0 01-4 0zm-8.01 0c0-1.11.89-2 2-2a2 2 0 012 2 2 2 0 11-4 0zm-8.02 0c0-1.11.899-2 2-2 1.109 0 2 .89 2 2a2 2 0 01-2 2c-1.101 0-2-.9-2-2zm-8.011 0a2 2 0 012-2c1.11 0 2 .89 2 2a2 2 0 01-2 2c-1.1 0-2-.9-2-2zm-8.01 0c0-1.11.89-2 2-2a2 2 0 012 2 2 2 0 11-4 0zm-8.02 0c0-1.11.899-2 2-2 1.109 0 2 .89 2 2a2 2 0 01-2 2c-1.101 0-2-.9-2-2zm-8.011 0a2 2 0 012-2c1.11 0 2 .89 2 2a2 2 0 01-2 2c-1.1 0-2-.9-2-2zm-8.01 0c0-1.11.89-2 2-2a2 2 0 012 2 2 2 0 11-4 0zm-8.01 0c0-1.11.89-2 2-2a2 2 0 012 2 2 2 0 11-4 0zm-8.021 0a2 2 0 012-2c1.11 0 2 .89 2 2a2 2 0 01-2 2c-1.1 0-2-.9-2-2zm-8.01 0c0-1.11.89-2 2-2 1.11 0 2 .89 2 2a2 2 0 11-4 0zm-8.01 0c0-1.11.89-2 2-2a2 2 0 012 2 2 2 0 11-4 0zm-8.021 0a2 2 0 012-2c1.11 0 2 .89 2 2a2 2 0 01-2 2c-1.1 0-2-.9-2-2zm-8.01 0c0-1.11.891-2 2-2 1.11 0 2 .89 2 2a2 2 0 01-4 0zm-8.01 0c0-1.11.89-2 2-2a2 2 0 012 2 2 2 0 11-4 0zm-8.021 0a2 2 0 012-2c1.11 0 2 .89 2 2a2 2 0 01-2 2c-1.1 0-2-.9-2-2zm-8.01 0a2 2 0 012-2c1.11 0 2 .89 2 2a2 2 0 01-2 2c-1.1 0-2-.9-2-2zm-8.01 0c0-1.11.89-2 2-2a2 2 0 012 2 2 2 0 11-4 0zm-8.01 0c0-1.11.89-2 2-2 1.1 0 1.99.89 1.99 2 0 1.1-.89 2-1.99 2a2 2 0 01-2-2zm-8.02 0a2 2 0 012-2c1.11 0 2 .89 2 2a2 2 0 01-2 2c-1.1 0-2-.9-2-2zm-8.01 0c0-1.11.89-2 2-2a2 2 0 012 2 2 2 0 11-4 0zm-8.01 0c0-1.11.89-2 2-2a2 2 0 012 2 2 2 0 11-4 0zm-8.02 0a2 2 0 012-2c1.11 0 2 .89 2 2a2 2 0 01-2 2c-1.1 0-2-.9-2-2zm-8.01 0a2 2 0 012-2c1.11 0 2 .89 2 2a2 2 0 01-2 2c-1.1 0-2-.9-2-2zm-8.01 0c0-1.11.89-2 2-2a2 2 0 012 2 2 2 0 11-4 0zm-8.02 0a2 2 0 012-2c1.11 0 2.01.89 2.01 2a2.006 2.006 0 01-4.01 0zm-8.01 0a2 2 0 012-2c1.11 0 2 .89 2 2a2 2 0 01-2 2c-1.1 0-2-.9-2-2zm-8.01 0c0-1.11.89-2 2-2a2 2 0 012 2 2 2 0 11-4 0zm-8.01 0c0-1.11.89-2 2-2a2 2 0 012 2 2 2 0 11-4 0zm-8.02 0a2 2 0 012-2c1.11 0 2 .89 2 2a2 2 0 01-2 2c-1.1 0-2-.9-2-2zm-8.01 0a2 2 0 114 0c0 1.1-.9 2-2 2s-2-.9-2-2zm-8.01 0c0-1.11.89-2 2-2a2 2 0 012 2 2 2 0 11-4 0zm-8.02 0a2 2 0 012-2c1.11 0 2.01.89 2.01 2a2.006 2.006 0 01-4.01 0zm-8.01 0a2 2 0 012-2c1.11 0 2 .89 2 2a2 2 0 01-2 2c-1.1 0-2-.9-2-2zm-8.01 0c0-1.11.89-2 2-2a2 2 0 012 2 2 2 0 11-4 0zm-8.01 0c0-1.11.89-2 2-2a2 2 0 012 2 2 2 0 11-4 0zm-8.02 0a2 2 0 012-2c1.11 0 2 .89 2 2a2 2 0 01-2 2c-1.1 0-2-.9-2-2zm-8.01 0a2 2 0 114 0c0 1.1-.9 2-2 2s-2-.9-2-2zm-8.01 0c0-1.11.89-2 2-2a2 2 0 012 2 2 2 0 11-4 0zm-8.02 0a2 2 0 012-2c1.11 0 2 .89 2 2a2 2 0 01-2 2c-1.1 0-2-.9-2-2zm-8.01 0a2 2 0 012-2c1.11 0 2 .89 2 2a2 2 0 01-2 2c-1.1 0-2-.9-2-2zm-8.01 0c0-1.11.89-2 2-2a2 2 0 012 2 2 2 0 11-4 0zm-8.01 0c0-1.11.89-2 2-2 1.1 0 1.99.89 1.99 2 0 1.1-.89 2-1.99 2a2 2 0 01-2-2zm-8.02 0a2 2 0 012-2c1.11 0 2 .89 2 2a2 2 0 01-2 2c-1.1 0-2-.9-2-2zm-8.01 0c0-1.11.89-2 2-2a2 2 0 012 2 2 2 0 11-4 0zm-8.01 0c0-1.11.89-2 2-2a2 2 0 012 2 2 2 0 11-4 0zm-8.02 0a2 2 0 012-2c1.11 0 2 .89 2 2a2 2 0 01-2 2c-1.1 0-2-.9-2-2zm-8.01 0c0-1.11.89-2 2-2 1.11 0 2 .89 2 2a2 2 0 11-4 0zm-8.01 0c0-1.11.89-2 2-2a2 2 0 012 2 2 2 0 11-4 0zm-8.02 0a2 2 0 012-2c1.11 0 2 .89 2 2a2 2 0 01-2 2c-1.1 0-2-.9-2-2zm-8.01 0c0-1.11.89-2 2-2 1.11 0 2 .89 2 2a2 2 0 11-4 0zm-8.01 0c0-1.11.89-2 2-2a2 2 0 012 2 2 2 0 11-4 0zm-8.02 0a2 2 0 012-2c1.11 0 2 .89 2 2a2 2 0 01-2 2c-1.1 0-2-.9-2-2zm-8.01 0a2 2 0 012-2c1.11 0 2 .89 2 2a2 2 0 01-2 2c-1.1 0-2-.9-2-2zm-8.01 0c0-1.11.89-2 2-2a2 2 0 012 2 2 2 0 11-4 0zm-8.01 0c0-1.11.89-2 2-2a2 2 0 012 2 2 2 0 11-4 0zm-8.02 0a2 2 0 012-2c1.11 0 2 .89 2 2a2 2 0 01-2 2c-1.1 0-2-.9-2-2zm-8.01 0c0-1.11.89-2 2-2a2 2 0 012 2 2 2 0 11-4 0zm-8.01 0c0-1.11.89-2 2-2a2 2 0 012 2 2 2 0 11-4 0zm-8.02 0a2 2 0 012-2c1.11 0 2 .89 2 2a2 2 0 01-2 2c-1.1 0-2-.9-2-2zm-8.01 0a2 2 0 012-2c1.11 0 2 .89 2 2a2 2 0 01-2 2c-1.1 0-2-.9-2-2zm-8.01 0c0-1.11.89-2 2-2a2 2 0 012 2 2 2 0 11-4 0zm-8.02 0a2 2 0 012-2c1.11 0 2.01.89 2.01 2a2.006 2.006 0 01-4.01 0zm-8.01 0a2 2 0 012-2c1.11 0 2 .89 2 2a2 2 0 01-2 2c-1.1 0-2-.9-2-2zm-8.01 0c0-1.11.89-2 2-2a2 2 0 012 2 2 2 0 11-4 0zm-8.01 0c0-1.11.89-2 2-2a2 2 0 012 2 2 2 0 11-4 0zm-8.02 0a2 2 0 012-2c1.11 0 2 .89 2 2a2 2 0 01-2 2c-1.1 0-2-.9-2-2zm-8.01 0a2 2 0 114 0c0 1.1-.9 2-2 2s-2-.9-2-2zM4.59 75.36a1.98 1.98 0 01-2-2c0-.13.01-.26.04-.39.02-.13.06-.25.11-.37s.11-.24.18-.351a2.022 2.022 0 012.06-.85c.12.03.25.07.37.12s.24.11.35.18c.11.07.21.16.3.25s.18.19.25.3c.07.11.13.23.18.351.05.12.09.24.12.37.02.13.04.26.04.39 0 .54-.21 1.04-.59 1.42s-.88.58-1.41.58zM793.41 73.36a2 2 0 012-2 2 2 0 110 4c-1.11 0-2-.89-2-2zm-8.01 0a2 2 0 012-2 2 2 0 110 4c-1.11 0-2-.89-2-2zm-8.021 0a2.005 2.005 0 014.01 0c0 1.11-.899 2-2 2-1.109 0-2.01-.89-2.01-2zm-8.01 0c0-1.1.899-2 2-2a2 2 0 110 4c-1.101 0-2-.89-2-2zm-8.01 0a2 2 0 012-2 2 2 0 110 4c-1.11 0-2-.89-2-2zm-8.011 0a2 2 0 012-2 1.999 1.999 0 110 4c-1.109 0-2-.89-2-2zm-8.02 0a2 2 0 114 0c0 1.11-.89 2-2 2a2 2 0 01-2-2zm-8.01 0a2 2 0 012-2 2 2 0 110 4c-1.11 0-2-.89-2-2zm-8.011 0a2 2 0 012-2 1.999 1.999 0 110 4c-1.109 0-2-.89-2-2zm-8.02 0a2 2 0 114 0c0 1.11-.89 2-2 2a2 2 0 01-2-2zm-8.01 0a2 2 0 014 0c0 1.11-.891 2-2 2-1.101 0-2-.89-2-2zm-8.011 0a2 2 0 012-2 1.999 1.999 0 110 4c-1.109 0-2-.89-2-2zm-8.01 0a2 2 0 012-2 1.999 1.999 0 110 4c-1.109 0-2-.89-2-2zm-8.02 0a2 2 0 014 0c0 1.11-.891 2-2 2-1.101 0-2-.89-2-2zm-8.01 0a2 2 0 014 0c0 1.11-.891 2-2 2-1.11 0-2-.89-2-2zm-8.011 0a2 2 0 012-2 1.999 1.999 0 110 4c-1.109 0-2-.89-2-2zm-8.02 0a2 2 0 014 0c0 1.11-.891 2-2 2-1.101 0-2-.89-2-2zm-8.01 0a2 2 0 014 0c0 1.11-.891 2-2 2-1.11 0-2-.89-2-2zm-8.011 0a2 2 0 012-2 1.999 1.999 0 110 4c-1.109 0-2-.89-2-2zm-8.02 0a2 2 0 014 0c0 1.11-.891 2-2 2-1.101 0-2-.89-2-2zm-8.01 0a2 2 0 014 0c0 1.11-.891 2-2 2-1.101 0-2-.89-2-2zm-8.011 0a2 2 0 012-2 1.999 1.999 0 110 4c-1.109 0-2-.89-2-2zm-8.01 0a2 2 0 012-2 1.999 1.999 0 110 4c-1.11 0-2-.89-2-2zm-8.02 0a2 2 0 014 0c0 1.11-.891 2-2 2-1.101 0-2-.89-2-2zm-8.011 0a2 2 0 012-2 1.999 1.999 0 110 4c-1.109 0-2-.89-2-2zm-8.01 0a2 2 0 012-2 1.999 1.999 0 110 4c-1.109 0-2-.89-2-2zm-8.02 0a2 2 0 014 0c0 1.11-.891 2-2 2-1.101 0-2-.89-2-2zm-8.011 0a2 2 0 012-2 1.999 1.999 0 110 4c-1.109 0-2-.89-2-2zm-8.01 0a2 2 0 012-2 1.999 1.999 0 110 4c-1.109 0-2-.89-2-2zm-8.02 0a2.006 2.006 0 014.01 0 2 2 0 01-2 2c-1.11 0-2.01-.89-2.01-2zm-8.011 0a2 2 0 114 0c0 1.11-.89 2-2 2a2 2 0 01-2-2zm-8.01 0a2 2 0 012-2 1.999 1.999 0 110 4c-1.109 0-2-.89-2-2zm-8.01 0a2 2 0 012-2 2 2 0 110 4c-1.11 0-2-.89-2-2zm-8.02 0a2 2 0 014 0c0 1.11-.891 2-2 2-1.101 0-2-.89-2-2zm-8.011 0a2 2 0 114 0c0 1.11-.89 2-2 2a2 2 0 01-2-2zm-8.01 0a2 2 0 012-2 2 2 0 110 4c-1.11 0-2-.89-2-2zm-8.02 0a2 2 0 014 0c0 1.11-.891 2-2 2-1.101 0-2-.89-2-2zm-8.011 0a2 2 0 114 0c0 1.11-.89 2-2 2a2 2 0 01-2-2zm-8.01 0a2 2 0 012-2 2 2 0 110 4c-1.11 0-2-.89-2-2zm-8.01 0a2 2 0 012-2 2 2 0 110 4c-1.11 0-2-.89-2-2zm-8.021 0a2 2 0 114 0c0 1.11-.89 2-2 2a2 2 0 01-2-2zm-8.01 0a2 2 0 114 0c0 1.11-.89 2-2 2-1.11 0-2-.89-2-2zm-8.01 0a2 2 0 012-2 2 2 0 110 4c-1.11 0-2-.89-2-2zm-8.021 0a2 2 0 114 0c0 1.11-.89 2-2 2a2 2 0 01-2-2zm-8.01 0a2 2 0 114 0c0 1.11-.89 2-2 2-1.109 0-2-.89-2-2zm-8.01 0a2 2 0 012-2 2 2 0 110 4c-1.11 0-2-.89-2-2zm-8.021 0a2 2 0 114 0c0 1.11-.89 2-2 2a2 2 0 01-2-2zm-8.01 0a2 2 0 114 0c0 1.11-.89 2-2 2a2 2 0 01-2-2zm-8.01 0a2 2 0 012-2 2 2 0 110 4c-1.11 0-2-.89-2-2zm-8.01 0a2 2 0 012-2c1.1 0 1.99.9 1.99 2 0 1.11-.89 2-1.99 2-1.11 0-2-.89-2-2zm-8.02 0a2 2 0 114 0c0 1.11-.89 2-2 2a2 2 0 01-2-2zm-8.01 0a2 2 0 012-2 2 2 0 110 4c-1.11 0-2-.89-2-2zm-8.01 0a2 2 0 012-2 2 2 0 110 4c-1.11 0-2-.89-2-2zm-8.02 0a2 2 0 114 0c0 1.11-.89 2-2 2a2 2 0 01-2-2zm-8.01 0a2 2 0 114 0c0 1.11-.89 2-2 2a2 2 0 01-2-2zm-8.01 0a2 2 0 012-2 2 2 0 110 4c-1.11 0-2-.89-2-2zm-8.02 0c0-1.1.9-2 2-2 1.11 0 2.01.9 2.01 2 0 1.11-.9 2-2.01 2a2 2 0 01-2-2zm-8.01 0a2 2 0 114 0c0 1.11-.89 2-2 2a2 2 0 01-2-2zm-8.01 0a2 2 0 012-2 2 2 0 110 4c-1.11 0-2-.89-2-2zm-8.01 0a2 2 0 012-2 2 2 0 110 4c-1.11 0-2-.89-2-2zm-8.02 0a2 2 0 114 0c0 1.11-.89 2-2 2a2 2 0 01-2-2zm-8.01 0c0-1.1.9-2 2-2s2 .9 2 2a2 2 0 11-4 0zm-8.01 0a2 2 0 012-2 2 2 0 110 4c-1.11 0-2-.89-2-2zm-8.02 0c0-1.1.9-2 2-2 1.11 0 2.01.9 2.01 2 0 1.11-.9 2-2.01 2a2 2 0 01-2-2zm-8.01 0a2 2 0 114 0c0 1.11-.89 2-2 2a2 2 0 01-2-2zm-8.01 0a2 2 0 012-2 2 2 0 110 4c-1.11 0-2-.89-2-2zm-8.01 0a2 2 0 012-2 2 2 0 110 4c-1.11 0-2-.89-2-2zm-8.02 0a2 2 0 114 0c0 1.11-.89 2-2 2a2 2 0 01-2-2zm-8.01 0c0-1.1.9-2 2-2s2 .9 2 2a2 2 0 11-4 0zm-8.01 0a2 2 0 012-2 2 2 0 110 4c-1.11 0-2-.89-2-2zm-8.02 0a2 2 0 114 0c0 1.11-.89 2-2 2a2 2 0 01-2-2zm-8.01 0a2 2 0 114 0c0 1.11-.89 2-2 2a2 2 0 01-2-2zm-8.01 0a2 2 0 012-2 2 2 0 110 4c-1.11 0-2-.89-2-2zm-8.01 0a2 2 0 012-2c1.1 0 1.99.9 1.99 2 0 1.11-.89 2-1.99 2-1.11 0-2-.89-2-2zm-8.02 0a2 2 0 114 0c0 1.11-.89 2-2 2a2 2 0 01-2-2zm-8.01 0a2 2 0 012-2 2 2 0 110 4c-1.11 0-2-.89-2-2zm-8.01 0a2 2 0 012-2 2 2 0 110 4c-1.11 0-2-.89-2-2zm-8.02 0a2 2 0 114 0c0 1.11-.89 2-2 2a2 2 0 01-2-2zm-8.01 0a2 2 0 114 0c0 1.11-.89 2-2 2-1.11 0-2-.89-2-2zm-8.01 0a2 2 0 012-2 2 2 0 110 4c-1.11 0-2-.89-2-2zm-8.02 0a2 2 0 114 0c0 1.11-.89 2-2 2a2 2 0 01-2-2zm-8.01 0a2 2 0 114 0c0 1.11-.89 2-2 2-1.11 0-2-.89-2-2zm-8.01 0a2 2 0 012-2 2 2 0 110 4c-1.11 0-2-.89-2-2zm-8.02 0a2 2 0 114 0c0 1.11-.89 2-2 2a2 2 0 01-2-2zm-8.01 0a2 2 0 114 0c0 1.11-.89 2-2 2a2 2 0 01-2-2zm-8.01 0a2 2 0 012-2 2 2 0 110 4c-1.11 0-2-.89-2-2zm-8.01 0a2 2 0 012-2 2 2 0 110 4c-1.11 0-2-.89-2-2zm-8.02 0a2 2 0 114 0c0 1.11-.89 2-2 2a2 2 0 01-2-2zm-8.01 0a2 2 0 012-2 2 2 0 110 4c-1.11 0-2-.89-2-2zm-8.01 0a2 2 0 012-2 2 2 0 110 4c-1.11 0-2-.89-2-2zm-8.02 0a2 2 0 114 0c0 1.11-.89 2-2 2a2 2 0 01-2-2zm-8.01 0a2 2 0 114 0c0 1.11-.89 2-2 2a2 2 0 01-2-2zm-8.01 0a2 2 0 012-2 2 2 0 110 4c-1.11 0-2-.89-2-2zm-8.02 0c0-1.1.9-2 2-2 1.11 0 2.01.9 2.01 2 0 1.11-.9 2-2.01 2a2 2 0 01-2-2zm-8.01 0a2 2 0 114 0c0 1.11-.89 2-2 2a2 2 0 01-2-2zm-8.01 0a2 2 0 012-2 2 2 0 110 4c-1.11 0-2-.89-2-2zm-8.01 0a2 2 0 012-2 2 2 0 110 4c-1.11 0-2-.89-2-2zm-8.02 0a2 2 0 114 0c0 1.11-.89 2-2 2a2 2 0 01-2-2zm-8.01 0c0-1.1.9-2 2-2s2 .9 2 2a2 2 0 11-4 0zM159.016 47.11c0 2.873.162 9.106.162 9.486 0 1.137-.324 1.355-1.571 1.355h-6.287c-1.247 0-1.572-.218-1.572-1.355 0-.38.162-6.613.162-9.486V29.766c0-.976-.162-1.355-.65-1.355-.3.018-.594.091-.867.216a66.5 66.5 0 00-4.932 1.951 2.442 2.442 0 01-1.031.326c-.487 0-.7-.38-.975-1.193l-1.9-5.366a2.911 2.911 0 01-.217-1.029c0-.488.325-.7 1.247-.976a96.804 96.804 0 0010.243-3.686 7.203 7.203 0 013.2-.65h3.577c1.247 0 1.571.216 1.571 1.355 0 .379-.162 6.612-.162 9.485l.002 18.266zM185.736 47.11c0 2.873.162 9.106.162 9.486 0 1.137-.324 1.355-1.571 1.355h-6.285c-1.247 0-1.572-.218-1.572-1.355 0-.38.162-6.613.162-9.486V29.766c0-.976-.162-1.355-.65-1.355-.3.018-.594.091-.867.216a66.5 66.5 0 00-4.932 1.951 2.442 2.442 0 01-1.031.326c-.487 0-.7-.38-.975-1.193l-1.9-5.366a2.911 2.911 0 01-.217-1.029c0-.488.325-.7 1.247-.976a96.582 96.582 0 0010.243-3.686 7.203 7.203 0 013.2-.65h3.577c1.247 0 1.571.216 1.571 1.355 0 .379-.162 6.612-.162 9.485V47.11zM209.637 53.714c0 3.361-2.114 6.017-5.854 6.017a5.067 5.067 0 01-5.311-5.2 5.555 5.555 0 015.907-5.854 4.955 4.955 0 015.25 4.642c.008.133.011.265.008.398M232.075 47.11c0 2.873.162 9.106.162 9.486 0 1.137-.324 1.355-1.571 1.355h-6.287c-1.247 0-1.572-.218-1.572-1.355 0-.38.162-6.613.162-9.486V29.766c0-.976-.162-1.355-.65-1.355-.3.018-.594.091-.867.216a66.5 66.5 0 00-4.932 1.951 2.442 2.442 0 01-1.031.326c-.487 0-.7-.38-.975-1.193l-1.9-5.366a2.911 2.911 0 01-.217-1.029c0-.488.325-.7 1.247-.976a96.804 96.804 0 0010.243-3.686 7.203 7.203 0 013.2-.65h3.577c1.247 0 1.571.216 1.571 1.355 0 .379-.162 6.612-.162 9.485l.002 18.266zM274.133 37.029c0 13.441-8.021 21.246-18.1 21.246-9.756 0-17.29-6.828-17.29-19.675 0-11.545 6.125-20.921 18.1-20.921 9.54 0 17.29 6.5 17.29 19.35m-26.124 1.846c0 7.263 2.981 11 8.021 11 5.312 0 8.889-4.986 8.889-12.52 0-7.263-3.2-10.786-8.076-10.786-6.287 0-8.834 5.746-8.834 12.3M286.775 51.417c0 1.69.1 5.357.1 5.58 0 .67-.192.8-.925.8h-3.667c-.733 0-.925-.128-.925-.8 0-.223.095-3.89.095-5.58V40.575c0-1.69-.095-5.229-.095-5.453 0-.67.223-.893.893-.893.223 0 3.03.064 4.5.064h2.539c1.5 0 4.719-.064 4.942-.064.67 0 .8.191.8.925v3.284c0 .734-.128.925-.8.925-.223 0-3.444-.064-4.942-.064h-1.562c-.8 0-.956.159-.956.956v2.073c0 .733.127.861.861.861h.925c1.5 0 4.719-.064 4.942-.064.67 0 .8.191.8.925v3.029c0 .734-.128.925-.8.925-.223 0-3.444-.064-4.942-.064h-.829c-.8 0-.956.16-.956.956l.002 2.521zM304.31 51.417c0 1.69.1 5.356.1 5.58 0 .67-.192.8-.925.8h-3.667c-.733 0-.925-.128-.925-.8 0-.224.095-3.89.095-5.58V40.575c0-1.69-.095-5.229-.095-5.453 0-.67.223-.893.893-.893.223 0 3.03.064 4.5.064h3.858c4.336 0 7.844 1.722 7.844 6.7a7.785 7.785 0 01-3.316 6.537c-.383.287-.542.478-.542.7.039.244.138.474.287.67l1.052 1.595c1.34 2.04 2.391 3.6 4.369 6.5.127.158.214.344.255.542 0 .191-.223.255-.669.255h-4.464a1.277 1.277 0 01-1.435-.829 199.019 199.019 0 00-3.22-5.166l-.988-1.5a1.35 1.35 0 00-1.467-.8h-.606c-.8 0-.925.128-.925.925l-.009.995zm0-7.366c0 .8.159.956.956.956h1.785c2.009 0 3.476-.925 3.476-3.316 0-1.946-1.117-2.648-2.838-2.648h-2.423c-.8 0-.956.16-.956.957v4.051zM321.908 57.794c-.734 0-.925-.128-.925-.8 0-.224.1-3.89.1-5.58V40.671c0-1.69-.1-5.357-.1-5.58 0-.67.191-.8.925-.8h3.763c.733 0 .925.128.925.8 0 .223-.1 3.89-.1 5.58v10.747c0 1.69.1 5.356.1 5.58 0 .669-.192.8-.925.8l-3.763-.004zM358.61 47.11c0 2.873.162 9.106.162 9.486 0 1.137-.324 1.355-1.571 1.355h-6.287c-1.247 0-1.572-.218-1.572-1.355 0-.38.162-6.613.162-9.486V29.766c0-.976-.162-1.355-.65-1.355-.3.018-.594.091-.867.216a66.5 66.5 0 00-4.932 1.951 2.442 2.442 0 01-1.031.326c-.487 0-.7-.38-.975-1.193l-1.9-5.366a2.911 2.911 0 01-.217-1.029c0-.488.325-.7 1.247-.976a96.582 96.582 0 0010.243-3.686 7.203 7.203 0 013.2-.65h3.577c1.247 0 1.571.216 1.571 1.355 0 .379-.162 6.612-.162 9.485l.002 18.266zM387.5 47.11c0 2.873.162 9.106.162 9.486 0 1.137-.324 1.355-1.571 1.355H379.8c-1.247 0-1.572-.218-1.572-1.355 0-.38.162-6.613.162-9.486V29.766c0-.976-.162-1.355-.65-1.355-.3.018-.594.091-.867.216a66.5 66.5 0 00-4.932 1.951 2.442 2.442 0 01-1.031.326c-.487 0-.7-.38-.975-1.193l-1.9-5.366a2.911 2.911 0 01-.217-1.029c0-.488.325-.7 1.247-.976a96.582 96.582 0 0010.243-3.686 7.203 7.203 0 013.2-.65h3.577c1.247 0 1.571.216 1.571 1.355 0 .379-.162 6.612-.162 9.485l.006 18.266zM412.108 50.811c0 4.527-3.252 7.206-8.928 7.206a16.687 16.687 0 01-7.429-1.754c-.446-.255-.638-.414-.638-.7.021-.223.086-.439.191-.637l1.435-3.093c.192-.414.319-.638.511-.638.236.051.455.161.637.319a10.18 10.18 0 005.644 1.785c1.914 0 3.093-.733 3.093-1.945 0-1.4-1.946-2.232-4.56-3.22-3-1.148-6.473-2.9-6.473-7.015 0-4.5 3.539-7.047 8.992-7.047 2.188.004 4.35.471 6.345 1.371.446.223.669.383.669.67a1.906 1.906 0 01-.159.606l-1.308 3.38c-.191.447-.319.67-.542.67a1.233 1.233 0 01-.606-.287 10.159 10.159 0 00-4.911-1.371c-2.2 0-3 .829-3 1.785 0 1.18 1.69 1.945 3.667 2.711 3.411 1.339 7.366 3 7.366 7.206M421.067 53.585a.836.836 0 00-.925.67c-.224.606-.479 1.212-.956 2.646-.287.765-.447.893-1.275.893h-4.019c-.509 0-.732-.064-.732-.319a1.35 1.35 0 01.191-.542c1.179-2.646 1.817-4.082 2.359-5.358l4.687-11c.605-1.467 1.37-3.22 2.2-5.389.319-.765.478-.893 1.307-.893h2.521c.829 0 .989.128 1.308.893a118.527 118.527 0 002.168 5.293l4.687 10.969c.606 1.4 1.243 2.838 2.424 5.484.101.165.166.35.191.542 0 .255-.222.319-.733.319h-4.336c-.83 0-.988-.128-1.275-.893-.479-1.435-.733-2.04-.957-2.646-.191-.543-.35-.67-.924-.67h-7.911zm1.435-5.229a1.435 1.435 0 00-.129.542c0 .287.224.351.734.351h3.827c.51 0 .733-.064.733-.351a1.434 1.434 0 00-.128-.542l-2.167-5.42c-.1-.255-.224-.383-.351-.383s-.255.128-.351.383l-2.168 5.42zM450.336 51.417c0 1.69.1 5.357.1 5.58 0 .67-.192.8-.924.8h-3.769c-.734 0-.925-.128-.925-.8 0-.223.1-3.89.1-5.58V40.288c0-.8-.16-.957-.957-.957h-.67c-1.147 0-4.082.064-4.3.064-.67 0-.8-.191-.8-.925v-3.315c0-.733.127-.925.8-.925.222 0 3.443.064 4.942.064h7.4c1.5 0 4.719-.064 4.942-.064.669 0 .8.191.8.925v3.316c0 .734-.128.925-.8.925-.224 0-3.157-.064-4.3-.064h-.67c-.8 0-.956.16-.956.957l-.013 11.128zM490.932 48.955c0 2.366.134 7.5.134 7.812 0 .938-.267 1.117-1.295 1.117h-5.178c-1.026 0-1.295-.179-1.295-1.117 0-.313.134-5.446.134-7.812V34.67c0-.8-.134-1.117-.536-1.117a2.008 2.008 0 00-.714.179 55.754 55.754 0 00-4.062 1.607 2.005 2.005 0 01-.848.268c-.4 0-.58-.313-.8-.982l-1.562-4.419a2.397 2.397 0 01-.179-.848c0-.4.268-.581 1.027-.8a80.036 80.036 0 008.436-3.034 5.92 5.92 0 012.634-.536h2.946c1.027 0 1.295.179 1.295 1.116 0 .313-.134 5.446-.134 7.813l-.003 15.038zM527.355 40.652c0 11.07-6.607 17.5-14.911 17.5-8.035 0-14.24-5.625-14.24-16.2 0-9.509 5.045-17.231 14.911-17.231 7.856 0 14.24 5.357 14.24 15.937m-21.517 1.511c0 5.982 2.456 9.062 6.607 9.062 4.375 0 7.322-4.107 7.322-10.313 0-5.981-2.634-8.883-6.652-8.883-5.179 0-7.277 4.732-7.277 10.133M541.572 53.17c-.255 0-.446.1-.446.383 0 .479.032.956.032 1.435 0 .7-.191.766-1.276.766h-2.2c-.638 0-.957-.064-.957-.734 0-1.37.064-2.742.064-4.113V37.769c0-.988-.031-2.009-.031-3 0-1.02.35-1.467 1.4-1.467.8 0 1.595.064 2.392.064h2.072c.8 0 1.594-.064 2.392-.064.956 0 1.435.319 1.435 1.5 0 .988-.064 1.977-.064 2.966v12.02c0 1.372.064 2.743.064 4.114 0 .67-.223.734-1.085.734h-1.848c-.766 0-1.021-.064-1.021-.734v-.351a.368.368 0 00-.352-.383h-.031l-.54.002zm.383-11.988a.606.606 0 00.606-.606V38.12a.606.606 0 00-.604-.606h-.258a.606.606 0 00-.606.606v2.456c0 .335.271.606.606.606h.256zm-.256 3.826a.614.614 0 00-.607.619v2.793a.613.613 0 00.587.638h.275a.614.614 0 00.607-.619v-2.794a.633.633 0 00-.606-.638h-.256zm17.7-10.618c1.148 0 2.327-.064 3.443-.064.734 0 .8.287.8 1.053v1.5c0 .988-.064 1.275-.766 1.275-1.18 0-2.327-.095-3.475-.095h-.862a.775.775 0 00-.764.765v.478c.004.339.281.61.619.606h.975c1.371 0 2.774-.064 4.145-.064.957 0 1.053.255 1.053 1.243v1.527c0 .988-.1 1.275-1.021 1.275-.414 0-.828-.032-1.243-.032-.1 0-.287.032-.287.191 0 .032.032.064.032.1 0 .223-.287.287-.446.383-.287.128-.383.319-.383.733a.641.641 0 00.67.606c.478 0 .988-.032 1.467-.032.861 0 .925.319.925 1.275v.989c0 1.881-.064 1.945-.957 1.945-.287 0-.7-.032-1.244-.032a.9.9 0 00-.893.988v3.222c0 .7.064 1.4.064 2.1 0 3.221-2.551 3.411-5.134 3.411-1.945 0-2.391-.128-2.646-1.148a9.828 9.828 0 01-.255-2.168v-.128c0-.191-.1-.478-.351-.478a.757.757 0 00-.415.159c-.34.254-.732.428-1.148.51-.446 0-.957-.862-1.817-2.136a15.755 15.755 0 00-1.212-1.659c-.128-.159-.287-.287-.287-.478 0-.447 1.4-1.531 1.785-1.787.1-.063.255-.127.255-.254s-.127-.159-.223-.159c-.351 0-.7.032-1.052.032-.861 0-.925-.351-.925-1.435v-1.493c0-.988.1-1.275.925-1.275 1.148 0 2.264.064 3.38.064h4.05a.629.629 0 00.669-.585c.001-.018.002-.036.001-.053a8.197 8.197 0 00-.1-.925.499.499 0 00-.484-.515c-.03 0-.06 0-.09.005h-3.858c-1.4 0-2.775.064-4.145.064-.957 0-1.084-.255-1.084-1.212v-1.568c0-1.021.1-1.276 1.084-1.276 1.371 0 2.742.064 4.145.064h.064a.762.762 0 00.829-.8v-.223a.77.77 0 00-.829-.829c-.956 0-1.913.095-2.9.095-.733 0-.8-.254-.8-1.243v-1.4c0-.861.064-1.18.829-1.18 1.116 0 1.914.1 2.487.1.893 0 1.212-.224 1.212-1.372 0-.491-.034-.981-.1-1.467 0-.064-.032-.191-.032-.255 0-.383.351-.414.638-.414.638 0 3.316.222 4.017.287.223.032.7.064.7.414 0 .191-.192.319-.351.414-.287.224-.319.606-.319 1.467 0 .446.254.893 1.052.893h.583zm-2.551 16.453a.891.891 0 00-.889-.893h-3.32c-.351 0-.766.032-.766.414.031.199.133.38.287.51.415.542 2.041 2.774 2.041 3.348 0 .191-.128.319-.128.509 0 .351.319.383.766.383h.893c1.083 0 1.115-.159 1.115-1.946v-2.325zM595.869 45.135a1.222 1.222 0 01-.319.67 8.124 8.124 0 01-6.441 3.7 9.853 9.853 0 01-4.942-1.562c-1.308-.734-2.615-1.595-4.081-1.595a3.625 3.625 0 00-2.934 1.659c-.255.35-.415.542-.606.542s-.383-.128-.67-.383l-1.881-1.627c-.35-.287-.51-.51-.51-.733.043-.248.154-.48.319-.67a7.912 7.912 0 016.409-3.73c1.8.082 3.542.655 5.039 1.658a8.277 8.277 0 003.985 1.53 3.527 3.527 0 002.965-1.69c.255-.351.415-.542.606-.542.159 0 .351.128.638.383l1.945 1.658c.319.287.478.511.478.733M618.607 51.455c2.321 0 7.142-.089 7.455-.089.937 0 1.116.268 1.116 1.294v3.929c0 1.027-.179 1.295-1.116 1.295-.313 0-5.134-.089-7.455-.089h-6.383c-2.366 0-7.589.089-7.9.089-.938 0-1.117-.268-1.117-1.295V54.67a1.895 1.895 0 011.117-2.1 31.944 31.944 0 002.455-1.875c8.526-7.231 12.365-11.115 12.365-14.775 0-2.456-1.607-4.152-4.821-4.152a8.715 8.715 0 00-6.338 3.124c-.4.446-.624.67-.893.67s-.491-.223-.893-.624l-3.3-3.527c-.357-.4-.535-.67-.535-.981 0-.268.178-.536.58-.938a17 17 0 0111.964-4.866c7.678 0 12.053 4.375 12.053 10.089 0 5.937-4.6 10.892-10.4 15.891-.358.313-.491.491-.491.626s.268.222.8.222h1.737zM670.784 53.17c-.255 0-.446.1-.446.383 0 .479.032.956.032 1.435 0 .7-.191.766-1.276.766h-2.2c-.638 0-.957-.064-.957-.734 0-1.37.064-2.742.064-4.113V37.769c0-.988-.031-2.009-.031-3 0-1.02.35-1.467 1.4-1.467.8 0 1.595.064 2.392.064h2.072c.8 0 1.594-.064 2.392-.064.956 0 1.435.319 1.435 1.5 0 .988-.064 1.977-.064 2.966v12.02c0 1.372.064 2.743.064 4.114 0 .67-.223.734-1.085.734h-1.848c-.766 0-1.021-.064-1.021-.734v-.351a.368.368 0 00-.352-.383h-.031l-.54.002zm.383-11.988a.606.606 0 00.606-.606V38.12a.606.606 0 00-.604-.606h-.258a.606.606 0 00-.606.606v2.456c0 .335.271.606.606.606h.256zm-.256 3.826a.614.614 0 00-.607.619v2.793a.613.613 0 00.587.638h.275a.614.614 0 00.607-.619v-2.794a.633.633 0 00-.606-.638h-.256zm17.7-10.618c1.148 0 2.327-.064 3.443-.064.734 0 .8.287.8 1.053v1.5c0 .988-.064 1.275-.766 1.275-1.18 0-2.327-.095-3.475-.095h-.862a.775.775 0 00-.764.765v.478c.004.339.281.61.619.606h.975c1.371 0 2.774-.064 4.145-.064.957 0 1.053.255 1.053 1.243v1.527c0 .988-.1 1.275-1.021 1.275-.415 0-.828-.032-1.243-.032-.1 0-.287.032-.287.191 0 .032.032.064.032.1 0 .223-.287.287-.446.383-.287.128-.383.319-.383.733a.641.641 0 00.67.606c.477 0 .988-.032 1.467-.032.861 0 .925.319.925 1.275v.989c0 1.881-.064 1.945-.956 1.945-.287 0-.7-.032-1.244-.032a.9.9 0 00-.893.988v3.222c0 .7.065 1.4.065 2.1 0 3.221-2.551 3.411-5.135 3.411-1.945 0-2.391-.128-2.646-1.148a9.828 9.828 0 01-.255-2.168v-.128c0-.191-.1-.478-.351-.478a.757.757 0 00-.415.159c-.34.254-.732.428-1.148.51-.446 0-.956-.862-1.817-2.136a15.755 15.755 0 00-1.212-1.659c-.127-.159-.287-.287-.287-.478 0-.447 1.4-1.531 1.785-1.787.1-.063.255-.127.255-.254s-.127-.159-.223-.159c-.351 0-.7.032-1.052.032-.861 0-.925-.351-.925-1.435v-1.493c0-.988.1-1.275.925-1.275 1.148 0 2.264.064 3.38.064h4.05a.629.629 0 00.669-.585c.001-.018.002-.036.001-.053a8.197 8.197 0 00-.1-.925.499.499 0 00-.484-.515c-.03 0-.06 0-.09.005h-3.858c-1.4 0-2.774.064-4.145.064-.957 0-1.084-.255-1.084-1.212v-1.568c0-1.021.1-1.276 1.084-1.276 1.371 0 2.742.064 4.145.064h.064a.762.762 0 00.829-.8v-.223a.77.77 0 00-.829-.829c-.956 0-1.913.095-2.9.095-.733 0-.8-.254-.8-1.243v-1.4c0-.861.064-1.18.829-1.18 1.116 0 1.914.1 2.488.1.893 0 1.211-.224 1.211-1.372 0-.491-.034-.981-.1-1.467 0-.064-.032-.191-.032-.255 0-.383.351-.414.638-.414.638 0 3.316.222 4.017.287.223.032.7.064.7.414 0 .191-.192.319-.351.414-.287.224-.319.606-.319 1.467 0 .446.254.893 1.052.893h.582zm-2.551 16.453a.891.891 0 00-.889-.893h-3.32c-.351 0-.766.032-.766.414.031.199.133.38.287.51.415.542 2.041 2.774 2.041 3.348 0 .191-.128.319-.128.509 0 .351.319.383.766.383h.893c1.083 0 1.115-.159 1.115-1.946v-2.325zM701.186 51.249a11.26 11.26 0 013.161-7.686c.182-.2.382-.4.549-.4.333 0 .931.533.931.8a.628.628 0 01-.233.4c-3.804 3.693-3.893 9.771-.2 13.575.066.068.132.134.2.2.123.094.206.23.233.382 0 .316-.632.815-.914.815-.166 0-.283-.116-.533-.365a11.25 11.25 0 01-3.194-7.72M716.773 57.255h-5.077c-.267 0-.383.116-.383.383v.166c0 .466-.166.466-.948.466-.715 0-.948 0-.948-.449 0-.7.05-1.4.05-2.08v-8.368c0-.533-.033-1.049-.033-1.58 0-.665.266-.865.916-.865.482 0 .964.033 1.464.033h4.857c.483 0 .965-.033 1.448-.033.632 0 .915.166.915.848 0 .533-.034 1.065-.034 1.6v8.333c0 .7.05 1.381.05 2.08 0 .466-.2.449-.948.449s-.948 0-.948-.449a.447.447 0 01.017-.15c-.017-.266-.134-.383-.4-.383m-.033-7.087a.476.476 0 00.466-.466v-2.662a.476.476 0 00-.466-.466h-5.007a.476.476 0 00-.466.466v2.661a.476.476 0 00.466.466h5.007zm-5.473 4.974c.006.255.211.46.466.466h5.007a.476.476 0 00.466-.466v-2.934a.474.474 0 00-.466-.465h-5.007a.475.475 0 00-.466.465v2.934zM725.622 55.076c-.3 0-.432.116-.45.432 0 .233.017.466.017.715 0 .417-.184.4-.849.4-.648 0-.814 0-.814-.415 0-.6.033-1.2.033-1.814v-6.987c0-.466-.017-.948-.017-1.414 0-.5.1-.783.665-.783.283 0 .583.017.882.017h1.514c.3 0 .582-.017.881-.017.549 0 .665.25.665.783 0 .466-.016.948-.016 1.414v6.325c0 .616.033 1.232.033 1.847 0 .383-.183.383-.766.383-.7 0-.748-.017-.764-.516 0-.266-.134-.366-.382-.366l-.632-.004zm.582-5.723a.464.464 0 00.466-.462v-1.667a.476.476 0 00-.466-.466h-.582a.477.477 0 00-.466.466v1.663c0 .257.207.465.464.466h.584zm-.582 1.448a.477.477 0 00-.466.466v1.813c.006.255.211.46.466.466h.582a.476.476 0 00.466-.466v-1.814a.476.476 0 00-.466-.466h-.582zm8.152-5.457c0 .333.133.466.466.466h.582c.6 0 1.181-.05 1.781-.05.383 0 .383.166.383.749s0 .732-.366.732c-.6 0-1.2-.033-1.8-.033h-.582c-.333 0-.466.133-.466.466v.7c0 .316.133.466.466.466h.981c.665 0 1.347-.05 2.013-.05.466 0 .449.183.449.782 0 .582.017.766-.432.766-.682 0-1.364-.034-2.029-.034h-4.192c-.683 0-1.348.034-2.03.034-.449 0-.433-.184-.433-.766 0-.6-.016-.782.449-.782.666 0 1.348.05 2.014.05h.615a.407.407 0 00.466-.466v-.7c0-.333-.15-.466-.466-.466h-.117c-.6 0-1.2.033-1.8.033-.366 0-.366-.166-.366-.732 0-.582 0-.749.383-.749.6 0 1.181.05 1.78.05h.117c.316 0 .466-.133.466-.466a7.686 7.686 0 00-.066-1.232c0-.049-.017-.116-.017-.149 0-.183.15-.216.3-.216.233 0 1.2.082 1.463.116.117.016.383.033.383.2 0 .116-.117.166-.217.233-.166.116-.182.316-.182.615l.004.433zm2.162 6.62c.4 0 .782-.033 1.181-.033.416 0 .416.2.416.8 0 .582 0 .782-.4.782s-.8-.017-1.2-.033c-.316.016-.432.15-.432.466v2.063c0 .349.017.716.017 1.065 0 1.513-1.431 1.58-2.579 1.58-.7 0-1.13.082-1.13-1.3 0-.2.033-.432.282-.432.067 0 .482.034.866.034.914 0 .931-.2.931-1.181v-1.83c0-.333-.134-.466-.466-.466h-2.413c-.566 0-1.114.033-1.68.033-.4 0-.4-.183-.4-.782s-.016-.8.4-.8c.566 0 1.131.033 1.68.033h2.413c.332 0 .432-.116.466-.432a5.595 5.595 0 00-.067-.731v-.134c0-.182.15-.216.282-.216.316 0 1.1.067 1.415.1.133.017.432.017.432.183 0 .1-.133.15-.249.217-.183.083-.217.2-.2.582a.38.38 0 00.432.432m-4.858 4.808c-.183 0-.432-.365-.749-.848-.1-.133-.2-.265-.3-.416a6.157 6.157 0 00-.483-.665.457.457 0 01-.133-.25c0-.25.782-.832 1.031-.832.316 0 .848.815 1.031 1.065.266.346.484.727.649 1.131 0 .367-.8.815-1.049.815M748.794 48.488c.006.098.054.19.132.25.383.316.5.4.451.632a.833.833 0 01-.017.084.176.176 0 00.2.2h2.413c.549 0 1.148-.033 1.4-.033a1.445 1.445 0 011.281 1.2c0 .483-2.512 2.812-2.962 2.812-.4 0-1.081-.782-1.081-1.048 0-.15.134-.216.748-.615.117-.084.715-.516.715-.649 0-.15-.232-.116-.316-.116h-2.912c-.332 0-.466.132-.466.466v3.626c0 .416.034.832.034 1.248 0 1.813-1.663 2.03-3.111 2.03-.25 0-.632 0-.782-.25a2.965 2.965 0 01-.25-1.148c0-.25.083-.448.349-.448.112.002.223.013.333.033.183.016.482.033.665.033 1.083 0 1.032-.283 1.032-1.3v-3.83c0-.333-.15-.466-.466-.466h-3.71c-.632 0-1.282.033-1.929.033-.383 0-.383-.2-.383-.8 0-.633 0-.815.383-.815.647 0 1.3.033 1.929.033h4.525c.083 0 .183-.033.183-.15a.172.172 0 00-.066-.134 25.848 25.848 0 00-2.346-1.679c-.149-.083-.383-.2-.383-.383 0-.3.649-1.031.965-1.031a6.912 6.912 0 011.614.965c.109.088.243.14.383.15a.856.856 0 00.349-.1c.249-.149 1.765-1 1.765-1.214 0-.167-.249-.134-.383-.134h-4.542c-.632 0-1.247.033-1.879.033-.416 0-.4-.183-.4-.832 0-.665 0-.815.4-.815.632 0 1.247.05 1.879.05h5.474c.466 0 .932-.034 1.381-.034a.811.811 0 01.7.35c.231.23.397.517.482.832 0 .582-3.012 2.379-3.594 2.712-.1.066-.183.132-.183.249M762.099 50.417a.505.505 0 00-.049-.166 1.897 1.897 0 01-.216-.5c0-.3.781-.615 1.015-.615.183 0 .266.166.333.3.366.732.566 1.148.832 1.747.162.322.285.663.366 1.015 0 .366-.932.582-1.048.582-.233 0-.283-.25-.366-.449a.465.465 0 00-.466-.349 3.022 3.022 0 00-.482.067c-.316.05-.416.217-.416.516v3.361c0 .7.032 1.414.032 2.129 0 .516-.149.532-.865.532-.7 0-.865-.017-.865-.532 0-.715.051-1.414.051-2.129v-3.147a.367.367 0 00-.383-.416c-.017 0-.417.05-.45.05-.333.051-.549.051-1.014.1-.15.017-.167.05-.233.184-.051.1-.116.2-.233.2-.184 0-.234-.234-.35-.816a13.967 13.967 0 00-.15-.7 1.015 1.015 0 01-.033-.233c0-.183.2-.166.715-.183.183 0 .367-.017.549-.017a.728.728 0 00.649-.349c.116-.183.233-.349.349-.532a.606.606 0 00.116-.3.59.59 0 00-.184-.383 24.435 24.435 0 00-1.846-1.647c-.1-.083-.216-.15-.216-.282 0-.25.249-.5.365-.715.083-.15.25-.417.449-.417.1 0 .2.1.266.166a.503.503 0 00.217.084c.116 0 .182-.084.249-.184.397-.813.736-1.652 1.016-2.512.033-.1.066-.216.2-.216.41.127.811.283 1.2.466.116.051.316.116.316.266s-.166.166-.283.2a.3.3 0 00-.233.183c-.432.9-.765 1.6-1.28 2.479a.447.447 0 00-.083.249.483.483 0 00.149.333l.3.3a.35.35 0 00.249.116.36.36 0 00.283-.166c.449-.764.782-1.381 1.164-2.178.066-.134.1-.267.25-.267.292.099.576.221.848.366.1.05.183.1.233.116.15.067.532.217.532.4 0 .15-.116.167-.216.183a.4.4 0 00-.333.2c-.466.8-1.781 2.779-2.346 3.56a.223.223 0 00-.05.133c0 .133.1.183.216.183.3-.017.583-.05.882-.083.066-.017.3-.051.3-.283m-2.661 3.145c.116.033.233.1.233.233 0 .1-.1.149-.182.182-.184.067-.2.15-.233.333-.1.6-.516 2.295-.7 2.878-.067.183-.132.432-.365.432-.2 0-1.049-.2-1.049-.5.056-.269.14-.531.25-.782.275-.92.481-1.86.615-2.811.017-.134.05-.267.217-.267.149 0 1.014.25 1.214.3m3.939 2.909c-.25 0-.3-.233-.349-.432-.133-.482-.566-1.681-.749-2.147a.77.77 0 01-.1-.316c0-.332.849-.482.949-.482a.313.313 0 01.3.183c.05.084.566 1.364.632 1.548.142.363.258.735.349 1.114 0 .333-.915.533-1.031.533m1.6-6.521c-.083.133-.2.283-.366.283-.316 0-1.214-.366-1.214-.665.029-.119.08-.232.15-.333a17.937 17.937 0 002.18-5.289c.033-.134.066-.25.249-.25.348.059.692.137 1.031.233.367.083.682.166.682.349 0 .116-.134.166-.217.2-.2.083-.216.166-.4.7-.083.267-.2.665-.416 1.248a.377.377 0 00-.033.132c0 .267.249.267.332.283h2.23c.482 0 .948-.033 1.414-.033.832 0 .8.532.8 1.231a47.835 47.835 0 01-.632 8.184 2.565 2.565 0 01-1.031 1.88 5.454 5.454 0 01-2.362.466c-.766 0-.882-.15-1-.532a3.881 3.881 0 01-.116-.865c0-.283.067-.432.366-.432.266 0 .682.066 1.114.066.632 0 1.231 0 1.481-1.114.333-2.208.506-4.438.516-6.671 0-.665-.166-.6-1.3-.6h-2.2a.6.6 0 00-.632.382c-.2.383-.4.783-.631 1.148m1.9 4.408c-.249 0-.316-.233-.382-.416a24.48 24.48 0 00-1.2-2.595.875.875 0 01-.134-.349c0-.316.932-.682 1.149-.682a.387.387 0 01.332.233c.249.449.5.948.715 1.414.276.551.505 1.124.683 1.714 0 .415-1.015.681-1.165.681M779.95 45.947h.866c.515 0 1.032-.033 1.448-.033.3 0 .3.182.3.782 0 .566 0 .749-.3.749-.317 0-.933-.033-1.448-.033h-.866c-.316 0-.466.132-.466.466v.449c0 .333.15.466.466.466h.832c.6 0 1.2-.033 1.8-.033.45 0 .432.2.432.782 0 .566.017.782-.415.782-.616 0-1.214-.05-1.815-.05h-.832a.407.407 0 00-.466.466v.466c0 .332.15.465.466.465h.466c.416 0 .831-.033 1.248-.033.5 0 .9.066.9.665 0 .316-.034.7-.034 1.181v1.663c0 .316.034.615.034.932 0 1.3-.715 1.5-1.847 1.5-.683 0-.882-.2-.882-1.1 0-.2 0-.482.232-.482.068 0 .283.017.451.017.448 0 .432-.216.432-.783v-1.653c0-.332-.134-.466-.466-.466h-.534c-.316 0-.466.134-.466.466v1.98c0 .848.051 1.7.051 2.562 0 .466-.149.482-.815.482s-.816-.017-.816-.5c0-.849.033-1.7.033-2.546v-1.98c0-.332-.132-.466-.449-.466h-.5c-.317 0-.45.134-.45.466v1.864c0 .549.017 1.115.017 1.663 0 .5-.15.5-.8.5-.632 0-.8.017-.8-.482 0-.566.015-1.115.015-1.68v-1.93c0-.483-.015-.882-.015-1.214 0-.582.365-.665.864-.665.416 0 .832.033 1.248.033h.415c.317 0 .449-.133.449-.465v-.466c0-.316-.132-.466-.449-.466h-.9c-.6 0-1.2.05-1.813.05-.433 0-.416-.233-.416-.782 0-.582-.017-.782.433-.782.6 0 1.2.033 1.8.033h.9c.317 0 .449-.133.449-.466v-.449c0-.333-.132-.466-.449-.466h-.748a.522.522 0 00-.6.4c-.151.365-.2.649-.5.649-.234 0-1.1-.266-1.1-.532.034-.157.09-.308.168-.449.416-1.016.685-2.086.8-3.177.016-.1.016-.25.216-.25.066 0 .765.116.865.15.465.1.681.15.681.316 0 .134-.132.184-.232.233-.132.067-.132.166-.249.766 0 .033-.017.083-.017.116 0 .233.183.316.382.316h.332c.317 0 .449-.134.449-.466v-.45c0-.311-.016-.622-.048-.931 0-.051-.018-.116-.018-.167 0-.2.15-.216.3-.216.234 0 1.031.05 1.3.083.149 0 .4.017.4.216 0 .1-.083.133-.184.216-.166.133-.182.316-.182.682v.5c0 .034-.018.067-.018.1.033.316.167.432.466.432m3.844 1.214a8.633 8.633 0 00-.05-1.148.441.441 0 01-.017-.149c0-.183.15-.2.283-.2.2 0 1.247.084 1.463.1.116.016.267.049.267.2 0 .117-.151.184-.234.25-.166.116-.182.266-.182.849v5.688c0 .649.033 1.282.033 1.93 0 .483-.151.5-.8.5s-.8-.017-.8-.482c0-.649.034-1.3.034-1.947l.003-5.591zm2.978-1.947a7.284 7.284 0 00-.049-1.065.375.375 0 01-.018-.133c0-.2.151-.216.3-.216.3 0 1.082.05 1.431.067.134.016.417.016.417.216 0 .116-.133.183-.234.25-.166.132-.184.332-.184 1v10.146c0 .4.034.8.034 1.181 0 1.73-1.265 1.913-2.695 1.913-.549 0-.965-.017-.965-1.264 0-.25.016-.532.349-.532.2 0 .449.05.848.05.765 0 .765-.233.765-1.214V45.21zM795.835 51.249a11.26 11.26 0 01-3.161 7.686c-.182.2-.382.4-.549.4-.332 0-.931-.532-.931-.8a.628.628 0 01.233-.4c3.804-3.693 3.893-9.771.2-13.575a9.429 9.429 0 00-.2-.2.616.616 0 01-.233-.382c0-.316.632-.816.915-.816.166 0 .282.116.532.366a11.252 11.252 0 013.194 7.719M11.095 49.687c0 .478-.084.6-.52.6-.146 0-1.1-.041-1.769-.041H6.333c-.52 0-.624-.1-.624-.624v-18.17c0-.52.1-.624.624-.624h2.473c.665 0 1.623-.042 1.769-.042.436 0 .52.125.52.6v.769c0 .5-.064.6-.5.6-.27 0-1.123-.021-1.788-.021h-.6c-.5 0-.583.083-.583.561v14.45c0 .5.084.582.583.582h.6c.665 0 1.519-.02 1.788-.02.437 0 .5.1.5.6v.78zM26.011 46.193c-.208.062-.229.1-.4.541-.042.1-.083.229-.146.374a19.752 19.752 0 01-1.019 2.266c-.083.146-.187.313-.374.313-.312 0-1.539-.437-1.539-.769.042-.17.113-.331.208-.478a13.713 13.713 0 001.352-3.036c.042-.146.083-.229.229-.229.373.088.741.199 1.1.333.582.187.831.25.831.457 0 .167-.124.188-.249.229m3.389-3.826c0 .478.041.977.041 1.476 0 .665-.1 1.04-.852 1.04-.374 0-.728-.021-1.1-.021h-2.115c-.374 0-.728.021-1.081.021-.665 0-.853-.27-.853-.956 0-.52.021-1.04.021-1.559v-8.193c0-.52-.021-1.04-.021-1.559 0-.624.146-.977.811-.977.374 0 .749.042 1.123.042h2.121c.374 0 .728-.042 1.1-.042.706 0 .852.353.852 1 0 .52-.041 1.019-.041 1.539l-.006 8.189zm-3.444-8.775a.55.55 0 00-.581.519v.77a.6.6 0 00.582.583h1a.581.581 0 00.582-.58v-.731c-.042-.353-.208-.561-.582-.561h-1zm0 3.639a.55.55 0 00-.581.519v.791a.593.593 0 00.582.582h1a.581.581 0 00.582-.58v-.751a.562.562 0 00-.565-.561H25.95zm0 3.68a.581.581 0 00-.582.58v.918a.552.552 0 00.54.562h1.042c.374 0 .541-.208.582-.561v-.917a.57.57 0 00-.556-.582h-1.026zm2.39 7.713c-.332 0-.6-.706-.749-1.039a12.66 12.66 0 01-.665-1.767c0-.375 1.207-.645 1.414-.645.271 0 .333.27.417.5.125.333.457 1.04.623 1.352a.27.27 0 00.25.166.3.3 0 00.249-.188 23.126 23.126 0 001.414-8.811v-3.477c0-.624-.02-1.248-.02-1.871 0-.832.311-1.04 1.1-1.04.623 0 1.248.041 1.871.041h3.971c.832 0 1.663-.062 2.5-.062.541 0 .5.229.5 1.04s.042 1.018-.478 1.018c-.832 0-1.684-.041-2.516-.041h-4.283c-.417 0-.582.166-.582.582V36.4c0 .415.166.582.582.582h3.888c.4 0 .811-.021 1.227-.021.41-.051.815.124 1.06.457.255.248.41.581.437.936-.039.47-.116.936-.229 1.394a17.232 17.232 0 01-1.871 4.782 1.048 1.048 0 00-.125.437.65.65 0 00.187.457 19.777 19.777 0 002.661 2.619c.208.167.353.271.353.458a2.12 2.12 0 01-1.313 1.292 1.051 1.051 0 01-.665-.354 23.614 23.614 0 01-2.266-2.307.485.485 0 00-.353-.208.5.5 0 00-.353.187c-.457.52-2.745 2.661-3.348 2.661-.394 0-1.248-1.019-1.248-1.31 0-.208.374-.437.687-.645a13.96 13.96 0 002.765-2.432.752.752 0 00.187-.457.874.874 0 00-.124-.437 14.658 14.658 0 01-1.664-5.177c-.021-.146-.083-.353-.25-.353s-.228.188-.228.312a26.245 26.245 0 01-.874 6.633c-.166.561-1.248 3.68-1.808 3.68a3.019 3.019 0 01-1.435-.853c-.083-.1-.186-.25-.332-.25a.372.372 0 00-.146.042 1.577 1.577 0 01-.417.1m7.839-9.751c-.353 0-.561.166-.52.541a10.382 10.382 0 001.02 3.223.32.32 0 00.27.187.283.283 0 00.25-.166c.548-1.105.94-2.28 1.164-3.493 0-.311-.27-.291-.811-.291h-1.373zM53.936 43.033a6.89 6.89 0 01-3.327 5.511 8.341 8.341 0 01-2.869 1.247c-.624 0-1.227-1.1-1.227-1.414s.5-.374.728-.457c2.537-.873 4.429-2.225 4.678-5.073.016-.152.023-.304.021-.457.021-.457.021-.645.4-.645.53.048 1.058.124 1.58.228.166.021.665.083.665.312 0 .188-.291.291-.437.374a.463.463 0 00-.208.374m3.389-10h4.366c.81 0 1.621-.042 2.454-.042.5 0 .478.208.478.956s.021.956-.478.956c-.832 0-1.643-.042-2.454-.042h-4.374c-.417 0-.582.166-.582.561v.292c0 .415.166.582.582.582h3.04c.686 0 1.392-.042 2.079-.042.457 0 .415.249.415.936 0 .749.021.977-.415.977-.687 0-1.393-.042-2.079-.042h-9.44c-.707 0-1.393.042-2.079.042-.436 0-.436-.188-.436-.977 0-.728 0-.936.436-.936.686 0 1.372.042 2.079.042h3.057c.4 0 .561-.167.561-.582v-.291c0-.4-.166-.561-.561-.561h-4.3c-.811 0-1.642.042-2.453.042-.5 0-.479-.208-.479-.956s-.021-.956.479-.956c.831 0 1.642.042 2.453.042h4.3c.374 0 .541-.146.561-.541 0-.292-.021-.584-.063-.873a.597.597 0 01-.02-.188c0-.229.166-.291.374-.291.27 0 1.518.125 1.851.146.187.021.54.042.54.27 0 .146-.124.209-.27.312-.208.166-.188.374-.208.624.02.4.186.541.582.541m4.719 8.732c0-.394-.166-.561-.561-.561H49.798c-.4 0-.582.166-.582.561v.374c0 .271.062.645.062.894 0 .5-.353.458-1.1.458-.853 0-1.144.021-1.144-.479 0-.249.042-.6.042-.893v-.812c0-.457-.042-.893-.042-1.122 0-.728.52-.853 1.519-.853.5 0 1.122.042 1.85.042h10.478c.749 0 1.5-.042 2.225-.042.582 0 1.143.166 1.143.853 0 .291-.042.665-.042 1.122v.832c0 .291.042.582.042.894 0 .479-.249.479-1.123.479-.811 0-1.122 0-1.122-.457 0-.188.041-.624.041-.894v-.396zm-.915 5.7c.749 0 1.185-.083 1.435-1.747.042-.29.042-.561.4-.561.411.04.816.131 1.205.271.354.124.5.207.5.478a6.413 6.413 0 01-.853 2.724c-.561.853-1.31.853-2.225.853h-3.123c-1.1 0-1.891-.333-1.891-1.58 0-.394.021-.769.021-1.164v-2.772c.021-.567 0-1.136-.062-1.7 0-.063-.021-.125-.021-.188 0-.229.166-.27.353-.27.312 0 1.414.1 1.767.146.188.02.562.02.562.27 0 .125-.125.188-.209.27-.229.188-.249.562-.249.977v3.057c0 .811.186.936 1.019.936h1.371zM74.645 46.028c-.208.02-.25.02-.4.291a16.774 16.774 0 01-2.246 3.16c-.124.146-.291.333-.5.333-.4 0-1.455-.541-1.455-.977 0-.146.146-.271.229-.354a13.19 13.19 0 002.412-3.452c.062-.1.125-.27.27-.27.537.171 1.053.4 1.539.685.125.042.4.187.4.354 0 .146-.125.207-.25.229m-2.619-3.74v-6.32c0-.4-.166-.561-.561-.561h-.394c-.52 0-.5-.229-.5-.915 0-.727-.02-.936.5-.936h.394a.488.488 0 00.561-.568 9.242 9.242 0 00-.083-1.309c0-.062-.021-.146-.021-.208 0-.229.146-.271.353-.271.229 0 1.455.1 1.705.146.187.021.5.021.5.271 0 .146-.1.186-.25.311-.229.146-.25.457-.25.853v.27c.042.4.208.541.582.541h1.559c.416 0 .561-.166.582-.582a13.6 13.6 0 00-.083-1.289c0-.062-.021-.146-.021-.208 0-.229.146-.291.353-.291.291 0 1.352.1 1.684.146.187.021.52.021.52.291 0 .125-.1.187-.25.291-.25.187-.229.457-.229 1.04 0 .4.146.561.54.561h.354c.52 0 .5.229.5.936 0 .665.021.915-.479.915h-.353c-.4 0-.561.166-.561.561v6.325c0 .4.146.562.54.562.188 0 .4-.021.582-.021.52 0 .52.207.52.915 0 .685.021.914-.5.914-.687 0-1.352-.062-2.018-.062h-5.11c-.665 0-1.33.062-2 .062-.52 0-.52-.229-.52-.914s0-.915.52-.915c.229 0 .54.021.789.041.4-.02.541-.186.541-.582m1.955-6.155a.58.58 0 00.579.583H76.117a.583.583 0 00.582-.582v-.187a.6.6 0 00-.582-.582h-1.559a.6.6 0 00-.582.582v.186zm0 3.036a.6.6 0 00.582.583h1.559a.6.6 0 00.582-.583v-.228a.553.553 0 00-.542-.562h-1.599a.55.55 0 00-.581.519v.27zm2.724 2.807a.6.6 0 00-.582-.582h-1.559a.6.6 0 00-.582.582v.333a.593.593 0 00.582.582h1.559a.6.6 0 00.582-.582v-.333zm1.144 3.244c.437.645.977 1.372 1.476 2a.514.514 0 01.166.291c0 .374-.977 1-1.331 1-.478 0-1.165-1.164-1.435-1.6a5.62 5.62 0 01-.686-1.269c0-.4 1.04-.873 1.33-.873.209 0 .291.186.479.457m5.572-2.454c-.417 0-.583.146-.624.54a17.337 17.337 0 01-1.207 5.115c-.353.791-.6 1.393-.935 1.393-.4 0-1.559-.5-1.559-.956.057-.191.141-.373.25-.54 1.58-2.621 1.663-6.176 1.663-9.15v-4.394c0-.665-.041-1.352-.041-2.038s.27-.936.936-.936c.52 0 1.018.042 1.518.042h2.058c.5 0 1-.042 1.5-.042.811 0 .956.291.956 1.227 0 .416-.042 1-.042 1.747v11c0 .541.062 1.061.062 1.6 0 2.246-1.143 2.474-3.1 2.474-.728 0-1.04-.1-1.185-.707a4.867 4.867 0 01-.146-1.081c0-.291.1-.5.437-.5.166 0 .728.062 1.019.062 1 0 .957-.478.957-1.309v-2.993c0-.394-.166-.561-.583-.561l-1.934.007zm.125-4.491c-.417 0-.582.166-.582.582v.083c0 .437 0 .893-.021 1.351.021.4.186.541.582.541h1.83c.417 0 .583-.166.583-.582v-1.4c0-.416-.166-.582-.583-.582l-1.809.007zm1.808-1.955c.321 0 .582-.26.583-.581v-1.38a.583.583 0 00-.582-.582H83.54a.6.6 0 00-.582.582v1.372a.6.6 0 00.582.582l1.808.007zM96.56 45.986c0 1.019.063 2.038.063 3.078 0 .644-.208.665-1.081.665-.894 0-1.081-.021-1.081-.665 0-1.02.042-2.038.042-3.078V34.717c0-.645-.021-1.289-.021-1.934 0-.811.312-1.06 1.1-1.06.52 0 1.04.042 1.58.042h2.287c.52 0 1.04-.042 1.581-.042.769 0 1.1.229 1.1 1.04 0 .624-.021 1.248-.021 1.871v1.185c0 .582.021 1.164.021 1.767 0 .811-.333 1.019-1.1 1.019-.52 0-1.061-.021-1.581-.021h-2.307c-.416 0-.583.167-.583.562v6.84zm.5-12.621a.481.481 0 00-.5.461v.185a.481.481 0 00.461.5h2.539a.48.48 0 00.5-.459v-.187a.48.48 0 00-.459-.5H97.06zm-.5 3.161a.48.48 0 00.459.5h2.541a.48.48 0 00.5-.459v-.228a.481.481 0 00-.461-.5H97.06a.482.482 0 00-.5.463v.224zm5.115 10.6c-.249 0-.374.1-.374.374.021.644-.083.644-1.018.644-.77 0-1.019 0-1.019-.457 0-.52.041-1.06.041-1.58v-3.676c0-.415-.02-.831-.02-1.248 0-.706.437-.832 1.039-.832.437 0 .874.021 1.331.021h2.62c.437 0 .873-.021 1.31-.021.6 0 1.06.125 1.06.832 0 .417-.021.832-.021 1.248v3.681c0 .519.042 1.06.042 1.58 0 .457-.25.457-1.02.457-.79 0-1.019 0-1.019-.437v-.207c0-.271-.125-.374-.374-.374l-2.578-.005zm2.578-4.075a.372.372 0 00.4-.4v-.229a.362.362 0 00-.4-.395h-2.6a.382.382 0 00-.394.37v.259a.41.41 0 00.394.4l2.6-.006zm-2.993 1.934a.48.48 0 00.459.5h2.453a.463.463 0 00.479-.446l-.001-.054v-.062a.447.447 0 00-.478-.479h-2.413a.465.465 0 00-.499.426c-.001.018-.002.035-.001.053v.062zm5.426-6.383c-.52 0-1.04.041-1.559.041-.77 0-1.123-.208-1.123-1.039 0-.583.041-1.164.041-1.747v-1.2c0-.6-.041-1.206-.041-1.809 0-.832.27-1.1 1.1-1.1.54 0 1.06.042 1.58.042h2.225c.52 0 1.04-.042 1.559-.042.79 0 1.123.208 1.123 1.061 0 .644-.042 1.288-.042 1.933v10.85c0 .582.042 1.143.042 1.725 0 2-1.143 2.391-2.932 2.391-.81 0-1.268 0-1.268-1.58 0-.333.062-.54.416-.54.187 0 .645.062 1.019.062.6 0 .665-.354.665-.791v-7.671c0-.416-.166-.582-.561-.582l-2.244-.004zm-.082-5.219a.47.47 0 00-.5.5v.166a.454.454 0 00.5.478h2.411a.448.448 0 00.478-.478v-.166a.465.465 0 00-.426-.499c-.017-.001-.034-.002-.052-.001h-2.411zm-.5 3.161a.46.46 0 00.5.5h2.411a.455.455 0 00.478-.5v-.166a.465.465 0 00-.426-.499c-.017-.001-.034-.002-.052-.001h-2.411a.47.47 0 00-.5.5v.166zM122.767 48.315c.271 0 1.123.021 1.788.021h.6c.5 0 .582-.082.582-.582V33.303c0-.478-.083-.561-.582-.561h-.6c-.665 0-1.517.021-1.788.021-.437 0-.5-.1-.5-.6v-.769c0-.478.083-.6.52-.6.146 0 1.1.041 1.767.041h2.474c.52 0 .624.1.624.624v18.167c0 .52-.1.623-.624.623h-2.474c-.665 0-1.622.042-1.767.042-.437 0-.52-.125-.52-.6v-.768c0-.5.062-.6.5-.6M660.185 40.652c0 11.07-6.607 17.5-14.911 17.5-8.035 0-14.24-5.625-14.24-16.2 0-9.509 5.045-17.231 14.911-17.231 7.856 0 14.24 5.357 14.24 15.937m-21.517 1.511c0 5.982 2.456 9.062 6.607 9.062 4.375 0 7.322-4.107 7.322-10.313 0-5.981-2.634-8.883-6.652-8.883-5.179 0-7.277 4.732-7.277 10.133"/></g></svg>