<?xml version="1.0" encoding="UTF-8"?><svg xmlns="http://www.w3.org/2000/svg" width="335" height="80" viewBox="0 0 335 80"><g><g><circle cx="36.844" cy="40.261" r="36.834" fill="#00a44f"/><g><path d="m8.844,45.262c-.481.123-.969.216-1.462.277-.317.039-.387-.091-.571-.988l.403-.051c.506-.066,1.008-.16,1.503-.283l-.027-.215c-.066-.584-.187-1.16-.362-1.721.437-.053.879-.059,1.318-.02.091.002.165.075.167.166.007.074-.007.148-.039.214-.076.423-.075.856.005,1.278.331-.101.855-.305,1.249-.479.022-.011.045-.019.07-.021.071-.014.142.025.168.093.09.245.16.497.209.754.009.083-.035.164-.11.201-.116.067-.845.315-1.485.509l.166,1.32c.756-.397,1.571-.672,2.414-.813,1.099-.222,2.17.488,2.392,1.587.019.094.031.189.037.285.143.743-.127,1.505-.705,1.993-.361.253-.782.41-1.22.455-.349.069-.707.075-1.058.019-.119-.048-.134-.077-.186-.32-.057-.283-.161-.555-.309-.803.39.096.795.119,1.194.068.603.018,1.106-.457,1.124-1.059.002-.078-.004-.156-.018-.233-.022-.583-.513-1.037-1.096-1.015-.055.002-.109.008-.162.019-.807.143-1.578.441-2.27.878.003.027.025.174.065.439.063.449.101.722.113.818.034.183.057.367.068.459.104.829-.162,1.268-.841,1.353-.682.066-1.357-.178-1.84-.663-.188-.191-.307-.44-.338-.706-.084-.664.433-1.343,1.636-2.173l-.2-1.622h-.002Zm.345,2.743c-.548.433-.765.699-.738.914.029.236.4.449.707.411.143-.018.183-.117.153-.352l-.122-.973Zm5.418-3.041c-.6-.491-1.309-.83-2.068-.988-.086-.021-.132-.056-.137-.108s.074-.238.312-.663c.093-.168.102-.179.205-.192.269.031.533.088.791.171.682.215,1.601.745,1.626.939s-.408.893-.558.912c-.051.006-.095-.009-.165-.073" fill="#fff"/><path d="m8.844,45.262c-.481.123-.969.216-1.462.277-.317.039-.387-.091-.571-.988l.403-.051c.506-.066,1.008-.16,1.503-.283l-.027-.215c-.066-.584-.187-1.16-.362-1.721.437-.053.879-.059,1.318-.02.091.002.165.075.167.166.007.074-.007.148-.039.214-.076.423-.075.856.005,1.278.331-.101.855-.305,1.249-.479.022-.011.045-.019.07-.021.071-.014.142.025.168.093.09.245.16.497.209.754.009.083-.035.164-.11.201-.116.067-.845.315-1.485.509l.166,1.32c.756-.397,1.571-.672,2.414-.813,1.099-.222,2.17.488,2.392,1.587.019.094.031.189.037.285.143.743-.127,1.505-.705,1.993-.361.253-.782.41-1.22.455-.349.069-.707.075-1.058.019-.119-.048-.134-.077-.186-.32-.057-.283-.161-.555-.309-.803.39.096.795.119,1.194.068.603.018,1.106-.457,1.124-1.059.002-.078-.004-.156-.018-.233-.022-.583-.513-1.037-1.096-1.015-.055.002-.109.008-.162.019-.807.143-1.578.441-2.27.878.003.027.025.174.065.439.063.449.101.722.113.818.034.183.057.367.068.459.104.829-.162,1.268-.841,1.353-.682.066-1.357-.178-1.84-.663-.188-.191-.307-.44-.338-.706-.084-.664.433-1.343,1.636-2.173l-.2-1.622h-.002Zm.345,2.743c-.548.433-.765.699-.738.914.029.236.4.449.707.411.143-.018.183-.117.153-.352l-.122-.973Zm5.418-3.041c-.6-.491-1.309-.83-2.068-.988-.086-.021-.132-.056-.137-.108s.074-.238.312-.663c.093-.168.102-.179.205-.192.269.031.533.088.791.171.682.215,1.601.745,1.626.939s-.408.893-.558.912c-.055.007-.099-.009-.169-.072h-.002Z" fill="none"/><path d="m21.015,45.072c-.286.036-.531.077-.754.126-.007-.217-.026-.454-.072-.823l-.286-2.303c-.026-.268-.07-.534-.132-.796.262-.003.523-.025.782-.066l.302-.037c.108-.339.176-.69.203-1.045l1.11-.015-.268.928.819-.103c.254-.024.506-.066.753-.126.003.273.027.545.071.815l.287,2.282c.03.277.075.552.135.825-.228.008-.454.026-.741.062l-.603.08.081.645,2.641-.331c.394-.04.785-.11,1.169-.21l.134,1.064c-.4.002-.799.031-1.194.088l-1.903.239c.481.299.996.538,1.535.711.656.211,1.336.342,2.024.39-.2.34-.36.702-.477,1.079-.677-.088-1.339-.267-1.969-.532-.659-.269-1.27-.641-1.812-1.102.01.075.025.164.044.265.005.041.054.346.058.378l.071.573c.03.337.097.67.199.993l-1.208.152c.011-.342-.007-.684-.055-1.023l-.07-.553c-.024-.194-.04-.317-.06-.648-.365.541-.819,1.016-1.342,1.406-.551.423-1.147.783-1.777,1.076-.208-.328-.466-.622-.765-.87,1.149-.403,2.184-1.078,3.016-1.968l-1.78.224c-.394.043-.785.113-1.17.209l-.134-1.064c.393,0,.785-.03,1.174-.085l2.569-.323-.081-.645-.523.059h-.001Zm-.991-.936c-.515.448-1.065.855-1.646,1.215-.108.075-.233.16-.374.254l-.502-.935c.781-.361,1.506-.834,2.152-1.403l.37.869Zm-2.006-3.047c.594.359,1.155.773,1.673,1.235l-.623.837c-.505-.503-1.07-.942-1.682-1.306l.631-.765h0Zm3.133,3.088l1.699-.214-.086-.686-1.699.214.086.686Zm-.189-1.504l1.699-.213-.08-.634-1.699.214.08.633Zm3.373.044c.766.261,1.516.566,2.246.913l-.466.922c-.709-.405-1.455-.743-2.226-1.009l.446-.826Zm1.669-1.936c-.447.629-.943,1.223-1.481,1.777l-.767-.642c.538-.506.997-1.09,1.363-1.731l.886.596h0Z" fill="#fff"/><path d="m21.015,45.072c-.286.036-.531.077-.754.126-.007-.217-.026-.454-.072-.823l-.286-2.303c-.026-.268-.07-.534-.132-.796.262-.003.523-.025.782-.066l.302-.037c.108-.339.176-.69.203-1.045l1.11-.015-.268.928.819-.103c.254-.024.506-.066.753-.126.003.273.027.545.071.815l.287,2.282c.03.277.075.552.135.825-.228.008-.454.026-.741.062l-.603.08.081.645,2.641-.331c.394-.04.785-.11,1.169-.21l.134,1.064c-.4.002-.799.031-1.194.088l-1.903.239c.481.299.996.538,1.535.711.656.211,1.336.342,2.024.39-.2.34-.36.702-.477,1.079-.677-.088-1.339-.267-1.969-.532-.659-.269-1.27-.641-1.812-1.102.01.075.025.164.044.265.005.041.054.346.058.378l.071.573c.03.337.097.67.199.993l-1.208.152c.011-.342-.007-.684-.055-1.023l-.07-.553c-.024-.194-.04-.317-.06-.648-.365.541-.819,1.016-1.342,1.406-.551.423-1.147.783-1.777,1.076-.208-.328-.466-.622-.765-.87,1.149-.403,2.184-1.078,3.016-1.968l-1.78.224c-.394.043-.785.113-1.17.209l-.134-1.064c.393,0,.785-.03,1.174-.085l2.569-.323-.081-.645-.523.059h-.001Zm-.991-.936c-.515.448-1.065.855-1.646,1.215-.108.075-.233.16-.374.254l-.502-.935c.781-.361,1.506-.834,2.152-1.403l.37.869Zm-2.006-3.047c.594.359,1.155.773,1.673,1.235l-.623.837c-.505-.503-1.07-.942-1.682-1.306l.631-.765h0Zm3.133,3.088l1.699-.214-.086-.686-1.699.214.086.686Zm-.189-1.504l1.699-.213-.08-.634-1.699.214.08.633Zm3.373.044c.766.261,1.516.566,2.246.913l-.466.922c-.709-.405-1.455-.743-2.226-1.009l.446-.826Zm1.669-1.936c-.447.629-.943,1.223-1.481,1.777l-.767-.642c.538-.506.997-1.09,1.363-1.731l.886.596h0Z" fill="none"/><path d="m30.559,39.487c.265.039.339.082.357.194.007.085-.002.171-.028.252-.086.517-.101,1.044-.044,1.565.125,1.658.246,2.942.373,3.955.023.249.081.493.174.726.155.324.535.452,1.108.381.974-.146,1.852-.667,2.448-1.451.328-.4.604-.84.822-1.309.115.342.282.665.494.956.042.07.069.148.081.229.024.184-.14.455-.594.979-.783.974-1.906,1.615-3.142,1.797-.619.128-1.264.004-1.791-.347-.509-.495-.793-1.177-.786-1.887-.101-.797-.167-1.413-.385-3.808-.035-.36-.053-.576-.063-.668-.047-.525-.136-1.046-.267-1.557.414-.048.832-.051,1.246-.011" fill="#fff"/><path d="m30.559,39.487c.265.039.339.082.357.194.007.085-.002.171-.028.252-.086.517-.101,1.044-.044,1.565.125,1.658.246,2.942.373,3.955.023.249.081.493.174.726.155.324.535.452,1.108.381.974-.146,1.852-.667,2.448-1.451.328-.4.604-.84.822-1.309.115.342.282.665.494.956.042.07.069.148.081.229.024.184-.14.455-.594.979-.783.974-1.906,1.615-3.142,1.797-.619.128-1.264.004-1.791-.347-.509-.495-.793-1.177-.786-1.887-.101-.797-.167-1.413-.385-3.808-.035-.36-.053-.576-.063-.668-.047-.525-.136-1.046-.267-1.557.413-.047.829-.05,1.243-.01v.003Z" fill="none"/><path d="m42.566,42.623c-.272.703-.581,1.391-.926,2.061-.221.554-.704.962-1.288,1.087-.731.055-1.369-.493-1.424-1.224-.003-.041-.004-.083-.003-.124-.1-.782.238-1.555.88-2.013.514-.366,1.107-.604,1.731-.696l.101-.012c.387-1.129.485-1.433.733-2.275-.654.082-1.293.253-1.9.509-.022.012-.045.019-.07.021-.174.022-.405-.489-.553-1.251.241.013.484.004.723-.029.347-.043.937-.15,1.554-.289.385-.083.618-.158.699-.223.052-.041.112-.07.176-.084.133-.017.358.122.618.369.137.117.247.261.323.424.01.082-.022.158-.129.297-.372.789-.682,1.607-.926,2.445.721.026,1.434.146,2.124.357.009-.359-.005-.718-.041-1.076-.021-.154-.051-.306-.089-.457.448.006.826.031,1.132.066.191.028.258.072.268.153.006.095-.01.189-.048.276-.073.25-.107.51-.101.771-.003.218-.017.366-.041.67.445.195.875.427,1.283.691.051.033.087.084.101.143.035.287-.32,1.007-.505,1.031-.051.006-.11-.017-.196-.069-.307-.211-.681-.455-.91-.581-.205.689-.567,1.322-1.057,1.848-.353.41-.797.732-1.295.943-.092.006-.183-.019-.258-.072-.067-.065-.131-.133-.191-.205-.149-.192-.356-.33-.59-.394.587-.247,1.116-.615,1.552-1.08.391-.441.674-.968.825-1.539-.728-.289-1.501-.449-2.284-.472m-2.608,1.575c.031.246.141.388.306.367.226-.028.562-.58,1.067-1.766-.959.224-1.456.734-1.373,1.399" fill="#fff"/><path d="m42.566,42.623c-.272.703-.581,1.391-.926,2.061-.221.554-.704.962-1.288,1.087-.731.055-1.369-.493-1.424-1.224-.003-.041-.004-.083-.003-.124-.1-.782.238-1.555.88-2.013.514-.366,1.107-.604,1.731-.696l.101-.012c.387-1.129.485-1.433.733-2.275-.654.082-1.293.253-1.9.509-.022.012-.045.019-.07.021-.174.022-.405-.489-.553-1.251.241.013.484.004.723-.029.347-.043.937-.15,1.554-.289.385-.083.618-.158.699-.223.052-.041.112-.07.176-.084.133-.017.358.122.618.369.137.117.247.261.323.424.01.082-.022.158-.129.297-.372.789-.682,1.607-.926,2.445.721.026,1.434.146,2.124.357.009-.359-.005-.718-.041-1.076-.021-.154-.051-.306-.089-.457.448.006.826.031,1.132.066.191.028.258.072.268.153.006.095-.01.189-.048.276-.073.25-.107.51-.101.771-.003.218-.017.366-.041.67.445.195.875.427,1.283.691.051.033.087.084.101.143.035.287-.32,1.007-.505,1.031-.051.006-.11-.017-.196-.069-.307-.211-.681-.455-.91-.581-.205.689-.567,1.322-1.057,1.848-.353.41-.797.732-1.295.943-.092.006-.183-.019-.258-.072-.067-.065-.131-.133-.191-.205-.149-.192-.356-.33-.59-.394.587-.247,1.116-.615,1.552-1.08.391-.441.674-.968.825-1.539-.728-.288-1.5-.447-2.282-.469Zm-2.608,1.575c.031.246.141.388.306.367.226-.028.562-.58,1.067-1.766-.959.224-1.46.735-1.373,1.399h0Z" fill="none"/><path d="m52.204,42.471c.033.039.053.087.059.138.009.071,0,.084-.064.32-.168.6-.286,1.213-.352,1.832-.017.116-.04.182-.078.207-.164.059-.332.105-.503.136l-.04.005c-.051.006-.124.005-.204.015-.133.017-.167-.011-.223-.128-.36-.977-.606-1.992-.734-3.026-.144-1.128-.166-2.269-.063-3.402.036-.566.045-.879.044-1.222.389.016.774.079,1.147.188.182.049.238.096.253.197.009.071.002.104-.09.281-.315,1.399-.379,2.843-.191,4.265.03.235.08.552.175,1.059.21-.682.284-.888.456-1.419.117.198.255.383.412.552m2.311.444c.465.139.957.159,1.432.059.57-.058,1.127-.209,1.649-.446.044-.023.091-.039.14-.049.071-.009.127.026.151.127.09.312.161.63.213.95.013.101-.014.137-.149.195-.57.223-1.166.37-1.774.438-.686.142-1.398.091-2.056-.147-.464-.191-.842-.547-1.061-.999-.018-.143.171-.366.682-.772.175.299.45.526.777.641m-1.372-5.129c.466.009.931-.019,1.393-.082.666-.081,1.323-.219,1.965-.414.029-.012.06-.019.091-.021.071-.009.11.017.135.098.068.271.12.545.156.822.019.154-.005.211-.115.244-.6.174-1.214.296-1.835.366-.589.099-1.188.136-1.785.11-.054-.024-.084-.094-.109-.28-.032-.257-.047-.515-.045-.774.005-.042.033-.067.095-.074.018-.003.036-.002.052.004" fill="#fff"/><path d="m52.204,42.471c.033.039.053.087.059.138.009.071,0,.084-.064.32-.168.6-.286,1.213-.352,1.832-.017.116-.04.182-.078.207-.164.059-.332.105-.503.136l-.04.005c-.051.006-.124.005-.204.015-.133.017-.167-.011-.223-.128-.36-.977-.606-1.992-.734-3.026-.144-1.128-.166-2.269-.063-3.402.036-.566.045-.879.044-1.222.389.016.774.079,1.147.188.182.049.238.096.253.197.009.071.002.104-.09.281-.315,1.399-.379,2.843-.191,4.265.03.235.08.552.175,1.059.21-.682.284-.888.456-1.419.116.199.253.385.409.555h0Zm2.311.444c.465.139.957.159,1.432.059.57-.058,1.127-.209,1.649-.446.044-.023.091-.039.14-.049.071-.009.127.026.151.127.09.312.161.63.213.95.013.101-.014.137-.149.195-.57.223-1.166.37-1.774.438-.686.142-1.398.091-2.056-.147-.464-.191-.842-.547-1.061-.999-.018-.143.171-.366.682-.772.173.302.449.532.777.649v-.004h-.004Zm-1.372-5.129c.466.009.931-.019,1.393-.082.666-.081,1.323-.219,1.965-.414.029-.012.06-.019.091-.021.071-.009.11.017.135.098.068.271.12.545.156.822.019.154-.005.211-.115.244-.6.174-1.214.296-1.835.366-.589.099-1.188.136-1.785.11-.054-.024-.084-.094-.109-.28-.032-.257-.047-.515-.045-.774.005-.042.033-.067.095-.074.019-.002.038,0,.056.009v-.004h-.002Z" fill="none"/><path d="m62.856,43.092c.056.447-.26.854-.707.91-.447.056-.854-.26-.911-.707-.056-.447.26-.854.707-.91h0c.443-.059.85.253.908.696,0,.004,0,.007,0,.011m-.549-1.47l-.906.113-1.047-6.095,1.473-.185s.48,6.167.48,6.167Z" fill="#fff"/><path d="m62.856,43.092c.056.447-.26.854-.707.91-.447.056-.854-.26-.911-.707-.056-.447.26-.854.707-.91h0c.443-.059.85.253.908.696,0,.004,0,.007,0,.011h.002Zm-.549-1.47l-.906.113-1.047-6.095,1.473-.185s.48,6.167.48,6.167Z" fill="none"/><path d="m67.008,42.574c.056.447-.26.854-.707.91s-.854-.26-.911-.707c-.056-.447.26-.854.707-.911h0c.443-.059.85.253.909.697,0,.003,0,.007,0,.01m-.549-1.47l-.906.113-1.047-6.095,1.474-.185s.479,6.167.479,6.167Z" fill="#fff"/><path d="m67.008,42.574c.056.447-.26.854-.707.91s-.854-.26-.911-.707c-.056-.447.26-.854.707-.911h0c.443-.059.85.253.909.697,0,.003,0,.007,0,.01h.001Zm-.549-1.47l-.906.113-1.047-6.095,1.474-.185s.479,6.167.479,6.167Z" fill="none"/></g></g></g><path d="m84.534,14.769v10.566h-1.655v-10.566h1.655Z" fill="#231815"/><path d="m92.12,14.769v10.566h-1.655v-10.566h1.655Z" fill="#231815"/><path d="m99.057,22.025c-.11.662-.221,1.104-.386,1.572-.345,1.007-.8,1.779-1.559,2.635-.386-.524-.717-.869-1.228-1.228.745-.745,1.104-1.338,1.42-2.331.386-1.228.524-2.787.524-6.194,0-.965-.014-1.572-.069-2.028.51.056.883.069,1.545.069h5.531c.717,0,1.09-.014,1.517-.069-.042.359-.055.731-.055,1.504v8.566c0,.662-.138,1.035-.469,1.255-.304.207-.662.262-1.559.262-.428,0-.787-.014-1.518-.041-.083-.621-.166-.952-.386-1.476.69.083,1.421.138,1.958.138.387,0,.483-.069.483-.345v-2.29h-5.752Zm5.752-1.352v-1.779h-5.476c-.014.428-.042.883-.11,1.779h5.586Zm0-3.131v-1.641h-5.476v1.641h5.476Z" fill="#231815"/><path d="m112.904,22.162c.041.069.055.124.055.193,0,.097-.014.11-.138.414-.276.635-.607,1.628-.772,2.373-.041.152-.083.234-.138.262-.069.028-.538.097-.69.097h-.055c-.069,0-.166-.014-.276-.014-.179,0-.221-.041-.276-.207-.262-.897-.469-2.745-.469-4.138,0-1.518.097-2.456.482-4.524.138-.745.207-1.159.262-1.614.58.11,1.076.249,1.49.441.234.097.304.166.304.304,0,.097-.014.138-.166.358-.456.731-.966,3.656-.966,5.628,0,.317.014.745.055,1.435.386-.869.524-1.131.842-1.807.124.29.207.428.455.8Zm2.993.979c.441.234.966.317,1.89.317.883,0,1.407-.069,2.262-.317.083-.027.152-.042.193-.042.096,0,.166.055.179.193.069.469.124,1.021.124,1.296,0,.138-.041.18-.234.234-.745.193-1.503.29-2.428.29-1.269,0-2.055-.152-2.704-.538-.607-.373-1.242-1.131-1.242-1.503,0-.193.29-.456,1.035-.911.249.497.483.745.924.979Zm-.966-7.035c.304.069,1.187.125,1.862.125.911,0,1.821-.069,2.676-.221q.069-.014.124-.014c.097,0,.138.042.166.152.027.138.069.745.069,1.118,0,.207-.042.275-.193.303-.565.11-1.504.179-2.497.179-1.186,0-2.248-.069-2.386-.151-.069-.042-.096-.138-.096-.387,0-.372.041-.924.069-1.034.014-.055.055-.083.138-.083.014,0,.042,0,.069.014Z" fill="#231815"/><path d="m125.675,22.425c.042.055.055.097.055.152q0,.083-.234.717c-.29.841-.469,1.531-.524,2.069-.014.18-.069.249-.248.29-.193.055-.565.083-.924.083-.138,0-.207-.028-.248-.11-.125-.262-.345-1.214-.456-1.986-.096-.648-.138-1.324-.138-2.028,0-1.586.179-3.09.676-5.793.083-.441.11-.648.152-1.076.634.083,1.076.207,1.476.4.207.11.29.207.29.331,0,.083-.028.152-.097.262-.565.965-1.089,3.945-1.089,6.152,0,.331.014.855.055,1.518.331-.855.483-1.242.787-1.904.096.373.193.552.469.924Zm2.317-3.628c-.662,0-.8-.027-.841-.179-.042-.124-.083-.565-.083-.883,0-.11,0-.221.014-.469.373.027.593.041,1.048.041.745,0,1.214-.014,1.931-.069-.014-1.752-.028-1.973-.166-2.621.676.014,1.186.069,1.627.179.207.055.29.124.29.262,0,.055-.014.096-.055.207-.138.317-.207.855-.235,1.821.51-.069.952-.166,1.78-.358.069-.028.096-.028.138-.028.083,0,.124.042.152.138.027.124.069.648.069.938,0,.345-.014.4-.152.455-.221.11-.828.207-2,.359,0,.952.083,2.524.179,3.421.869.372,1.462.689,2.069,1.117.386.276.469.372.469.469,0,.152-.248.621-.538,1.021-.165.234-.248.303-.345.303s-.097,0-.414-.303c-.304-.304-.621-.538-1.228-.938v.11c0,1.214-1.007,2.014-2.538,2.014-1.559,0-2.579-.828-2.579-2.069s1.048-2.166,2.441-2.166c.51,0,.772.014,1.145.069q-.055-1.076-.097-2.924c-.593.041-1.531.083-2.083.083Zm1.131,4.056c-.69,0-1.145.317-1.145.8,0,.441.428.717,1.09.717.731,0,1.117-.331,1.117-.965,0-.193-.014-.345-.014-.345-.359-.138-.676-.207-1.048-.207Z" fill="#231815"/><path d="m142.984,20.99c.538-.386.938-.731,1.311-1.145-.497-.979-.772-2.014-.979-3.559h-4.773c-.027,2.221-.138,3.462-.386,4.441-.207.828-.455,1.435-.813,1.986-.387-.441-.69-.689-1.187-.979.759-1.172,1.035-2.51,1.035-5.035,0-.896-.014-1.159-.069-1.669.441.028,1.007.055,1.6.055h4.47q-.028-.262-.042-.565c-.014-.249-.042-.386-.083-.593h1.503c-.027.179-.041.441-.041.772,0,.097,0,.11.014.386h1.518c-.441-.317-.593-.414-.966-.607l.979-.621c.51.262.703.4,1.241.828l-.607.4c.745,0,1.062-.027,1.421-.083v1.352c-.469-.055-.924-.069-1.614-.069h-1.862c.138,1.048.29,1.683.565,2.386.428-.662.717-1.283.896-1.876l1.242.51q-.152.262-.331.635c-.345.689-.745,1.338-1.2,1.958.221.317.386.524.552.69.193.179.428.331.497.331.18,0,.373-.635.455-1.559.387.372.621.552,1.104.827-.331,1.559-.745,2.166-1.462,2.166-.621,0-1.379-.538-2.014-1.421-.593.621-.855.841-1.573,1.352-.386-.441-.428-.482-.69-.676-.179-.014-.29-.014-.538-.014h-2.456c-.317,0-.648.014-.828.042,0-.083.014-.359.028-.841v-1.352c0-.317-.014-.621-.028-.814.262.028.483.042.841.042h2.456c.373,0,.58-.014.841-.042-.014.18-.027.455-.027.8v1.559Zm-4,1.834c-.51,1.586-.772,2.069-1.6,3.021l-1.186-.855c.91-.924,1.117-1.297,1.545-2.731l1.241.565Zm4.235-4.717c-.234-.028-.469-.042-.828-.042h-2.745c-.345,0-.607.014-.828.042v-1.2c.221.028.441.042.828.042h2.745c.386,0,.593-.014.828-.042v1.2Zm-2.441,6.359c0,.29.151.317,1.448.317.828,0,1.448-.042,1.683-.11.29-.097.373-.345.373-1.173.58.262.8.331,1.352.456-.11,1.007-.249,1.42-.593,1.669-.386.29-1.159.4-2.883.4-2.317,0-2.745-.179-2.745-1.145v-1.586c0-.4-.014-.648-.069-.924h1.503c-.055.262-.069.455-.069.772v1.324Zm-.662-3.945h1.683v-.8h-1.683v.8Zm2.814,3.683c-.593-.731-.897-1.007-1.71-1.614l.938-.676c.689.441,1.048.731,1.779,1.435l-1.007.855Zm3.642-1.779c.704.855,1.104,1.476,1.724,2.635l-1.255.676c-.51-1.117-.979-1.904-1.641-2.787l1.172-.524Z" fill="#00a44f"/><path d="m150.707,16.19c.317.042.497.055.966.055h1.945c.524,0,.717-.014,1.007-.055v1.324c-.262-.027-.455-.042-.952-.042h-2c-.497,0-.621,0-.966.042v-1.324Zm3.614,7.711c.938-.676,1.6-1.311,2.345-2.221-.4.069-.497.083-1.49.234-.166.027-.303.055-.524.11l-.193-1.311c.138.014.152.014.179.014.083,0,.125,0,.235-.014v-4.4c0-.455-.014-.855-.055-1.228.303.027.538.042,1.021.042h.069c.221-.538.317-.911.386-1.366l1.352.221c-.262.704-.303.8-.455,1.145h.483c.469,0,.689-.014.979-.042-.042.386-.055.579-.055,1.2v2.828l.234.221.952-.51c.455,1.214.662,1.917.938,3.297l-1.062.524c-.235-1.366-.387-1.958-.635-2.676-.262.497-.276.511-.428.772v4.014c0,1.007-.303,1.269-1.49,1.269-.166,0-.634-.014-.952-.027-.042-.538-.11-.896-.276-1.338.455.069.841.096,1.186.096.29,0,.345-.055.345-.29v-1.311c0-.303,0-.469.027-.703v-.014c-.441.58-.579.745-.883,1.076-.455.469-1.172,1.145-1.724,1.6-.207-.483-.304-.676-.51-1.021v.787c0,.469.014.813.042,1.104h-1.131v-.441h-1.117v.676h-1.172c.055-.428.069-.8.069-1.311v-1.917c0-.427-.014-.689-.042-1.104q.317.028.869.028h1.627q.566,0,.883-.014-.027.441-.027,1.062v.938Zm-3.214-5.766c.221.028.414.042.924.042h1.269c.497,0,.676-.014.952-.042v1.242c-.331-.042-.483-.042-.952-.042h-1.269c-.483,0-.648.014-.924.042v-1.242Zm0,1.862c.262.042.387.042.924.042h1.269c.511,0,.676,0,.952-.042v1.242c-.456-.042-.469-.042-.952-.042h-1.269c-.483,0-.621,0-.924.042v-1.242Zm.014-5.697c.276.041.51.055.91.055h1.324c.428,0,.635-.014.924-.055v1.324c-.304-.028-.483-.042-.924-.042h-1.324c-.427,0-.621.014-.91.042v-1.324Zm.993,10.097h1.117v-1.366h-1.117v1.366Zm5.297-8.166h-1.407v.731h1.407v-.731Zm-1.407,2.441h1.407v-.69h-1.407v.69Zm0,1.945c.593-.083.828-.11,1.407-.207v-.717h-1.407v.924Zm3.835-2.759c-.359,0-.662.014-.979.055v-1.407c.29.041.552.055.993.055h1.021v-.938c0-.704-.028-1.131-.083-1.559h1.49c-.069.441-.083.841-.083,1.559v.938c.331,0,.552-.014.813-.069v1.42c-.317-.042-.372-.042-.813-.055v6.828c0,1.104-.345,1.393-1.669,1.393-.331,0-.565,0-1.076-.027-.069-.593-.138-.855-.317-1.379.524.069.841.097,1.283.097.386,0,.456-.056.456-.373v-6.539h-1.035Z" fill="#00a44f"/><path d="m170.526,21.901c-1.366.8-1.752,1.2-1.752,1.807,0,.249.097.414.304.538.303.179.979.276,1.848.276.745,0,1.779-.069,2.483-.166.29-.042.455-.083,1.007-.221h.069c.097,0,.165.069.206.166.083.29.139.704.139,1.2,0,.207-.069.29-.248.331-.332.069-1.862.152-2.869.152-1.684,0-2.58-.11-3.242-.387-.8-.331-1.2-.952-1.2-1.82,0-.8.373-1.504,1.117-2.097.594-.469.731-.566,2.001-1.283-.111-.455-.317-.648-.745-.648-.565,0-1.159.221-1.807.648-.4.276-.869.662-1.159.952-.414.427-.455.455-.565.455-.138,0-.428-.317-.718-.8-.138-.234-.221-.414-.221-.51,0-.124.028-.152.359-.358,1.131-.759,2.069-1.725,2.634-2.718-.979.069-1.489.083-2.027.083-.207,0-.248-.042-.317-.276-.041-.179-.11-.911-.124-1.283.469.069.745.083,1.407.083.538,0,1.131-.014,1.752-.042.289-.786.386-1.283.399-1.931,1.228.207,1.794.414,1.794.648,0,.055-.015.083-.056.166-.097.179-.207.4-.386.828q-.028.055-.042.097c.786-.11,1.476-.249,1.959-.359.304-.083.372-.097.441-.097.11,0,.165.042.193.125.055.248.138.883.138,1.076,0,.152-.056.221-.234.262-.441.124-1.959.359-3.229.483-.413.759-.703,1.2-1.131,1.669.621-.29,1.09-.4,1.642-.4.621,0,1.034.358,1.311,1.131,1.365-.745,2.097-1.145,2.18-1.2.634-.373.896-.58,1.2-.924.565.579,1.172,1.448,1.172,1.683,0,.083-.055.138-.234.179-.676.18-1.931.718-4.027,1.738.014.248.041.883.041,1.324v.662c0,.166-.027.248-.097.29-.069.069-.441.11-.855.11-.469,0-.552-.042-.552-.262v-.055c.028-.4.042-.924.042-1.255v-.069Z" fill="#00a44f"/><path d="m178.47,18.921c.331.055.552.069,1.062.069h1.09c.399,0,.703-.014,1.007-.055-.042.414-.056.717-.056,1.448v2.759c.193.441.317.565.759.855.621.4,1.324.496,3.587.496,1.917,0,3.628-.096,4.924-.29-.221.635-.304.966-.399,1.573-1.173.055-3.049.097-4.001.097-2.192,0-3.255-.083-3.944-.304-.69-.221-1.159-.579-1.684-1.255-.428.428-.744.704-1.365,1.172-.221.18-.275.221-.387.317q-.138.11-.206.166l-.648-1.517c.606-.249,1.421-.8,1.973-1.297v-2.841h-.814c-.358,0-.552.014-.896.069v-1.462Zm1.255-4.773c.966.828,1.684,1.573,2.318,2.414l-1.09,1.076c-.828-1.117-1.256-1.586-2.276-2.497l1.048-.993Zm4.276,1.627c-.455,0-.772.014-1.104.056v-1.421c.29.055.594.069,1.104.069h1.89c.428,0,.704-.014.979-.055-.027.304-.041.483-.041.717,0,1.283.304,2.635.869,3.834.689,1.449,1.476,2.373,2.924,3.407-.372.455-.606.814-.883,1.394-.966-.731-1.503-1.255-2.11-2.069-.662-.896-1.034-1.697-1.476-3.145-.345,1.407-.718,2.235-1.448,3.242-.497.676-.911,1.09-1.794,1.821-.358-.483-.552-.704-1.034-1.159.8-.58,1.2-.979,1.738-1.697.703-.952,1.2-2.028,1.476-3.159.124-.538.18-.938.248-1.835h-1.338Z" fill="#00a44f"/><path d="m198.758,16.99c.207-1.131.276-1.614.276-2.069,0-.055,0-.138-.014-.234,1.158.166,1.82.427,1.82.731,0,.11-.014.124-.165.4-.11.193-.207.524-.4,1.255.938.166,1.725.579,2.346,1.2.758.759,1.131,1.696,1.131,2.841,0,1.917-1.049,3.407-2.911,4.166-.372.152-1.104.345-1.282.345-.11,0-.18-.055-.276-.193-.221-.359-.552-.718-.951-1.007,1.393-.234,2.055-.483,2.745-1.048.73-.593,1.104-1.365,1.104-2.304,0-1.393-.897-2.524-2.222-2.786-.455,1.435-.951,2.58-1.559,3.628.207.207.331.331.552.538.152.138.207.221.207.317,0,.235-.772.993-.993.993-.11,0-.29-.124-.689-.524-.842,1.007-1.669,1.503-2.497,1.503-1.145,0-1.903-.965-1.903-2.441,0-1.324.552-2.552,1.614-3.586-.193-.497-.221-.621-.524-1.573-.11-.358-.234-.745-.4-1.145.497-.11,1.146-.207,1.477-.207.138,0,.221.042.262.138q.041.069.056.4c.014.29.138.814.345,1.449.896-.51,1.903-.8,2.854-.787Zm-3.476,3.09c-.511.676-.786,1.394-.786,2.042,0,.634.262,1.034.662,1.034.428,0,.827-.29,1.393-.979-.51-.676-.854-1.255-1.269-2.097Zm3.159-1.848c-.759.11-1.353.331-2.056.8.358.717.635,1.186,1.062,1.751.469-.91.744-1.614.993-2.552Z" fill="#00a44f"/><path d="m207.102,17.762c-.358.083-.482.125-.979.304-.18.069-.276.097-.359.097-.303,0-.579-.565-.827-1.752.883-.042,1.2-.083,2.731-.317,1.655-.248,3.752-.565,4.855-.703,1.241-.166,2.234-.331,2.759-.441.097-.028.138-.028.206-.028.18,0,.249.083.373.428.11.29.193.704.193.896,0,.166-.056.221-.249.221-.289,0-.552.028-.813.069-2.331.386-4.193,2.428-4.193,4.58,0,1.614,1.27,2.676,3.421,2.869.193.014.262.083.262.249,0,.345-.138,1.007-.262,1.311-.069.151-.18.221-.358.221-.18,0-.594-.083-1.021-.207-2.345-.69-3.572-2.18-3.572-4.29,0-1.145.373-2.207,1.09-3.117.387-.497.717-.772,1.504-1.311-1.808.303-3.711.662-4.76.924Z" fill="#00a44f"/><path d="m217.625,22.659c.248-.221.317-.276.414-.276.179,0,1.007.607,1.613,1.187.689.634,1.462,1.559,1.462,1.752,0,.124-.027.151-.427.51-.524.483-.635.565-.731.565-.083,0-.166-.055-.234-.193-.483-.855-1.587-1.986-2.565-2.621-.111-.083-.166-.138-.166-.221,0-.097.027-.138.635-.704Z" fill="#231815"/><path d="m229.679,16.148h-3.435l-.11,1.71c-.014.276-.041.593-.083.924.538-.497.979-.69,1.573-.69,1.724,0,2.772,1.324,2.772,3.531,0,2.428-1.173,3.89-3.104,3.89-.855,0-1.601-.303-2.152-.869-.358-.373-.538-.704-.772-1.407l1.531-.593c.124.538.221.759.414,1.021.234.303.579.482.979.482.938,0,1.448-.869,1.448-2.497,0-1.421-.483-2.179-1.38-2.179-.662,0-1.048.358-1.435,1.283l-1.255-.221.331-5.766h4.676v1.379Z" fill="#231815"/><path d="m237.527,23.914c-.455,1.048-1.311,1.6-2.47,1.6-2.11,0-3.048-1.71-3.048-5.559,0-1.586.192-2.883.565-3.724.496-1.131,1.255-1.642,2.469-1.642,1.297,0,2.11.58,2.594,1.862.303.828.469,2.028.469,3.545,0,1.821-.18,3.035-.579,3.917Zm-1.407-.731c.207-.704.304-1.642.304-2.979,0-1.559-.166-2.938-.428-3.545-.207-.469-.511-.689-.938-.689-.469,0-.745.221-.966.759-.248.579-.386,1.752-.386,3.131,0,3.131.358,4.276,1.338,4.276.524,0,.883-.317,1.076-.952Z" fill="#231815"/><path d="m249.789,14.383c.703,0,1.007-.014,1.393-.055-.041.511-.055.8-.055,1.504v8.772c0,1.118-.4,1.38-2.11,1.38-.29,0-.855-.014-1.448-.042-.069-.552-.166-.911-.4-1.449.827.097,1.489.138,1.931.138.552,0,.621-.028.621-.317v-8.649h-7.463v1.504c0,3.448-.165,5.421-.552,6.772-.275.938-.496,1.435-1.021,2.276-.317-.428-.676-.786-1.187-1.173.441-.621.718-1.228.896-1.972.317-1.242.456-3.269.456-6.442,0-1.311-.015-1.697-.069-2.304.428.042.731.055,1.407.055h7.601Zm-4.524,3.504h-1.283c-.441,0-.786.014-1.021.042v-1.255c.331.042.565.055,1.021.055h1.269c0-.455,0-.511-.041-.8h1.477c-.042.262-.042.386-.056.8h1.324c.428,0,.676-.014,1.007-.055v1.255c-.248-.028-.579-.042-1.007-.042h-1.324v.91h1.628c.565,0,.91-.014,1.2-.055v1.311c-.345-.042-.648-.055-1.2-.055h-4.553c-.537,0-.868.014-1.186.055v-1.311c.317.042.565.055,1.2.055h1.545v-.91Zm3.324,5.449c0,.372.014.689.041.869-.317-.014-.62-.027-.993-.027h-3.145v.786h-1.435c.055-.317.068-.607.068-1.048v-2.373c0-.428-.014-.607-.055-.883.482.028.524.028.979.028h3.559c.593,0,.689,0,1.021-.028-.027.249-.041.483-.041.924v1.752Zm-4.11-.359h2.758v-1.131h-2.758v1.131Z" fill="#231815"/><path d="m256.187,19.1c0-.276-.014-.497-.042-.772.263.027.552.042.925.042h2.91v-1.725h-2.786c-.676,1.048-1.338,1.849-2.193,2.607-.372-.566-.524-.745-.966-1.187,1.353-1.145,2.028-2.014,2.58-3.311.179-.428.275-.717.317-.966l1.572.317c-.042.083-.234.497-.58,1.228h6.194c.647,0,.965-.014,1.365-.069v1.449c-.414-.056-.772-.069-1.365-.069h-2.677v1.725h2.111c.62,0,.965-.014,1.365-.056v1.394c-.358-.042-.759-.055-1.324-.055h-2.152v2.166h3.049c.635,0,1.034-.027,1.462-.083v1.504c-.413-.055-.883-.083-1.462-.083h-3.049v1.642c0,.676.014,1.048.083,1.421h-1.628c.056-.386.083-.731.083-1.435v-1.628h-4.455c-.579,0-1.021.028-1.448.083v-1.504c.428.056.827.083,1.448.083h.662v-2.717Zm3.793,2.717v-2.166h-2.4v2.166h2.4Z" fill="#231815"/><path d="m273.785,21.901c-1.365.8-1.752,1.2-1.752,1.807,0,.249.097.414.304.538.304.179.979.276,1.849.276.745,0,1.779-.069,2.482-.166.29-.042.455-.083,1.008-.221h.068c.097,0,.166.069.207.166.083.29.138.704.138,1.2,0,.207-.068.29-.248.331-.331.069-1.862.152-2.869.152-1.683,0-2.579-.11-3.241-.387-.801-.331-1.2-.952-1.2-1.82,0-.8.372-1.504,1.117-2.097.593-.469.731-.566,2-1.283-.11-.455-.317-.648-.745-.648-.565,0-1.158.221-1.807.648-.4.276-.869.662-1.159.952-.413.427-.455.455-.565.455-.138,0-.428-.317-.717-.8-.139-.234-.221-.414-.221-.51,0-.124.027-.152.358-.358,1.131-.759,2.069-1.725,2.635-2.718-.979.069-1.49.083-2.028.083-.206,0-.248-.042-.316-.276-.042-.179-.11-.911-.125-1.283.47.069.745.083,1.407.083.538,0,1.132-.014,1.752-.042.29-.786.387-1.283.4-1.931,1.228.207,1.793.414,1.793.648,0,.055-.014.083-.056.166-.096.179-.206.4-.386.828q-.027.055-.041.097c.786-.11,1.476-.249,1.958-.359.304-.083.373-.097.441-.097.11,0,.166.042.193.125.056.248.138.883.138,1.076,0,.152-.055.221-.234.262-.441.124-1.958.359-3.228.483-.414.759-.703,1.2-1.131,1.669.62-.29,1.09-.4,1.642-.4.62,0,1.034.358,1.31,1.131,1.366-.745,2.098-1.145,2.18-1.2.635-.373.896-.58,1.2-.924.565.579,1.173,1.448,1.173,1.683,0,.083-.056.138-.234.179-.676.18-1.932.718-4.028,1.738.014.248.042.883.042,1.324v.662c0,.166-.028.248-.097.29-.069.069-.441.11-.855.11-.469,0-.552-.042-.552-.262v-.055c.027-.4.041-.924.041-1.255v-.069Z" fill="#231815"/><path d="m281.729,16.162c.304.055.565.069,1.062.069h3.269c.538,0,.786-.014,1.062-.055v1.352c-.29-.027-.455-.041-1.007-.041h-3.324c-.455,0-.772.014-1.062.055v-1.379Zm.455-1.849c.359.042.565.055,1.104.055h2.263c.538,0,.745-.014,1.104-.055v1.297c-.373-.028-.635-.042-1.104-.042h-2.263c-.469,0-.772.014-1.104.042v-1.297Zm.027,11.918c.042-.414.069-.828.069-1.283v-1.973c0-.428-.014-.704-.055-1.048.317.027.538.042,1.021.042h2.593c.524,0,.648,0,.883-.042-.014.262-.027.469-.027.966v2.234c0,.304.014.689.042.924h-1.339v-.524h-1.793v.704h-1.394Zm.015-8.056c.275.027.441.042.868.042h2.745c.428,0,.594-.014.842-.042v1.241c-.317-.041-.441-.041-.842-.041h-2.745c-.427,0-.62.014-.868.041v-1.241Zm0,1.862c.275.027.441.041.868.041h2.731c.441,0,.607-.014.855-.041v1.241c-.276-.027-.441-.041-.869-.041h-2.731c-.386,0-.62.014-.854.041v-1.241Zm1.352,4.317h1.82v-1.255h-1.82v1.255Zm5.38-.304c0,.249.068.331.303.387.249.055.635.083,1.159.083,1.048,0,1.448-.069,1.669-.262.193-.193.275-.828.304-2.166.496.249,1.007.414,1.462.497-.097,1.545-.262,2.207-.621,2.69-.331.455-1.034.607-2.841.607-2.428,0-2.897-.221-2.897-1.338v-4.663c0-.648-.014-.883-.055-1.311.386.042.772.055,1.324.055h2.966v-2.814h-3.049c-.579,0-.993.028-1.379.069v-1.503c.413.055.827.083,1.393.083h3.187c.594,0,.979-.014,1.365-.055-.041.497-.055.703-.055,1.338v2.938c0,.552.014.897.055,1.311-.441-.042-.73-.055-1.324-.055h-2.965v4.11Z" fill="#231815"/><path d="m299.672,17.252c-1.048.676-1.861,1.076-3.062,1.531-.18-.621-.276-.883-.565-1.407,1.352-.441,2.372-.924,3.352-1.601.855-.579,1.49-1.158,1.973-1.793h1.572c.579.704,1.228,1.228,2.193,1.807,1.049.648,2.138,1.131,3.365,1.517-.345.69-.386.814-.565,1.476-1.158-.469-2.165-.965-3.104-1.531v.745c-.317-.028-.676-.042-1.075-.042h-2.994c-.413,0-.689.014-1.09.042v-.745Zm-3.627,7.739c.813-1.021,1.186-1.752,1.545-3.09l1.282.51c-.524,1.751-.8,2.345-1.572,3.517l-1.255-.938Zm1.448-6.318c.317.042.565.055,1.021.055h6.097c.565,0,.869-.014,1.159-.055l.896.924c-.193.166-.248.221-.482.441l-1.477,1.503c-.4.414-.455.483-.73.828l-1.173-.91c.331-.221.606-.441.827-.662l.828-.828h-5.559c-.718,0-1.049.014-1.407.069v-1.366Zm3.269,5.6c0,.456.18.511,1.628.511,1.917,0,1.959-.028,1.986-1.573.552.193.772.249,1.338.304-.124,1.476-.221,1.807-.606,2.138-.221.193-.469.275-1.007.345-.359.027-1.187.069-1.794.069-1.214,0-1.931-.055-2.262-.179-.538-.18-.689-.455-.689-1.187v-1.586c0-.552-.014-.814-.069-1.173h1.545c-.056.304-.069.455-.069.869v1.462Zm2.979-7.504h.331c-.676-.455-1.311-1.007-1.903-1.655-.593.676-1.117,1.159-1.779,1.655h3.352Zm-.896,7.077c-.8-1.048-1.241-1.476-2.193-2.221l1.007-.703c.966.745,1.394,1.145,2.249,2.083l-1.062.841Zm4.263,1.972c-.621-1.476-.938-2.069-1.849-3.338l1.173-.635c.813,1.09,1.255,1.793,1.944,3.076l-1.269.896Z" fill="#231815"/><path d="m313.851,14.59c.345.097.441.166.441.317,0,.096-.014.138-.083.331-.151.4-.262,1.104-.317,2.069-.11,2.221-.165,3.945-.165,5.311,0,.441.041.772.11.993.151.456.634.69,1.407.69,1.241,0,2.413-.51,3.489-1.517.497-.469.8-.842,1.311-1.601.083.441.193.731.497,1.352.041.11.068.193.068.317,0,.248-.262.579-.951,1.2-1.366,1.228-2.884,1.862-4.47,1.862-1.048,0-1.821-.262-2.317-.759-.524-.552-.731-1.269-.731-2.634,0-1.076.015-1.904.124-5.118.015-.483.028-.772.028-.896,0-1.173-.014-1.518-.097-2.11.703.027,1.241.083,1.655.193Z" fill="#231815"/><path d="m322.979,18.411h-.083c-.068.014-.124.014-.151.014-.124,0-.193-.055-.234-.234-.083-.345-.138-.772-.166-1.296.193.014.345.014.441.014.745,0,1.614-.055,2.345-.152.139-.91.207-1.614.207-2.179v-.317c1.601.207,1.904.303,1.891.552,0,.069-.028.11-.083.234-.166.317-.18.359-.4,1.449.538-.097,1.228-.276,1.504-.373.055-.028.068-.028.11-.028.124,0,.151.055.262.538.056.276.11.662.11.772,0,.097-.041.152-.165.179q-.249.083-2.139.414c-.635,2.8-1.297,4.869-2.358,7.352-.069.179-.138.248-.221.248-.18,0-.662-.193-1.131-.455-.235-.124-.304-.193-.304-.262,0-.056.041-.152.11-.29,1.048-1.986,1.807-4.097,2.331-6.373-.607.083-1.034.124-1.876.193Zm5.89,5.242c.4.262.979.386,1.794.386.896,0,1.669-.083,2.11-.221.11-.027.138-.041.193-.041.124,0,.179.041.221.165.096.29.165.855.165,1.283,0,.179-.056.248-.234.29-.455.097-1.228.152-2.042.152-1.724,0-2.689-.276-3.324-.938-.234-.249-.428-.566-.538-.911-.082-.193-.138-.428-.138-.51,0-.234.414-.483,1.131-.717.152.579.317.828.662,1.062Zm3.877-4.014c-.276-.041-.855-.069-1.339-.069-1.021,0-1.448.042-2.662.249-.027.014-.068.014-.097.014-.082,0-.124-.027-.151-.11-.041-.097-.097-.772-.097-1.062,0-.179.027-.262.138-.304.056-.027.139-.042.428-.096.938-.166,1.725-.235,2.69-.235.8,0,1.214.028,1.311.097.068.055.082.166.082.621,0,.4-.027.759-.055.842-.014.041-.069.069-.139.069-.027,0-.068,0-.109-.014Z" fill="#231815"/><path d="m81.624,35.942c0-.4-.014-.58-.055-1.228.221.028.497.042.965.042h1.945c.538,0,.813-.014.965-.069l.759.938c-.083.151-.138.289-.4,1.007-.29.745-.593,1.421-1.035,2.262.869,1.173,1.159,1.945,1.159,3.104,0,.8-.317,1.296-.938,1.503-.331.11-.662.138-1.462.138-.027-.634-.083-.938-.276-1.393.193.041.428.055.58.055.51,0,.689-.151.689-.579,0-.455-.097-.924-.29-1.352-.193-.441-.4-.745-.924-1.353.58-1.131.731-1.503,1.228-2.979h-1.531v8.993c0,.552.014,1.048.055,1.518h-1.518c.055-.4.083-.911.083-1.518v-9.09Zm6.069,4.8v3.793c1.352-.303,1.49-.33,2.193-.565l.027,1.339c-.979.303-1.366.399-2.593.689-.552.138-.607.151-1.324.303q-.303.069-.428.111c-.276.055-.4.096-.538.151l-.276-1.504c.276,0,.745-.068,1.573-.221v-8.621c0-.62-.014-.91-.055-1.421.262.056.565.069,1.269.069h3.78c.662,0,.869-.014,1.241-.056-.027.29-.042.607-.042,1.463v3.076c0,.744,0,.992.042,1.42q-.276-.014-.358-.014l1.062.91c-.055.028-.262.193-.373.276-.373.345-1.228.993-1.779,1.38.662.813,1.407,1.379,2.441,1.89-.345.386-.565.73-.841,1.338-1.269-.8-2.097-1.559-2.773-2.565-.621-.938-.965-1.78-1.31-3.242h-.938Zm0-3.531h3.476v-1.076h-3.476v1.076Zm0,2.331h3.476v-1.158h-3.476v1.158Zm2.221,1.2c.152.662.262.979.51,1.504.787-.565,1.476-1.159,1.724-1.49-.193-.014-.427-.014-.648-.014h-1.586Z" fill="#00a44f"/><path d="m101.085,39.487h-1.945c-.58,0-.966.014-1.352.068v-1.421c.359.056.731.069,1.352.069h5.062c.635,0,.993-.014,1.352-.069v1.421c-.359-.055-.759-.068-1.352-.068h-1.724v1.669h2.483c.607,0,.952-.014,1.311-.069v1.407c-.386-.055-.731-.069-1.311-.069h-2.483v2.29c.662.083,1.366.124,2.166.124.759,0,1.655-.041,3.021-.151-.221.538-.317.883-.386,1.504-1.062.027-1.807.041-2.828.041-3.104,0-4.842-.676-5.917-2.29-.441.952-.938,1.655-1.807,2.594-.359-.483-.538-.648-1.145-1.09,1.076-.966,1.862-2.249,2.276-3.738.138-.524.262-1.131.262-1.421l1.476.275c-.055.207-.069.249-.193.787-.056.275-.11.455-.331,1.186.538.938,1.076,1.435,2.014,1.835v-4.883Zm-.221-4.263c0-.331-.014-.552-.069-.841h1.614c-.055.29-.069.483-.069.828v.496h3.573c.538,0,1.007-.014,1.462-.055-.042.317-.055.607-.055.979v1.034c0,.4.014.704.055,1.049h-1.435v-1.669h-8.539v1.669h-1.462c.042-.317.055-.607.055-1.049v-1.034c0-.345-.014-.689-.055-.979.455.041.924.055,1.476.055h3.448v-.482Z" fill="#00a44f"/><path d="m114.477,35.735c1.145,0,2.014-.014,3.71-.056.607-.027.814-.041,1.007-.097.138-.041.179-.041.234-.041.262,0,.51.207.91.745.345.455.483.73.483.938,0,.152-.069.248-.221.345-.221.139-.262.18-.538.552-.497.69-1.104,1.338-1.986,2.152-.358.331-.483.414-.621.414-.097,0-.166-.028-.234-.11-.331-.387-.635-.621-1.131-.883,1.062-.648,1.78-1.339,2.621-2.538q-7.104.055-7.918.192c-.11.028-.152.028-.179.028-.207,0-.331-.125-.4-.4-.097-.372-.152-.813-.179-1.407.689.124,1.862.166,4.441.166Zm1.117,2.635c.276.068.386.151.386.289q0,.056-.083.234c-.069.18-.138.483-.207.952-.276,1.876-.704,3.117-1.421,4.124-.579.801-1.49,1.587-2.29,1.973-.097.056-.207.083-.262.083-.124,0-.207-.041-.304-.166-.275-.33-.606-.579-1.076-.854.786-.373,1.228-.648,1.71-1.062,1.324-1.145,1.986-2.827,1.986-5.049,0-.317,0-.51-.027-.759.662.042,1.131.111,1.586.235Z" fill="#00a44f"/><path d="m128.379,41.638c0,1.738.028,3.021.083,3.959v.097c0,.151-.042.207-.18.221-.179.041-.758.069-1.214.069-.427,0-.469-.028-.469-.263v-.068c.055-.704.083-2.276.083-4.015v-1.82c-.938.606-1.394.883-2.193,1.297-.993.523-1.476.73-1.655.73-.11,0-.193-.041-.29-.151-.4-.455-.621-.635-1.158-1.007,1.766-.648,2.772-1.132,4-1.904,1.518-.951,3.104-2.275,4-3.338.193-.221.276-.345.456-.648.869.58,1.49,1.159,1.49,1.421,0,.083-.055.151-.221.221-.249.11-.345.18-.993.745-.607.538-1.2,1.021-1.738,1.421v3.034Z" fill="#00a44f"/><path d="m134.24,40.12c-.152.015-.249.015-.303.015-.056,0-.097,0-.125.014h-.124c-.138,0-.234-.069-.262-.234-.069-.331-.11-.786-.11-1.421.607.068.731.068,2.125.097,1.807.027,2.896.041,3.269.041,2.304,0,4.993-.041,5.421-.083h.124c.193,0,.193.014.193.925,0,.606-.027.676-.221.676h-.097c-.634-.028-.896-.028-4.138-.069-.055,1.049-.11,1.49-.29,2.124-.428,1.56-1.241,2.648-2.621,3.504-.386.248-.689.387-.813.387-.069,0-.124-.028-.234-.139-.497-.496-.662-.634-1.159-.883,2.442-1.145,3.338-2.455,3.421-5.007-2.234.014-2.993.027-4.055.055Zm4.814-4.662c1.324,0,2.772-.041,3.352-.11h.069c.193,0,.234.097.234.524v.29c0,.082,0,.221-.014.386,0,.373-.027.414-.29.414h-.166c-.373-.014-2.896-.056-3.518-.056-1.655,0-2.855.028-3.297.083-.041.014-.083.014-.11.014-.138,0-.207-.055-.234-.179-.055-.29-.11-.952-.11-1.49.593.069,2.387.124,4.083.124Z" fill="#00a44f"/><path d="m149.991,43.431c1.642-.138,3.007-.289,3.821-.427-.538-.952-1.034-1.711-1.531-2.29-.055-.069-.083-.124-.083-.193,0-.124.152-.234.69-.552.248-.138.345-.165.482-.165.11,0,.18.027.262.11.717.73,1.559,1.972,2.249,3.324.373.745.689,1.531.689,1.71,0,.124-.138.248-.455.414-.414.207-.813.358-.952.358-.124,0-.207-.083-.276-.275-.097-.331-.262-.731-.441-1.146-1.159.207-2.014.346-2.58.428-1.917.276-2.428.345-4.828.58-.469.055-.704.096-1.007.221-.056.014-.097.027-.152.027-.11,0-.193-.056-.262-.193-.221-.414-.358-.91-.455-1.6q.345.014.372.014.29,0,1.324-.069.097-.221.29-.648c.731-1.586,1.683-4.441,2.179-6.483.166-.634.221-.979.249-1.435.662.11,1.214.249,1.669.4.29.097.414.18.414.304,0,.068-.028.11-.18.289-.069.097-.221.4-.303.635-.055.124-.193.565-.731,2.263-.414,1.241-1.214,3.311-1.766,4.524.524-.056,1.048-.097,1.31-.125Z" fill="#00a44f"/><path d="m167.286,36.521c1.863,0,3.035,1.117,3.035,2.91,0,1.779-1.297,2.842-3.448,2.842-.469,0-.952-.055-1.131-.124-.11-.042-.166-.11-.193-.234-.097-.455-.276-.896-.607-1.448.855.207,1.379.289,1.958.289,1.117,0,1.779-.51,1.779-1.393,0-.346-.097-.69-.234-.883-.248-.346-.786-.566-1.407-.566-.787,0-1.876.346-4.152,1.324q.869,2.166,1.352,3.49c.579,1.559,1.062,2.966,1.062,3.09,0,.11-.083.18-.358.304-.4.179-.911.345-1.09.345-.138,0-.152-.027-.29-.538-.635-2.317-1.2-4-2.042-6.056-1.048.483-1.545.759-1.834,1.035-.083.068-.166.11-.262.11-.179,0-.345-.139-.607-.511-.276-.387-.386-.593-.621-1.034.883-.249,1.449-.441,2.745-.979-.717-1.642-.813-1.835-1.352-2.524.883-.345,1.379-.497,1.696-.497.29,0,.359.083.4.455.041.387.069.524.234.911.014.027.138.317.428,1.062,1.214-.496,1.642-.662,2.552-.951-.055-.027-.069-.042-.11-.097-.469-.607-.759-.91-1.366-1.421-.027-.055-.042-.083-.042-.124q0-.083.469-.497c.179-.165.455-.331.538-.331.069,0,.138.027.221.083.841.635,1.42,1.214,1.42,1.448,0,.11-.414.565-.745.814.759-.207,1.421-.304,2-.304Z" fill="#231815"/><path d="m173.821,38.314c-.124.718-.248,1.27-.482,1.945-.387-.276-.69-.428-1.146-.58.4-1.075.662-2.634.662-3.944,0-.097,0-.18-.014-.331l1.297.151c-.055.234-.055.263-.083.689,0,0-.041.331-.068.731h.606v-1.559c0-.414-.027-.731-.083-1.09h1.56c-.056.345-.083.662-.083,1.09v1.559h.11c.482,0,.772-.014,1.062-.069v1.38c.441.041.731.055,1.214.055h1.504v-1.296h-1.104c-.538,0-.979.027-1.365.068v-1.448c.428.069.758.083,1.365.083h1.104v-.414c0-.372-.027-.676-.069-.993h1.531c-.041.29-.068.579-.068.979v.428h1.448c.606,0,.951-.014,1.379-.083v1.448c-.386-.041-.841-.068-1.379-.068h-1.448v1.296h1.793c.676,0,1.145-.027,1.489-.082v1.435c-.399-.042-.883-.069-1.379-.069h-.083v1.104h.124c.621,0,.979-.014,1.297-.069v1.463c-.4-.056-.772-.083-1.297-.083h-.124v3.173c0,.979-.428,1.241-1.959,1.241-.221,0-.759-.014-1.131-.027-.041-.607-.138-1.021-.345-1.449.731.097,1.187.139,1.559.139.414,0,.497-.069.497-.414v-2.662h-3.477c-.538,0-.855.014-1.282.083v-.607c-.332.151-.677.304-.966.414v3.159c0,.565.027,1.075.083,1.53h-1.56c.042-.303.083-.924.083-1.53v-2.635q-.482.179-.883.316c-.703.249-.869.317-1.007.387l-.331-1.504c.469-.068.979-.207,2.221-.606v-2.731h-.772Zm2.166,2.248c.482-.179.662-.248,1.158-.455v.58c.331.027.704.041,1.27.041h3.297v-1.104h-3.339c-.689,0-1.09.014-1.489.069v-1.353c-.29-.027-.441-.027-.676-.027h-.221v2.248Zm2.635,1.545c.662.607,1.172,1.2,1.737,2.028l-1.158.869c-.524-.883-.91-1.38-1.683-2.18l1.104-.718Z" fill="#00a44f"/><path d="m191.972,44.204c-.841.73-1.282,1.048-2.027,1.476-.718.399-1.2.606-2.166.924-.345-.676-.523-.91-.979-1.338.994-.234,1.463-.386,2.152-.717.703-.345,1.117-.607,1.876-1.242l1.145.897Zm-.979-8.594c0-.635-.014-.883-.082-1.2h1.489c-.068.345-.083.565-.083,1.228v.331h1.545v-.331c0-.689-.014-.924-.068-1.228h1.476c-.068.386-.083.62-.083,1.214v.345h1.711c.662,0,1.049-.014,1.311-.042-.041.276-.056.635-.056,1.132v4.842c.483-.015.718-.028,1.049-.083v1.518c-.414-.056-.91-.083-1.559-.083h-9.118c-.648,0-1.145.027-1.559.083v-1.518c.331.055.552.068,1.049.083v-4.855c0-.47-.015-.786-.056-1.118.345.028.718.042,1.283.042h1.751v-.358Zm0,1.669h-1.545v1.586h1.545v-1.586Zm0,2.855h-1.545v1.766h1.545v-1.766Zm2.869-1.27v-1.586h-1.545v1.586h1.545Zm0,3.035v-1.766h-1.545v1.766h1.545Zm1.104,1.421c.759.579,1.146.813,1.835,1.145.8.386,1.338.565,2.4.8-.414.524-.497.662-.855,1.407-1.034-.304-1.586-.538-2.4-.993-.73-.4-1.172-.718-2.041-1.448l1.062-.91Zm1.752-4.456v-1.586h-1.531v1.586h1.531Zm0,3.035v-1.766h-1.531v1.766h1.531Z" fill="#00a44f"/><path d="m203.847,37.818c0-1.531-.055-2.332-.165-2.773.676.042,1.09.083,1.421.125.427.055.51.096.51.275,0,.056-.014.097-.041.193-.11.262-.124.441-.151,2.18.345,0,1.365,0,3.075-.014,0-1.573-.041-2.193-.151-2.855.745.041,1.158.082,1.559.151.29.041.373.097.373.234,0,.083-.015.124-.097.345-.042.097-.083.524-.097.966v1.145c1.406-.027,1.917-.041,2.331-.082.041-.015.097-.015.124-.015.083,0,.138.028.166.069.041.083.068.414.068.869,0,.621-.027.703-.221.703q-.068,0-.345-.027-.441-.041-2.151-.041c-.083,2.069-.359,3.173-1.049,4.276-.593.951-1.365,1.654-2.428,2.248-.372.207-.869.4-1.007.4-.124,0-.138-.015-.428-.317-.304-.331-.497-.47-.924-.731,1.986-.717,3.021-1.531,3.655-2.869.386-.828.552-1.642.606-3.021h-.883c-.124,0-.51,0-1.09.014-.248.014-.634.014-1.117.027q0,.979.028,2.221v.166c0,.206-.042.275-.193.331-.166.041-.594.082-.952.082-.455,0-.524-.041-.524-.289v-.207c.056-1.256.069-1.477.083-2.276-.717.014-1.944.083-2.317.138-.027.015-.055.015-.083.015-.11,0-.179-.042-.206-.166-.069-.248-.139-.896-.166-1.586.703.083,1.104.097,2.248.097h.538Z" fill="#00a44f"/><path d="m219.694,39.652c2.524,0,3.973-.027,5.365-.124h.18c.414,0,.414.014.414,1.117,0,.565-.042.662-.276.662h-.055c-.91-.041-1.421-.041-5.407-.041-1.462,0-2.193.014-3.463.055h-.399c-.441,0-.511.015-.772.056-.069,0-.124.014-.152.014-.151,0-.248-.069-.275-.193-.083-.345-.138-1.048-.138-1.683,1.117.11,2.097.138,4.979.138Z" fill="#00a44f"/><path d="m230.947,43.363c.221.331.828.455,2.152.455,1.297,0,1.959-.055,3.89-.317.042-.014.083-.014.124-.014.139,0,.207.069.234.221.042.221.11.91.11,1.145,0,.207-.068.304-.262.359-.428.097-2.358.206-3.932.206-1.6,0-2.413-.109-3.062-.413-.483-.234-.801-.621-.911-1.104-.068-.331-.097-.635-.097-1.187v-.538c.028-1.448.028-1.628.028-2.579,0-2.387-.042-3.256-.166-3.904,1.697.139,2.069.221,2.069.483,0,.068-.014.097-.083.248-.041.097-.083.276-.124.552-.055.414-.068.731-.068,1.462-.015.538-.015.911-.015,1.117,2.387-.703,4.332-1.669,5.132-2.552.676.842,1.076,1.477,1.076,1.669,0,.124-.056.166-.331.263-.193.068-.552.221-1.09.496-1.697.814-2.911,1.256-4.801,1.766,0,1.725.014,1.986.124,2.166Zm6.208-5.932c-.29-.552-.58-.924-1.021-1.393q-.082-.097-.082-.139c0-.082.068-.165.317-.345.206-.151.316-.207.386-.207.11,0,.262.124.593.483.441.51.759.938.759,1.062,0,.138-.62.648-.8.648-.069,0-.097-.027-.151-.11Zm1.572-.842c-.056,0-.083-.027-.138-.124-.373-.593-.607-.91-1.035-1.352-.055-.055-.068-.069-.068-.11,0-.11.537-.524.676-.524.124,0,.289.138.593.469.4.428.745.91.745,1.034,0,.138-.594.606-.772.606Z" fill="#00a44f"/><path d="m250.133,43.045c.883.8,1.421,1.38,1.421,1.531,0,.124-.18.345-.606.759-.317.303-.456.399-.553.399-.055,0-.124-.027-.206-.097q-.152-.179-.786-.896c-.759-.854-1.794-1.766-2.994-2.62-.91.951-2.138,1.986-3.131,2.662-.786.538-1.531.951-1.696.951-.139,0-.152-.014-.483-.386-.193-.221-.51-.497-.855-.745,1.587-.731,2.76-1.518,4.069-2.718,1.421-1.296,2.359-2.496,3.463-4.399q-4.663.027-5.421.11c-.166.014-.193.014-.221.014-.152,0-.234-.069-.263-.221-.068-.441-.097-.855-.097-1.587.938.124,2.4.18,4.4.18.814,0,1.669-.027,2.125-.083.179-.014.206-.027.496-.124.055-.027.083-.027.166-.027.234,0,.482.193.813.635.262.372.414.662.414.813,0,.166-.042.221-.4.552-.221.221-.317.331-.745,1.034-.414.69-1.048,1.559-1.572,2.193,1.076.718,1.807,1.27,2.662,2.069Z" fill="#00a44f"/><path d="m254.214,43.059c.248-.221.317-.275.413-.275.18,0,1.008.606,1.614,1.186.689.635,1.462,1.56,1.462,1.752,0,.124-.027.152-.428.511-.523.482-.634.565-.73.565-.083,0-.166-.056-.234-.193-.483-.854-1.587-1.986-2.566-2.62-.109-.083-.165-.139-.165-.221,0-.097.027-.139.635-.704Z" fill="#231815"/><path d="m268.173,41.638c0,1.738.027,3.021.082,3.959v.097c0,.151-.041.207-.179.221-.18.041-.759.069-1.214.069-.428,0-.47-.028-.47-.263v-.068c.056-.704.083-2.276.083-4.015v-1.82c-.938.606-1.393.883-2.193,1.297-.993.523-1.476.73-1.655.73-.11,0-.192-.041-.289-.151-.4-.455-.621-.635-1.159-1.007,1.766-.648,2.772-1.132,4.001-1.904,1.517-.951,3.104-2.275,4-3.338.193-.221.275-.345.455-.648.869.58,1.489,1.159,1.489,1.421,0,.083-.055.151-.221.221-.248.11-.345.18-.993.745-.606.538-1.199,1.021-1.737,1.421v3.034Z" fill="#00a44f"/><path d="m274.806,38.672c.689-.772.8-.896,1.062-1.062.289-.18.51-.248.868-.248.4,0,.648.082.966.303q.234.152,1.104,1.035c.896.924,2.152,2.041,3.159,2.827.676.538,1.076.814,2.014,1.407.138.083.193.151.193.234,0,.097-.11.345-.387.8-.316.552-.482.745-.648.745-.068,0-.138-.027-.221-.083-1.724-1.228-3.365-2.689-5.228-4.648-.689-.73-.731-.772-.966-.772-.151,0-.248.056-.399.207-.124.138-.993,1.256-1.435,1.835-.345.455-.359.482-.662.827-.207.221-.263.29-.331.414-.097.166-.166.221-.263.221-.151,0-.428-.207-.758-.579-.221-.249-.346-.414-.662-.883.647-.414,1.158-.925,2.593-2.58Zm6.097.056c-.275-.511-.593-.952-1.021-1.394-.069-.068-.083-.097-.083-.124,0-.083.083-.18.317-.345.221-.151.304-.207.387-.207.124,0,.248.097.593.483.441.496.759.924.759,1.034,0,.083-.042.138-.207.275-.304.263-.497.387-.606.387-.056,0-.097-.027-.139-.11Zm1.945-1.035c-.097.056-.221.139-.262.166q-.015,0-.056.014c-.027,0-.041.014-.056.014-.041,0-.082-.041-.138-.124-.372-.606-.676-1.007-1.034-1.352-.014-.014-.041-.056-.083-.11,0-.027.11-.138.221-.221.221-.152.441-.276.469-.276q.166.028.317.166c.414.372,1.035,1.173,1.035,1.324,0,.069-.139.207-.414.399Z" fill="#00a44f"/><path d="m296.584,38.521c.069.138.097.234.097.317,0,.138-.055.234-.234.482-.759.993-1.572,1.794-2.8,2.745-1.38,1.076-2.553,1.793-4.207,2.58-1.062.496-1.118.523-1.283.676-.11.11-.166.138-.248.138-.125,0-.234-.11-.441-.414-.276-.414-.538-.979-.69-1.462,1.394-.317,3.062-1.062,4.677-2.083,2.124-1.338,3.462-2.662,4.496-4.47.152.511.276.787.635,1.49Zm-9.187-2.317c.234-.262.331-.331.455-.331.263.014,1.297.676,2.152,1.365.523.428.689.607.689.745,0,.097-.248.469-.579.842-.304.345-.455.469-.566.469q-.096,0-.662-.538c-.358-.345-1.075-.924-1.434-1.145q-.483-.317-.58-.373c-.055-.041-.082-.082-.082-.124,0-.124.262-.51.606-.91Z" fill="#00a44f"/><path d="m302.169,41.859c0,.842.042,3.09.069,3.738v.069c0,.124-.027.221-.097.262-.097.083-.648.151-1.159.151-.441,0-.523-.041-.523-.316v-.056c.027-.358.068-4.331.068-5.973,0-3.173-.027-4.069-.151-4.869.993.069,1.435.11,1.835.193.138.041.206.11.206.221q0,.068-.055.303c-.056.166-.083.359-.097.58,0,.027-.027.854-.069,2.482q.979.276,1.545.483c1.38.482,2.166.841,3.394,1.489.11.083.166.151.166.234,0,.138-.249.8-.47,1.214-.11.234-.179.304-.262.304-.056,0-.124-.027-.221-.097-1.352-.896-2.772-1.559-4.18-1.973v1.559Z" fill="#00a44f"/><path d="m310.939,39.804c-.109.027-.165.055-.248.096-.068.042-.11.056-.165.056-.304,0-.524-.524-.69-1.545h.263c.579,0,2.056-.18,2.938-.358.289-1.2.441-2.125.441-2.772,0-.056,0-.139-.015-.235.594.056,1.159.18,1.545.346.221.082.331.192.331.331,0,.068-.014.124-.082.234q-.207.358-.635,1.876c.331-.042.703-.069.938-.069.566,0,1.008.11,1.324.331.552.4.828,1.214.828,2.469,0,2.056-.373,3.821-1.007,4.69-.441.606-1.021.896-1.835.896-.496,0-.966-.069-1.104-.151q-.11-.069-.151-.58c-.042-.372-.124-.703-.29-1.089.718.248.896.289,1.338.289.662,0,.938-.317,1.242-1.435.206-.73.316-1.669.316-2.689,0-1.076-.262-1.462-.993-1.462-.248,0-.647.041-.965.082-.042.166-.056.18-.11.359-.387,1.421-1.09,3.269-1.794,4.759-.73,1.503-.91,1.807-1.089,1.807-.111,0-.483-.193-.883-.455-.317-.193-.4-.275-.4-.387q0-.068.565-.965c.759-1.173,1.752-3.463,2.097-4.828-1.021.234-1.586.358-1.711.4Zm8.663-2.828c-.221.166-.372.234-.441.234-.041,0-.083-.027-.124-.097-.29-.469-.772-1.007-1.173-1.352-.027-.027-.041-.056-.041-.083,0-.055.097-.151.331-.331.234-.165.304-.207.4-.207.221,0,1.434,1.228,1.434,1.448,0,.083-.109.18-.386.387Zm-1.462,1.462c0-.097.124-.221.523-.538.276-.207.414-.289.524-.289.18,0,.8.662,1.38,1.476.482.689,1.007,1.669,1.007,1.903,0,.139-.042.18-.483.538-.275.221-.593.4-.703.4-.097,0-.138-.042-.234-.276-.262-.662-.496-1.117-.869-1.71-.372-.593-.4-.621-1.062-1.338-.055-.069-.082-.11-.082-.166Zm1.807-4.234c.234,0,1.407,1.173,1.407,1.407,0,.068-.083.151-.358.345-.249.192-.373.262-.428.262q-.069,0-.345-.386c-.235-.317-.677-.787-.925-.993-.041-.042-.068-.069-.068-.111,0-.11.565-.524.717-.524Z" fill="#231815"/><path d="m82.989,65.308c0,.786.014,1.228.069,1.613h-1.531c.055-.386.083-.813.083-1.641v-8.732c0-.703-.014-1.062-.056-1.489.359.041.704.056,1.352.056h2.4c.704,0,1.007-.015,1.366-.056-.027.4-.042.759-.042,1.228v2.027c0,.607,0,.828.028,1.187-.428-.014-.717-.027-1.214-.027h-2.456v5.835Zm0-8.511h2.345v-.69h-2.345v.69Zm0,1.655h2.345v-.718h-2.345v.718Zm2.207,3.945c.028-.47.028-.635.028-1.229-.621,0-.965.014-1.324.056v-1.187c.359.041.717.056,1.338.056h3.849c.648,0,1.007-.015,1.379-.056v1.187c-.373-.042-.704-.056-1.379-.056v1.229h.193c.662,0,.993-.015,1.366-.056v1.2c-.414-.041-.704-.056-1.366-.056h-.193v1.959c0,.607.014.869.055,1.131h-1.379c.055-.331.069-.552.069-1.131v-1.959h-1.49c-.138,1.394-.579,2.276-1.614,3.27-.345-.372-.593-.593-1.062-.91.896-.69,1.255-1.283,1.435-2.359-.717,0-1.062.015-1.407.056v-1.2c.359.041.69.056,1.366.056h.138Zm1.27-1.229q0,.566-.042,1.229h1.407v-1.229h-1.365Zm6.276,4.125c0,1.172-.4,1.476-1.89,1.476-.221,0-.4,0-.869-.027-.069-.593-.138-.869-.358-1.394.51.069.91.097,1.228.097.428,0,.51-.055.51-.345v-5.628h-2.607c-.441,0-.911.014-1.214.027.042-.455.042-.552.042-1.187v-2.027c0-.524-.014-.869-.042-1.228.359.041.676.056,1.352.056h2.538c.662,0,.993-.015,1.365-.056-.041.482-.055.813-.055,1.476v8.76Zm-3.848-8.497h2.469v-.69h-2.469v.69Zm0,1.655h2.469v-.718h-2.469v.718Z" fill="#231815"/><path d="m104.396,65.198h2.124c.607,0,.814-.014,1.104-.056v1.353c-.538-.056-.993-.083-1.462-.083h-5.27v.579h-1.435c.056-.414.083-.813.083-1.503v-2.98c0-.206,0-.427.014-.827-.234.386-.441.648-.828,1.048-.207-.482-.317-.676-.538-.979v3.6c0,.718.014,1.104.055,1.628h-1.586c.055-.511.083-.883.083-1.586v-3.504c0-.414,0-.938.028-1.725-.497.828-.593.966-.924,1.353-.138-.607-.331-1.173-.565-1.67.924-1.034,1.545-2.138,2.042-3.613.193-.594.331-1.187.372-1.587l1.449.483c-.083.221-.097.248-.221.62-.179.579-.428,1.241-.731,1.959v3.642c1.021-.924,1.738-1.945,2.262-3.241l1.38.345c-.152.317-.221.428-.497.896h1.876c.331-.455.552-.855.676-1.241l1.379.262c-.221.386-.455.772-.593.979h1.655c.524,0,.869-.014,1.228-.069v1.338c-.317-.041-.648-.055-1.076-.055h-2.083v.745h1.545c.621,0,.814-.014,1.131-.056v1.27c-.4-.042-.634-.056-1.117-.056h-1.559v.718h1.559c.593,0,.814-.015,1.117-.056v1.27c-.358-.042-.621-.056-1.104-.056h-1.572v.855Zm-1.876-9.38c0-.455-.027-.745-.083-1.021h1.49c-.042.289-.056.552-.056,1.034v.966h1.945v-.607c0-.372-.014-.579-.042-.896h1.462c-.042.29-.056.593-.056.993v.896c0,.511,0,.594.028.869-.428-.014-.469-.014-.938-.014h-6.028c-.497,0-.58,0-.924.027.014-.262.027-.455.027-.91v-1.007c0-.304-.027-.593-.055-.855h1.435c-.028.29-.042.579-.042.91v.594h1.834v-.979Zm.565,5.49v-.745h-2.193v.745h2.193Zm-2.193,1.876h2.193v-.718h-2.193v.718Zm0,2.014h2.193v-.855h-2.193v.855Z" fill="#231815"/><path d="m115.511,55.363c0,.345.166.993.497,1.862,1.062-.263,1.683-.483,3.131-1.104.083-.028.124-.042.166-.042.138,0,.234.248.441,1.146.014.068.014.082.027.138.014.027.014.041.014.055,0,.097-.055.152-.193.207-.704.304-1.503.552-2.979.938.717,1.338,1.738,2.496,2.731,3.076.069.041.11.097.11.165,0,.166-.304.814-.538,1.145-.124.18-.207.249-.331.249-.097,0-.124-.014-.303-.152-.29-.206-.979-.523-1.476-.662-.593-.165-1.131-.234-1.766-.234-1.628,0-2.456.455-2.456,1.338,0,.497.262.842.828,1.118.648.316,1.834.496,3.228.496.414,0,.689-.014,1.104-.069-.221.428-.29.607-.552,1.463-.069.206-.18.262-.552.262-.924,0-2.083-.124-2.787-.29-1.834-.455-2.883-1.489-2.883-2.869,0-.662.262-1.311.717-1.779.635-.62,1.655-.965,2.966-.965.855,0,1.407.096,2.138.386-.8-.855-1.2-1.407-1.683-2.345-.841.151-1.545.248-2.359.331-.483.041-1.545.11-1.751.11-.193,0-.249-.042-.317-.276-.083-.262-.152-.703-.221-1.311.455.015.676.028.924.028.828,0,2.193-.11,3.09-.249-.124-.275-.358-.868-.496-1.241-.221-.606-.317-.827-.497-1.131.648-.11,1.352-.18,1.669-.18.262,0,.358.069.358.234v.152Z" fill="#231815"/><path d="m124.447,58.949c-.621.124-1.214.276-1.6.414-.096.041-.179.055-.248.055-.125,0-.193-.068-.276-.303-.097-.304-.193-.786-.249-1.27.207.014.304.027.428.027.524,0,1.09-.068,1.958-.234l.028-.827c.014-.193.014-.331.014-.372,0-.594-.014-.952-.069-1.324.731.027,1.187.082,1.628.192.179.042.262.124.262.249,0,.055-.014.096-.083.248-.125.262-.138.428-.235,1.572.304.207.566.496.566.635,0,.082-.042.151-.166.303-.207.221-.276.317-.538.704q-.027.358-.027.455c.455-.4.758-.662,1.228-1.007.524-.4,1.104-.772,1.517-.979.538-.29.911-.386,1.407-.386.731,0,1.255.275,1.545.8.166.331.234.648.234,1.187,0,.469-.028.91-.11,1.917-.11,1.187-.166,2.069-.166,2.606s.124.704.51.704c.552,0,1.228-.4,1.821-1.076.014.538.055.704.234,1.255.042.111.056.18.056.235,0,.151-.069.275-.304.455-.565.455-1.379.745-2.11.745-1.214,0-1.766-.635-1.766-2.028,0-.635.041-1.448.179-3.38.042-.455.055-.841.055-1.034,0-.565-.193-.827-.607-.827-.428,0-1.228.441-2.317,1.282-.552.414-.869.704-1.448,1.297v.635c0,1.034.069,3.421.124,4.262v.166c0,.11-.014.151-.042.193-.069.082-.469.138-1.104.138-.4,0-.482-.056-.482-.29,0-.083,0-.221.014-.372v-.317q.014-.482.069-3.104-.786,1.021-1.255,1.779c-.124.193-.207.262-.317.262s-.358-.221-.786-.689c-.262-.304-.358-.428-.358-.511,0-.068.027-.124.124-.221.869-.896,1.6-1.751,2.635-3.048l.027-1.173Z" fill="#231815"/><path d="m140.35,59.914q-.027-.676-.041-1.531c-.125.014-.249.014-.304.014-.91,0-2.083-.097-2.565-.221-.138-.041-.166-.068-.166-.207,0-.303.042-.676.138-1.214.772.152,1.724.249,2.552.249.069,0,.193,0,.345-.015v-.91c0-.482-.014-.703-.042-1.186.689.041,1.159.082,1.49.165.276.056.358.124.358.276,0,.068-.014.096-.11.316-.097.234-.11.29-.166,1.242.828-.097,1.49-.234,2.138-.428.042-.014.055-.014.069-.014.097,0,.097.014.249.455.097.289.193.648.193.759,0,.097-.042.151-.179.192-.455.152-1.642.359-2.511.455,0,.979,0,1.021.014,1.504.965-.124,1.49-.262,2.58-.662.069-.027.096-.041.138-.041.083,0,.11.041.248.372.138.345.262.731.262.869,0,.069-.055.124-.152.165-.758.276-2.138.607-3.007.704.027.524.055.813.138,1.89.772.234,1.09.358,1.683.676.662.331,1.021.565,1.614,1.035.11.082.152.151.152.262,0,.097-.124.331-.386.745-.304.455-.455.634-.552.634-.042,0-.083-.014-.124-.055-.828-.786-1.366-1.173-2.29-1.628-.055.662-.207,1.034-.579,1.38-.469.455-1.255.703-2.235.703-1.697,0-2.745-.745-2.745-1.945,0-.523.221-1.034.593-1.379.538-.497,1.352-.759,2.387-.759.331,0,.621.027.965.069-.069-.896-.097-1.214-.11-1.504-.317.014-.497.014-.662.014-.952,0-2.11-.151-2.759-.345-.138-.041-.193-.11-.193-.221,0-.207.083-.648.207-1.214.855.207,1.945.331,2.966.331h.4Zm-.952,4.207c-.883,0-1.366.263-1.366.731,0,.414.4.635,1.173.635.896,0,1.31-.317,1.31-1.008v-.234c-.358-.097-.634-.124-1.117-.124Z" fill="#231815"/><path d="m153.19,58.369c-3.021.193-4.193.317-5.062.552-.055.014-.11.027-.151.027-.097,0-.18-.068-.221-.179-.125-.345-.193-.801-.235-1.49h.331c.441,0,.855-.014,2.18-.097,1.021-.055,1.89-.097,3.131-.138-.014-1.241-.028-1.435-.152-2.056,1.062.028,1.6.069,1.793.152.083.041.125.11.125.248,0,.027-.014.083-.042.151-.125.304-.166.607-.193,1.463,2.014-.056,2.317-.056,3.697-.056.373,0,.428,0,.469.041.055.056.083.263.083.731,0,.635-.014.704-.193.704h-.055c-.593-.056-2.069-.111-3.035-.111q-.317,0-1.007.015l-.027,2.262c.207.455.276.842.276,1.504,0,1.724-.634,3.048-1.973,4.027-.552.414-1.255.772-1.503.772-.124,0-.193-.041-.304-.151-.386-.441-.676-.662-1.172-.938.828-.234,1.255-.428,1.793-.758.4-.263.759-.553,1.021-.842.18-.221.317-.428.524-.869-.4.414-.731.565-1.242.565-1.159,0-1.917-.883-1.917-2.221,0-1.407.897-2.428,2.138-2.428.4,0,.648.056.924.18v-1.062Zm-1.669,3.228c0,.58.331.979.828.979.524,0,.841-.372.841-1.007,0-.648-.304-1.021-.828-1.021-.497,0-.841.428-.841,1.048Z" fill="#231815"/><path d="m163.562,64.839c0,1.296-1.048,2.345-2.331,2.345s-2.332-1.049-2.332-2.345c0-1.283,1.048-2.332,2.332-2.332,1.296,0,2.331,1.049,2.331,2.332Zm-3.586,0c0,.703.565,1.269,1.255,1.269s1.255-.565,1.255-1.269c0-.69-.565-1.256-1.255-1.256s-1.255.565-1.255,1.256Z" fill="#231815"/></svg>