<?xml version="1.0" encoding="UTF-8"?><svg xmlns="http://www.w3.org/2000/svg" width="834" height="126" viewBox="0 0 834 126"><g><circle cx="74.997" cy="63" r="61.996" fill="#00a44f"/><g><path d="m28.024,72.238c-.806.221-1.625.392-2.452.51-.532.076-.65-.135-.99-1.646l.67-.097c.849-.125,1.691-.298,2.521-.519l-.052-.361c-.128-.981-.349-1.948-.66-2.887.734-.101,1.477-.126,2.217-.073.153,0,.279.122.285.275.015.122-.004.246-.054.358-.116.714-.101,1.443.046,2.151.554-.18,1.431-.538,2.089-.843.036-.02.076-.033.117-.038.119-.026.24.038.285.151.16.41.284.832.373,1.262.019.14-.053.278-.179.342-.194.116-1.412.553-2.483.899l.318,2.217c1.261-.691,2.624-1.176,4.038-1.439,1.844-.405,3.667.76,4.072,2.604.034.154.057.309.069.466.26,1.245-.172,2.534-1.13,3.371-.601.437-1.304.713-2.042.801-.585.126-1.187.147-1.78.063-.205-.076-.229-.124-.322-.532-.103-.475-.286-.93-.542-1.343.66.152,1.342.18,2.012.082,1.016.012,1.848-.802,1.86-1.817.002-.131-.011-.262-.037-.391-.055-.98-.895-1.73-1.875-1.675-.091.005-.182.017-.271.036-1.353.265-2.641.791-3.793,1.548.007.045.048.291.124.737.12.755.191,1.212.214,1.372.062.307.106.616.129.771.2,1.391-.237,2.138-1.371,2.301-1.145.131-2.289-.258-3.116-1.061-.322-.315-.53-.728-.592-1.175-.16-1.117.69-2.273,2.695-3.701l-.389-2.722-.004.003Zm.661,4.605c-.914.746-1.266,1.199-1.214,1.56.057.396.685.744,1.202.669.24-.035.303-.204.247-.596l-.234-1.633h0Zm9.029-5.277c-1.023-.809-2.227-1.358-3.509-1.601-.145-.033-.224-.09-.236-.177-.014-.101.117-.402.505-1.125.152-.285.167-.305.339-.329.453.044.9.132,1.335.264,1.154.343,2.715,1.206,2.764,1.532.044.31-.664,1.516-.918,1.553-.085.012-.16-.012-.28-.119" fill="#fff"/><path d="m28.024,72.238c-.806.221-1.625.392-2.452.51-.532.076-.65-.135-.99-1.646l.67-.097c.849-.125,1.691-.298,2.521-.519l-.052-.361c-.128-.981-.349-1.948-.66-2.887.734-.101,1.477-.126,2.217-.073.153,0,.279.122.285.275.015.122-.004.246-.054.358-.116.714-.101,1.443.046,2.151.554-.18,1.431-.538,2.089-.843.036-.02.076-.033.117-.038.119-.026.24.038.285.151.16.41.284.832.373,1.262.019.14-.053.278-.179.342-.194.116-1.412.553-2.483.899l.318,2.217c1.261-.691,2.624-1.176,4.038-1.439,1.844-.405,3.667.76,4.072,2.604.034.154.057.309.069.466.26,1.245-.172,2.534-1.13,3.371-.601.437-1.304.713-2.042.801-.585.126-1.187.147-1.78.063-.205-.076-.229-.124-.322-.532-.103-.475-.286-.93-.542-1.343.66.152,1.342.18,2.012.082,1.016.012,1.848-.802,1.86-1.817.002-.131-.011-.262-.037-.391-.055-.98-.895-1.73-1.875-1.675-.091.005-.182.017-.271.036-1.353.265-2.641.791-3.793,1.548.007.045.048.291.124.737.12.755.191,1.212.214,1.372.062.307.106.616.129.771.2,1.391-.237,2.138-1.371,2.301-1.145.131-2.289-.258-3.116-1.061-.322-.315-.53-.728-.592-1.175-.16-1.117.69-2.273,2.695-3.701l-.389-2.722-.004.003Zm.661,4.605c-.914.746-1.266,1.199-1.214,1.56.057.396.685.744,1.202.669.24-.035.303-.204.247-.596l-.234-1.633h0Zm9.029-5.277c-1.023-.809-2.227-1.358-3.509-1.601-.145-.033-.224-.09-.236-.177-.014-.101.117-.402.505-1.125.152-.285.167-.305.339-.329.453.044.9.132,1.335.264,1.154.343,2.715,1.206,2.764,1.532.044.31-.664,1.516-.918,1.553-.086.014-.159-.011-.28-.116h0Z" fill="none"/><path d="m48.498,71.563c-.481.069-.892.146-1.264.234-.014-.367-.057-.763-.145-1.382l-.555-3.866c-.051-.449-.133-.895-.244-1.333.44-.013.88-.058,1.313-.135l.515-.074c.17-.574.273-1.165.308-1.762l1.868-.058c-.217.807-.355,1.314-.424,1.57l1.375-.198c.427-.047.849-.125,1.264-.234.013.458.061.914.143,1.365l.55,3.832c.058.466.142.928.251,1.384-.383.019-.763.058-1.245.127l-1.014.145.156,1.082,4.433-.636c.663-.078,1.319-.208,1.961-.387l.257,1.787c-.673.014-1.344.075-2.008.182l-3.196.459c.817.489,1.692.876,2.603,1.152,1.111.336,2.258.536,3.417.597-.326.578-.585,1.191-.773,1.828-1.142-.128-2.262-.41-3.329-.837-1.116-.434-2.157-1.042-3.083-1.802.019.126.046.274.081.445.01.068.101.581.108.634l.138.962c.06.568.182,1.128.364,1.669l-2.028.291c.009-.576-.032-1.151-.123-1.719l-.133-.928c-.047-.326-.076-.532-.121-1.088-.599.92-1.348,1.732-2.217,2.403-.915.727-1.907,1.352-2.959,1.862-.359-.546-.801-1.033-1.31-1.443,1.923-.713,3.645-1.881,5.019-3.403l-2.99.429c-.662.085-1.318.214-1.962.387l-.257-1.787c.662-.013,1.321-.073,1.975-.178l4.313-.619-.155-1.082-.878.126h0Zm-1.696-1.546c-.854.77-1.768,1.47-2.734,2.094-.18.129-.387.275-.622.44l-.872-1.559c1.305-.631,2.511-1.448,3.581-2.425,0,0,.647,1.45.647,1.45Zm-3.463-5.062c1.011.587,1.965,1.266,2.851,2.029l-1.023,1.427c-.864-.832-1.827-1.553-2.868-2.149,0,0,1.04-1.307,1.04-1.307Zm5.363,5.105l2.853-.41-.164-1.152-2.853.41.164,1.152Zm-.362-2.526l2.852-.409-.153-1.065-2.852.409.153,1.065Zm5.678-.026c1.296.417,2.567.908,3.807,1.471l-.754,1.563c-1.206-.66-2.47-1.207-3.777-1.633,0,0,.724-1.401.724-1.401Zm2.753-3.306c-.735,1.072-1.551,2.087-2.441,3.034l-1.31-1.057c.89-.867,1.645-1.862,2.242-2.952l1.508.976h0Z" fill="#fff"/><path d="m48.498,71.563c-.481.069-.892.146-1.264.234-.014-.367-.057-.763-.145-1.382l-.555-3.866c-.051-.449-.133-.895-.244-1.333.44-.013.88-.058,1.313-.135l.515-.074c.17-.574.273-1.165.308-1.762l1.868-.058c-.217.807-.355,1.314-.424,1.57l1.375-.198c.427-.047.849-.125,1.264-.234.013.458.061.914.143,1.365l.55,3.832c.058.466.142.928.251,1.384-.383.019-.763.058-1.245.127l-1.014.145.156,1.082,4.433-.636c.663-.078,1.319-.208,1.961-.387l.257,1.787c-.673.014-1.344.075-2.008.182l-3.196.459c.817.489,1.692.876,2.603,1.152,1.111.336,2.258.536,3.417.597-.326.578-.585,1.191-.773,1.828-1.142-.128-2.262-.41-3.329-.837-1.116-.434-2.157-1.042-3.083-1.802.019.126.046.274.081.445.01.068.101.581.108.634l.138.962c.06.568.182,1.128.364,1.669l-2.028.291c.009-.576-.032-1.151-.123-1.719l-.133-.928c-.047-.326-.076-.532-.121-1.088-.599.92-1.348,1.732-2.217,2.403-.915.727-1.907,1.352-2.959,1.862-.359-.546-.801-1.033-1.31-1.443,1.923-.713,3.645-1.881,5.019-3.403l-2.99.429c-.662.085-1.318.214-1.962.387l-.257-1.787c.662-.013,1.321-.073,1.975-.178l4.313-.619-.155-1.082-.878.126h0Zm-1.696-1.546c-.854.77-1.768,1.47-2.734,2.094-.18.129-.387.275-.622.44l-.872-1.559c1.305-.631,2.511-1.448,3.581-2.425,0,0,.647,1.45.647,1.45Zm-3.463-5.062c1.011.587,1.965,1.266,2.851,2.029l-1.023,1.427c-.864-.832-1.827-1.553-2.868-2.149,0,0,1.04-1.307,1.04-1.307Zm5.363,5.105l2.853-.41-.164-1.152-2.853.41.164,1.152Zm-.362-2.526l2.852-.409-.153-1.065-2.852.409.153,1.065Zm5.678-.026c1.296.417,2.567.908,3.807,1.471l-.754,1.563c-1.206-.66-2.47-1.207-3.777-1.633,0,0,.724-1.401.724-1.401Zm2.753-3.306c-.735,1.072-1.551,2.087-2.441,3.034l-1.31-1.057c.89-.867,1.645-1.862,2.242-2.952l1.508.976h0Z" fill="none"/><path d="m64.397,61.88c.447.059.579.127.607.317.015.144,0,.289-.043.427-.128.874-.136,1.761-.025,2.637.259,2.786.5,4.943.744,6.645.046.419.152.829.315,1.217.271.543.914.746,1.88.607,1.634-.275,3.097-1.177,4.077-2.514.541-.682.993-1.43,1.347-2.225.203.573.493,1.111.86,1.595.072.117.121.247.142.383.045.309-.222.768-.971,1.665-1.289,1.662-3.158,2.776-5.233,3.119-1.038.234-2.127.043-3.023-.531-.753-.596-1.138-1.45-1.381-3.151-.193-1.34-.323-2.373-.76-6.397-.07-.608-.104-.967-.126-1.122-.096-.883-.262-1.756-.498-2.612.696-.091,1.399-.108,2.098-.051" fill="#fff"/><path d="m64.397,61.88c.447.059.579.127.607.317.015.144,0,.289-.043.427-.128.874-.136,1.761-.025,2.637.259,2.786.5,4.943.744,6.645.046.419.152.829.315,1.217.271.543.914.746,1.88.607,1.634-.275,3.097-1.177,4.077-2.514.541-.682.993-1.43,1.347-2.225.203.573.493,1.111.86,1.595.072.117.121.247.142.383.045.309-.222.768-.971,1.665-1.289,1.662-3.158,2.776-5.233,3.119-1.038.234-2.127.043-3.023-.531-.753-.596-1.138-1.45-1.381-3.151-.193-1.34-.323-2.373-.76-6.397-.07-.608-.104-.967-.126-1.122-.096-.883-.262-1.756-.498-2.612.692-.093,1.393-.114,2.089-.061h0Z" fill="none"/><path d="m84.692,66.808c-.436,1.19-.935,2.356-1.493,3.493-.356.939-1.156,1.64-2.134,1.867-1.238.177-2.23-.714-2.442-2.227-.191-1.313.355-2.624,1.422-3.413.854-.631,1.845-1.049,2.893-1.222l.172-.024c.62-1.913.774-2.426,1.168-3.849-1.098.157-2.169.464-3.184.912-.036.021-.076.034-.117.038-.292.042-.695-.812-.967-2.088.407.015.815-.008,1.218-.07.583-.084,1.573-.279,2.606-.531.645-.151,1.035-.283,1.171-.396.085-.071.186-.122.295-.148.223-.031.607.194,1.051.605.235.194.425.435.558.709.02.138-.032.267-.209.503-.605,1.34-1.104,2.725-1.493,4.143,1.213.023,2.418.204,3.584.538.004-.605-.03-1.209-.102-1.809-.039-.258-.094-.514-.163-.766.754-.003,1.39.029,1.905.077.322.042.437.112.457.25.014.159-.011.319-.072.466-.116.423-.166.862-.147,1.301,0,.368-.017.616-.053,1.131.756.316,1.485.692,2.179,1.125.087.054.149.139.174.238.069.481-.509,1.705-.819,1.749-.085.012-.179-.027-.331-.11-.524-.346-1.159-.746-1.54-.955-.325,1.166-.915,2.242-1.725,3.142-.583.7-1.319,1.256-2.152,1.625-.154.013-.308-.026-.437-.112-.116-.107-.225-.22-.329-.339-.256-.319-.609-.545-1.005-.645.978-.434,1.855-1.068,2.574-1.86.645-.754,1.105-1.649,1.343-2.613-1.234-.465-2.539-.71-3.857-.727m-4.344,2.728c.059.412.251.648.526.608.378-.054.928-.992,1.743-3.003-1.608.406-2.43,1.278-2.271,2.396" fill="#fff"/><path d="m84.692,66.808c-.436,1.19-.935,2.356-1.493,3.493-.356.939-1.156,1.64-2.134,1.867-1.238.177-2.23-.714-2.442-2.227-.191-1.313.355-2.624,1.422-3.413.854-.631,1.845-1.049,2.893-1.222l.172-.024c.62-1.913.774-2.426,1.168-3.849-1.098.157-2.169.464-3.184.912-.036.021-.076.034-.117.038-.292.042-.695-.812-.967-2.088.407.015.815-.008,1.218-.07.583-.084,1.573-.279,2.606-.531.645-.151,1.035-.283,1.171-.396.085-.071.186-.122.295-.148.223-.031.607.194,1.051.605.235.194.425.435.558.709.02.138-.032.267-.209.503-.605,1.34-1.104,2.725-1.493,4.143,1.213.023,2.418.204,3.584.538.004-.605-.03-1.209-.102-1.809-.039-.258-.094-.514-.163-.766.754-.003,1.39.029,1.905.077.322.042.437.112.457.25.014.159-.011.319-.072.466-.116.423-.166.862-.147,1.301,0,.368-.017.616-.053,1.131.756.316,1.485.692,2.179,1.125.087.054.149.139.174.238.069.481-.509,1.705-.819,1.749-.085.012-.179-.027-.331-.11-.524-.346-1.159-.746-1.54-.955-.325,1.166-.915,2.242-1.725,3.142-.583.7-1.319,1.256-2.152,1.625-.154.013-.308-.026-.437-.112-.116-.107-.225-.22-.329-.339-.256-.319-.609-.545-1.005-.645.978-.434,1.855-1.068,2.574-1.86.645-.754,1.105-1.649,1.343-2.613-1.233-.466-2.538-.714-3.855-.732v-.003Zm-4.344,2.728c.059.412.251.648.526.608.378-.054.928-.992,1.743-3.003-1.603.405-2.425,1.277-2.265,2.394h-.004Z" fill="none"/><path d="m100.91,66.267c.057.065.092.145.103.23.017.121.002.14-.098.541-.265,1.014-.445,2.049-.538,3.094-.025.196-.061.307-.123.355-.273.105-.555.187-.843.244l-.068.01c-.086.012-.207.011-.347.033-.223.031-.282-.014-.383-.208-.634-1.634-1.078-3.335-1.324-5.071-.276-1.895-.345-3.813-.207-5.723.039-.952.045-1.479.037-2.057.654.015,1.304.111,1.935.284.309.078.407.153.432.323.017.121.008.174-.142.476-.436.992-.549,4.726-.197,7.183.057.396.15.926.325,1.777.326-1.152.452-1.503.725-2.402.202.33.441.637.711.915m3.903.685c.786.22,1.616.24,2.412.058.958-.114,1.891-.384,2.761-.799.073-.04.152-.069.234-.086.12-.017.215.035.257.209.16.523.289,1.055.386,1.593.024.172-.02.231-.25.335-.952.394-1.951.661-2.972.795-1.15.26-2.349.195-3.464-.187-.787-.309-1.433-.897-1.815-1.651-.034-.241.28-.617,1.126-1.32.303.498.773.872,1.326,1.055m-2.46-8.591c.784,0,1.567-.059,2.341-.178,1.118-.156,2.22-.408,3.294-.755.049-.02.1-.034.152-.039.121-.017.179.027.234.159.122.454.217.914.286,1.379.037.258-.003.351-.182.411-1.005.311-2.035.535-3.078.67-.989.184-1.994.264-2.999.238-.094-.039-.145-.154-.19-.464-.062-.431-.095-.866-.099-1.301.007-.072.054-.113.156-.128.03-.005.06-.004.089.005" fill="#fff"/><path d="m100.91,66.267c.057.065.092.145.103.23.017.121.002.14-.098.541-.265,1.014-.445,2.049-.538,3.094-.025.196-.061.307-.123.355-.273.105-.555.187-.843.244l-.068.01c-.086.012-.207.011-.347.033-.223.031-.282-.014-.383-.208-.634-1.634-1.078-3.335-1.324-5.071-.276-1.895-.345-3.813-.207-5.723.039-.952.045-1.479.037-2.057.654.015,1.304.111,1.935.284.309.078.407.153.432.323.017.121.008.174-.142.476-.436.992-.549,4.726-.197,7.183.057.396.15.926.325,1.777.326-1.152.452-1.503.725-2.402.203.329.441.634.711.91h.002Zm3.903.685c.786.22,1.616.24,2.412.058.958-.114,1.891-.384,2.761-.799.073-.04.152-.069.234-.086.12-.017.215.035.257.209.16.523.289,1.055.386,1.593.024.172-.02.231-.25.335-.952.394-1.951.661-2.972.795-1.15.26-2.349.195-3.464-.187-.787-.309-1.433-.897-1.815-1.651-.034-.241.28-.617,1.126-1.32.303.498.773.872,1.327,1.054h-.002Zm-2.46-8.591c.784,0,1.567-.059,2.341-.178,1.118-.156,2.22-.408,3.294-.755.049-.02.1-.034.152-.039.121-.017.179.027.234.159.122.454.217.914.286,1.379.037.258-.003.351-.182.411-1.005.311-2.035.535-3.078.67-.989.184-1.994.264-2.999.238-.094-.039-.145-.154-.19-.464-.062-.431-.095-.866-.099-1.301.007-.072.054-.113.156-.128.027-.003.055,0,.081.008,0,0,.004,0,.004,0Z" fill="none"/><path d="m118.849,67.007c.107.75-.414,1.444-1.164,1.551-.749.107-1.444-.414-1.551-1.164-.107-.749.414-1.444,1.163-1.551.745-.111,1.438.403,1.549,1.147l.002.016m-.966-2.456l-1.529.219-1.941-10.226,2.474-.355s.996,10.362.996,10.362Z" fill="#fff"/><path d="m118.849,67.007c.107.75-.414,1.444-1.164,1.551-.749.107-1.444-.414-1.551-1.164-.107-.749.414-1.444,1.163-1.551.745-.111,1.438.403,1.549,1.147l.002.016h0Zm-.966-2.456l-1.529.219-1.941-10.226,2.474-.355s.996,10.362.996,10.362Z" fill="none"/><path d="m125.826,66.006c.108.75-.413,1.445-1.163,1.553s-1.445-.413-1.553-1.163.413-1.445,1.163-1.553h0c.744-.112,1.438.402,1.55,1.146,0,.006.002.011.003.017m-.966-2.456l-1.529.219-1.941-10.226,2.474-.355s.996,10.362.996,10.362Z" fill="#fff"/><path d="m125.826,66.006c.108.75-.413,1.445-1.163,1.553s-1.445-.413-1.553-1.163.413-1.445,1.163-1.553h0c.744-.112,1.438.402,1.55,1.146,0,.006.002.011.003.017Zm-.966-2.456l-1.529.219-1.941-10.226,2.474-.355s.996,10.362.996,10.362Z" fill="none"/></g></g><path d="m171.21,38.792v19.122h-2.996v-19.122h2.996Z" fill="#231815"/><path d="m186.186,38.792v19.122h-2.996v-19.122h2.996Z" fill="#231815"/><path d="m199.988,51.923c-.2,1.198-.399,1.997-.699,2.846-.624,1.822-1.448,3.22-2.821,4.768-.699-.948-1.298-1.572-2.222-2.222,1.348-1.348,1.997-2.421,2.571-4.219.699-2.222.949-5.043.949-11.208,0-1.748-.025-2.847-.125-3.67.924.1,1.598.125,2.796.125h10.01c1.298,0,1.972-.025,2.746-.125-.075.649-.1,1.323-.1,2.721v15.503c0,1.197-.25,1.872-.849,2.271-.549.374-1.198.474-2.821.474-.774,0-1.423-.024-2.746-.074-.15-1.124-.3-1.723-.699-2.671,1.248.149,2.571.249,3.545.249.699,0,.874-.125.874-.624v-4.144h-10.41Zm10.41-2.446v-3.221h-9.911c-.025.773-.075,1.598-.199,3.221h10.11Zm0-5.667v-2.971h-9.911v2.971h9.911Z" fill="#231815"/><path d="m226.295,52.172c.075.125.1.225.1.35,0,.175-.025.2-.25.749-.499,1.148-1.098,2.945-1.398,4.294-.075.274-.15.424-.25.475-.125.05-.974.174-1.248.174h-.1c-.125,0-.299-.024-.499-.024-.325,0-.399-.075-.5-.375-.474-1.622-.849-4.968-.849-7.488,0-2.746.175-4.443.874-8.188.25-1.348.375-2.097.475-2.921,1.048.2,1.947.45,2.696.799.424.175.549.3.549.55,0,.175-.025.249-.3.648-.824,1.323-1.747,6.615-1.747,10.186,0,.574.025,1.348.1,2.596.699-1.572.949-2.047,1.523-3.27.225.523.375.773.824,1.447Zm5.417,1.772c.799.425,1.748.574,3.42.574,1.598,0,2.546-.125,4.094-.574.149-.05.274-.074.349-.074.175,0,.3.1.325.349.125.85.225,1.848.225,2.347,0,.25-.075.325-.424.425-1.348.35-2.721.524-4.394.524-2.297,0-3.72-.274-4.893-.974-1.099-.674-2.247-2.047-2.247-2.722,0-.349.524-.823,1.873-1.647.449.899.874,1.349,1.672,1.772Zm-1.748-12.731c.549.125,2.147.225,3.37.225,1.647,0,3.295-.124,4.843-.399q.125-.024.225-.024c.174,0,.25.075.299.274.05.25.125,1.348.125,2.022,0,.374-.075.499-.35.549-1.023.199-2.721.324-4.519.324-2.147,0-4.069-.125-4.318-.274-.125-.075-.175-.249-.175-.699,0-.674.075-1.672.125-1.872.025-.1.1-.149.25-.149.025,0,.075,0,.125.024Z" fill="#231815"/><path d="m250.655,52.646c.075.1.1.175.1.274q0,.15-.424,1.298c-.524,1.523-.849,2.771-.949,3.745-.025.324-.125.449-.45.524-.349.1-1.023.149-1.672.149-.25,0-.375-.05-.449-.2-.225-.474-.624-2.196-.824-3.594-.175-1.174-.25-2.396-.25-3.67,0-2.871.325-5.592,1.224-10.484.149-.799.2-1.174.274-1.947,1.148.149,1.947.374,2.671.724.375.2.524.374.524.599,0,.15-.05.275-.175.475-1.023,1.748-1.972,7.14-1.972,11.134,0,.6.025,1.548.1,2.746.599-1.548.874-2.247,1.423-3.445.175.675.35.999.849,1.673Zm4.194-6.565c-1.198,0-1.448-.05-1.523-.324-.075-.225-.149-1.023-.149-1.598,0-.2,0-.399.025-.849.674.05,1.073.074,1.897.074,1.348,0,2.197-.024,3.495-.125-.025-3.17-.05-3.569-.3-4.742,1.224.024,2.147.124,2.946.324.375.1.524.225.524.475,0,.1-.025.175-.1.374-.25.574-.375,1.548-.424,3.295.924-.124,1.723-.299,3.22-.648.125-.05.175-.05.25-.05.149,0,.225.074.274.249.05.225.125,1.174.125,1.697,0,.624-.025.725-.275.824-.399.2-1.498.374-3.62.649,0,1.722.15,4.568.325,6.19,1.573.674,2.646,1.248,3.744,2.022.699.499.849.674.849.849,0,.274-.45,1.123-.974,1.847-.3.425-.449.55-.624.55s-.175,0-.749-.55c-.549-.549-1.124-.973-2.222-1.697v.2c0,2.196-1.822,3.645-4.593,3.645-2.821,0-4.668-1.498-4.668-3.745s1.897-3.919,4.419-3.919c.923,0,1.397.025,2.072.125q-.1-1.947-.175-5.292c-1.073.074-2.771.149-3.77.149Zm2.047,7.339c-1.248,0-2.072.574-2.072,1.448,0,.799.774,1.298,1.972,1.298,1.323,0,2.022-.599,2.022-1.747,0-.35-.025-.624-.025-.624-.649-.25-1.223-.375-1.897-.375Z" fill="#231815"/><path d="m283.228,50.051c.974-.699,1.697-1.323,2.372-2.072-.899-1.772-1.398-3.645-1.772-6.44h-8.637c-.05,4.019-.25,6.266-.699,8.038-.375,1.498-.824,2.596-1.473,3.595-.699-.799-1.249-1.248-2.147-1.772,1.373-2.122,1.872-4.543,1.872-9.111,0-1.623-.025-2.098-.125-3.021.799.051,1.822.101,2.896.101h8.088q-.05-.475-.075-1.023c-.025-.449-.075-.699-.149-1.073h2.721c-.05.324-.075.799-.075,1.397,0,.175,0,.2.025.699h2.746c-.799-.574-1.074-.749-1.748-1.099l1.772-1.123c.923.474,1.273.724,2.247,1.497l-1.098.725c1.348,0,1.922-.05,2.571-.15v2.446c-.849-.1-1.672-.124-2.92-.124h-3.37c.25,1.896.524,3.045,1.023,4.318.774-1.198,1.298-2.321,1.623-3.396l2.247.924q-.275.475-.6,1.148c-.624,1.248-1.348,2.422-2.171,3.545.399.574.699.948.999,1.248.349.324.773.6.898.6.325,0,.674-1.148.824-2.821.699.674,1.124.999,1.997,1.498-.599,2.82-1.348,3.919-2.646,3.919-1.124,0-2.496-.974-3.645-2.571-1.074,1.124-1.548,1.523-2.846,2.446-.699-.799-.774-.873-1.249-1.223-.324-.025-.524-.025-.974-.025h-4.443c-.574,0-1.173.025-1.498.075,0-.149.025-.649.05-1.522v-2.447c0-.573-.025-1.123-.05-1.473.474.05.874.075,1.522.075h4.443c.674,0,1.049-.025,1.523-.075-.025.325-.05.824-.05,1.448v2.821Zm-7.239,3.319c-.924,2.871-1.398,3.745-2.896,5.468l-2.147-1.548c1.648-1.673,2.022-2.347,2.796-4.943l2.247,1.023Zm7.664-8.537c-.424-.05-.849-.075-1.498-.075h-4.967c-.625,0-1.099.025-1.498.075v-2.172c.399.05.799.075,1.498.075h4.967c.699,0,1.074-.025,1.498-.075v2.172Zm-4.418,11.508c0,.524.274.574,2.621.574,1.498,0,2.621-.075,3.045-.199.524-.175.674-.624.674-2.122,1.048.475,1.448.599,2.446.823-.2,1.823-.449,2.571-1.074,3.021-.699.524-2.097.725-5.217.725-4.194,0-4.967-.324-4.967-2.072v-2.871c0-.724-.025-1.173-.125-1.672h2.721c-.1.474-.125.823-.125,1.397v2.396Zm-1.198-7.14h3.045v-1.447h-3.045v1.447Zm5.092,6.666c-1.073-1.323-1.623-1.822-3.095-2.921l1.697-1.224c1.249.799,1.897,1.323,3.22,2.597l-1.822,1.548Zm6.59-3.221c1.273,1.548,1.997,2.671,3.121,4.768l-2.271,1.224c-.924-2.022-1.772-3.445-2.971-5.043l2.122-.948Z" fill="#00a44f"/><path d="m298.451,41.363c.574.074.898.1,1.747.1h3.52c.949,0,1.298-.025,1.822-.1v2.396c-.474-.05-.824-.075-1.722-.075h-3.62c-.898,0-1.123,0-1.747.075v-2.396Zm6.54,13.954c1.698-1.223,2.896-2.371,4.244-4.019-.724.124-.899.149-2.696.424-.299.05-.549.1-.949.2l-.349-2.372c.25.025.274.025.324.025.15,0,.225,0,.424-.025v-7.963c0-.824-.025-1.548-.1-2.222.549.05.974.074,1.847.074h.125c.399-.974.574-1.647.699-2.471l2.447.399c-.475,1.272-.549,1.447-.824,2.071h.874c.849,0,1.248-.024,1.772-.074-.075.698-.1,1.048-.1,2.172v5.117l.424.399,1.723-.924c.824,2.197,1.198,3.47,1.697,5.967l-1.922.948c-.424-2.472-.699-3.545-1.148-4.843-.474.898-.499.924-.774,1.397v7.265c0,1.822-.549,2.297-2.696,2.297-.3,0-1.148-.025-1.723-.05-.075-.974-.2-1.623-.499-2.422.824.125,1.522.175,2.146.175.524,0,.624-.1.624-.524v-2.371c0-.55,0-.849.05-1.273v-.024c-.799,1.048-1.049,1.348-1.598,1.946-.824.85-2.122,2.072-3.121,2.896-.375-.874-.549-1.224-.924-1.848v1.423c0,.849.025,1.473.075,1.997h-2.047v-.799h-2.022v1.224h-2.122c.1-.774.125-1.448.125-2.372v-3.47c0-.773-.025-1.248-.075-1.997q.574.05,1.573.05h2.946q1.023,0,1.598-.024-.05.799-.05,1.922v1.697Zm-5.816-10.435c.399.05.749.075,1.673.075h2.296c.899,0,1.223-.025,1.723-.075v2.247c-.599-.075-.874-.075-1.723-.075h-2.296c-.874,0-1.173.025-1.673.075v-2.247Zm0,3.37c.475.075.699.075,1.673.075h2.296c.924,0,1.223,0,1.723-.075v2.247c-.824-.075-.849-.075-1.723-.075h-2.296c-.874,0-1.124,0-1.673.075v-2.247Zm.025-10.31c.5.074.924.1,1.648.1h2.396c.773,0,1.148-.025,1.672-.1v2.396c-.549-.05-.874-.075-1.672-.075h-2.396c-.774,0-1.124.025-1.648.075v-2.396Zm1.797,18.272h2.022v-2.471h-2.022v2.471Zm9.586-14.778h-2.546v1.323h2.546v-1.323Zm-2.546,4.419h2.546v-1.248h-2.546v1.248Zm0,3.52c1.073-.149,1.498-.199,2.546-.374v-1.298h-2.546v1.672Zm6.939-4.992c-.649,0-1.198.024-1.772.1v-2.546c.524.074.999.1,1.798.1h1.847v-1.697c0-1.273-.05-2.047-.15-2.821h2.696c-.125.799-.15,1.522-.15,2.821v1.697c.599,0,.999-.025,1.473-.125v2.571c-.574-.075-.674-.075-1.473-.1v12.356c0,1.997-.624,2.521-3.021,2.521-.599,0-1.024,0-1.947-.05-.125-1.073-.25-1.548-.574-2.496.949.124,1.523.175,2.322.175.699,0,.824-.101.824-.675v-11.832h-1.873Z" fill="#00a44f"/><path d="m335.567,51.698c-2.471,1.447-3.17,2.172-3.17,3.27,0,.449.175.749.549.974.549.325,1.772.5,3.345.5,1.348,0,3.22-.125,4.493-.3.524-.075.824-.15,1.822-.399h.125c.175,0,.3.125.375.299.15.524.25,1.273.25,2.172,0,.375-.125.524-.449.6-.599.125-3.37.274-5.192.274-3.045,0-4.668-.199-5.866-.699-1.448-.599-2.172-1.722-2.172-3.295,0-1.448.674-2.721,2.022-3.794,1.073-.85,1.323-1.023,3.62-2.322-.2-.823-.574-1.173-1.348-1.173-1.023,0-2.097.399-3.27,1.173-.724.5-1.573,1.198-2.097,1.723-.749.774-.824.824-1.023.824-.25,0-.774-.574-1.298-1.448-.25-.425-.399-.749-.399-.924,0-.225.05-.274.649-.648,2.047-1.373,3.745-3.121,4.768-4.918-1.772.125-2.696.149-3.669.149-.375,0-.45-.074-.574-.499-.075-.324-.2-1.647-.225-2.321.849.124,1.348.149,2.546.149.974,0,2.047-.025,3.17-.075.524-1.423.699-2.321.724-3.494,2.222.374,3.245.748,3.245,1.173,0,.1-.025.149-.1.3-.175.324-.375.724-.699,1.498q-.05.1-.075.174c1.423-.199,2.671-.449,3.544-.648.549-.15.674-.175.799-.175.2,0,.3.075.35.225.1.449.25,1.598.25,1.947,0,.274-.1.399-.424.474-.799.226-3.545.649-5.841.874-.749,1.373-1.273,2.172-2.047,3.021,1.123-.524,1.972-.724,2.971-.724,1.123,0,1.872.649,2.372,2.047,2.471-1.348,3.794-2.072,3.944-2.172,1.148-.674,1.623-1.048,2.172-1.673,1.023,1.049,2.122,2.621,2.122,3.046,0,.149-.1.25-.424.324-1.224.325-3.495,1.299-7.29,3.146.025.449.075,1.598.075,2.396v1.198c0,.3-.05.449-.174.524-.125.125-.799.2-1.548.2-.849,0-.999-.075-.999-.475v-.1c.05-.725.075-1.673.075-2.272v-.124Z" fill="#00a44f"/><path d="m351.189,46.306c.599.1.999.125,1.922.125h1.972c.724,0,1.273-.025,1.822-.1-.075.749-.1,1.298-.1,2.621v4.992c.35.799.574,1.023,1.373,1.548,1.124.724,2.396.898,6.491.898,3.47,0,6.565-.175,8.912-.523-.399,1.147-.549,1.747-.724,2.846-2.122.1-5.517.175-7.24.175-3.969,0-5.891-.15-7.139-.55-1.249-.399-2.097-1.048-3.046-2.271-.774.773-1.348,1.273-2.471,2.122-.399.324-.499.399-.699.574q-.25.199-.374.3l-1.173-2.746c1.098-.449,2.571-1.448,3.57-2.347v-5.143h-1.473c-.649,0-.999.024-1.623.125v-2.646Zm2.271-8.638c1.748,1.498,3.046,2.847,4.194,4.369l-1.972,1.947c-1.498-2.022-2.272-2.871-4.119-4.519l1.897-1.798Zm7.739,2.946c-.824,0-1.398.024-1.997.1v-2.571c.524.1,1.074.125,1.997.125h3.42c.774,0,1.273-.025,1.772-.1-.05.549-.075.873-.075,1.298,0,2.321.549,4.768,1.573,6.939,1.248,2.621,2.671,4.294,5.292,6.166-.674.824-1.098,1.474-1.598,2.521-1.748-1.323-2.721-2.271-3.819-3.744-1.198-1.623-1.872-3.07-2.671-5.692-.624,2.547-1.298,4.045-2.621,5.867-.899,1.223-1.648,1.972-3.246,3.295-.649-.874-.999-1.273-1.872-2.097,1.448-1.049,2.172-1.772,3.146-3.071,1.273-1.722,2.172-3.669,2.671-5.716.225-.974.325-1.698.449-3.32h-2.421Z" fill="#00a44f"/><path d="m389.154,42.81c.375-2.047.5-2.92.5-3.744,0-.1,0-.25-.025-.425,2.097.3,3.295.774,3.295,1.323,0,.2-.025.225-.299.725-.2.349-.375.948-.724,2.271,1.698.299,3.121,1.048,4.244,2.172,1.373,1.373,2.047,3.07,2.047,5.143,0,3.47-1.897,6.166-5.268,7.538-.674.275-1.997.624-2.321.624-.2,0-.325-.1-.5-.349-.399-.649-.999-1.299-1.722-1.822,2.521-.425,3.719-.874,4.968-1.897,1.323-1.073,1.997-2.472,1.997-4.169,0-2.521-1.623-4.568-4.02-5.043-.824,2.597-1.722,4.668-2.821,6.565.375.375.599.6.999.974.275.25.375.399.375.574,0,.425-1.398,1.798-1.797,1.798-.2,0-.524-.225-1.248-.949-1.523,1.822-3.021,2.721-4.519,2.721-2.072,0-3.445-1.747-3.445-4.418,0-2.396.999-4.618,2.921-6.49-.35-.899-.399-1.124-.949-2.846-.2-.649-.424-1.349-.724-2.072.899-.2,2.072-.375,2.671-.375.25,0,.399.075.474.25q.075.125.1.724c.025.524.25,1.474.624,2.621,1.623-.923,3.445-1.447,5.167-1.423Zm-6.291,5.592c-.924,1.224-1.423,2.521-1.423,3.695,0,1.148.474,1.872,1.198,1.872.774,0,1.498-.524,2.521-1.772-.923-1.224-1.547-2.271-2.296-3.795Zm5.717-3.345c-1.373.2-2.447.599-3.72,1.448.649,1.298,1.148,2.146,1.922,3.17.849-1.647,1.348-2.921,1.797-4.618Z" fill="#00a44f"/><path d="m405.502,44.209c-.648.149-.873.225-1.772.549-.324.125-.499.175-.648.175-.55,0-1.049-1.023-1.498-3.17,1.598-.075,2.172-.15,4.942-.574,2.996-.449,6.79-1.023,8.787-1.273,2.247-.3,4.044-.599,4.993-.799.175-.05.249-.05.374-.05.325,0,.449.149.674.773.2.524.35,1.273.35,1.623,0,.3-.1.399-.449.399-.524,0-.998.05-1.473.125-4.219.699-7.589,4.394-7.589,8.288,0,2.92,2.297,4.843,6.191,5.192.349.024.474.149.474.449,0,.624-.249,1.822-.474,2.371-.125.274-.325.399-.649.399s-1.073-.149-1.848-.374c-4.243-1.248-6.465-3.944-6.465-7.764,0-2.072.674-3.994,1.972-5.642.699-.899,1.298-1.398,2.721-2.372-3.27.55-6.715,1.198-8.612,1.673Z" fill="#00a44f"/><path d="m425.793,53.071c.45-.399.574-.5.749-.5.325,0,1.822,1.099,2.921,2.147,1.248,1.148,2.646,2.82,2.646,3.17,0,.225-.05.274-.774.924-.948.874-1.148,1.023-1.323,1.023-.149,0-.299-.1-.424-.35-.874-1.548-2.871-3.595-4.644-4.743-.199-.149-.299-.249-.299-.399,0-.175.05-.249,1.147-1.272Z" fill="#231815"/><path d="m448.857,41.288h-6.216l-.2,3.096c-.024.499-.075,1.073-.149,1.673.974-.899,1.772-1.249,2.846-1.249,3.12,0,5.018,2.396,5.018,6.391,0,4.394-2.122,7.04-5.617,7.04-1.548,0-2.896-.549-3.894-1.572-.649-.675-.974-1.273-1.398-2.547l2.771-1.073c.226.974.4,1.373.749,1.848.425.549,1.049.873,1.772.873,1.698,0,2.621-1.572,2.621-4.519,0-2.57-.873-3.943-2.496-3.943-1.198,0-1.897.648-2.596,2.321l-2.272-.399.6-10.435h8.463v2.496Z" fill="#231815"/><path d="m464.307,55.343c-.823,1.897-2.371,2.896-4.468,2.896-3.819,0-5.518-3.096-5.518-10.061,0-2.87.35-5.217,1.023-6.74.899-2.047,2.272-2.971,4.469-2.971,2.347,0,3.819,1.049,4.693,3.37.549,1.498.849,3.67.849,6.416,0,3.295-.324,5.492-1.049,7.09Zm-2.546-1.323c.374-1.273.549-2.971.549-5.393,0-2.82-.299-5.316-.773-6.415-.375-.849-.924-1.248-1.697-1.248-.85,0-1.349.399-1.748,1.373-.449,1.048-.699,3.17-.699,5.666,0,5.667.649,7.739,2.422,7.739.948,0,1.598-.574,1.947-1.723Z" fill="#231815"/><path d="m487.745,38.093c1.273,0,1.822-.024,2.521-.1-.075.924-.101,1.447-.101,2.721v15.877c0,2.021-.724,2.496-3.819,2.496-.523,0-1.548-.024-2.621-.075-.125-.998-.299-1.647-.724-2.621,1.498.175,2.696.25,3.495.25.998,0,1.123-.05,1.123-.574v-15.652h-13.505v2.722c0,6.24-.3,9.811-.999,12.257-.499,1.697-.898,2.596-1.847,4.119-.574-.774-1.224-1.423-2.147-2.122.799-1.123,1.298-2.222,1.623-3.57.574-2.246.823-5.916.823-11.657,0-2.372-.024-3.07-.124-4.169.773.075,1.322.1,2.546.1h13.755Zm-8.188,6.341h-2.321c-.799,0-1.423.025-1.848.075v-2.272c.6.075,1.023.101,1.848.101h2.297c0-.824,0-.924-.075-1.448h2.671c-.074.475-.074.699-.1,1.448h2.396c.773,0,1.224-.025,1.822-.101v2.272c-.449-.05-1.049-.075-1.822-.075h-2.396v1.647h2.945c1.023,0,1.648-.024,2.172-.1v2.371c-.624-.074-1.173-.1-2.172-.1h-8.237c-.974,0-1.573.025-2.147.1v-2.371c.574.075,1.023.1,2.172.1h2.796v-1.647Zm6.017,9.86c0,.674.024,1.248.075,1.573-.574-.025-1.124-.051-1.798-.051h-5.691v1.424h-2.597c.101-.574.125-1.099.125-1.897v-4.294c0-.773-.024-1.099-.1-1.598.874.05.948.05,1.772.05h6.44c1.073,0,1.248,0,1.848-.05-.051.449-.075.874-.075,1.673v3.17Zm-7.439-.649h4.993v-2.047h-4.993v2.047Z" fill="#231815"/><path d="m500.571,46.63c0-.499-.025-.898-.075-1.397.475.05.999.075,1.673.075h5.268v-3.121h-5.043c-1.224,1.897-2.422,3.346-3.969,4.719-.675-1.023-.949-1.349-1.748-2.147,2.446-2.071,3.67-3.645,4.668-5.991.325-.773.5-1.298.574-1.747l2.846.574c-.074.149-.424.898-1.048,2.222h11.208c1.174,0,1.748-.025,2.472-.125v2.621c-.749-.1-1.397-.125-2.472-.125h-4.843v3.121h3.819c1.124,0,1.748-.025,2.472-.101v2.521c-.649-.074-1.373-.1-2.396-.1h-3.895v3.919h5.517c1.148,0,1.873-.05,2.646-.149v2.721c-.749-.1-1.598-.149-2.646-.149h-5.517v2.971c0,1.223.025,1.897.15,2.571h-2.946c.1-.699.15-1.323.15-2.597v-2.945h-8.063c-1.049,0-1.848.05-2.621.149v-2.721c.773.1,1.498.149,2.621.149h1.198v-4.918Zm6.865,4.918v-3.919h-4.344v3.919h4.344Z" fill="#231815"/><path d="m533.669,51.698c-2.472,1.447-3.171,2.172-3.171,3.27,0,.449.175.749.55.974.549.325,1.771.5,3.345.5,1.348,0,3.22-.125,4.493-.3.524-.075.824-.15,1.822-.399h.125c.175,0,.3.125.375.299.149.524.249,1.273.249,2.172,0,.375-.125.524-.449.6-.599.125-3.37.274-5.192.274-3.046,0-4.668-.199-5.866-.699-1.448-.599-2.172-1.722-2.172-3.295,0-1.448.674-2.721,2.021-3.794,1.074-.85,1.323-1.023,3.62-2.322-.199-.823-.574-1.173-1.348-1.173-1.023,0-2.098.399-3.271,1.173-.724.5-1.573,1.198-2.097,1.723-.749.774-.824.824-1.023.824-.25,0-.774-.574-1.299-1.448-.249-.425-.399-.749-.399-.924,0-.225.05-.274.649-.648,2.047-1.373,3.744-3.121,4.768-4.918-1.771.125-2.695.149-3.669.149-.375,0-.449-.074-.574-.499-.075-.324-.2-1.647-.225-2.321.849.124,1.348.149,2.546.149.974,0,2.047-.025,3.171-.075.523-1.423.698-2.321.724-3.494,2.222.374,3.245.748,3.245,1.173,0,.1-.025.149-.1.3-.175.324-.375.724-.699,1.498q-.05.1-.075.174c1.423-.199,2.672-.449,3.545-.648.55-.15.674-.175.799-.175.2,0,.3.075.35.225.1.449.25,1.598.25,1.947,0,.274-.101.399-.425.474-.799.226-3.545.649-5.841.874-.749,1.373-1.273,2.172-2.048,3.021,1.124-.524,1.973-.724,2.971-.724,1.124,0,1.872.649,2.372,2.047,2.471-1.348,3.794-2.072,3.944-2.172,1.147-.674,1.622-1.048,2.172-1.673,1.023,1.049,2.121,2.621,2.121,3.046,0,.149-.1.25-.424.324-1.224.325-3.495,1.299-7.289,3.146.024.449.074,1.598.074,2.396v1.198c0,.3-.05.449-.175.524-.125.125-.799.2-1.548.2-.849,0-.998-.075-.998-.475v-.1c.05-.725.075-1.673.075-2.272v-.124Z" fill="#231815"/><path d="m549.291,41.313c.549.1,1.023.124,1.922.124h5.916c.974,0,1.423-.024,1.923-.1v2.446c-.524-.05-.824-.074-1.823-.074h-6.016c-.824,0-1.398.024-1.922.1v-2.496Zm.823-3.346c.649.075,1.023.101,1.997.101h4.094c.974,0,1.349-.025,1.997-.101v2.347c-.674-.05-1.148-.075-1.997-.075h-4.094c-.849,0-1.397.025-1.997.075v-2.347Zm.05,21.568c.075-.749.125-1.497.125-2.321v-3.57c0-.773-.024-1.272-.1-1.896.574.05.974.074,1.847.074h4.693c.949,0,1.174,0,1.598-.074-.024.474-.05.849-.05,1.747v4.044c0,.55.025,1.248.075,1.673h-2.422v-.948h-3.245v1.272h-2.521Zm.025-14.578c.499.05.799.074,1.572.074h4.968c.774,0,1.073-.024,1.523-.074v2.246c-.574-.074-.799-.074-1.523-.074h-4.968c-.773,0-1.123.024-1.572.074v-2.246Zm0,3.37c.499.05.799.074,1.572.074h4.943c.799,0,1.098-.024,1.548-.074v2.246c-.5-.05-.799-.074-1.573-.074h-4.942c-.699,0-1.124.024-1.548.074v-2.246Zm2.446,7.813h3.295v-2.271h-3.295v2.271Zm9.735-.55c0,.449.125.6.55.699.449.1,1.148.15,2.097.15,1.897,0,2.621-.125,3.021-.475.35-.35.499-1.498.549-3.92.899.45,1.822.749,2.646.899-.175,2.796-.475,3.994-1.123,4.867-.6.824-1.873,1.099-5.143,1.099-4.394,0-5.242-.399-5.242-2.421v-8.438c0-1.173-.025-1.598-.101-2.371.699.075,1.398.1,2.396.1h5.367v-5.092h-5.517c-1.049,0-1.797.05-2.496.124v-2.721c.749.1,1.498.149,2.521.149h5.767c1.073,0,1.772-.024,2.471-.1-.074.898-.1,1.273-.1,2.422v5.317c0,.998.025,1.622.1,2.371-.799-.075-1.323-.1-2.396-.1h-5.367v7.438Z" fill="#231815"/><path d="m583.012,43.285c-1.897,1.224-3.37,1.947-5.542,2.771-.324-1.124-.499-1.598-1.023-2.547,2.446-.799,4.294-1.673,6.066-2.896,1.547-1.049,2.695-2.097,3.569-3.245h2.846c1.049,1.272,2.222,2.222,3.97,3.27,1.896,1.174,3.869,2.048,6.091,2.746-.624,1.248-.699,1.473-1.023,2.672-2.098-.85-3.92-1.748-5.617-2.771v1.348c-.574-.05-1.223-.074-1.947-.074h-5.417c-.749,0-1.248.024-1.972.074v-1.348Zm-6.565,14.005c1.473-1.848,2.146-3.171,2.796-5.592l2.321.923c-.948,3.171-1.447,4.244-2.846,6.366l-2.271-1.697Zm2.621-11.434c.574.075,1.023.1,1.848.1h11.033c1.023,0,1.573-.024,2.097-.1l1.623,1.673c-.35.299-.449.399-.874.799l-2.671,2.721c-.724.749-.823.874-1.323,1.498l-2.122-1.647c.6-.399,1.099-.799,1.498-1.198l1.498-1.498h-10.061c-1.298,0-1.897.024-2.546.125v-2.472Zm5.916,10.135c0,.824.324.924,2.946.924,3.47,0,3.544-.05,3.595-2.846.998.35,1.397.449,2.421.549-.225,2.672-.399,3.271-1.099,3.87-.399.35-.849.499-1.822.624-.648.05-2.146.124-3.245.124-2.196,0-3.495-.1-4.094-.324-.974-.324-1.248-.823-1.248-2.146v-2.871c0-.998-.025-1.473-.125-2.122h2.796c-.1.55-.125.824-.125,1.573v2.646Zm5.393-13.58h.599c-1.223-.823-2.371-1.822-3.444-2.995-1.074,1.223-2.022,2.097-3.221,2.995h6.066Zm-1.623,12.807c-1.447-1.897-2.246-2.671-3.969-4.02l1.822-1.272c1.747,1.348,2.521,2.071,4.068,3.77l-1.922,1.522Zm7.714,3.569c-1.123-2.671-1.697-3.744-3.345-6.041l2.121-1.148c1.474,1.973,2.272,3.246,3.521,5.567l-2.297,1.622Z" fill="#231815"/><path d="m609.918,38.467c.624.175.799.3.799.574,0,.175-.025.25-.149.6-.275.724-.475,1.997-.574,3.744-.2,4.02-.3,7.14-.3,9.611,0,.799.075,1.397.199,1.797.275.824,1.148,1.248,2.547,1.248,2.246,0,4.368-.923,6.315-2.745.898-.849,1.448-1.523,2.371-2.896.15.799.35,1.323.899,2.446.074.2.125.35.125.574,0,.45-.475,1.049-1.723,2.172-2.472,2.222-5.218,3.37-8.089,3.37-1.896,0-3.295-.474-4.193-1.373-.948-.998-1.323-2.296-1.323-4.768,0-1.947.025-3.445.225-9.262.025-.873.05-1.397.05-1.622,0-2.122-.024-2.746-.175-3.819,1.273.05,2.247.149,2.996.349Z" fill="#231815"/><path d="m627.688,45.382h-.15c-.125.025-.225.025-.274.025-.225,0-.35-.1-.425-.425-.149-.624-.249-1.397-.299-2.347.35.025.624.025.799.025,1.348,0,2.92-.1,4.243-.274.25-1.647.375-2.921.375-3.944v-.574c2.896.374,3.444.549,3.42.999,0,.124-.05.199-.15.424-.299.574-.324.649-.724,2.621.974-.175,2.222-.499,2.721-.674.101-.05.125-.05.2-.05.225,0,.274.1.475.974.1.499.199,1.198.199,1.397,0,.175-.075.274-.3.325q-.449.149-3.869.748c-1.148,5.068-2.347,8.812-4.269,13.306-.125.325-.25.449-.399.449-.324,0-1.198-.349-2.047-.823-.425-.225-.55-.35-.55-.475,0-.1.075-.274.2-.524,1.897-3.595,3.271-7.414,4.219-11.533-1.099.15-1.872.226-3.395.35Zm10.659,9.486c.724.475,1.772.699,3.245.699,1.622,0,3.021-.15,3.819-.399.199-.05.249-.075.35-.075.225,0,.324.075.399.3.175.524.299,1.548.299,2.321,0,.325-.1.449-.424.524-.824.175-2.222.274-3.694.274-3.121,0-4.868-.499-6.017-1.697-.424-.449-.773-1.023-.974-1.647-.149-.35-.249-.774-.249-.924,0-.425.748-.874,2.047-1.298.274,1.048.574,1.497,1.198,1.922Zm7.015-7.265c-.5-.074-1.548-.124-2.422-.124-1.847,0-2.621.074-4.817.449-.05.024-.125.024-.175.024-.15,0-.225-.05-.275-.199-.074-.175-.174-1.398-.174-1.923,0-.324.05-.474.249-.549.1-.05.25-.075.774-.175,1.697-.3,3.12-.424,4.867-.424,1.448,0,2.197.05,2.372.174.125.101.149.3.149,1.124,0,.724-.05,1.373-.1,1.522-.025.075-.125.125-.25.125-.05,0-.125,0-.199-.025Z" fill="#231815"/><path d="m653.196,40.189c0-.724-.025-1.048-.101-2.222.399.05.899.075,1.748.075h3.52c.974,0,1.473-.025,1.747-.125l1.373,1.697c-.149.275-.249.524-.724,1.822-.524,1.349-1.073,2.571-1.872,4.095,1.572,2.122,2.097,3.52,2.097,5.616,0,1.448-.574,2.347-1.697,2.722-.6.199-1.198.249-2.646.249-.05-1.148-.149-1.697-.499-2.521.35.075.773.101,1.049.101.924,0,1.248-.275,1.248-1.049,0-.824-.175-1.673-.524-2.446-.35-.799-.724-1.348-1.673-2.446,1.049-2.047,1.323-2.722,2.222-5.393h-2.771v16.276c0,.998.025,1.897.1,2.746h-2.746c.101-.724.15-1.647.15-2.746v-16.451Zm10.983,8.688v6.865c2.446-.55,2.696-.6,3.97-1.023l.05,2.421c-1.772.55-2.472.725-4.693,1.248-.999.25-1.099.275-2.396.55q-.549.125-.773.199c-.5.1-.725.175-.974.274l-.5-2.721c.5,0,1.349-.125,2.846-.399v-15.602c0-1.124-.024-1.648-.1-2.571.475.1,1.023.124,2.297.124h6.84c1.198,0,1.573-.024,2.247-.1-.05.524-.075,1.099-.075,2.646v5.566c0,1.349,0,1.798.075,2.571q-.499-.024-.649-.024l1.922,1.647c-.1.05-.474.35-.674.499-.674.624-2.222,1.797-3.22,2.496,1.198,1.473,2.546,2.496,4.418,3.42-.624.699-1.023,1.323-1.522,2.422-2.297-1.448-3.795-2.821-5.018-4.644-1.123-1.697-1.748-3.22-2.372-5.866h-1.697Zm0-6.391h6.291v-1.947h-6.291v1.947Zm0,4.219h6.291v-2.097h-6.291v2.097Zm4.02,2.172c.274,1.198.474,1.772.924,2.721,1.423-1.023,2.671-2.097,3.12-2.695-.35-.025-.774-.025-1.174-.025h-2.87Z" fill="#00a44f"/><path d="m689.663,46.605h-3.521c-1.048,0-1.747.024-2.446.125v-2.571c.649.1,1.323.125,2.446.125h9.162c1.148,0,1.797-.025,2.446-.125v2.571c-.649-.101-1.373-.125-2.446-.125h-3.12v3.021h4.493c1.099,0,1.723-.025,2.371-.125v2.546c-.698-.1-1.323-.124-2.371-.124h-4.493v4.144c1.198.149,2.471.225,3.919.225,1.373,0,2.995-.075,5.467-.274-.399.974-.574,1.598-.699,2.721-1.922.05-3.27.075-5.117.075-5.617,0-8.762-1.224-10.709-4.144-.799,1.722-1.698,2.995-3.271,4.692-.649-.873-.974-1.173-2.072-1.972,1.947-1.747,3.37-4.069,4.119-6.766.25-.948.475-2.047.475-2.571l2.671.5c-.1.374-.125.449-.35,1.423-.1.499-.199.823-.599,2.146.974,1.697,1.947,2.597,3.645,3.32v-8.837Zm-.399-7.714c0-.599-.025-.998-.125-1.522h2.921c-.1.524-.125.873-.125,1.498v.898h6.466c.974,0,1.822-.025,2.646-.1-.074.573-.1,1.098-.1,1.771v1.873c0,.724.025,1.272.1,1.896h-2.596v-3.021h-15.452v3.021h-2.646c.075-.574.1-1.098.1-1.896v-1.873c0-.624-.024-1.248-.1-1.771.823.074,1.673.1,2.671.1h6.241v-.874Z" fill="#00a44f"/><path d="m715.146,39.815c2.072,0,3.646-.025,6.716-.1,1.099-.05,1.473-.075,1.822-.175.249-.075.324-.075.424-.075.475,0,.924.374,1.648,1.348.624.824.873,1.323.873,1.698,0,.274-.125.449-.399.624-.399.249-.474.324-.974.998-.898,1.248-1.997,2.422-3.595,3.895-.648.599-.873.749-1.123.749-.175,0-.3-.05-.425-.2-.599-.698-1.147-1.123-2.047-1.598,1.923-1.173,3.221-2.421,4.743-4.593q-12.855.1-14.329.35c-.199.05-.274.05-.324.05-.374,0-.599-.225-.724-.724-.175-.675-.275-1.474-.325-2.547,1.249.225,3.37.3,8.038.3Zm2.022,4.768c.499.125.699.274.699.524q0,.1-.15.425c-.124.324-.249.873-.374,1.722-.499,3.396-1.273,5.643-2.571,7.465-1.049,1.447-2.696,2.87-4.144,3.569-.175.1-.375.149-.475.149-.225,0-.374-.074-.549-.299-.5-.6-1.099-1.049-1.947-1.548,1.423-.674,2.222-1.174,3.096-1.922,2.396-2.072,3.594-5.118,3.594-9.137,0-.574,0-.924-.05-1.373,1.198.074,2.048.199,2.871.424Z" fill="#00a44f"/><path d="m741.554,50.5c0,3.145.05,5.467.15,7.164v.175c0,.274-.075.374-.325.399-.324.075-1.373.125-2.196.125-.774,0-.849-.05-.849-.475v-.125c.1-1.272.149-4.119.149-7.264v-3.296c-1.697,1.099-2.521,1.598-3.969,2.347-1.798.949-2.672,1.323-2.996,1.323-.199,0-.35-.075-.524-.274-.724-.824-1.123-1.148-2.097-1.822,3.195-1.174,5.018-2.047,7.239-3.445,2.746-1.723,5.617-4.119,7.239-6.041.35-.399.5-.624.824-1.173,1.572,1.048,2.696,2.097,2.696,2.571,0,.149-.101.274-.399.399-.449.199-.624.324-1.798,1.348-1.099.974-2.172,1.848-3.146,2.571v5.492Z" fill="#00a44f"/><path d="m753.407,47.754c-.274.024-.449.024-.549.024s-.175,0-.225.025h-.225c-.25,0-.425-.125-.475-.425-.125-.599-.199-1.423-.199-2.571,1.098.125,1.322.125,3.844.175,3.271.05,5.242.075,5.916.075,4.169,0,9.037-.075,9.812-.149h.225c.349,0,.349.024.349,1.672,0,1.099-.05,1.224-.398,1.224h-.175c-1.148-.05-1.623-.05-7.489-.125-.1,1.897-.2,2.696-.524,3.845-.773,2.82-2.247,4.793-4.743,6.341-.699.449-1.248.698-1.473.698-.125,0-.225-.05-.425-.249-.898-.899-1.198-1.148-2.097-1.598,4.419-2.072,6.041-4.443,6.191-9.062-4.045.024-5.417.05-7.34.1Zm8.713-8.438c2.396,0,5.018-.075,6.065-.2h.125c.35,0,.425.175.425.948v.524c0,.15,0,.399-.025.699,0,.674-.05.749-.524.749h-.3c-.674-.025-5.242-.1-6.365-.1-2.995,0-5.167.05-5.966.149-.075.025-.15.025-.2.025-.25,0-.374-.101-.424-.325-.101-.523-.2-1.723-.2-2.695,1.073.124,4.318.225,7.39.225Z" fill="#00a44f"/><path d="m783.16,53.745c2.97-.25,5.441-.524,6.914-.774-.974-1.723-1.872-3.095-2.771-4.144-.1-.125-.149-.225-.149-.35,0-.225.274-.425,1.248-.998.449-.25.624-.3.873-.3.2,0,.325.05.475.199,1.298,1.323,2.821,3.57,4.069,6.017.674,1.348,1.248,2.771,1.248,3.096,0,.225-.25.449-.824.749-.749.374-1.473.648-1.723.648-.225,0-.374-.149-.499-.499-.175-.6-.474-1.323-.799-2.072-2.097.375-3.645.624-4.668.774-3.47.499-4.394.624-8.737,1.048-.849.101-1.273.175-1.822.399-.1.025-.175.05-.274.05-.2,0-.35-.1-.475-.349-.399-.749-.648-1.648-.823-2.896q.624.025.674.025.524,0,2.396-.125.175-.399.524-1.173c1.323-2.871,3.045-8.039,3.944-11.733.299-1.148.399-1.772.449-2.596,1.198.199,2.196.449,3.021.724.524.175.749.324.749.549,0,.125-.051.2-.325.524-.124.175-.399.725-.549,1.148-.1.225-.35,1.023-1.323,4.094-.749,2.247-2.196,5.991-3.195,8.188.949-.1,1.897-.175,2.372-.225Z" fill="#00a44f"/><path d="m815.708,41.238c3.369,0,5.491,2.021,5.491,5.268,0,3.22-2.347,5.143-6.24,5.143-.849,0-1.723-.101-2.047-.226-.2-.074-.3-.199-.35-.424-.175-.824-.5-1.623-1.099-2.621,1.548.374,2.496.524,3.545.524,2.021,0,3.22-.924,3.22-2.521,0-.624-.175-1.248-.424-1.598-.449-.624-1.423-1.023-2.547-1.023-1.423,0-3.395.624-7.514,2.396q1.573,3.919,2.446,6.315c1.049,2.821,1.923,5.367,1.923,5.592,0,.2-.15.324-.649.549-.724.325-1.647.624-1.973.624-.249,0-.274-.05-.523-.973-1.148-4.194-2.172-7.24-3.695-10.959-1.896.873-2.796,1.373-3.319,1.872-.15.125-.3.199-.475.199-.324,0-.624-.249-1.099-.923-.499-.699-.699-1.074-1.123-1.873,1.598-.449,2.621-.799,4.968-1.772-1.298-2.971-1.473-3.319-2.446-4.568,1.598-.624,2.496-.898,3.07-.898.524,0,.648.15.724.824.075.698.125.948.425,1.647.024.05.249.574.773,1.922,2.197-.898,2.971-1.198,4.618-1.723-.1-.05-.125-.074-.199-.175-.849-1.098-1.373-1.647-2.472-2.571-.05-.1-.075-.149-.075-.225q0-.149.849-.898c.325-.3.824-.599.974-.599.125,0,.25.05.399.149,1.523,1.148,2.571,2.197,2.571,2.621,0,.2-.749,1.023-1.348,1.473,1.373-.374,2.571-.549,3.62-.549Z" fill="#231815"/><path d="m167.491,77.592c-.225,1.298-.449,2.297-.874,3.52-.699-.499-1.248-.773-2.072-1.048.724-1.947,1.198-4.769,1.198-7.14,0-.175,0-.324-.025-.6l2.347.275c-.1.424-.1.474-.15,1.248,0,0-.075.599-.125,1.323h1.098v-2.821c0-.749-.05-1.323-.15-1.972h2.821c-.1.624-.149,1.197-.149,1.972v2.821h.2c.874,0,1.398-.025,1.922-.125v2.496c.799.075,1.323.1,2.197.1h2.721v-2.347h-1.997c-.974,0-1.772.05-2.471.125v-2.621c.773.125,1.373.149,2.471.149h1.997v-.748c0-.675-.05-1.224-.125-1.798h2.771c-.075.524-.125,1.049-.125,1.772v.773h2.621c1.098,0,1.722-.024,2.496-.149v2.621c-.699-.075-1.522-.125-2.496-.125h-2.621v2.347h3.245c1.223,0,2.072-.05,2.696-.149v2.596c-.724-.074-1.598-.124-2.496-.124h-.15v1.996h.225c1.124,0,1.772-.024,2.347-.124v2.646c-.724-.1-1.398-.149-2.347-.149h-.225v5.741c0,1.772-.774,2.247-3.545,2.247-.399,0-1.373-.025-2.047-.05-.075-1.099-.25-1.848-.624-2.621,1.323.175,2.147.249,2.821.249.749,0,.899-.124.899-.749v-4.817h-6.291c-.974,0-1.548.024-2.322.149v-1.098c-.599.274-1.223.549-1.747.748v5.717c0,1.023.05,1.947.149,2.771h-2.821c.075-.55.15-1.673.15-2.771v-4.768q-.874.324-1.598.574c-1.273.449-1.573.574-1.822.699l-.599-2.722c.849-.125,1.772-.374,4.019-1.099v-4.942h-1.398Zm3.919,4.069c.874-.325,1.198-.449,2.097-.824v1.049c.599.05,1.273.074,2.297.074h5.966v-1.996h-6.042c-1.248,0-1.972.024-2.696.124v-2.446c-.524-.05-.799-.05-1.223-.05h-.399v4.069Zm4.768,2.796c1.198,1.099,2.122,2.172,3.145,3.669l-2.097,1.573c-.949-1.598-1.647-2.496-3.045-3.944l1.997-1.298Z" fill="#00a44f"/><path d="m201.586,88.251c-1.522,1.323-2.321,1.897-3.669,2.671-1.298.725-2.172,1.099-3.919,1.673-.624-1.223-.948-1.647-1.772-2.421,1.798-.425,2.646-.699,3.895-1.299,1.273-.624,2.022-1.098,3.395-2.246l2.072,1.622Zm-1.772-15.552c0-1.148-.025-1.598-.149-2.172h2.696c-.125.624-.15,1.023-.15,2.222v.599h2.796v-.599c0-1.248-.025-1.673-.125-2.222h2.671c-.125.699-.15,1.123-.15,2.196v.624h3.096c1.198,0,1.897-.024,2.372-.074-.075.499-.1,1.148-.1,2.047v8.762c.874-.024,1.298-.05,1.897-.149v2.746c-.749-.1-1.647-.15-2.821-.15h-16.501c-1.173,0-2.072.051-2.821.15v-2.746c.599.1.999.125,1.897.149v-8.787c0-.849-.025-1.423-.1-2.021.624.05,1.298.074,2.322.074h3.17v-.648Zm0,3.021h-2.796v2.871h2.796v-2.871Zm0,5.167h-2.796v3.195h2.796v-3.195Zm5.192-2.296v-2.871h-2.796v2.871h2.796Zm0,5.491v-3.195h-2.796v3.195h2.796Zm1.997,2.571c1.373,1.049,2.072,1.473,3.32,2.072,1.448.699,2.421,1.023,4.344,1.448-.749.948-.899,1.198-1.548,2.546-1.872-.549-2.871-.974-4.344-1.798-1.323-.724-2.122-1.298-3.694-2.621l1.922-1.647Zm3.17-8.062v-2.871h-2.771v2.871h2.771Zm0,5.491v-3.195h-2.771v3.195h2.771Z" fill="#00a44f"/><path d="m224.323,76.694c0-2.771-.1-4.219-.299-5.018,1.223.074,1.972.149,2.571.225.773.1.923.175.923.499,0,.1-.025.175-.075.35-.2.475-.225.799-.274,3.944.624,0,2.471,0,5.566-.025,0-2.846-.075-3.969-.274-5.167,1.348.074,2.097.149,2.821.274.524.075.674.175.674.425,0,.149-.025.225-.175.624-.075.175-.15.948-.175,1.747v2.072c2.546-.05,3.47-.075,4.219-.15.075-.024.175-.024.225-.024.15,0,.25.05.3.125.075.149.125.748.125,1.572,0,1.123-.05,1.273-.399,1.273q-.125,0-.624-.05-.799-.075-3.894-.075c-.15,3.744-.649,5.741-1.897,7.738-1.073,1.723-2.471,2.996-4.394,4.069-.674.374-1.573.724-1.822.724-.225,0-.25-.024-.774-.574-.549-.599-.899-.849-1.672-1.323,3.595-1.298,5.467-2.771,6.615-5.191.699-1.498.999-2.971,1.098-5.468h-1.598c-.225,0-.923,0-1.972.025-.449.024-1.148.024-2.022.05q0,1.772.05,4.02v.299c0,.375-.075.5-.35.6-.3.074-1.074.149-1.723.149-.824,0-.949-.075-.949-.524v-.374c.1-2.271.125-2.671.15-4.119-1.298.025-3.52.149-4.194.25-.05.024-.1.024-.15.024-.2,0-.324-.074-.374-.299-.125-.45-.25-1.623-.3-2.871,1.273.149,1.997.175,4.069.175h.974Z" fill="#00a44f"/><path d="m254.25,80.014c4.568,0,7.189-.05,9.71-.225h.325c.749,0,.749.024.749,2.021,0,1.023-.075,1.198-.5,1.198h-.1c-1.648-.075-2.571-.075-9.786-.075-2.646,0-3.969.025-6.266.101h-.724c-.799,0-.924.024-1.398.1-.125,0-.225.025-.275.025-.274,0-.449-.125-.499-.35-.15-.624-.25-1.897-.25-3.046,2.022.2,3.794.25,9.012.25Z" fill="#00a44f"/><path d="m275.864,86.729c.399.599,1.498.823,3.895.823,2.347,0,3.545-.1,7.04-.573.075-.025.15-.025.225-.025.25,0,.375.125.424.399.075.399.2,1.647.2,2.072,0,.374-.125.549-.474.648-.774.175-4.269.375-7.115.375-2.896,0-4.369-.2-5.542-.749-.874-.425-1.448-1.123-1.648-1.997-.125-.6-.174-1.148-.174-2.146v-.974c.05-2.622.05-2.946.05-4.669,0-4.318-.075-5.891-.3-7.064,3.071.25,3.745.399,3.745.874,0,.125-.025.175-.15.449-.075.175-.149.499-.225.999-.1.748-.125,1.322-.125,2.646-.025.974-.025,1.647-.025,2.022,4.319-1.273,7.839-3.021,9.287-4.618,1.223,1.522,1.947,2.671,1.947,3.021,0,.225-.1.299-.599.474-.35.125-.999.399-1.972.899-3.071,1.473-5.268,2.271-8.688,3.195,0,3.12.025,3.595.225,3.919Zm11.234-10.734c-.524-.998-1.049-1.673-1.848-2.521q-.149-.175-.149-.249c0-.15.125-.3.574-.624.375-.275.574-.375.699-.375.2,0,.474.225,1.073.874.799.924,1.373,1.697,1.373,1.922,0,.25-1.123,1.174-1.448,1.174-.125,0-.175-.051-.274-.2Zm2.846-1.522c-.1,0-.15-.05-.25-.225-.674-1.074-1.099-1.647-1.873-2.446-.1-.101-.125-.125-.125-.2,0-.199.974-.948,1.223-.948.225,0,.524.249,1.073.849.724.773,1.348,1.647,1.348,1.872,0,.25-1.073,1.099-1.398,1.099Z" fill="#00a44f"/><path d="m311.833,86.155c1.598,1.448,2.571,2.496,2.571,2.771,0,.225-.325.625-1.098,1.373-.574.55-.824.725-.999.725-.1,0-.225-.05-.374-.175q-.275-.325-1.423-1.623c-1.373-1.548-3.246-3.195-5.417-4.743-1.647,1.723-3.869,3.595-5.667,4.818-1.423.974-2.771,1.723-3.07,1.723-.25,0-.275-.025-.874-.699-.35-.399-.923-.898-1.548-1.348,2.871-1.323,4.993-2.746,7.364-4.918,2.571-2.347,4.269-4.519,6.266-7.964q-8.438.05-9.811.2c-.3.024-.35.024-.399.024-.275,0-.424-.124-.475-.399-.125-.799-.175-1.547-.175-2.87,1.698.225,4.344.324,7.963.324,1.473,0,3.021-.05,3.845-.149.324-.025.374-.051.898-.225.1-.051.15-.051.3-.051.424,0,.874.35,1.473,1.148.474.674.749,1.198.749,1.473,0,.3-.075.4-.724.999-.399.399-.574.599-1.348,1.872-.749,1.248-1.897,2.821-2.846,3.97,1.947,1.298,3.27,2.296,4.818,3.744Z" fill="#00a44f"/><path d="m320.466,86.18c.449-.399.574-.5.749-.5.324,0,1.822,1.099,2.92,2.147,1.248,1.148,2.646,2.82,2.646,3.17,0,.225-.05.274-.773.924-.949.874-1.148,1.023-1.323,1.023-.15,0-.3-.1-.424-.35-.874-1.548-2.871-3.595-4.643-4.743-.2-.149-.3-.249-.3-.399,0-.175.05-.249,1.148-1.272Z" fill="#231815"/><path d="m346.975,83.609c0,3.145.05,5.467.149,7.164v.175c0,.274-.075.374-.324.399-.325.075-1.373.125-2.197.125-.774,0-.849-.05-.849-.475v-.125c.1-1.272.15-4.119.15-7.264v-3.296c-1.697,1.099-2.521,1.598-3.969,2.347-1.797.949-2.671,1.323-2.996,1.323-.2,0-.349-.075-.524-.274-.724-.824-1.124-1.148-2.097-1.822,3.195-1.174,5.018-2.047,7.24-3.445,2.746-1.723,5.617-4.119,7.239-6.041.35-.399.499-.624.824-1.173,1.573,1.048,2.696,2.097,2.696,2.571,0,.149-.1.274-.399.399-.449.199-.624.324-1.797,1.348-1.098.974-2.171,1.848-3.145,2.571v5.492Z" fill="#00a44f"/><path d="m360.227,78.242c1.248-1.398,1.448-1.623,1.922-1.923.524-.324.923-.449,1.573-.449.724,0,1.173.15,1.747.55q.424.274,1.997,1.872c1.623,1.673,3.895,3.694,5.717,5.117,1.223.974,1.947,1.473,3.645,2.546.25.15.35.275.35.425,0,.175-.2.624-.699,1.448-.574.998-.874,1.348-1.173,1.348-.125,0-.25-.05-.399-.149-3.121-2.222-6.091-4.868-9.461-8.413-1.248-1.323-1.323-1.397-1.748-1.397-.274,0-.449.1-.724.374-.225.25-1.797,2.271-2.596,3.32-.624.823-.649.874-1.198,1.498-.375.399-.475.523-.599.748-.175.3-.3.4-.475.4-.274,0-.773-.375-1.373-1.049-.399-.449-.624-.749-1.198-1.598,1.173-.749,2.097-1.673,4.693-4.668Zm11.034.1c-.499-.924-1.073-1.723-1.847-2.521-.125-.125-.15-.175-.15-.225,0-.149.15-.324.574-.624.399-.274.549-.374.699-.374.225,0,.449.174,1.073.873.799.898,1.373,1.673,1.373,1.872,0,.15-.075.25-.375.5-.549.474-.898.698-1.099.698-.1,0-.174-.05-.25-.199Zm3.52-1.872c-.175.1-.399.249-.475.3q-.025,0-.1.024c-.05,0-.075.025-.1.025-.075,0-.15-.075-.25-.225-.674-1.099-1.223-1.823-1.872-2.447-.025-.024-.075-.1-.15-.199,0-.05.2-.25.399-.399.399-.274.799-.499.849-.499q.3.05.574.299c.749.675,1.873,2.122,1.873,2.396,0,.125-.25.375-.749.725Z" fill="#00a44f"/><path d="m400.888,77.966c.125.25.175.425.175.574,0,.25-.1.425-.424.874-1.374,1.798-2.846,3.245-5.068,4.968-2.497,1.947-4.619,3.245-7.614,4.668-1.922.898-2.022.949-2.322,1.224-.2.199-.3.249-.449.249-.225,0-.424-.199-.799-.748-.5-.749-.974-1.772-1.249-2.646,2.521-.574,5.542-1.922,8.463-3.77,3.844-2.422,6.266-4.818,8.138-8.088.274.924.499,1.423,1.148,2.695Zm-16.625-4.193c.424-.475.599-.6.824-.6.475.025,2.347,1.224,3.895,2.472.948.774,1.248,1.099,1.248,1.349,0,.174-.449.849-1.048,1.522-.549.624-.824.849-1.024.849q-.174,0-1.198-.974c-.649-.624-1.947-1.673-2.596-2.072q-.874-.574-1.049-.674c-.1-.075-.149-.149-.149-.225,0-.225.474-.924,1.098-1.647Z" fill="#00a44f"/><path d="m412.243,84.008c0,1.522.074,5.592.124,6.765v.125c0,.225-.05.399-.175.475-.174.149-1.173.274-2.097.274-.799,0-.948-.075-.948-.574v-.1c.05-.649.125-7.839.125-10.81,0-5.741-.051-7.364-.275-8.812,1.798.125,2.597.2,3.32.35.25.075.375.2.375.399q0,.125-.101.55c-.1.299-.149.648-.175,1.048,0,.05-.05,1.548-.124,4.494q1.772.499,2.796.873c2.496.874,3.919,1.523,6.141,2.696.2.149.3.274.3.425,0,.249-.449,1.447-.849,2.196-.2.425-.325.549-.475.549-.1,0-.225-.05-.399-.174-2.446-1.623-5.018-2.821-7.563-3.57v2.821Z" fill="#00a44f"/><path d="m429.363,80.288c-.2.05-.3.1-.449.175-.125.074-.2.1-.3.1-.549,0-.949-.948-1.248-2.796h.474c1.049,0,3.72-.324,5.317-.649.524-2.172.799-3.844.799-5.018,0-.1,0-.249-.024-.424,1.073.1,2.097.324,2.796.624.399.149.599.35.599.599,0,.125-.024.225-.149.425q-.375.648-1.148,3.395c.599-.074,1.273-.124,1.697-.124,1.023,0,1.822.199,2.396.599.999.724,1.498,2.197,1.498,4.469,0,3.72-.674,6.915-1.822,8.487-.799,1.099-1.848,1.623-3.32,1.623-.898,0-1.747-.125-1.997-.275q-.199-.124-.274-1.048c-.075-.674-.225-1.273-.524-1.973,1.298.449,1.623.524,2.422.524,1.198,0,1.697-.574,2.246-2.596.375-1.323.574-3.021.574-4.868,0-1.947-.474-2.646-1.797-2.646-.449,0-1.174.075-1.748.15-.074.299-.1.324-.199.648-.699,2.571-1.973,5.917-3.245,8.612-1.323,2.722-1.647,3.271-1.973,3.271-.199,0-.873-.35-1.598-.824-.574-.349-.724-.499-.724-.698q0-.125,1.023-1.748c1.373-2.121,3.17-6.266,3.794-8.737-1.847.425-2.87.649-3.095.725Zm15.677-5.117c-.399.299-.674.424-.799.424-.075,0-.149-.05-.225-.175-.524-.849-1.398-1.822-2.122-2.446-.05-.05-.075-.1-.075-.149,0-.101.175-.275.6-.6.424-.3.549-.374.724-.374.399,0,2.597,2.222,2.597,2.621,0,.149-.2.324-.699.699Zm-2.646,2.646c0-.175.225-.399.949-.974.499-.374.749-.524.948-.524.324,0,1.448,1.198,2.496,2.672.874,1.248,1.822,3.021,1.822,3.444,0,.25-.074.324-.873.974-.499.399-1.073.724-1.273.724-.175,0-.25-.074-.425-.499-.474-1.198-.898-2.021-1.572-3.096-.674-1.073-.724-1.123-1.922-2.421-.1-.125-.15-.2-.15-.3Zm3.271-7.664c.425,0,2.546,2.122,2.546,2.547,0,.125-.149.274-.648.624-.449.35-.674.475-.774.475q-.124,0-.624-.699c-.424-.574-1.223-1.423-1.672-1.798-.075-.074-.125-.124-.125-.199,0-.2,1.023-.949,1.298-.949Z" fill="#231815"/><path d="m457.093,89.525c0,1.423.025,2.222.125,2.921h-2.771c.1-.699.149-1.473.149-2.971v-15.802c0-1.273-.024-1.923-.1-2.696.648.075,1.273.1,2.446.1h4.344c1.273,0,1.822-.024,2.472-.1-.051.724-.075,1.373-.075,2.222v3.67c0,1.098,0,1.498.05,2.146-.773-.024-1.298-.05-2.197-.05h-4.443v10.56Zm0-15.402h4.244v-1.248h-4.244v1.248Zm0,2.995h4.244v-1.298h-4.244v1.298Zm3.994,7.14c.051-.849.051-1.148.051-2.222-1.124,0-1.748.025-2.396.1v-2.146c.648.075,1.298.1,2.421.1h6.965c1.173,0,1.822-.024,2.496-.1v2.146c-.674-.074-1.272-.1-2.496-.1v2.222h.35c1.198,0,1.797-.024,2.472-.1v2.172c-.749-.075-1.273-.1-2.472-.1h-.35v3.545c0,1.098.025,1.572.1,2.047h-2.496c.1-.6.125-.999.125-2.047v-3.545h-2.696c-.25,2.521-1.049,4.119-2.921,5.916-.624-.674-1.073-1.073-1.922-1.647,1.622-1.248,2.271-2.321,2.596-4.269-1.298,0-1.922.024-2.546.1v-2.172c.649.075,1.248.1,2.472.1h.249Zm2.297-2.222q0,1.023-.075,2.222h2.547v-2.222h-2.472Zm11.358,7.464c0,2.122-.724,2.672-3.42,2.672-.399,0-.724,0-1.572-.051-.125-1.073-.25-1.572-.649-2.521.924.124,1.647.175,2.222.175.773,0,.924-.101.924-.625v-10.185h-4.718c-.799,0-1.648.025-2.197.05.075-.823.075-.998.075-2.146v-3.67c0-.948-.025-1.572-.075-2.222.649.075,1.224.1,2.446.1h4.594c1.198,0,1.797-.024,2.471-.1-.074.874-.1,1.473-.1,2.671v15.852Zm-6.965-15.377h4.469v-1.248h-4.469v1.248Zm0,2.995h4.469v-1.298h-4.469v1.298Z" fill="#231815"/><path d="m497.079,89.325h3.844c1.099,0,1.474-.024,1.997-.1v2.446c-.974-.1-1.797-.149-2.646-.149h-9.536v1.049h-2.597c.101-.749.15-1.474.15-2.722v-5.392c0-.375,0-.774.024-1.498-.424.699-.799,1.173-1.497,1.897-.375-.874-.574-1.224-.974-1.772v6.516c0,1.298.024,1.997.1,2.945h-2.871c.1-.924.15-1.598.15-2.871v-6.341c0-.748,0-1.697.05-3.12-.899,1.498-1.074,1.747-1.673,2.446-.25-1.098-.599-2.122-1.023-3.021,1.673-1.872,2.796-3.869,3.694-6.54.35-1.073.6-2.147.674-2.871l2.621.874c-.149.399-.174.449-.399,1.123-.324,1.049-.773,2.247-1.322,3.545v6.591c1.847-1.673,3.146-3.521,4.094-5.867l2.496.624c-.274.574-.399.774-.898,1.623h3.395c.6-.824.999-1.548,1.224-2.247l2.496.475c-.399.699-.823,1.398-1.073,1.772h2.995c.949,0,1.573-.025,2.223-.125v2.422c-.574-.075-1.174-.101-1.947-.101h-3.77v1.349h2.796c1.123,0,1.473-.025,2.047-.1v2.296c-.724-.074-1.148-.1-2.022-.1h-2.82v1.298h2.82c1.074,0,1.473-.024,2.022-.1v2.297c-.649-.075-1.123-.1-1.997-.1h-2.846v1.547Zm-3.396-16.975c0-.824-.05-1.348-.149-1.848h2.696c-.075.524-.101.999-.101,1.872v1.748h3.521v-1.099c0-.674-.025-1.048-.075-1.622h2.646c-.075.523-.101,1.073-.101,1.797v1.623c0,.923,0,1.073.05,1.572-.773-.025-.849-.025-1.697-.025h-10.909c-.898,0-1.048,0-1.672.051.024-.475.05-.824.05-1.648v-1.822c0-.549-.05-1.073-.1-1.547h2.596c-.05.523-.075,1.048-.075,1.647v1.073h3.32v-1.772Zm1.023,9.936v-1.349h-3.969v1.349h3.969Zm-3.969,3.395h3.969v-1.298h-3.969v1.298Zm0,3.645h3.969v-1.547h-3.969v1.547Z" fill="#231815"/><path d="m518.443,71.526c0,.624.3,1.798.898,3.37,1.923-.474,3.046-.873,5.667-1.997.149-.05.225-.074.3-.074.249,0,.424.449.799,2.071.024.125.024.15.05.25.024.05.024.075.024.1,0,.175-.1.274-.349.375-1.273.549-2.722.998-5.393,1.697,1.298,2.421,3.146,4.519,4.942,5.566.125.075.2.175.2.3,0,.3-.549,1.473-.974,2.072-.225.324-.374.449-.599.449-.175,0-.226-.025-.55-.274-.524-.375-1.772-.949-2.671-1.198-1.073-.3-2.047-.425-3.195-.425-2.945,0-4.443.824-4.443,2.422,0,.898.475,1.522,1.498,2.021,1.173.574,3.319.898,5.841.898.749,0,1.248-.024,1.997-.124-.399.773-.524,1.098-.998,2.646-.125.375-.325.475-.999.475-1.673,0-3.77-.225-5.042-.524-3.32-.823-5.218-2.696-5.218-5.192,0-1.198.475-2.371,1.298-3.22,1.148-1.124,2.996-1.748,5.367-1.748,1.548,0,2.547.175,3.869.699-1.447-1.548-2.172-2.546-3.045-4.244-1.523.275-2.796.45-4.269.6-.874.075-2.796.199-3.171.199-.35,0-.449-.074-.574-.499-.149-.475-.274-1.273-.399-2.371.824.024,1.224.05,1.673.05,1.498,0,3.969-.2,5.592-.449-.225-.5-.649-1.573-.898-2.247-.399-1.099-.574-1.498-.899-2.047,1.174-.2,2.446-.324,3.021-.324.475,0,.649.124.649.424v.274Z" fill="#231815"/><path d="m535.864,78.017c-1.124.225-2.197.499-2.896.748-.175.075-.324.101-.449.101-.225,0-.35-.125-.499-.55-.175-.549-.35-1.423-.449-2.296.374.024.549.05.773.05.949,0,1.973-.125,3.545-.425l.05-1.498c.025-.349.025-.599.025-.674,0-1.073-.025-1.723-.125-2.396,1.323.05,2.146.15,2.945.35.325.075.475.225.475.449,0,.101-.025.175-.149.449-.225.475-.25.774-.425,2.847.549.374,1.023.898,1.023,1.147,0,.15-.074.275-.3.55-.374.399-.499.574-.974,1.272q-.05.649-.05.824c.824-.724,1.373-1.198,2.222-1.822.949-.724,1.997-1.398,2.746-1.772.974-.524,1.647-.699,2.547-.699,1.322,0,2.271.5,2.796,1.448.299.599.424,1.173.424,2.146,0,.849-.05,1.647-.199,3.47-.2,2.147-.3,3.745-.3,4.719s.225,1.272.924,1.272c.998,0,2.222-.724,3.295-1.946.025.973.1,1.272.425,2.271.074.199.1.324.1.424,0,.275-.125.5-.55.824-1.023.823-2.496,1.348-3.819,1.348-2.196,0-3.195-1.148-3.195-3.669,0-1.148.075-2.622.325-6.116.074-.824.1-1.523.1-1.872,0-1.024-.35-1.498-1.099-1.498-.773,0-2.222.799-4.193,2.321-.999.749-1.573,1.273-2.621,2.347v1.148c0,1.872.124,6.19.225,7.714v.299c0,.2-.025.275-.075.35-.125.15-.849.25-1.997.25-.724,0-.874-.1-.874-.524,0-.149,0-.399.025-.674v-.574q.025-.874.125-5.617-1.423,1.848-2.271,3.221c-.225.35-.375.475-.574.475s-.649-.399-1.423-1.248c-.475-.55-.649-.774-.649-.924,0-.125.05-.225.225-.399,1.572-1.623,2.896-3.171,4.768-5.518l.051-2.121Z" fill="#231815"/><path d="m565.892,79.764q-.051-1.224-.075-2.771c-.225.024-.449.024-.55.024-1.647,0-3.769-.175-4.643-.399-.25-.075-.3-.125-.3-.374,0-.55.075-1.224.25-2.197,1.397.274,3.12.449,4.618.449.125,0,.35,0,.624-.024v-1.647c0-.874-.025-1.273-.075-2.147,1.248.075,2.097.15,2.696.3.499.1.649.225.649.499,0,.125-.025.175-.2.574-.175.425-.199.524-.3,2.247,1.498-.175,2.696-.425,3.869-.774.075-.024.101-.024.125-.024.175,0,.175.024.449.823.175.524.35,1.174.35,1.373,0,.175-.074.275-.324.35-.824.274-2.971.649-4.543.824,0,1.772,0,1.847.024,2.721,1.748-.225,2.696-.475,4.668-1.198.125-.05.175-.075.25-.075.149,0,.2.075.449.675.25.624.475,1.322.475,1.572,0,.125-.1.225-.274.3-1.373.499-3.87,1.098-5.442,1.272.05.949.1,1.474.25,3.421,1.397.424,1.972.648,3.045,1.223,1.198.6,1.848,1.023,2.921,1.872.2.15.274.274.274.475,0,.175-.225.599-.698,1.348-.55.824-.824,1.148-.999,1.148-.075,0-.149-.024-.225-.1-1.498-1.423-2.472-2.122-4.144-2.945-.101,1.198-.375,1.872-1.049,2.496-.849.823-2.271,1.272-4.044,1.272-3.07,0-4.968-1.348-4.968-3.52,0-.948.399-1.872,1.073-2.496.974-.898,2.446-1.373,4.318-1.373.6,0,1.124.05,1.748.125-.125-1.623-.175-2.197-.2-2.721-.574.024-.898.024-1.198.024-1.723,0-3.819-.274-4.992-.624-.25-.075-.35-.199-.35-.399,0-.374.149-1.173.374-2.196,1.548.374,3.521.599,5.367.599h.725Zm-1.723,7.614c-1.598,0-2.472.474-2.472,1.322,0,.749.724,1.148,2.122,1.148,1.622,0,2.371-.574,2.371-1.822v-.424c-.648-.175-1.148-.225-2.021-.225Z" fill="#231815"/><path d="m590.376,76.968c-5.467.35-7.589.574-9.162.998-.1.025-.199.051-.274.051-.175,0-.324-.125-.399-.325-.225-.624-.35-1.447-.424-2.695h.599c.799,0,1.548-.025,3.944-.175,1.848-.101,3.42-.175,5.667-.25-.025-2.247-.05-2.596-.275-3.72,1.923.05,2.896.125,3.246.274.149.075.225.2.225.449,0,.051-.025.15-.075.275-.225.549-.3,1.098-.35,2.646,3.645-.1,4.194-.1,6.69-.1.674,0,.773,0,.849.075.1.1.149.474.149,1.323,0,1.147-.024,1.272-.35,1.272h-.1c-1.073-.1-3.744-.199-5.492-.199q-.573,0-1.822.024l-.05,4.095c.375.823.5,1.522.5,2.721,0,3.12-1.148,5.517-3.57,7.289-.998.749-2.271,1.398-2.721,1.398-.225,0-.35-.075-.55-.275-.698-.799-1.223-1.198-2.121-1.697,1.497-.424,2.271-.773,3.245-1.373.724-.474,1.373-.998,1.847-1.522.325-.399.574-.774.949-1.573-.725.749-1.323,1.024-2.247,1.024-2.097,0-3.47-1.598-3.47-4.02,0-2.546,1.622-4.394,3.869-4.394.724,0,1.173.1,1.673.324v-1.922Zm-3.021,5.842c0,1.048.599,1.772,1.497,1.772.949,0,1.523-.675,1.523-1.823,0-1.173-.55-1.847-1.498-1.847-.898,0-1.522.773-1.522,1.897Z" fill="#231815"/><path d="m610.393,88.676c0,2.347-1.897,4.243-4.219,4.243s-4.219-1.896-4.219-4.243c0-2.321,1.897-4.219,4.219-4.219,2.347,0,4.219,1.897,4.219,4.219Zm-6.49,0c0,1.272,1.023,2.297,2.271,2.297s2.271-1.024,2.271-2.297c0-1.248-1.023-2.271-2.271-2.271s-2.271,1.023-2.271,2.271Z" fill="#231815"/></svg>