<?xml version="1.0" encoding="UTF-8"?><svg xmlns="http://www.w3.org/2000/svg" width="46" height="54" viewBox="0 0 46 54"><path d="m4.647,29.449h0c-.093-.093,0-.093,0,0,0-.093-.093-.186-.186-.466.093-.279.279-.372.559-.559.895-.554,1.998-.657,2.98-.279.942.509,1.742,1.246,2.328,2.142,1.117,1.21,2.141,2.421,3.259,3.631.559.652,1.117,1.21,1.676,1.862.466.466.838,1.024,1.49,1.21.484.053.973-.044,1.4-.279.634-.267,1.041-.895,1.024-1.583V13.428c0-.745-.279-2.048.279-2.7.801-.823,2.117-.841,2.94-.04.014.013.027.027.04.04.233.358.332.786.279,1.21v2.794c0,4.1-.093,8.1-.093,12.2v4.749c.024,1.029.877,1.843,1.906,1.819.995-.023,1.796-.824,1.819-1.819.093-2.887.093-5.866.093-8.846.21-.709.954-1.113,1.663-.904.5.148.869.573.944,1.09.093,1.49,0,2.887,0,4.283,0,1.49.093,2.887.093,4.376.034,1.028.895,1.835,1.923,1.801.981-.032,1.769-.82,1.801-1.801v-4.1c0-.838-.279-2.141.559-2.7.607-.32,1.358-.086,1.678.521.038.072.068.147.091.224.093.96.093,1.927,0,2.887,0,1.117-.093,2.141,0,3.259.186,2.234,3.725,2.048,3.725-.186v-2.977c-.02-.372.207-.714.559-.838.588-.327,1.331-.116,1.658.472.048.086.085.178.111.273.046.713.046,1.428,0,2.141v8.852c.172,1.5-.087,3.017-.745,4.376-.745,1.21-1.583,2.328-2.328,3.538-2.141,3.166-5.866,2.7-9.125,2.7h-3.631c-2.014-.17-3.899-1.063-5.307-2.514-2.047-2.061-3.975-4.237-5.773-6.518-1.4-1.676-2.793-3.259-4.19-4.935-1.024-1.21-1.956-2.421-2.98-3.631-.915-.958-1.756-1.986-2.514-3.073m-1.583-4h0c-2.421,1.676-2.794,4.469-1.024,6.518,3.817,4.749,7.728,9.311,11.639,13.967,2.421,2.887,5.028,6.052,8.659,7.17,1.829.432,3.712.589,5.587.466h4.935c2.963.071,5.801-1.194,7.728-3.445,1.024-1.3,1.863-2.794,2.794-4.19,2.235-3.352,1.583-7.822,1.583-11.639v-3.266c0-2.048.279-4.376-1.3-5.959-1.349-1.254-3.256-1.713-5.028-1.21l-.279-.559c-.949-1.502-2.6-2.414-4.376-2.421-.54-.006-1.077.088-1.583.279-.156-.48-.41-.923-.745-1.3-1.307-1.459-3.317-2.069-5.214-1.583v-4.845c.172-1.53-.086-3.077-.745-4.469-1.748-2.65-5.313-3.381-7.963-1.633-.553.365-1.04.823-1.437,1.354-1.024,1.4-.931,2.98-.931,4.563v17.04c-.407-.519-.841-1.017-1.3-1.49-.762-.997-1.603-1.931-2.514-2.793-2.376-2.074-5.845-2.303-8.473-.559" fill="#fff"/><path d="m28.023,11.105c-.046-3.857-3.21-6.946-7.067-6.9-3.792.045-6.854,3.108-6.9,6.9-.034,1.028-.895,1.835-1.923,1.801-.981-.032-1.769-.82-1.801-1.801.051-4.493,2.863-8.49,7.074-10.056,4.197-1.546,8.912-.321,11.825,3.073,1.645,1.96,2.565,4.426,2.607,6.984-.093,2.328-3.818,2.328-3.818,0" fill="#fff"/></svg>