<?xml version="1.0" encoding="UTF-8"?><svg xmlns="http://www.w3.org/2000/svg" width="40" height="70" viewBox="0 0 40 70"><path d="m21.679,16.346c.023-.14.034-.284.018-.432-.019-.102-.016-.206.009-.307.102-.082.221-.141.349-.171.859-.23,1.641-.684,2.266-1.316,1.523-1.677.891-4.158-.609-5.587-1.334-1.138-2.991-1.83-4.738-1.979-1.2-.174-1.878-.368-2.278-.946-.508-.741-1.521-.93-2.261-.422-.741.508-.93,1.521-.422,2.261,1.092,1.388,2.73,2.236,4.494,2.325,1.073.073,2.101.46,2.957,1.112.387.369.561.923.447,1.049-.252.187-.538.323-.842.4-1.761.429-2.898,2.138-2.615,3.928.003.027.012.051.016.078-9.18.662-14.819,7.31-14.819,17.698,0,11.284,6.57,23.366,16.35,23.366s16.35-12.082,16.35-23.366c0-10.334-5.577-16.97-14.671-17.692Zm-1.68,9.674h0c.007,0,.013-.002.02-.002h1.107v10.166h-2.256v-10.166h1.108c.007,0,.013.002.02.002Zm0,28.132c-7.721,0-13.1-10.6-13.1-20.114,0-8.468,4.258-13.75,11.473-14.432v3.161h-.435c-1.28.001-2.318,1.039-2.319,2.319v12.032c.001,1.28,1.039,2.318,2.319,2.319h.435v4.332h0c0,.898.728,1.626,1.626,1.626h0c.898,0,1.626-.728,1.626-1.626v-4.332h.435c1.28-.001,2.318-1.039,2.319-2.319v-12.032c-.001-1.28-1.039-2.318-2.319-2.319h-.435v-3.161c7.216.681,11.474,5.965,11.474,14.432,0,9.514-5.379,20.114-13.1,20.114Z" fill="#fff"/></svg>