<?xml version="1.0" encoding="UTF-8"?><svg xmlns="http://www.w3.org/2000/svg" width="380" height="70" viewBox="0 0 380 70"><path d="m368.323,42.088c-.765-.799-.765-2.058,0-2.857l2.143-2.143h-141.594c-1.127-.035-1.078-4.048,0-4.082h141.492l-2.143-2.143c-.735-.865-.691-2.146.1-2.959.918-.918,2.143-.612,3.061.2,1.429,1.327,2.755,2.755,4.082,4.082.918.918,2.449,2.041,1.837,3.572-.729,1.237-1.701,2.313-2.857,3.163-1.122,1.02-2.143,2.143-3.266,3.163-.799.765-2.058.765-2.857,0" fill="#fff"/><path d="m4.604,37.098h224.268c1.114-.039,1.129-4.089,0-4.092H4.604c-1.114.039-2.007.932-2.046,2.046.003,1.129.917,2.043,2.046,2.046" fill="#fff"/></svg>