<?xml version="1.0" encoding="UTF-8"?><svg xmlns="http://www.w3.org/2000/svg" width="216" height="54" viewBox="0 0 216 54"><path d="m206.564,33.573c-.71-.741-.71-1.911,0-2.652l1.989-1.989h-62.314c-1.046-.08-1.83-.993-1.75-2.039.071-.935.815-1.679,1.75-1.75h62.217l-1.989-1.989c-.683-.803-.641-1.993.095-2.747.813-.734,2.067-.671,2.801.142.014.015.028.031.041.047,1.326,1.231,2.557,2.557,3.788,3.789.853.852,2.273,1.894,1.705,3.315-.676,1.148-1.579,2.147-2.652,2.936-1.042.947-1.989,1.989-3.031,2.936-.741.71-1.911.71-2.652,0" fill="#fff"/><path d="m2.872,28.911h150.62c1.034-.036,1.864-.866,1.9-1.9,0-1.049-.851-1.9-1.9-1.9H2.872c-1.035.036-1.865.866-1.9,1.901,0,1.049.851,1.9,1.9,1.9h0" fill="#fff"/></svg>