<?xml version="1.0" encoding="UTF-8"?><svg xmlns="http://www.w3.org/2000/svg" width="384" height="280" viewBox="0 0 384 280"><path d="m253.76,80.925c-43.16,0-72.76,32.31-72.76,96.64s29.6,98.42,72.76,98.42,72.76-34.09,72.76-98.42-29.59-96.64-72.76-96.64m44.59,118.43c0,10.97-5.87,24.98-13.65,32.6l-.04.03c-11.87,11.44-28.73,12.33-33.62,12.33-26.11,0-47.35-19.09-47.35-42.55v-5.41c.01-7.06,5.73-12.78,12.79-12.79h7.72c6.945.007,12.619,5.547,12.79,12.49.16,2.04.33,4.28.39,4.95.21,1.764.714,3.481,1.49,5.08,3.29,5.51,10.43,6.64,12.17,6.64,5.64,0,14.05-3.86,14.05-14.5v-68.97c.006-7.058,5.722-12.779,12.78-12.79h7.72c7.062-.002,12.788,5.72,12.79,12.782v.008l-.03,70.1Z" fill="#00a44f"/><path d="m74.22,5.075v34.85c0,6.76-3.09,9.85-7.97,9.85-4.79,0-7.97-3.26-7.97-10.1h-14c0,16.2,8.67,23.37,21.89,23.37s22.13-7.24,22.13-23.77V5.075h-14.08Z" fill="#1a1311"/><path d="m212.01,5.065v28.66l-18.02-28.66h-13.08v57.01h13.7v-29.89l18.72,29.89h12.38V5.065h-13.7Z" fill="#1a1311"/><path d="m263.46,5.065v34.85c0,6.76-3.09,9.86-7.97,9.86-4.79,0-7.97-3.26-7.97-10.1V5.065h-14v34.45c0,16.2,8.67,23.53,21.89,23.53s22.13-7.25,22.13-23.78V5.065h-14.08Z" fill="#1a1311"/><path d="m307.33,27.215c-6.89-2.69-8.59-3.99-8.59-6.52v-.08c0-2.11,1.78-3.74,4.95-3.74,4.41,0,8.9,2.2,12.61,5.21l7.04-10.91c-5.37-4.619-12.259-7.088-19.34-6.93-11.84,0-19.34,7.25-19.34,17.59v.25c0,10.34,7.19,14.25,17.41,17.92,6.34,2.36,7.96,3.74,7.96,6.02v.08c0,2.45-1.93,4.16-5.64,4.16-5.26,0-10.29-2.61-14.7-6.44l-7.43,10.67c6.013,5.504,13.9,8.505,22.05,8.39,11.6,0,19.73-6.84,19.73-17.92v-.16c0-9.69-6.42-14.09-16.71-17.59" fill="#1a1311"/><rect x="158.63" y="5.065" width="13.93" height="57.01" fill="#1a1311"/><path d="m123.85,4.015c-16.331.006-29.566,13.249-29.56,29.58.006,16.331,13.249,29.566,29.58,29.56,16.327-.006,29.56-13.243,29.56-29.57,0-16.332-13.24-29.571-29.572-29.57-.003,0-.005,0-.008,0m0,45.91c-8.46,0-15.32-7.31-15.32-16.34s6.86-16.34,15.32-16.34,15.33,7.31,15.33,16.34-6.86,16.34-15.33,16.34" fill="#1a1311"/><path d="m111.44,151.485c-5.758-.144-11.486.862-16.85,2.96l2.25-27.2h64.03v-42.56H55.28l-4.5,96.37,20.78,14.18c10.68-7.09,15.17-8.86,24.72-8.86,14.04,0,24.15,8.27,24.15,24.24,0,16.55-9.55,24.24-26.4,24.24-12.92,0-25.27-7.69-35.95-17.74l-21.34,31.93c14.6,15.37,35.39,26.6,64.59,26.6,36.23,0,67.4-24.24,67.4-66.22,0-39.61-26.39-57.94-57.29-57.94" fill="#00a44f"/><path d="m373.84,235.875c-3.416.022-6.681,1.408-9.07,3.85v-14.77h-11.18v45.96h11.18v-18.88c0-3.18,1.71-4.89,4.12-4.89,2.35,0,3.94,1.71,3.94,4.89v18.88h11.17v-23.68c0-6.98-3.74-11.36-10.16-11.36" fill="#1a1311"/><path d="m340.84,237.335v-9.33h-11.11v9.33h-3.43v8.95h3.43v24.63h11.11v-24.63h6.73v-8.95h-6.73Z" fill="#1a1311"/></svg>