<svg xmlns="http://www.w3.org/2000/svg" width="180" height="110" viewBox="0 0 180 110"><path d="M123.249 74.077V51.212h11.947v10.711c3.502 1.03 7.931 1.751 13.287 1.751 11.639 0 18.745-2.986 18.745-10.814 0-7.415-5.562-10.094-15.243-10.094h-28.118V2.082h51.602V26.39H163.83V16.296h-27.81v15.655h15.965c17.2 0 28.015 5.047 28.015 21.424 0 16.273-12.874 24.41-31.62 24.41-9.166 0-18.437-1.545-25.131-3.708z"/><path fill="none" stroke="#000" stroke-miterlimit="10" stroke-width=".752" d="M36.218 74.241l13.539-13.539M55.126 66.072L41.587 79.611"/><path d="M102.374 65.87c-14.474 14.475-37.942 14.475-52.416 0-14.475-14.474-14.475-37.942 0-52.416 14.474-14.475 37.942-14.475 52.416 0 14.474 14.474 14.475 37.941.001 52.415h-.001m-9.179-43.236c-9.405-9.404-24.653-9.404-34.057 0-9.404 9.405-9.404 24.653 0 34.057 9.405 9.404 24.652 9.404 34.056 0 9.405-9.404 9.405-24.652 0-34.057"/><path fill="#dce6e6" d="M6.361 98.019l26.82-26.82L44.63 82.648l-26.82 26.82z"/><path fill="none" stroke="#000" stroke-miterlimit="10" stroke-width=".752" d="M6.361 98.019l26.82-26.82L44.63 82.648l-26.82 26.82z"/></svg>