<svg xmlns="http://www.w3.org/2000/svg" width="400" height="40" viewBox="0 0 400 40"><path d="M50.439 7.855l-4.481 7.363-4.472-7.363-6.728-.012 7.887 13.12.413.827v10.332h5.805V21.786l.4-.827 7.903-13.116-6.727.012zM81.083 7.856v5.054h6.5v19.219h5.867V12.91h6.488V7.856H81.083zM104.753 7.856v24.318h17.179v-5.068h-11.31v-5.022h10.162v-5.072h-10.162v-4.1h11.31V7.856h-17.179zM225.654 7.856v24.235h16v-5.063h-10.133V7.856h-5.867zM258.234 14.906l1.59 4.212h-3.18l1.59-4.212zm-3.117-7.098l-9.4 24.3h5.869l3.084-7.939h7.187l3.084 7.955h5.869l-9.332-24.316h-6.361zM339.462 22.273V7.856h-5.9v13.48c0 7.708 4.055 11.017 9.955 11.017s10.559-3.214 10.559-10.283V7.856h-5.867v14.417a4.311 4.311 0 01-2.086 4.061 4.492 4.492 0 01-4.636 0 4.311 4.311 0 01-2.086-4.061h.061zM274.994 7.808v24.283h5.867V16.466l5.884 6.72 5.884-6.7v15.58h5.867V7.808h-5.534l-6.218 7.108-6.231-7.108h-5.519zM152.475 7.808h5.867v24.304h-5.867zM127.388 7.806v24.323h5.865v-10.51h1.351a3.776 3.776 0 012.849 1.268 17.008 17.008 0 012.974 6.023 6.228 6.228 0 002 3.261h6.455a9.406 9.406 0 01-2-2.544c-.748-1.295-1.193-2.76-1.75-3.931a14.78 14.78 0 00-3.655-5.677s-.462-.266 0-.476a6.23 6.23 0 003.529-5.539 6.329 6.329 0 00-2.015-4.485 6.58 6.58 0 00-4.663-1.759l-10.94.046zm9.223 4.77a2.018 2.018 0 011.44.537c.387.357.613.856.628 1.382a2.03 2.03 0 01-1.989 2.024h-3.437v-3.922l3.358-.021zM359.262 32.129h5.867V21.614h1.351a3.785 3.785 0 012.831 1.233 17.042 17.042 0 012.974 6.023 6.222 6.222 0 002 3.259h6.457a9.356 9.356 0 01-2-2.544c-.748-1.295-1.193-2.76-1.75-3.931a14.803 14.803 0 00-3.674-5.692s-.445-.266 0-.476a6.231 6.231 0 003.562-5.491 6.328 6.328 0 00-2.015-4.481 6.58 6.58 0 00-4.663-1.77h-10.957l.017 24.385zm9.286-19.533a2.018 2.018 0 011.44.537c.387.357.613.856.628 1.382a1.99 1.99 0 01-.6 1.43 2.06 2.06 0 01-1.466.591h-3.419v-3.94h3.417zM183.233 26.016a8.987 8.987 0 01-5.486 1.264 7.355 7.355 0 01-5.092-2.263 7.083 7.083 0 01-1.972-5.134 7.224 7.224 0 017.096-7.347 18.908 18.908 0 015.486.794V8.736a13.335 13.335 0 00-5.662-1.262 12.93 12.93 0 00-9.117 3.6 12.454 12.454 0 00-3.831 8.887 12.455 12.455 0 003.828 8.882 12.93 12.93 0 009.117 3.6 13.352 13.352 0 005.661-1.272l-.028-5.155zM198.63 19.773c0 8.665 5.8 12.928 12.944 12.928a20.422 20.422 0 008.238-1.329V20.445h-5.869v6.824a4.008 4.008 0 01-2.194.452c-3.912 0-7.093-2.874-7.093-7.932a7.224 7.224 0 017.093-7.353 16.222 16.222 0 018.078 1.934V9.279a16.535 16.535 0 00-8.253-2 12.93 12.93 0 00-9.117 3.6 12.459 12.459 0 00-3.828 8.886M303.294 19.555c-.082 7.079 5.591 12.884 12.67 12.966 6.879.08 12.594-5.285 12.95-12.155.082-7.079-5.591-12.884-12.67-12.966-6.879-.08-12.594 5.285-12.95 12.155zm13.056-6.806c4.086.126 6.361 2.9 6.361 7.493s-2.671 7.072-6.758 6.947-6.361-2.9-6.361-7.494 2.654-7.072 6.758-6.946M23.973 7.854v7.858l-8.968.016v-7.92l-5.832.046v24.237h5.868l-.032-10.882h8.964v10.925h5.9V7.84l-5.9.014zM62.858 8.968a6.968 6.968 0 00-2.72 5.961c.621 3.682 3.8 4.681 6.869 5.71 1.401.32 2.718.933 3.864 1.8.466.56.626 1.312.43 2.013a2.408 2.408 0 01-1.893 1.908 15.232 15.232 0 01-9.732-1.685l-.3-.188v5.738c4.452 2.028 11.466 2.792 15.568-.36a7.927 7.927 0 002.614-8.43c-1.4-4.134-6.266-4.461-9.542-6.023-.779-.376-1.224-.671-1.288-1.248-.033-.339.011-.68.127-1 .588-1.015 2.385-1.077 3.531-1 1.722.115 3.416.49 5.025 1.114V8.437c-3.409-1.341-9.212-1.871-12.553.531M381.795 27.612a4.516 4.516 0 104.516-4.516 4.514 4.514 0 00-4.516 4.512v.004m.652 0a3.865 3.865 0 113.865 3.863 3.864 3.864 0 01-3.864-3.863"/><path d="M386.772 27.914a1.4 1.4 0 001.3-1.493.556.556 0 00-.01-.1 1.592 1.592 0 00-.54-1.225 2.201 2.201 0 00-1.4-.3h-1.272V30.4h.906v-2.437l1.877 2.448h1.018l-1.879-2.496zm-1.018-.684v-1.59h.588a.683.683 0 01.777.574v.001a.74.74 0 010 .188c0 .524-.271.875-.748.875l-.617-.048z"/></svg>