<svg xmlns="http://www.w3.org/2000/svg" width="524" height="134" viewBox="0 0 524 134"><path d="M15.974 123.632a28.456 28.456 0 01-6.309-7.707c-2.229-4.474-2.529-9.217-.787-12.985a13.063 13.063 0 019.244-7.06c4.465-.95 7.419.965 11.136 3.144 3.418 2.1 6.864 4.336 12.613 4.1a17.414 17.414 0 003.876-.4c4.464-.95 7.17-3.507 6.565-6.348-.808-3.788-5.945-4.673-12.687-5.783a62.843 62.843 0 01-14.889-3.477C12.081 81.469 4.936 73.8 3.001 64.732c-4.582-21.51 10.853-36.678 28.576-40.454 13.26-2.824 26.857-.065 34.133 6.87 6.59 6.375 5.24 13.31 2.384 17.17a11.69 11.69 0 01-6.864 4.291c-3.518.75-6.809-.1-9.669-.909-3.428-.825-6.941-2.057-11.677-1.047-4.059.864-7.193 4.077-6.645 6.647.806 3.788 7.472 5.2 15.111 6.54 4.733.971 9.735 1.886 14.042 3.513 11.694 4.441 18.36 12.496 20.844 24.132 3.055 14.339-3.083 33.325-31.087 39.292-14.475 3.083-26.713.741-36.171-7.144" fill="#00a34f"/><path d="M15.974 123.632a28.456 28.456 0 01-6.309-7.707c-2.229-4.474-2.529-9.217-.787-12.985a13.063 13.063 0 019.244-7.06c4.465-.95 7.419.965 11.136 3.144 3.418 2.1 6.864 4.336 12.613 4.1a17.414 17.414 0 003.876-.4c4.464-.95 7.17-3.507 6.565-6.348-.808-3.788-5.945-4.673-12.687-5.783a62.843 62.843 0 01-14.889-3.477C12.081 81.469 4.936 73.8 3.001 64.732c-4.582-21.51 10.853-36.678 28.576-40.454 13.26-2.824 26.857-.065 34.133 6.87 6.59 6.375 5.24 13.31 2.384 17.17a11.69 11.69 0 01-6.864 4.291c-3.518.75-6.809-.1-9.669-.909-3.428-.825-6.941-2.057-11.677-1.047-4.059.864-7.193 4.077-6.645 6.647.806 3.788 7.472 5.2 15.111 6.54 4.733.971 9.735 1.886 14.042 3.513 11.694 4.441 18.36 12.496 20.844 24.132 3.055 14.339-3.083 33.325-31.087 39.292-14.479 3.084-26.713.741-36.175-7.145z" fill="none" stroke="#000" stroke-linecap="round" stroke-linejoin="round" stroke-width="1.3"/><path d="M176.079 98.353c-1.559-4.574-2.807-13.068-3.244-14.693-.08-.825-1.333-.842-1.4-.14-3.233 12.407-7.855 23.421-19.969 24.607-11.978 1.171-18.809-9-25-21.183-.205-.675-1.431-.416-1.337.547.28 5.289.195 10.591-.254 15.868-.589 11.038-8.661 13.771-11.827 14.082s-10.859-.189-14.33-11.525a71.09 71.09 0 01-2.229-9.924c-1.5-8.194-3.07-18.6-4.187-30.028-1.925-19.686-4.374-44.742 5.14-52.622a9.9 9.9 0 015.511-1.929c7.572-.739 12.431 4.9 19.761 14.469 5.091 6.59 21.291 31.552 23.252 34.558a.776.776 0 001.513-.148c1.206-3.314 12.291-30.666 15.735-38.091 5.337-10.806 8.848-17.543 16.557-18.3a13.518 13.518 0 015.765.687c11.277 4.456 13.35 31.356 15.248 50.766a370.81 370.81 0 011.709 30.27c.156 3.392.07 6.792-.257 10.172-1.209 11.793-8.659 13.773-11.826 14.082s-10.861-.19-14.33-11.525" fill="#00a34f"/><path d="M176.079 98.353c-1.559-4.574-2.807-13.068-3.244-14.693-.08-.825-1.333-.842-1.4-.14-3.233 12.407-7.855 23.421-19.969 24.607-11.978 1.171-18.809-9-25-21.183-.205-.675-1.431-.416-1.337.547.28 5.289.195 10.591-.254 15.868-.589 11.038-8.661 13.771-11.827 14.082s-10.859-.189-14.33-11.525a71.09 71.09 0 01-2.229-9.924c-1.5-8.194-3.07-18.6-4.187-30.028-1.925-19.686-4.374-44.742 5.14-52.622a9.9 9.9 0 015.511-1.929c7.572-.739 12.431 4.9 19.761 14.469 5.091 6.59 21.291 31.552 23.252 34.558a.776.776 0 001.513-.148c1.206-3.314 12.291-30.666 15.735-38.091 5.337-10.806 8.848-17.543 16.557-18.3a13.518 13.518 0 015.765.687c11.277 4.456 13.35 31.356 15.248 50.766a370.81 370.81 0 011.709 30.27c.156 3.392.07 6.792-.257 10.172-1.209 11.793-8.659 13.773-11.826 14.082s-10.861-.186-14.331-11.525z" fill="none" stroke="#000" stroke-linecap="round" stroke-linejoin="round" stroke-width="1.3"/><path d="M247.384 25.582c.878 8.143 1.391 18.507 1.644 29.57s.213 21.44-.293 29.614a91.577 91.577 0 01-1.017 9.984c-1.932 12.357-10.2 13.929-13.654 14.008s-11.507-1.121-14.28-13.371c-.469-2.341-.824-5.792-1.472-9.928-.6-8.149-1.391-18.507-1.642-29.57s.064-21.446.291-29.614c.458-4.16.657-7.624 1.017-9.984 2.213-12.363 10.206-13.929 13.66-14.009s11.784 1.114 14.278 13.371c.67 3.28 1.16 6.595 1.468 9.929" fill="#00a34f"/><path d="M247.384 25.582c.878 8.143 1.391 18.507 1.644 29.57s.213 21.44-.293 29.614a91.577 91.577 0 01-1.017 9.984c-1.932 12.357-10.2 13.929-13.654 14.008s-11.507-1.121-14.28-13.371c-.469-2.341-.824-5.792-1.472-9.928-.6-8.149-1.391-18.507-1.642-29.57s.064-21.446.291-29.614c.458-4.16.657-7.624 1.017-9.984 2.213-12.363 10.206-13.929 13.66-14.009s11.784 1.114 14.278 13.371c.67 3.28 1.16 6.595 1.468 9.929z" fill="none" stroke="#000" stroke-linecap="round" stroke-linejoin="round" stroke-width="1.3"/><path d="M295.052 16.062c1.983 15.43 1.281 36.719.025 57.994-.068 2.073.873 2.935 2.112 3.114 4 .409 18.388.607 23.476 1.6 2.89.51 5.084 1.136 7.005 1.615 10.117 3.794 10.687 11.7 10.608 14.052-.08 2.488-1.171 10.341-11.512 13.322-1.953.489-4.178.831-7.1 1.288-6.126.515-12.279.636-18.421.361-6.008-.129-12-.65-17.94-1.56-11.426-1.9-17.147-8.87-18.565-16.252a55.534 55.534 0 01-.921-9.858c-.436-7.765-.379-17.867-.024-28.652.352-10.645.962-20.729 1.9-28.31a62.329 62.329 0 011.563-9.638c2.627-12.362 10.965-13.332 14.421-13.217 3.317.108 12.125 1.641 13.373 14.141" fill="#00a34f"/><path d="M295.052 16.062c1.983 15.43 1.281 36.719.025 57.994-.068 2.073.873 2.935 2.112 3.114 4 .409 18.388.607 23.476 1.6 2.89.51 5.084 1.136 7.005 1.615 10.117 3.794 10.687 11.7 10.608 14.052-.08 2.488-1.171 10.341-11.512 13.322-1.953.489-4.178.831-7.1 1.288-6.126.515-12.279.636-18.421.361-6.008-.129-12-.65-17.94-1.56-11.426-1.9-17.147-8.87-18.565-16.252a55.534 55.534 0 01-.921-9.858c-.436-7.765-.379-17.867-.024-28.652.352-10.645.962-20.729 1.9-28.31a62.329 62.329 0 011.563-9.638c2.627-12.362 10.965-13.332 14.421-13.217 3.317.108 12.125 1.641 13.373 14.141z" fill="none" stroke="#000" stroke-linecap="round" stroke-linejoin="round" stroke-width="1.3"/><path d="M367.334 112.253c-9.454-2.584-17.258-9.995-17.313-26.98-.15-7.392.937-17.152 2.072-27.324a270.817 270.817 0 013.994-27.111 60.89 60.89 0 012.127-9.088c2.386-7.666 9.674-13.117 20.7-13.419 6.053.026 12.1.375 18.116 1.044 6.736.751 20.481 3.535 25 5.43 9.851 4.02 9.6 12.482 9.373 14.545-1.148 10.309-7.273 12.828-19.554 13.129-5.026.137-22.791-1.565-24.989-1.81s-2.552 5.421-.353 5.667c5.8.369 17.03 2.038 21.474 3.367 10.843 2.6 16.05 8.329 15.177 16.164-.888 7.974-7.212 12.279-18.394 12.7-4.614.181-14.817-.678-21.69-1.443-2.612-.292-3.239 5.345-.9 5.6a228.382 228.382 0 0124.8 3.461 44.632 44.632 0 016.827 2.43c9.821 4.3 9.6 12.482 9.358 14.681-.26 2.337-1.852 10.371-12.36 12.262a22.41 22.41 0 01-7.181.73 138.866 138.866 0 01-18.419-.8 101.499 101.499 0 01-17.87-3.244" fill="#00a34f"/><path d="M367.334 112.253c-9.454-2.584-17.258-9.995-17.313-26.98-.15-7.392.937-17.152 2.072-27.324a270.817 270.817 0 013.994-27.111 60.89 60.89 0 012.127-9.088c2.386-7.666 9.674-13.117 20.7-13.419 6.053.026 12.1.375 18.116 1.044 6.736.751 20.481 3.535 25 5.43 9.851 4.02 9.6 12.482 9.373 14.545-1.148 10.309-7.273 12.828-19.554 13.129-5.026.137-22.791-1.565-24.989-1.81s-2.552 5.421-.353 5.667c5.8.369 17.03 2.038 21.474 3.367 10.843 2.6 16.05 8.329 15.177 16.164-.888 7.974-7.212 12.279-18.394 12.7-4.614.181-14.817-.678-21.69-1.443-2.612-.292-3.239 5.345-.9 5.6a228.382 228.382 0 0124.8 3.461 44.632 44.632 0 016.827 2.43c9.821 4.3 9.6 12.482 9.358 14.681-.26 2.337-1.852 10.371-12.36 12.262a22.41 22.41 0 01-7.181.73 138.866 138.866 0 01-18.419-.8 101.518 101.518 0 01-17.865-3.235z" fill="none" stroke="#000" stroke-linecap="round" stroke-linejoin="round" stroke-width="1.3"/><path d="M437.619 109.166a28.45 28.45 0 01-2.653-9.6c-.228-4.994 1.414-9.456 4.532-12.195a13.054 13.054 0 0111.31-2.72c4.469.936 6.4 3.882 8.915 7.379 2.277 3.3 4.524 6.741 9.877 8.851 1.187.537 2.43.939 3.706 1.2 4.468.936 7.978-.309 8.574-3.152.793-3.791-3.549-6.68-9.268-10.42a62.817 62.817 0 01-12.208-9.2c-9.294-10.285-12.732-20.191-10.832-29.263 4.508-21.527 24.76-29.16 42.497-25.446 13.27 2.778 24.593 10.8 28.442 20.088 3.452 8.5-.588 14.292-4.761 16.67a11.696 11.696 0 01-8.012 1.148c-3.522-.736-6.189-2.85-8.478-4.743-2.8-2.14-5.519-4.688-10.258-5.68-4.063-.851-8.228.821-8.768 3.394-.793 3.791 4.734 7.774 11.179 12.092 3.935 2.8 8.143 5.662 11.424 8.893 8.9 8.789 11.74 18.852 9.3 30.5-3.006 14.353-16.3 29.237-44.324 23.369-14.487-3.033-24.734-10.124-30.2-21.162" fill="#00a34f"/><path d="M437.619 109.166a28.45 28.45 0 01-2.653-9.6c-.228-4.994 1.414-9.456 4.532-12.195a13.054 13.054 0 0111.31-2.72c4.469.936 6.4 3.882 8.915 7.379 2.277 3.3 4.524 6.741 9.877 8.851 1.187.537 2.43.939 3.706 1.2 4.468.936 7.978-.309 8.574-3.152.793-3.791-3.549-6.68-9.268-10.42a62.817 62.817 0 01-12.208-9.2c-9.294-10.285-12.732-20.191-10.832-29.263 4.508-21.527 24.76-29.16 42.497-25.446 13.27 2.778 24.593 10.8 28.442 20.088 3.452 8.5-.588 14.292-4.761 16.67a11.696 11.696 0 01-8.012 1.148c-3.522-.736-6.189-2.85-8.478-4.743-2.8-2.14-5.519-4.688-10.258-5.68-4.063-.851-8.228.821-8.768 3.394-.793 3.791 4.734 7.774 11.179 12.092 3.935 2.8 8.143 5.662 11.424 8.893 8.9 8.789 11.74 18.852 9.3 30.5-3.006 14.353-16.3 29.237-44.324 23.369-14.481-3.036-24.731-10.131-30.194-21.165z" fill="none" stroke="#000" stroke-linecap="round" stroke-linejoin="round" stroke-width="1.3"/></svg>