<svg xmlns="http://www.w3.org/2000/svg" width="180" height="110" viewBox="0 0 180 110"><path d="M147.865 62.85h8.239c1.751 0 2.369-.722 2.473-2.987v-5.355h-36.873V44.414L156.208 1.67h14.008v41.714H180v11.124h-9.784v5.355c0 2.266.721 2.987 2.472 2.987H180v13.904h-32.135V62.85zm10.712-19.467v-28.22l-22.454 28.221h22.454z"/><path fill="none" stroke="#000" stroke-miterlimit="10" stroke-width=".752" d="M37.351 74.241L50.89 60.702M56.259 66.072L42.72 79.611"/><path d="M103.507 65.87c-14.474 14.475-37.942 14.475-52.416 0-14.475-14.474-14.475-37.942 0-52.416 14.474-14.475 37.942-14.475 52.416 0 14.474 14.474 14.475 37.941.001 52.415h-.001m-9.179-43.236c-9.405-9.404-24.653-9.404-34.057 0-9.404 9.405-9.404 24.653 0 34.057 9.405 9.404 24.652 9.404 34.056 0 9.405-9.404 9.405-24.652 0-34.057"/><path fill="#dce6e6" d="M7.494 98.019l26.82-26.82 11.449 11.449-26.82 26.82z"/><path fill="none" stroke="#000" stroke-miterlimit="10" stroke-width=".752" d="M7.494 98.019l26.82-26.82 11.449 11.449-26.82 26.82z"/></svg>