<svg xmlns="http://www.w3.org/2000/svg" width="400" height="104" viewBox="0 0 400 104"><g fill="#541500"><path d="M220.043 24.151a5.99 5.99 0 01-.125-.649 9.819 9.819 0 01-.036-1c-.094.068-.122-.354-.175-.236a3.181 3.181 0 00-.162 1.687 9.692 9.692 0 001.022 3.126c1.7 3.488.441 6.492-1.063 7.11.787 2.388 2.169 4.675 2.409 7.29.094 1.105.261 2.202.5 3.285.208.952.451 1.852.738 2.85-.121-.24-.263-.478-.4-.73a25.133 25.133 0 01-1.184-2.274c-1.139-2.693-1.877-5.316-2.493-6.4-.321-.567-.706-1.3-1.116-1.922a4.662 4.662 0 00-.409-.567c.103.427.036.878-.187 1.257 1.327 1.427 1.879 3.421 2.75 5.166-.033 1.546 3.1 6.74 3.775 7.879.426.889.733 1.831.913 2.8 0 0 2.461.01 2.493 0a6.439 6.439 0 00-.746-1.132c-.324-.368-1.447-1.39-1.658-1.7-.17-.251-.333-.49-.479-.751a11.4 11.4 0 01-.647-1.3 12.78 12.78 0 01-1.027-4.067 8.675 8.675 0 01-.024-.868v-.256a7.879 7.879 0 00-.092-1.557 29.823 29.823 0 00-1.16-4.128 16.546 16.546 0 01-.365-1.338c-.07-.292-.2-.792-.244-.962a.632.632 0 01-.011-.076 6.402 6.402 0 001.463-3.5 5.829 5.829 0 00-1.087-3.617 6.303 6.303 0 01-.728-1.695c-.1-.341-.2-.682-.284-1.019-.057-.24-.1-.482-.159-.709M209.019 7.508a1.08 1.08 0 01-.438-.832c.041.414 1.184.9 1.635 1.193.389.247.739.55 1.038.9.385.411.603.949.613 1.512.003.26-.03.52-.1.771a3.492 3.492 0 01-.355.616.845.845 0 00-.159.7.556.556 0 010 .333c-.02.088-.05.174-.089.256.029-.081 0-.122-.065-.171a1.182 1.182 0 00-.1-.052.961.961 0 01-.117-.13c-.141-.178-.06-.336.032-.527.33-.584.496-1.246.479-1.917a2.246 2.246 0 00-1.051-1.861c-.19-.162-1.074-.563-1.33-.787M203.262 2.84a9.388 9.388 0 01-1.857 1.037c-.584.235-1.151.446-1.763.66-.783.258-1.539.59-2.26.99a5.34 5.34 0 00-2.092 2.128 3.51 3.51 0 00-.328 1.138c-.009.31.037.619.136.912.127.282.164.596.106.9-.235.543-1.306.522-1.647.621-.498.124-.953.38-1.317.741a1.09 1.09 0 00-.316.978c.146.463.174.955.081 1.431-.146.644-.86.6-1.322.913-.686.467-.694.9-.763 1.666a.871.871 0 01-.449.727 3.235 3.235 0 00-.555.47c-.43.478-.284.827-.422 1.395-.039.15-.096.294-.17.43a.608.608 0 01-.317.263c-.029.008 0 .024.033.024.076 0 .152-.006.227-.021.064-.033.125-.072.182-.117a.49.49 0 00.2-.263c.069-.226.124-.456.165-.689.065-.518.417-.956.909-1.131.279-.133.725-.162.859-.482.292-.678-.2-1.217.375-1.784.425-.427 1.176-.341 1.6-.8.203-.217.299-.513.263-.808a7.654 7.654 0 00-.19-.819 1.634 1.634 0 01.641-1.6 3.07 3.07 0 011.293-.216c.253.014.505-.03.738-.129.114-.064.216-.148.3-.248.365-.43.129-.9.081-1.509a3.89 3.89 0 01.389-2.052 4.242 4.242 0 012.2-2.068c1.106-.459 2.253-.908 3.341-1.419.714-.341 1.322-.827 2.02-1.181a4.02 4.02 0 011.419-.49.893.893 0 01.633.13c0-.268-.046-.422-.2-.49a1.48 1.48 0 00-1.062.133 7.293 7.293 0 00-1.168.636"/><path d="M228.978 13.489c-.081-.2-.83.154-1.6.535-.235-.3-.486-.616-.616-.754-.016-.017-.033-.041-.049-.057.654-.394 1.236-.774 1.22-.881s-.133-.173-.316-.222a6.85 6.85 0 00-2.25 0 10.596 10.596 0 00-4.32-1.566c-2.937-.355-5.9.408-8.3 2.138-.048.032-.04-.021-.04-.021a.625.625 0 01.268-.568c.324-.243.822-.451.944-.908s-.06-.7-.425-.99-.8-.376-.581-.968a1.66 1.66 0 00.211-.978 1.11 1.11 0 00-.459-.69 1.87 1.87 0 00-.843-.227c-.321-.032-.628-.027-.944-.065a2.518 2.518 0 01-.479-.1.49.49 0 01-.316-.248.245.245 0 01-.036-.175c.036-.157.251-.186.384-.292.156-.113.287-.256.386-.421a.892.892 0 00.1-.357.92.92 0 00-.037-.365.765.765 0 00-.4-.414c-.186-.081-.182-.2-.076-.321a.884.884 0 00.19-.6.79.79 0 00-.889-.787 1.54 1.54 0 00-.613.186.846.846 0 01-.514.083.623.623 0 01-.365-.122.655.655 0 01-.227-.378.748.748 0 00-.127-.292l-.023-.055c.14.051.289.078.438.078a.823.823 0 00.592-.256c.068-.09.086-.265.151-.354.024-.04.044-.06.121-.056s.122.06.146.133a.454.454 0 01.016.268c-.016.063-.1.117-.149.178s-.073.133.016.248c.117.146.394.073.352-.106-.149-.024-.036-.357 0-.628a.465.465 0 00-.036-.23.588.588 0 00-.073-.106.426.426 0 00-.216-.1.467.467 0 00-.4.141.449.449 0 00-.073.2c-.021.094-.052.19-.073.268a.205.205 0 01-.122.146.449.449 0 01-.23.011 6.102 6.102 0 01-.628-.121 1.517 1.517 0 00-1.124.1c-.033.027-.037.019-.037.019l.024-.052a1.62 1.62 0 01.467-.425 1.04 1.04 0 01.986-.089c.1.076.159.259.255.384a.315.315 0 00.206.125.146.146 0 00.135-.06c.113-.214-.448-.686-.594-.762a1.363 1.363 0 00-1.25-.053 1.323 1.323 0 00-.37.308c-.029.044-.029.057-.029.057a.643.643 0 00-.016-.2 1.061 1.061 0 00-.235-.467.808.808 0 00-.577-.364.972.972 0 00-.573.143c-.419.235-.917-.1-1.311.13-.28.22-.523.483-.722.778a.774.774 0 01-.92.313.72.72 0 00-.7.251 1.07 1.07 0 00-.211.484c-.057.324-.081.822-.4 1.033a.42.42 0 00.455-.081c.109-.137.188-.294.235-.462.116-.403.463-.697.879-.746a1.5 1.5 0 00.941-.763c.153-.208.347-.382.571-.511a.45.45 0 01.429-.069c.127.06.208.243.341.263.409.065.641-.49 1.043-.316a.592.592 0 01.3.4c.065.2.073.389.146.584v.021h-.011c-.122.041-.183.151-.263.26-.047.06-.1.116-.156.167-.052.056-.089.11-.121.141a1.66 1.66 0 01-.482.3c-.162.073-.321.141-.5.214-.386.167-.686.321-1.09.479-.216.081-.414.165-.641.243s-.5.149-.722.243c-.762.313-1.593.573-2.368.876-.558.204-1.098.455-1.614.751a4.045 4.045 0 00-1.52 1.3 1.787 1.787 0 00-.232.79c-.005.346.015.692.06 1.035.085.379.012.775-.2 1.1a1.097 1.097 0 00-.3.892c.013-.154.175-.232.325-.276.115-.019.227-.049.336-.089a.4.4 0 00.222-.308c.023-.162.028-.327.017-.49 0-.4-.081-.836-.094-1.254a1.742 1.742 0 01.322-1.126c.255-.332.545-.637.865-.908a4.017 4.017 0 011.139-.681c1.106-.463 2.16-.86 3.244-1.376a5.05 5.05 0 01.657-.321c.263-.076.519-.2.778-.279.325-.094.654-.19.965-.308V3.7a8.01 8.01 0 01-1.468.6c-.178.086-.333.151-.5.235-.2.1-.406.227-.592.333-.362.2-.738.389-1.1.636a9.107 9.107 0 00-1.684 1.4c-.15.196-.279.407-.386.63-.157.308-.3.621-.3.621l.106-.1a2.88 2.88 0 01.243-.251c.114-.122.2-.248.313-.373a9.775 9.775 0 011.508-1.314 16.36 16.36 0 012.425-1.373c.5-.24.949-.427 1.408-.625 0 .104-.013.208-.041.308a3.062 3.062 0 01-.54 1 5.01 5.01 0 01-2.493 1.735 6.834 6.834 0 00-3.136 2.3 3.59 3.59 0 00-.713 1.512 2.295 2.295 0 01-.609 1.225 1.049 1.049 0 01-.592.319c-.425.054-.863-.324-1.349-.275a1.08 1.08 0 00-.99.8 2.062 2.062 0 00-.04.368.887.887 0 01-.232.727c-.235.235-.544.243-.6.665a.657.657 0 01.406-.321c.22-.065.424-.174.6-.321a.862.862 0 00.216-.446c.068-.422.125-.852.551-1.03.56-.232.993.313 1.53.162.738-.2 1.1-1.035 1.3-1.7.56-1.942 1.971-2.615 4.015-3.491a6.598 6.598 0 002.595-1.95c.328-.4.559-.87.678-1.374a1.68 1.68 0 00-.041-.8c-.007-.008-.007-.021.002-.028l.006-.004a1.52 1.52 0 01.135-.049c.215-.093.417-.214.6-.36.093-.081.198-.145.313-.19h.024a.272.272 0 00.029.17l.013.017-.159.011c.099.039.195.084.289.135.193.078.374.184.535.316.204.153.358.361.446.6v.024c-.19.09-.36.217-.5.373a.267.267 0 00-.076.17.907.907 0 00.084.5c.114.211.156.187.3.425a1.997 1.997 0 00-.1-.381.94.94 0 01-.049-.263c-.008-.214.114-.227.216-.3a.352.352 0 00.113-.329.583.583 0 00.036-.13l.032.117c.093.466.139.941.135 1.416a2.543 2.543 0 01-.227 1 2.217 2.217 0 01-.354.576c-.13.114-.268.218-.413.311.112.033.228.05.344.049-.048.3-.056.606-.024.908.02.259.146.499.348.662a.284.284 0 01-.068-.227.694.694 0 01.1-.419c.073-.116.16-.223.259-.319.133-.121.286-.218.451-.289l.032.008c.209.154.431.288.665.4a.925.925 0 01.487.527c.039.185.034.377-.016.56a9.885 9.885 0 01-.568 1.362c-.084.271-.13.552-.138.835a.713.713 0 00.013.216h-.052a4.76 4.76 0 00-.9.309 4.698 4.698 0 00-.892.676 2.917 2.917 0 00-.252.755c-.1.579-.06.746-.373 1.059a17.13 17.13 0 01-1.93 1.231c.052-.13.094-.264.125-.4l.117-.376a1.655 1.655 0 00-.214-1.27 1.373 1.373 0 01-.151-.516c.03-.168.049-.338.057-.509.021-.313-.178-.54-.178-.824 0 .19-.2.413-.2.62 0 .081-.041.206-.057.4-.04.352-.073.832-.1 1.411a8.28 8.28 0 00.078 1.939c.026.097.059.192.1.284.086.214 2-1.343 2.487-1.744.196-.159.347-.366.441-.6.069-.214.119-.434.151-.657.023-.159.062-.316.117-.467.235-.334.523-.628.851-.871.219-.127.45-.232.69-.313l-.07.121a13.715 13.715 0 00-.876 1.623c-.19.425-.065.73-.373 1.127a18.238 18.238 0 01-1.65 1.663 32.263 32.263 0 01-1.635 1.395c-.332.259-.547.425-.587.384-.709-.738-.965-2.972-.97-4.605-.038-1.055.068-2.11.317-3.136.112-.364.303-.699.559-.981.179-.2.413-.342.673-.409a2.46 2.46 0 01.492-.044c.62.041 1.207.294 1.662.717a1.56 1.56 0 00-.709-.787 9.91 9.91 0 00-.243-2.529s-.046.068-.229.032-.209-.17-.209-.17h-.013a.297.297 0 01-.117.235 4.042 4.042 0 01-1.546.792c-.791.364-1.553.788-2.279 1.268a9.052 9.052 0 00-1.7 1.411c-.268.3-.576 1.152-.852 1.331l.245-.163c1.5-2.106 3.917-3.11 5.872-3.95a3.97 3.97 0 01-.563.884c-.347.433-.728.839-1.139 1.212a4.79 4.79 0 01-1.354.949c-.904.377-1.74.9-2.474 1.549a4.137 4.137 0 00-1.395 2.166 1.927 1.927 0 01-.868 1.431.833.833 0 01-.49.149 2.976 2.976 0 01-.722-.157c-.251-.041-.459-.037-.579.121.037-.057.3-.024.506.065.175.078.325.179.474.243a.904.904 0 00.389.054c.141-.005.281-.032.414-.081a2.555 2.555 0 001.1-1.582 4.016 4.016 0 011.147-1.882 9.808 9.808 0 012.871-1.6 3.13 3.13 0 00.559-.341l-.048.12c-.109.211-.222.479-.34.727-.2.409-.422.819-.67 1.284a16.031 16.031 0 01-1.078 1.739 8.163 8.163 0 01-1.971 1.971 2.11 2.11 0 01-.49.248 1.928 1.928 0 01-.8.117 1.776 1.776 0 01-.581-.11 1.244 1.244 0 01-.3-.178 2.14 2.14 0 00-.5-.281 2.488 2.488 0 00-.5-.084c-.32-.021-.64.046-.925.194-.6.357-.5 1.043-1.108 1.152a1.584 1.584 0 00-.9.628.803.803 0 01-.455.3h-.092a.7.7 0 00.449.1.908.908 0 00.382-.141c.149-.089.308-.206.486-.292.276-.13.516.016.7-.2.099-.116.17-.253.208-.4a1.278 1.278 0 011.735-.916c.077.024.15.058.219.1.106.06.159.162.252.227.211.138.442.244.684.313.474.134.982.071 1.408-.175.087-.048.171-.102.251-.162a10.947 10.947 0 001.55-1.463l.063-.054a4.267 4.267 0 01-.462 1.65c-.681.836-.989.665-1.987.638-.641-.021-2.209-.474-2.623.056-.482.625-.316 1.444-1.22 1.585-.39.065-.873-.186-1.274-.076a.847.847 0 00-.5.462l-.029.041c-.984.083-1.955.29-2.887.616a9.705 9.705 0 00-2.482 1.3.149.149 0 01-.036.017h-.036a1.247 1.247 0 00-.349-.049h-.555c-3.025-.179-3.961-1.165-6.248-.078-.065.029-.138.073-.2.106a3.371 3.371 0 00-1.715 2.149 4.41 4.41 0 01-1.193 2.279 13.624 13.624 0 01-3.158 1.708 8.344 8.344 0 00-1.7.928 3.2 3.2 0 00-1.058 1.774 4.557 4.557 0 00.625 3.28c.543.884-.308 1.338-.167 2.263.19-.665.636-1 .759-1.6a1.944 1.944 0 00-.368-1.439 4.02 4.02 0 01-.43-2.312c.133-.835 1.082-1.371 1.917-1.7 2.219-.873 4.42-2.271 4.959-4.469a3.7 3.7 0 013.058-2.961 9.225 9.225 0 013.309.073 7.803 7.803 0 00-4.1 1.124c-1.317.855-1.782 2.814-2.282 3.366-2.633 2.895-5.97 3.11-5.788 8.508a8.328 8.328 0 01-.53 1.479 3.015 3.015 0 00-.26 1.168 1.1 1.1 0 00.308.714c.062.058.129.111.2.159a1.777 1.777 0 01-.232-.8c.016-.284.091-.562.219-.816.154-.43.357-.876.482-1.317.193-.712.315-1.441.365-2.177.276-3.212 2.409-4.056 5.24-5.815a2.83 2.83 0 001.195-1.655 5.05 5.05 0 00.236-1.009c.007-.421.16-.827.433-1.147.065-.078.563-.455.649-.516a7.266 7.266 0 012.879-.928 9.398 9.398 0 012.279-.073c.033.008.1.016.143.024a.24.24 0 01.068.029 11.374 11.374 0 00-3.674.774 4.254 4.254 0 00-.6.271c-.167.1-.308.19-.471.289a2.609 2.609 0 00-1.249 2.007c0 .968-.512 1.863-1.346 2.355-6.383 2.985-4.728 5.35-5.616 7.34a4.653 4.653 0 00-.6 3.342c.277.706.764 1.31 1.395 1.729a6.65 6.65 0 002.53 1.14c.281.06.581.081.889.121-.516-.246-1.241-.538-1.958-.855a4.287 4.287 0 01-2.331-1.976 2.59 2.59 0 01-.159-1.662c.2-1.055 1.09-2.834 1.212-4.148.102-.46.319-.886.632-1.238a5.646 5.646 0 011.7-1.4 12.396 12.396 0 002.926-1.852 4.616 4.616 0 001.412-2.641 3.025 3.025 0 011.244-2.266 6.495 6.495 0 011.866-.7c.563-.125 1.2-.186 1.849-.267a.772.772 0 00-.125.044l-.281.084c-.23.057-.462.122-.689.2-.458.157-.907.336-1.347.538-.9.411-1.69 1.032-1.8 1.72-.421 2.538-1.893 3.783-3.5 5.027a18.285 18.285 0 00-2.579 2.242 3.022 3.022 0 00-.584.978 4.56 4.56 0 01-.449 1.136c-1.039 1.679-1.222 4.269.29 5.416.414.299.894.494 1.4.568.237.038.477.053.717.044.187-.008.336-.04.56-.065a5.114 5.114 0 01-.9-.267 4.925 4.925 0 01-1.33-.706 3.025 3.025 0 01-1.127-1.452 2.383 2.383 0 01-.143-.957 14.999 14.999 0 011.468-3.182c.419-.92.555-1.433 1.238-1.9.284-.2.576-.438.847-.641.457-.332.887-.62 1.3-.932 1.668-1.27 2.891-2.523 2.917-4.412a2.786 2.786 0 011.535-2.242 11.197 11.197 0 012.3-.873c-.04.016-.149.086-.3.162-.799.42-1.567.896-2.3 1.423a4.372 4.372 0 00-1.144 2.652c-.129 2.361-1.322 3.463-3.218 4.693-.459.3-.954.6-1.489.941a5.713 5.713 0 00-2.307 4.026c-.145.79.128 1.6.722 2.141.374.284.806.48 1.265.576a2.08 2.08 0 011.52.9c.354.489.877.828 1.468.952-.668-.641-.6-1.452-1.22-2.044-.5-.478-1.354-.381-1.95-.73a1.97 1.97 0 01-.9-1.539 3.813 3.813 0 01.154-1.647 5.334 5.334 0 011.773-2.417c.182-.113.378-.2.584-.259a7.852 7.852 0 002.9-1.887 4.83 4.83 0 001.09-1.958c.118-.427.182-.866.19-1.309 0-.519.064-1.037.187-1.541a3.864 3.864 0 011.784-2.166 4.506 4.506 0 011.392-.624l.024.024c-2.015 2.514-2.109 6.026-.113 9.279.267.435.587.835.952 1.192l-.008.024a4.18 4.18 0 01-.438.835 8.092 8.092 0 01-3.11 2.591 1.502 1.502 0 00-.928.584 1.408 1.408 0 00-.121 1.342c.51 1.617.765 3.304.754 5a8.968 8.968 0 01-.349 3.2c-.514 1.254-2.806 1.2-2.988 1.246l1.204 2.554a6.935 6.935 0 001.536-1.4c.459-1.043.482-1.03.787-1.82.187-.508 1.119-2.774 1.265-3.537.171-.853.276-1.718.313-2.587a7.98 7.98 0 01.146-1.184 1.39 1.39 0 01.482-.482 6.508 6.508 0 011.663-.179c.2.017 2.887.232 4.318-1.028.152-.145.287-.307.4-.484 0 0 .01-.011.017-.011h.011c.536.972.853 2.05.928 3.158.11 1.173.224 1.968.24 2.511a1.365 1.365 0 001.282 1.4c1.617.268 9.838 4.567 10.429 6.935.031.233-.01.469-.117.678l2.826.008a7.034 7.034 0 00-.9-1.582c-.681-1.051-5.526-4.655-5.981-5.077-2.882-2.725-3.093-4.764-3.082-5.1 0-.078.135-1.014.3-2.114.23-1.512.522-3.328.563-3.612.008-.029.008-.041.008-.029a3.443 3.443 0 00-.025-.824c-.016-.268-.016-.511.021-.5.064.117.107.244.125.376.079.367.179.729.3 1.084a34.63 34.63 0 006.589 1.139 2.91 2.91 0 01-.117.4c-.109.289-1.035.787-1.4 1.176a.47.47 0 00-.13.255c-.109.532.514 1.192.636 1.708.081.336.341 1.95.386 2.295.022.105.06.207.113.3.029.065.065.125.094.19.013.031.027.06.044.089.013.016.044.013.052.013.062-.013.062-.109.07-.135.016-.063.048-.149.073-.219.048-.162.084-.279.141-.446.125-.363.263-.757.4-1.122.076-.232.157-.455.235-.69.146-.446.422-2.631.478-2.769.135-.3.292-.6.451-.892l.029-.041c.722.025 2.936.09 4.188-.008.221.351.486.672.787.957a21.982 21.982 0 001.8 1.72c.625.486 2.688 2.441 3.763 3.114a2.8 2.8 0 01.84.722c.112.15.165.336.146.522a1.823 1.823 0 01-.162.565c-.163.295-.34.582-.532.859a10.635 10.635 0 01-1.6 2.6c-.777.188-1.564.331-2.357.43-.063.324.119 2.538.054 2.764 0 0 .814-.475 1.536-.913.367-.2.717-.431 1.046-.689.67-.633 1.12-1.549 1.854-2.32.516-.543 2.534-2.858 2.49-3.661a1.417 1.417 0 00-.081-.352 8.898 8.898 0 00-.7-1.147c-.263-.5-.949-2.015-1.679-3.35a15.599 15.599 0 00-.53-.933c-.033-.06.5-.652.613-.941a2.57 2.57 0 00.06-1.179 3.974 3.974 0 00-.133-.649c-.057-.073-.341.808-.816 1.468-.459.644-1.095 1.054-.973 1.22.506.681.965 1.382 1.416 2.1a96.31 96.31 0 011.938 3.318c.336.6-1.03 2.582-1.877 3.575-.3.357-.544.581-.617.581.09-.2.26-.6.463-1.035.292-.625.632-1.3.741-1.517.175-.321.463-.632.422-1.012a1.633 1.633 0 00-.759-1.063c-.328-.24-2.323-2.117-3.045-2.757s-2.2-2.271-3.1-3.285c-.451-.5-.747-.86-.747-.86-1.325.293-2.682.42-4.039.378v-.016c.547-.873 1.176-1.72 1.76-2.534.284-.394.573-.8.86-1.189a172.8 172.8 0 011.322-1.768c.271-.357.555-.7.819-1.066.132-.185.214-.402.235-.628a2.472 2.472 0 00-.49-1.411 36.901 36.901 0 00-1.132-1.822 69.021 69.021 0 00-2.112-3.056l.016-.021c.065-.036.127-.081.179-.109s.121-.07.165-.1l.036-.008c.07.013.127.008.127.017-.005.212.009.423.044.632.04.065.462.617.462.6 0-.248 0-.478.021-.722.058-1.07.26-2.126.6-3.142a12.298 12.298 0 012.463-4.2 10.41 10.41 0 018.762-3.658 9.06 9.06 0 013 .889 7.25 7.25 0 012.611 2.141c-.044-.057.138 1.546.094 1.484.175.621.052.532-.008 1.22-.033.268-.4.427-.678 1.408a30.117 30.117 0 00-.271 4.071c-.041 1.493-.049 2.855-.021 3.006.122.5-.157.532-.417.868-.179.29-.462.501-.79.592-.508.1-.289-.471-1.728-.636a10.14 10.14 0 01-.665-2.771 7.88 7.88 0 00-.77-2.664 19.51 19.51 0 00-1.391-2.38 4.923 4.923 0 01-.535-.9s-.114 1.035-.09 1.074c.175.309 1.822 3.079 2.028 3.556.262.616.463 1.256.6 1.911.075.856.231 1.703.467 2.53a1.73 1.73 0 001.1.455c.292.024.563.668 1.041.632.722-.057.771-.608.99-.778.944-.719.579-2.268.6-2.758.062-1.614.37-4.615.438-5.037.211-1.257.362-.571.636-1.078.167-.292-.17-2.15 0-2.3.162-.544 1.314-1.087 1.7-1.525.17-.182 1.058-1.051.981-1.244m-25.048 1.632l-.089.329a.502.502 0 00-.044.078c-.008-.394 0-.844.008-1.241.135.256.179.551.125.835m.67-7.943l.029.019c.127.61.222 1.226.284 1.846a2.074 2.074 0 00-1.183-.163l-.016-.016a4.038 4.038 0 00.884-1.687m3.658-3.5a3.758 3.758 0 001.468-.26.47.47 0 01.571.308s.029.073 0 .036a1.102 1.102 0 00-.806.162 1.153 1.153 0 01-1.259-.213l.026-.033zm-1.526-.627h-.029l-.422.037v-.019a.89.89 0 00.094-.1c.172-.206.39-.369.636-.475a.947.947 0 01.248-.036h.017s.019 0-.013.016a.88.88 0 00-.17.073.929.929 0 00-.354.479l-.007.025zm.5.341a1.657 1.657 0 00-.328-.268c-.027-.019-.019-.036-.019-.036a.535.535 0 01.146-.113.41.41 0 01.284-.029.254.254 0 01.181.219c.06.348.172.685.333 1 .093.218.205.428.333.628.133.208.316.5.125.693-.117.114-.313.138-.373.3a.415.415 0 00-.029.06v-.036a3.72 3.72 0 00-.235-1.89 1.893 1.893 0 00-.414-.535m.049 4.943a1.763 1.763 0 00-.133.386.345.345 0 01-.025.063c.01-.068.01-.157.017-.238.032-.336.113-.722.165-1.038a.797.797 0 00.017-.109 2.3 2.3 0 00.219-.341l.019-.029c.014.238.082.47.2.678l.016.037a1.583 1.583 0 00-.5.592m-4.886 9.861c0 .013-.032.041-.032.041a4.388 4.388 0 00-1.2 2.9 21.787 21.787 0 00-2.13-.68c-.316-.084-.66-.17-1.014-.251l.01-.016a.995.995 0 01.559-.029c.2.04.471.109.69.138.167.05.348.003.47-.122.037-.052.125-.17.159-.227.344-.592.514-.632 1.106-.962.289-.17.488-.459.544-.79.019-.121.052-.433.089-.636l.016-.11c.131-.206.237-.426.316-.657l.029-.024c.076.488.205.967.386 1.427m-4.38 1.995h-.019a25.02 25.02 0 00-3.066-.49v-.016c.224-.344.143-.847.511-1.2.54-.519 1.379-.227 1.95.065a3.341 3.341 0 002.839.122c.321-.143.617-.338.876-.576v.059a.955.955 0 01-.13.373.691.691 0 01-.482.3 1.898 1.898 0 00-.77.276 1.102 1.102 0 00-.273.425.508.508 0 01-.144.236 1.53 1.53 0 01-.706.162c-.22.024-.426.117-.589.267m3.525-7.979c.048-.168.107-.332.178-.492.073-.19.179-.373.268-.555l.024-.019.013.052a16.608 16.608 0 00-.2 2.98c0 .036-.008.073-.008.109l-.017.052a3.935 3.935 0 00-.165-.34 2.359 2.359 0 01-.094-1.788m-7.811 7.4l.135-.052c.454-.235.6-.79.787-1.325.292-.782 1.885-.357 2.644-.325 1.062.044 1.385.135 2.258-.555.832-.652.551-2.023.832-2.988 0 0 .016-.06.036-.117l.037-.089c.213-.33.409-.67.587-1.019l.024-.029v.054c.003.293.08.58.224.835.424.557.621 1.254.551 1.95a2.794 2.794 0 01-2.993 2.576 5.128 5.128 0 01-1.471-.284 3.066 3.066 0 00-1.935-.2c-.681.279-.568 1.2-1.116 1.59l-.024.011c-.19-.016-.381-.008-.571-.016-.07 0-.01-.021-.01-.021m-1.6-.1a.683.683 0 01.5.114s-.065.008-.159.011c-.23.008-.621.025-.621.025h-.06a.674.674 0 01.336-.146m-2.132 17.987c-1.544 1.363-2.963 1.136-5.867.908-.806-.065-1.038.913-1.116 1.051-.04.057-.121 2.065-.246 3.533a9.745 9.745 0 01-.42 1.962c-.019.06-.048.114-.065.175.025-.17.033-.336.049-.511a17.408 17.408 0 00-.644-5.653 1.274 1.274 0 01.478-1.416c.516.044 2.685-1.744 4.047-3.406h.021a19.47 19.47 0 013.791 3.337l-.028.02zm17.542-13.816a36.031 36.031 0 012 3.152c.186.329.365.668.53 1.009.079.123.146.253.2.389.211.722-.668 1.412-1.054 1.914-.5.649-.965 1.319-1.408 2a47.407 47.407 0 00-2.438 4.19c-.068.133-.2.316-.282.47-.046.078-.054.117-.09.187a19.467 19.467 0 00-.7 3.033c-.04.19-.089.386-.129.576-.106.467-.211.912-.333 1.374-.041.183-.086.36-.13.547a1.606 1.606 0 00-.044.206c-.008.036-.021.127-.032.122s-.013-.052-.021-.073c-.008-.044-.016-.1-.024-.138a5.58 5.58 0 01-.041-.276c-.032-.2-.065-.4-.086-.608-.056-.414-.1-.827-.136-1.241-.029-.3-.062-.628-.07-.933-.008-.522-.543-.766-.284-1.224l.013-.029a6.56 6.56 0 01.6-.779c.1-.13.409-.454.449-.494a.503.503 0 00.1-.255c.084-.406.183-.811.275-1.212.057-.229.1-.463.167-.69.081-.3.365-1.124.406-1.241.4-1.2.937-2.351 1.6-3.429.167-.265.357-.516.547-.763.218-.203.378-.459.467-.743.1-.592-.584-.973-.957-1.3a123.164 123.164 0 01-1.877-1.736c-.149-.146-.2-.2-.2-.2a.772.772 0 01.722-.243c.287.092.599.067.868-.068.219-.187.305-.488.219-.763-.133-.73-.187-1.166.4-1.65h.021c.267.321.522.6.741.92m.722-5.04l-.032-.029c-.016-.1-.016-.154-.029-.255a1.501 1.501 0 01.467-1.358c.145-.152.299-.295.462-.428l.086-.062a11.261 11.261 0 00-.954 2.133m4.1-5.705s.016.016-.049.07a11.74 11.74 0 00-2.579 2.676s-.016.024-.037.049a.251.251 0 01-.044.048c-.571.508-1.8.519-2.177 1.265-.443.886.182 2.065.008 2.974-.186.993-1.346 1.093-2.154 1.163a3.15 3.15 0 00-.746.133 1.011 1.011 0 00-.636 1.419c.219.73.4.743.3 1.217-.135.6-.873.621-1.339.808-.6.235-.879.871-1.982.892a3.475 3.475 0 00-1.257.068 2.394 2.394 0 01-1.006.3.726.726 0 01-.4-.162c-.167-.122-.2-.443-.427-.511-.259-.073-.624.2-.766-.073a.33.33 0 00.062.268.263.263 0 00.175.094c.171-.019.344-.016.514.008a.804.804 0 01.316.282c.106.143.243.261.4.346.478.106.978.057 1.427-.138.375-.071.761-.06 1.131.032.237.025.477-.019.69-.125.184-.108.358-.233.519-.373a3.49 3.49 0 01.4-.284c.571-.378 1.452-.3 1.911-.806.522-.573-.017-1.416-.1-1.671-.263-.909.089-1.447 1.825-1.585a1.898 1.898 0 001.278-.573c.7-.822-.057-2.06 0-2.936.04-.408.304-.76.686-.911.244-.135.511-.273.735-.422l-.025.037c-.121.1-.263.219-.4.313a1.74 1.74 0 00-.5.428c-.16.275-.235.591-.214.909.14.881.136 1.78-.013 2.66a2.487 2.487 0 01-.855 1.257c-.325.276-1.557.657-1.3 1.635.106.373.232 1.1-.263 1.27-.324.1-.678-.179-1-.054-.287.114-.414.479-.681.617-.365.182-.787.073-1.111.3-.152.125-.29.266-.411.422a.4.4 0 01-.381.162c.179.2.633-.073.811-.162.251-.188.564-.275.876-.244a.853.853 0 00.657-.267l.008.008c.467.4.9.774 1.376 1.168.36.292.725.579 1.093.866.3.232.857.451.5.839-.32.315-.62.649-.9 1a12.21 12.21 0 00-1.844 4.378 16.914 16.914 0 00-.357 1.812l-.032-.008a35.273 35.273 0 01-6.541-1.212c-.016 0-.041-.021-.065-.029a9.6 9.6 0 00-.287-1.143 3.22 3.22 0 00-1.176-1.6c-.182-.125.129.5.222 1.2.071.713.09 1.43.057 2.146a49.534 49.534 0 01-1.111 7.092c.046.959.601 1.82 1.455 2.258a33.842 33.842 0 015.571 5.213c-.044-.037-.092-.057-.136-.094-.163-.122-.325-.24-.479-.357a80.624 80.624 0 00-2.639-1.888 19.812 19.812 0 00-5.395-2.861c-.568-.154-1.16-7.064-4.355-9.509-1.577-1.2-3.322-2.23-4.015-3.593-1.982-3.888-.762-8.681 4.347-10.688 3.89-1.53 9.441.073 11.675.835l.021.021c.06.633.273 1.243.62 1.776l-.017.013c-.6.173-1.082-.151-1.662.519-.151.178-.292.43-.451.6a.432.432 0 01-.459.17c-.3-.052-.535-.308-.827-.413a.798.798 0 00-.336-.037c-.259.027-.425.316-.681.308-.183 0-.308-.224-.532-.24a1.596 1.596 0 00-.446.057 1.076 1.076 0 01-.417.065.334.334 0 01-.182-.138c.084.219.146.313.284.336.271.044.4-.065.636 0 .133.037.251.146.381.186.3.086.62-.186.933-.17.344.041.669.183.932.409a.799.799 0 00.665.125c.23-.084.424-.246.548-.457.224-.336.357-.662.73-.857.56-.292 1.254.029 1.695-.519.386-.49.135-1.3.459-1.833.555-.924 1.33-.676 2.25-.778a2.112 2.112 0 001.679-.762c.218-.385.269-.842.143-1.266-.017.171-.049.281-.073.427a1.672 1.672 0 01-.216.632.934.934 0 01-.292.271 1.92 1.92 0 01-.887.224 14.076 14.076 0 00-1.789.1 1.506 1.506 0 00-1.151 1.208 4.415 4.415 0 01-.378 1.463h-.022a2.3 2.3 0 01-.117-.219 3.37 3.37 0 01-.349-1.017 3.148 3.148 0 01.957-2.868l.041-.019c.028.031.058.061.089.089.044.052.159.06.3 0a18.21 18.21 0 004.1-4.156c.138-.432.307-.854.506-1.262.211-.4.341-.908.54-1.333 0 0 .033-.154.044-.179.016-.06.073.017.073.017.025.076.021.157.044.238.053.129.099.26.138.394.008.164-.003.328-.032.49-.024.357.259.649.235 1.019a1.77 1.77 0 01-.138.5c-.194.516-.551.917-.66 1.339.178-.221.379-.422.6-.6.32-.28.494-.691.471-1.116a1.409 1.409 0 00-.154-.6 1.123 1.123 0 01-.13-.527c.072-.314.085-.638.04-.957a3.516 3.516 0 01-.084-.686 2.61 2.61 0 01.2-1.009 3.619 3.619 0 00.421-1.573.8.8 0 00-.373-.641c.037 0 .074.003.11.008a.813.813 0 01.2.094c.214.129.415.278.6.446a.672.672 0 01.232.449c.02.266-.022.532-.122.779a2.485 2.485 0 01-.551.835 1.055 1.055 0 00-.2.422c-.058.235-.045.481.037.709.094.189.159.391.192.6.008.227-.094.47.027.694.086.151.216.279.289.438.044.096.077.197.1.3.021.104.036.21.044.316.029.206.036.349.036.349l.057-.2c.037-.102.065-.207.086-.313a.977.977 0 000-.381 1.738 1.738 0 00-.3-.608c-.157-.256 0-.455.024-.714.041-.333-.181-.62-.165-.965.008-.389.352-.568.54-.9a1.93 1.93 0 00.068-1.8 2.515 2.515 0 00-1.308-.867 3.267 3.267 0 01-.889-.446 1.118 1.118 0 01-.389-.686 1.453 1.453 0 01.068-.722l.016-.081.036.089a.343.343 0 00.375.175c.178-.029.279-.154.246-.292a.24.24 0 00-.251-.211c.117 0 .117.187.073.224a.157.157 0 01-.243-.05.151.151 0 01.019-.175c.109-.108.232-.201.365-.276.39-.316.167-.709-.084-1.038a6.659 6.659 0 00-.2-.251l-.024-.049.048.032c.403.205.887.161 1.246-.113.156-.129.337-.223.532-.276.154-.036.194.021.214.11 0 .021-.024.073-.029.089a.416.416 0 01-.113.183.662.662 0 01-.13.1c-.475.313-.183.644.357.811a.412.412 0 01.19.106.426.426 0 010 .522c-.072.106-.161.2-.263.279a2.9 2.9 0 00-.317.3.792.792 0 00-.111.246.527.527 0 00.025.252.413.413 0 00.175.211c.15.104.312.189.482.255.278.117.567.206.863.267.255.03.503.102.733.215.422.224.674.455.555 1.2a1.065 1.065 0 01-.149.368.533.533 0 00-.041.621c.118.132.265.235.43.3a.77.77 0 01.43.336.741.741 0 01.094.506c-.078.235-.373.349-.613.511-.268.183-.474.316-.547.633-.028.206-.002.415.073.608"/><path d="M169.054 57.537c7.052 0 12.591 4.453 12.591 11.764.165 6.92-5.311 12.665-12.231 12.83-.183.004-.367.005-.55.001-8.584 0-12.372-6.687-12.372-12.327.036-6.813 5.589-12.306 12.402-12.27.053 0 .107 0 .16.002m.662 23.187c2.822 0 8.346-1.788 8.346-10.544.008-6.764-4.27-11.358-9.23-11.358-5.227 0-8.836 3.475-8.844 10.1-.008 6.8 4.083 11.8 9.728 11.8M189.531 79.386c.154-1.322.154-3.794.154-6.808v-5.515c0-4.9.025-5.778-.06-6.779l-.013-2.231c.373 0 4.052-.089 5.929-.089 3.1 0 9.108-.284 12.831 3.572a11.219 11.219 0 013.049 7.973 12.814 12.814 0 01-3.385 8.839c-1.347 1.416-4.44 3.609-9.772 3.609-2.693 0-8.484-.373-8.8-.373l.067-2.198zm3.395-8.941c0 3.325.041 6.213.065 6.8-.003.75.157 1.491.467 2.173.4.6 1.2 1.254 4.9 1.254a9.473 9.473 0 007.089-2.7c1.63-1.6 2.509-4.61 2.509-7.5a11.256 11.256 0 00-3-7.9c-2.953-3.103-6.153-3.336-9.885-3.336a5.889 5.889 0 00-1.731.224.565.565 0 00-.373.624c-.041 1.066-.041 4.059-.041 6.476v3.885zM219.307 79.376c.151-1.325.151-3.8.151-6.813v-5.514c0-4.9-.01-5.77-.065-6.779l-.187-2.32c.438 0 1.233.094 1.877.094.475.008 1.358-.117 1.731-.094l-.052 2.32c-.06 1.009-.06 1.881-.06 6.779v5.515c0 3.014-.008 5.488.157 6.813l.2 2.287c-.678-.016-1.054-.1-1.971-.094-.827.01-1.325.135-1.885.094l.104-2.288zM145.588 73.668c0-2.539-.008-3.763-.008-3.763.532 0 1.03.084 1.622.094.5 0 1.147-.1 1.674-.094l.008 2.319c-.06 1.006-.06 1.95-.06 3.264v3.516c0 1.416-.029 1.476-.409 1.695a16.954 16.954 0 01-6.951 1.405c-2.98.016-7.6-.521-10.733-3.517A12.5 12.5 0 01127 69.812a11.854 11.854 0 015.267-10.315c2.818-1.765 6.318-1.984 8.727-1.984a28.49 28.49 0 014.951.54c.836.169 1.685.27 2.538.3.313.036.378.162.378.282a16.869 16.869 0 00-.222 3.374c0 .346-.325.211-.73-.182 0 0-.411-.316-.714-.584-1.051-.949-3.191-2.42-7.235-2.42a9.423 9.423 0 00-6.33 1.923c-1.83 1.427-3.163 4.3-3.163 7.968a12.82 12.82 0 003.32 8.69 10.842 10.842 0 007.9 3.237 7.491 7.491 0 003.272-.54 1.16 1.16 0 00.628-1.1v-5.333zM249.276 57.951c.206.029.981.089 1.358.089.187 0 .232-.024 1.139-.024l-1.484 3.7c-.354.881-1.971 4.615-3.666 8.495-1.995 4.55-3.379 7.973-4.1 9.514-.874 1.875-1.074 2.373-1.389 2.373-.386.01-.592-.438-1.192-1.938l-7.783-19.229-1.2-2.983c.584-.021 1.619.092 2 .092.316 0 1.585-.089 1.974-.092 0 0 .808 2.611 1.273 3.828l5.743 15.133c1.825-4.205 5.811-14.225 6.5-16.484.159-.471.824-2.474.824-2.474M269.076 80.325l-2.719-7.141a.288.288 0 00-.287-.19h-6.746c-.156 0-.248.094-.309.252l-1.841 4.974c-.276.79-1.22 3.45-1.22 3.45s-.624-.027-.978-.027c-.336 0-.92.06-1.289.027l1.362-3.45 7.389-19.44c.373-1.033.644-1.224.835-1.224s.474.227.852 1.2c.47 1.192 5.442 14.03 7.327 18.812l1.549 4.1c-.467 0-1.293 0-3.463-.063l-.462-1.28zm-3.475-8.743c.151 0 .151-.094.125-.219l-2.916-8.443c-.122-.244-.211-.244-.344 0l-2.815 8.446c-.06.159 0 .219.094.219l5.856-.003z" fill-rule="evenodd"/><path d="M170.56 94.998l.025.04a2.578 2.578 0 011.565 2.336 2.989 2.989 0 01-3.229 2.726l-.039-.004h-4.76v-.39c.665 0 .973.021 1.2-.7l2.4-7.53c.079-.261.136-.529.17-.8.016-.39-.422-.451-.855-.467l.032-.3h3.009c1.814 0 3.095.985 3.026 2.385a2.887 2.887 0 01-2.544 2.717m-1.65.235l-.993-.041-1.396 4.376 1.384.092c2.027 0 2.891-.96 2.891-2.725 0-1.492-1.27-1.674-1.887-1.719m1.254-5.016c-.506 0-.738.167-.912.717l-1.189 3.921c.273.013.682 0 .836 0 2.336 0 2.847-1.212 2.847-2.891 0-1.124-.422-1.744-1.582-1.744M176.488 96.228c-.665.403-1.351.77-2.055 1.1a5.687 5.687 0 00-.378 1.646c0 .381-.13.686.373.686.832 0 1.262-.443 2.057-1.565l.222.125c-.714 1.1-1.6 1.979-2.534 1.979a1.308 1.308 0 01-1.31-1.417c0-1.646 2.165-5.366 4.005-5.366a1.024 1.024 0 011.111.9c0 .657-.53 1.314-1.492 1.911m.321-2.393c-.657.094-1.233.787-2.161 2.956 1.366-.6 2.4-1.549 2.534-2.514.041-.268-.081-.487-.373-.443M179.178 97.916a3.357 3.357 0 00-.365 1.176c0 .175.049.11.159.11.235 0 .73-.478 1.281-1.22l.2.19a4.697 4.697 0 01-2.534 2.039c-.227 0-.349-.308-.349-.482a3.88 3.88 0 01.308-1.168l3.163-7.582c.114-.292.187-.6.122-.665-.117-.117-.24-.178-.673-.178l.048-.325 2.014-.095-3.374 8.2zM187.05 94.348a.78.78 0 01-.43-.17c-.146-.089-.154-.175-.324-.154s-.159.1-.284.214c.045.226.059.457.04.686 0 1.254-1.143 3.253-2.8 3.253-.2.002-.4-.026-.592-.083-.344.159-.563.244-.563.552 0 .263.041.263.571.482.686.276 1.541.4 2.263.754.569.229.963.756 1.022 1.366 0 1.108-1.59 1.906-3.126 1.906-1.682 0-2.9-.725-2.9-1.528 0-.743.747-1.22 1.952-1.569v-.032a.788.788 0 01-.573-.86c0-.54.381-.819 1.058-1.217a2.109 2.109 0 01-.6-1.792 2.74 2.74 0 012.8-2.66c.45-.053.894.143 1.158.511a1.872 1.872 0 011.189-.482.5.5 0 01.548.446.482.482 0 01-.409.376m-2.831 6.392c-.519-.2-1.495-.414-1.9-.532-1.063.332-1.5.628-1.5 1.414 0 .982 1.119 1.152 2.047 1.152 1.411 0 2.284-.482 2.36-1.135.065-.508-.344-.636-1.006-.9m.406-6.972c-1.254 0-2.039 1.979-2.039 2.972 0 .613.06 1.03.6 1.03 1.189 0 2.023-2.376 2.068-3.244.025-.482-.133-.759-.624-.759"/><path d="M188.555 97.204a11.47 11.47 0 00-.871 1.931c0 .117.057.251.175.219.3-.09.576-.263 1.3-1.2l.2.157c-.519.686-1.508 1.919-2.42 1.919-.216 0-.378-.159-.378-.49 0-.852.406-1.327 1.225-3.126.37-.676.662-1.391.871-2.133 0-.13-.04-.19-.113-.19-.333 0-1.124.96-1.408 1.338l-.175-.2c.706-.989 1.682-1.927 2.433-1.927a.544.544 0 01.508.448 15.134 15.134 0 01-1.339 3.247m1.262-6.005c-.47 0-.735-.211-.735-.806a.682.682 0 01.649-.628.7.7 0 01.757.638l.002.038a.818.818 0 01-.673.759M194.756 98.02c-.328.8-.373.909-.373 1.087 0 .089.016.157.1.157.287 0 .676-.328 1.419-1.435l.187.2c-.938 1.458-1.858 2.2-2.247 2.2a.489.489 0 01-.56-.519 5.207 5.207 0 01.577-2.025l.041-.182c-1.338 2.23-1.984 2.55-3.1 2.761-.378.073-.674-.446-.674-.879.25-.946.62-1.856 1.1-2.709.389-.744.734-1.51 1.032-2.295 0-.1-.017-.156-.135-.156-.23 0-.8.43-1.379 1.16l-.165-.125c.7-.871 1.658-1.838 2.274-1.838a.57.57 0 01.544.508 13.977 13.977 0 01-1.209 2.923 7.321 7.321 0 00-.9 2.349c0 .146.062.214.2.214.657 0 1.857-1.573 2.907-3.394.442-.752.828-1.536 1.154-2.346l1.046-.032-1.839 4.376zM204.869 96.964c-.774 1.59-.876 1.773-.876 2.076 0 .13.06.162.133.162.232 0 .657-.282 1.173-1l.267.2c-.689.978-1.779 1.89-2.326 1.89a.7.7 0 01-.516-.608 9.015 9.015 0 011.066-2.6c.8-1.63 1.071-2.068 1.071-2.49 0-.2-.029-.321-.232-.321-.689 0-1.771 1.287-2.9 3.3a29.979 29.979 0 00-1.262 2.5l-.965-.008 1.233-2.941a9.318 9.318 0 00.9-2.615c0-.146-.019-.279-.235-.279-.632 0-1.8 1.427-2.822 3.249a22.392 22.392 0 00-1.233 2.566l-.97.008c.244-.54.763-1.849 1.27-3.045.584-1.4.917-2.157 1-2.465.029-.114.052-.37-.094-.37-.287 0-.79.613-1.455 1.59l-.167-.19c.824-1.285 1.6-2.077 2.26-2.077.486 0 .9.268.016 2.3l.021.016c.884-1.3 1.828-2.315 2.874-2.315a.58.58 0 01.633.523l.003.045a3.378 3.378 0 01-.376 1.784l.052-.016c1.009-1.443 1.7-2.336 2.912-2.336a.632.632 0 01.628.7 8.043 8.043 0 01-1.087 2.769M212.472 98.903a1.47 1.47 0 00-.1.516c0 .248.1.321.9.348l.033.292h-3.306v-.284c.8-.013 1.027.013 1.293-.787l2.544-7.57-1.23.348-.235-.238a21.187 21.187 0 003.017-1.574l.094.252-3.01 8.697zM215.443 100.164l-.149-.273a10.775 10.775 0 004.007-3.5l.024-.033a1.706 1.706 0 01-1.528.271c-1.066-.194-1.5-.916-1.5-2.173 0-1.457 1.711-4.331 3.969-4.331 1.209 0 1.65 1.046 1.65 2.433 0 3.118-2.639 6.6-6.468 7.608m4.847-9.688c-1.155 0-2.876 2.357-2.876 4.323 0 1.051.406 1.468.99 1.468 1.562 0 2.647-3.269 2.631-4.566-.016-.909-.146-1.225-.746-1.225M226.855 94.286c-1.163 1.079-2.6 1.627-3.779 2.957a4.456 4.456 0 00-1.071 1.646h2.907c.847 0 1.03.065 1.419-.828l.349.075-.941 1.949-4.74-.008a7.5 7.5 0 011.731-2.944c.965-1.09 2.153-1.958 3.16-3.012a3.015 3.015 0 001.077-2.276c0-.832-.382-1.16-1.193-1.16a3.348 3.348 0 00-2.668 1.765l-.224-.187a4.207 4.207 0 013.455-2.146c1.039 0 1.842.519 1.842 1.642a3.674 3.674 0 01-1.327 2.526M230.749 94.066l-.011.078a1.759 1.759 0 011.366-.446c.978 0 1.739.567 1.739 2.011 0 1.168-1.408 4.482-3.869 4.482-1.289 0-1.877-1.246-1.877-2.4 0-3.263 2.568-6.37 6.549-7.567l.263.24a8.477 8.477 0 00-4.161 3.6m.917.029c-1.825 0-2.623 3.277-2.623 4.5 0 .978.34 1.278.916 1.23 1.436-.117 2.641-3.1 2.641-4.482 0-.717-.13-1.249-.933-1.249"/></g></svg>