<?xml version="1.0" encoding="UTF-8"?><svg xmlns="http://www.w3.org/2000/svg" width="130" height="56" viewBox="0 0 130 56"><path d="m30.392,49.593c.165-.3.321-.612.474-.931s.308-.652.451-.985.29-.637.426-.938c.093.017.18.031.28.041.093.013.187.02.281.021.097,0,.194-.008.29-.021.09-.01.187-.024.295-.041-.138.227-.31.524-.519.892s-.43.771-.658,1.2-.473.87-.716,1.321-.458.865-.651,1.245c0,.2-.006.4-.009.592s-.015.4-.015.6c0,.412,0,.824.018,1.228s.045.83.1,1.277c-.165-.016-.345-.022-.515-.022h-1.034c-.172,0-.345.007-.517.022.018-.374.047-.757.089-1.144.042-.387.063-.776.063-1.165v-.564c0-.19-.01-.376-.015-.566-.205-.4-.438-.858-.7-1.359s-.517-.981-.764-1.449-.475-.9-.682-1.28-.359-.662-.456-.828c.187.017.368.031.548.041s.36.021.547.021.368-.009.536-.021.362-.024.543-.041c.142.3.3.632.473,1s.348.718.518,1.069.327.666.473.946c.107.218.225.431.354.637h.019c.179-.256.342-.523.487-.8" fill="#1a1819"/><path d="m38.317,49.245c.449-1.075,1.322-1.916,2.413-2.323.612-.238,1.265-.355,1.922-.344.615-.005,1.226.087,1.813.271.537.163,1.034.435,1.46.8.428.369.764.833.981,1.355.251.608.374,1.261.361,1.918.004.585-.115,1.164-.349,1.7-.225.521-.551.991-.96,1.385-.422.4-.92.713-1.464.92-.601.222-1.237.332-1.877.324-.612.003-1.221-.077-1.811-.237-.54-.146-1.042-.408-1.471-.767-.43-.366-.769-.829-.987-1.35-.259-.621-.384-1.289-.368-1.961-.005-.581.11-1.157.338-1.692m6.761.006c-.114-.385-.298-.746-.542-1.065-.226-.285-.513-.516-.839-.677-.338-.159-.707-.24-1.08-.237-.393-.007-.779.097-1.115.3-.333.207-.617.483-.833.81-.24.367-.414.773-.514,1.2-.25,1.024-.241,2.094.026,3.114.114.391.304.756.56,1.073.22.26.501.462.818.588.311.124.643.186.978.183.359.002.714-.076,1.039-.228.345-.161.645-.406.871-.712.275-.358.478-.765.6-1.2.16-.561.235-1.143.225-1.726.004-.48-.06-.958-.192-1.419" fill="#1a1819"/><path d="m55.271,53.587c.015.638.042,1.138.089,1.511-.149-.016-.298-.023-.448-.022h-1.1c-.148-.001-.297.006-.444.022.031-.5.054-1.016.071-1.538s.023-1.125.023-1.8v-1.654c0-.669-.009-1.271-.023-1.79s-.04-1.048-.071-1.577c.135.018.286.031.444.041s.345.021.555.021.379-.008.547-.021.313-.023.448-.041c-.048.362-.075.727-.081,1.093-.014.49-.018,1.03-.018,1.618v1.17c.275-.327.576-.68.892-1.064s.618-.76.913-1.125.553-.7.788-1.005.4-.536.512-.687c.114.018.229.031.34.041.114.013.228.02.343.021.115,0,.23-.008.345-.021.118-.01.248-.023.382-.041-.135.137-.347.36-.632.671s-.587.643-.907.994-.626.7-.921,1.038-.516.6-.684.8c.269.4.551.837.866,1.314s.633.949.949,1.406.6.881.864,1.268.489.67.649.867c-.239-.016-.447-.022-.638-.022h-1.078c-.173,0-.346.007-.526.022-.415-.616-.818-1.241-1.217-1.885s-.806-1.265-1.217-1.9h-.026c0,.883.003,1.641.01,2.272" fill="#1a1819"/><path d="m65.187,49.245c.218-.521.538-.994.943-1.388.421-.41.922-.728,1.472-.935.614-.238,1.268-.355,1.926-.344.614-.005,1.225.087,1.811.271.535.164,1.03.436,1.455.8.428.37.765.834.985,1.355.25.608.372,1.261.359,1.918.005.585-.114,1.164-.349,1.7-.225.52-.552.99-.962,1.382-.422.402-.921.715-1.467.92-.6.223-1.236.332-1.876.324-.608.003-1.213-.077-1.8-.237-.541-.144-1.044-.406-1.472-.767-.432-.368-.772-.831-.993-1.353-.261-.62-.386-1.289-.366-1.961-.004-.581.11-1.157.336-1.692m6.759.006c-.113-.386-.296-.747-.542-1.065-.225-.286-.512-.518-.84-.677-.337-.16-.707-.241-1.08-.237-.39-.006-.775.098-1.109.3-.335.204-.621.481-.836.81-.238.369-.412.774-.517,1.2-.117.481-.175.973-.173,1.468-.01.556.059,1.11.206,1.646.11.393.301.758.56,1.073.219.259.497.461.812.588.311.123.643.185.977.183.361.001.719-.076,1.047-.228.343-.162.64-.405.867-.709.273-.359.476-.766.6-1.2.163-.56.24-1.142.229-1.726.005-.48-.062-.959-.2-1.419" fill="#1a1819"/><path d="m84.448,51.037c-.307-.011-.614-.016-.925-.016s-.617.005-.927.012-.615.021-.927.035v.7c0,.672.01,1.272.027,1.8s.037,1.034.073,1.538c-.149-.016-.3-.023-.45-.022h-1.093c-.151-.001-.303.006-.453.022.032-.5.058-1.015.072-1.538s.023-1.125.023-1.8v-1.662c0-.669,0-1.271-.023-1.79s-.041-1.048-.072-1.577c.141.018.293.031.453.041s.343.02.547.02.386-.008.546-.02.313-.024.45-.041c-.042.529-.065,1.048-.078,1.562s-.022,1.112-.022,1.786c.208.005.471.012.767.015s.658,0,1.1,0h1.065c.271,0,.533-.01.769-.015,0-.674-.009-1.269-.026-1.786-.013-.514-.038-1.033-.068-1.562.135.018.283.031.446.041s.345.02.546.02.392-.008.555-.02.313-.024.45-.041c-.036.529-.061,1.051-.08,1.577s-.025,1.12-.025,1.79v1.659c0,.672.01,1.272.025,1.8s.044,1.034.08,1.538c-.149-.016-.3-.023-.45-.022h-1.1c-.149-.001-.298.006-.446.022.03-.5.056-1.015.068-1.538s.026-1.125.026-1.8v-.7c-.306-.007-.617-.015-.924-.03" fill="#1a1819"/><path d="m100.802,55.098c-.2-.016-.381-.022-.555-.022h-1.031c-.176,0-.353.007-.523.022-.131-.393-.262-.8-.4-1.222-.137-.406-.284-.828-.436-1.234-.261-.011-.519-.013-.778-.021s-.524-.007-.778-.007c-.212,0-.421,0-.634.007s-.423.01-.63.021c-.165.406-.312.827-.453,1.234-.14.422-.265.829-.374,1.222-.096-.015-.193-.022-.29-.022h-.573c-.108,0-.215.007-.322.022.1-.214.225-.5.393-.874s.339-.8.532-1.269.4-.978.629-1.514.44-1.087.666-1.639.444-1.093.661-1.627.412-1.039.589-1.5c.084.013.161.034.233.043.075.013.152.02.228.02.078,0,.156-.007.233-.02.074-.009.151-.03.23-.043.259.69.538,1.429.835,2.216s.595,1.56.893,2.319c.3.756.592,1.482.877,2.158s.546,1.257.781,1.728m-4.313-6.069c-.208.487-.411.965-.592,1.441s-.374.958-.548,1.455h2.226c-.179-.5-.358-.977-.531-1.455s-.36-.954-.555-1.441" fill="#1a1819"/><path d="m107.363,52.375c-.065.908-.134,1.818-.194,2.726-.096-.015-.193-.022-.29-.022h-.573c-.095,0-.189.007-.283.022.259-1.395.493-2.782.7-4.161.2-1.377.383-2.78.554-4.2.092.018.173.031.252.041.084.014.168.021.253.021.075-.001.151-.008.225-.021.089-.01.175-.023.259-.041.218.484.449.981.69,1.481s.476,1,.719,1.5.476.993.715,1.469.468.936.686,1.369c.488-.915.976-1.862,1.458-2.858s.942-1.981,1.379-2.962c.172.037.347.058.523.061.172-.004.343-.024.511-.061.083.7.17,1.447.267,2.246s.181,1.59.271,2.358.18,1.482.261,2.146.179,1.2.251,1.608c-.165-.016-.331-.022-.494-.022h-.993c-.173,0-.341.007-.507.022-.048-.836-.114-1.738-.208-2.712s-.185-1.94-.286-2.9h-.033c-.46.957-.916,1.9-1.362,2.823s-.884,1.855-1.326,2.786l-.115-.016-.112-.007-.119.007-.114.016c-.437-.908-.873-1.817-1.307-2.726-.432-.907-.879-1.829-1.35-2.766h-.016c-.135.937-.228,1.859-.294,2.766" fill="#1a1819"/><path d="m128.991,55.098c-.2-.016-.383-.022-.559-.022h-1.031c-.173,0-.346.007-.517.022-.133-.393-.267-.801-.4-1.222-.141-.406-.285-.828-.438-1.234-.26-.011-.514-.013-.778-.021s-.523-.007-.78-.007c-.21,0-.418,0-.63.007s-.423.01-.633.021c-.162.406-.311.827-.449,1.234-.142.422-.267.828-.381,1.222-.094-.015-.19-.023-.285-.022h-.574c-.108,0-.215.007-.322.022.1-.214.235-.5.394-.874s.339-.8.539-1.269.4-.978.619-1.514.451-1.087.668-1.639.441-1.093.661-1.627.413-1.039.589-1.5c.084.013.159.034.232.043.154.027.312.027.466,0,.07-.009.15-.03.228-.043.256.69.539,1.428.84,2.216s.591,1.558.886,2.319.592,1.482.879,2.158.545,1.257.781,1.728m-4.317-6.069c-.21.487-.412.965-.592,1.441s-.371.958-.549,1.455h2.227c-.183-.5-.361-.977-.532-1.455s-.354-.954-.553-1.441" fill="#1a1819"/><path d="m56.849,14.011l1.081-2.242h-5.393l1.117,2.242v23.61l-1.085,2.247h5.361l-1.081-2.247V14.011Z" fill="#1a1819"/><path d="m21.841,19.63c1.344-3.528,4.182-6.279,7.751-7.512,3.863-1.506,8.151-1.506,12.014,0,3.569,1.231,6.408,3.983,7.749,7.512,1.575,4.009,1.575,8.466,0,12.475-.672,1.747-1.713,3.328-3.052,4.635-1.335,1.281-2.942,2.245-4.7,2.821-3.879,1.419-8.135,1.419-12.014,0-1.759-.576-3.365-1.54-4.7-2.821-1.336-1.309-2.376-2.89-3.048-4.635-1.573-4.01-1.573-8.465,0-12.475m23.887.329c-.476-1.519-1.266-2.922-2.318-4.117-.961-1.062-2.155-1.887-3.489-2.409-1.377-.576-2.849-.889-4.341-.921-1.478.036-2.937.348-4.3.921-1.333.523-2.526,1.348-3.487,2.409-1.055,1.193-1.845,2.596-2.319,4.117-1.233,3.844-1.233,7.976,0,11.82.474,1.521,1.265,2.925,2.319,4.119.96,1.062,2.154,1.887,3.487,2.41,2.751,1.225,5.892,1.225,8.643,0,1.334-.522,2.528-1.347,3.489-2.41,1.052-1.196,1.842-2.599,2.318-4.119,1.233-3.844,1.233-7.976,0-11.82" fill="#1a1819"/><path d="m12.518,11.769l1.584,2.242v23.263c.001,1.198-.159,2.392-.477,3.547-2.476,7.241-12.542,7.485-12.542,7.485h-.1s-.54,0-.54.308c-.002.186.147.339.333.341.004,0,.009,0,.013,0h.069c14.781.689,16.545-8.538,16.713-11.764V14.011l1.633-2.242h-6.686Z" fill="#1a1819"/><path d="m84.074,39.873l-.013-25.49.695-2.555h-3.2l.695,2.564h0v18.437l-19.941-21.244c-.108-.079-.243-.109-.374-.085l-.15.052h0l-.022.02c-.083.059-.14.148-.157.248v24.878l-.694,3.164h3.504l-.694-3.161v-18.028l20.351,21.2Z" fill="#1a1819"/><path d="m108.415,11.769l.72,2.564v14.794c0,9.618-8.334,9.155-8.334,9.155-5.171,0-7.408-2.52-8.354-5-.43-1.595-.641-3.242-.626-4.894v-13.99l.824-2.629h-4.929l.831,2.629v14.612c0,13.141,12.379,11.2,12.379,11.2,8.468-.639,9.8-7.041,9.965-9.871h0V14.333l.717-2.564h-3.193Z" fill="#1a1819"/><path d="m125.468,24.701l-4.284-1.873c-1.622-.556-2.974-1.706-3.783-3.218-.519-1.256-.506-2.67.037-3.916.043-.082.172-.317.193-.355.107-.187.223-.36.333-.516.452-.596,1.033-1.082,1.7-1.421,4.773-2.282,7.86,2.444,7.86,2.444l.581-3.622c-1.511-.494-3.069-.825-4.65-.989-.874-.089-1.755-.059-2.621.089-3.761.638-6.527,3.876-6.568,7.691.064,2.215,1.144,4.276,2.928,5.59,1.521,1.092,3.19,1.959,4.957,2.577h0c.3.11.578.221.839.341.973.453,3.477,1.863,3.658,4.374v.375c-.351,6.575-6.22,6.281-6.22,6.281-3.7.294-6.1-3.174-6.1-3.174l-.177,3.759c2.121.774,4.375,1.114,6.63,1,8.156-.177,8.74-8.1,8.74-8.1.466-3.079-1.193-6.087-4.045-7.335" fill="#1a1819"/><path d="m15.613,4.402c-.084.377-.223.74-.411,1.077-.131.257-.401.413-.689.4-.276,0-.587-.148-.863-.683-.455-1.186-.633-2.46-.523-3.726.081-.019.163-.028.246-.027.108,0,.216.013.321.04-.005.257-.012.463-.012.637-.059.946.09,1.894.437,2.776.154.3.277.387.4.387.1,0,.188-.032.278-.2.157-.324.268-.668.328-1.023l.488.342Zm1.308-2.543c.679.769,1.149,1.698,1.366,2.7-.16.119-.349.193-.547.213-.197-.985-.628-1.908-1.257-2.692.12-.117.273-.194.438-.22" fill="#1a1819"/><path d="m23.133,5.189c1.8-.205,2.654-.8,2.654-1.809,0-.624-.417-1.057-1.346-1.057-1.026.051-2.04.242-3.014.568-.089-.165-.14-.348-.149-.536,1.021-.32,2.081-.504,3.15-.547,1.3,0,1.926.709,1.926,1.572,0,1.243-.927,2.054-3,2.35l-.221-.541Z" fill="#1a1819"/><path d="m31.374,1.994c.342-.002.684-.028,1.023-.077.036.113.054.23.053.348l-.006.123c-.358.062-.72.092-1.083.09-.078,0-.16,0-.238-.007-.078.347-.154.748-.22,1.1.117.006.244.006.38.006.414-.001.826-.044,1.231-.128.039.105.058.217.058.329l-.012.161c-.415.091-.838.136-1.263.136-.168,0-.322,0-.463-.008-.03.239-.045.48-.045.721-.045.499.324.94.823.984.069.006.138.004.206-.005.96,0,1.443-.418,1.443-1.031-.008-.301-.092-.595-.245-.855l.489-.053c.17.287.264.613.273.947,0,.967-.742,1.533-1.952,1.533-.763.086-1.451-.462-1.538-1.225-.011-.096-.012-.193-.002-.289,0-.256.015-.512.045-.766-.408-.034-.799-.176-1.134-.411.019-.164.097-.315.219-.426.302.179.637.293.985.335.026-.135.052-.271.078-.413l.141-.689c-.362-.042-.713-.149-1.036-.316.013-.159.076-.311.18-.432.3.145.623.239.954.277l.239-1.175c.186,0,.369.037.54.109-.09.368-.179.735-.257,1.107h.134Z" fill="#1a1819"/><path d="m38.172,3.102c.273-.183.592-.287.921-.3.428-.029.804.282.856.708.56-.219,1.173-.432,1.746-.606.085.17.139.353.161.541-.626.136-1.242.314-1.843.534.033.4.052.773.06,1.223-.086.014-.173.021-.26.021-.084,0-.168-.007-.251-.021,0-.425-.007-.726-.019-1.023-.818.38-1.134.715-1.134,1.05s.322.547,1.157.547c.596-.006,1.189-.082,1.767-.224.046.163.07.331.072.5v.044c-.603.119-1.216.179-1.831.181-1.184,0-1.673-.374-1.673-.986,0-.529.4-1.068,1.584-1.584-.078-.393-.22-.477-.483-.477-.414,0-.992.29-1.971,1.166-.139-.096-.251-.227-.324-.38.607-.523,1.118-1.147,1.51-1.846-.432.018-.856.031-1.281.038-.012-.084-.019-.168-.019-.253,0-.082.007-.163.019-.244.186.007.367.007.554.007.322,0,.643-.007.966-.02.141-.311.265-.629.373-.953.182.02.36.066.529.135-.111.265-.239.554-.348.793.566-.028,1.145-.084,1.713-.155.018.109.027.219.026.329l-.007.161c-.658.051-1.313.1-1.971.134-.182.329-.389.644-.619.941l.02.019Z" fill="#1a1819"/><path d="m44.656,4.79c.516.357.976.789,1.365,1.282-.115.165-.258.309-.423.424-.374-.512-.827-.962-1.341-1.333.115-.143.25-.268.4-.374" fill="#1a1819"/><path d="m55.187,6.116c-.527-.719-1.134-1.376-1.81-1.958-.715.805-1.587,1.454-2.563,1.908l-.342-.438c1.663-.715,2.973-2.063,3.639-3.747h-3.046v-.511h3.4l.329.387c-.269.723-.642,1.402-1.108,2.016.744.565,1.416,1.221,2,1.951l-.499.392Z" fill="#1a1819"/><path d="m58.386,2.8h5.087v.482h-2.19c.053,1.266-.655,2.44-1.8,2.983l-.366-.445c1.005-.438,1.642-1.443,1.61-2.538h-2.338l-.003-.482Zm.6-1.534h3.9v.5h-3.9v-.5Z" fill="#1a1819"/><path d="m71.04,1.898l.07.5-1.953.244.187,1.151,2.193-.289.077.5-2.185.29.335,2-.516.07-.335-2.008-2.29.3-.071-.5,2.279-.3-.187-1.153-1.9.239-.059-.5,1.875-.239-.218-1.297.519-.071.22,1.315,1.959-.252Z" fill="#1a1819"/><path d="m75.51,1.202c-.21,1.013-.32,2.044-.329,3.078.008.589.055,1.176.142,1.758-.126.047-.259.071-.393.071l-.135-.006c-.093-.608-.141-1.221-.142-1.836.01-1.056.123-2.109.336-3.143.176.002.351.028.52.078m3.955,4.271l-.014.147c-.468.093-.944.138-1.421.135-1.076,0-1.572-.4-1.656-1.139.13-.08.278-.126.431-.135.116.528.451.734,1.23.734.456,0,.912-.046,1.359-.136.048.126.072.259.071.394m-1.12-3.842c.295-.001.589.016.882.051l.013.174c0,.115-.012.229-.039.341-.28-.033-.562-.048-.844-.044-.542.003-1.083.054-1.616.154-.028-.118-.044-.239-.047-.361l.008-.129c.538-.124,1.089-.187,1.641-.186" fill="#1a1819"/><path d="m82.609,4.79c.516.358.976.79,1.366,1.282-.115.166-.259.309-.425.424-.374-.512-.827-.962-1.342-1.333.116-.142.251-.268.4-.374" fill="#1a1819"/><path d="m90.475,5.538c.218.087.449.137.683.147.259,0,.4-.084.5-.386.165-.606.242-1.233.227-1.861,0-.554-.123-.715-.555-.715-.172,0-.371.006-.591.025-.311,1.135-.75,2.23-1.308,3.266-.174-.042-.336-.121-.475-.233.539-.935.959-1.934,1.249-2.974-.393.051-.826.122-1.256.206-.038-.117-.06-.238-.065-.361v-.046l.007-.1c.515-.077,1-.142,1.436-.181.125-.479.222-.965.289-1.455.183.002.364.036.535.1-.071.412-.166.857-.29,1.321.176-.005.341-.013.5-.013.8,0,1.05.4,1.05,1.146.014.681-.071,1.36-.252,2.016-.082.476-.52.806-1,.754-.241-.003-.479-.054-.7-.148l.016-.508Zm2.716-3.787c.618.586,1.08,1.316,1.346,2.125-.139.126-.304.221-.483.277-.235-.813-.669-1.555-1.262-2.158.11-.115.248-.199.4-.244" fill="#1a1819"/><path d="m100.194,2.806c-.689.09-1.4.154-2.17.213-.044-.138-.066-.282-.065-.427l.007-.1c.952-.046,1.912-.117,2.88-.213.08.133.135.279.165.431-.5.5-.978.954-1.423,1.384l.019.02c.125-.042.255-.064.387-.064.432,0,.65.284.65.792v.09c0,.549.161.7.58.7.411-.008.819-.064,1.217-.167.053.144.08.296.079.45l-.007.09c-.412.102-.835.152-1.259.148-.85,0-1.139-.374-1.139-1.127v-.096c0-.412-.115-.514-.368-.514-.37.05-.706.239-.941.529-.385.372-.765.784-1.133,1.171-.156-.093-.292-.215-.4-.361l2.929-2.924-.008-.025Zm.9-1.462c-.002.171-.036.341-.1.5-.746-.105-1.484-.257-2.21-.457.018-.169.069-.333.148-.483.708.2,1.43.348,2.159.445" fill="#1a1819"/><path d="m107.961,1.917c-.774.065-1.992.219-3.2.393-.046-.135-.069-.276-.07-.419l.005-.129c1.649-.167,3.208-.314,4.849-.438.032.111.048.226.047.342l-.008.154c-.47.066-.924.219-1.339.451-.691.325-1.148,1.002-1.191,1.764,0,.772.521,1.275,2.015,1.449.003.208-.043.413-.135.6-1.656-.211-2.415-.953-2.415-2,.041-.932.6-1.763,1.448-2.151l-.006-.016Z" fill="#1a1819"/><path d="m115.36,4.402c-.086.377-.224.739-.412,1.077-.131.257-.401.414-.689.4-.277,0-.587-.148-.864-.683-.456-1.189-.634-2.466-.521-3.734.08-.019.161-.028.243-.027.109,0,.217.013.323.04-.007.257-.011.463-.011.637-.06.946.088,1.894.435,2.776.155.3.277.387.408.387.1,0,.186-.032.274-.2.159-.323.27-.668.33-1.023l.484.35Zm1.308-2.543c.677.769,1.148,1.698,1.366,2.7-.16.12-.351.194-.55.213-.195-.985-.625-1.909-1.254-2.692.12-.117.273-.194.439-.22" fill="#1a1819"/><path d="m122.224,2.317c.519-.416,1.004-.873,1.45-1.366.174.093.323.226.437.387-.5.451-.991.876-1.545,1.327l-.779.631c-.067.04-.113.109-.123.187.009.077.055.144.123.181l.489.354c.743.547,1.457,1.131,2.14,1.751-.115.186-.269.345-.451.465-.63-.651-1.304-1.258-2.016-1.817l-.5-.38c-.185-.115-.304-.311-.322-.528,0-.187.081-.354.379-.606l.718-.586Z" fill="#1a1819"/><path d="m128.973,5.485c.007.543-.428.988-.971.995-.543.007-.988-.428-.995-.971-.007-.543.428-.988.971-.995.005,0,.011,0,.016,0,.538,0,.975.433.979.971m-1.6,0c0,.34.274.616.613.617.34,0,.616-.274.617-.613v-.003c.007-.331-.256-.605-.588-.612-.008,0-.016,0-.024,0-.336-.005-.613.264-.618.6,0,.004,0,.008,0,.012" fill="#1a1819"/></svg>