<?xml version="1.0" encoding="UTF-8"?><svg xmlns="http://www.w3.org/2000/svg" width="160" height="120" viewBox="0 0 160 120"><path d="m1.027,16.822v71.08c.003,8.722,7.073,15.792,15.795,15.795h52.355l7.537,15.79h6.573l7.537-15.79h52.353c8.724,0,15.797-7.071,15.8-15.795V16.822c0-8.723-7.07-15.794-15.793-15.795-.002,0-.005,0-.007,0H16.822c-8.723,0-15.794,7.07-15.795,15.793,0,0,0,.001,0,.002" fill="#fff" stroke-width="0"/><line x1="66.158" y1="97.373" x2="76.714" y2="119.487" fill="none" stroke="#000" stroke-miterlimit="10" stroke-width="1.3"/><line x1="83.287" y1="119.487" x2="93.843" y2="97.373" fill="none" stroke="#000" stroke-miterlimit="10" stroke-width="1.3"/><path d="m90.824,103.697h52.353c8.723.003,15.797-7.065,15.8-15.788V16.822c-.003-8.724-7.076-15.795-15.8-15.795H16.822c-8.722.003-15.792,7.073-15.795,15.795v71.08c0,8.723,7.07,15.794,15.793,15.795h52.357" fill="none" stroke="#000" stroke-miterlimit="10" stroke-width="1.3"/></svg>