<?xml version="1.0" encoding="UTF-8"?><svg id="a" xmlns="http://www.w3.org/2000/svg" width="458" height="180" viewBox="0 0 458 180"><path id="b" d="m258.275,78.323c-.075-.004-.15-.004-.225,0-.381.036-.024,1.481-.948.5-.57.421-1.352.726-1.66,1.289-.473.863-1.364,1.125-1.951,1.777-.072.08-.318-.006-.407.072-.335.293-.592.717-.971.907-.276.139.34,1.143-.638.561-.577-.343-.159.759-.607.711-.467-.051.256,1.463-.827.555-.288-.241-.073.976-.872.809-.35.001-.683.149-.918.408-.354.413-.677.853-.964,1.315-.424-.824-.785.139-1.214.08-.181-.026-.433.474-.655.735-.541-.678-.65.144-.945.284-.374.179-.944.342-1.039.637-.238.751-1.119-.15-1.262.6-.132.7-1.17.686-1.211,1-.113.9-.975.381-.971.489.032.917-.658.523-1.061.7-1.01.446-1.996.946-2.951,1.5-.5.289-.81,1.244-1.586.357-.008-.01-.4.307-.606.473-.379.3-.394.29-.705-.636-.334.333-.568.759-.885.831s-.729-.213-1.108-.3c-.51-.031-1.02.06-1.488.265-.1.035-.272.068-.3.024-.46-.587-1.195-.887-1.934-.79-.277,0-.557-.548-.709-1.052.044-.135-.042-.064-.13.006l.2.2c.074-.084.141-.173.2-.268.01-.017-.086-.09-.268.063-.815.31-1.485-.078-1.41-.62.119-.872-.691-1.686-.071-2.539.064-.138.064-.296,0-.434-1.039-2.158-1.058-2.865-.574-4.808.272-1.1.316-2.244,1.27-3.05.064-.053-.054-.3-.06-.458-.021-.4-.194-1.008,0-1.167.514-.426.452-.9.524-1.451.135-.603.354-1.184.651-1.726.282-.568.447-1.187.484-1.82.01-.348.467-.679.717-1.024.213-.3-.515-.552.023-.98.425-.338.946-1.135.808-1.483-.275-.7.253-.968.392-1.414.355-.678.612-1.403.762-2.154.028-.618.643-1.194.936-1.818.194-.43.286-.9.267-1.372-.629.492-1.347.823-1.289,1.793.033.543-.263.243-.506.074-.514-.353-.817-.191-.807.439.009.669-.143,1.031-.871.565-.119-.076-.407-.1-.449-.033-.109.163-.058.476-.187.574-.448.338-.64.945-1.368,1.017-.667.067.235,1.229-.805,1.306h.1c-.029-.119-.075-.233-.136-.339-.022-.027-.177.048-.271.074.079.112.184.203.306.265.083.213.117.441.1.669-.158-.008-.317-.008-.473-.026-.107-.013-.3-.085-.3-.074-.226.6-.4,1.243-1.247,1.261-.092.23-.124.479-.094.724.037.2.389.678.049.509-.819-.411-.343,1.608-1.242.559-.09.08-.23.145-.261.244-.204.516-.349,1.052-.434,1.6-.031.573-.399,1.073-.936,1.274-1,.564-1.962,1.25-1.788,2.7.132,1.094-.884-.759-.881.294,0,.434-.054.867-.083,1.3l-.315-.044c-.151-.047-.31-.063-.467-.048-.127.037-.312.2-.307.3.058,1.265-1.612,1.631-1.506,2.911.164.671-.246,1.347-.917,1.512-.067.017-.136.027-.205.032-.367.211-.602.594-.625,1.017.051.767-.424,1.16-.777,1.709-1.5,2.33-3.553,4.345-4.183,7.18-1.18,1.1-1.4,2.856-2.783,3.885h.1c-.028-.119-.073-.233-.135-.339-.019-.027-.177.048-.271.074.079.112.184.203.307.265-.288,1.194-1.693.984-2.368,1.78-.158-.285-.315-.569-.471-.854-.568.963-1.244-.254-1.619.009-.971.678-.805.054-.815-.543-.009-.429.213-1.364-.661-.394-.074-.116-.239-.3-.213-.335.638-.781-.042-1.558-.082-2.309-.036-.71.817-1.379.086-2.1-.065-.067.086-.387.171-.573.226-.5.5-.981.7-1.494.257-.49.398-1.033.411-1.586-.074-.559.6-.932.23-1.5-.06-.089.026-.362.13-.453.434-.292.662-.807.588-1.325-.036-.209-.071-.525.046-.636.557-.538,1.126-1,.542-1.9-.094-.144.289-.586.434-.9.259-.56.794-1.176.706-1.681-.27-1.553.759-2.7,1.076-4.049.222-1.368.732-2.674,1.494-3.832.113-.149-.148-.548-.062-.762.105-.253.407-.42.6-.642s.534-.5.491-.667c-.362-1.4.836-2.382,1.059-4.183-.008-.191-.091-.04-.13.122-.017.138-.019.277-.005.415.149-.1.38-.179.426-.315.05-.157-.066-.366-.292-.222-.949.715-1.441,1.8-1.994,1.786-1.189-.032-.989,1.329-1.862,1.442-.11.014-.3.182-.29.262.15,1.374-1.18,1.357-1.842,1.951-.735.661-1.783,1.049-1.758,2.292,0,.121-.118.244-.182.366-1.545-1.35-1.176,1.016-1.337.855-.7-.695-.818.114-1.16.3-.365.2-.833.338-1.052.647-.369.515-1.577.366-1.194,1.477.026.074-.148.312-.232.312-.8,0-1.045.744-1.535,1.144-.461.374-.789.944-1.289,1.221-.541.3-.227,1.364-1,1.19-.922-.208-.72.711-1.163.921-.871.411-1.072,1.413-1.818,1.961-.708.52-1.662,1.179-1.781,1.9-.131.795-1.076.357-1.039,1.137.031.679-.805.674-1.233,1.007-.25.2-.333.6-.521.886-.8,1.228-.532,2.909-1.691,3.989-.081.117-.113.26-.089.4.126,1.158-.303,2.308-1.158,3.1-.2.2-.057.714-.2,1.017-.393.805-.367,1.745-1.039,2.49-.521.492-.794,1.193-.742,1.908.028.2.023.529-.1.613-.73.678-1.274,1.532-1.58,2.48-.409.81-.906,1.572-1.481,2.273-.33.257-.77.324-1.162.176-.834-.553-1.821-.83-2.821-.791-.609-.109-1.199-.307-1.75-.588.3-1.008-.78-1.8-.384-2.872.5-1.359.809-2.787,1.235-4.174.4-1.315,1.238-2.47,1.464-3.854.845-.221-.584-.759.181-1.161.36-.187.353-1,.6-1.49.221-.435.646-.776.83-1.22.27-.655.057-1.375.266-2.111.462-1.298,1.011-2.563,1.644-3.787.393-.9.036-2,.929-2.751.846-.708-.035-1.947.729-2.837.239-.277.322-.891.7-1.246.08-.087.142-.189.182-.3-.745-.582-.252-.979.185-1.408.491-.48,1.278-.914.37-1.7.265-.561.538-1.116.785-1.684.191-.44.324-.908.527-1.343.932-2.009,1.156-4.258,2.136-6.254.087-.179-.092-.489-.149-.738-.205.027-.404.088-.589.181-.484.365-.937.771-1.4,1.16-1.578,1.259-2.536,3.211-4.511,4.03-.162.068-.274.257-.407.389l-1.835,1.214c-.988.074-.981.077-1.3.579-.248.39-.191,1.413-1.088.545-.121.038-.225.117-.294.223-.363,1.268-1.554,1.463-2.515,1.955-.182.094-.556.173-.551.223.143,1.128-.642.148-.8.357-.389.519-.577-.1-.8-.074s-.443.571-.636.555c-.57-.048-.875,1.126-1.556.316-.518.347-1.047.678-1.549,1.044-.236.173-.4.484-.65.6-.143.064-.407-.148-.62-.235l-.316.763c-.7-.722-.98-.059-1.112.428-.1.349-.831.778-.049,1.207.041.022-.094.548-.158.55-.759.024-.491.326-.407.827.058.352-.507.791-.755,1.215-.137.234-.117.611-.3.758-.789.567-1.208,1.517-1.094,2.482-.062.552-.288,1.072-.649,1.494-.271.448-.649.822-1.1,1.089-.692.344.136.866-.205,1.124-1.481,1.119-2.137,2.87-3.248,4.271-.238.374-.624.629-1.062.7-.866.2.143.514.03.624-.274.196-.566.367-.871.51-.276.184.557,1.092-.5.794-.723-.2-.173.738-.64.717s-.67.114-.655.61c.026.808-.381,1.17-1.208,1.21-.833.476-1.497,1.2-1.9,2.071-.059,1-.416.354-.711.167-.014-.009-.108.092-.152.152-.266.361-.528.724-.792,1.088-.652-.758-.755.209-1.1.372-.429.236-.845.494-1.247.774-.167.124-.358.211-.561.257-.6.063-1.381-.211-1.411.824-.623-.565-.986-.006-1.241.384-.309.47-.719-.885-.844.09-.092.72-.36.163-.6.187-.339.033-.6.564-.962.718-.836.357-.506-.667-.914-.849-.322.385-.281,1.513-1.268.573-.144-.137-.7.239-1.048.212-1.109-.297-2.097-.935-2.823-1.825-.306-.4-.564-.78-1.206-.782-.611,0-.967-.411-1.058-1.117-.143-.675-.355-1.333-.633-1.964-.045-.128-.24-.256-.218-.345.118-.467.288-.922.432-1.383.125-.4-.564-.6-.073-1.25.408-.825.579-1.747.494-2.663.028-.86,1.345-1.083.922-2.086.7-1.942,1.9-3.691,2.242-5.775.028-.139.104-.264.214-.353,1.911-1.432,2.16-3.727,2.836-5.748.211-.631.363-.959.926-1.148-.764-.917.439-1.373.506-2.106.079-.389.201-.768.365-1.129-.622-.015-.64.474-.868.882-.209.375-.815.5-1.147.84-.57.58-1.672.136-2.014,1.094-.135-.05-.26-.122-.372-.212-.506-.578-1.517-.827-1.685-.315-.294.889-1.456-.006-1.5.95l-.474-.121c-.736-.328-1.588-.265-2.268.168-.11.087-.249.129-.389.119-.286-.045-.586-.24-.836-.182-.161.037-.236.6-.361.606-.542.017-.56.347-.568.726-.284-.082-.687-.326-.83-.22-.872.647-2.177.858-2.658,1.8-.435.846-.652-.293-.855.086-.18.335-.044.92-.764.791-.35-.083-.718-.026-1.027.158-.321.271-.51.668-.518,1.088.371,1.989-.6,3.628-1.419,5.236-.781,1.541-1.108,3.286-2.183,4.689-.39.511-1.271.857-1.194,1.442.128.975-1.053.542-1.1,1.342-.04.638-.629,1.221-.818,1.874-.2.681-1.033-.875-.9.292.081.708-.336.827-.821.972.647,1.134-.916.849-1.05,1.63-.119.7-.946,1.253-1.147,1.961-.263.931-.907-.794-1.049.248-.13.464-.323.908-.574,1.319-.432-.272-.737-.451-.831.339-.044.358-.7.631-.768,1-.1.524-.647.424-.7.571-.211.582-1.312.063-1.174,1.066.046.336-.7.266-.962.878-.41.941-1.725,1.3-2.249,2.342-.108.214-.875-.774-.812.356.018.347-1.074.108-.887.921.009.039-.143.15-.144.149-1.3-1.228-1.106.636-1.717.827-.274.085-.954-.758-.791.339-.592.347-.6-.42-.95-.5-.244-.053-.625-.131-.742-.006-.575.614-1.372.447-2.053.646-.509.148-1.226.384-1.2-.625-.693.259-1.309-.32-2-.173-.928.2-2.384-.6-2.391-1.449-.1-.694-.298-1.37-.588-2.009-.046-.167-.248-.339-.217-.473.342-1.1.337-2.278-.015-3.375-.078-.41.333-.9.307-1.336-.11-1.9.787-3.55,1.225-5.31.033-.134.134-.261.132-.389-.105-1.996.522-3.962,1.763-5.529-.935-.869.331-1.2.561-1.621.381-.7.2-1.413.456-2.055.186-.343.413-.664.674-.954-.611-.394-.039-.691.164-.765.967-.352.527-1.56,1.32-2.02.83-.482.833-1.332.908-2.187.065-.753,1.215-1.107.9-2.077,1.166-1.08,1.451-2.812,2.832-3.756.482-.33.756-.946,1.207-1.339.52-.577,1.139-1.056,1.827-1.417.806-.38,1.475-1,1.915-1.775.623-1.084,1.2-1.974,2.628-1.738.767-1.2,2.512-.593,3.29-1.783.996-.365,2.015-.662,3.051-.89.2.022.556.067.578.162.1.457.353.551.772.781,1.64.9,3.529,1.386,4.921,2.683.756.7,2,1.336,1.2,2.778-.012.022.259.292.369.272.341-.055.672-.162.981-.318,1.35-.706,2.717-1.374,4.026-2.169.891-.534,1.881-.882,2.91-1.024,1.148-.154,1.894-1.35,3.149-1.063.8-.842,2.232-.529,2.922-1.58,1.346-.072,2.452-1.068,3.844-.982.763.076,1.492-.328,1.833-1.015.065-.117.17-.3.257-.306.73.126,1.474-.117,1.989-.649.437-.515,1.346-.274,1.872-.926.155-.2.981.08,1.463.244.254.086.414.419.643.606.363.395.977.421,1.372.058.055-.051.105-.108.147-.17.271-.325.489-.695.754-1.025.317-.4.6-1.024,1-1.11,1.323-.286,1.237-2.074,2.575-2.25.143-1.447,1.548-.966,2.312-1.46.5-.322,1.325.28,1.843-.388.741.542.994-.2,1.434-.512.206-.09.439-.097.65-.017.325.1.625.4.936.4.351,0,.6.86,1.008.122.274.188.537.393.785.614.368.329.805.57,1.279.706.637.263,1.114.81,1.287,1.477.062.964.7,1.379,1.162,2.007.456.612.823,1.285,1.09,2,.073.409-.001.83-.211,1.189-.342.465-.243,1.12.223,1.462.028.02.056.039.085.057.193.128.649.208.729.107.696-.711,1.566-1.228,2.524-1.5.841-.342,1.3-1.383,2.431-1.217.265.039.579-.655.95-.881.747-.666,1.792-.884,2.742-.57,1.607.645,2.517.241,3.578-1.17.261-.347.507-.794.869-.962,1.312-.611,2.077-1.816,3.127-2.7.593-.621,1.282-1.143,2.041-1.545,1.772-.682,2.671-2.236,3.75-3.56.534-.813.847-1.752.907-2.723-.017-.986.768-1.8,1.755-1.817.008,0,.016,0,.024,0,.134-.013.333-.039.384-.127.676-1.157,1.631-.037,2.419-.3.189-.062.451.669.885,1.568.379.687.853,1.316,1.408,1.87.371.41.374.651.053,1.117-.181.265.077.8.053,1.21s-.3.863-.2,1.23c.188.732-.4,1.324-.15,2.134.179.582-.358,1.411-.652,2.1-.146.343.6.623-.022.979-.27.225-.459.533-.537.876-.194.593-.565,1.3-.4,1.8.229.69-.767,1.1-.205,1.725.045.051.008.22-.04.307-.664,1.2-.898,2.59-.663,3.941.1.607-.805,1.1-.078,1.661-.566.42-.4,1.031-.417,1.694v-.1c-.119.028-.233.074-.338.135-.03.022.045.177.074.271.111-.08.201-.185.263-.306.86-.847,1.613-1.796,2.241-2.827.415-.599.911-1.137,1.473-1.6.449-.315,1.14-.389,1.181-1.047.042-.674,1.171-.267.991-1.147-.041-.2.435-.643.753-.754.858-.3,1.233-1,1.753-1.643s1.374-1.05,1.944-1.682c.446-.493,1.28-.475,1.459-1.361.125-.623,1.284-.534,1.347-1.4,1.044.117.623-1.321,1.392-1.364.878-.05.994-.674,1.233-1.259,1.162.511.943-.857,1.555-1.166.75-.38,1.54-.6,2.3-.917,1.239-.629,2.638-.872,4.017-.7.349-.02.694.079.98.281.359.48.959.715,1.549.607-.2.628,1.637-.049.727,1.142-.11.145.967.582.5,1.406-.081.482.089.972.451,1.3.565.419-.218.674.017.988.125.163.34.456.29.524-.64.855-.5,1.924-.822,2.86-.338.976-.633,1.966-.948,3.049v-.1c-.119.028-.233.074-.339.135-.027.021.048.177.074.271.112-.078.203-.184.265-.306.276-.153.706-.112.805-.272.83-1.561,1.839-3.019,3.008-4.346.2-.207.085-.7.226-1.011.279-.611.518.306.727.069.191-.286.356-.589.492-.905.595-.985,1.569-1.652,2.2-2.622.4-.611,1.6-.466,1.539-1.562.702-.296,1.366-.676,1.978-1.13.905-1.02,2.028-1.823,3.286-2.349.064-.021.119-.154.158-.145.668.13-.1-1.21.787-.785.619.3.678-.317.938-.533.345-.373.818-.602,1.324-.642.344-.012.642-.551,1.017-.742s.922-.107,1.174-.361c.4-.4.67.6,1.007-.01.046-.083.588.179.744.065.638-.462.631.333.963.437.659.207,1.314.425,1.961.663.322.118.884.274.9.442.1,1.495,1.565,2.611,1.157,4.221-.047.273-.151.532-.306.762-.365.439-1.009.787-.244,1.422-.081.158-.172.31-.274.456-.217.271-.384.578-.494.907-.193,1.4-.186,1.4-.645,2.055-.154.221.042.669-.092.923-.476,1.082-1.039,2.124-1.685,3.114-.495.826-.888,1.709-1.171,2.629-.027.064.022.158-.008.221-.231.524-.717,1.077-.651,1.559.089.655-.492,1.077-.352,1.7.023.1-.44.308-.679.466.243.19.259.3.1.65-.275.593-1.156,1.211-.252,1.98-.263.561-.488,1.146-.8,1.678-.541.819-.865,1.761-.944,2.739-.026.502-.078,1.003-.158,1.5-.062.407-.17.807-.257,1.21.494.065,1.079.333,1.469.161,1.577-.691,3.114-1.485,4.622-2.321.313-.175.414-.708.654-1.048.271-.384.655.64.946-.057.132-.317.238-.727.489-.894.326-.218.84-.153,1.18-.36.959-.586,1.876-1.239,2.8-1.881.582-.406,1.158-.821,1.709-1.266.511-.414.741-1.058,1.386-1.414,1.912-1.056,3.327-2.851,5.4-3.7.18-.074.188-.5.37-.654.323-.265.679-.487,1.059-.66.786-.372,1.766-.363,2.1-1.508.118-.416.823-.713,1.312-.966,1.265-.699,2.336-1.704,3.114-2.922.132-.189.4-.279.6-.421,1.094-.774,2.2-1.531,3.272-2.34.263-.2.376-.587.595-.859.302-.407.637-.79,1-1.144.512-.47,1.536-.218,1.689-1.243.113-.767,1.492-.358,1.384-1.4.672-.353,1.33-.741,2.028-1.042.274-.116.586-.099.845.046.918,1.043,2.629.968,3.263,2.473-.069.366-1.243.523-.419,1.3-.719.6-.708,1.649-1.655,2.244-.869.524-1.41,1.454-1.436,2.468.036,1.108-.884-.769-.908.3-.017.79-1.273,1.1-.882,2.087-.542.438-1.137.808-1.77,1.1-.738.24-.089.444-.125.636-.055.277-.423.709-.647.7-.9-.021-1.699.571-1.94,1.438-.072.158-.3.389-.407.365-.971-.238-.971,1.066-1.762,1.08.11.723-.553.693-.93.905-.325.184-.479,1.142-1.111.321-.111.059-.212.135-.3.225-.328.535-.713,1.033-1.148,1.485-.437.362-1.206.249-1.488.92m-146.264,1.853c-.086-.2-.15-.32-.193-.449-.313-.966-1.238-1.12-1.974-1.563-.469-.422-1.191-.384-1.613.084-.029.032-.055.065-.08.1-.723.884-1.683,1.543-2.768,1.9-.367.11-.93.385-.963.643-.132,1.012-.47.277-.742.144-.167.771-.769,1.373-1.539,1.542.213.756-.616.835-.836,1.3-.05.197-.026.407.069.587.098.098.24.139.375.107.252-.11.461-.385.711-.419,3.065-.407,5.743-1.847,8.475-3.144.255-.101.5-.225.731-.372.137-.134.254-.288.345-.457m21.435,21.385c.767.232,1.329-.406,2.03-.483.317-.035.832-.41.886-.34.478.609.729.117.967-.175.166-.2.177-.683.333-.719.831-.195,1.58-.646,2.142-1.288.527-.602,1.117-1.146,1.761-1.621,1.033-.733,1.92-1.653,2.615-2.711.316-.592.774-1.095,1.333-1.465.674-.376,1.555-.95,1.364-2.065-.014-.083.157-.211.257-.3,1.667-1.536,2.249-2.231,2.579-4.025.243-1.128.577-2.234,1-3.307-.102.214-.19.435-.265.66-.017.138-.019.277-.006.415.149-.1.381-.179.426-.315.05-.157-.064-.367-.426.315-.222,0-.444.01-.667,0-.515.005-1.026-.085-1.508-.266-.937-.562-1.215.559-1.874.512-.158-.012-.362.01-.464-.078-1.051-.908-2.665-.315-3.67-1.377-.237-.091-.503-.06-.713.082-.5,1.067-1.987,1.523-1.842,2.976-.002.068-.016.136-.039.2-.151-.056-.309-.089-.47-.1-.132.012-.352.1-.367.185-.11.623.048,1.461-.3,1.844-1.257,1.14-2.102,2.663-2.405,4.332-.085.261-.2.511-.342.746-.438.614-.759,1.305-.945,2.036-.262,2.214-.727,4.399-1.388,6.528v-.2c-.119.028-.233.074-.339.135-.028.021.046.176.074.271.134-.099.228-.243.265-.406m-43.822,6.457c-.4,1.057.943,1.184,1.077,1.97.191.037.388.02.57-.049.235-.182.45-.388.641-.616.597-.663,1.234-1.288,1.908-1.872.654-.506,1.076-1.3,1.727-1.668.657-.407,1.248-.913,1.75-1.5.844-1.096,1.918-1.994,3.146-2.63.344-.146.527-.655.8-.981,1.149-1.572,2.434-3.041,3.84-4.389,1.014-.797,1.817-1.832,2.337-3.013.164-.666.412-1.309.738-1.913.509-.658.072-.911-.284-1.256s-.647-.127-.92.166c-.4.435-.806.972-1.4.211-.009-.013-.276.114-.272.164.039.461-.122.668-.615.655-.713-.052-1.427.079-2.075.381-.511.25-1.261.054-1.8.5-.168-.681-.649-.623-.849-.168-.162.37-.172.638-.658.624-.699.033-1.393.146-2.066.338-.6.121-1.241.623-2.087.207-.623-.307-.175,1.325-1.171,1.265-.089-.005-.351.56-.281.636.383.426.6.652-.234.71-.218.015-.62.647-.575.705.669.828-.724,1.03-.518,1.25.756.806.36,1.058-.417,1.271-.045,1.121-.369,2.213-.944,3.177.516.482.393.832.028,1.438-.253.419-.048,1.106-.841,1.162.084.146.158.298.221.455-.8.527.607,1.235-.032,1.519-.663.294-.88.6-.75,1.251m57.319-31.031c.887-.113,1.779.232,2.7-.289,1.101-.607,2.329-.95,3.586-1,.968-.049.71-.931,1.223-1.2-.688-.654.361-1.211.1-1.84.705-.589.211-1.395.384-2.075.091-.369.806-.7.275-1.062-.471-.173-.985-.186-1.464-.037-.145.024-.217.473-.322.727-.769-.683-1.126-.384-1.443.482-.081.223-.782.175-1.155.347-.431.231-.846.49-1.242.776.467.343.361.622-.046.957-.333.275-.833.646-.827.968.008.756-.916.478-.839.714.125.4.361.636-.1.976-.338.282-.639.607-.893.966-.062.08.026.274.063.588m35.321-9.991l.159.159c.058-.095.104-.195.14-.3.008-.037-.091-.1-.14-.146-.054.1-.108.194-.159.288m-89.222,48.93l-.287.162c.049.049.109.148.146.14.105-.035.206-.082.3-.14l-.159-.159" fill="#dce6e6" stroke-width="0"/><path id="c" d="m53.676,43.569c-.118.149-.208.378-.36.432-.428.153-1.042.473-1.3.3-1.031-.693-.261.738-.83.641-.277-.048-.631.417-.923.389-2.053-.2-3.336,1.793-5.3,1.812-.823.885-1.823,1.586-2.936,2.057-.374.185-.595.908-1.113.2-.4.292-.817.565-1.2.88-.449.372-.839.826-1.312,1.158-.389.272-.886.387-1.3.633s-.8.589-1.2.884-.8.582-1.207.864c-.461.321-.928.633-1.393.949s-.934.627-1.395.948c-.521.363-1,.939-1.564,1.056-.809.167-.746.943-1.229,1.283-.458.324-.934.627-1.392.952-.262.241-.548.455-.853.64-1.021.445-1.886,1.184-2.486,2.122-.747,1.186-1.787,2.16-3.019,2.829-.334.164-.493.654-.791.93-.37.398-.805.73-1.286.982-2.236.966-4.025,2.741-5.008,4.97-.305.77-1.177,1.147-1.947.841-.095-.038-.186-.085-.272-.141-.529-.3-.99.595-1.678.046-.365-.29-1.151-.046-1.747-.053s-1.455-.609-1.392-1.138c.032-.277.414-.449.013-.812-.307-.277-.442-.227-.658.04-.028.035-.29-.042-.293-.078-.088-.435-.091-.883-.01-1.32.3-.819.149-1.82.5-2.463.658-1.215,1.1-2.676,2.309-3.507,1.682-1.264,3.433-2.432,5.246-3.5,1.143-.525,2.214-1.196,3.186-1.995.437-.457.969-.812,1.559-1.039.48-.171.654-1.079,1.134-1.414.318-.222.7-.815,1.4-.371.221.14.93-.379,1.351-.684,1.265-.921,2.485-1.9,3.751-2.823.658-.334,1.283-.73,1.865-1.184.516-.568,1.216-.864,1.718-1.451.318-.372,1.015-.4,1.482-.677.488-.29.859-.787,1.36-1.043,2.619-1.337,4.951-3.13,7.474-4.614.407-.239,1.238-.247,1.3-.5.17-.706.388-.679.853-.327.209-1,1.164-1.012,1.842-1.4.599-.499,1.352-.777,2.132-.786.903-.775,1.934-1.386,3.047-1.806,2.09-1.105,4.353-1.843,6.693-2.181.519-.086.833-.14.785-.724.263.035.649.2.769.082.537-.511,1.447-.13,1.906-.9.144-.241.8-.149,1.194-.277,1.491-.409,3.002-.739,4.528-.988,1.234-.258,2.437-.168,3.629-.376.58-.1,1.068.762,1.628.073.799.417,1.653.72,2.536.9.571.2,1.006,1.237,1.469,1.215.691-.106,1.337.369,1.443,1.06.016.103.019.208.009.312-.164.794,1.441.077.7,1.068-.205.275.695.93-.092,1.364.11.158.186.384.338.464.973.51.012,1.78.923,2.3-.6.349.108,1.071-.426,1.473-.211.185-.35.438-.393.715-.031.191.272.554.217.6-.225.128-.459.24-.7.336.164.586-1.07,1.074-.126,1.687-.367.85-.713,1.709-1.116,2.543-.094.193-.461.249-.568.443-.6,1.086-1.164,2.2-1.738,3.3.814.9-.851,1.1-.528,1.869-1.079,1.199-1.843,2.648-2.222,4.216-.041.132-.091.26-.149.385-.231.533-1.164.588-.962,1.422.171.708-.5.9-.849,1.243-.6.6-.211,1.587-.708,1.994-.6.489-.189,1.247-.616,1.537-.457.311-1.048.38-1.2,1.059-.165.453-.305.914-.419,1.382-.06.609-1.139.126-.912.928.217.767-.781.7-.79.955-.033.989-.723,1.658-1,2.509-.074,0-.2-.026-.216,0-.895,1.916-2.057,3.695-3.451,5.286-.415.711-.747,1.467-.99,2.253-1.184,2.267-2.416,4.509-3.622,6.764-.427.649-.667,1.404-.693,2.181.032,1.011-.579-.1-.714.141-.193.513-.416,1.013-.668,1.5-.38.658-.688,1.355-.92,2.079-.235.52-.92.85-.828,1.645.024.217-.252.483-.42.705-.518.682-1.071,1.337-1.562,2.037-.132.189-.208.646-.105.728.482.39.131.589-.123.812-.404.522-.74,1.093-1,1.7-.313.6-.881,1.072-1.225,1.664-.518.893-1.31,1.59-1.423,2.78-.072.772-1.273,1.131-1.436,2.064-1.164.335-1.086,1.671-1.869,2.314.4,1.052-.95,1.583-.733,2.724.146.764-.437-.132-.569-.033-.276.207-.7.589-.65.791.181.7-.4,1.23-.27,1.949.06.344-.654.872-1.086,1.234-.185.155-.545.1-.826.145.087.211.307.546.243.613-.773.654-1.226,1.61-1.243,2.622-1.279.076-.7,1.521-1.526,2.042-.679.43-.507,1.72-1.581,1.955-.5,2.053-2.319,3.46-2.732,5.575-.068.356-.667.582-.832.952-.157.352.13.936-.625.876-.134.033-.242.133-.285.265.044,1.5-1.18,2.349-1.8,3.5s-1.491,2.21-2.006,3.413c-.6,1.4-1.745,2.526-2.019,4.077-1.187.912-1.336,2.444-2.134,3.579-1.223,1.692-2.277,3.501-3.145,5.4-.352.758-.759,1.489-1.22,2.186-.632.748-1.098,1.623-1.365,2.565-.042.267,0,1.029-.869.985-.475-.024.577.563-.039.913-.303.193-.518.496-.6.846-.376,2.214-1.946,3.988-2.254,6.217-.011.182-.011.364,0,.546v-.1c-.119.029-.233.074-.339.136-.028.021.046.176.074.27.112-.079.203-.184.265-.306,1.278-1.152,2.53-2.237,3.849-3.235.329-.249.439-1.387,1.247-.485.158-.425.2-.979.5-1.251.887-.831,1.844-1.585,2.86-2.253.663-.512,1.411-.903,2.209-1.155.774-.184,1.09-1.278,2.007-1.609.363-.131.488-.912,1.116-.98,0-1.274,1.4-1.369,1.939-2.273.658-.853,1.505-1.541,2.475-2.01.333-.2.423-.435.624-.641.656-.871,1.475-1.607,2.411-2.166.822-.493,1.54-1.143,2.111-1.913.467-.533.547-1.369,1.474-1.675.645-.213.979-1.232,1.59-1.714.463-.5.966-.961,1.505-1.378.688-.4,1.035-1.342,1.634-1.947.537-.541,1.23-.923,1.822-1.414,1.311-1.25,2.488-2.633,3.51-4.129.172-.217.241-.571.455-.692,1.609-.918,2.31-2.517,3.14-4.032.213-.306.476-.575.778-.795.641-.566,1.3-1.119,1.948-1.673.305-.304.64-.577,1-.815.684-.372.647-1.315,1.526-1.625.634-.223,1.015-1.08,1.618-1.5.632-.437.58-1.5,1.537-1.576-.105-1.139.954-.538,1.378-.909.366-.404.991-.435,1.396-.069.047.043.09.09.128.141.078.083.266.086.4.09.442-.057.89-.043,1.328.04.306.117.465.58.731.849.169.119.357.208.556.265.945.508,1.779,1.2,2.453,2.034.252.684.735,1.544-.548,1.806-.479,1.53-1.7,1.77-3.051,1.7-.643-.032-.806.645-1.247.771-1.18.273-2.16,1.092-2.637,2.206-.04.09-.243.109-.47.162h.1c-.028-.119-.074-.233-.135-.338-.022-.028-.177.046-.271.073.078.113.183.204.306.265-.882,1.784-2.074,3.396-3.519,4.764-.7.589-1.826.885-1.748,2.131-1.178,1.074-2.059,2.484-3.583,3.168-.367.326-.672.716-.9,1.151-.087.158-.267.392-.393.384-.652-.121-1.278.31-1.398.962-.004.023-.008.046-.011.068-.076.286-.277.522-.546.645-1.738.444-2.393,2.425-4.144,2.868-.371.1-.672.574-.946.922-.3.381-.5.849-.83,1.2-.063.068-.556-.828-.717.177-.067.421-.614.8-1,1.129-.312.267-.911.351-1.035.656-.681,1.667-2.364,2.473-3.245,4.007-1.087,1.56-2.461,2.898-4.05,3.943-1.065.798-1.972,1.787-2.676,2.916-.139.235-.157.589-.348.738-1.342,1.049-2,2.765-3.561,3.6-.236.127-.376.431-.568.649-.498.689-1.07,1.32-1.707,1.883-1.482,1.058-2.36,2.647-3.636,3.881-.424.461-.702,1.037-.8,1.655-.112.629-.55.705-.955.913.971.916-.344.636-.527.931-.223.486-.732.775-1.264.717-.141-.019-.335.315-.5.491-.506.539-.911,1.162-1.368,1.739-.421.53-1.238.729-1.316,1.538-1.052.021-1.373.982-2.038,1.5-.226.177-.875.762-1.408.091-.046-.06-.575.344-.9.389-.17.023-.381-.268-.443-.623.044-.135-.044-.064-.131.006l.2.2c.074-.084.141-.173.2-.268.009-.017-.086-.09-.267.063-.315.164-.669.236-1.023.207-.724-.044-1.447-.1-2.17-.154-.06-1.219-1.605-1.246-1.86-2.321-.306-1.3-1.643-2.457-.5-3.939-1.007-.629.216-1.551-.335-2.357-.39-.569.244-1.345.356-2.021.208-1.659.732-3.264,1.544-4.726.326-.541-.36-1.07.263-1.558.406-.32.47-1.117.887-1.369.737-.444.336-1.2.731-1.749.863-1.099,1.426-2.404,1.634-3.786.045-.348.21-.669.467-.908,1.279-1.062,1.55-2.628,2.127-4.044.129-.326.318-.625.557-.882.816-.616,1.267-1.601,1.2-2.621-.15-.85,1.183-.453.975-1.395-.1-.429.372-1.007.643-1.485.554-.713,1.01-1.497,1.355-2.332.2-.873,1.248-1.149,1.165-2.253-.045-.6.877-1.225,1.233-1.907.227-.604.586-1.151,1.049-1.6.554-.693.962-1.49,1.2-2.344.086-.186.048-.573.134-.593,1.649-.4,1.567-2.011,2.15-3.118.448-.849,1.479-1.424,1.3-2.585.3-.024.827.012.854-.086.11-.416-.063-.944.126-1.289.173-.313.921-.376,1-.664.446-1.605,1.661-2.737,2.412-4.144.521-.977,1.111-1.921,1.564-2.928.407-1.108.953-2.161,1.626-3.131.691-.869,1.056-2.042,1.844-2.78,1.4-1.309,1.4-3.442,2.994-4.622.331-.247.113-1.038.631-1.518.423-.543.755-1.151.982-1.8,1.043.112.758-1.044,1.357-1.451.501-.482.837-1.109.963-1.792.388-1.039.876-2.037,1.458-2.981.419-.823,1.447-1.143,1.5-2.306.031-.726.8-1.429,1.269-2.125.588-.877,1.211-1.731,1.8-2.606.24-.339.446-.7.615-1.08.158-.381.105-.914.357-1.175.3-.312.9-.256.833-1-.027-.322.634-.674.659-1.034.113-1.712,1.808-2.669,1.988-4.328.041-.205.13-.396.261-.559.316-.443.6-1.179.993-1.242,1.021-.166.239-1.013.693-1.391.383-.411.709-.871.971-1.368.041-.06.134-.1.152-.161.194-.663-.274-1.53.9-1.89.452-.139.64-1.156.935-1.779.081-.191.146-.388.194-.589.158-.557,1.162-.5.94-1.436-.077-.331.607-.8.842-1.255.566-1.1,1.063-2.24,1.609-3.353.222-.582.532-1.127.917-1.617.4-.416.135-1.286,1.09-1.355.53-.039-.573-.606.054-.909.386-.144.737-.37,1.027-.663.1-.125-.361-.839-.345-.846,1.059-.534.69-2.208,2-2.543.03-.008-.181-.57-.072-.741.236-.367.67-.609.9-.977.175-.276.059-.753.252-1,.952-1.224,1.355-2.729,2.14-4.035,1.008-.123-.06-1.771,1.237-1.682.086-.775.46-1.489,1.049-2-.821-.421.161-.782.045-1.21-.135-.5.05-.785.668-.832.239-.018.625-.52.627-.8.009-1.541.94-2.756,1.414-4.12.623-1.788.489-2.146-1.449-2.165-.746-.006-1.653-.266-2.2.065-.711.433-1.14-.2-1.681-.063-1.771.355-3.514.835-5.217,1.436-.647.267-1.282.137-1.842.411-.993.485-2.169.556-3.037,1.291-.326.343-.8.505-1.268.434h.1c-.028-.119-.074-.233-.135-.339-.022-.027-.177.046-.271.074.099.135.243.229.406.265" fill="#dce6e6" stroke-width="0"/><path id="d" d="m345.036,82.344c-.321-1.057-1.592.09-1.965-.846-1.338-.258-1.342-.257-1.612-1.106-.113-.361-.394-.958-.277-1.053.642-.523-.363-.658-.184-1.065.22-.5.261-1.09.527-1.558.864-1.519,1.756-3.014,1.722-4.847,1.022-1.365,1.092-3.118,1.83-4.573.657-1.292.535-2.9,1.722-3.976.185-.168.026-.713.155-1.289.044-.135-.042-.064-.13.006.067.067.132.134.2.2.074-.084.141-.173.2-.268.009-.017-.086-.09-.268.063-.828.487-.732,1.68-1.75,1.626-.102.174-.157.372-.159.574,0,.595-.09.9-.629.29-.24.239-.649.456-.686.723-.069.5-.279.574-.711.587-.225.008-.641.227-.636.338.053,1.411-1.644,1.257-2,2.277-1.05-.143-1.494.733-2.177,1.241-.46.31-.988.505-1.539.568-.489.069-.623.24-.586.69.057.656-.123.846-.623.274-.089.083-.234.153-.256.252-.073.317.054.863-.542.307-.316-.294-.638-.29-.817.212-.116.322-.3.62-.439.935-.057.125-.049.326-.139.381-.551.336-1.3-.2-1.83.466-.3.37-.193.959-1.094,1.079-1.188.209-2.269.82-3.06,1.731-.549.662-1.244,1.188-2.03,1.536-.559.2-.634.95-1.212.876-.778-.1-.727.466-1,.894-.2.315-1.169.31-1.2.536-.146.988-.464.343-.751.152-.067.344-.112.98-.206.988-.762.058-.931,1.528-1.991.823-.125-.082-.541,0-.573.092-.443,1.295-2,1.115-2.743,2.053-.135.172-.781.952-1.477.267-.177-.175-1.011.357-1.23.18-.552-.446-1.274.193-1.714-.4-.622.555-1.246-.042-1.865.005-1.081.082-1.6-1.187-2.681-1.088-.31-.618-.607-1.239-.932-1.848-.232-.347-.442-.707-.631-1.079-.108-.281.006-.643-.083-.937-.26-.742-.231-1.555.08-2.277.638-1.453,1.127-2.966,1.459-4.518.1-.5,1.666.054.6-1.013-.2-.2.232-1.013.509-2.08-.008-.191-.091-.04-.13.122-.017.138-.019.277-.006.415.149-.1.381-.179.426-.315.05-.157-.064-.367-.29-.222-1.237,1.614-2.713,3.03-4.377,4.2-.808.494-1.383,1.348-2.319,1.869-1.444.919-2.81,1.956-4.084,3.1-.447.358-.753.9-1.483.778-.2-.031-.492.274-.673.484-1.142,1.324-2.848,1.9-4.081,3.078-.509.487-1.1-.131-1.531.286-.536.516-1.029,1.081-1.59,1.567-.479.415-1.042.729-1.542,1.119-.792.616-1.553,1.277-2.35,1.887-.93.711-.975.709-1.379-.429-.301-.777-.514-1.585-.634-2.409.034-.584-.197-1.151-.628-1.546-.411-.327.356-1.2-.541-1.4.074-.211.091-.536.236-.61.435-.208.89-.372,1.357-.491,1.4-.4,2.351-1.506,3.528-2.253,1.019-.74,2.091-1.405,3.207-1.989.71.538,0-1.6,1.047-.57.03.03.687-.595,1.065-.9.313-.29.658-.542,1.029-.753.938-.497,1.783-1.151,2.5-1.933,1.144-.947,2.238-1.954,3.277-3.015.9-1.1,2.092-1.966,2.679-3.32,1.163-.012,1.172-1.379,2.123-1.78.625-.265.979-1.176,1.45-1.8.549-.828,1.151-1.619,1.803-2.368,1.156-1.172,1.635-2.8,2.755-3.961,1.231-1.203,2.29-2.57,3.149-4.062,1.039-.18.979-1.188,1.4-1.839,1.255-1.713,2.684-3.292,4.262-4.712l2.158-.17c.78,1.225,2.472,1.578,2.887,3.244.159.638.537,1.057.041,1.72-.348.436-.533.979-.523,1.537.1.81-.361.936-.889,1.193-.442.216-.613.583-.062.931-.119.071-.236.2-.36.2-1.016.073,0,.564-.157.728-.214.229-.8.414-.774.518.267,1.2-.631,2.01-.988,2.968-.342.917-.437,1.879-.769,2.8-.792,1.996-1.414,4.055-1.861,6.155-.846.651-.3,1.736-.828,2.574-.383.759-.579,1.599-.571,2.45-.173,1.166-.448,2.314-.824,3.431-.047.209-.001.428.126.6.168.117.385.139.573.058.817-.679,2-.772,2.665-1.707.176-.245.606-.3.912-.462s.778-.262.881-.511c.446-1.085,1.523-1.289,2.336-1.869,1.375-.979,3.045-1.512,4.2-2.82.362-.408,1.369.182,1.387-.927.012-.663,1.22-.3,1.264-1.232.019-.424.735.53,1.088-.2.259-.435.674-.757,1.16-.9.557-.166.225-1.13,1.154-.994.493.072,1.12-.482,1.621-.842.475-.342.8-1,1.3-1.167,1.6-.611,3.035-1.589,4.187-2.856.23-.225.628-.268.934-.425s.84-.338.854-.538c.062-.853.91-.774,1.293-1.22.11-.131.462-.053.577-.182.289-.365.556-.746.8-1.142.485.561.523.369.69-.252.094-.348.774-.53,1.178-.808.371-.21.711-.472,1.009-.778.963-1.2,2.594-1.542,3.506-2.812.566-.635.906-1.44.968-2.288-.127-1.006.005-2.028.384-2.968.28-.539-.555-1.392.117-2.027.731-.692.213-1.545.387-2.3.04-.191.122-.371.239-.527,1.223.279,1.506-1.038,2.357-1.361.466-.176.993-.71,1.352.149.28.667.677-.431.943.057.2.371-.363,1.057.571,1.171.357.044.723.492.967.839.188.266.374.8.243.975-.7.935-.329,1.975-.412,2.964-.163,1.947-.274,3.9-.469,5.842-.059.588-.806,1.071-.2,1.893.776-1.324,2.624-1.622,2.9-3.369,1.331-.339,1.646-1.681,2.485-2.507.212-.208.591-.41.6-.633.082-1.351,1.259-1.8,2.083-2.431.896-.901,1.912-1.673,3.021-2.294.864-.352,1.058-1.482,2.11-1.836.789-.367,1.481-.915,2.018-1.6.579-.632,1.451-1.051,2.137-1.722.973-.786,2.043-1.444,3.184-1.958.891-.5,1.446-1.68,2.741-1.381.11-1.279,1.162-.719,1.816-.913,1.98-.588,1.989-.587,3.9.5.846.484,1.667,1.012,2.5,1.528.473.294.3.521.092.981-.223.506-.976,1.187-.086,1.87.116.09-.029.723-.222.973-.994,1.183-1.831,2.49-2.491,3.887-.396.784-.994,1.449-1.732,1.926-.127.051-.339.076-.367.162-.2.589-.593,1.244-.475,1.777.212.952-1.13.48-1.021,1.4.054.452-1.016.8-.841,1.632.022.1-.232.28-.383.389-.225.164-.625.254-.682.452-.473,1.234-1.144,2.382-1.987,3.4-.471.69-1.225,2.011-1.645,2.467-.135.145-.075.492-.062.744.029.164.079.323.149.474-.893.207-.867,1.093-1.286,1.641-.406.568-.726,1.194-.948,1.856-.15.385-.2,1.1-1.022,1.135-.547.021.859.71-.1.768-.708.041-.411.647-.695.92-.269.317-.486.675-.643,1.061-.191.365-.358.743-.5,1.13-.044.224.101.441.325.486.061.012.125.01.185-.006.765-.32,1.498-.71,2.19-1.166,1.343-1.017,2.968-1.536,4.311-2.52.632-.464,1.528-.226,2.061-1.052.333-.516,1.212-.645,1.745-1.074,1.646-1.334,3.374-2.565,5.172-3.686-.081-.8.675-.8,1.093-1.052.537-.325,1.232-.4,1.264-1.248.053-.218.216-.393.43-.462,1.065-.041,1.383-.976,2.007-1.558.678-.631,1.436-1.178,2.174-1.741.493-.378,1.013-.72,1.521-1.08.575-.407,1.116-1.077,1.734-1.157.763-.1.577-1.521,1.59-.961.539-.493,1.061-1.008,1.623-1.473.525-.476,1.101-.893,1.716-1.244.746-.355,1.524-.637,2.324-.841.437-.14.914.022,1.175.4.141.184.52.182.665.365.483.607.93,1.242,1.341,1.9.094.207.094.444,0,.651-.154.313-.855.6.158.737.357.048.67.539.962.864.069.146.062.316-.021.455-.453.636-.943,1.246-1.408,1.874-.37.5-.709,1.021-1.083,1.518-.277.37-.578-.592-.968.04-.371.6-1.074.931-1.589,1.443-1.05.925-2.249,1.665-3.547,2.187-.884.416-.973,1.459-1.925,1.727-.474.134-.76,1.024-1.4.247-.127.081-.24.183-.334.3-.171.3-.306.615-.455.925-.223,0-.591-.085-.648.013-.9,1.513-2.617,2-3.844,3.1-.42.487-.901.917-1.432,1.279-.378.2-.866.92-.925.877-.587-.417-.706-.23-.882.374-.046.161-.885-.017-1.2.194-.94.622-1.8,1.36-2.693,2.052.185.744-.536.5-.815.737-.3.252-.922.448-.927.681-.03,1.181-.939-.322-.905.3.037.691-.434.595-.79.774-.434.22-.827.521-1.243.777-.341.24-.704.446-1.085.616-.284.1-.706-.058-.921.1-.254.24-.423.556-.482.9-.241,1.012-1.086.194-1.652.58-1.371.939-2.905,1.614-4.523,1.989-1.379.317-2.71,1.336-4.2.313-.353-.216-.725-.4-1.112-.547-.543-.238-.867-.805-1.747-.466-.537.207-1.413-.771-1.445-1.464-.039-.831-.616-1.685-.065-2.53-.746-.9.244-1.428.45-2.124.136-.462.331-.911.437-1.381.107-.98.491-1.909,1.107-2.679.35-.342.582-.787.661-1.27.125-1.777,1.126-3.114,2-4.55.235-.388.009-1,.547-1.425.456-.448.83-.972,1.106-1.549.318-.53.552-1.111.839-1.661s.595-1.094.89-1.643c.065-.121.083-.3.181-.365,1.708-1.13,1.908-3.324,3.3-4.677.1-.1.021-.39.024-.592-.254.005-.665-.087-.738.031-.65,1.034-2.295,1.049-2.526,2.484-.741-.782-.672-.161-.7.385-.01.179-.171.5-.265.5-1.107.009-.943,1.556-1.984,1.612-.22.921-1.158,1.122-1.72,1.7-.357.267-.55.699-.511,1.143.022.143-.206.466-.3.458-1.228-.107-1.282.8-1.483,1.622-.056.229-.283.619-.378.6-1.042-.168-1.126,1-1.84,1.28-.134.053-.144.494-.257.516-1.578.3-2.029,1.739-2.9,2.762-.306.357-1.134.4-1.255.75-.164.471-.163.982-.622,1.309-.258.184-.6.3-.767.543-.245.415-.455.85-.628,1.3-.948-.854-1.215,1.1-2.118.533-.009-.006-.218.47-.411.562-.67.324.226.962-.311,1.306-.467.3-.471.821-.631,1.3-.234.511-.375,1.059-.417,1.619-.056.241-.229.437-.46.525-.53.15-.528.475-.279.792.2.258.363.392.023.652-.23.175-.591.446-.569.636.076.741-.26,1.464-.875,1.884-.421.39-.277,1.337-.519,1.984-.263.706-.65,1.37-.953,2.06-.407.711-1.094,1.219-1.894,1.4-.394.125-.78.271-1.158.438m30.178-36.222l-.589.771c.122.051.306.179.356.139.183-.146.337-.325.452-.529.032-.058-.123-.22-.218-.38m-27.56,34.276c-.051-.094-.105-.191-.159-.288-.049.049-.148.11-.14.146.036.105.083.205.14.3l.159-.159m-5.237.318l.159.288c.049-.05.148-.11.139-.148-.034-.105-.081-.206-.139-.3-.05.049-.1.1-.159.159m13.958-25.247l.288-.159c-.049-.049-.109-.148-.146-.14-.105.035-.206.082-.3.14.05.05.1.1.159.159" fill="#dce6e6" stroke-width="0"/><path id="e" d="m443.874,30.959c-.599.36-.946,1.025-.9,1.722.028.284-.012.571-.118.836-.37.668-1.036,1.26-1.156,1.955-.014.722-.326,1.405-.862,1.888-.367.284.315,1.094-.542,1.2-.049-.123-.1-.247-.148-.371-.1.125-.2.248-.3.371-.165.094-.313.215-.439.356-.512.817-.383,1.948-1.325,2.59-.172.117-.024.705-.024,1.075-.149.118-.407.218-.43.357-.235,1.155-.636,2.269-1.193,3.307-.289.917-.626,1.818-1.008,2.7-.521.749-.86,1.61-.99,2.513-.1.792-1.092,1.3-1.022,2.244-.9.235-.326,1.083-.643,1.6-.307.627-.481,1.311-.511,2.009-.036.817-.501,1.554-1.223,1.938-.722.415-1.09,1.449-2.187,1.2-.222-.786-.966,1.391-1.138-.2-.022-.205-.858-.3-1.291-.5-.201-.096-.354-.269-.424-.48-.182-.9-.263-1.82-.475-2.711-.243-.757.174-1.567.931-1.81.082-.026.166-.045.251-.056.665-.153.688-.462.606-.889-.038-.713.133-1.421.491-2.039.312-.667.464-1.397.443-2.133.076-.836.255-1.659.533-2.45.231-.502.49-.99.774-1.464.2-.438.516-.973.407-1.36-.159-.562.833-.935.15-1.478.003-.113.048-.22.128-.3.916-.668.984-1.61,1.212-2.648.262-1.067.723-2.074,1.359-2.97.665-1.062,1.268-2.16,1.809-3.29,1.298-2.138,2.168-4.507,2.561-6.977.067-.343.235-.659.482-.907.945-1.043,1.697-2.245,2.222-3.55.281-.571.65-1.095,1.094-1.551.599-.693.997-1.537,1.152-2.44.249-1.216.702-2.381,1.342-3.444.465-.756.1-2.175,1.574-2.236.06,0,.184-.257.155-.36-.268-.95.424-1.452.884-2.1.334-.575.61-1.181.825-1.81-.8-.857.651-.826.575-1.5-.121-1.079.975-1.639,1.345-2.553.283-.935.695-1.826,1.226-2.646.5-.649.814-1.033,1.619-1.049.312-.006.667-.437.916-.367.227.064.285.742.511.8.887.236,1.793.392,2.708.468.629.053.916.01,1.126.881.244,1.007.532,1.741-.456,2.4.166,1.467-1.54,2.2-1.427,3.651-.571.148-.753.692-1.112,1.039-.788.82-1.413,1.783-1.842,2.836-.66,1.455-1.457,2.845-2.38,4.149-.381.409-.68.889-.88,1.411-.087.408.471.973.357,1.355-.321,1.077-.108,2.259-.962,3.265-.822.793-1.266,1.9-1.22,3.041.1.764-.868.471-.8.717.109.389.421.742-.112.945-.762.292.238,1.038-.369,1.266s-.253,1.07-1.008,1.27c-.372.1-.575.833-.855,1.28" fill="#dce6e6" stroke-width="0"/><path id="f" d="m418.383,89.295c.065.067.132.132.2.2" fill="#dce6e6" stroke-width="0"/><path id="g" d="m425.712,76.043c.286.118.566.251.837.4.186.113.3.406.484.447.607.136,1.311.035,1.59.808-.824.7.46.99.3,1.55-.172.595-.006,1.32-.6,1.752-1.23.891-2.61,1.612-3.36,3.033-.04.063-.093.117-.155.159-.621.475-1.244.949-1.869,1.422.815.9-.85,1.1-.529,1.866-1.088.79-2.163,1.6-3.271,2.357-.318.218-.494-.019-.8-.288-.496-.622-1.227-1.013-2.02-1.079-.627-.075-1.139-.534-1.283-1.148-.098-.514-.078-1.044.059-1.549.424-1.535,1.044-3.009,1.847-4.384.773-1.488,1.905-2.76,3.293-3.7,1.031-.558,2.145-.945,3.3-1.147" fill="#dce6e6" stroke-width="0"/><path id="h" d="m331.794,19.871c.213.153.449.269.7.345.353.081.805-.107,1.094.048.442.234.769.771,1.274.113,0,0,.324.161.324.248.005.525-.028.905.728,1.039.891.158.336,1.337.95,1.8-.039,1.456.964,2.58,1.26,3.932.038.831-.046,1.663-.249,2.47-.177.294-.312.613-.479.913-.2.363-.417.719-.627,1.077-.911-1.031-1.062.961-1.907.469-.511-.208-1.04-.368-1.581-.479-.19-.067-.366-.406-.5-.378-1.476.316-1.912-.981-2.57-1.75-1.06-1.201-1.868-2.602-2.378-4.12-.327-1.027-.628-2.082.307-3.028.2-.282.318-.614.343-.959.209-1.161.319-1.256,1.477-1.379.546-.059,1.081-.207,1.835-.356" fill="#dce6e6" stroke-width="0"/><path id="i" d="m180.421,69.195c-.051.051-.125.146-.141.137-.095-.059-.185-.126-.27-.2l.2-.2.212.259" fill="#dce6e6" stroke-width="0"/><path id="j" d="m396.878,61.156c-.051.051-.125.146-.141.137-.095-.059-.185-.126-.27-.2l.2-.2.212.259" fill="#dce6e6" stroke-width="0"/><path id="k" d="m384.356,45.964c-.051.051-.125.146-.141.137-.095-.059-.185-.126-.27-.2l.2-.2.212.259" fill="#dce6e6" stroke-width="0"/><path id="l" d="m438.471,42.836c-.051.051-.125.146-.141.137-.095-.059-.185-.126-.27-.2l.2-.2.212.259" fill="#dce6e6" stroke-width="0"/><path id="m" d="m258.686,78.583c-.051.051-.125.146-.141.137-.095-.059-.185-.126-.27-.2l.2-.2.212.259" fill="#dce6e6" stroke-width="0"/><path id="n" d="m345.032,82.544c-.089.069-.177.137-.265.207-.028-.1-.1-.25-.074-.271.106-.061.22-.107.339-.135v.2" fill="#dce6e6" stroke-width="0"/><path id="o" d="m440.293,38.555l-.3.371-.146-.371h.447" fill="#dce6e6" stroke-width="0"/><path id="p" d="m63.478,71.533c-.051.051-.125.146-.141.137-.095-.059-.185-.126-.27-.2l.2-.2.212.259" fill="#dce6e6" stroke-width="0"/><path id="q" d="m213.622,86.525c.06-.059.108-.109.158-.159.059.094.106.195.14.3.009.036-.09.1-.14.146-.054-.1-.108-.194-.158-.288" fill="#dce6e6" stroke-width="0"/><path id="r" d="m444.284,31.218c-.051.051-.125.146-.141.137-.095-.059-.185-.126-.27-.2l.2-.2.212.259" fill="#dce6e6" stroke-width="0"/><path id="s" d="m100.851,92.375c-.089.069-.177.137-.265.207-.028-.1-.1-.25-.074-.271.106-.061.22-.107.339-.135v.2" fill="#dce6e6" stroke-width="0"/><path id="t" d="m102.604,83.498c-.051.051-.125.146-.141.137-.095-.059-.185-.126-.27-.2l.2-.2.212.259" fill="#dce6e6" stroke-width="0"/></svg>