<?xml version="1.0" encoding="UTF-8"?><svg xmlns="http://www.w3.org/2000/svg" width="250" height="30" viewBox="0 0 250 30"><path d="m2.882,21.305l.07-4.007,2.204.039-.032,1.822c.698.277,1.891.488,3.145.511,2.355.041,3.463-.281,3.487-1.648.02-1.139-.923-1.536-3.996-1.817-3.377-.288-4.937-1.284-4.891-3.905.049-2.812,2.316-4.235,5.526-4.179,1.861.032,3.64.444,4.96,1.036l-.065,3.741-2.166-.037.025-1.442c-.716-.336-1.682-.504-2.784-.523-2.165-.038-3.18.4-3.2,1.558-.02,1.159.849,1.44,3.562,1.696,3.604.329,5.375,1.196,5.326,4.027-.049,2.829-2.373,4.214-5.772,4.154-2.108-.037-4.002-.431-5.397-1.025Z" stroke-width="0"/><path d="m18.383,18.543l.936.017c.432.007.579-.152.587-.639l.122-6.966c.007-.378-.171-.525-.567-.532l-.936-.017.043-2.484,5.527.097-.043,2.484-1.351-.023c-.396-.007-.56.135-.567.513l-.042,2.43,6.319.11.04-2.304c.009-.504-.151-.651-.565-.659l-1.332-.022.043-2.484,5.544.097-.043,2.484-.936-.017c-.45-.008-.597.17-.605.638l-.12,6.859c-.008.468.168.633.583.641l.936.017-.042,2.431-5.544-.098.042-2.43,1.332.022c.414.008.579-.151.587-.619l.046-2.628-6.319-.11-.046,2.61c-.008.486.115.65.546.658l1.351.023-.042,2.431-5.527-.097.042-2.431Z" stroke-width="0"/><path d="m36.543,14.483c.075-4.32,3.088-6.699,6.365-6.642,3.258.057,6.168,2.539,6.093,6.842-.075,4.32-3.07,6.663-6.328,6.606-3.276-.058-6.205-2.504-6.13-6.807Zm10.351.217c.049-2.791-1.8-4.19-4.05-4.23-2.25-.039-4.146,1.296-4.195,4.087-.049,2.809,1.8,4.173,4.05,4.212,2.25.04,4.146-1.26,4.195-4.068Z" stroke-width="0"/><path d="m53.409,17.695l.765.014c.51.009.665-.107.673-.6l.113-6.459c.009-.492-.142-.613-.652-.622l-.765-.014.041-2.347,5.676.1c4.045.07,5.047,2.044,5.012,4.083-.039,2.244-1.462,3.953-5.151,3.889l-2.26-.04-.025,1.444c-.008.492.125.614.635.623l1.105.02-.04,2.295-5.167-.091.04-2.295Zm5.744-3.792c2.244.039,3.037-.61,3.059-1.868.022-1.292-.749-1.882-2.993-1.921l-2.26-.04-.066,3.789,2.26.04Z" stroke-width="0"/><path d="m75.458,18.62l.936.017c.432.007.579-.152.587-.639l.122-6.966c.007-.378-.171-.525-.567-.532l-.936-.017.043-2.484,5.149.09-.043,2.484-.955-.017c-.396-.007-.56.135-.567.513l-.122,6.966c-.008.486.115.65.546.658l.955.017-.042,2.431-5.149-.09.042-2.431Z" stroke-width="0"/><path d="m84.543,18.53l.81.014c.54.01.705-.113.713-.636l.12-6.839c.009-.522-.151-.651-.691-.661l-.792-.014.043-2.484,4.086.071,6.159,10.299.123-7.055c.009-.522-.15-.651-.69-.661l-.667-.012.043-2.484,4.896.086-.043,2.484-.738-.014c-.558-.009-.722.114-.731.637l-.173,9.918-2.844-.05-5.896-9.863-.117,6.677c-.009.522.133.651.673.661l.648.011-.042,2.431-4.933-.086.042-2.431Z" stroke-width="0"/><path d="m102.955,18.565l.936.017c.432.007.579-.152.587-.603l.122-7.002c.007-.378-.171-.525-.567-.532l-.936-.017.043-2.484,10.855.189-.079,4.5-2.052-.036.035-2.016-5.185-.09-.051,2.952,4.356.076-.034,1.927-4.356-.076-.046,2.646c-.008.45.133.614.547.622l1.513.026-.042,2.431-5.689-.1.042-2.431Z" stroke-width="0"/><path d="m118.324,14.477c.075-4.32,3.088-6.699,6.365-6.642,3.258.057,6.168,2.539,6.093,6.842-.075,4.32-3.069,6.663-6.328,6.606-3.276-.058-6.205-2.504-6.13-6.807Zm10.351.217c.049-2.791-1.8-4.19-4.05-4.23-2.25-.039-4.146,1.296-4.195,4.087-.049,2.809,1.8,4.173,4.05,4.212,2.25.04,4.146-1.26,4.195-4.068Z" stroke-width="0"/><path d="m135.236,19.421l.854.015c.569.01.743-.12.753-.67l.126-7.219c.01-.551-.159-.687-.729-.696l-.854-.015.046-2.622,6.554.114c3.305.058,5.45,1.198,5.402,3.934-.032,1.88-1.138,3.133-2.854,3.521,1.248.307,1.781,1.323,1.969,2.543l.084.628c.048.513.235.669.806.679l.741.013-.045,2.564-3.457-.061-.204-2.492c-.175-1.922-.631-3.031-2.967-3.072l-2.355-.041-.039,2.261c-.01.55.14.686.709.695l.855.015-.045,2.564-5.395-.094.045-2.564Zm6.658-4.843c1.938.034,3.199-.42,3.225-1.845.024-1.404-1.28-1.75-3.161-1.783l-2.754-.048-.063,3.628,2.754.048Z" stroke-width="0"/><path d="m151.657,18.516l.81.014c.54.01.705-.113.714-.636l.119-6.84c.01-.522-.15-.651-.69-.661l-.811-.014.044-2.484,4.59.08,3.097,10.391,3.493-10.275,4.555.079-.044,2.484-.792-.014c-.559-.01-.704.114-.714.636l-.119,6.84c-.009.523.133.651.691.661l.792.014-.043,2.431-4.986-.087.04-2.305.685.012c.54.01.687-.132.695-.653l.114-6.518-3.263,9.434-2.448-.043-2.894-9.612-.114,6.589c-.01.521.132.668.672.678l.666.012-.04,2.305-4.861-.085.043-2.431Z" stroke-width="0"/><path d="m171.841,18.524l.954.017c.343.006.488-.1.676-.511l4.264-10.081,2.484.043,3.892,10.223c.173.417.314.528.657.534l.972.017-.043,2.431-5.58-.098.041-2.377,1.944.034-.774-2.01-5.077-.089-.827,1.983,1.908.033-.042,2.377-5.49-.096.042-2.431Zm5.18-3.727l3.601.062-1.739-4.531-1.861,4.469Z" stroke-width="0"/><path d="m193.952,19.471l.987.017c.551.01.725-.12.734-.67l.138-7.903-3.077-.054-.037,2.127-2.165-.037.083-4.749,12.727.222-.084,4.749-2.127-.037.037-2.127-3.115-.055-.139,7.903c-.009.55.121.686.711.695l.969.018-.045,2.564-5.642-.099.045-2.564Z" stroke-width="0"/><path d="m206.935,18.602l.936.017c.432.007.579-.152.588-.639l.121-6.966c.007-.378-.171-.525-.566-.532l-.937-.017.044-2.484,5.148.09-.043,2.484-.955-.017c-.396-.007-.561.135-.566.513l-.122,6.966c-.009.486.114.65.546.658l.955.017-.043,2.431-5.148-.09.043-2.431Z" stroke-width="0"/><path d="m216.09,14.462c.074-4.32,3.088-6.699,6.364-6.642,3.259.057,6.169,2.539,6.093,6.842-.074,4.32-3.069,6.663-6.328,6.606-3.275-.058-6.205-2.504-6.129-6.806Zm10.35.217c.049-2.791-1.799-4.19-4.049-4.23-2.251-.039-4.146,1.296-4.195,4.087-.049,2.808,1.799,4.172,4.05,4.211,2.25.04,4.146-1.26,4.194-4.068Z" stroke-width="0"/><path d="m232.978,18.521l.81.014c.54.01.704-.113.714-.636l.119-6.84c.01-.522-.15-.651-.691-.661l-.791-.014.043-2.484,4.086.071,6.16,10.3.123-7.056c.009-.522-.15-.651-.691-.661l-.666-.012.043-2.484,4.896.086-.043,2.484-.738-.014c-.558-.009-.722.114-.73.637l-.174,9.919-2.844-.05-5.896-9.863-.117,6.678c-.009.522.133.651.673.661l.647.011-.042,2.431-4.933-.086.043-2.431Z" stroke-width="0"/></svg>