<?xml version="1.0" encoding="UTF-8"?><svg xmlns="http://www.w3.org/2000/svg" width="292" height="256" viewBox="0 0 292 256"><path d="m207.568,2.555l-.319,1.773-9.137,10.538,7.247,1.3-.416,2.3-10.65-1.915.321-1.77,9.132-10.515-7.017-1.261.418-2.322,10.421,1.872Z" stroke-width="0"/><path d="m218.058,23.093c-3.332-1.364-4.759-4.3-2.836-8.994l.781-1.9c1.923-4.7,5-5.788,8.328-4.424,3.357,1.375,4.783,4.309,2.858,9l-.779,1.9c-1.923,4.7-5,5.788-8.352,4.412m-.326-7.965c-1.32,3.223-.77,4.968,1.22,5.78s3.628-.031,4.948-3.254l.779-1.906c1.32-3.223.748-4.975-1.242-5.788s-3.6.039-4.925,3.263l-.78,1.905Z" stroke-width="0"/><path d="m235.931,32.852c-2.947-2.066-3.689-5.241-.778-9.393l1.181-1.683c2.911-4.153,6.15-4.538,9.1-2.47,2.966,2.079,3.708,5.255.8,9.405l-1.181,1.685c-2.911,4.152-6.148,4.537-9.115,2.456m1.442-7.836c-2,2.85-1.848,4.669-.086,5.9s3.539.77,5.54-2.079l1.181-1.685c2-2.85,1.828-4.685.067-5.919s-3.522-.757-5.521,2.094l-1.181,1.689Z" stroke-width="0"/><path d="m257.649,43.024l10.1-2.671,1.713,1.951-12.129,10.638-1.727-1.967,8.118-7.125-8.218,2.3-1.263-1.438,3.34-7.752-8.066,7.078-1.727-1.967,12.125-10.639,1.7,1.931-3.966,9.661Z" stroke-width="0"/><rect x="268.103" y="69.307" width="16.132" height="2.71" transform="translate(-6.345 108.723) rotate(-22.025)" stroke-width="0"/><path d="m290.544,92.598l-15.813,3.167-.474-2.361,9.46-8.592-10.748,2.152-.514-2.568,15.813-3.167.46,2.292-9.583,8.688,10.886-2.179.513,2.568Z" stroke-width="0"/><path d="m275.391,107.966l-.047-2.78,2.76-.05.047,2.783-2.76.047Zm16.128-.4l-.045-2.546-11.71.2.044,2.548,11.711-.202Z" stroke-width="0"/><path d="m82.881,60.538c18.363,18.357,18.369,48.124.012,66.488-.004.004-.008.008-.012.012-8.214,7.95-19.342,12.982-34.179,12.982-16.56,0-27.819-6.623-34.443-12.982C5.355,118.441.373,106.563.481,94.186c0-12.717,5.7-25.568,13.646-33.517,5.961-5.961,16.954-12.982,34.575-12.982,13.778,0,25.3,4.239,34.179,12.849m-53.653,13.513c-3.842,3.709-7.817,10.2-7.817,20,0,8.08,2.651,14.573,8.082,19.871,5.7,5.431,12.054,7.287,18.944,7.287,9.008,0,15.368-3.312,19.607-7.552,3.444-3.312,7.685-9.538,7.685-19.739,0-9.14-3.711-15.9-7.685-19.871-5.293-4.905-12.258-7.606-19.474-7.552-7.194-.149-14.152,2.568-19.342,7.552" stroke-width="0"/><path d="m170.572,48.15v18.282h-35.768v18.813h31.793v18.28h-31.793v36.034h-21.992V48.15h57.76Z" stroke-width="0"/><path d="m241.574,48.15v18.282h-35.768v18.813h31.793v18.28h-31.793v36.034h-21.993V48.15h57.761Z" stroke-width="0"/><path d="m69.502,163.906v7.155h-22.255v84.255h-7.685v-84.255h-22.252v-7.155h52.192Z" stroke-width="0"/><rect x="83.804" y="163.906" width="7.683" height="91.409" stroke-width="0"/><path d="m144.341,224.182l22.786-60.278h7.42v91.411h-7.685v-70.741l-18.944,50.342h-7.153l-18.811-50.21v70.611h-7.685v-91.411h7.42l22.652,60.276Z" stroke-width="0"/><path d="m239.188,163.906v7.155h-35.239v33.385h32.186v7.153h-32.186v36.562h35.239v7.155h-42.924v-91.41h42.924Z" stroke-width="0"/></svg>