<?xml version="1.0" encoding="UTF-8"?><svg xmlns="http://www.w3.org/2000/svg" width="268" height="70" viewBox="0 0 268 70"><path d="m0,48.611l1.182.211.639-3.567,5.349,4.643.9.161.97-5.415-1.17-.21-.659,3.685-5.362-4.645-.9-.162-.949,5.299Z" stroke-width="0"/><rect y=".598" width="266.887" height="68.803" fill="none" stroke-width="0"/><path d="m11.4,37.943c-.694,1.693-2.184,2.418-4.57,1.441l-.967-.4c-2.386-.977-2.941-2.539-2.248-4.232s2.185-2.423,4.573-1.446l.966.394c2.386.977,2.941,2.539,2.244,4.243m-4.048.167c1.639.67,2.522.39,2.938-.621s-.017-1.842-1.656-2.513l-.968-.4c-1.637-.67-2.527-.38-2.94.633s.021,1.831,1.659,2.5l.967.401Z" stroke-width="0"/><path d="m16.358,28.852c-1.049,1.5-2.664,1.877-4.776.4l-.855-.6c-2.113-1.48-2.309-3.127-1.258-4.625s2.672-1.886,4.782-.407l.856.6c2.114,1.481,2.309,3.126,1.251,4.634m-3.984-.73c1.45,1.015,2.375.938,3,.042s.392-1.8-1.059-2.816l-.856-.6c-1.45-1.017-2.382-.929-3.01-.034s-.384,1.791,1.067,2.807l.858.601Z" stroke-width="0"/><path d="m21.518,17.83l-1.355-5.132.991-.869,5.4,6.164-1,.878-3.614-4.128,1.16,4.176-.732.644-3.939-1.7,3.6,4.1-1,.877-5.407-6.165.984-.862,4.912,2.017Z" stroke-width="0"/><rect x="34.887" y="4.3" width="1.379" height="8.2" transform="translate(-.557 13.931) rotate(-21.987)" stroke-width="0"/><path d="m46.78,1.082l1.6,8.048-1.2.238-4.367-4.818,1.087,5.47-1.306.26-1.6-8.048,1.166-.234,4.415,4.882-1.102-5.539,1.307-.259Z" stroke-width="0"/><path d="m54.478,6.55l-1.3.022-.098-5.952,1.295-.022.103,5.952Zm.074.842l-1.413.025.023,1.4,1.414-.019-.024-1.406Z" stroke-width="0"/><path d="m63.377,30.398c4.393,4.309,6.835,10.226,6.76,16.38.056,6.112-2.385,11.982-6.76,16.251-4.03,3.9-9.491,6.37-16.771,6.37-6.25.173-12.319-2.114-16.9-6.37-4.369-4.219-6.813-10.048-6.759-16.121.069-6.133,2.464-12.01,6.7-16.445,2.925-2.926,8.32-6.371,16.965-6.371,6.76,0,12.416,2.081,16.771,6.306m-26.326,6.63c-2.578,2.602-3.966,6.154-3.836,9.815-.123,3.666,1.317,7.212,3.96,9.755,2.487,2.404,5.843,3.695,9.3,3.576,3.578.129,7.053-1.21,9.62-3.705,2.55-2.563,3.917-6.073,3.77-9.686.085-3.621-1.271-7.128-3.77-9.75-2.598-2.405-6.015-3.728-9.555-3.7-3.529-.074-6.943,1.257-9.49,3.7" stroke-width="0"/><path d="m106.405,24.323v8.97h-17.551v9.231h15.6v8.974h-15.6v17.677h-10.79V24.323h28.341Z" stroke-width="0"/><path d="m141.244,24.323v8.97h-17.551v9.231h15.6v8.974h-15.6v17.677h-10.793V24.323h28.344Z" stroke-width="0"/><path d="m183.623,24.323v3.51h-10.923v41.342h-3.77V27.833h-10.918v-3.51h25.611Z" stroke-width="0"/><rect x="190.641" y="24.322" width="3.771" height="44.852" stroke-width="0"/><path d="m220.346,53.898l11.181-29.576h3.639v44.852h-3.766v-34.711l-9.3,24.7h-3.51l-9.23-24.636v34.647h-3.77V24.323h3.641l11.115,29.575Z" stroke-width="0"/><path d="m266.887,24.323v3.51h-17.287v16.381h15.8v3.51h-15.8v17.94h17.291v3.511h-21.065V24.323h21.061Z" stroke-width="0"/></svg>