<?xml version="1.0" encoding="UTF-8"?><svg xmlns="http://www.w3.org/2000/svg" width="274" height="260" viewBox="0 0 274 260"><path d="m.827,96.313l2.348.422,1.273-7.092,10.63,9.233,1.789.321,1.936-10.764-2.323-.42-1.315,7.324-10.654-9.234-1.791-.321-1.893,10.531Z" stroke-width="0"/><path d="m23.476,75.181c-1.378,3.366-4.342,4.809-9.09,2.867l-1.925-.789c-4.747-1.944-5.85-5.051-4.472-8.419,1.392-3.387,4.352-4.832,9.104-2.887l1.923.788c4.747,1.945,5.851,5.051,4.461,8.442m-8.05.329c3.257,1.334,5.018.777,5.842-1.235s-.031-3.665-3.289-5l-1.928-.788c-3.257-1.336-5.026-.758-5.848,1.255s.039,3.643,3.3,4.979l1.923.789Z" stroke-width="0"/><path d="m33.341,57.116c-2.089,2.978-5.3,3.728-9.494.786l-1.7-1.194c-4.2-2.944-4.587-6.215-2.5-9.194,2.1-3,5.311-3.749,9.509-.8l1.7,1.192c4.2,2.944,4.585,6.215,2.482,9.214m-7.918-1.463c2.882,2.021,4.719,1.868,5.968.088s.778-3.579-2.1-5.6l-1.7-1.192c-2.881-2.021-4.733-1.849-5.98-.069s-.765,3.561,2.117,5.582l1.695,1.191Z" stroke-width="0"/><path d="m43.62,35.166l-2.7-10.2,1.97-1.729,10.754,12.249-1.988,1.745-7.2-8.2,2.316,8.301-1.455,1.277-7.834-3.375,7.154,8.152-1.989,1.745-10.748-12.255,1.953-1.714,9.767,4.004Z" stroke-width="0"/><rect x="70.184" y="8.296" width="2.741" height="16.303" transform="translate(-.946 28.034) rotate(-22.025)" stroke-width="0"/><path d="m93.723,1.918l3.2,15.982-2.386.479-8.688-9.561,2.177,10.865-2.6.52-3.2-15.984,2.323-.463,8.783,9.683-2.2-11,2.591-.521Z" stroke-width="0"/><path d="m109.06,12.77l-2.575.044-.202-11.835,2.574-.044.203,11.835Zm.15,1.674l-2.813.049.049,2.788,2.81-.049-.046-2.788Z" stroke-width="0"/><path d="m131.4,62.206c9.05,8.877,14.08,21.065,13.925,33.741.115,12.589-4.914,24.679-13.925,33.471-8.3,8.034-19.548,13.122-34.544,13.122-16.737,0-28.116-6.694-34.81-13.122-8.999-8.688-14.033-20.692-13.925-33.2,0-12.854,5.757-25.84,13.791-33.875,6.025-6.025,17.137-13.122,34.944-13.122,13.925,0,25.573,4.286,34.544,12.988m-54.226,13.654c-3.883,3.749-7.9,10.309-7.9,20.217,0,8.167,2.679,14.728,8.168,20.084,5.757,5.489,12.183,7.363,19.146,7.363,9.1,0,15.532-3.347,19.816-7.631,3.481-3.347,7.767-9.641,7.767-19.95,0-9.239-3.75-16.067-7.767-20.084-5.35-4.957-12.389-7.687-19.682-7.633-7.271-.15-14.303,2.596-19.548,7.634" stroke-width="0"/><path d="m234.486,49.688v92.385h-17.942l-34.007-51.147v51.147h-20.886V49.688h17.673l34.275,51.816v-51.816h20.887Z" stroke-width="0"/><path d="m101.677,166.68v7.229h-22.49v85.155h-7.77v-85.154h-22.494v-7.229h52.754Z" stroke-width="0"/><rect x="116.13" y="166.68" width="7.765" height="92.385" stroke-width="0"/><path d="m177.315,227.6l23.029-60.92h7.5v92.385h-7.768v-71.5l-19.147,50.884h-7.23l-19.012-50.745v71.364h-7.766v-92.388h7.5l22.894,60.92Z" stroke-width="0"/><path d="m273.173,166.68v7.229h-35.615v33.74h32.534v7.231h-32.534v36.952h35.615v7.231h-43.382v-92.383h43.382Z" stroke-width="0"/></svg>