<?xml version="1.0" encoding="UTF-8"?><svg xmlns="http://www.w3.org/2000/svg" width="242" height="70" viewBox="0 0 242 70"><path d="m0,48.612l1.182.211.637-3.567,5.351,4.642.9.161.969-5.415-1.169-.21-.659,3.685-5.362-4.645-.9-.161-.949,5.299Z" stroke-width="0"/><path d="m11.4,37.943c-.693,1.693-2.183,2.418-4.569,1.441l-.967-.394c-2.386-.977-2.942-2.539-2.248-4.233s2.184-2.428,4.572-1.451l.966.4c2.386.976,2.941,2.539,2.243,4.242m-4.047.167c1.639.67,2.522.39,2.938-.621s-.018-1.842-1.656-2.513l-.968-.4c-1.637-.67-2.527-.38-2.94.633s.021,1.831,1.658,2.5l.968.401Z" stroke-width="0"/><path d="m16.358,28.852c-1.049,1.5-2.664,1.877-4.776.4l-.855-.6c-2.113-1.48-2.309-3.127-1.258-4.625s2.672-1.886,4.782-.407l.856.6c2.114,1.481,2.309,3.126,1.251,4.634m-3.984-.73c1.45,1.015,2.375.938,3,.042s.392-1.8-1.059-2.816l-.856-.6c-1.45-1.017-2.382-.929-3.01-.034s-.384,1.791,1.067,2.807l.858.601Z" stroke-width="0"/><path d="m21.519,17.831l-1.356-5.133.992-.869,5.4,6.164-1,.877-3.615-4.126,1.166,4.176-.733.643-3.938-1.7,3.6,4.1-1,.877-5.411-6.162.984-.862,4.911,2.015Z" stroke-width="0"/><rect x="34.889" y="4.301" width="1.378" height="8.2" transform="translate(-.547 13.999) rotate(-22.095)" stroke-width="0"/><path d="m46.781,1.083l1.6,8.048-1.2.238-4.367-4.818,1.086,5.47-1.307.26-1.593-8.048,1.162-.235,4.414,4.881-1.102-5.537,1.307-.259Z" stroke-width="0"/><path d="m54.478,6.55l-1.294.023-.1-5.952,1.291-.023.103,5.952Zm.075.843l-1.414.024.023,1.4,1.415-.019-.024-1.405Z" stroke-width="0"/><path d="m63.377,30.398c4.393,4.309,6.835,10.226,6.76,16.38.056,6.112-2.385,11.982-6.76,16.251-4.03,3.9-9.491,6.37-16.771,6.37-6.25.173-12.319-2.114-16.9-6.37-4.369-4.219-6.813-10.048-6.759-16.121.069-6.133,2.464-12.01,6.7-16.445,2.925-2.926,8.32-6.371,16.965-6.371,6.76,0,12.416,2.081,16.771,6.306m-26.326,6.63c-2.578,2.602-3.966,6.154-3.836,9.815-.123,3.666,1.317,7.212,3.96,9.755,2.487,2.404,5.843,3.695,9.3,3.576,3.578.129,7.053-1.21,9.62-3.705,2.55-2.563,3.917-6.073,3.77-9.686.085-3.621-1.271-7.128-3.77-9.75-2.598-2.405-6.015-3.728-9.555-3.7-3.529-.074-6.943,1.257-9.49,3.7" stroke-width="0"/><path d="m113.426,24.322v44.852h-8.711l-16.515-24.831v24.831h-10.135V24.322h8.58l16.64,25.156v-25.156h10.141Z" stroke-width="0"/><path d="m158.4,24.322v3.51h-10.92v41.342h-3.77V27.832h-10.917v-3.51h25.607Z" stroke-width="0"/><rect x="165.422" y="24.322" width="3.771" height="44.852" stroke-width="0"/><path d="m195.127,53.898l11.181-29.576h3.639v44.851h-3.769v-34.711l-9.3,24.7h-3.51l-9.23-24.636v34.647h-3.771V24.322h3.641l11.119,29.576Z" stroke-width="0"/><path d="m241.668,24.322v3.51h-17.291v16.381h15.8v3.51h-15.8v17.94h17.291v3.511h-21.061V24.322h21.061Z" stroke-width="0"/></svg>