<svg xmlns="http://www.w3.org/2000/svg" width="180" height="110" viewBox="0 0 180 110"><path d="M146.011 62.85h8.343c2.472 0 3.193-.928 3.193-3.708V16.398h-11.536V2.082h23.277v57.061c0 2.78.721 3.708 3.193 3.708H180v13.904h-33.989V62.851zM59.864 74.502l-.532-.532 13.539-13.534.527.532-13.534 13.534zM65.233 79.872l-.532-.532L78.24 65.806l.527.532-13.534 13.534z"/><path d="M125.754 65.87c-14.474 14.475-37.942 14.475-52.416 0-14.475-14.474-14.475-37.942 0-52.416 14.474-14.475 37.942-14.475 52.416 0 14.474 14.474 14.475 37.941.001 52.415h-.001m-9.179-43.236c-9.405-9.404-24.653-9.404-34.057 0-9.404 9.405-9.404 24.653 0 34.057 9.405 9.404 24.652 9.404 34.056 0 9.405-9.404 9.405-24.652 0-34.057"/><path fill="#dce6e6" d="M29.741 98.019l26.82-26.82L68.01 82.648l-26.82 26.82z"/><path d="M29.209 98.019l27.348-27.348 11.981 11.981L41.19 110 29.209 98.019zm27.352-26.288L30.273 98.019l10.917 10.917 26.288-26.288-10.917-10.917z"/></svg>