<svg xmlns="http://www.w3.org/2000/svg" width="400" height="60" viewBox="0 0 400 60"><path d="M60.234 9.179c-13.555 0-24.6 9.747-24.6 21.734 0 11.72 11.239 21.626 24.551 21.626a26.123 26.123 0 0015.649-5.242l.258-.2v-5.54l-1.111 1.21c-3.174 3.437-9.591 6.036-14.916 6.036A22.919 22.919 0 0145.75 43.31a16.257 16.257 0 01-5.92-12.183c0-9.882 9.267-18.225 20.235-18.225a21.286 21.286 0 0114.91 6.262l1.118 1.221v-5.539l-.227-.2a24.966 24.966 0 00-15.632-5.467M137.113 9.178a26.341 26.341 0 00-17.172 6.185 25.965 25.965 0 00-16.88-6.185c-13.248 0-24.423 9.933-24.423 21.677s11.174 21.678 24.422 21.678a25.966 25.966 0 0016.946-6.249c9.327 7.935 22.905 8.357 32.707 1.016l.253-.207v-5.537l-1.1 1.215c-3.185 3.432-9.6 6.031-14.934 6.031a22.852 22.852 0 01-14.135-5.369 19.79 19.79 0 004.693-12.582 19.831 19.831 0 00-4.7-12.6c8.388-7.479 21.164-7.081 29.07.906l1.111 1.228v-5.54l-.233-.2a24.945 24.945 0 00-15.62-5.467m-24.6 21.741a19.616 19.616 0 004.75 12.582 21.533 21.533 0 01-14.2 5.3c-10.96 0-20.235-8.215-20.235-17.947S92.108 12.9 103.068 12.9a21.508 21.508 0 0114.14 5.266 19.956 19.956 0 00-4.691 12.752m7.484 9.578a15.498 15.498 0 01-3.292-9.363 16.646 16.646 0 013.335-9.85 16.284 16.284 0 013.245 9.573 16.255 16.255 0 01-3.3 9.642M179.937 9.176c-13.256 0-24.421 9.941-24.421 21.677s11.164 21.679 24.421 21.679 24.423-9.933 24.423-21.683-11.18-21.673-24.423-21.673m20.23 21.677c0 9.734-9.275 17.947-20.23 17.947s-20.235-8.213-20.235-17.947 9.267-17.947 20.235-17.947 20.23 8.215 20.23 17.947M249.97 15.035c-5.312-4.42-10.812-5.312-17.429-5.312h-9.992v42.26h9.992c5.81 0 11.976-.684 17.7-5.577 8.602-7.207 9.733-20.023 2.526-28.626a20.29 20.29 0 00-2.792-2.745m-23.225-1.589h5.727c6.456 0 10.631 1.248 14.438 4.318 7.216 5.602 8.524 15.993 2.922 23.209a16.535 16.535 0 01-2.399 2.499c-3.807 3.361-8.279 4.8-14.961 4.8h-5.727V13.446zM262.39 9.722v42.26h25.889v-3.71h-21.675V30.791h21.185v-3.723h-21.185V13.446h21.675V9.722H262.39zM311.521 8.741l-19.64 43.243h4.387s5.817-12.771 6.147-13.481h19.31l6.156 13.481h4.38L312.103 7.461l-.582 1.28zm8.531 26.039h-15.971c.712-1.525 7.045-15.465 8.014-17.6.962 2.133 7.263 16.073 7.955 17.6M340.24 48.271V9.721h-4.188v42.26h28.314v-3.71H340.24z"/></svg>