<?xml version="1.0" encoding="UTF-8"?><svg xmlns="http://www.w3.org/2000/svg" width="440" height="160" viewBox="0 0 440 160"><g opacity=".15"><path d="m71.844,66.893h-8.739c-1.901,0-3.441-1.541-3.442-3.442V5.391c0-1.901,1.541-3.441,3.442-3.442h8.739c1.901,0,3.442,1.541,3.442,3.442h0v58.059c0,1.901-1.541,3.442-3.442,3.442h0" fill="#ea8e9e" stroke-width="0"/><path d="m285.892,158.05h-8.739c-1.901,0-3.441-1.541-3.442-3.442v-58.058c0-1.901,1.541-3.441,3.442-3.442h8.739c1.901,0,3.442,1.541,3.442,3.442v58.059c0,1.901-1.541,3.442-3.442,3.442" fill="#ea8e9e" stroke-width="0"/><path d="m134.88,5.391v6.1c0,1.901-1.541,3.442-3.442,3.443h-12.206c-.713,0-1.29.578-1.291,1.291v47.221c0,1.901-1.541,3.442-3.442,3.443h-8.739c-1.902,0-3.443-1.541-3.443-3.443V16.229c0-.713-.578-1.291-1.291-1.291h-12.211c-1.902,0-3.443-1.541-3.443-3.443v-6.1c0-1.901,1.541-3.442,3.442-3.442h42.624c1.901,0,3.442,1.541,3.442,3.442h0" fill="#ea8e9e" stroke-width="0"/><path d="m173.513,5.391v6.1c0,1.901-1.541,3.442-3.442,3.443h-10.917c-.713,0-1.291.578-1.291,1.291h0v9.277c0,.712.577,1.29,1.289,1.291h8.471c1.901,0,3.442,1.542,3.442,3.443v6.1c0,1.901-1.541,3.442-3.442,3.443h-8.469c-.712,0-1.29.577-1.291,1.289h0v11.536c0,.712.577,1.29,1.289,1.291h10.919c1.901,0,3.442,1.542,3.442,3.443v6.1c0,1.901-1.541,3.442-3.442,3.443h-24.39c-1.902,0-3.443-1.541-3.443-3.443V5.391c0-1.901,1.541-3.442,3.442-3.442h24.391c1.901,0,3.442,1.541,3.442,3.442h0" fill="#ea8e9e" stroke-width="0"/><path d="m146.016,96.55v6.1c0,1.901-1.541,3.442-3.442,3.443h-10.918c-.713,0-1.291.578-1.291,1.291h0v9.277c0,.712.577,1.29,1.289,1.291h8.471c1.901,0,3.442,1.542,3.442,3.443v6.1c0,1.901-1.541,3.442-3.442,3.443h-8.469c-.712,0-1.29.577-1.291,1.289h0v11.536c0,.712.577,1.29,1.289,1.291h10.919c1.901,0,3.442,1.542,3.442,3.443v6.1c0,1.901-1.541,3.442-3.442,3.443h-24.391c-1.902,0-3.443-1.541-3.443-3.443v-58.047c0-1.901,1.541-3.442,3.442-3.442h24.391c1.901,0,3.442,1.541,3.442,3.442h0" fill="#ea8e9e" stroke-width="0"/><path d="m382.427,96.55v6.1c.001,1.901-1.539,3.443-3.44,3.445h-10.919c-.713,0-1.291.578-1.291,1.291v9.277c0,.712.577,1.29,1.289,1.291h8.471c1.901,0,3.442,1.542,3.442,3.443v6.1c0,1.901-1.541,3.442-3.442,3.443h-8.469c-.712,0-1.29.577-1.291,1.289h0v11.536c0,.712.577,1.29,1.289,1.291h10.921c1.901,0,3.442,1.542,3.442,3.443v6.1c.004,1.902-1.533,3.447-3.435,3.451h-24.397c-1.902,0-3.443-1.541-3.443-3.443v-58.057c0-1.901,1.541-3.442,3.442-3.442h24.391c1.901,0,3.442,1.541,3.442,3.442" fill="#ea8e9e" stroke-width="0"/><path d="m215.32,34.177l16.157-30.4c.597-1.124,1.767-1.828,3.04-1.828h9.077c1.902,0,3.443,1.541,3.443,3.443v58.058c0,1.901-1.542,3.442-3.443,3.441h-7.8c-1.901,0-3.441-1.54-3.442-3.441v-31.488c.003-.237-.188-.432-.425-.435-.163-.002-.313.089-.388.235l-11.592,22.53c-.59,1.147-1.771,1.868-3.061,1.868h-4.166c-1.295,0-2.481-.727-3.068-1.881l-11.312-22.216c-.107-.212-.365-.297-.577-.191-.147.074-.239.226-.237.391v31.188c0,1.901-1.542,3.442-3.443,3.441h-7.8c-1.9,0-3.441-1.54-3.442-3.44h0V5.392c0-1.901,1.54-3.442,3.441-3.443h8.99c1.27,0,2.437.7,3.036,1.82l16.247,30.41c.112.21.374.289.583.177.075-.04.136-.102.177-.177" fill="#ea8e9e" stroke-width="0"/><path d="m296.57,17.899c-1.406,1.039-3.366.872-4.575-.392-2.29-2.523-5.248-3.511-9.834-3.511-5.176,0-7.436,2.353-7.436,5.647,0,3.859,3.389,6.025,11.577,8.377,14.119,4.048,19.484,9.319,19.484,20.425,0,11.765-7.906,19.39-22.685,19.39-10.138,0-17.456-2.133-23.188-7.574-1.373-1.319-1.416-3.501-.097-4.874.155-.162.326-.308.51-.436l6.017-4.222c1.296-.926,3.06-.828,4.246.235,2.879,2.674,6.4,3.88,11.195,3.88,6.024,0,8.377-2.541,8.377-5.647,0-3.764-2.635-5.647-12.236-8.753-13.176-4.236-18.824-10.259-18.824-20.708,0-10.729,7.059-18.73,22.872-18.73,8.763,0,16.11,2.494,20.957,7.6,1.286,1.393,1.199,3.564-.194,4.85-.11.101-.226.195-.348.281l-5.818,4.162Z" fill="#ea8e9e" stroke-width="0"/><path d="m94.401,109.056c-1.406,1.039-3.366.872-4.575-.392-2.29-2.523-5.248-3.511-9.834-3.511-5.176,0-7.436,2.353-7.436,5.647,0,3.859,3.389,6.025,11.577,8.377,14.119,4.048,19.484,9.319,19.484,20.425,0,11.765-7.906,19.39-22.685,19.39-10.138,0-17.456-2.133-23.188-7.574-1.373-1.319-1.416-3.501-.097-4.874.155-.162.326-.308.51-.436l6.017-4.222c1.296-.926,3.06-.828,4.246.235,2.879,2.674,6.4,3.88,11.195,3.88,6.024,0,8.377-2.541,8.377-5.647,0-3.764-2.635-5.647-12.236-8.753-13.177-4.235-18.827-10.259-18.827-20.707,0-10.729,7.059-18.73,22.872-18.73,8.763,0,16.11,2.494,20.957,7.6,1.286,1.393,1.199,3.564-.194,4.85-.11.101-.226.195-.348.281l-5.815,4.161Z" fill="#ea8e9e" stroke-width="0"/><path d="m336.316,31.904c.53-.44.624-1.217.216-1.771-3.153-4.3-5.181-8.743-5.181-14.161,0-9.13,8-14.966,18.73-14.966,11.765,0,18.543,6.024,18.543,13.082,0,6.759-5.882,12.09-12.088,16.944-.562.437-.664,1.248-.227,1.81.018.023.036.044.055.066l8.5,9.536c.157.18.431.198.611.041.069-.06.117-.14.137-.229.168-.859.287-1.727.357-2.6.171-1.756,1.654-3.09,3.418-3.077h7.963c1.896-.01,3.441,1.519,3.451,3.415,0,.097-.003.194-.011.291-.412,5.09-2.004,10.014-4.652,14.381-.098.158-.081.361.043.5l5.365,5.976c1.27,1.415,1.153,3.592-.262,4.862-.632.567-1.451.881-2.3.881h-7.985c-.97,0-1.895-.409-2.547-1.127l-1.573-1.73c-.131-.147-.347-.181-.518-.083-5.03,2.685-10.669,4.022-16.369,3.881-14.871,0-23.342-8.849-23.342-18.072,0-7.9,4.356-13.462,9.671-17.859m19.838,20.325l-9.891-10.878c-.484-.53-1.307-.567-1.837-.082-.049.045-.095.093-.136.145-1.427,1.579-2.274,3.597-2.4,5.721,0,4.612,3.577,7.718,8.941,7.718,1.585.014,3.166-.157,4.711-.51.686-.182,1.095-.885.913-1.571-.054-.203-.156-.39-.299-.544m-8.342-30.32c.344.635,1.138.871,1.773.526.067-.036.131-.079.191-.126,3.03-2.391,5.1-4.7,5.1-7.456,0-2.259-1.789-3.765-4.517-3.765-2.448,0-4.329,1.318-4.329,4.895.11,2.09.721,4.123,1.781,5.928" fill="#ea8e9e" stroke-width="0"/><path d="m192.75,155.995l-9.58-21.74c-.206-.469-.67-.771-1.182-.771h-5.961c-.713,0-1.29.578-1.291,1.291v19.832c0,1.901-1.541,3.442-3.442,3.443h-8.739c-1.902,0-3.443-1.541-3.443-3.443v-58.057c0-1.901,1.541-3.442,3.442-3.442h21.03c14.965,0,24.566,6.87,24.566,20.424,0,8.3-3.619,13.985-9.968,17.044-.21.1-.3.352-.2.563l10.465,21.99c.817,1.717.088,3.771-1.629,4.589-.462.22-.967.334-1.479.334h-9.435c-1.364,0-2.6-.806-3.15-2.055m-11.048-35.5c6.306,0,10.824-.848,10.824-6.965,0-6.212-4.517-7.435-10.824-7.435h-3.527c-1.901,0-3.441,1.541-3.442,3.442v7.511c0,1.901,1.541,3.441,3.442,3.442l3.527.005Z" fill="#ea8e9e" stroke-width="0"/><path d="m230.895,95.785l7.724,33.971c.051.232.28.379.512.328.164-.036.292-.164.328-.328l7.724-33.971c.356-1.567,1.75-2.679,3.357-2.679h9.185c1.902,0,3.443,1.542,3.442,3.444,0,.313-.043.625-.127.926l-16.24,58.058c-.416,1.487-1.771,2.515-3.315,2.516h-8.894c-1.545,0-2.901-1.028-3.317-2.516l-16.239-58.058c-.513-1.831.556-3.73,2.387-4.243.302-.085.615-.128.928-.127h9.185c1.607,0,3.001,1.112,3.357,2.679" fill="#ea8e9e" stroke-width="0"/><path d="m330.124,113.153c-1.068-.009-1.97-.794-2.126-1.85-.542-3.371-2.035-6.15-5.629-6.15-4.895,0-6.871,4.707-6.871,15.342v10.165c0,10.166,1.883,15.342,6.871,15.342,3.623,0,4.941-2.161,5.592-6.167.159-1.049,1.058-1.826,2.119-1.833h8.881c1.906.005,3.448,1.555,3.443,3.461,0,.257-.03.513-.088.764-2.66,11.607-9.219,16.764-19.948,16.764-12.706,0-22.5-8.942-22.5-28.332v-10.164c0-19.578,9.789-28.331,22.5-28.331,9.753,0,17.1,5.482,19.9,16.715.454,1.852-.679,3.721-2.531,4.175-.268.066-.543.099-.819.099h-8.794Z" fill="#ea8e9e" stroke-width="0"/><path d="m60.658,63.449c.009.083-.85-2.96-2.155-2.8l-.243.029c-.19-.169-.438-.258-.692-.248-.9.106-1.407,2.069-2.549,2.206-.409.048-.744.005-.988.034-3.835.457-4.991,3.241-8.055,4.6-.99,2.1-3.258,3.2-4.167,5.293-2.683,2.473-5.185,5.084-7.859,7.637-2.035,3.053-5.457,4.869-7.309,8.068-2.773.33-4.268,1.666-6.5,2.346-1.543.929-2.061,4.215-3.855,4.43.243,2.039-1.32,2.8-1.069,4.925.017.249.074.493.169.724-1.351,1.155-2.145,2.82-3.952,3.614-.893,2.918-4,3.95-5.173,6.572-1.469.175-1.5,2.659-2.769,3.141-1.174.796-1.807,2.18-1.641,3.589.039.326.743,2.061,1.966,1.915.489-.058.2-.435.767-.5.407-.048.906-.025,1.315-.073.651-.077,2.755-2.563,3.7-3.667.5-.64.295-1.689.7-1.737.163-.019.418.033.581.014.327-.04,1.121-1.705,1.4-2.153,1.552-.846,1.38-2.977,3.582-3.238.786,1.725,2.073,2.812,2.93,4.449,1.043.221,1.968.817,2.6,1.675.136-.035.27-.078.4-.131,1.3-.155,2.693,1.086,4.08.92.465-.371.809-.873.987-1.441-.214-1.8-2.726-.669-3.334-1.587-2.194-1.799-3.76-4.248-4.472-6.994.678-2.225,2.164-4.116,4.166-5.3.573-1.487,1.493-2.815,2.682-3.876,1.087-1.287,1.445-3.151,3.535-3.647,1.152-.055,1.575.721,2.718.586.195-.016.385-.066.561-.15.164,1.388,1.533,1.059,2.19,1.723.733,1.982,4.321,3.624,6.263,6.038.675,2.9,2.573,4.242,3.608,6.685l.7,5.872c-.41,1.13-.577,2.333-.489,3.532.068.581.306,1.128.684,1.574.218.04.443.04.661,0,1.225-.145,1.933-1.14,2.586-1.219.244-.029.582.016.825-.015.326-.038.561-.148.522-.474-.011-.142-.055-.279-.13-.4.331-.337.461-.823.344-1.281-.078-.655-.329-1.37-.406-2.021-.106-.9.227-2.26.043-3.809-.38-3.182,1.371-7.938,2.243-11.021.863-3.164,1.119-6.585,2.623-7.839l-.283-2.366c2.216-4.317,2.8-9.845,4.649-14.448l-.058-.49c-.4-3.346,1.757-6.084,1.378-9.264m-5.148,7.478c-.167.683-.823,1.422-.726,2.239.185,1.549-1.108,3.192-1.212,5.107-.781,1.513-1.123,3.215-.986,4.913-1.073,1.544-1.554,3.422-1.355,5.292-.891.849-.687,2.563-1.588,3.331.147,2.629-.992,4.173-1.209,6.514.012,1.488-1.428,1.908-1.234,3.538.016.195.068.385.152.562-1.234.064-2.5-2.928-3.326-4.32-.717-1.155-2.163-1.48-2.664-2.909-3.312-1.423-5.2-4.757-8.617-5.672-.243-2.039,2.837-2.572,2.71-3.632l-.039-.327c1.582-.6,2.069-2.067,3.643-2.749.712-1.659,2.876-2.247,3.486-4.056l.407-.048c1.886-.143,1.816-2.12,2.97-2.837,1.158-.801,2.241-1.705,3.236-2.7.974-.86,2.627-1.555,2.851-3.152,1.236-.726,2.949-.929,3.527-2.321l.082-.011c.245-.029.274.213.375.369-.729.83-.347,1.944-.486,2.869" fill="#e2474e" stroke-width="0"/><path d="m394.042,69.975c-1.222,1.147-3.133,1.3-4.561,1.9-4.842,1.935-8.919,4.922-13.216,7.219-1.13.518-2.204,1.149-3.206,1.883-.82.312-1.914,1.943-2.947,1.066-.677-1.493,1.019-1.051.815-2.168.2-.74.473-1.416.742-2.162.449-1.628.513-3.492,1.909-4.374-.426-1.161.395-1.474-.038-2.709,1.437-.529,1.613-2.05,1.641-3.625,2.16-2.257,2.735-5.828,4.888-8.158,1.529-2.753,4-4.762,4.5-8.4-.879-.181-.648-1.85-1.892-1.488-1.725-.08-1.416,1.312-2.194,1.976-.861.661-1.478,1.589-1.757,2.638-1.48,1.964-2.826,4.482-4.436,5.959-.28.295-.581.57-.9.823-.887.622-1.736,1.296-2.545,2.017-.249.317-.656.506-.9.822-.323.228-.628.48-.912.754-.49.62-1.159,1.073-1.916,1.3-2.155,1.663-4.552,2.985-7.108,3.92-.627.792-1.707,1.066-2.636.67-.287-1.823,1.228-2.289,1.642-3.624.728-1.086,2.265-3.771,2.993-4.859,1.213-2.431,3.693-3.8,4.351-6.664-.489-.659-1.017-1.287-1.581-1.883-1.091-.096-2.169.294-2.946,1.066-.141.017-.144.589-.275.676-.267.175-.658,1.08-.925,1.254s-.533.921-1.254.864c-.148.824-.53,1.587-1.1,2.2-.132.087-.581-.074-.705.086-.061.077-.081.508-.205.665-.256.348-.589.632-.973.831.123.579-.728,2.21-1.316,3.148-.707.622-1.537,1.369-2.015,1.892-2.443,2.293-5.658,5.893-9.552,6.784-2.229.481-4.36.591-5.791-.021-.555-1.65.785-1.81,1.02-2.839.856-1.817,1.96-2.735,2.5-4.8.309-.351.599-.718.868-1.1.171-.377-.088-1.347.547-1.423-.168-1.407-1.591-1.953-1.5-3.608-.675-.848-1.036-2.09-1.7-2.869-.5-1.8-.549-4.008-2.219-4.236-1.609-.311-1.169,1-1.47,1.46-.505.56-2.593,2.239-2.57,3.022-1.192.785-4.083,5.917-4.872,7.082-.833.814-2.44,3.506-3.387,4.547-.02-.015.135.068.377.2-.848.555-1.587,1.263-2.178,2.087-1.936,1.16-3.807,2.24-5.742,3.4-1,.619-2.224,1.121-3.221,1.741-.991.689-1.868.508-2.955.994-.686.102-1.36.279-2.008.527-.287-.61-2.019.453-1.809-.785-.651-1.28.661-1.65,1.1-2.2.461-.775,1.091-1.436,1.842-1.934.409-1.138,1.099-2.155,2.006-2.955-.157-1.91,1.667-2.2,1.2-4.288-.56-.5-.694-1.631-1.583-1.883-3.986.118-3.637,3.65-6.275,4.893.168,1.408-.76,2.02-1.372,2.879.043,1.567-.779,2.451-.894,3.895-1.074-.015-.806,1.022-1.574,1.187-.557.464-1.279.681-2,.6.2,1.048-1.284,1.224-1.876,1.651-.328.255-.514.491-.91.753-.391.333-.979.188-.9.822-1.894.3-3.517,2.276-5.7,1.322-.09-2.563,1.018-4.052,1.32-6.3.971-.259.914-1.323,1.491-1.891s.677-1.512,1.488-1.893c.946-1.312,1.81-2.681,2.586-4.1,2.161-1.043,3.211-3.026,4.981-4.38,1.1-.346,1.555-1.329,2.476-2.009,1-.619,2.32-.92,3.221-1.741,2.226.091,3.239-1.6,5.031-.959.113,1.559-1.978,2.594-.5,4.2.486-.13,1.287-.01,1.3-.513-.059-.491.811-.383.587-1.069.953-.4,1.281-1.225,1.772-1.928.508-2.918-.843-5.259-3.366-5.458-2.98.785-4.768,2.569-7.817,3.362-.561,1.281-2.228,1.7-3.492,2.489-1.05.769-1.392,2.1-3.147,2.376-.642,1.235-1.567,2.3-2.7,3.108-1.594,2.19-3.656,4.08-5.1,6.4-.153.211-.284.439-.418.664-2.366,1.615-4.935,3.127-7.385,4.623-2.865,1.128-5.936,2.352-8.81,3.409-1.469-.326-2.489,1.3-3.382.4.106-1.512,1.149-2.352,1.964-3.307.786-2.854,1.87-5.617,3.234-8.245.131-.087-.13-.484-.076-.634.718-1.329,1.366-2.694,1.942-4.09.323-.9,1.12-1.992.627-3.148-.553-.469-1.068-.981-1.541-1.531-1.877.438-3.135,1.874-4.444,2.888-1.5,1.18-2.84,2.552-4.412,3.741-2.979,2-6.565,6.071-9.3,8.324-.796.591-1.545,1.243-2.24,1.949-.047-.108-.101-.214-.162-.315.01.071-2.333,1.994-3.281,3.034-.5.468-1.035.994-1.6,1.536-.192.112-.39.215-.592.307.024,0,.053.073.084.178-2.093,1.988-4.586,4.107-7.448,4.761-2.231.481-4.36.591-5.791-.023-.555-1.65.784-1.809,1.02-2.839.856-1.816,1.96-2.734,2.5-4.8.31-.35.601-.717.871-1.1.17-.377-.088-1.347.546-1.423-.169-1.407-1.593-1.953-1.5-3.608-.675-.848-1.037-2.09-1.7-2.869-.5-1.8-.55-4.008-2.219-4.236-1.609-.311-1.169.994-1.47,1.459-.506.561-2.594,2.24-2.57,3.023-1.192.784-4.083,5.917-4.872,7.082-.832.814-2.44,3.5-3.387,4.546l.034.018c-.135.076-.278.158-.384.208-.886.523-1.723,1.125-2.5,1.8-2.7,2.537-7.989,5.525-11.7,6.182l-.7.084c-1.376-.119-2.713-.52-3.927-1.177,1.552-.757,2.247-2.123,3.8-2.882.314-.965,1.267-1.365,1.807-2.216s1.071-2.413,2-3.023c-.083-2.493,2.164-5.831,1.836-8.58.488-.7.2-1.881.427-2.409.107-.3.264-.174.2-.738-.091-1.347-.269-2.254-1.347-2.911-2.334.205-3.17,1.591-5.662,1.673-1.31,1.528-2.907,2.785-4.7,3.7-.8,1.737-2.6,2.811-3.145,4.805-.943.471-1.17,1.57-1.4,2.6-.463.26-.9,1.537-1.209,2.713-.524.239-1.069.429-1.628.568-5.3,2.274-11.085,2.321-12.982-2.811-.638-2.354,1.38-2.81.142-4.806-1.054-.973-2.643-1.081-3.819-.26-.65,1.469-1.043,3.039-1.161,4.641-.633.075-.356.613-.587,1.071-.686,1.439-1.871,2.294-2.275,3.7-.3,1.037-1.8,1.715-1.757,2.64.084.7-.993,1.261-1.179,1.5-.125.157-.083.51-.277.675-1.5,1.182-2.532,2.732-3.965,3.9-.896.501-1.761,1.057-2.588,1.666-1.489.1-1.022,1.621-2.9,1.417-1.256-2.137.727-4.089.292-6.536,1.134-1.28,1.255-3.867,2.148-4.758.062-.08-.137-.556-.075-.634.392-.905,1.014-1.692,1.406-2.6s.547-1.993,1.414-2.524c.205-.669.719-1.158.784-1.81.273-1.318-.962-.884-.876-1.965-2.569.018-2.065,2.461-4.163,2.852-.273,1.655-1.036,3.19-2.19,4.407.376,1.15-.182,1.567-.342,2.3-1.414.524-2.526,1.674-3.768,2.193-1.114.846-1,1.833-2.338,2.564-1.706,1.275-3.3,2.252-5.018,3.456-1.808,1.444-3.897,2.496-6.134,3.089-.822.884-2.794,2.334-4.313,1.586.03-2.147,1.875-2.866,2.544-4.447,1.432-1.17,2.641-4.815,4.318-5.729,1.221-1.147,1.321-3.3,3.008-4.146.336-1.97,2.408-2.574,2.508-4.729-.833-.4-.542-2.149-1.935-1.842-1.309-.2-.972.831-1.572,1.188-.471.57-.98,1.108-1.523,1.61-.2.737-1.185.855-1.137,1.85-.671.366-1.413.74-1.532,1.539-.937.965-1.751,2.042-2.423,3.208-.044-.246-.083-.486-.144-.757-2.035.313-2.957,1.566-4.212,2.431-.469.27-1.353,1.234-1.892,1.512-.456.646-.985,1.237-1.577,1.76-.682.677-1.493,1.211-2.384,1.57-2.769,2.547-3.93,2.4-7.409,4.384-.75.305-.707.658-1.616.837-.5.56-1.69.2-2.362.567-.783.021-1.286,1.8-1.959.949.654-.509.126-1.947,1.1-2.2.479-.805.856-1.666,1.123-2.563.985-1.333,3.031-5.148,3.3-7.109.89-.32.52-1.634,1.489-1.894-.229-1.329,1.353-1.232,1.054-2.553,1.657-1.222,2.126-3.497,1.087-5.274-1.8-.714-4.521,1.039-5.652,1.745-1.381,1.594-3.888,2.751-5.374,4.07-.328.254-.612.859-.94,1.113-.76.747-1.589,1.42-2.476,2.01-.591.427-.805,1.025-1.607.907-.25.886-1.2,1.285-1.447,2.243-.949-.172-.417.692-1.051.769-.511-.082-.687,1.44-1.015.478l.353-.042c-.042-.353.433-.553-.084-.7.676-1.513,1.136-7.853-.2-8.838-1.724-.08-2.517-.129-2.867,1.128-.21.742-.636,5.087-.853,7.221l-.009-.044c-2.035.312-2.957,1.565-4.212,2.43-.468.271-1.354,1.233-1.892,1.513-.456.646-.985,1.236-1.577,1.76-.682.677-1.494,1.211-2.386,1.569-2.769,2.546-3.929,2.4-7.408,4.385-.75.3-.708.656-1.616.836-.5.56-1.69.2-2.362.568-.783.02-1.286,1.8-1.959.947.655-.507.126-1.946,1.1-2.2.478-.805.855-1.666,1.123-2.563.985-1.334,3.031-5.151,3.3-7.109.891-.321.521-1.634,1.49-1.894-.229-1.33,1.354-1.232,1.054-2.554,1.657-1.221,2.126-3.496,1.086-5.273-1.8-.715-4.52,1.04-5.65,1.744-1.381,1.594-3.888,2.751-5.374,4.07-.328.254-.613.859-.941,1.113-.759.748-1.588,1.421-2.475,2.011-.591.426-.806,1.024-1.607.905-.25.887-1.2,1.287-1.447,2.245-.949-.173-.417.693-1.051.768-.511-.082-.687,1.439-1.015.478l.353-.042c-.042-.353.433-.55-.084-.7.677-1.512,1.136-7.851-.2-8.838-1.724-.08-2.516-.127-2.866,1.128-.252.889-.815,6.958-.954,8.19-.56,2.5-2.979,6.784-3.792,8.953-.398,1.067-.982,2.055-1.723,2.92-.439,1.126-1.278,1.868-.936,3.543,1.065,1.158,1.356-.019,3.141-.018.716-.586,1.2-1.358,1.842-1.935,1.031-.336.722-1.729,1.843-1.932,1.352-1.234,1.629-3.124,3.061-4.295.518-.864,1.144-1.659,1.861-2.366,1.888-2.153,7.472-7.463,10.172-8.785-.661,1.651-2.35,6.065-2.937,7.136-.166.293-.375.559-.62.79-.062.077.138.555.075.632-.231.458-.691.8-.86,1.176-.213.461-.395.936-.545,1.422-.109.3-.547.207-.592.426-.231.458.084.705-.234,1.029-.132.087.138.556.084.705-.587,1.296-.787,2.734-.578,4.142,1.743,1.435,4.249.281,6.213-.025,2.547-2.019,5.762-2.617,8.151-4.757,1.15-1.14,1.818-.933,2.89-2.132,1.8-1.072,2.017-1.671,3.164-2.235,1.891-1.15,3.647-2.51,5.232-4.054.025-.191.5-.495,1-.7-.842,1.823-1.771,3.657-2.218,4.85-.399,1.067-.982,2.056-1.724,2.921-.439,1.125-1.277,1.867-.935,3.541,1.068,1.16,1.356-.018,3.141-.017.717-.587,1.2-1.358,1.842-1.935,1.031-.337.722-1.729,1.843-1.933,1.353-1.232,1.629-3.124,3.06-4.295.52-.863,1.145-1.658,1.862-2.366,1.888-2.153,7.472-7.463,10.172-8.785-.661,1.651-2.35,6.068-2.936,7.138-.167.292-.377.558-.621.789-.062.077.138.554.075.633-.231.456-.69.8-.86,1.174-.213.462-.395.937-.545,1.422-.109.3-.547.207-.591.428-.232.456.084.705-.235,1.029-.132.086.138.554.084.705-.587,1.296-.787,2.734-.578,4.141,1.744,1.435,4.249.28,6.213-.025,2.548-2.02,5.762-2.617,8.151-4.759,1.151-1.137,1.818-.932,2.89-2.132,1.8-1.07,2.016-1.668,3.164-2.234,1.24-.77,2.43-1.616,3.564-2.535-.828,1.381-1.517,2.839-2.059,4.355-.259,1.035-.205,2.123.157,3.127.066,1.133,1.254.922,1.575,1.811,1.437-.528,3.311-.393,5.039-.886.132-.087.77-.734.9-.82.679-.3,1.389.26,1.649-.555,1.739-.993,3.952-1.615,5.533-2.732.02-.432,2.078-1.748,2.278-1.272.6-1.572,3.653-1.722,4.443-2.888.488-.7,1.574-1.188,1.983-1.952.018-.012.033-.025.051-.038-.116.415-.253.824-.41,1.225.5,1.8-.352,3.042.52,4.369-.968,1.473.714,2.987,1.192,4,2.285.586,3.472-.841,5.734-1.04.235-1.029,1.5-1.18,2.158-1.688.773-.501,1.52-1.042,2.236-1.622,1.441-1.1,2.392-2.717,4.007-3.55-.126-1.057,1.031-1.552,1.447-2.246.559-.708.741-1.588,1.448-2.243,1.2-1.289,1.541-3.257,3.3-4.111.452.452.955.848,1.5,1.182.387.24.964.886,1.5,1.178.457.231,1.073.013,1.45.183-.069.009.315.247.325.32.93.6,2.347.506,3.26.97,2.25-.099,4.485-.413,6.675-.94.645-.085,1.276-.259,1.873-.517.185.986.447,1.955.783,2.9.01,1.286.8,3.12,2.447,3.139,3.601,1.649,7.637,2.094,11.511,1.27,5.244-.98,13.951-7.664,14.8-9.481.05-.191.068-.389.054-.586l.271.149c1.9-.8,6.755-9.879,8.738-10.616.743.842,1.269,2.849,1.586,4.312-1.87,2.3-2.634,4.887-4.268,7.368-.06,1.293-.592,2.214-.269,3.747.728.7,1.372,1.91,2.289,1.8.361.029.244.258.395.311.558.182,1.151.235,1.732.153,2.16.092,4.324-.046,6.455-.412,3.354-1.184,5.905-3.337,8.358-5.488.2-.137.411-.285.605-.432.003-.041.013-.082.028-.12l.343-.3c.336-.11.789-.12.884-.44.618-.218.526-.993,1.615-.837-.241.973-.118,2.001.345,2.89,1.366.357,2.624,1.04,3.667,1.992,1.488-.1,2.857.589,4.2.5,4.278-.081,8.2-2.55,11.955-3.424,1.399-.936,2.924-1.671,4.528-2.182,1.02-.41,1.208-.646,1.958-.95.76-.357,1.5-.755,2.216-1.193.364-.096.708-.258,1.015-.477.806-.567,1.228-1.333,2.162-1.946-.169.77-.482,1.501-.922,2.154-.413,3.122.7,5.275,2.5,6.562.567-.241,1.217-.184,1.733.152,1.49-.268,2.926-.776,4.252-1.505.973-.831,2.762-1.4,3.212-1.815.978-.815,2.046-1.518,3.182-2.093.757-.233.922-1.252,1.924-1.23.9-.249.505,1.227,1.145,1.221.172.837,1.4.333,1.57,1.171.589.145,1.932-.586,2.016.117,2.273-.7,3.981-.761,6.415-1.336.818-1.527,3.045-1.434,4.1-2.775.856-.031.954-.4,1.607-.907.592-.426,1.367-.519,1.969-.875,1.121-.779,1.928-1.8,3.05-2.579s.782-1.237,1.913-1.943c1.06-.7,2.188-2.619,3.312-3.4-.078.036-.29-.283-.522-.691,2.117-2.965,4.62-6.974,5.912-7.454.743.842,1.269,2.849,1.586,4.313-1.87,2.3-2.633,4.886-4.267,7.367-.061,1.293-.594,2.215-.269,3.748.727.7,1.372,1.909,2.288,1.8.361.031.245.259.395.313.559.181,1.151.232,1.733.151,2.16.093,4.323-.045,6.454-.412,3.393-1.2,5.966-3.386,8.445-5.562-.431,1.332-.295,2.782.374,4.012,1.659.73,4.381.19,6.846-.1.406-.19.575-.567,1.3-.512.822-.494,1.678-.93,2.561-1.305.669-.366,2-1.238,2.269-1.342.353-.042.114-.229.318-.323.794-.526,1.828-.863,2.552-1.376.792-.525,1.284-1.8,2.516-1.66-.119.8.078,1.85-.742,2.162-.514.489.233,1.973-.744,2.162.118.985-.78,1.235-.821,2.1-1.053,3.771-2.262,7.415-3.468,11.06-1.176,1.075-2.448,2.04-3.8,2.883-.4.261-.907.18-1.3.511-.266.175-.26.817-.516,1.063-.4.26-1.041.267-1.367.519-.291.266-.595.518-.912.753-.654.506-1.229,1.074-1.874,1.651-1.954,1.59-3.524,3.421-5.582,4.739-.847,1.888-2.772,3.118-3.6,4.573-.65,1.148-1.342,1.946-2.008,2.954-1.563,1.259-1.48,3.75-3.6,4.572-.1,1.014-.5,1.846-.668,2.794-1.039.723-1.775,1.804-2.067,3.035-.421,1.264-1.624,1.978-1.641,3.624-1.473,2.034-1.756,5.067-3.211,7.243.085,1.92-.7,3.085-.846,4.889.172,2.675.971,5.272,2.333,7.581,2.246.875,5.018-.456,7.356-1.233,1.1-.918,1.571-2.4,3.456-2.77.111-.76.363-1.493.743-2.161,2.146-1.185,2.951-3.424,4.553-4.972.25-.804.391-1.638.418-2.48,1.113-.274,1.362-1.162,2.237-1.622-.324-2.106,1.72-2.349,1.484-4.324,1.155.078.917-1.322,1.209-1.858,0,0,.247-.315.241-.386.407-.54.698-1.159.854-1.817,1.31-2.8,2.612-5.671,3.754-8.664.861-1.175.619-3.218,1.951-4.022.3-1.677,1.152-2.923,1.453-4.6.758-1.442,1.273-3.001,1.523-4.611,1.079-1.129.975-3.19,1.907-4.372,2.306-1.633,4.657-3.486,7.263-5.01,2.684-1.463,5.3-3.49,7.977-5.022.055-.722,1.83-.219,1.967-.88,1.396-.953,2.916-1.711,4.518-2.253,2.227-1.045,4.541-1.894,6.915-2.537,1.728-.492,3.22-1.169,2.668-3.392-1.851-1.137-2.7.75-5.425.647m-189.876,13.694c-.796.547-1.708.9-2.664,1.032-.357-3.6,2.335-7.994,3.327-10.47,1.8-1.074,2.676-3.321,4.585-4.692.53-.35,1.48-.176,2.319-.919.283-.034.333.389.43.592.021,1.257-.329,2.492-1.008,3.55-1.025,2.194-3.193,7.382-5.1,9.326-.583.578-1.214,1.107-1.886,1.58m66.1-12.908c-.01,1.717-2.7,6.111-3.648,7.152-.344,1.301-1.229,2.393-2.43,3-2.918.707-4.192-1-6.05-2.207,2.863-2.45,5.581-5.064,8.141-7.83,2.467-.867,2.511-3.514,4.9-4.443.019-.431.505-.56.516-1.061.547-.209.668.205.788.62-.626.145-.707.656-.544,1.423-.8.454-.8,2.881-1.675,3.342m91.31,26.275c-1.266,1.366-1.192,3.787-2.46,5.153-.034,1.505-1,2.977-1.563,4.26-.556,1.35-.965,2.685-1.6,3.978-.561,1.28-1.352,2.447-1.923,3.657-.631,1.29-.737,2.8-1.992,3.667-.598,1.794-1.428,3.503-2.468,5.082-.479.773-1.318,1.514-1.8,2.288-.3.464-.273,1.889-1.446,2.243-.565,1.856-2.777,2.476-3.256,4.46-2.072.6-2.8,2.336-5.505,2.373-1.627-1.663-1.312-4.417-1.191-7,.59-2.585,1.439-5.104,2.534-7.518,1.123-2.226,2.115-4.515,2.97-6.857.678-.3.806-1.025,1.17-1.569.373-.475,1.054-.769,1.18-1.5.745-.947,1.016-2.266,2.076-2.963,2.111-3.05,4.528-5.876,7.214-8.434,1.5-1.821,3.689-3.226,5.58-4.737.736-1.018,1.954-1.593,2.856-2.413.721.056.813-.383,1.3-.512.282-.033.332.388.436.662-.969,1.784-1.679,3.697-2.109,5.681" fill="#e2474e" stroke-width="0"/><path d="m434.884,20.368c-3.352,4.258-6.142,9.02-9.327,13.474-2.429,3-3.841,6.744-6.428,9.626-.442.481.061,1.706-.785,1.807-.592.428-.412,1.336-1.17,1.568-.248,1.253-.682,2.461-1.289,3.585-.483,1.343-1.534,2.11-.619,3.788.929.6,3.008.07,3.348-.686.626-.145-.686-1.56.109-2.085,1.245-2.149,2.348-4.282,3.68-6.3s3.04-3.862,3.758-6.234c1.111-.275,1.241-1.578,1.8-2.286.55-.782,1.179-1.5,1.73-2.28,1.1-1.56,1.956-3.377,3.6-4.573.185-1.449,1.464-2.1,1.641-3.625,1.187-1.428,2.7-2.536,3.255-4.46-.814-.831-1.379-1.978-3.3-1.321" fill="#e2474e" stroke-width="0"/><path d="m409.946,64.138c-.888,1.536-3.052,4.366-.969,6.261l1.691-.2c.664-1.006.937-2.325,2.076-2.962,1.225.069,1.185-.856,2.241-.983.318-3.324-2.868-3.085-5.04-2.115" fill="#e2474e" stroke-width="0"/><path d="m157.999,71.511c-.228-1.741-.792-3.42-1.661-4.946-3.528-.224-3.192,2.594-2.777,5.475,1.194.429,3.665.778,4.438-.529" fill="#e2474e" stroke-width="0"/></g></svg>