<?xml version="1.0" encoding="UTF-8"?><svg xmlns="http://www.w3.org/2000/svg" width="266" height="47" viewBox="0 0 266 47"><path d="m247.801.5H18.201C8.691.495.977,8.201.973,17.712c-.005,9.51,7.701,17.224,17.212,17.228h106.948l5.479,11.48h4.778l5.479-11.48h106.933c9.51.001,17.221-7.707,17.222-17.218.001-9.51-7.707-17.221-17.218-17.222h-.004" fill="#d4e0e0" stroke-width="0"/><path d="m140.873,34.94h106.928c9.51.001,17.221-7.707,17.222-17.218.001-9.51-7.707-17.221-17.218-17.222H18.201C8.691.499.98,8.207.979,17.718c-.001,9.51,7.707,17.221,17.218,17.222h106.935" fill="none" stroke="#000" stroke-miterlimit="10"/><line x1="122.939" y1="30.348" x2="130.611" y2="46.42" fill="none" stroke="#000" stroke-miterlimit="10"/><line x1="135.389" y1="46.421" x2="143.061" y2="30.349" fill="none" stroke="#000" stroke-miterlimit="10"/></svg>