<?xml version="1.0" encoding="UTF-8"?><svg xmlns="http://www.w3.org/2000/svg" width="18" height="18" viewBox="0 0 18 18"><path d="m3.664,1.836c-.002,1.012-.824,1.83-1.836,1.828C.816,3.662-.002,2.84,0,1.828.002.818.821,0,1.831,0c1.012,0,1.832.82,1.832,1.832" fill="#f9e2e4" stroke-width="0"/><path d="m12.664,1.836c-.002,1.012-.824,1.83-1.836,1.828-1.012-.002-1.83-.824-1.828-1.836.002-1.01.821-1.827,1.831-1.828,1.012,0,1.832.82,1.832,1.832" fill="#f9e2e4" stroke-width="0"/><path d="m3.664,10.836c-.002,1.012-.824,1.83-1.836,1.828C.816,12.662-.002,11.84,0,10.828c.002-1.01.821-1.827,1.831-1.828,1.012,0,1.832.82,1.832,1.832" fill="#f9e2e4" stroke-width="0"/><path d="m12.664,10.836c-.002,1.012-.824,1.83-1.836,1.828-1.012-.002-1.83-.824-1.828-1.836.002-1.01.821-1.827,1.831-1.828,1.012,0,1.832.82,1.832,1.832" fill="#f9e2e4" stroke-width="0"/></svg>