<?xml version="1.0" encoding="UTF-8"?><svg xmlns="http://www.w3.org/2000/svg" width="578" height="280" viewBox="0 0 578 280"><path d="m44.715,118.324h-14.452c-3.144,0-5.692-2.549-5.693-5.693V16.613c0-3.144,2.549-5.692,5.693-5.693h14.453c3.144,0,5.693,2.549,5.693,5.693v96.018c0,3.144-2.549,5.693-5.693,5.693" fill="#fce7ea" stroke-width="0"/><path d="m398.705,269.079h-14.453c-3.144,0-5.692-2.549-5.693-5.693v-96.018c0-3.144,2.549-5.692,5.693-5.693h14.453c3.144,0,5.693,2.549,5.693,5.693v96.018c0,3.144-2.549,5.693-5.693,5.693" fill="#fce7ea" stroke-width="0"/><path d="m148.963,16.613v10.093c0,3.145-2.548,5.694-5.693,5.695h-20.19c-1.179,0-2.134.956-2.135,2.135v78.093c0,3.145-2.548,5.694-5.693,5.695h-14.452c-3.144-.003-5.692-2.551-5.695-5.695V34.536c0-1.179-.956-2.135-2.135-2.135h-20.188c-3.144-.003-5.692-2.551-5.695-5.695v-10.093c0-3.144,2.549-5.693,5.693-5.693h70.491c3.144,0,5.693,2.549,5.693,5.693" fill="#fce7ea" stroke-width="0"/><path d="m212.854,16.613v10.093c0,3.145-2.548,5.694-5.693,5.695h-18.055c-1.179,0-2.135.956-2.135,2.135v15.342c0,1.179.954,2.134,2.133,2.135h14.008c3.145,0,5.694,2.55,5.693,5.695h0v10.093c0,3.145-2.548,5.694-5.693,5.695h-14.006c-1.178-.001-2.134.953-2.135,2.131v19.08c0,1.179.954,2.134,2.133,2.135h18.057c3.145,0,5.694,2.55,5.693,5.695h0v10.093c0,3.145-2.548,5.694-5.693,5.695h-40.335c-3.144-.003-5.692-2.551-5.695-5.695V16.613c0-3.144,2.549-5.693,5.693-5.693h40.337c3.144,0,5.693,2.549,5.693,5.693" fill="#fce7ea" stroke-width="0"/><path d="m167.378,167.368v10.093c0,3.145-2.548,5.694-5.693,5.695h-18.055c-1.179,0-2.135.956-2.135,2.135v15.342c0,1.179.954,2.134,2.133,2.135h14.009c3.145,0,5.694,2.55,5.693,5.695h0v10.093c0,3.145-2.548,5.694-5.693,5.695h-14.007c-1.178-.001-2.134.953-2.135,2.131v19.079c0,1.179.954,2.134,2.133,2.135h18.057c3.145,0,5.694,2.55,5.693,5.695h0v10.093c0,3.145-2.548,5.694-5.693,5.695h-40.335c-3.144-.003-5.692-2.551-5.695-5.695v-96.016c0-3.144,2.549-5.693,5.693-5.693h40.337c3.144,0,5.693,2.549,5.693,5.693" fill="#fce7ea" stroke-width="0"/><path d="m558.353,167.368v10.093c0,3.145-2.548,5.694-5.693,5.695h-18.055c-1.179,0-2.135.956-2.135,2.135h0v15.342c0,1.179.954,2.134,2.133,2.135h14.008c3.145,0,5.694,2.55,5.693,5.695h0v10.093c0,3.145-2.548,5.694-5.693,5.695h-14.006c-1.178-.001-2.134.953-2.135,2.131v19.079c0,1.179.954,2.134,2.133,2.135h18.062c3.145,0,5.694,2.55,5.693,5.695h0v10.093c0,3.145-2.548,5.694-5.693,5.695h-40.34c-3.144-.003-5.692-2.551-5.695-5.695v-96.016c0-3.144,2.549-5.693,5.693-5.693h40.342c3.144,0,5.693,2.549,5.693,5.693" fill="#fce7ea" stroke-width="0"/><path d="m281.993,64.218l26.72-50.276c.989-1.859,2.922-3.021,5.028-3.022h15.011c3.144.003,5.692,2.551,5.695,5.695v96.016c-.001,3.144-2.551,5.692-5.695,5.691h-12.9c-3.144,0-5.692-2.547-5.693-5.691v-52.074c0-.393-.317-.712-.71-.712-.267,0-.512.149-.634.387l-19.171,37.26c-.975,1.897-2.929,3.089-5.062,3.09h-6.889c-2.142,0-4.103-1.202-5.074-3.111l-18.707-36.741c-.179-.35-.608-.489-.958-.31-.238.122-.388.367-.388.634v51.579c-.001,3.144-2.551,5.692-5.695,5.691h-12.892c-3.143.001-5.692-2.546-5.693-5.689V16.615c-.001-3.144,2.547-5.694,5.691-5.695h14.867c2.1.002,4.03,1.158,5.021,3.01l26.869,50.292c.185.347.616.479.963.294.125-.067.227-.169.294-.294" fill="#fce7ea" stroke-width="0"/><path d="m416.363,37.299c-2.326,1.719-5.568,1.441-7.567-.649-3.787-4.173-8.68-5.807-16.263-5.807-8.561,0-12.3,3.892-12.3,9.339,0,6.383,5.6,9.963,19.146,13.853,23.349,6.694,32.223,15.411,32.223,33.779,0,19.457-13.075,32.066-37.516,32.066-16.766,0-28.868-3.527-38.348-12.525-2.27-2.181-2.342-5.79-.16-8.059.257-.267.539-.509.843-.722l9.951-6.982c2.142-1.534,5.063-1.372,7.023.389,4.761,4.422,10.587,6.416,18.513,6.416,9.962,0,13.853-4.2,13.853-9.339,0-6.224-4.358-9.339-20.236-14.476-21.79-7-31.131-16.967-31.131-34.246,0-17.744,11.674-30.975,37.825-30.975,14.492,0,26.642,4.125,34.659,12.566,2.125,2.303,1.981,5.894-.322,8.019-.182.168-.375.324-.578.467l-9.615,6.886Z" fill="#fce7ea" stroke-width="0"/><path d="m82.019,188.053c-2.326,1.719-5.568,1.441-7.567-.649-3.787-4.173-8.68-5.807-16.263-5.807-8.561,0-12.3,3.892-12.3,9.339,0,6.383,5.6,9.963,19.146,13.853,23.349,6.694,32.223,15.411,32.223,33.778,0,19.457-13.075,32.066-37.516,32.066-16.766,0-28.868-3.527-38.348-12.525-2.27-2.181-2.342-5.79-.16-8.059.257-.267.539-.509.843-.722l9.951-6.982c2.142-1.534,5.063-1.372,7.023.389,4.761,4.422,10.587,6.417,18.513,6.417,9.962,0,13.854-4.2,13.854-9.339,0-6.224-4.358-9.339-20.236-14.476-21.792-7-31.131-16.967-31.131-34.246,0-17.743,11.674-30.975,37.825-30.975,14.492,0,26.642,4.125,34.659,12.566,2.125,2.304,1.98,5.895-.324,8.021-.182.168-.374.323-.576.465l-9.616,6.886Z" fill="#fce7ea" stroke-width="0"/><path d="m482.095,60.46c.88-.725,1.037-2.013.357-2.928-5.215-7.11-8.568-14.46-8.568-23.419,0-15.1,13.229-24.75,30.975-24.75,19.458,0,30.665,9.962,30.665,21.635,0,11.178-9.727,19.994-19.991,28.022-.93.724-1.096,2.065-.371,2.995.028.036.057.071.087.105l14.049,15.77c.26.298.713.328,1.01.068.114-.099.193-.232.227-.379.277-1.418.474-2.851.59-4.292.284-2.903,2.735-5.11,5.652-5.088h13.169c3.136-.016,5.691,2.512,5.708,5.648,0,.16-.005.32-.018.48-.681,8.418-3.315,16.561-7.693,23.783-.164.261-.135.6.071.83l8.872,9.883c2.102,2.339,1.91,5.939-.429,8.041-1.046.94-2.402,1.459-3.808,1.459h-13.206c-1.604,0-3.133-.677-4.212-1.863l-2.6-2.861c-.217-.243-.575-.3-.857-.137-7.389,4.182-16.559,6.418-27.071,6.418-24.594,0-38.6-14.634-38.6-29.887,0-13.071,7.2-22.263,15.994-29.535m32.815,33.6l-16.357-17.991c-.8-.877-2.159-.94-3.036-.14-.081.074-.157.155-.226.24-2.47,3.106-3.974,6.23-3.974,9.462,0,7.627,5.915,12.764,14.787,12.764,2.621.023,5.236-.26,7.791-.843,1.135-.3,1.812-1.462,1.512-2.597-.089-.337-.26-.647-.497-.903m-13.8-50.142c.572,1.05,1.886,1.437,2.936.865.11-.06.215-.129.312-.207,5.01-3.954,8.436-7.775,8.436-12.33,0-3.735-2.958-6.226-7.471-6.226-4.048,0-7.16,2.18-7.16,8.095.183,3.455,1.193,6.816,2.946,9.8" fill="#fce7ea" stroke-width="0"/><path d="m244.67,265.679l-15.843-35.953c-.341-.775-1.108-1.275-1.954-1.275h-9.859c-1.179,0-2.134.956-2.135,2.135v32.8c0,3.145-2.548,5.694-5.693,5.695h-14.452c-3.144-.003-5.692-2.551-5.695-5.695v-96.018c0-3.144,2.549-5.693,5.693-5.693h34.78c24.749,0,40.627,11.361,40.627,33.777,0,13.733-5.984,23.129-16.485,28.187-.35.163-.502.58-.339.93,0,0,0,.001,0,.002l17.306,36.367c1.351,2.84.145,6.237-2.694,7.588-.764.364-1.599.552-2.446.553h-15.6c-2.257,0-4.3-1.334-5.209-3.4m-18.272-58.708c10.429,0,17.9-1.4,17.9-11.519,0-10.273-7.471-12.3-17.9-12.3h-5.826c-3.144,0-5.692,2.549-5.693,5.693v12.429c0,3.144,2.549,5.692,5.693,5.693l5.826.004Z" fill="#fce7ea" stroke-width="0"/><path d="m307.752,166.106l12.774,56.18c.088.383.47.623.853.535.266-.061.474-.269.535-.535l12.774-56.18c.589-2.592,2.894-4.431,5.552-4.431h15.191c3.145,0,5.694,2.55,5.693,5.695,0,.518-.071,1.033-.21,1.532l-26.856,96.017c-.69,2.458-2.93,4.158-5.483,4.16h-14.709c-2.554-.001-4.795-1.701-5.485-4.16l-26.855-96.016c-.848-3.027.919-6.168,3.946-7.016.5-.14,1.017-.211,1.537-.211h15.19c2.658,0,4.963,1.839,5.552,4.431" fill="#fce7ea" stroke-width="0"/><path d="m471.855,194.829c-1.766-.014-3.258-1.313-3.517-3.06-.9-5.576-3.366-10.171-9.309-10.171-8.095,0-11.363,7.784-11.363,25.373v16.81c0,16.812,3.113,25.373,11.363,25.373,5.991,0,8.171-3.574,9.249-10.2.263-1.733,1.747-3.018,3.5-3.031h14.687c3.153.008,5.702,2.571,5.694,5.724-.001.425-.05.849-.145,1.263-4.4,19.2-15.246,27.725-32.989,27.725-21.013,0-37.2-14.789-37.2-46.855v-16.81c0-32.378,16.19-46.853,37.2-46.853,16.129,0,28.283,9.066,32.913,27.643.751,3.062-1.122,6.154-4.185,6.905-.444.109-.899.164-1.355.164h-14.543Z" fill="#fce7ea" stroke-width="0"/></svg>