<svg xmlns="http://www.w3.org/2000/svg" width="198" height="34" viewBox="0 0 198 34"><path d="M54.536.699v19.927c0 3.865-1.766 5.633-4.558 5.633-2.74 0-4.557-1.864-4.557-5.776h-8c0 9.263 4.958 13.364 12.516 13.364s12.654-4.14 12.654-13.592V.699h-8.055zM133.323.693V17.08L123.023.693h-7.479v32.6h7.831V16.201l10.7 17.091h7.078V.692h-7.83zM162.741.693V20.62c0 3.865-1.766 5.638-4.557 5.638-2.74 0-4.557-1.864-4.557-5.776V.693h-8.006v19.7c0 9.263 4.958 13.454 12.518 13.454s12.654-4.146 12.654-13.6V.693h-8.052zM187.824 13.359c-3.939-1.538-4.911-2.281-4.911-3.729v-.045c0-1.206 1.017-2.138 2.83-2.138a11.944 11.944 0 017.21 2.979l4.026-6.238A16.4 16.4 0 00185.92.225c-6.77 0-11.059 4.146-11.059 10.058v.143c0 5.912 4.111 8.147 9.955 10.245 3.625 1.351 4.551 2.139 4.551 3.443v.045c0 1.4-1.1 2.378-3.225 2.378-3.007 0-5.883-1.491-8.406-3.682l-4.248 6.1a18.291 18.291 0 0012.608 4.8c6.632 0 11.281-3.91 11.281-10.245v-.092c0-5.54-3.67-8.056-9.555-10.058M102.8.693h7.965v32.598H102.8zM82.913.092c-9.338.003-16.905 7.576-16.902 16.914.003 9.338 7.576 16.905 16.914 16.902 9.336-.003 16.902-7.572 16.902-16.908 0-9.339-7.571-16.909-16.91-16.908h-.004m0 26.252c-4.838 0-8.76-4.179-8.76-9.344s3.922-9.342 8.76-9.342 8.766 4.179 8.766 9.342-3.922 9.344-8.766 9.344M9.764 26.007l-1.671 7.9H1.859l1.671-7.9H.621v-6.253h4.2l1.016-4.9H.621v-6.23h6.5L8.792.7h6.253l-1.671 7.924h6.005L21.05.7h6.231l-1.648 7.924h2.912v6.231h-4.22l-1.016 4.9h5.238v6.252h-6.524l-1.671 7.9h-6.231l1.648-7.9H9.764zm1.287-6.253h6.028l1.016-4.9h-6.028l-1.016 4.9z" fill="#00a44f"/></svg>