<svg xmlns="http://www.w3.org/2000/svg" width="180" height="110" viewBox="0 0 180 110"><path d="M124.278 74.179V51.211h11.535v11.021c4.018.927 9.271 1.441 14.008 1.441 9.682 0 17.818-1.956 17.818-9.682 0-8.033-10.196-9.888-21.526-9.888h-6.798V33.082h6.901c13.08 0 19.775-2.266 19.775-9.063 0-6.9-7.828-8.755-16.583-8.755-4.429 0-9.27.515-13.39 1.545v9.579h-11.535V4.966c6.386-2.884 15.861-4.119 23.896-4.119 15.964 0 29.663 6.282 29.663 21.32 0 7.519-5.15 14.007-12.669 15.964 7.828 1.339 14.626 7.21 14.626 17.098 0 16.686-14.832 22.557-31.826 22.557-7.828 0-17.406-1.339-23.896-3.605zM39.058 74.502l-.532-.532 13.539-13.534.527.532-13.534 13.534zM44.427 79.872l-.532-.532 13.539-13.534.527.532-13.534 13.534z"/><path d="M104.948 65.87c-14.474 14.475-37.942 14.475-52.416 0-14.475-14.474-14.475-37.942 0-52.416 14.474-14.475 37.942-14.475 52.416 0 14.474 14.474 14.475 37.941.001 52.415h-.001m-9.179-43.236c-9.405-9.404-24.653-9.404-34.057 0-9.404 9.405-9.404 24.653 0 34.057 9.405 9.404 24.652 9.404 34.056 0 9.405-9.404 9.405-24.652 0-34.057"/><path fill="#dce6e6" d="M8.935 98.019l26.82-26.82 11.449 11.449-26.82 26.82z"/><path d="M8.404 98.019l27.348-27.348 11.981 11.981L20.385 110 8.404 98.019zm27.352-26.288L9.468 98.019l10.917 10.917 26.288-26.288-10.917-10.917z"/></svg>