<svg xmlns="http://www.w3.org/2000/svg" width="180" height="110" viewBox="0 0 180 110"><path d="M120.262 43.075c0-23.381 12.463-42.126 38.933-42.126 5.047 0 10.506.721 15.141 2.472v14.11c-4.325-1.545-9.888-2.472-15.141-2.472-15.552 0-24.822 7.622-26.779 21.012 5.871-4.326 13.699-6.695 21.526-6.695 16.377 0 26.059 8.137 26.059 23.483 0 12.463-9.682 25.132-28.633 25.132-21.114 0-31.105-14.729-31.105-34.916zm11.948 4.017c1.133 11.947 7.106 16.686 19.157 16.686 8.755 0 16.376-3.604 16.376-11.947 0-9.064-8.239-11.536-16.479-11.536-7.21 0-14.625 2.678-19.054 6.798z"/><path fill="none" stroke="#000" stroke-miterlimit="10" stroke-width=".752" d="M35.394 74.241l13.539-13.539M54.302 66.072L40.763 79.611"/><path d="M101.55 65.87c-14.474 14.475-37.942 14.475-52.416 0-14.475-14.474-14.475-37.942 0-52.416 14.474-14.475 37.942-14.475 52.416 0 14.474 14.474 14.475 37.941.001 52.415h-.001m-9.179-43.236c-9.405-9.404-24.653-9.404-34.057 0-9.404 9.405-9.404 24.653 0 34.057 9.405 9.404 24.652 9.404 34.056 0 9.405-9.404 9.405-24.652 0-34.057"/><path fill="#dce6e6" d="M5.537 98.019l26.82-26.82 11.448 11.449-26.82 26.82z"/><path fill="none" stroke="#000" stroke-miterlimit="10" stroke-width=".752" d="M5.537 98.019l26.82-26.82 11.448 11.449-26.82 26.82z"/></svg>