<svg xmlns="http://www.w3.org/2000/svg" width="400" height="56" viewBox="0 0 400 56"><path d="M40.57 6.836l-3.925.108c-1.524.055-2.155.19-2.547.765-.199.28-.351.591-.451.92-.054.211-.127.317-.289.317-.186 0-.24-.132-.24-.421.003-.42.503-2.816.56-3.026.073-.348.157-.5.313-.5.365.141.744.246 1.13.313a27.81 27.81 0 002.631.138h10.426a12.774 12.774 0 001.812-.138c.4-.073.608-.132.709-.132.181 0 .211.162.211.554 0 .559-.078 2.371-.078 3.052-.025.263-.079.421-.235.421-.211 0-.265-.132-.3-.524l-.018-.284c-.049-.686-.765-1.427-3.1-1.47l-3.318-.093v10.791c0 2.42 0 4.5.129 5.634.083.735.24 1.312 1.028 1.42.445.059.892.092 1.341.1.29 0 .422.078.422.211 0 .181-.211.263-.5.263-1.739 0-3.395-.083-4.134-.083-.608 0-2.263.083-3.312.083-.348 0-.528-.083-.528-.263 0-.133.108-.211.421-.211.318 0 .635-.034.946-.1.528-.108.686-.686.77-1.446.127-1.111.127-3.188.127-5.608V6.836zM67.225 15.629c.054 0 .132-.029.132-.157v-.475c0-3.395-.029-4.209-.049-4.918-.054-.765-.263-1-1-1.216a4.446 4.446 0 00-.892-.073c-.27 0-.4-.078-.4-.24s.157-.211.5-.211c1.239 0 2.869.054 3.477.054.554 0 2.077-.054 2.974-.054.343 0 .5.054.5.211s-.157.24-.422.24a3.996 3.996 0 00-.681.073c-.608.108-.789.422-.843 1.216-.054.709-.054 1.343-.054 4.737v3.944c0 2.057 0 3.815.108 4.79.075.633.211 1.054.916 1.162.393.048.789.072 1.185.073.236 0 .373.133.373.24 0 .152-.19.236-.475.236-1.5 0-3.028-.084-3.66-.084-.53 0-2.16.084-3.052.084-.319 0-.5-.084-.5-.236 0-.106.108-.24.367-.24.283.005.565-.019.843-.073.476-.108.6-.528.686-1.19.1-.946.1-2.66.1-4.709v-1.71a.147.147 0 00-.132-.136H58.49c-.083 0-.156.029-.156.136v1.709c0 2.049.019 3.763.127 4.737.083.633.211 1.054.9 1.162.393.048.789.072 1.185.073.259 0 .367.133.367.24 0 .152-.186.236-.475.236-1.5 0-3.106-.084-3.763-.084-.528 0-2.052.084-2.974.084-.289 0-.451-.084-.451-.236 0-.106.084-.24.373-.24.275.004.549-.02.819-.073.47-.108.6-.528.681-1.19.108-.946.108-2.7.108-4.761v-3.944c0-3.395 0-4.028-.03-4.737-.054-.765-.265-1-1-1.216a4.504 4.504 0 00-.92-.073c-.24 0-.4-.078-.4-.24s.186-.211.5-.211c1.235 0 2.758.054 3.39.054.554 0 2.16-.054 3.08-.054.319 0 .476.054.476.211s-.138.24-.422.24a3.566 3.566 0 00-.66.073c-.632.108-.814.422-.868 1.216-.048.709-.048 1.523-.048 4.918v.475c0 .129.073.157.156.157h8.74zM78.042 14.815c0-3.395 0-4.026-.03-4.737-.054-.763-.263-1-1-1.214a4.538 4.538 0 00-.916-.075c-.241 0-.4-.078-.4-.24s.192-.211.53-.211c1.209 0 2.684.054 3.345.054.735 0 5.864.025 6.315 0a8.41 8.41 0 00.974-.132c.119-.045.242-.078.368-.1.127 0 .151.1.151.211-.094.477-.154.959-.181 1.444-.029.236-.078 1.216-.127 1.471-.03.106-.084.371-.265.371-.162 0-.186-.1-.186-.289 0-.28-.054-.557-.157-.817-.186-.392-.367-.711-1.528-.814-.4-.054-3.155-.108-3.629-.108-.1 0-.157.079-.157.211v5.528c0 .132.024.235.157.235.524 0 3.526 0 4.05-.049.549-.054.9-.1 1.108-.343.181-.157.26-.289.368-.289.115.016.197.12.186.235 0 .132-.059.5-.186 1.631a22.522 22.522 0 00-.108 1.5c0 .181-.025.5-.23.5-.162 0-.216-.078-.216-.186-.025-.235-.025-.524-.079-.817-.132-.441-.421-.789-1.293-.863-.421-.059-3.052-.108-3.629-.108-.1 0-.127.108-.127.236v1.787c0 .765-.03 2.655 0 3.317.054 1.528.759 1.866 3.125 1.866a6.23 6.23 0 002.19-.289c.578-.26.843-.735 1-1.655.054-.236.1-.343.263-.343.182 0 .211.289.211.528-.037.83-.143 1.656-.317 2.469-.157.582-.368.582-1.239.582-1.735 0-3.131-.03-4.263-.078-1.127-.03-2-.059-2.684-.059-.265 0-.76.029-1.314.029a31.42 31.42 0 01-1.606.054c-.289 0-.446-.083-.446-.235 0-.1.078-.24.368-.24.274.003.548-.022.817-.075.475-.108.6-.528.686-1.19.1-.944.1-2.7.1-4.761v-3.942zM102.013 22.757A9.916 9.916 0 0198.75 15a9.893 9.893 0 013.077-7.211C103.722 6.052 106.22 5 110.14 5c1.276-.008 2.552.08 3.815.263 1 .129 1.842.368 2.636.446.284.025.4.162.4.314 0 .211-.083.524-.136 1.449-.049.868-.03 2.319-.079 2.842-.024.4-.078.608-.313.608-.211 0-.265-.211-.265-.584a3.766 3.766 0 00-1.024-2.42c-.878-.918-2.928-1.625-5.348-1.625a6.862 6.862 0 00-4.947 1.625c-1.92 1.765-2.42 4.267-2.42 6.814 0 6.265 4.761 9.366 8.289 9.366 2.346 0 3.766-.26 4.815-1.47a4.417 4.417 0 00.9-1.739c.078-.421.132-.524.343-.524.186 0 .235.181.235.392a25.726 25.726 0 01-.578 3.5.942.942 0 01-.681.763c-1.539.448-3.14.65-4.742.6-3.606 0-6.634-.789-9.024-2.871M119.614 16.788c0-3.817 2.685-8.765 9.709-8.765 5.84 0 9.47 3.239 9.47 8.373s-3.737 9.155-9.7 9.155c-6.738 0-9.479-4.791-9.479-8.763m15.735.421c0-4.947-2.974-8-6.711-8-2.577 0-5.6 1.368-5.6 6.894 0 4.609 2.63 8.233 7 8.233 1.631 0 5.315-.759 5.315-7.127M142.642 24.967c-.368-.152-.451-.26-.451-.759 0-1.211.108-2.612.136-2.974 0-.343.1-.582.284-.582.211 0 .241.209.241.371.015.395.085.786.209 1.162.5 1.655 2.234 2.209 3.685 2.209a2.9 2.9 0 003.207-2.841c0-.976-.24-1.955-2.292-3.16l-1.338-.793c-2.738-1.6-3.629-3.1-3.629-5.075 0-2.739 2.63-4.5 5.838-4.5a13.433 13.433 0 013.288.373c.209.049.313.132.313.289 0 .284-.073.916-.073 2.684 0 .471-.108.711-.3.711-.156 0-.235-.132-.235-.4a2.504 2.504 0 00-.606-1.474 3.092 3.092 0 00-2.577-1.054c-1.655 0-3.155.868-3.155 2.4 0 .993.368 1.787 2.45 2.944l.944.528c3.052 1.681 4 3.39 4 5.413a4.793 4.793 0 01-2.312 4.188 6.758 6.758 0 01-3.869.92 9.763 9.763 0 01-3.763-.582M158.982 8.42c.054-.367.265-.578.446-.578.24 0 .4.1.709.7l6.211 12.477 6.208-12.623c.187-.373.4-.554.608-.554.186 0 .446.24.524.7l2.108 13.819c.209 1.4.421 2 1.132 2.209.427.133.87.204 1.317.211.211 0 .367.073.367.211 0 .181-.263.263-.606.263-.579 0-3.866-.108-4.791-.162-.549-.029-.681-.132-.681-.259 0-.108.1-.192.259-.235.138-.059.187-.319.108-.951l-1.289-9.674h-.079l-4.972 10c-.528 1.052-.662 1.263-.925 1.263-.284 0-.549-.451-.916-1.136-.554-1.03-2.4-4.444-2.661-5.075-.181-.422-1.547-3.237-2.317-4.791h-.073l-1.108 8.735a7.398 7.398 0 00-.085 1.051c0 .422.319.584.716.657.267.063.539.099.813.108.211 0 .368.1.368.211 0 .209-.211.263-.549.263-.974 0-2.028-.083-2.449-.083-.451 0-1.554.083-2.288.083-.24 0-.427-.054-.427-.263 0-.108.138-.211.368-.211.24.003.479-.015.716-.054.632-.084.843-.97.944-1.709l2.294-14.603zM182.398 14.815c0-3.395 0-4.026-.03-4.737-.048-.763-.259-1-.993-1.214a4.578 4.578 0 00-.92-.075c-.236 0-.4-.078-.4-.24s.192-.211.53-.211c1.209 0 2.688.054 3.345.054.735 0 5.869.025 6.315 0a8.41 8.41 0 00.974-.132 2.13 2.13 0 01.368-.1c.127 0 .156.1.156.211-.097.476-.159.959-.186 1.444-.024.236-.073 1.216-.127 1.471-.03.106-.084.371-.265.371-.157 0-.186-.1-.186-.289a2.118 2.118 0 00-.157-.817c-.181-.392-.367-.711-1.528-.814-.392-.054-3.155-.108-3.629-.108-.1 0-.157.079-.157.211v5.528c0 .132.029.235.157.235.524 0 3.526 0 4.05-.049.554-.054.9-.1 1.108-.343.186-.157.26-.289.368-.289.115.016.197.12.186.235 0 .132-.054.5-.186 1.631a22.522 22.522 0 00-.108 1.5c0 .181-.021.5-.23.5-.162 0-.211-.078-.211-.186-.03-.235-.03-.524-.084-.817-.127-.441-.421-.789-1.287-.863-.422-.059-3.052-.108-3.631-.108-.1 0-.132.108-.132.236v1.787c0 .765-.024 2.655 0 3.317.054 1.528.763 1.866 3.13 1.866.74.035 1.48-.063 2.185-.289.578-.26.843-.735 1-1.655.054-.236.1-.343.263-.343.187 0 .211.289.211.528-.037.83-.143 1.656-.317 2.469-.157.582-.368.582-1.235.582-1.735 0-3.136-.03-4.267-.078-1.127-.03-1.993-.059-2.679-.059-.265 0-.765.029-1.319.029a31.42 31.42 0 01-1.606.054c-.289 0-.441-.083-.441-.235 0-.1.073-.24.363-.24.274.003.548-.022.817-.075.475-.108.608-.528.686-1.19.1-.944.1-2.7.1-4.761v-3.942zM200.634 9.706l-3.449.084c-1.343.019-1.9.186-2.234.681a2.514 2.514 0 00-.4.768c-.054.181-.108.284-.263.284s-.211-.132-.211-.367c0-.368.451-2.528.5-2.714.049-.284.127-.422.259-.422.182 0 .422.187 1 .27.77.074 1.543.107 2.317.1h9.39a10.87 10.87 0 001.582-.1c.373-.059.554-.108.633-.108.156 0 .181.132.181.47 0 .481-.049 2.136-.049 2.715-.024.235-.078.367-.211.367-.181 0-.235-.1-.263-.451l-.025-.235c-.054-.578-.662-1.258-2.742-1.284l-2.915-.059v9.052c0 2.058.024 3.817.127 4.791.084.632.216 1.054.9 1.162.393.046.789.071 1.185.073.265 0 .368.132.368.24 0 .152-.183.236-.451.236-1.519 0-3.077-.084-3.733-.084-.53 0-2.108.084-3.028.084-.289 0-.441-.084-.441-.236 0-.108.073-.24.363-.24.274.004.548-.02.817-.073.475-.108.6-.53.686-1.19.1-.946.1-2.7.1-4.763l.007-9.051zM214.211 14.815c0-3.395 0-4.026-.024-4.737-.054-.763-.29-1.028-.789-1.185a2.999 2.999 0 00-.843-.1c-.241 0-.368-.054-.368-.263 0-.133.181-.187.549-.187.871 0 2.449.054 3.106.054.578 0 2.082-.054 2.972-.054.29 0 .476.054.476.187 0 .209-.132.263-.368.263a3.44 3.44 0 00-.686.075c-.632.108-.817.421-.866 1.214-.054.711-.054 1.343-.054 4.737v3.944c0 2.16 0 3.948.1 4.9.083.6.24.944.925 1.052.392.048.786.073 1.181.075.265 0 .368.136.368.24 0 .152-.183.235-.446.235-1.524 0-3.1-.083-3.733-.083-.53 0-2.108.083-3.033.083-.284 0-.441-.083-.441-.235 0-.1.073-.24.368-.24.273.003.545-.022.813-.075.475-.108.608-.421.686-1.082.1-.92.1-2.709.1-4.869l.007-3.949zM225.29 23.129a8.277 8.277 0 01-2.895-6.608 8.324 8.324 0 012.709-6.127c1.69-1.47 3.894-2.371 7.343-2.371 1.126-.004 2.25.077 3.364.24.873.132 1.631.284 2.317.367.265.025.343.129.343.265 0 .181-.048.451-.1 1.235-.054.735-.054 1.974-.084 2.42-.024.313-.1.552-.313.552-.187 0-.236-.181-.236-.475a3.149 3.149 0 00-.9-2.077 6.55 6.55 0 00-4.477-1.312 6.198 6.198 0 00-4.364 1.265c-1.709 1.474-2.131 3.625-2.131 5.808a7.46 7.46 0 007.211 7.843c2.052 0 3.184-.157 4.106-1.185.379-.43.65-.944.789-1.5.052-.338.1-.446.289-.446.162 0 .263.211.263.392a19.9 19.9 0 01-.5 2.979.792.792 0 01-.6.655 13.652 13.652 0 01-4.188.5c-3.155 0-5.84-.662-7.946-2.42M255.39 6.836l-3.918.108c-1.523.054-2.157.19-2.553.765a3.188 3.188 0 00-.446.92c-.052.211-.132.317-.294.317-.181 0-.235-.132-.235-.421 0-.421.5-2.817.554-3.028.078-.348.157-.5.313-.5.368.142.749.248 1.138.314.759.078 1.758.138 2.63.138h10.42a12.855 12.855 0 001.817-.138c.392-.073.6-.132.7-.132.187 0 .211.162.211.554 0 .559-.073 2.371-.073 3.052-.03.263-.084.421-.24.421-.211 0-.265-.132-.29-.524l-.025-.283c-.049-.686-.76-1.427-3.1-1.47l-3.32-.093v10.791c0 2.42 0 4.5.129 5.634.083.735.24 1.312 1.028 1.42.445.059.892.092 1.341.1.29 0 .427.078.427.211 0 .181-.216.263-.5.263-1.735 0-3.395-.083-4.134-.083-.6 0-2.263.083-3.312.083-.343 0-.528-.083-.528-.263 0-.133.108-.211.421-.211.32 0 .638-.033.951-.1.524-.108.681-.686.765-1.446.127-1.111.127-3.188.127-5.608l-.004-10.791zM270.047 14.815c0-3.395 0-4.026-.024-4.737-.056-.763-.265-1-1-1.214a4.597 4.597 0 00-.922-.075c-.235 0-.4-.078-.4-.24s.187-.211.53-.211c1.209 0 2.684.054 3.341.054.735 0 5.869.025 6.315 0a8.41 8.41 0 00.974-.132 2.13 2.13 0 01.368-.1c.127 0 .156.1.156.211-.097.476-.159.959-.186 1.444-.024.236-.073 1.216-.127 1.471-.03.106-.084.371-.265.371-.157 0-.186-.1-.186-.289a2.118 2.118 0 00-.157-.817c-.181-.392-.367-.711-1.528-.814-.392-.054-3.155-.108-3.629-.108-.1 0-.157.079-.157.211v5.528c0 .132.029.235.157.235.524 0 3.526 0 4.05-.049.554-.054.9-.1 1.108-.343.186-.157.26-.289.367-.289a.217.217 0 01.187.235c0 .132-.054.5-.187 1.631a23.675 23.675 0 00-.106 1.5c0 .181-.021.5-.23.5-.162 0-.211-.078-.211-.186-.03-.235-.03-.524-.084-.817-.127-.441-.421-.789-1.287-.863-.422-.059-3.052-.108-3.631-.108-.1 0-.132.108-.132.236v1.787c0 .765-.025 2.655 0 3.317.054 1.528.763 1.866 3.13 1.866.74.035 1.48-.063 2.185-.289.578-.26.843-.735 1-1.655.054-.236.1-.343.263-.343.187 0 .211.289.211.528-.037.83-.144 1.656-.319 2.469-.156.582-.367.582-1.233.582-1.735 0-3.136-.03-4.263-.078-1.132-.03-2-.059-2.684-.059-.265 0-.765.029-1.314.029-.559.03-1.136.054-1.611.054-.284 0-.441-.083-.441-.235 0-.1.073-.24.368-.24.273.003.545-.022.813-.075.475-.108.608-.528.686-1.19.1-.944.1-2.7.1-4.761l.005-3.942zM285.204 14.812c0-3.395 0-4.026-.025-4.731-.054-.77-.263-1-1-1.216a4.458 4.458 0 00-.922-.078c-.235 0-.392-.079-.392-.241s.186-.209.525-.209c1.209 0 2.684.059 3.16.059.787 0 2.895-.059 3.6-.059a8.128 8.128 0 014.394.949 3.906 3.906 0 011.631 3.077c0 1.655-.951 3.13-3.214 4.948 2.052 2.526 3.683 4.555 5.085 5.946a4.355 4.355 0 002.469 1.474c.181.042.368.06.554.054a.267.267 0 01.289.235c0 .186-.157.235-.451.235h-2.209a5.08 5.08 0 01-2.523-.44c-1-.5-1.866-1.558-3.16-3.293-.916-1.209-1.9-2.709-2.181-3.052a.52.52 0 00-.421-.162l-2.082-.049a.162.162 0 00-.181.183v.313c0 2.082.024 3.817.127 4.767.084.66.186 1.082.9 1.185a9.74 9.74 0 001.132.078.267.267 0 01.289.235c0 .157-.181.235-.475.235-1.338 0-3.263-.078-3.6-.078-.451 0-1.925.078-2.841.078-.294 0-.451-.078-.451-.235 0-.1.082-.235.367-.235.275.005.55-.022.819-.078.47-.1.6-.525.686-1.185.1-.951.1-2.709.1-4.767v-3.943zm2.949 1.735c0 .24.054.314.211.4a6.356 6.356 0 001.758.211 2.344 2.344 0 001.631-.368 3.776 3.776 0 001.5-3.315c0-3.155-2.155-3.974-3.526-3.974a8.208 8.208 0 00-1.366.079c-.157.054-.211.132-.211.317l.003 6.65z" fill="#040000"/><path d="M303.255 14.812c0-3.395 0-4.026-.025-4.731-.054-.77-.263-1-1-1.216a4.544 4.544 0 00-.917-.078c-.24 0-.4-.079-.4-.241s.186-.209.525-.209c1.209 0 2.688.059 3.16.059.794 0 2.9-.059 3.6-.059a8.151 8.151 0 014.4.949 3.917 3.917 0 011.631 3.077c0 1.655-.951 3.13-3.218 4.948 2.052 2.526 3.683 4.555 5.085 5.946a4.369 4.369 0 002.475 1.477c.183.042.371.06.559.054a.265.265 0 01.284.235c0 .186-.157.235-.446.235h-2.209a5.056 5.056 0 01-2.523-.44c-1-.5-1.871-1.558-3.16-3.293-.92-1.209-1.895-2.709-2.185-3.052a.52.52 0 00-.421-.162l-2.082-.049a.162.162 0 00-.181.183v.313c0 2.082.024 3.817.127 4.767.084.66.186 1.082.9 1.185a9.74 9.74 0 001.132.078.272.272 0 01.294.235c0 .157-.186.235-.479.235-1.338 0-3.263-.078-3.6-.078-.446 0-1.925.078-2.841.078-.294 0-.451-.078-.451-.235 0-.1.083-.235.367-.235.275.005.55-.022.819-.078.475-.1.6-.525.686-1.185.1-.951.1-2.709.1-4.767l-.006-3.946zm2.949 1.735c0 .24.054.314.211.4a6.356 6.356 0 001.758.211 2.368 2.368 0 001.636-.368 3.785 3.785 0 001.5-3.315c0-3.155-2.155-3.974-3.526-3.974a8.208 8.208 0 00-1.366.079c-.157.054-.211.132-.211.317l-.002 6.65z" fill="#040000"/><path d="M322.302 19.628c-.127 0-.157.03-.209.157l-1.235 3c-.194.433-.31.897-.343 1.371 0 .392.209.632.92.632h.343c.289 0 .343.1.343.24 0 .183-.132.232-.367.232-.765 0-1.843-.079-2.577-.079-.24 0-1.474.079-2.685.079-.294 0-.421-.049-.421-.232 0-.136.073-.24.26-.24.209 0 .475-.029.686-.029 1.052-.152 1.444-.843 1.92-1.974l6.05-14.073c.265-.627.451-.9.686-.9.343 0 .451.211.681.709.559 1.239 4.423 10.395 5.9 13.791.89 2.022 1.552 2.311 1.973 2.395.287.047.577.073.868.078.211 0 .313.075.313.24 0 .183-.127.232-1 .232-.814 0-2.5 0-4.444-.049-.422-.03-.686-.03-.686-.183 0-.136.054-.209.289-.24a.355.355 0 00.211-.5l-1.793-4.5a.216.216 0 00-.23-.157h-5.453zm4.948-1.235c.1 0 .132-.059.1-.132l-2.173-5.687c-.029-.073-.054-.206-.1-.206-.083 0-.108.133-.136.206l-2.234 5.658c-.049.1 0 .162.079.162h4.464zM338.302 23.129a8.29 8.29 0 01-2.89-6.608 8.324 8.324 0 012.709-6.127c1.684-1.47 3.894-2.371 7.343-2.371 1.126-.003 2.25.077 3.364.24.868.132 1.631.284 2.317.367.265.025.338.129.338.265 0 .181-.049.451-.1 1.235-.054.735-.054 1.974-.079 2.42-.03.313-.1.552-.313.552-.187 0-.241-.181-.241-.475a3.127 3.127 0 00-.9-2.077 6.537 6.537 0 00-4.472-1.312 6.198 6.198 0 00-4.364 1.265c-1.709 1.474-2.131 3.625-2.131 5.808a7.46 7.46 0 007.211 7.843c2.052 0 3.179-.157 4.105-1.185a3.69 3.69 0 00.789-1.5c.052-.338.1-.446.283-.446.162 0 .265.211.265.392-.094 1.004-.261 2-.5 2.979a.79.79 0 01-.606.655c-1.36.383-2.771.552-4.183.5-3.155 0-5.84-.662-7.951-2.42M356.485 14.815c0-3.395 0-4.026-.024-4.737-.056-.763-.265-1-1-1.214a4.597 4.597 0 00-.922-.075c-.235 0-.4-.078-.4-.24s.187-.211.53-.211c1.209 0 2.684.054 3.345.054.735 0 5.864.025 6.315 0 .326-.024.65-.068.97-.132a2.25 2.25 0 01.368-.1c.132 0 .156.1.156.211-.094.477-.154.959-.181 1.444-.029.236-.078 1.216-.132 1.471-.025.106-.079.371-.265.371-.157 0-.181-.1-.181-.289 0-.28-.054-.557-.157-.817-.186-.392-.367-.711-1.528-.814-.4-.054-3.16-.108-3.629-.108-.1 0-.162.079-.162.211v5.528c0 .132.029.235.162.235.519 0 3.526 0 4.05-.049.549-.054.9-.1 1.108-.343.181-.157.26-.289.368-.289a.213.213 0 01.181.235c0 .132-.054.5-.181 1.631a22.522 22.522 0 00-.108 1.5c0 .181-.025.5-.235.5-.162 0-.211-.078-.211-.186-.025-.235-.025-.524-.079-.817-.132-.441-.421-.789-1.292-.863-.422-.059-3.052-.108-3.631-.108-.1 0-.132.108-.132.236v1.787c0 .765-.025 2.655 0 3.317.059 1.528.763 1.866 3.13 1.866a6.23 6.23 0 002.19-.289c.578-.26.843-.735 1-1.655.054-.236.1-.343.263-.343.182 0 .211.289.211.528a15.66 15.66 0 01-.317 2.469c-.157.582-.368.582-1.239.582-1.735 0-3.131-.03-4.263-.078-1.132-.03-2-.059-2.684-.059-.265 0-.76.029-1.314.029-.559.03-1.136.054-1.611.054-.284 0-.441-.083-.441-.235 0-.1.078-.24.368-.24.273.004.545-.022.813-.075.474-.108.608-.528.686-1.19.1-.944.1-2.7.1-4.761l.005-3.942z" fill="#040000"/><path d="M153.051 37.338a136.443 136.443 0 01-32.635 2.16c-9.881-.425-21.627-2.033-36.631-5.153a124.53 124.53 0 00-36.823-1.352c-8.925 1.185-13.192 2.126-13.192 2.126M153.281 42.294a136.437 136.437 0 01-32.634 2.159c-9.881-.425-21.627-2.038-36.631-5.162a124.489 124.489 0 00-36.827-1.343C38.267 39.129 34 40.075 34 40.075M153.286 47.202a136.203 136.203 0 01-32.637 2.156c-9.885-.425-21.627-2.033-36.631-5.158a124.489 124.489 0 00-36.827-1.343c-8.923 1.181-13.186 2.127-13.186 2.127" fill="none" stroke="#4570af" stroke-linecap="round" stroke-miterlimit="10" stroke-width="1.817"/><path d="M365.986 37.359a138.143 138.143 0 01-32.87 2.15c-9.954-.432-21.784-2.038-36.9-5.172a126.536 126.536 0 00-37.1-1.352c-8.989 1.181-13.28 2.115-13.28 2.115M366.219 42.312a138.703 138.703 0 01-32.874 2.15c-9.949-.436-21.784-2.042-36.9-5.172a126.518 126.518 0 00-37.092-1.362c-8.993 1.179-13.285 2.125-13.285 2.125M366.224 47.221a138.402 138.402 0 01-32.87 2.146c-9.954-.432-21.784-2.042-36.9-5.167a126.38 126.38 0 00-37.092-1.362c-8.989 1.179-13.28 2.125-13.28 2.125" fill="none" stroke="#4570af" stroke-linecap="round" stroke-miterlimit="10" stroke-width="1.824"/><path fill="#040000" d="M211.051 33.297h1.092v15.456h-1.092z"/><path fill="none" stroke="#040000" stroke-width=".233" d="M211.051 33.297h1.092v15.456h-1.092z"/><path d="M171.626 48.761h-1.092l3.85-15.46h1.092l-3.85 15.46z" fill="#040000"/><path d="M171.626 48.761h-1.092l3.85-15.46h1.092l-3.85 15.46z" fill="none" stroke="#040000" stroke-width=".233"/><path d="M178.731 48.752h1.1l-4.35-15.456h-1.096l4.346 15.456z" fill="#040000"/><path d="M178.731 48.752h1.1l-4.35-15.456h-1.096l4.346 15.456z" fill="none" stroke="#040000" stroke-width=".233"/><path fill="#040000" d="M196.771 33.297h1.092v15.456h-1.092z"/><path fill="none" stroke="#040000" stroke-width=".233" d="M196.771 33.297h1.092v15.456h-1.092z"/><path fill="#040000" d="M204.042 33.297h1.092v15.456h-1.092z"/><path fill="none" stroke="#040000" stroke-width=".233" d="M204.042 33.297h1.092v15.456h-1.092z"/><path d="M223.218 41.175a3.914 3.914 0 002.807-3.61v-.215a3.959 3.959 0 00-3.787-4.05h-4.426v15.47h1.1V34.391h3.32a3.254 3.254 0 012.636 3.15 2.73 2.73 0 01-2.542 2.66h-.617l3.224 8.552h1.143l-2.858-7.578z" fill="#040000"/><path d="M223.218 41.175a3.914 3.914 0 002.807-3.61v-.215h0a3.959 3.959 0 00-3.787-4.05h-4.426v15.47h1.1V34.391h3.32a3.254 3.254 0 012.636 3.15 2.73 2.73 0 01-2.542 2.66h-.617l3.224 8.552h1.143l-2.858-7.578z" fill="none" stroke="#040000" stroke-width=".233"/><path d="M234.524 48.859c-3.772 0-4.928-4.713-4.928-8s1.155-8 4.928-8 4.928 4.718 4.928 8-1.151 8-4.928 8m3.85-8c0-2.88-.9-7.014-3.85-7.014s-3.845 4.134-3.845 7.014.9 7.024 3.845 7.024 3.85-4.144 3.85-7.024" fill="#040000"/><path d="M234.524 48.859c-3.772 0-4.928-4.713-4.928-8s1.155-8 4.928-8 4.928 4.718 4.928 8-1.151 8-4.928 8zm3.85-8c0-2.88-.9-7.014-3.85-7.014s-3.845 4.134-3.845 7.014.9 7.024 3.845 7.024 3.85-4.144 3.85-7.024z" fill="none" stroke="#040000" stroke-width=".233"/><path d="M191.275 36.596c-.406-1.552-1.317-3.42-3.474-3.747a3.566 3.566 0 00-4.085 3.16 3.829 3.829 0 002.052 4.458c1.251.7 3.7 1.2 4.493 2.547 1.479 2.5-.27 5.108-2.357 4.977-1.122-.063-2.93-.916-3.468-3.591l-.847.53a4.62 4.62 0 004.482 4.007c3.542 0 4.453-4.061 3.164-6.256-.866-1.484-2.155-1.822-4.58-2.915a3.255 3.255 0 01-.774-5.545c1.225-.882 3.906-.4 4.464 2.8l.93-.425z" fill="#040000"/><path d="M191.275 36.596c-.406-1.552-1.317-3.42-3.474-3.747a3.566 3.566 0 00-4.085 3.16 3.829 3.829 0 002.052 4.458c1.251.7 3.7 1.2 4.493 2.547 1.479 2.5-.27 5.108-2.357 4.977-1.122-.063-2.93-.916-3.468-3.591l-.847.53a4.62 4.62 0 004.482 4.007c3.542 0 4.453-4.061 3.164-6.256-.866-1.484-2.155-1.822-4.58-2.915a3.255 3.255 0 01-.774-5.545c1.225-.882 3.906-.4 4.464 2.8l.93-.425z" fill="none" stroke="#040000" stroke-width=".233"/><path fill="#040000" d="M163.766 33.396h1.092v15.456h-1.092z"/><path fill="none" stroke="#040000" stroke-width=".233" d="M163.766 33.396h1.092v15.456h-1.092z"/><path fill="#040000" d="M159.919 33.307h8.784v1.108h-8.784z"/><path fill="none" stroke="#040000" stroke-width=".233" d="M159.919 33.307h8.784v1.108h-8.784z"/><path fill="#040000" d="M197.314 40.152h7.406v1.087h-7.406z"/><path fill="none" stroke="#040000" stroke-width=".233" d="M197.314 40.152h7.406v1.087h-7.406z"/></svg>